<?xml version="1.0" standalone="no"?>
<!DOCTYPE svg PUBLIC "-//W3C//DTD SVG 20010904//EN"
 "http://www.w3.org/TR/2001/REC-SVG-20010904/DTD/svg10.dtd">
<svg version="1.0" xmlns="http://www.w3.org/2000/svg"
 width="296.000000pt" height="296.000000pt" viewBox="0 0 296.000000 296.000000"
 preserveAspectRatio="xMidYMid meet">
<metadata>
Created by potrace 1.11, written by Peter Selinger 2001-2013
</metadata>
<g transform="translate(0.000000,296.000000) scale(0.100000,-0.100000)"
fill="#000000" stroke="none">
<path d="M1335 2954 c-451 -49 -853 -296 -1098 -674 -377 -583 -294 -1351 199
-1844 212 -212 469 -349 769 -408 146 -29 395 -31 535 -4 406 79 741 299 971
639 109 163 181 337 221 542 31 158 31 396 0 553 -90 446 -364 816 -769 1034
-104 56 -293 121 -418 143 -89 16 -332 27 -410 19z m-104 -342 c20 -23 28 -44
33 -94 19 -171 143 -295 312 -314 91 -9 129 -42 129 -109 0 -67 -38 -100 -127
-109 -171 -19 -295 -143 -314 -312 -9 -91 -42 -129 -109 -129 -67 0 -100 38
-109 129 -19 169 -143 293 -314 312 -89 9 -127 42 -127 109 0 67 38 100 129
109 169 19 293 143 312 313 10 95 51 138 124 128 22 -3 45 -15 61 -33z m891
-912 c19 -14 27 -32 31 -69 14 -118 90 -194 208 -208 118 -14 118 -132 0 -146
-118 -14 -194 -90 -208 -208 -14 -118 -132 -118 -146 0 -14 118 -90 194 -208
208 -118 14 -118 132 0 146 118 14 194 90 208 208 6 52 36 89 73 89 10 0 29
-9 42 -20z m-678 -833 c11 -8 22 -34 27 -66 8 -55 42 -109 84 -137 12 -8 47
-19 76 -23 53 -9 79 -29 79 -61 0 -32 -26 -52 -79 -61 -55 -8 -109 -42 -137
-84 -8 -12 -19 -47 -23 -76 -9 -53 -29 -79 -61 -79 -32 0 -52 26 -61 79 -8 55
-42 109 -84 137 -12 8 -47 19 -76 23 -53 9 -79 29 -79 61 0 32 26 52 79 61 55
8 109 42 137 84 8 12 19 47 23 76 9 53 29 79 61 79 9 0 24 -6 34 -13z"/>
</g>
</svg>
