<svg width="283" height="189" viewBox="0 0 283 189" fill="none" xmlns="http://www.w3.org/2000/svg">
<path d="M53.2988 113.667C55.1591 112.98 55.7924 112.66 55.9755 112.918L53.0053 119.123C49.7792 119.1 47.3186 121.103 45.4501 124.528C44.7923 118.685 51.1928 114.446 53.2988 113.667Z" fill="#240046"/>
<path d="M54.1258 117.305C55.9861 116.617 53.4942 118.439 53.6773 118.696L53.0043 119.123C49.778 119.1 47.3171 121.104 45.4485 124.529C47.8109 119.033 52.0196 118.083 54.1258 117.305Z" fill="#5A189A"/>
<path d="M53.2988 113.667C55.1591 112.98 55.7924 112.66 55.9755 112.918L55.4243 113.608C47.4998 116.278 46.3154 121.183 45.4501 124.528C44.7923 118.685 51.1928 114.446 53.2988 113.667Z" fill="#190031"/>
<path d="M51.0478 108.909C52.9829 108.477 53.6531 108.245 53.8003 108.525L52.5027 111.863L50.0316 114.277C46.8374 113.822 44.1323 115.479 41.8251 118.623C41.9501 112.744 48.8571 109.399 51.0478 108.909Z" fill="#240046"/>
<path d="M51.3844 112.625C53.3194 112.192 50.6077 113.664 50.755 113.944L50.0313 114.277C46.8371 113.822 44.132 115.479 41.8248 118.623C44.8966 113.493 49.1937 113.114 51.3844 112.625Z" fill="#5A189A"/>
<path d="M51.0478 108.909C52.9829 108.477 53.6531 108.245 53.8003 108.525L53.1622 109.135C44.9536 110.721 43.1274 115.424 41.8251 118.623C41.9501 112.744 48.8571 109.399 51.0478 108.909Z" fill="#190031"/>
<path d="M50.2171 104.095C52.546 103.536 53.3627 103.257 53.5012 103.541L51.5619 107.101L48.3573 109.76C44.6578 109.461 41.2719 111.342 38.1695 114.755C39.0448 108.605 47.5806 104.728 50.2171 104.095Z" fill="#240046"/>
<path d="M50.1521 107.96C52.481 107.401 49.1102 109.089 49.2487 109.373L48.3565 109.761C44.657 109.462 41.2712 111.342 38.1688 114.756C42.4161 109.225 47.5156 108.592 50.1521 107.96Z" fill="#5A189A"/>
<path d="M50.2171 104.095C52.546 103.536 53.3627 103.257 53.5012 103.541L52.6753 104.214C42.827 106.324 40.0971 111.34 38.1695 114.755C39.0448 108.605 47.5806 104.728 50.2171 104.095Z" fill="#190031"/>
<path d="M98.3491 120.452C99.1945 103.563 91.4979 91.1063 87.544 86.9889L73.7618 93.6838C76.4413 95.0456 78.5702 100.825 81.8779 103.873C81.9401 108.756 83.945 114.208 84.9396 116.323C80.8958 118.044 74.2988 118.135 68.0146 115.299C60.3468 106.109 52.1103 103.807 48.9506 103.804L54.3028 117.633L57.5797 118.328L68.448 120.9C78.0627 127.788 97.5036 137.341 98.3491 120.452Z" fill="#5A189A"/>
<path d="M62.865 112.181C59.584 108.951 52.8398 105.401 50.3337 106.848L49.1943 104.029L58.0045 106.239C60.9918 109.565 66.1461 115.411 62.865 112.181Z" fill="#9D4EDD"/>
<path d="M58.5355 115C60.4798 114.817 62.8899 116.803 63.8519 117.818L65.1431 120.104L63.3203 120.561L57.7761 117.818L54.2824 117.818L54.2824 116.066C54.89 115.787 56.5913 115.182 58.5355 115Z" fill="black" fill-opacity="0.3"/>
<path d="M48.673 104.027L48.2344 105.174C47.7651 104.995 47.4526 104.548 47.4455 104.045C47.4385 103.543 47.7384 103.086 48.2025 102.893L48.673 104.027ZM63.7725 111.474L62.9036 112.342L62.9036 112.342L63.7725 111.474ZM86.1088 116.611L87.0003 115.766C87.2961 116.078 87.4066 116.523 87.2918 116.938C87.1769 117.352 86.8534 117.677 86.4391 117.793L86.1088 116.611ZM97.4507 121.033L96.272 121.378L96.1913 121.1L96.2428 120.816L97.4507 121.033ZM95.6554 128.311L95.0613 127.237C95.1036 127.213 95.1473 127.192 95.1922 127.174L95.6554 128.311ZM80.9724 127.662L80.6449 128.846L80.6449 128.846L80.9724 127.662ZM67.978 120.429L67.9644 119.201C68.4139 119.196 68.8302 119.436 69.0495 119.829L67.978 120.429ZM58.1547 117.945L58.6846 116.837L58.9654 116.971L59.1482 117.223L58.1547 117.945ZM52.5305 114.775L52.1666 115.948C51.792 115.833 51.4956 115.544 51.3688 115.173C51.2421 114.802 51.3003 114.393 51.5254 114.071L52.5305 114.775ZM53.6339 113.003L53.4814 111.785L53.6052 111.769L53.7296 111.779L53.6339 113.003ZM48.7588 108.877L49.0527 110.068L48.2689 107.751L48.7588 108.877ZM54.4028 109.666L54.7513 108.488C55.3125 108.654 55.6784 109.193 55.6253 109.776C55.5722 110.359 55.1148 110.824 54.5328 110.887L54.4028 109.666ZM51.1269 113.319L51.2793 114.537C50.9192 114.583 50.5576 114.467 50.2916 114.22C50.0257 113.973 49.8826 113.621 49.9009 113.259L51.1269 113.319ZM50.2927 110.126L50.2952 111.354L50.1596 108.906L50.2927 110.126ZM53.7971 118.245L52.638 118.65C52.5571 118.418 52.5477 118.167 52.6112 117.929L53.7971 118.245ZM82.0272 103.418L82.8607 102.516L83.3837 102.999L83.2232 103.694L82.0272 103.418ZM48.2025 102.893C50.0909 102.107 52.5168 102.366 55.2225 103.584C57.9504 104.812 61.1208 107.081 64.6413 110.606L62.9036 112.342C59.5137 108.948 56.5831 106.89 54.2131 105.823C51.8211 104.746 50.1524 104.741 49.1434 105.161L48.2025 102.893ZM64.6413 110.606C67.8504 113.819 72.0468 115.336 76.0419 115.886C80.0454 116.438 83.7319 116.003 85.7785 115.429L86.4391 117.793C84.0621 118.46 80.0357 118.916 75.7045 118.319C71.365 117.721 66.605 116.049 62.9036 112.342L64.6413 110.606ZM98.6293 120.689C99.3449 123.149 99.336 125.089 98.7999 126.575C98.2545 128.086 97.2057 129.003 96.1186 129.448L95.1922 127.174C95.6778 126.976 96.1967 126.558 96.4908 125.743C96.7942 124.902 96.8966 123.525 96.272 121.378L98.6293 120.689ZM96.2495 129.385C95.31 129.906 93.521 130.338 90.9929 130.375C88.42 130.412 84.9746 130.041 80.6449 128.846L81.3 126.478C85.4368 127.62 88.6496 127.952 90.9599 127.919C93.315 127.885 94.6342 127.474 95.0613 127.237L96.2495 129.385ZM80.6449 128.846C76.3077 127.649 73.1448 126.153 70.9397 124.743C68.7694 123.355 67.4485 121.998 66.9065 121.029L69.0495 119.829C69.3113 120.297 70.2542 121.388 72.2636 122.673C74.2382 123.936 77.1706 125.339 81.3 126.478L80.6449 128.846ZM67.9917 121.657C66.2783 121.677 64.1671 121.684 62.2407 121.347C60.3471 121.016 58.3523 120.308 57.1613 118.667L59.1482 117.223C59.7668 118.075 60.9613 118.63 62.6657 118.928C64.3374 119.22 66.233 119.222 67.9644 119.201L67.9917 121.657ZM51.5254 114.071C51.8757 113.571 52.3208 113.207 52.6904 112.949C53.04 112.705 53.439 112.484 53.5774 112.399C53.6964 112.327 53.6487 112.344 53.5731 112.421C53.5416 112.453 53.3642 112.632 53.2932 112.946C53.2526 113.126 53.2505 113.337 53.3175 113.552C53.3828 113.762 53.4946 113.916 53.5946 114.018C53.7706 114.198 53.9489 114.259 53.9703 114.267C54.0151 114.283 54.0319 114.284 53.9966 114.277C53.9272 114.264 53.7876 114.246 53.5382 114.227L53.7296 111.779C54.0013 111.8 54.2473 111.825 54.4503 111.863C54.5511 111.882 54.6756 111.91 54.8026 111.956C54.9062 111.993 55.1412 112.086 55.3509 112.301C55.6244 112.581 55.7944 113.013 55.6879 113.485C55.6078 113.84 55.4011 114.062 55.3231 114.142C55.1544 114.314 54.9444 114.44 54.8538 114.496C54.3016 114.833 53.8167 115.078 53.5355 115.479L51.5254 114.071ZM49.1115 102.88C49.8528 103.162 50.3261 103.786 50.6057 104.342C50.8981 104.924 51.0686 105.603 51.1152 106.269C51.1998 107.478 50.8755 109.292 49.2487 110.002L48.2689 107.751C48.4167 107.687 48.7286 107.335 48.6662 106.443C48.6392 106.058 48.5404 105.702 48.4121 105.447C48.271 105.166 48.1722 105.15 48.2344 105.174L49.1115 102.88ZM48.4649 107.685C49.8094 107.352 51.1124 107.49 52.1897 107.73C53.2125 107.957 54.252 108.341 54.7513 108.488L54.0544 110.844C53.2852 110.617 52.592 110.336 51.6546 110.127C50.7717 109.931 49.8869 109.862 49.0527 110.068L48.4649 107.685ZM49.9009 113.259C49.9157 112.966 49.9677 112.583 50.0016 112.293C50.0402 111.964 50.0675 111.671 50.0659 111.421C50.0642 111.147 50.0263 111.063 50.0347 111.08C50.0468 111.105 50.0876 111.176 50.1777 111.243C50.2724 111.314 50.3654 111.339 50.4164 111.345L50.6915 108.904C51.4485 108.989 51.9713 109.444 52.2444 110.008C52.4765 110.487 52.5184 111.014 52.5209 111.403C52.5236 111.816 52.4798 112.237 52.44 112.577C52.3956 112.956 52.3622 113.195 52.3529 113.38L49.9009 113.259ZM50.4164 111.345C50.4394 111.347 50.4442 111.345 50.4259 111.347L50.1596 108.906C50.3321 108.887 50.5106 108.884 50.6915 108.904L50.4164 111.345ZM50.2903 108.898C50.3767 108.898 50.4597 108.897 50.5395 108.896L50.5684 111.352C50.4803 111.353 50.3893 111.354 50.2952 111.354L50.2903 108.898ZM50.5395 108.896C51.5093 108.884 52.0103 108.818 52.4478 108.74C52.896 108.66 53.4277 108.536 54.2728 108.445L54.5328 110.887C53.7997 110.966 53.4402 111.057 52.875 111.158C52.2993 111.26 51.6649 111.338 50.5684 111.352L50.5395 108.896ZM57.6249 119.053C57.787 119.131 57.8791 119.111 57.7614 119.11C57.6783 119.11 57.5468 119.119 57.3585 119.144C56.9782 119.195 56.5223 119.288 56.0143 119.387C55.5425 119.479 55 119.582 54.5549 119.617C54.3411 119.633 54.0552 119.643 53.7755 119.588C53.5564 119.545 52.8893 119.371 52.638 118.65L54.9562 117.839C54.8598 117.563 54.6751 117.387 54.5236 117.292C54.3886 117.207 54.2778 117.184 54.2493 117.178C54.1987 117.168 54.2197 117.18 54.3674 117.168C54.6453 117.147 55.0442 117.074 55.5464 116.976C56.0124 116.885 56.563 116.773 57.0362 116.71C57.2746 116.678 57.5314 116.653 57.7753 116.655C57.9844 116.656 58.3419 116.673 58.6846 116.837L57.6249 119.053ZM52.6112 117.929C52.6665 117.722 52.6837 117.176 52.5339 116.633C52.4634 116.377 52.3729 116.187 52.2866 116.068C52.2456 116.011 52.2128 115.98 52.1929 115.965C52.1749 115.951 52.1669 115.949 52.1666 115.948L52.8944 113.602C54.1298 113.985 54.676 115.162 54.9008 115.978C55.139 116.842 55.175 117.841 54.9831 118.561L52.6112 117.929ZM53.7863 114.221L51.2793 114.537L50.9745 112.101L53.4814 111.785L53.7863 114.221ZM96.2428 120.816C97.3142 114.898 96.9403 100.341 86.4224 87.7223L88.3086 86.1485C99.3948 99.4486 99.8277 114.793 98.6585 121.251L96.2428 120.816ZM85.2173 117.456C84.1622 116.342 82.7259 114.344 81.719 111.863C80.7103 109.378 80.0972 106.319 80.8312 103.143L83.2232 103.694C82.637 106.23 83.1093 108.758 83.9938 110.937C84.8802 113.121 86.1448 114.863 87.0003 115.766L85.2173 117.456ZM81.1937 104.321C78.6351 101.956 77.1641 100.139 75.9879 98.51C74.7941 96.8571 74.0229 95.5833 72.7111 94.069L74.5671 92.4596C75.9718 94.0812 76.9031 95.5817 77.9784 97.0705C79.0714 98.5838 80.4362 100.275 82.8607 102.516L81.1937 104.321Z" fill="#240046"/>
<path d="M128.835 176.862C128.373 175.126 128.139 174.527 128.386 174.383L133.704 177.583C133.414 180.493 135.006 182.882 137.923 184.855C132.625 184.961 129.357 178.829 128.835 176.862Z" fill="#240046"/>
<path d="M132.168 176.419C131.706 174.682 133.132 177.084 133.379 176.94L133.705 177.583C133.415 180.493 135.007 182.882 137.923 184.855C133.19 182.263 132.69 178.385 132.168 176.419Z" fill="#5A189A"/>
<path d="M128.835 176.862C128.373 175.126 128.139 174.527 128.386 174.383L128.959 174.939C130.692 182.315 134.994 183.794 137.923 184.855C132.625 184.961 129.357 178.829 128.835 176.862Z" fill="#190031"/>
<path d="M124.905 177.688C124.801 175.894 124.692 175.261 124.963 175.169L127.743 176.815L129.531 179.377C128.663 182.169 129.743 184.83 132.205 187.351C126.994 186.386 125.022 179.72 124.905 177.688Z" fill="#240046"/>
<path d="M128.259 177.926C128.155 176.132 129.07 178.772 129.34 178.681L129.531 179.377C128.663 182.169 129.743 184.83 132.205 187.351C128.088 183.857 128.376 179.957 128.259 177.926Z" fill="#5A189A"/>
<path d="M124.905 177.688C124.801 175.894 124.692 175.261 124.963 175.169L125.412 175.829C125.631 183.404 129.548 185.721 132.205 187.351C126.994 186.386 125.022 179.72 124.905 177.688Z" fill="#190031"/>
<path d="M120.792 176.077C121.233 174.335 121.32 173.698 121.605 173.693L123.76 176.104L124.693 179.088C123.026 181.487 123.254 184.351 124.842 187.499C120.166 185.001 120.292 178.049 120.792 176.077Z" fill="#240046"/>
<path d="M123.916 177.32C124.358 175.578 124.436 178.372 124.721 178.367L124.693 179.088C123.025 181.487 123.254 184.351 124.842 187.5C121.969 182.923 123.417 179.292 123.916 177.32Z" fill="#5A189A"/>
<path d="M120.792 176.077C121.233 174.335 121.32 173.698 121.605 173.693L121.835 174.458C119.763 181.746 122.801 185.141 124.842 187.499C120.166 185.001 120.292 178.049 120.792 176.077Z" fill="#190031"/>
<path d="M116.385 129.726C117.802 127.186 119.301 121.559 113.954 119.365C108.607 117.17 104.233 120.279 102.714 122.107C100.992 123.732 94.6362 130.739 98.7678 141.465C102.899 152.192 123.473 151.565 131.271 150.448C130.46 151.362 128.962 154.349 129.448 158.981C129.934 163.613 123.844 172.231 121.514 176.091C122.426 175.685 126.045 175.559 127.017 177.265C128.536 175.741 128.84 175.741 130.055 177.57C130.562 176.757 131.817 175.437 132.79 176.656C132.79 173.304 133.093 172.694 134.005 170.256C136.233 167.107 140.992 159.468 142.207 154.105C144.03 149.229 144.03 148.924 144.03 148.315C144.131 147.299 141.903 145.572 137.65 144.963C133.397 144.353 125.296 137.141 122.461 133.687C121.233 132.533 118.376 130.468 114.949 129.429C115.493 129.535 115.988 129.638 116.385 129.726Z" fill="#5A189A"/>
<path d="M134.177 162.803C136.061 160.304 139.266 150.994 140.633 146.651L144.278 147.413L140.253 159.146L133.797 171.107L132.962 175.602C131.848 176.871 129.544 178.832 129.24 176.516H127.76L122.747 175.83C122.367 175.31 121.919 174.253 123.165 174.192C124.41 174.131 125.354 174.402 125.671 174.544C127.585 173.943 128.912 174.294 129.337 174.544C129.906 171.003 132.246 165.365 134.177 162.803Z" fill="black" fill-opacity="0.3"/>
<path d="M116.385 129.726C116.726 129.115 117.071 128.325 117.325 127.447M106.666 129.726C107.581 128.971 108.489 128.659 111.524 128.812C116.385 129.055 120.84 132.164 122.461 133.687C125.296 137.141 133.397 144.353 137.65 144.963C141.903 145.572 144.131 147.299 144.03 148.315C144.03 148.924 144.03 149.229 142.207 154.105C140.992 159.468 136.233 167.107 134.005 170.256C133.093 172.694 132.79 173.304 132.79 176.656C131.578 176.351 129.954 176.757 129.448 177.57C128.233 175.742 126.714 175.742 125.195 177.265C124.223 175.559 122.122 175.742 121.245 175.742C123.574 171.881 129.934 163.613 129.448 158.981C128.962 154.349 130.46 151.362 131.271 150.448C123.473 151.565 102.899 152.192 98.7678 141.465C94.6362 130.739 100.992 123.733 102.714 122.107C103.014 121.746 103.425 121.336 103.932 120.926" stroke="#240046" stroke-width="2.45547" stroke-linecap="round"/>
<path d="M185.859 49.7145C186.466 35.8269 203.237 31.8345 211.546 31.5743C202.425 24.9524 176.494 23.4396 164.588 23.7382C138.123 25.5078 109.652 29.02 97.6838 44.506C110.175 59.965 111.867 84.8349 110.62 95.3282C109.623 103.723 95.5448 108.931 88.6305 110.486L99.9252 116.17L109.954 107.356C126.764 84.335 144.521 70.8812 155.271 70.0543C160.037 58.0991 168.071 50.4683 185.859 49.7145Z" fill="#5A189A"/>
<path d="M124.06 32.8177C109.396 35.8284 101.421 43.4266 99.4491 46.0645L97.3911 43.484L103.051 38.4949L115.828 31.9575C124.574 30.1511 139.002 29.7498 124.06 32.8177Z" fill="#9D4EDD"/>
<path d="M211.546 31.5743L212.267 30.5804C212.692 30.8888 212.874 31.4333 212.72 31.9352C212.566 32.437 212.11 32.7853 211.585 32.8017L211.546 31.5743ZM185.859 49.7145L187.085 49.7683L187.036 50.8937L185.911 50.9414L185.859 49.7145ZM155.271 70.0543L156.411 70.5094C156.238 70.9444 155.832 71.2428 155.365 71.2787L155.271 70.0543ZM109.954 107.356L110.945 108.08C110.892 108.152 110.832 108.219 110.764 108.278L109.954 107.356ZM88.6305 110.486L88.079 111.583C87.6158 111.349 87.3489 110.85 87.4123 110.335C87.4756 109.821 87.8554 109.401 88.3613 109.287L88.6305 110.486ZM110.62 95.3282L109.401 95.1831L109.401 95.1831L110.62 95.3282ZM97.6838 44.506L96.7293 45.2779L96.1191 44.5228L96.7128 43.7547L97.6838 44.506ZM164.588 23.7382L164.506 22.5129C164.523 22.5118 164.54 22.511 164.557 22.5106L164.588 23.7382ZM99.9252 116.17L100.735 117.093C100.359 117.423 99.8207 117.492 99.3736 117.267L99.9252 116.17ZM211.585 32.8017C207.558 32.9278 201.482 33.9646 196.381 36.6232C191.306 39.269 187.363 43.4147 187.085 49.7683L184.632 49.6607C184.962 42.1267 189.708 37.3323 195.247 34.445C200.762 31.5705 207.225 30.481 211.508 30.3469L211.585 32.8017ZM185.911 50.9414C177.183 51.3112 170.982 53.3614 166.402 56.6786C161.821 59.9957 158.74 64.6681 156.411 70.5094L154.131 69.5992C156.568 63.4853 159.887 58.3647 164.962 54.6891C170.037 51.0137 176.746 48.8715 185.807 48.4875L185.911 50.9414ZM155.365 71.2787C150.369 71.663 143.484 75.0388 135.654 81.3392C127.869 87.6037 119.3 96.6389 110.945 108.08L108.963 106.631C117.418 95.0517 126.132 85.8497 134.116 79.4254C142.054 73.0371 149.423 69.2725 155.177 68.8299L155.365 71.2787ZM88.3613 109.287C91.7344 108.529 96.8627 106.874 101.241 104.402C105.703 101.883 108.978 98.7476 109.401 95.1831L111.839 95.4732C111.265 100.303 107.002 103.969 102.447 106.541C97.8086 109.161 92.4409 110.887 88.8998 111.684L88.3613 109.287ZM109.401 95.1831C110.008 90.0749 109.906 81.3621 108.099 72.0123C106.291 62.6579 102.801 52.7924 96.7293 45.2779L98.6383 43.734C105.058 51.6786 108.66 61.9776 110.509 71.5463C112.359 81.1194 112.479 90.0882 111.839 95.4732L109.401 95.1831ZM96.7128 43.7547C102.949 35.6857 113.385 30.8463 125.397 27.7883C137.435 24.7237 151.265 23.3983 164.506 22.5129L164.67 24.9635C151.446 25.8477 137.808 27.1632 126.003 30.1685C114.171 33.1805 104.387 37.8403 98.6549 45.2572L96.7128 43.7547ZM164.557 22.5106C170.567 22.3599 180.089 22.6658 189.267 23.843C193.858 24.4318 198.387 25.2415 202.36 26.3299C206.311 27.4124 209.809 28.796 212.267 30.5804L210.826 32.5682C208.723 31.0417 205.56 29.7529 201.711 28.6987C197.885 27.6504 193.477 26.859 188.956 26.2791C179.912 25.1191 170.515 24.818 164.619 24.9658L164.557 22.5106ZM89.1821 109.388L100.477 115.073L99.3736 117.267L88.079 111.583L89.1821 109.388ZM110.764 108.278L100.735 117.093L99.115 115.248L109.144 106.433L110.764 108.278Z" fill="#240046"/>
<path d="M95.0393 42.8043C96.0876 44.3948 96.1245 44.7116 96.6975 44.9071C97.2705 45.1027 98.8296 44.7325 99.6446 44.0018C100.651 43.0998 99.6066 41.3891 99.6066 41.3891C97.0293 39.5724 93.4548 34.1096 93.1777 29.9271C91.0039 35.7412 93.8524 41.0036 95.0393 42.8043Z" fill="#240046"/>
<path d="M95.9711 37.2652C94.5106 34.9909 93.3308 32.2605 93.1764 29.9282C91.9566 33.1905 92.3181 36.2792 93.08 38.68C92.7598 36.1521 92.7909 33.4419 95.9711 37.2652Z" fill="#5A189A"/>
<path d="M47.8381 31.7922C56.6646 37.4482 56.8652 43.351 55.8622 45.5955L60.8773 40.2088C59.8743 32.8022 59.2056 35.1588 52.5188 27.4155C47.1695 21.2209 50.5483 13.293 51.1815 10.2456C47.8381 10.2456 39.0116 26.1362 47.8381 31.7922Z" fill="#5A189A"/>
<path d="M47.7266 31.7925C56.5531 37.4484 56.7537 43.3513 55.7507 45.5957L60.7658 40.2091C59.7628 32.8025 58.0349 35.3594 51.3482 27.6161C45.9988 21.4214 49.4998 14.5122 50.133 11.4648C46.7896 11.4648 39.3068 26.3971 47.7266 31.7925Z" fill="#240046"/>
<path d="M47.7261 31.7923C56.5526 37.4483 56.7532 43.3512 55.7502 45.5956L56.4698 44.9861C57.2948 43.1399 57.3055 38.8185 52.371 34.1952C51.3065 33.1979 50.0119 32.1865 48.4457 31.1828C42.9076 27.6341 44.0803 19.9593 46.5989 15.1216C46.8497 14.6184 46.9541 14.3089 47.2065 13.9026L47.4185 13.5288C44.1919 17.817 41.2389 27.6353 47.7261 31.7923Z" fill="black" fill-opacity="0.3"/>
<path d="M87.9136 39.5825C83.3763 41.2147 81.0459 45.4599 80.9989 46.506L76.138 42.6815C77.4151 40.5145 83.4723 38.1809 87.9136 39.5825Z" fill="#240046"/>
<path d="M77.4884 41.3511C79.8528 39.7095 84.3918 38.4706 87.9141 39.582C87.6411 39.6803 87.3761 39.788 87.1191 39.9039C85.0703 40.0288 80.5054 40.7853 78.6369 42.8119L77.4884 41.3511Z" fill="#5A189A"/>
<path d="M270.552 59.6738C269.139 63.7453 271.347 65.1243 272.142 65.584L267.108 67.6854C265.96 65.8467 267.991 61.6439 270.552 59.6738Z" fill="#240046"/>
<path d="M270.553 59.6738C270.158 60.8114 270.046 61.7387 270.107 62.4946C269.3 61.7523 267.582 64.3599 266.824 65.7565C267.103 63.7287 268.688 61.1089 270.553 59.6738Z" fill="#5A189A"/>
<path d="M263.706 60.9477C261.921 65.3053 263.563 68.6419 264.314 69.36L258.236 70.3842C257.462 68.0411 259.717 63.2519 263.706 60.9477Z" fill="#240046"/>
<path d="M263.706 60.9468C263.285 61.9757 263.055 62.9478 262.96 63.842C262.238 63.7754 260.396 64.2029 258.797 66.4462C259.696 64.4158 261.414 62.2704 263.706 60.9468Z" fill="#5A189A"/>
<path d="M256.172 61.1207C253.2 65.9742 254.371 70.2372 255.078 71.2268L247.897 71.3398C247.509 68.4151 251.112 63.1341 256.172 61.1207Z" fill="#240046"/>
<path d="M249.572 66.4759C251.049 64.3241 253.39 62.2248 256.174 61.1173C255.355 62.4579 254.851 63.7536 254.567 64.9479C253.934 63.395 250.974 65.3196 249.572 66.4759Z" fill="#5A189A"/>
<path d="M247.91 61.8319C243.992 65.9509 244.206 70.3496 244.676 71.4606L237.713 70.0879C237.967 67.1559 242.586 62.7502 247.91 61.8319Z" fill="#240046"/>
<path d="M247.91 61.8311C247.433 62.3326 247.017 62.8382 246.656 63.3416C244.161 63.5218 240.317 66.273 238.707 67.6261C240.381 65.126 243.951 62.514 247.91 61.8311Z" fill="#5A189A"/>
<path d="M238.417 59.1807C233.989 62.7472 233.019 68.3742 233.367 69.5576L226.49 67.1702C227.082 64.2641 232.935 59.3307 238.417 59.1807Z" fill="#240046"/>
<path d="M238.418 59.1812C237.812 59.6692 237.271 60.1958 236.789 60.7443C233.296 60.8719 229.179 63.6804 227.556 65.0687C229.598 62.3537 234.121 59.2987 238.418 59.1812Z" fill="#5A189A"/>
<path d="M187.881 57.7092C187.244 64.1655 191.925 69.3892 193.431 70.0324L184.557 73.8286C182.226 71.0552 182.849 62.3496 187.881 57.7092Z" fill="#240046"/>
<path d="M187.882 57.7093C187.665 59.9049 188.343 62.6237 189.022 64.4025C186.242 59.9154 184.358 63.4116 183.684 65.3096C184.318 62.5564 185.677 59.7426 187.882 57.7093Z" fill="#5A189A"/>
<path d="M176.862 63.74C176.375 70.2094 181.176 75.3222 182.696 75.93L173.913 79.9327C171.518 77.2146 171.939 68.4968 176.862 63.74Z" fill="#240046"/>
<path d="M177.871 69.656C177.965 69.9199 178.061 70.1705 178.157 70.4045C178.074 70.1186 177.978 69.8702 177.871 69.656C177.256 67.9333 176.718 65.6477 176.862 63.7398C174.705 65.8241 173.412 68.6689 172.842 71.4362C173.424 69.6645 176.529 66.9763 177.871 69.656Z" fill="#5A189A"/>
<path d="M165.239 69.1395C164.704 76.2537 169.983 81.876 171.655 82.5443L161.996 86.946C159.363 83.957 159.825 74.3704 165.239 69.1395Z" fill="#240046"/>
<path d="M165.239 69.1396C165.129 70.6073 165.266 72.0114 165.568 73.3217C162.758 73.3217 160.982 78.2758 160.444 80.7529C160.56 76.8724 162.03 72.2406 165.239 69.1396Z" fill="#5A189A"/>
<path d="M152.484 74.5486C151.949 81.6629 157.228 87.2852 158.9 87.9535L149.241 92.3552C146.608 89.3662 147.071 79.7795 152.484 74.5486Z" fill="#240046"/>
<path d="M152.484 74.5485C152.346 76.3773 152.593 78.1076 153.064 79.6805C150.308 79.1568 148.335 83.7115 147.693 86.0543C147.832 82.196 149.304 77.6209 152.484 74.5485Z" fill="#5A189A"/>
<path d="M141.728 80.5589C141.192 87.6731 146.471 93.2954 148.144 93.9638L138.485 98.3655C135.852 95.3765 136.314 85.7898 141.728 80.5589Z" fill="#240046"/>
<path d="M141.728 80.5591C141.614 82.0634 141.761 83.501 142.079 84.8392C139.618 86.1569 138.243 89.9787 137.863 91.7248L137.394 88.6188C138.061 85.7047 139.46 82.7499 141.728 80.5591Z" fill="#5A189A"/>
<path d="M200.206 53.1277C198.545 59.3125 201.386 65.0669 202.485 65.9097L194.662 68.3188C193.277 65.2859 195.328 56.9123 200.206 53.1277Z" fill="#240046"/>
<path d="M195.473 59.9102C196.474 57.3251 198.068 54.7858 200.206 53.1274C199.87 54.3787 199.687 55.8564 199.698 57.2325C199.084 57.0878 197.435 57.4203 195.473 59.9102Z" fill="#5A189A"/>
<path d="M214.642 52.2544C211.001 57.5172 211.745 63.8953 212.497 65.06L204.322 64.6864C204.036 61.363 208.778 54.1705 214.642 52.2544Z" fill="#240046"/>
<path d="M214.642 52.2549C214.009 53.1696 213.509 54.1179 213.118 55.0668C210.01 56.0615 206.889 58.8651 205.716 60.1426C207.51 56.957 210.84 53.4971 214.642 52.2549Z" fill="#5A189A"/>
<path d="M227.213 57.3163C222.822 60.6734 221.74 66.1189 222.049 67.2778L215.423 64.7867C216.071 61.9766 221.881 57.3263 227.213 57.3163Z" fill="#240046"/>
<path d="M227.213 57.3164C226.489 57.87 225.854 58.4804 225.302 59.1191C222.174 59.1191 218.042 61.6783 216.366 62.958C218.345 60.322 222.933 57.3244 227.213 57.3164Z" fill="#5A189A"/>
<path d="M114.413 91.1605C107.11 91.1075 101.588 95.9262 100.977 97.3894L96.0509 89.4055C98.9944 86.9915 108.824 86.8425 114.413 91.1605Z" fill="#240046"/>
<path d="M97.7486 88.4996C101.778 87.0441 109.641 87.4743 114.414 91.1611C105.77 88.6669 100.191 90.1194 98.4815 91.1574L97.7486 88.4996Z" fill="#5A189A"/>
<path d="M111.112 81.2267C104.195 79.4024 97.2676 82.7553 96.3346 83.9955L94.1107 75.1007C97.4868 73.5249 106.851 75.7713 111.112 81.2267Z" fill="#240046"/>
<path d="M95.9403 74.6516C100.115 74.2491 107.474 76.5677 111.112 81.2256C103.512 76.759 97.8668 76.782 95.9941 77.3518L95.9403 74.6516Z" fill="#5A189A"/>
<path d="M105.938 67.9254C100.157 67.0962 95.2652 70.3191 94.6244 71.4127L91.5763 64.5554C94.1672 62.96 101.972 63.9015 105.938 67.9254Z" fill="#240046"/>
<path d="M94.0795 66.3552C93.8364 65.5934 93.3268 64.4716 93.1023 64.0059C96.1109 63.3954 101.312 64.2852 104.78 66.9126C98.1648 64.6129 95.3326 66.0124 94.0795 66.3552Z" fill="#5A189A"/>
<path d="M100.703 57.473C95.5463 57.7281 91.8404 61.3502 91.4676 62.4074L87.673 56.9697C89.6544 55.1481 96.5863 54.6492 100.703 57.473Z" fill="#240046"/>
<path d="M90.1469 58.11C89.8083 57.4898 89.1779 56.602 88.9051 56.2357C91.4141 55.1985 96.0769 55.094 99.5278 56.7896C93.4007 55.909 91.1771 57.6012 90.1469 58.11Z" fill="#5A189A"/>
<path d="M93.6529 46.9728C88.9442 48.007 86.0897 51.9167 85.9091 52.948L81.5778 48.5291C83.1217 46.5446 89.4276 45.0108 93.6529 46.9728Z" fill="#240046"/>
<path d="M84.0315 49.1955C83.6242 48.6768 82.907 47.9571 82.5993 47.662C84.7501 46.3181 89.0278 45.499 92.4668 46.5254C86.6889 46.6643 84.9018 48.5672 84.0315 49.1955Z" fill="#5A189A"/>
<path d="M86.0681 34.8386C77.2416 40.4946 77.041 46.3974 78.044 48.6419L73.029 43.2552C74.032 35.8486 74.7007 38.2052 81.3874 30.4619C86.7368 24.2673 83.358 16.3394 82.7248 13.292C86.0681 13.292 94.8946 29.1826 86.0681 34.8386Z" fill="#5A189A"/>
<path d="M86.1801 34.8389C77.3536 40.4948 77.153 46.3977 78.156 48.6421L73.141 43.2555C74.144 35.8488 75.8718 38.4058 82.5586 30.6625C87.908 24.4678 84.407 17.5586 83.7737 14.5112C87.1171 14.5112 94.5999 29.4435 86.1801 34.8389Z" fill="#240046"/>
<path d="M86.1806 34.8387C77.3541 40.4946 77.1535 46.3976 78.1565 48.642L77.437 48.0325C76.6119 46.1863 76.6013 41.8649 81.5357 37.2416C82.6002 36.2442 83.8948 35.2328 85.4611 34.2292C90.9992 30.6804 89.8265 23.0057 87.3078 18.168C87.057 17.6648 86.9526 17.3552 86.7002 16.949L86.4883 16.5752C89.7148 20.8633 92.6679 30.6817 86.1806 34.8387Z" fill="black" fill-opacity="0.3"/>
<path d="M14.2092 38.4143C21.0446 40.4344 36.8176 40.6029 43.8497 40.4347L69.5129 36.8413C77.3459 42.7178 93.36 58.623 94.7525 75.2314L63.0217 80.4086C64.0628 74.5703 58.6192 64.706 51.299 69.8411C43.9789 74.9762 27.0802 74.7471 19.5459 73.9907C18.465 73.2694 16.2297 71.4819 15.9358 70.102C15.642 68.722 17.54 67.8638 18.5258 67.6072L18.4355 67.5878C17.9261 67.562 17.3951 67.5301 16.8389 67.4922C9.12759 66.9666 5.66497 35.8891 14.2092 38.4143Z" fill="#9D4EDD"/>
<path d="M43.8478 43.4837C36.8157 43.652 21.0427 43.4835 14.2073 41.4633C5.66309 38.9382 9.12573 66.9682 16.8371 67.4938L16.8394 67.494C17.1149 67.5128 17.3841 67.5311 17.6476 67.9192C16.7158 68.3348 15.7147 69.0739 15.934 70.1036C16.2278 71.4836 18.4631 73.2711 19.544 73.9923C27.0783 74.7487 43.977 74.9778 51.2972 69.8427C58.6173 64.7077 69.2969 73.2796 68.2558 79.1179C68.2558 79.1179 76.4581 115.382 82.2301 129.095C93.4705 144.027 105.926 146.161 105.926 146.161L131.749 146.16C131.749 146.16 133.268 146.77 146.938 138.542C160.609 130.314 177.318 100.144 177.318 100.144C177.318 100.144 187.343 81.86 202.533 79.1173C219.849 80.3361 252.963 76.3744 252.963 76.3744L262.06 73.3081L266.33 69.67L252.963 71.8033C252.963 71.8033 237.166 72.0803 227.444 68.1326C217.723 64.1849 201.622 66.0134 201.622 66.0134L154.533 90.3929L121.42 103.802L106.306 101.669L98.6351 97.4022L94.7507 75.2331C93.3581 58.6246 77.344 45.7669 69.511 39.8903L43.8478 43.4837Z" fill="#5A189A"/>
<path d="M20.7603 70.9433C19.6794 70.222 17.4442 68.4345 17.1503 67.0545C20.9683 66.9348 27.693 66.6345 24.0475 66.3907C20.402 66.1469 18.5324 64.9918 18.0534 64.4448C13.7185 60.9054 9.54817 51.0822 10.6463 43.5352C9.44256 47.8016 8.49321 58.3456 14.3261 66.3907C15.2982 67.3483 16.1488 68.2119 16.4526 68.5239C16.4165 69.946 17.0235 72.9731 19.7402 73.7045C23.1361 74.6187 47.4396 75.5329 53.5155 69.1334L58.8592 69.1334C58.297 65.8666 56.5652 63.9515 52.5134 66.7938C45.1933 71.9289 28.2946 71.6997 20.7603 70.9433Z" fill="black" fill-opacity="0.3"/>
<path d="M66.7366 73.9358C64.0632 70.7665 61.6734 69.7711 59.4456 70.279C60.9645 71.4979 63.881 75.4595 63.3949 81.5543C62.9088 87.6491 62.3822 93.4392 62.1797 95.5724C62.5848 101.566 63.5164 113.857 64.0025 115.076C64.6101 116.599 66.129 133.36 70.6859 139.76C75.2429 146.159 80.1036 151.645 86.4832 154.997C92.8629 158.349 110.179 161.092 118.685 160.787C127.192 160.482 140.862 158.044 151.191 149.816C161.52 141.588 171.546 129.399 174.887 123.608C177.561 118.976 188.153 102.175 193.115 94.3534C195.242 92.0171 201.196 87.0397 208.001 85.8207C216.507 84.297 216.203 83.9923 223.191 83.6875L223.327 83.6816C230.273 83.3787 237.532 83.0622 247.19 80.6401C256.912 78.2022 263.595 76.069 266.937 74.2406C269.611 72.7778 273.722 68.5521 275.443 66.6221C249.317 82.7733 223.495 77.8975 207.393 78.8117C194.513 79.5431 184.609 89.4776 181.267 94.3534C175.9 103.496 161.703 124.888 147.85 137.322C133.997 149.755 114.027 147.886 105.622 146.464C94.6857 143.538 83.1151 132.017 80.4074 124.827C75.2429 111.114 70.0784 77.8975 66.7366 73.9358Z" fill="#9D4EDD"/>
<path d="M69.7577 89.2262C68.3839 90.3524 65.2382 92.3197 63.646 91.1798C64.1184 91.0823 65.9235 91.2499 69.7577 89.2262Z" fill="black" fill-opacity="0.3"/>
<path d="M72.182 99.8657C70.3496 101.368 66.154 103.992 64.0304 102.471C64.6605 102.341 67.068 102.565 72.182 99.8657Z" fill="black" fill-opacity="0.3"/>
<path d="M74.5036 110.903C72.141 112.84 67.4415 115.795 64.7034 113.834C65.5159 113.667 67.9099 114.383 74.5036 110.903Z" fill="black" fill-opacity="0.3"/>
<path d="M77.472 121.173C75.1823 123.549 70.292 127.411 66.9374 125.431C67.8079 125.175 70.7609 125.637 77.472 121.173Z" fill="black" fill-opacity="0.3"/>
<path d="M81.8456 131.675C79.9771 134.397 75.3315 139.49 71.6977 138.091C72.5143 137.694 75.9585 137.186 81.8456 131.675Z" fill="black" fill-opacity="0.3"/>
<path d="M88.2692 140.356C87.0691 143.434 83.7049 149.456 79.8485 148.925C80.5534 148.352 83.7912 147.069 88.2692 140.356Z" fill="black" fill-opacity="0.3"/>
<path d="M108.624 148.096C109.135 150.954 109.373 157.013 106.242 158.392C106.507 157.639 108.345 155.186 108.624 148.096Z" fill="black" fill-opacity="0.3"/>
<path d="M119.591 148.745C120.562 151.479 121.789 157.417 118.926 159.294C119.065 158.506 120.476 155.785 119.591 148.745Z" fill="black" fill-opacity="0.3"/>
<path d="M129.712 147.381C131.346 149.776 134.043 155.204 131.752 157.751C131.686 156.954 132.358 153.961 129.712 147.381Z" fill="black" fill-opacity="0.3"/>
<path d="M138.122 142.905C140.506 144.551 144.967 148.644 143.742 151.846C143.394 151.127 142.949 148.092 138.122 142.905Z" fill="black" fill-opacity="0.3"/>
<path d="M154.657 133.104C156.705 134.056 160.671 136.614 160.148 139.238C159.787 138.73 159.047 136.456 154.657 133.104Z" fill="black" fill-opacity="0.3"/>
<path d="M163.033 124.771C164.885 125.518 168.519 127.57 168.24 129.802C167.89 129.384 167.091 127.481 163.033 124.771Z" fill="black" fill-opacity="0.3"/>
<path d="M169.683 114.939C171.358 115.614 174.644 117.47 174.392 119.489C174.076 119.11 173.353 117.39 169.683 114.939Z" fill="black" fill-opacity="0.3"/>
<path d="M176.166 104.686C177.84 105.361 181.127 107.217 180.874 109.236C180.558 108.857 179.835 107.137 176.166 104.686Z" fill="black" fill-opacity="0.3"/>
<path d="M182.287 96.3639C183.772 96.9629 186.686 98.6083 186.462 100.398C186.182 100.063 185.541 98.5372 182.287 96.3639Z" fill="black" fill-opacity="0.3"/>
<path d="M189.787 88.0777C190.979 88.8481 193.242 90.7691 192.748 92.2898C192.561 91.9505 192.257 90.5153 189.787 88.0777Z" fill="black" fill-opacity="0.3"/>
<path d="M198.007 82.8214C198.858 83.8182 200.349 86.115 199.513 87.3273C199.436 86.9778 199.546 85.6296 198.007 82.8214Z" fill="black" fill-opacity="0.3"/>
<path d="M207.583 80.4028C208.088 81.3123 208.886 83.3338 208.045 84.1437C208.04 83.8599 208.338 82.8293 207.583 80.4028Z" fill="black" fill-opacity="0.3"/>
<path d="M55.4962 68.1458C57.7241 67.6379 65.8253 71.8027 67.9518 77.288C69.8269 82.1247 75.2429 111.114 80.4074 124.827C83.1152 132.017 93.4705 143.234 104.407 146.159C112.812 147.581 133.997 149.755 147.85 137.322C161.703 124.888 175.9 103.496 181.267 94.3534C184.609 89.4776 194.513 79.5431 207.393 78.8117C223.495 77.8975 249.317 82.7733 275.443 66.6221" stroke="#240046" stroke-width="2.45547"/>
<path d="M61.3895 72.6073C60.9226 71.098 60.4407 70.0521 59.4456 70.279C59.9881 70.7144 60.709 71.4998 61.3895 72.6073C61.8584 74.1233 62.3122 76.1068 63.2556 77.7378C63.4401 78.8951 63.5053 80.1697 63.3949 81.5543C62.9088 87.6491 62.3822 93.4392 62.1797 95.5724C62.5848 101.566 63.5164 113.857 64.0025 115.076C64.6101 116.599 66.129 133.36 70.6859 139.76C75.2429 146.159 80.1036 151.645 86.4832 154.997C92.8629 158.349 110.179 161.092 118.685 160.787C127.192 160.482 140.862 158.044 151.191 149.816C161.52 141.588 171.546 129.399 174.887 123.608C177.561 118.976 188.153 102.175 193.115 94.3534C195.242 92.0171 201.196 87.0397 208.001 85.8207C216.507 84.297 216.203 83.9923 223.191 83.6875L223.327 83.6816C230.273 83.3787 237.532 83.0622 247.19 80.6401C256.912 78.2022 263.595 76.069 266.937 74.2406C269.611 72.7778 273.722 68.5521 275.443 66.6221C249.317 82.7733 232.001 79.7259 206.634 83.6875C197.064 85.182 192.659 91.4584 186.432 96.7913C180.204 102.124 169.601 125.193 155.748 137.627C141.895 150.06 126.51 159.018 106.534 154.997C91.1433 151.899 82.7054 144.837 73.4201 132.141C60.9476 115.088 67.3442 82.7733 64.0025 78.8117C63.7226 78.4799 63.4758 78.1184 63.2556 77.7378C62.918 75.6207 62.1812 73.8959 61.3895 72.6073Z" fill="black" fill-opacity="0.3"/>
<path d="M92.104 75.6127C90.7114 59.0042 79.1272 47.2061 71.2942 41.3296C77.4714 44.0722 90.6763 53.519 94.0787 69.3655C93.6229 86.05 98.1291 91.3575 98.0278 92.4495C97.6228 96.1073 100.838 103.346 116.939 103.039C133.04 102.732 151.597 93.3116 158.863 88.6398L195.926 67.9173L211.951 65.3269L232.153 69.8216C238.077 70.5834 251.368 71.9699 257.14 71.4214C274.396 66.7892 274.15 65.8256 278.787 63.3848C264.691 77.5248 241.854 76.0405 231.323 72.79C223.829 69.8443 206.604 64.745 193.723 72.7903C177.622 82.8468 149.825 96.4869 136.154 101.972C122.483 107.458 112.762 104.868 102.433 103.039C94.1696 101.576 92.1598 83.6363 92.104 75.6127Z" fill="#9D4EDD"/>
<path d="M14.2028 38.4699C21.038 40.4886 36.8114 40.6539 43.8437 40.4842L69.5083 36.8857C77.3404 42.7605 93.3517 58.6619 94.7409 75.2696C94.7951 83.293 96.9693 99.7051 105.232 101.166C115.561 102.992 122.549 104.514 136.221 99.0265C149.893 93.5385 175.415 80.4297 191.519 70.3702C204.402 62.3226 222.609 66.199 230.102 69.1432C240.633 72.3915 265.221 75.3524 279.32 61.2099C278.205 65.1716 271.661 74.254 254.404 78.8895C237.147 83.525 226.757 84.0757 223.719 83.7716C215.922 83.6717 198.564 86.0928 191.514 96.5771C184.463 107.061 176.014 121.264 172.671 127.054C165.783 137.62 146.72 159.056 125.575 160.28C104.43 161.503 91.0433 157.544 86.993 155.412C82.1327 153.077 69.7393 144.445 66.34 128.6C62.9407 112.755 62.2953 99.6513 62.3975 95.0803L63.312 80.1483C63.3134 73.7489 58.6087 64.7519 51.2873 69.8883C43.9659 75.0247 27.0668 74.7991 19.5324 74.0442C18.4516 73.3232 16.2167 71.5362 15.9231 70.1563C15.6295 68.7765 17.5278 67.9179 18.5136 67.6611L18.4233 67.6417C17.914 67.616 17.3829 67.5843 16.8267 67.5465C9.11527 67.0224 5.65889 35.9466 14.2028 38.4699Z" stroke="#240046" stroke-width="2.45547"/>
<path d="M56.9136 67.8888L58.0737 60.0308L52.7209 61.4257L56.9136 67.8888Z" fill="white"/>
<path d="M56.6688 66.5905L56.9186 63.6879L56.4368 65.0144L54.1626 61.4142L53.4145 61.5182L56.6688 66.5905Z" fill="black" fill-opacity="0.3"/>
<path d="M56.9136 67.8888L58.0737 60.0308L52.7209 61.4257L56.9136 67.8888Z" stroke="#240046" stroke-width="1.22773"/>
<path d="M63.1534 66.453L63.6812 58.5269L58.4572 60.3482L63.1534 66.453Z" fill="white"/>
<path d="M62.8142 65.1063L62.831 62.1929L62.4569 63.554L59.9019 60.1485L59.1646 60.3123L62.8142 65.1063Z" fill="black" fill-opacity="0.3"/>
<path d="M63.1534 66.453L63.6812 58.5269L58.4572 60.3482L63.1534 66.453Z" stroke="#240046" stroke-width="1.22773"/>
<path d="M69.3843 64.4883V55.9556L63.9154 58.2827L69.3843 64.4883Z" fill="white"/>
<path d="M68.9854 63.184L68.7955 60.0604L68.4916 61.546L65.5104 58.0796L64.7318 58.3081L68.9854 63.184Z" fill="black" fill-opacity="0.3"/>
<path d="M69.3843 64.4883V55.9556L63.9154 58.2827L69.3843 64.4883Z" stroke="#240046" stroke-width="1.22773"/>
<path d="M70.5283 52.9819C69.8078 54.5512 64.3652 59.1099 47.1784 62.7604C30.1867 66.3695 27.4687 68.0027 18.2843 67.5905" stroke="#240046" stroke-width="2.45547"/>
<path d="M22.319 51.369C23.6749 47.7279 21.079 47.1184 19.4224 46.2965C19.4224 46.2965 19.9557 45.8077 21.079 45.7594C23.0288 45.6757 26.8846 46.1552 23.675 50.4864C22.9872 51.4146 22.319 51.369 22.319 51.369Z" fill="#240046"/>
<path d="M50.9105 35.4658C51.0211 39.2065 53.8071 41.9335 56.878 41.8422C59.9489 41.7508 62.5688 38.863 62.4583 35.1223C62.3477 31.3817 59.5617 28.6546 56.4908 28.746C53.4199 28.8373 50.7999 31.7252 50.9105 35.4658Z" fill="white" stroke="#240046" stroke-width="2.45547"/>
<ellipse rx="2.00139" ry="3.51296" transform="matrix(-0.999558 0.0297307 0.0295526 0.999563 55.3108 35.757)" fill="black"/>
<path d="M56.4545 27.5188C60.3211 27.4038 63.5585 30.7917 63.6854 35.0858C63.6972 35.4849 63.6818 35.8778 63.6409 36.2622L49.6807 35.0949C49.75 30.9843 52.7109 27.6301 56.4545 27.5188Z" fill="#9D4EDD"/>
<path d="M51.8929 34.015C52.8634 31.9825 54.5279 30.6236 56.4548 30.5663C58.7462 30.4982 60.7761 32.2896 61.7571 34.9292L51.8929 34.015Z" fill="#5A189A"/>
<path d="M51.0149 33.9745L62.4502 34.9306C62.2519 31.2889 59.509 28.6562 56.4908 28.746C53.8417 28.8248 51.5317 30.9797 51.0149 33.9745Z" stroke="#240046" stroke-width="2.45547"/>
<path d="M152.398 174.547C151.937 172.81 151.703 172.212 151.95 172.068L157.268 175.268C156.978 178.178 158.57 180.567 161.487 182.539C156.189 182.645 152.921 176.513 152.398 174.547Z" fill="#240046"/>
<path d="M155.731 174.103C155.269 172.367 156.695 174.768 156.942 174.624L157.268 175.268C156.978 178.178 158.57 180.567 161.486 182.539C156.753 179.948 156.253 176.07 155.731 174.103Z" fill="#5A189A"/>
<path d="M152.398 174.547C151.937 172.81 151.703 172.212 151.95 172.068L152.523 172.623C154.256 180 158.558 181.479 161.487 182.539C156.189 182.645 152.921 176.513 152.398 174.547Z" fill="#190031"/>
<path d="M148.469 175.373C148.365 173.578 148.256 172.945 148.527 172.854L151.307 174.5L153.095 177.061C152.227 179.854 153.307 182.515 155.769 185.036C150.558 184.07 148.586 177.404 148.469 175.373Z" fill="#240046"/>
<path d="M151.823 175.61C151.719 173.816 152.634 176.456 152.904 176.365L153.095 177.061C152.227 179.853 153.307 182.514 155.769 185.035C151.652 181.542 151.94 177.642 151.823 175.61Z" fill="#5A189A"/>
<path d="M148.469 175.373C148.365 173.578 148.256 172.945 148.527 172.854L148.976 173.514C149.195 181.089 153.112 183.406 155.769 185.036C150.558 184.07 148.586 177.404 148.469 175.373Z" fill="#190031"/>
<path d="M144.356 173.762C144.797 172.02 144.884 171.383 145.169 171.378L147.324 173.789L148.258 176.773C146.59 179.172 146.819 182.036 148.407 185.184C143.73 182.686 143.857 175.734 144.356 173.762Z" fill="#240046"/>
<path d="M147.482 175.005C147.923 173.263 148.001 176.057 148.286 176.052L148.258 176.773C146.59 179.172 146.819 182.036 148.407 185.185C145.534 180.608 146.982 176.977 147.482 175.005Z" fill="#5A189A"/>
<path d="M144.356 173.762C144.797 172.02 144.884 171.383 145.169 171.378L145.4 172.143C143.328 179.431 146.365 182.826 148.407 185.184C143.73 182.686 143.857 175.734 144.356 173.762Z" fill="#190031"/>
<path d="M139.947 127.41C141.365 124.871 142.864 119.243 137.517 117.049C132.17 114.855 127.795 117.963 126.276 119.792C124.555 121.417 118.199 128.423 122.33 139.15C126.462 149.877 147.036 149.25 154.833 148.133C154.023 149.047 152.524 152.033 153.01 156.665C153.496 161.297 147.406 169.916 145.077 173.776C145.988 173.37 149.608 173.243 150.58 174.95C152.099 173.426 152.403 173.426 153.618 175.254C154.124 174.442 155.38 173.121 156.352 174.34C156.352 170.988 156.656 170.379 157.567 167.941C159.795 164.792 164.554 157.153 165.77 151.789C167.592 146.914 167.592 146.609 167.592 145.999C167.694 144.984 165.466 143.257 161.213 142.647C156.96 142.038 148.858 134.826 146.023 131.372C144.795 130.217 141.939 128.152 138.511 127.114C139.056 127.219 139.55 127.323 139.947 127.41Z" fill="#5A189A"/>
<path d="M157.724 160.329C159.607 157.831 162.812 148.521 164.179 144.178L167.825 144.94L163.799 156.673L157.344 168.634L156.508 173.129C155.394 174.398 153.091 176.359 152.787 174.043H151.306L146.293 173.357C145.914 172.837 145.465 171.78 146.711 171.719C147.957 171.658 148.901 171.929 149.217 172.071C151.131 171.469 152.459 171.821 152.883 172.071C153.452 168.53 155.792 162.892 157.724 160.329Z" fill="black" fill-opacity="0.3"/>
<path d="M157.42 146.692C137.613 146.814 128.18 143.492 121.496 133.436C122.408 146.692 136.053 148.114 142.838 148.064C145.876 148.825 151.116 148.064 157.42 146.692Z" fill="black" fill-opacity="0.3"/>
<path d="M147.47 135.797C142.974 129.276 134.154 128.052 130.306 128.255L132.432 126.655L141.926 128.712L152.103 137.321L161.749 143.035C158.862 143.34 151.966 142.319 147.47 135.797Z" fill="#9D4EDD"/>
<path d="M139.947 127.411C140.288 126.8 140.634 126.01 140.888 125.132M130.229 127.411C131.144 126.656 132.052 126.344 135.086 126.497C139.947 126.74 144.403 129.849 146.023 131.372C148.858 134.826 156.96 142.038 161.213 142.648C165.466 143.257 167.694 144.984 167.592 146C167.592 146.609 167.592 146.914 165.77 151.79C164.554 157.153 159.795 164.792 157.567 167.941C156.656 170.379 156.352 170.989 156.352 174.341C155.14 174.036 153.517 174.442 153.01 175.255C151.795 173.427 150.276 173.427 148.757 174.95C147.785 173.244 145.685 173.427 144.808 173.427C147.137 169.567 153.496 161.298 153.01 156.666C152.524 152.034 154.023 149.047 154.833 148.133C147.036 149.251 126.462 149.877 122.33 139.151C118.199 128.424 124.555 121.418 126.276 119.792C126.576 119.431 126.987 119.021 127.495 118.611" stroke="#240046" stroke-width="2.45547" stroke-linecap="round"/>
<path d="M61.2396 37.2944C61.3502 41.0351 64.1362 43.7621 67.2071 43.6708C70.278 43.5795 72.898 40.6916 72.7874 36.951C72.6768 33.2103 69.8908 30.4833 66.8199 30.5746C63.749 30.6659 61.129 33.5538 61.2396 37.2944Z" fill="white" stroke="#240046" stroke-width="2.45547"/>
<ellipse rx="2.00139" ry="3.51296" transform="matrix(-0.999558 0.0297307 0.0295526 0.999563 65.6399 37.5856)" fill="black"/>
<path d="M66.7836 29.3474C70.6502 29.2324 73.8876 32.6203 74.0145 36.9145C74.0263 37.3135 74.0109 37.7064 73.97 38.0908L60.0098 36.9236C60.0791 32.8129 63.04 29.4587 66.7836 29.3474Z" fill="#9D4EDD"/>
<path d="M62.222 35.8436C63.1925 33.8112 64.857 32.4523 66.7839 32.395C69.0753 32.3268 71.1052 34.1182 72.0862 36.7578L62.222 35.8436Z" fill="#5A189A"/>
<path d="M61.344 35.8031L72.7793 36.7592C72.581 33.1175 69.8381 30.4848 66.8199 30.5746C64.1708 30.6534 61.8608 32.8084 61.344 35.8031Z" stroke="#240046" stroke-width="2.45547"/>
<path d="M59.1365 132.193C61.1122 132.028 61.8075 131.889 61.9156 132.187L57.4039 137.373C54.3007 136.488 51.3967 137.761 48.6856 140.563C49.6043 134.755 56.8999 132.38 59.1365 132.193Z" fill="#240046"/>
<path d="M58.9681 135.92C60.9439 135.755 58.058 136.844 58.1661 137.142L57.4041 137.373C54.3006 136.488 51.3963 137.761 48.685 140.563C52.4224 135.898 56.7313 136.107 58.9681 135.92Z" fill="#5A189A"/>
<path d="M59.1365 132.193C61.1122 132.028 61.8075 131.889 61.9156 132.187L61.2009 132.704C52.8537 133.159 50.4084 137.57 48.6856 140.563C49.6043 134.755 56.8999 132.38 59.1365 132.193Z" fill="#190031"/>
<path d="M58.231 127.006C60.211 127.106 60.9186 127.062 60.9862 127.371L58.8484 130.241L55.8252 131.907C52.8674 130.615 49.82 131.488 46.7607 133.902C48.4434 128.269 55.9895 126.892 58.231 127.006Z" fill="#240046"/>
<path d="M57.5684 130.676C59.5483 130.777 56.5436 131.471 56.6112 131.78L55.8253 131.907C52.8674 130.614 49.8201 131.488 46.7607 133.902C51.0847 129.778 55.3268 130.563 57.5684 130.676Z" fill="#5A189A"/>
<path d="M58.231 127.006C60.211 127.106 60.9186 127.062 60.9862 127.371L60.209 127.788C51.876 127.122 48.866 131.166 46.7607 133.902C48.4434 128.269 55.9895 126.892 58.231 127.006Z" fill="#190031"/>
<path d="M58.71 122.143C61.1031 122.227 61.9645 122.176 62.0225 122.487L59.2073 125.4L55.4121 127.105C51.9258 125.828 48.1628 126.735 44.2655 129.196C46.7435 123.502 56.0008 122.047 58.71 122.143Z" fill="#240046"/>
<path d="M57.6211 125.85C60.0142 125.934 56.3168 126.659 56.3748 126.97L55.4119 127.105C51.9256 125.828 48.1626 126.735 44.2653 129.195C49.8289 125 54.9119 125.754 57.6211 125.85Z" fill="#5A189A"/>
<path d="M58.71 122.143C61.1031 122.227 61.9645 122.176 62.0225 122.487L61.0477 122.915C50.9949 122.315 47.0309 126.419 44.2655 129.196C46.7435 123.502 56.0008 122.047 58.71 122.143Z" fill="#190031"/>
<path d="M100.753 150.779C106.056 134.727 101.948 120.663 99.2316 115.637L84.169 118.405C86.3896 120.433 86.9057 126.573 89.2837 130.395C88.0459 135.118 88.5296 140.909 88.9261 143.214C84.5715 143.79 78.1888 142.114 72.8857 137.7C67.9374 126.793 60.6109 122.371 57.5662 121.524L59.0498 136.284L62.0234 137.83L71.815 143.215C79.2515 152.424 95.4501 166.831 100.753 150.779Z" fill="#5A189A"/>
<path d="M95.8257 149.435C99.0459 146.51 101.193 141.258 101.522 135.493C103.041 144.407 101.446 146.083 99.4713 152.254C98.803 157.435 95.3448 157.917 93.6992 157.511C84.2816 155.606 73.3449 146.007 70.9145 142.654C67.267 141.986 64.0783 139.227 62.9398 137.931L60.4335 137.321C59.0917 136.661 57.0158 135.295 59.4462 135.112C61.8765 134.929 63.7499 135.645 64.3828 136.026C66.1297 138.388 66.5854 138.083 73.3448 141.435C82.5195 150.639 90.079 153.651 92.7118 154.006C92.4081 153.701 98.2561 155.225 95.8257 149.435Z" fill="black" fill-opacity="0.3"/>
<path d="M62.3318 126.122C60.6911 124.355 59.1669 124.421 58.6099 124.675L58.0022 124.675L58.6099 121.399L65.5219 126.656C66.7372 128.281 68.7424 131.212 67.041 129.932C65.3396 128.652 63.1926 126.859 62.3318 126.122Z" fill="#9D4EDD"/>
<path d="M57.2383 121.664L56.5106 122.653C56.1059 122.355 55.9236 121.84 56.0504 121.354C56.1772 120.868 56.5875 120.508 57.0861 120.446L57.2383 121.664ZM69.8124 132.88L68.7442 133.484L68.7442 133.484L69.8124 132.88ZM89.9755 143.804L91.1922 143.641C91.2393 143.991 91.1331 144.345 90.9009 144.611C90.6687 144.877 90.333 145.03 89.9796 145.031L89.9755 143.804ZM99.7317 151.099L98.5041 151.115L98.5001 150.826L98.6253 150.566L99.7317 151.099ZM96.0674 157.633L95.7801 156.439C95.8272 156.428 95.8749 156.419 95.923 156.414L96.0674 157.633ZM82.0882 153.081L81.4578 154.135L81.4578 154.135L82.0882 153.081ZM71.4862 142.635L71.7993 141.448C72.234 141.563 72.5713 141.906 72.6784 142.343L71.4862 142.635ZM62.6784 137.615L63.4836 136.688L63.7186 136.893L63.8279 137.184L62.6784 137.615ZM58.0999 133.056L57.4374 134.089C57.1072 133.877 56.898 133.52 56.8745 133.129C56.8509 132.737 57.0158 132.358 57.3182 132.108L58.0999 133.056ZM59.6344 131.642L59.8112 130.427L59.9347 130.445L60.052 130.488L59.6344 131.642ZM56.0323 126.362L55.9988 127.589L55.8591 125.146L56.0323 126.362ZM61.2623 128.632L61.9112 127.59C62.4081 127.9 62.6174 128.517 62.4113 129.065C62.2051 129.613 61.6407 129.939 61.0631 129.843L61.2623 128.632ZM57.1341 131.277L56.9572 132.492C56.5981 132.439 56.2804 132.23 56.0897 131.921C55.8989 131.613 55.8545 131.235 55.9685 130.89L57.1341 131.277ZM57.1786 127.976L56.8547 129.16L57.3746 126.764L57.1786 127.976ZM58.3987 136.738L57.1738 136.819C57.1575 136.574 57.2152 136.329 57.3395 136.117L58.3987 136.738ZM98.5534 120.014C98.3631 119.363 98.7363 118.681 99.3871 118.491C100.038 118.301 100.72 118.675 100.91 119.326L98.5534 120.014ZM89.5474 129.997L90.5905 129.35L90.8575 129.781L90.7435 130.274L89.5474 129.997ZM84.0129 121.448C83.7921 120.807 84.1327 120.108 84.7738 119.888C85.4148 119.667 86.1135 120.008 86.3344 120.65L84.0129 121.448ZM57.0861 120.446C59.115 120.194 61.3846 121.091 63.6687 122.989C65.9715 124.902 68.4243 127.936 70.8806 132.276L68.7442 133.484C66.379 129.306 64.1012 126.539 62.1006 124.877C60.0812 123.2 58.4745 122.748 57.3905 122.883L57.0861 120.446ZM70.8806 132.276C73.1197 136.231 76.7612 138.814 80.4654 140.413C84.1775 142.015 87.8463 142.582 89.9713 142.576L89.9796 145.031C87.5115 145.038 83.5095 144.401 79.4937 142.668C75.47 140.931 71.3267 138.046 68.7442 133.484L70.8806 132.276ZM100.959 151.082C100.995 153.644 100.471 155.512 99.5596 156.8C98.6323 158.111 97.3777 158.715 96.2119 158.852L95.923 156.414C96.4438 156.352 97.055 156.088 97.5549 155.381C98.0709 154.652 98.5355 153.352 98.5041 151.115L100.959 151.082ZM96.3547 158.827C95.3108 159.077 93.4715 159.016 91.0252 158.375C88.5355 157.723 85.3134 156.444 81.4578 154.135L82.7185 152.028C86.4022 154.235 89.4105 155.414 91.646 156C93.9249 156.597 95.3057 156.553 95.7801 156.439L96.3547 158.827ZM81.4578 154.135C77.5957 151.821 74.9446 149.534 73.1941 147.585C71.4712 145.667 70.5586 144.006 70.2939 142.927L72.6784 142.343C72.8063 142.865 73.4251 144.169 75.0202 145.945C76.5878 147.69 79.0414 149.826 82.7185 152.028L81.4578 154.135ZM71.173 143.822C69.5161 143.384 67.4796 142.825 65.7124 141.986C63.9752 141.16 62.2408 139.945 61.5288 138.045L63.8279 137.184C64.1976 138.171 65.2016 139.025 66.765 139.768C68.2986 140.497 70.1251 141.005 71.7993 141.448L71.173 143.822ZM57.3182 132.108C57.7887 131.72 58.3146 131.488 58.7393 131.338C59.141 131.197 59.5845 131.09 59.7403 131.045C59.8743 131.007 59.8237 131.011 59.7303 131.065C59.6915 131.088 59.473 131.213 59.321 131.497C59.2342 131.659 59.1762 131.861 59.1835 132.087C59.1906 132.307 59.2574 132.485 59.3266 132.61C59.4484 132.831 59.604 132.938 59.6227 132.951C59.6615 132.978 59.6775 132.983 59.6452 132.968C59.5819 132.937 59.4521 132.882 59.2168 132.797L60.052 130.488C60.3083 130.581 60.5386 130.672 60.7241 130.762C60.8163 130.808 60.9289 130.868 61.0391 130.946C61.1291 131.009 61.3309 131.162 61.476 131.425C61.6652 131.768 61.714 132.23 61.4861 132.656C61.3145 132.977 61.0562 133.136 60.96 133.192C60.7517 133.312 60.5156 133.378 60.4136 133.407C59.7918 133.584 59.2593 133.691 58.8816 134.003L57.3182 132.108ZM57.966 120.676C58.6052 121.147 58.8958 121.874 59.0175 122.485C59.1447 123.124 59.1286 123.824 58.9965 124.478C58.7568 125.666 57.9621 127.328 56.2054 127.577L55.8591 125.146C56.0187 125.123 56.4127 124.868 56.5897 123.991C56.666 123.613 56.6653 123.244 56.6095 122.963C56.5481 122.655 56.457 122.613 56.5106 122.653L57.966 120.676ZM56.0657 125.134C57.4502 125.173 58.6691 125.655 59.6439 126.174C60.5692 126.667 61.4692 127.314 61.9112 127.59L60.6134 129.674C59.9323 129.249 59.339 128.793 58.4909 128.341C57.6922 127.916 56.8577 127.613 55.9988 127.589L56.0657 125.134ZM55.9685 130.89C56.0606 130.612 56.2125 130.257 56.3221 129.987C56.4467 129.68 56.5509 129.405 56.6159 129.164C56.6869 128.899 56.6729 128.807 56.6764 128.827C56.6814 128.854 56.702 128.933 56.7708 129.022C56.8433 129.116 56.9263 129.164 56.974 129.184L57.8878 126.905C58.595 127.189 58.9779 127.767 59.0912 128.384C59.1876 128.908 59.088 129.427 58.987 129.802C58.8799 130.201 58.7256 130.596 58.597 130.912C58.4535 131.266 58.3578 131.487 58.2996 131.663L55.9685 130.89ZM56.974 129.184C56.9955 129.192 57.0008 129.191 56.9826 129.188L57.3746 126.764C57.5459 126.792 57.7188 126.837 57.8878 126.905L56.974 129.184ZM57.5026 126.792C57.586 126.815 57.6662 126.837 57.7433 126.857L57.1185 129.231C57.0333 129.209 56.9454 129.185 56.8547 129.16L57.5026 126.792ZM57.7433 126.857C58.6813 127.104 59.1817 127.174 59.6241 127.216C60.0772 127.259 60.6228 127.282 61.4614 127.42L61.0631 129.843C60.3356 129.723 59.9647 129.715 59.3934 129.661C58.8112 129.606 58.1791 129.511 57.1185 129.231L57.7433 126.857ZM61.8731 138.541C62.0088 138.659 62.1028 138.664 61.9895 138.632C61.9096 138.61 61.7803 138.584 61.5921 138.558C61.2122 138.505 60.7482 138.472 60.2322 138.432C59.753 138.394 59.2027 138.349 58.7645 138.263C58.554 138.222 58.2759 138.155 58.0209 138.027C57.821 137.927 57.2245 137.581 57.1738 136.819L59.6237 136.657C59.6042 136.365 59.4731 136.146 59.3523 136.014C59.2446 135.896 59.1441 135.844 59.1181 135.831C59.0719 135.808 59.0891 135.825 59.2345 135.853C59.5081 135.907 59.9118 135.944 60.4218 135.983C60.8951 136.02 61.4556 136.06 61.9285 136.125C62.1666 136.158 62.4208 136.203 62.6556 136.269C62.8569 136.326 63.1967 136.439 63.4836 136.688L61.8731 138.541ZM57.3395 136.117C57.4481 135.932 57.6095 135.41 57.6096 134.847C57.6097 134.581 57.5728 134.374 57.5214 134.236C57.4969 134.17 57.4735 134.132 57.4584 134.111C57.4448 134.093 57.4376 134.089 57.4374 134.089L58.7624 132.022C59.8516 132.721 60.0651 134.002 60.065 134.848C60.0648 135.745 59.834 136.718 59.458 137.359L57.3395 136.117ZM59.4576 132.857L56.9572 132.492L57.3109 130.062L59.8112 130.427L59.4576 132.857ZM98.6253 150.566C101.19 145.234 102.981 135.159 98.5534 120.014L100.91 119.326C105.467 134.913 103.722 145.634 100.838 151.632L98.6253 150.566ZM88.7587 143.966C88.355 140.962 86.9232 135.897 88.3512 129.72L90.7435 130.274C89.447 135.883 90.7398 140.274 91.1922 143.641L88.7587 143.966ZM88.5042 130.644C86.724 127.773 85.8983 126.372 85.37 125.227C84.8452 124.088 84.6025 123.16 84.0129 121.448L86.3344 120.65C86.9887 122.55 87.1433 123.21 87.5996 124.2C88.0526 125.182 88.7917 126.45 90.5905 129.35L88.5042 130.644Z" fill="#240046"/>
<path d="M195.849 43.6148C196.214 29.7187 212.912 25.432 221.216 25.0257C203.849 21.0641 160.244 17.2853 124.761 33.8632C118.713 36.6887 104.812 48.1859 117.014 44.9862C121.673 58.4455 129.895 87.5584 125.521 96.3349C138.128 78.5076 154.887 65.5053 165.621 64.4895C170.178 52.4523 178.077 44.6814 195.849 43.6148Z" fill="#9D4EDD"/>
<path d="M221.216 25.0254C212.912 25.4317 196.214 29.7184 195.849 43.6145C178.077 44.6811 170.178 52.452 165.621 64.4892C154.887 65.505 137.369 79.2691 120.964 102.582" stroke="#240046" stroke-width="2.45547" stroke-linecap="round" stroke-linejoin="round"/>
<path d="M125.26 58.8552C123.616 48.4026 139.914 50.0358 148.269 52.159C140.051 37.0028 162.239 35.2825 174.359 36.3169C161.704 30.4373 176.893 24.6122 186.069 22.4346L132.861 29.2941L115.193 42.6864C119.233 52.4312 126.903 69.3077 125.26 58.8552Z" fill="black" fill-opacity="0.3"/>
<path d="M121.42 90.5443C120.569 98.9551 106.585 104.41 99.6985 106.086L111.091 111.571C118.382 107.061 124.458 99.2294 127.951 90.5443C131.597 71.9552 120.584 51.6899 116.711 43.1572C128.863 41.3288 153.47 56.3118 164.255 64.0319C155.521 51.309 134.939 41.024 120.584 39.4241C134.923 33.9388 179.9 40.1479 192.014 42.0906C173.786 36.2244 155.141 29.4439 123.546 34.9292C158.543 22.252 203.343 22.7396 221.368 24.5681C212.133 18.1076 186.027 17.5083 174.128 18.0162C147.698 20.2509 119.293 24.2633 107.597 39.9574C120.357 55.1945 122.483 80.0308 121.42 90.5443Z" fill="#5A189A"/>
<path d="M174.128 18.0162C147.698 20.2509 120.585 23.9967 108.889 39.6908C108.889 39.6908 109.059 41.005 109.724 41.6335C114.205 41.2526 111.699 37.291 111.699 37.291C131.707 22.6042 177.721 18.7272 199.686 18.7737C190.232 17.7869 180.281 17.7535 174.128 18.0162Z" fill="#9D4EDD"/>
<path d="M214.988 21.8254C160.67 19.1437 130.786 28.936 122.635 34.1674C121.825 34.6753 122.665 34.8988 132.508 31.7295C142.351 28.5602 173.267 25.1268 187.495 23.8062C219.292 24.2634 217.722 23.8062 214.988 21.8254Z" fill="black" fill-opacity="0.3"/>
<path d="M99.6985 106.086C106.585 104.41 120.569 98.9551 121.42 90.5443C122.483 80.0308 120.357 55.1945 107.597 39.9574C113.065 40.2241 109.131 38.0341 109.991 37.139C122.85 23.7668 149.356 20.1107 174.128 18.0162C186.027 17.5083 212.133 18.1076 221.368 24.5681C203.343 22.7396 158.543 22.252 123.546 34.9292C155.141 29.4439 177.47 37.291 195.698 43.1572C183.584 41.2145 134.923 33.9388 120.584 39.4241C134.939 41.024 156.888 51.9185 165.622 64.6414C154.837 56.9213 128.863 41.3288 116.711 43.1572C120.584 51.6899 131.597 71.9552 127.951 90.5443C124.458 99.2294 118.382 107.061 111.091 111.571" stroke="#240046" stroke-width="2.45547" stroke-linecap="round" stroke-linejoin="round"/>
<path d="M105.604 38.3916C106.806 40.2153 106.849 40.5786 107.506 40.8028C108.163 41.027 109.951 40.6025 110.885 39.7647C112.039 38.7304 110.842 36.7689 110.842 36.7689C107.886 34.6858 103.787 28.4221 103.47 23.6263C100.977 30.2928 104.243 36.327 105.604 38.3916Z" fill="#240046"/>
<path d="M106.673 32.0391C104.998 29.4313 103.646 26.3006 103.468 23.6263C102.07 27.367 102.484 30.9086 103.358 33.6615C102.991 30.7628 103.026 27.6552 106.673 32.0391Z" fill="#5A189A"/>
</svg>
