<svg width="335" height="298" viewBox="0 0 335 298" fill="none" xmlns="http://www.w3.org/2000/svg">
<circle r="146.591" transform="matrix(-1 0 0 1 167.103 148.591)" fill="#0C0E19"/>
<circle r="146.591" transform="matrix(-1 0 0 1 167.103 148.591)" fill="url(#paint0_radial)"/>
<circle r="146.591" transform="matrix(-1 0 0 1 167.103 148.591)" stroke="#2A294C" stroke-width="4"/>
<mask id="mask0" mask-type="alpha" maskUnits="userSpaceOnUse" x="21" y="2" width="292" height="293">
<circle r="145.705" transform="matrix(-1 0 0 1 167.103 148.591)" fill="#C4C4C4"/>
</mask>
<g mask="url(#mask0)">
<path d="M197.759 234.426L223.365 259.672V300.787H135.004L197.759 234.426Z" fill="#232341"/>
<path d="M135.004 300.787L197.759 234.426L197.343 238.033L137.89 300.787H136.447H135.004Z" fill="#3E3E70"/>
<path d="M197.759 234.426L223.365 259.672L201.365 269.049L196.677 254.623L197.759 250.295L196.677 243.803L197.759 234.426Z" fill="#17172C"/>
<path d="M348.153 231.783L272.043 168.831L205.881 262.919L199.034 272.656L180.969 298.347L213.219 311.247H348.153V231.783Z" fill="#232341"/>
<path d="M272.043 168.831V180.957L277.203 185.859L276.429 213.465V231.783L298.359 247.521L348.153 231.783L272.043 168.831Z" fill="#17172C"/>
<path d="M317.978 139.935L275.408 210.885V250.359H340.94L317.978 139.935Z" fill="#232341"/>
<path d="M318.728 143.541L317.978 139.935L276.533 209.009L276.382 212.787L318.728 143.541Z" fill="#3E3E70"/>
<path d="M272.043 170.273V172.437L202.158 271.82L201.365 269.05L201.654 268.93L272.043 168.831V170.273Z" fill="#3E3E70"/>
</g>
<g filter="url(#filter0_d)">
<circle r="28.4919" transform="matrix(-1 0 0 1 89.5618 80.4265)" fill="white" fill-opacity="0.6"/>
</g>
<g filter="url(#filter1_d)">
<circle r="24.164" transform="matrix(-1 0 0 1 89.5616 80.4267)" fill="white" fill-opacity="0.6"/>
</g>
<circle r="19.8361" transform="matrix(-1 0 0 1 89.5618 80.426)" fill="white"/>
<path d="M159.825 85.5561C159.217 85.5566 158.611 85.5933 158.008 85.6657C156.371 80.3358 151.454 76.6933 145.879 76.6819C144.491 76.6804 143.113 76.911 141.802 77.3627C138.555 70.342 130.86 66.5264 123.307 68.1915C115.753 69.857 110.376 76.5535 110.382 84.2882C110.382 85.625 110.549 86.9564 110.876 88.2515C103.679 89.3503 98.5369 95.8003 99.0719 103.061C99.6059 110.322 105.637 115.951 112.917 115.983H159.825C168.227 115.983 175.038 109.171 175.038 100.769C175.038 92.3671 168.227 85.5561 159.825 85.5561Z" fill="#232341"/>
<path d="M159.825 85.5561C159.217 85.5566 158.611 85.5933 158.008 85.6657C156.371 80.3358 151.454 76.6933 145.879 76.6819C144.491 76.6804 143.113 76.911 141.802 77.3627C138.555 70.342 130.86 66.5264 123.307 68.1915C115.753 69.857 110.376 76.5535 110.382 84.2882C110.382 85.625 110.549 86.9564 110.876 88.2515C103.679 89.3503 98.5369 95.8003 99.0719 103.061C99.6059 110.322 105.637 115.951 112.917 115.983H159.825C168.227 115.983 175.038 109.171 175.038 100.769C175.038 92.3671 168.227 85.5561 159.825 85.5561Z" fill="#3E3E70"/>
<path d="M160.057 87C159.459 87.0005 158.862 87.0365 158.268 87.1076C156.656 81.8782 151.814 78.3044 146.324 78.2932C144.957 78.2918 143.6 78.518 142.309 78.9612C139.112 72.0729 131.534 68.3293 124.096 69.963C116.657 71.5971 111.363 78.1672 111.368 85.7561C111.369 87.0677 111.533 88.3739 111.855 89.6446C104.768 90.7227 99.7041 97.051 100.231 104.175C100.757 111.299 106.696 116.821 113.865 116.853H160.057C168.331 116.853 175.038 110.17 175.038 101.926C175.038 93.6826 168.331 87 160.057 87Z" fill="#141426"/>
<path d="M159.853 86.6723C159.247 86.6728 158.641 86.7081 158.04 86.7778C156.406 81.6469 151.498 78.1403 145.934 78.1293C144.548 78.1279 143.173 78.3499 141.864 78.7847C138.623 72.026 130.943 68.3529 123.404 69.9558C115.864 71.5592 110.498 78.0057 110.503 85.4517C110.503 86.7387 110.67 88.0203 110.996 89.2671C103.813 90.3249 98.6804 96.5342 99.2144 103.524C99.7474 110.514 105.767 115.932 113.033 115.963H159.853C168.239 115.963 175.038 109.406 175.038 101.318C175.038 93.2291 168.239 86.6723 159.853 86.6723Z" fill="#2B2B4E"/>
<path fill-rule="evenodd" clip-rule="evenodd" d="M290.592 163.161V163.161H290.592C290.911 163.161 291.169 163.42 291.169 163.739C291.169 164.052 290.92 164.306 290.609 164.315L290.592 164.315C289.636 164.315 288.861 165.09 288.861 166.046V166.047H288.861C288.861 166.365 288.602 166.624 288.284 166.624C287.969 166.624 287.714 166.372 287.707 166.06C287.707 166.056 287.707 166.051 287.707 166.046C287.707 165.09 286.932 164.315 285.976 164.315C285.97 164.315 285.964 164.315 285.959 164.315C285.648 164.306 285.398 164.052 285.398 163.739C285.398 163.42 285.657 163.162 285.975 163.161V163.161H285.976C286.932 163.161 287.707 162.386 287.707 161.43L287.707 161.417C287.714 161.104 287.969 160.853 288.284 160.853C288.602 160.853 288.861 161.111 288.861 161.43V161.43H288.861C288.861 162.386 289.636 163.161 290.592 163.161Z" fill="#E1B554"/>
<path fill-rule="evenodd" clip-rule="evenodd" d="M44.6246 157.391H44.6244C43.6683 157.391 42.8933 156.616 42.8933 155.659L42.8933 155.642C42.8841 155.331 42.6294 155.083 42.3165 155.083C41.9979 155.083 41.7395 155.341 41.7395 155.66V155.66H41.7392C41.7391 156.616 40.9641 157.391 40.0081 157.391V157.391C39.6895 157.391 39.4312 157.649 39.4312 157.968C39.4312 158.28 39.6794 158.535 39.9893 158.545C39.9955 158.545 40.0017 158.545 40.008 158.545C40.9641 158.545 41.7391 159.32 41.7391 160.276C41.7391 160.276 41.7391 160.276 41.7391 160.276H41.7395C41.7395 160.595 41.9979 160.853 42.3165 160.853C42.6294 160.853 42.8841 160.604 42.8933 160.293L42.8933 160.276C42.8933 159.32 43.6683 158.545 44.6244 158.545L44.6425 158.545C44.9529 158.535 45.2017 158.281 45.2017 157.968C45.2017 157.649 44.9433 157.391 44.6246 157.391H44.6246V157.391Z" fill="#E1B554"/>
<path fill-rule="evenodd" clip-rule="evenodd" d="M179.788 17.7697H179.788C178.474 17.7697 177.408 16.7041 177.408 15.3895H177.408C177.408 14.9514 177.053 14.5962 176.614 14.5962C176.181 14.5962 175.828 14.9443 175.821 15.3764L175.821 15.3894C175.821 16.704 174.755 17.7697 173.441 17.7697V17.77H173.441C173.002 17.77 172.647 18.1253 172.647 18.5635C172.647 18.9962 172.994 19.348 173.424 19.3568C173.43 19.3567 173.435 19.3567 173.441 19.3567C174.755 19.3567 175.821 20.4224 175.821 21.737C175.821 21.7411 175.821 21.7452 175.821 21.7493C175.828 22.1818 176.18 22.5303 176.614 22.5303C177.053 22.5303 177.408 22.1752 177.408 21.7371H177.408V21.737C177.408 20.4224 178.474 19.3567 179.788 19.3567L179.805 19.3568C180.236 19.3479 180.582 18.9961 180.582 18.5635C180.582 18.1253 180.227 17.7701 179.788 17.77V17.7697Z" fill="#E1B554"/>
<path fill-rule="evenodd" clip-rule="evenodd" d="M257.916 99.8296H257.916L257.933 101.417C258.363 101.408 258.71 101.056 258.71 100.623C258.71 100.185 258.355 99.83 257.916 99.83V99.8296Z" fill="#E1B554"/>
<path fill-rule="evenodd" clip-rule="evenodd" d="M151.537 43.7935V43.7936H151.537C152.174 43.7936 152.691 44.3103 152.691 44.9477C152.691 45.579 152.184 46.0918 151.555 46.1017L151.537 46.1016C149.625 46.1016 148.075 47.6518 148.075 49.5639V49.5643H148.074C148.074 50.2016 147.558 50.7182 146.92 50.7182C146.291 50.7182 145.779 50.2142 145.766 49.5878C145.766 49.58 145.766 49.5722 145.766 49.5644C145.766 47.6522 144.216 46.1021 142.304 46.1021C142.304 46.1021 142.304 46.1021 142.304 46.1021V46.1018C141.667 46.1017 141.15 45.5851 141.15 44.9477C141.15 44.3104 141.667 43.7937 142.304 43.7936V43.7935H142.304C144.216 43.7935 145.766 42.2433 145.766 40.3312L145.766 40.3072C145.779 39.681 146.291 39.1772 146.92 39.1772C147.558 39.1772 148.074 39.694 148.074 40.3313V40.3315H148.075C148.075 42.2434 149.625 43.7934 151.537 43.7935Z" fill="#E1B554"/>
<path d="M205.636 66.2176C206.368 66.218 207.099 66.252 207.826 66.3191C209.798 61.3811 215.725 58.0065 222.444 57.9959C224.117 57.9945 225.778 58.2081 227.359 58.6266C231.272 52.1221 240.546 48.5871 249.65 50.1298C258.755 51.6729 265.235 57.8769 265.229 65.0429C265.228 66.2814 265.027 67.5149 264.634 68.7148C273.308 69.7328 279.505 75.7086 278.86 82.4354C278.217 89.1627 270.948 94.3772 262.173 94.4071H205.636C195.509 94.4071 187.3 88.0964 187.3 80.3121C187.3 72.5277 195.509 66.2176 205.636 66.2176Z" fill="#232341"/>
<path d="M205.636 66.2176C206.368 66.218 207.099 66.252 207.826 66.3191C209.798 61.3811 215.725 58.0065 222.444 57.9959C224.117 57.9945 225.778 58.2081 227.359 58.6266C231.272 52.1221 240.546 48.5871 249.65 50.1298C258.755 51.6729 265.235 57.8769 265.229 65.0429C265.228 66.2814 265.027 67.5149 264.634 68.7148C273.308 69.7328 279.505 75.7086 278.86 82.4354C278.217 89.1627 270.948 94.3772 262.173 94.4071H205.636C195.509 94.4071 187.3 88.0964 187.3 80.3121C187.3 72.5277 195.509 66.2176 205.636 66.2176Z" fill="#3E3E70"/>
<path d="M205.356 67.5553C206.077 67.5557 206.797 67.5891 207.513 67.6549C209.455 62.8101 215.291 59.4991 221.908 59.4887C223.556 59.4873 225.191 59.6969 226.748 60.1075C230.601 53.7257 239.734 50.2574 248.699 51.7709C257.665 53.2849 264.047 59.3719 264.04 66.4028C264.039 67.6179 263.842 68.8281 263.454 70.0054C271.996 71.0042 278.099 76.8672 277.464 83.4672C276.83 90.0676 269.672 95.1837 261.031 95.213H205.356C195.384 95.213 187.3 89.0215 187.3 81.3839C187.3 73.7464 195.384 67.5553 205.356 67.5553Z" fill="#141426"/>
<path d="M205.601 67.2516C206.332 67.2521 207.062 67.2848 207.787 67.3494C209.756 62.5957 215.671 59.347 222.379 59.3368C224.048 59.3355 225.706 59.5411 227.284 59.944C231.19 53.6823 240.446 50.2793 249.533 51.7643C258.621 53.2498 265.089 59.2223 265.082 66.1208C265.082 67.3131 264.881 68.5005 264.488 69.6557C273.146 70.6357 279.332 76.3884 278.688 82.8641C278.046 89.3403 270.791 94.3602 262.032 94.389H205.601C195.494 94.389 187.3 88.3139 187.3 80.8201C187.3 73.3263 195.494 67.2516 205.601 67.2516Z" fill="#2B2B4E"/>
<path fill-rule="evenodd" clip-rule="evenodd" d="M221.49 37.7969H221.49L221.49 40.1054C222.127 40.1053 222.644 39.5886 222.644 38.9513C222.644 38.3139 222.127 37.7972 221.49 37.7972V37.7969Z" fill="#E1B554"/>
<path d="M62.4911 171.311C64.6995 170.498 65.4514 170.12 65.6688 170.424L62.1426 177.768C58.3127 177.741 55.3915 180.112 53.1733 184.166C52.3924 177.25 59.9909 172.233 62.4911 171.311Z" fill="#240046"/>
<path d="M63.474 175.616C65.6824 174.803 62.7243 176.958 62.9417 177.263L62.1427 177.768C58.3128 177.741 55.3916 180.112 53.1734 184.166C55.9776 177.661 60.9738 176.537 63.474 175.616Z" fill="#5A189A"/>
<path d="M62.4911 171.311C64.6995 170.498 65.4514 170.12 65.6688 170.424L65.0143 171.241C55.6067 174.401 54.2005 180.207 53.1733 184.166C52.3924 177.25 59.9909 172.233 62.4911 171.311Z" fill="#190031"/>
<path d="M59.8183 165.681C62.1155 165.169 62.9111 164.894 63.0859 165.225L61.5454 169.176L58.6118 172.033C54.8197 171.495 51.6084 173.455 48.8693 177.177C49.0177 170.219 57.2175 166.26 59.8183 165.681Z" fill="#240046"/>
<path d="M60.218 170.078C62.5152 169.566 59.296 171.308 59.4708 171.639L58.6116 172.033C54.8196 171.495 51.6082 173.456 48.8692 177.177C52.5158 171.105 57.6173 170.658 60.218 170.078Z" fill="#5A189A"/>
<path d="M59.8183 165.681C62.1155 165.169 62.9111 164.894 63.0859 165.225L62.3284 165.947C52.5833 167.824 50.4154 173.391 48.8693 177.177C49.0177 170.219 57.2175 166.26 59.8183 165.681Z" fill="#190031"/>
<path d="M58.8317 159.982C61.5965 159.321 62.5661 158.99 62.7305 159.327L60.4282 163.54L56.6238 166.687C52.2318 166.333 48.2122 168.558 44.5291 172.598C45.5682 165.319 55.7017 160.731 58.8317 159.982Z" fill="#240046"/>
<path d="M58.756 164.555C61.5207 163.894 57.519 165.891 57.6834 166.228L56.6242 166.686C52.2323 166.333 48.2127 168.558 44.5296 172.598C49.5719 166.052 55.626 165.304 58.756 164.555Z" fill="#5A189A"/>
<path d="M58.8317 159.982C61.5965 159.321 62.5661 158.99 62.7305 159.327L61.7501 160.123C50.0583 162.62 46.8175 168.556 44.5291 172.598C45.5682 165.319 55.7017 160.731 58.8317 159.982Z" fill="#190031"/>
<path d="M115.973 179.34C116.977 159.353 107.84 144.61 103.146 139.737L86.7838 147.66C89.9649 149.272 92.4923 156.112 96.4191 159.719C96.4929 165.498 98.873 171.95 100.054 174.454C95.2532 176.49 87.4213 176.598 79.9609 173.241C70.8579 162.365 61.0798 159.64 57.3286 159.638L63.6827 176.004L67.5729 176.827L80.4754 179.87C91.8898 188.022 114.97 199.328 115.973 179.34Z" fill="#5A189A"/>
<path d="M73.8464 169.552C69.9512 165.729 61.9447 161.527 58.9695 163.24L57.6168 159.904L68.076 162.519C71.6225 166.456 77.7415 173.375 73.8464 169.552Z" fill="#9D4EDD"/>
<path d="M68.7075 172.888C71.0157 172.672 73.8769 175.022 75.019 176.224L76.5518 178.929L74.3878 179.47L67.8058 176.224L63.6583 176.224L63.6583 174.15C64.3796 173.82 66.3993 173.104 68.7075 172.888Z" fill="black" fill-opacity="0.3"/>
<path d="M56.9981 159.902L56.4872 161.245C55.9371 161.035 55.5704 160.512 55.5616 159.923C55.5529 159.335 55.9041 158.8 56.4477 158.575L56.9981 159.902ZM74.9239 168.716L73.9089 169.732L73.9089 169.732L74.9239 168.716ZM101.441 174.795L102.483 173.806C102.83 174.171 102.96 174.691 102.826 175.177C102.692 175.663 102.313 176.043 101.828 176.179L101.441 174.795ZM114.906 180.029L113.527 180.431L113.432 180.106L113.492 179.772L114.906 180.029ZM112.774 188.642L112.08 187.384C112.129 187.357 112.18 187.333 112.233 187.311L112.774 188.642ZM95.3432 187.874L94.9621 189.259L94.9621 189.259L95.3432 187.874ZM79.9166 179.313L79.8993 177.877C80.4251 177.871 80.9124 178.152 81.1696 178.611L79.9166 179.313ZM68.2547 176.374L68.8723 175.077L69.2014 175.234L69.416 175.528L68.2547 176.374ZM61.5777 172.623L61.1541 173.995C60.7148 173.86 60.367 173.522 60.2183 173.087C60.0696 172.652 60.138 172.173 60.4022 171.797L61.5777 172.623ZM62.8876 170.525L62.7083 169.1L62.8528 169.081L62.9979 169.093L62.8876 170.525ZM57.1 165.641L57.4444 167.036L56.5269 164.324L57.1 165.641ZM63.8005 166.576L64.206 165.198C64.8634 165.391 65.2927 166.022 65.2313 166.704C65.1699 167.387 64.6349 167.931 63.9535 168.004L63.8005 166.576ZM59.9114 170.899L60.0906 172.325C59.669 172.378 59.2456 172.241 58.9341 171.952C58.6226 171.663 58.4551 171.251 58.4766 170.827L59.9114 170.899ZM58.9211 167.12L58.9254 168.557L58.7643 165.692L58.9211 167.12ZM63.0814 176.729L61.7253 177.203C61.63 176.931 61.619 176.636 61.6937 176.357L63.0814 176.729ZM96.5954 159.182L97.5689 158.125L98.1838 158.692L97.9949 159.506L96.5954 159.182ZM56.4477 158.575C58.6806 157.649 61.553 157.951 64.7627 159.392C67.9981 160.844 71.7602 163.528 75.9388 167.699L73.9089 169.732C69.8837 165.714 66.4027 163.277 63.5862 162.013C60.7439 160.738 58.7554 160.728 57.5485 161.229L56.4477 158.575ZM75.9388 167.699C79.7521 171.506 84.7386 173.302 89.4851 173.954C94.2412 174.607 98.6212 174.092 101.054 173.411L101.828 176.179C99.0093 176.966 94.2326 177.506 89.0941 176.8C83.9459 176.093 78.2996 174.115 73.9089 169.732L75.9388 167.699ZM116.285 179.626C117.134 182.536 117.123 184.83 116.488 186.584C115.842 188.368 114.601 189.449 113.316 189.972L112.233 187.311C112.815 187.074 113.435 186.575 113.786 185.606C114.148 184.607 114.269 182.974 113.527 180.431L116.285 179.626ZM113.469 189.899C112.359 190.513 110.24 191.024 107.24 191.068C104.189 191.112 100.101 190.673 94.9621 189.259L95.7243 186.489C100.637 187.841 104.454 188.234 107.199 188.195C109.997 188.154 111.568 187.667 112.08 187.384L113.469 189.899ZM94.9621 189.259C89.815 187.843 86.0621 186.074 83.4461 184.406C80.8711 182.764 79.3053 181.16 78.6636 180.016L81.1696 178.611C81.4821 179.168 82.6039 180.461 84.9908 181.983C87.3368 183.479 90.8201 185.139 95.7243 186.489L94.9621 189.259ZM79.9339 180.75C77.8997 180.774 75.3954 180.782 73.111 180.384C70.8654 179.992 68.5035 179.156 67.0934 177.22L69.416 175.528C70.1541 176.542 71.5785 177.2 73.6044 177.553C75.5915 177.899 77.844 177.902 79.8993 177.877L79.9339 180.75ZM60.4022 171.797C60.8162 171.207 61.3425 170.778 61.7801 170.474C62.1944 170.186 62.6662 169.924 62.8319 169.823C62.973 169.738 62.9188 169.757 62.831 169.846C62.7949 169.883 62.5868 170.091 62.5035 170.459C62.4558 170.67 62.4533 170.917 62.5321 171.17C62.6089 171.416 62.7404 171.596 62.8576 171.716C63.0638 171.926 63.2723 171.997 63.2964 172.006C63.348 172.024 63.3666 172.025 63.324 172.017C63.2404 172.001 63.0736 171.98 62.7773 171.957L62.9979 169.093C63.3202 169.117 63.6113 169.148 63.8509 169.193C63.97 169.215 64.1165 169.248 64.2657 169.301C64.3874 169.345 64.6631 169.453 64.9094 169.705C65.2308 170.032 65.4311 170.54 65.3058 171.094C65.2116 171.51 64.9688 171.77 64.8774 171.863C64.6792 172.064 64.4322 172.213 64.3245 172.279C63.6711 172.676 63.09 172.969 62.7531 173.449L60.4022 171.797ZM57.509 158.559C58.3823 158.891 58.9419 159.624 59.2733 160.282C59.6196 160.968 59.8217 161.77 59.8769 162.557C59.9773 163.989 59.591 166.124 57.6731 166.959L56.5269 164.324C56.7159 164.242 57.0848 163.815 57.0107 162.759C56.9786 162.302 56.861 161.879 56.7078 161.575C56.5398 161.242 56.4201 161.219 56.4872 161.245L57.509 158.559ZM56.7557 164.247C58.3467 163.854 59.8893 164.017 61.1665 164.3C62.38 164.569 63.6108 165.022 64.206 165.198L63.3949 167.954C62.4842 167.686 61.6581 167.352 60.5445 167.105C59.4946 166.873 58.4399 166.79 57.4444 167.036L56.7557 164.247ZM58.4766 170.827C58.4941 170.481 58.5558 170.028 58.5961 169.685C58.6418 169.296 58.6744 168.948 58.6725 168.651C58.6704 168.327 58.6254 168.224 58.6342 168.242C58.6478 168.27 58.6949 168.352 58.7991 168.43C58.9087 168.511 59.0153 168.539 59.072 168.546L59.3904 165.69C60.2799 165.789 60.8959 166.323 61.2186 166.987C61.493 167.551 61.5427 168.173 61.5457 168.633C61.5488 169.12 61.4969 169.619 61.4497 170.021C61.397 170.469 61.3573 170.752 61.3462 170.972L58.4766 170.827ZM59.072 168.546C59.0973 168.549 59.1012 168.546 59.0779 168.548L58.7643 165.692C58.9675 165.67 59.1776 165.666 59.3904 165.69L59.072 168.546ZM58.9168 165.684C59.0195 165.683 59.1182 165.683 59.2129 165.681L59.2494 168.555C59.1449 168.556 59.037 168.557 58.9254 168.557L58.9168 165.684ZM59.2129 165.681C60.3656 165.667 60.9616 165.588 61.4825 165.496C62.0157 165.401 62.6452 165.255 63.6474 165.147L63.9535 168.004C63.0821 168.098 62.6535 168.206 61.9838 168.325C61.3017 168.446 60.5499 168.538 59.2494 168.555L59.2129 165.681ZM67.637 177.671C67.825 177.76 67.93 177.737 67.7892 177.736C67.689 177.736 67.5315 177.747 67.3074 177.777C66.8551 177.837 66.3129 177.947 65.7102 178.064C65.1498 178.173 64.5072 178.295 63.9805 178.336C63.7274 178.355 63.3907 178.367 63.0618 178.302C62.8052 178.252 62.0211 178.048 61.7253 177.203L64.4374 176.254C64.3241 175.93 64.1073 175.724 63.9305 175.614C63.773 175.516 63.6442 175.489 63.6122 175.482C63.5553 175.471 63.5829 175.485 63.7589 175.471C64.0906 175.445 64.5656 175.36 65.1615 175.244C65.7151 175.136 66.3678 175.003 66.9286 174.929C67.2111 174.891 67.5147 174.862 67.8026 174.863C68.0499 174.864 68.4699 174.885 68.8723 175.077L67.637 177.671ZM61.6937 176.357C61.7602 176.109 61.7802 175.461 61.602 174.816C61.4084 174.115 61.1565 173.996 61.1541 173.995L62.0012 171.25C63.4578 171.699 64.1045 173.085 64.3714 174.051C64.6537 175.072 64.6962 176.252 64.4691 177.1L61.6937 176.357ZM63.0669 171.95L60.0906 172.325L59.7321 169.474L62.7083 169.1L63.0669 171.95ZM113.492 179.772C114.765 172.765 114.321 155.533 101.831 140.596L104.035 138.753C117.193 154.489 117.707 172.645 116.319 180.286L113.492 179.772ZM100.399 175.784C99.1482 174.467 97.444 172.104 96.2493 169.17C95.0524 166.231 94.3253 162.613 95.1959 158.857L97.9949 159.506C97.2982 162.511 97.8597 165.506 98.9104 168.086C99.9633 170.672 101.466 172.735 102.483 173.806L100.399 175.784ZM95.622 160.238C92.5854 157.441 90.8398 155.29 89.4439 153.364C88.0274 151.409 87.1108 149.9 85.5528 148.107L87.7216 146.222C89.3887 148.141 90.4933 149.915 91.7707 151.678C93.0687 153.47 94.6896 155.472 97.5689 158.125L95.622 160.238Z" fill="#240046"/>
<path d="M152.165 246.104C151.618 244.048 151.34 243.34 151.632 243.17L157.946 246.957C157.602 250.401 159.491 253.228 162.954 255.563C156.666 255.688 152.785 248.43 152.165 246.104Z" fill="#240046"/>
<path d="M156.121 245.579C155.573 243.523 157.266 246.366 157.558 246.195L157.946 246.957C157.601 250.401 159.491 253.228 162.953 255.563C157.335 252.496 156.741 247.906 156.121 245.579Z" fill="#5A189A"/>
<path d="M152.165 246.104C151.618 244.048 151.34 243.34 151.632 243.17L152.313 243.827C154.37 252.557 159.477 254.307 162.954 255.563C156.666 255.688 152.785 248.43 152.165 246.104Z" fill="#190031"/>
<path d="M147.5 247.08C147.377 244.957 147.247 244.207 147.568 244.099L150.868 246.047L152.991 249.079C151.96 252.383 153.243 255.532 156.165 258.516C149.98 257.374 147.639 249.484 147.5 247.08Z" fill="#240046"/>
<path d="M151.48 247.362C151.357 245.239 152.444 248.363 152.765 248.255L152.991 249.079C151.961 252.383 153.243 255.533 156.165 258.516C151.278 254.382 151.62 249.766 151.48 247.362Z" fill="#5A189A"/>
<path d="M147.5 247.08C147.377 244.957 147.247 244.207 147.568 244.099L148.102 244.88C148.361 253.845 153.012 256.587 156.165 258.516C149.98 257.374 147.639 249.484 147.5 247.08Z" fill="#190031"/>
<path d="M142.617 245.174C143.141 243.112 143.244 242.359 143.582 242.353L146.141 245.206L147.249 248.737C145.269 251.576 145.541 254.965 147.426 258.692C141.874 255.736 142.024 247.508 142.617 245.174Z" fill="#240046"/>
<path d="M146.327 246.644C146.85 244.582 146.943 247.889 147.281 247.883L147.248 248.737C145.268 251.576 145.54 254.965 147.425 258.692C144.015 253.275 145.734 248.978 146.327 246.644Z" fill="#5A189A"/>
<path d="M142.617 245.174C143.141 243.112 143.244 242.359 143.582 242.353L143.856 243.258C141.396 251.883 145.002 255.901 147.426 258.692C141.874 255.736 142.024 247.508 142.617 245.174Z" fill="#190031"/>
<path d="M137.385 190.317C139.068 187.312 140.847 180.651 134.499 178.055C128.152 175.458 122.958 179.137 121.155 181.301C119.111 183.224 111.565 191.516 116.47 204.211C121.375 216.906 145.8 216.164 155.057 214.842C154.095 215.924 152.316 219.458 152.893 224.94C153.47 230.422 146.24 240.622 143.475 245.191C144.557 244.71 148.853 244.56 150.008 246.58C151.811 244.776 152.171 244.776 153.614 246.94C154.215 245.978 155.706 244.416 156.86 245.858C156.86 241.891 157.221 241.17 158.303 238.284C160.947 234.558 166.598 225.517 168.04 219.17C170.204 213.399 170.204 213.038 170.204 212.317C170.325 211.115 167.68 209.071 162.631 208.35C157.581 207.629 147.964 199.093 144.598 195.006C143.14 193.639 139.749 191.195 135.68 189.966C136.327 190.091 136.913 190.213 137.385 190.317Z" fill="#5A189A"/>
<path d="M158.508 229.463C160.744 226.506 164.549 215.488 166.172 210.348L170.5 211.25L165.721 225.135L158.057 239.291L157.065 244.611C155.743 246.113 153.008 248.434 152.647 245.693H150.889L144.938 244.881C144.487 244.265 143.955 243.015 145.434 242.943C146.913 242.87 148.034 243.19 148.41 243.359C150.682 242.647 152.257 243.063 152.761 243.359C153.437 239.168 156.215 232.495 158.508 229.463Z" fill="black" fill-opacity="0.3"/>
<path d="M137.385 190.317C137.789 189.594 138.2 188.659 138.502 187.621M125.847 190.317C126.933 189.424 128.011 189.055 131.614 189.235C137.385 189.524 142.674 193.202 144.598 195.006C147.964 199.093 157.581 207.629 162.631 208.35C167.68 209.071 170.325 211.115 170.204 212.317C170.204 213.038 170.204 213.399 168.04 219.17C166.598 225.517 160.947 234.558 158.303 238.284C157.221 241.17 156.86 241.891 156.86 245.858C155.421 245.498 153.494 245.978 152.893 246.94C151.45 244.776 149.647 244.776 147.844 246.58C146.689 244.56 144.196 244.776 143.155 244.776C145.92 240.208 153.47 230.422 152.893 224.94C152.316 219.458 154.095 215.924 155.057 214.842C145.8 216.164 121.375 216.906 116.47 204.211C111.565 191.516 119.111 183.224 121.155 181.301C121.511 180.874 121.999 180.388 122.602 179.902" stroke="#240046" stroke-width="2.87325" stroke-linecap="round"/>
<path d="M219.861 95.6231C220.582 79.1873 240.492 74.4624 250.357 74.1545C239.529 66.3175 208.743 64.5271 194.609 64.8805C163.191 66.9747 129.391 71.1314 115.182 89.4589C130.011 107.755 132.02 137.188 130.54 149.607C129.356 159.541 112.643 165.705 104.434 167.545L117.843 174.273L129.749 163.841C149.706 136.596 170.786 120.674 183.548 119.695C189.207 105.546 198.744 96.5153 219.861 95.6231Z" fill="#5A189A"/>
<path d="M146.495 75.6263C129.087 79.1894 119.619 88.1819 117.278 91.3038L114.835 88.2497L121.554 82.3452L136.722 74.6083C147.106 72.4704 164.234 71.9955 146.495 75.6263Z" fill="#9D4EDD"/>
<path d="M250.357 74.1545L251.199 72.9907C251.697 73.351 251.911 73.9882 251.731 74.5758C251.55 75.1634 251.016 75.5712 250.402 75.5904L250.357 74.1545ZM219.861 95.6231L221.296 95.6861L221.239 97.0029L219.922 97.0585L219.861 95.6231ZM183.548 119.695L184.882 120.229C184.679 120.737 184.204 121.086 183.658 121.128L183.548 119.695ZM129.749 163.841L130.908 164.69C130.846 164.774 130.775 164.852 130.696 164.921L129.749 163.841ZM104.434 167.545L103.79 168.829C103.247 168.557 102.935 167.973 103.009 167.37C103.083 166.767 103.528 166.276 104.12 166.143L104.434 167.545ZM130.54 149.607L129.113 149.436L129.113 149.436L130.54 149.607ZM115.182 89.4589L114.066 90.3635L113.349 89.4788L114.047 88.5787L115.182 89.4589ZM194.609 64.8805L194.514 63.447C194.534 63.4457 194.554 63.4448 194.573 63.4443L194.609 64.8805ZM117.843 174.273L118.79 175.354C118.35 175.739 117.721 175.819 117.199 175.557L117.843 174.273ZM250.402 75.5904C245.619 75.7397 238.401 76.9673 232.343 80.1156C226.312 83.2494 221.627 88.1605 221.296 95.6861L218.426 95.5602C218.817 86.6499 224.447 80.9806 231.018 77.5661C237.561 74.166 245.231 72.8772 250.312 72.7185L250.402 75.5904ZM219.922 97.0585C209.558 97.4964 202.191 99.9237 196.749 103.853C191.307 107.781 187.647 113.314 184.882 120.229L182.214 119.162C185.108 111.927 189.046 105.87 195.067 101.523C201.087 97.1763 209.047 94.6421 219.801 94.1878L219.922 97.0585ZM183.658 121.128C177.719 121.583 169.541 125.582 160.245 133.039C151.002 140.454 140.827 151.148 130.908 164.69L128.59 162.992C138.628 149.289 148.971 138.399 158.448 130.798C167.872 123.238 176.615 118.786 183.438 118.263L183.658 121.128ZM104.12 166.143C108.126 165.245 114.217 163.286 119.417 160.359C124.716 157.377 128.61 153.662 129.113 149.436L131.967 149.777C131.286 155.486 126.232 159.82 120.826 162.863C115.321 165.962 108.951 168.005 104.749 168.947L104.12 166.143ZM129.113 149.436C129.834 143.389 129.712 133.077 127.567 122.01C125.42 110.938 121.277 99.2598 114.066 90.3635L116.298 88.5544C123.917 97.9537 128.192 110.14 130.388 121.463C132.584 132.792 132.726 143.405 131.967 149.777L129.113 149.436ZM114.047 88.5787C121.447 79.0339 133.83 73.3083 148.089 69.6898C162.378 66.0634 178.795 64.4948 194.514 63.447L194.705 66.3139C179.005 67.3604 162.813 68.9173 148.796 72.4747C134.747 76.04 123.127 81.5565 116.318 90.3392L114.047 88.5787ZM194.573 63.4443C201.707 63.266 213.01 63.628 223.905 65.0211C229.354 65.7177 234.729 66.6759 239.444 67.9636C244.134 69.2445 248.285 70.881 251.199 72.9907L249.515 75.3183C247.016 73.5094 243.257 71.9833 238.688 70.7354C234.143 69.4943 228.909 68.5575 223.541 67.8711C212.803 66.4981 201.646 66.1416 194.645 66.3166L194.573 63.4443ZM105.079 166.261L118.488 172.989L117.199 175.557L103.79 168.829L105.079 166.261ZM130.696 164.921L118.79 175.354L116.896 173.192L128.803 162.76L130.696 164.921Z" fill="#240046"/>
<path d="M112.042 87.4452C113.286 89.3275 113.33 89.7024 114.01 89.9338C114.69 90.1653 116.541 89.7272 117.509 88.8624C118.703 87.795 117.463 85.7705 117.463 85.7705C114.404 83.6204 110.161 77.1554 109.832 72.2056C107.251 79.0862 110.633 85.3142 112.042 87.4452Z" fill="#240046"/>
<path d="M113.149 80.8889C111.416 78.1974 110.015 74.9661 109.832 72.2059C108.384 76.0667 108.813 79.722 109.717 82.5633C109.337 79.5716 109.374 76.3642 113.149 80.8889Z" fill="#5A189A"/>
<path d="M56.0087 74.4123C66.4872 81.1061 66.7254 88.0921 65.5346 90.7483L71.4884 84.3733C70.2976 75.6076 69.5038 78.3967 61.5655 69.2326C55.2148 61.9013 59.2261 52.5187 59.9778 48.9121C56.0087 48.9121 45.5301 67.7185 56.0087 74.4123Z" fill="#5A189A"/>
<path d="M55.8757 74.412C66.3543 81.1058 66.5924 88.0918 65.4016 90.7481L71.3554 84.373C70.1646 75.6073 68.1134 78.6334 60.1751 69.4693C53.8244 62.138 57.9807 53.9611 58.7324 50.3545C54.7633 50.3545 45.8798 68.0267 55.8757 74.412Z" fill="#240046"/>
<path d="M55.8758 74.412C66.3544 81.1058 66.5925 88.0918 65.4018 90.7481L66.256 90.0268C67.2355 87.8418 67.2482 82.7274 61.3901 77.2558C60.1263 76.0755 58.5894 74.8785 56.73 73.6907C50.1553 69.4908 51.5475 60.4078 54.5376 54.6824C54.8354 54.0869 54.9593 53.7205 55.2589 53.2398L55.5105 52.7974C51.6801 57.8723 48.1743 69.4923 55.8758 74.412Z" fill="black" fill-opacity="0.3"/>
<path d="M103.585 83.6357C98.1993 85.5682 95.4326 90.5933 95.3767 91.8315L89.6072 87.3052C91.1233 84.74 98.3135 81.9772 103.585 83.6357Z" fill="#240046"/>
<path d="M91.2093 85.729C94.016 83.7863 99.4042 82.3204 103.585 83.6357C103.261 83.752 102.947 83.8795 102.642 84.0166C100.21 84.1644 94.7908 85.0595 92.5727 87.4579L91.2093 85.729Z" fill="#5A189A"/>
<path d="M320.409 107.41C318.732 112.229 321.352 113.861 322.296 114.405L316.32 116.892C314.957 114.716 317.369 109.742 320.409 107.41Z" fill="#240046"/>
<path d="M320.409 107.41C319.94 108.756 319.807 109.854 319.879 110.749C318.921 109.87 316.882 112.956 315.982 114.609C316.313 112.209 318.194 109.109 320.409 107.41Z" fill="#5A189A"/>
<path d="M312.28 108.917C310.166 114.075 312.117 118.026 313.008 118.877L305.797 120.085C304.877 117.31 307.549 111.642 312.28 108.917Z" fill="#240046"/>
<path d="M312.281 108.917C311.781 110.135 311.509 111.285 311.395 112.343C310.539 112.265 308.351 112.771 306.453 115.425C307.521 113.023 309.56 110.483 312.281 108.917Z" fill="#5A189A"/>
<path d="M303.337 109.119C299.816 114.865 301.209 119.915 302.048 121.088L293.531 121.215C293.068 117.751 297.336 111.499 303.337 109.119Z" fill="#240046"/>
<path d="M295.501 115.461C297.254 112.914 300.033 110.43 303.337 109.119C302.365 110.706 301.767 112.239 301.429 113.653C300.678 111.815 297.164 114.092 295.501 115.461Z" fill="#5A189A"/>
<path d="M293.527 109.965C288.877 114.839 289.13 120.045 289.689 121.36L281.423 119.736C281.725 116.266 287.208 111.052 293.527 109.965Z" fill="#240046"/>
<path d="M293.527 109.965C292.961 110.558 292.467 111.157 292.038 111.753C289.076 111.966 284.514 115.222 282.602 116.823C284.59 113.864 288.827 110.773 293.527 109.965Z" fill="#5A189A"/>
<path d="M282.258 106.827C277.002 111.048 275.85 117.707 276.263 119.108L268.099 116.282C268.803 112.843 275.75 107.004 282.258 106.827Z" fill="#240046"/>
<path d="M282.258 106.827C281.539 107.404 280.897 108.027 280.325 108.677C276.179 108.828 271.291 112.151 269.365 113.795C271.788 110.581 277.158 106.966 282.258 106.827Z" fill="#5A189A"/>
<path d="M222.263 105.086C221.507 112.727 227.064 118.909 228.851 119.67L218.316 124.163C215.549 120.881 216.289 110.578 222.263 105.086Z" fill="#240046"/>
<path d="M222.264 105.086C222.006 107.685 222.81 110.902 223.617 113.007C220.317 107.697 218.08 111.835 217.28 114.081C218.033 110.823 219.646 107.493 222.264 105.086Z" fill="#5A189A"/>
<path d="M209.181 112.223C208.603 119.88 214.302 125.931 216.108 126.65L205.68 131.387C202.837 128.171 203.337 117.853 209.181 112.223Z" fill="#240046"/>
<path d="M210.379 119.225C210.491 119.537 210.605 119.834 210.719 120.111C210.621 119.772 210.507 119.478 210.379 119.225C209.649 117.186 209.011 114.481 209.181 112.223C206.621 114.69 205.086 118.057 204.409 121.332C205.101 119.235 208.786 116.053 210.379 119.225Z" fill="#5A189A"/>
<path d="M195.383 118.613C194.748 127.033 201.015 133.687 203 134.478L191.533 139.687C188.407 136.15 188.957 124.804 195.383 118.613Z" fill="#240046"/>
<path d="M195.383 118.613C195.252 120.35 195.415 122.012 195.773 123.563C192.438 123.563 190.329 129.426 189.691 132.357C189.829 127.765 191.573 122.283 195.383 118.613Z" fill="#5A189A"/>
<path d="M180.241 125.015C179.605 133.435 185.872 140.089 187.858 140.88L176.391 146.089C173.265 142.552 173.814 131.206 180.241 125.015Z" fill="#240046"/>
<path d="M180.241 125.015C180.077 127.18 180.37 129.227 180.929 131.089C177.657 130.469 175.315 135.86 174.553 138.632C174.719 134.066 176.466 128.651 180.241 125.015Z" fill="#5A189A"/>
<path d="M167.471 132.129C166.836 140.548 173.103 147.202 175.088 147.993L163.621 153.203C160.495 149.665 161.044 138.32 167.471 132.129Z" fill="#240046"/>
<path d="M167.471 132.129C167.337 133.909 167.511 135.611 167.888 137.194C164.967 138.754 163.335 143.277 162.884 145.343L162.327 141.668C163.119 138.219 164.779 134.722 167.471 132.129Z" fill="#5A189A"/>
<path d="M236.894 99.6631C234.922 106.983 238.295 113.793 239.599 114.79L230.312 117.642C228.669 114.052 231.103 104.142 236.894 99.6631Z" fill="#240046"/>
<path d="M231.276 107.69C232.464 104.631 234.357 101.626 236.894 99.6631C236.495 101.144 236.278 102.893 236.291 104.521C235.562 104.35 233.604 104.744 231.276 107.69Z" fill="#5A189A"/>
<path d="M254.032 98.6295C249.711 104.858 250.594 112.406 251.486 113.784L241.782 113.342C241.443 109.409 247.071 100.897 254.032 98.6295Z" fill="#240046"/>
<path d="M254.032 98.6294C253.281 99.7119 252.687 100.834 252.223 101.957C248.534 103.134 244.828 106.452 243.437 107.964C245.566 104.194 249.519 100.1 254.032 98.6294Z" fill="#5A189A"/>
<path d="M268.957 104.622C263.744 108.595 262.46 115.039 262.827 116.411L254.961 113.463C255.73 110.137 262.627 104.634 268.957 104.622Z" fill="#240046"/>
<path d="M268.957 104.622C268.098 105.277 267.345 105.999 266.688 106.755C262.976 106.755 258.07 109.784 256.081 111.298C258.43 108.178 263.876 104.631 268.957 104.622Z" fill="#5A189A"/>
<path d="M135.046 144.676C126.377 144.615 119.82 150.32 119.095 152.052L113.249 142.604C116.744 139.746 128.413 139.567 135.046 144.676Z" fill="#240046"/>
<path d="M115.265 141.53C120.048 139.806 129.383 140.314 135.047 144.676C124.787 141.726 118.163 143.447 116.134 144.676L115.265 141.53Z" fill="#5A189A"/>
<path d="M131.126 132.919C122.913 130.761 114.688 134.731 113.58 136.199L110.942 125.673C114.951 123.808 126.068 126.464 131.126 132.919Z" fill="#240046"/>
<path d="M113.115 125.143C118.071 124.665 126.807 127.407 131.125 132.918C122.103 127.635 115.401 127.663 113.178 128.338L113.115 125.143Z" fill="#5A189A"/>
<path d="M124.983 117.177C118.12 116.197 112.312 120.013 111.551 121.307L107.934 113.192C111.01 111.303 120.276 112.415 124.983 117.177Z" fill="#240046"/>
<path d="M110.904 115.319C110.616 114.417 110.011 113.089 109.744 112.538C113.316 111.815 119.49 112.869 123.608 115.978C115.754 113.256 112.392 114.913 110.904 115.319Z" fill="#5A189A"/>
<path d="M118.768 104.805C112.647 105.109 108.247 109.397 107.804 110.648L103.301 104.213C105.653 102.057 113.882 101.464 118.768 104.805Z" fill="#240046"/>
<path d="M106.236 105.559C105.834 104.825 105.085 103.775 104.762 103.341C107.74 102.114 113.276 101.99 117.373 103.997C110.099 102.954 107.459 104.957 106.236 105.559Z" fill="#5A189A"/>
<path d="M110.399 92.3789C104.809 93.6038 101.42 98.2321 101.206 99.4528L96.0652 94.2231C97.8981 91.8739 105.384 90.0572 110.399 92.3789Z" fill="#240046"/>
<path d="M98.9756 95.0093C98.492 94.3955 97.6406 93.5437 97.2754 93.1945C99.8284 91.6041 104.906 90.6348 108.989 91.8496C102.13 92.0139 100.009 94.2659 98.9756 95.0093Z" fill="#5A189A"/>
<path d="M101.393 78.0187C90.9146 84.7125 90.6765 91.6985 91.8672 94.3548L85.9135 87.9797C87.1042 79.214 87.8981 82.0031 95.8364 72.839C102.187 65.5077 98.1758 56.1251 97.424 52.5186C101.393 52.5186 111.872 71.3249 101.393 78.0187Z" fill="#5A189A"/>
<path d="M101.526 78.0185C91.0476 84.7122 90.8095 91.6982 92.0002 94.3545L86.0465 87.9795C87.2372 79.2138 89.2885 82.2399 97.2268 73.0758C103.577 65.7445 99.4212 57.5675 98.6694 53.9609C102.639 53.9609 111.522 71.6331 101.526 78.0185Z" fill="#240046"/>
<path d="M101.526 78.0185C91.0475 84.7122 90.8093 91.6983 92.0001 94.3545L91.1458 93.6332C90.1664 91.4483 90.1537 86.3339 96.0118 80.8623C97.2755 79.6819 98.8124 78.4849 100.672 77.2972C107.247 73.0972 105.854 64.0142 102.864 58.2888C102.566 57.6933 102.443 57.327 102.143 56.8462L101.891 56.4038C105.722 61.4788 109.228 73.0987 101.526 78.0185Z" fill="black" fill-opacity="0.3"/>
<path d="M16.0833 82.2497C24.1981 84.6405 42.9234 84.84 51.2717 84.6409L81.7383 80.3884C91.0375 87.3432 110.049 106.167 111.702 125.823L74.0324 131.95C75.2684 125.04 68.8058 113.366 60.1155 119.443C51.4253 125.52 31.3636 125.249 22.419 124.354C21.1358 123.5 18.4822 121.385 18.1333 119.752C17.7844 118.119 20.0377 117.103 21.208 116.799L21.1008 116.776C20.4961 116.746 19.8657 116.708 19.2054 116.663C10.0507 116.041 5.93979 79.2611 16.0833 82.2497Z" fill="#9D4EDD"/>
<path d="M51.2713 88.2475C42.923 88.4466 24.1977 88.2471 16.0829 85.8563C5.93939 82.8677 10.0503 116.041 19.205 116.663L19.2078 116.663C19.5348 116.686 19.8544 116.707 20.1673 117.167C19.061 117.658 17.8726 118.533 18.1329 119.752C18.4818 121.385 21.1354 123.5 22.4186 124.354C31.3632 125.249 51.4249 125.52 60.1151 119.443C68.8054 113.366 81.484 123.511 80.2481 130.42C80.2481 130.42 89.9858 173.339 96.8383 189.568C110.183 207.24 124.97 209.765 124.97 209.765L155.625 209.765C155.625 209.765 157.429 210.486 173.658 200.749C189.888 191.011 209.724 155.306 209.724 155.306C209.724 155.306 221.626 133.666 239.658 130.421C260.216 131.863 299.527 127.175 299.527 127.175L310.328 123.546L315.396 119.24L299.527 121.765C299.527 121.765 280.773 122.092 269.232 117.42C257.691 112.748 238.576 114.912 238.576 114.912L182.675 143.765L143.363 159.634L125.42 157.109L116.314 152.06L111.702 125.823C110.049 106.167 91.0371 90.9499 81.7379 83.995L51.2713 88.2475Z" fill="#5A189A"/>
<path d="M23.8617 120.748C22.5785 119.894 19.9248 117.779 19.576 116.146C24.1087 116.004 32.092 115.649 27.7642 115.36C23.4363 115.072 21.2168 113.705 20.6481 113.057C15.5018 108.868 10.5509 97.2426 11.8546 88.3108C10.4256 93.36 9.29852 105.839 16.2231 115.36C17.3772 116.493 18.3871 117.515 18.7477 117.885C18.7049 119.568 19.4255 123.15 22.6507 124.016C26.6822 125.098 55.5347 126.18 62.7479 118.606L69.0918 118.606C68.4243 114.74 66.3684 112.473 61.5582 115.837C52.8679 121.914 32.8063 121.643 23.8617 120.748Z" fill="black" fill-opacity="0.3"/>
<path d="M78.4448 124.29C75.271 120.539 72.4338 119.361 69.789 119.962C71.5923 121.404 75.0546 126.093 74.4775 133.306C73.9005 140.519 73.2753 147.372 73.0349 149.896C73.5158 156.989 74.6218 171.536 75.1989 172.978C75.9202 174.782 77.7234 194.618 83.1333 202.191C88.5432 209.765 94.3137 216.257 101.887 220.224C109.461 224.192 130.019 227.437 140.117 227.077C150.215 226.716 166.445 223.831 178.707 214.093C190.97 204.355 202.871 189.929 206.839 183.077C210.012 177.595 222.587 157.71 228.478 148.454C231.003 145.689 238.072 139.798 246.15 138.355C256.249 136.552 255.888 136.191 264.183 135.831L264.345 135.824C272.591 135.465 281.209 135.091 292.675 132.224C304.216 129.339 312.15 126.814 316.118 124.65C319.291 122.919 324.172 117.918 326.216 115.634C295.2 134.749 264.544 128.978 245.429 130.06C230.137 130.926 218.38 142.683 214.412 148.454C208.041 159.273 191.186 184.591 174.74 199.306C158.294 214.021 134.587 211.809 124.609 210.126C111.625 206.664 97.8889 193.029 94.6743 184.519C88.5432 168.29 82.412 128.978 78.4448 124.29Z" fill="#9D4EDD"/>
<path d="M82.0303 142.386C80.3994 143.718 76.6651 146.047 74.775 144.698C75.3359 144.582 77.4787 144.78 82.0303 142.386Z" fill="black" fill-opacity="0.3"/>
<path d="M84.9085 154.977C82.7333 156.755 77.7527 159.86 75.2317 158.061C75.9798 157.907 78.8378 158.171 84.9085 154.977Z" fill="black" fill-opacity="0.3"/>
<path d="M87.664 168.04C84.8594 170.332 79.2807 173.828 76.0302 171.508C76.9947 171.31 79.8366 172.158 87.664 168.04Z" fill="black" fill-opacity="0.3"/>
<path d="M91.1885 180.194C88.4704 183.005 82.6651 187.576 78.6828 185.232C79.7162 184.929 83.2217 185.476 91.1885 180.194Z" fill="black" fill-opacity="0.3"/>
<path d="M96.3806 192.624C94.1624 195.845 88.6475 201.872 84.3338 200.216C85.3032 199.747 89.3919 199.146 96.3806 192.624Z" fill="black" fill-opacity="0.3"/>
<path d="M104.007 202.898C102.582 206.54 98.5884 213.667 94.0105 213.039C94.8473 212.361 98.6909 210.843 104.007 202.898Z" fill="black" fill-opacity="0.3"/>
<path d="M128.171 212.058C128.777 215.439 129.059 222.611 125.343 224.243C125.658 223.351 127.839 220.449 128.171 212.058Z" fill="black" fill-opacity="0.3"/>
<path d="M141.192 212.825C142.345 216.061 143.802 223.089 140.403 225.309C140.568 224.378 142.242 221.156 141.192 212.825Z" fill="black" fill-opacity="0.3"/>
<path d="M153.206 211.211C155.146 214.046 158.347 220.47 155.628 223.484C155.549 222.541 156.347 218.999 153.206 211.211Z" fill="black" fill-opacity="0.3"/>
<path d="M163.19 205.913C166.02 207.862 171.316 212.706 169.861 216.495C169.449 215.644 168.921 212.052 163.19 205.913Z" fill="black" fill-opacity="0.3"/>
<path d="M182.82 194.316C185.251 195.442 189.959 198.469 189.339 201.574C188.91 200.974 188.032 198.282 182.82 194.316Z" fill="black" fill-opacity="0.3"/>
<path d="M192.764 184.453C194.962 185.337 199.276 187.765 198.945 190.407C198.53 189.911 197.581 187.66 192.764 184.453Z" fill="black" fill-opacity="0.3"/>
<path d="M200.66 172.817C202.648 173.616 206.549 175.812 206.249 178.201C205.874 177.753 205.016 175.717 200.66 172.817Z" fill="black" fill-opacity="0.3"/>
<path d="M208.355 160.682C210.343 161.481 214.244 163.677 213.945 166.066C213.569 165.618 212.711 163.582 208.355 160.682Z" fill="black" fill-opacity="0.3"/>
<path d="M215.622 150.833C217.385 151.542 220.844 153.489 220.579 155.607C220.246 155.21 219.485 153.405 215.622 150.833Z" fill="black" fill-opacity="0.3"/>
<path d="M224.525 141.027C225.941 141.938 228.627 144.212 228.041 146.011C227.818 145.61 227.458 143.911 224.525 141.027Z" fill="black" fill-opacity="0.3"/>
<path d="M234.285 134.806C235.294 135.986 237.065 138.704 236.072 140.138C235.981 139.725 236.112 138.129 234.285 134.806Z" fill="black" fill-opacity="0.3"/>
<path d="M245.653 131.943C246.252 133.02 247.199 135.412 246.201 136.371C246.196 136.035 246.549 134.815 245.653 131.943Z" fill="black" fill-opacity="0.3"/>
<path d="M65.1005 117.437C67.7453 116.836 77.3628 121.765 79.8874 128.257C82.1135 133.981 88.5432 168.29 94.6743 184.519C97.8889 193.029 110.183 206.303 123.166 209.765C133.144 211.448 158.294 214.021 174.74 199.306C191.186 184.591 208.041 159.273 214.412 148.454C218.38 142.683 230.137 130.926 245.429 130.06C264.544 128.978 295.2 134.749 326.216 115.634" stroke="#240046" stroke-width="2.87325"/>
<path d="M72.0968 122.717C71.5425 120.931 70.9704 119.693 69.789 119.962C70.4332 120.477 71.289 121.406 72.0968 122.717C72.6535 124.511 73.1922 126.859 74.3122 128.789C74.5312 130.159 74.6086 131.667 74.4775 133.306C73.9005 140.519 73.2753 147.372 73.0349 149.896C73.5158 156.989 74.6218 171.536 75.1989 172.978C75.9202 174.782 77.7234 194.618 83.1333 202.191C88.5432 209.765 94.3137 216.257 101.887 220.224C109.461 224.192 130.019 227.437 140.117 227.077C150.215 226.716 166.445 223.831 178.707 214.093C190.97 204.355 202.871 189.929 206.839 183.077C210.012 177.595 222.587 157.71 228.478 148.454C231.003 145.689 238.072 139.798 246.15 138.355C256.249 136.552 255.888 136.191 264.183 135.831L264.345 135.824C272.591 135.465 281.209 135.091 292.675 132.224C304.216 129.339 312.15 126.814 316.118 124.65C319.291 122.919 324.172 117.918 326.216 115.634C295.2 134.749 274.642 131.142 244.527 135.831C233.166 137.599 227.937 145.027 220.544 151.339C213.15 157.65 200.563 184.952 184.117 199.667C167.671 214.382 149.406 224.983 125.691 220.224C107.42 216.558 97.4025 208.2 86.3792 193.175C71.5722 172.992 79.1661 134.749 75.1989 130.06C74.8666 129.667 74.5735 129.24 74.3122 128.789C73.9115 126.284 73.0366 124.242 72.0968 122.717Z" fill="black" fill-opacity="0.3"/>
<path d="M108.56 126.273C106.906 106.617 93.1539 92.6544 83.8547 85.6995C91.1881 88.9454 106.865 100.126 110.904 118.88C110.363 138.626 115.713 144.907 115.593 146.2C115.112 150.529 118.929 159.096 138.043 158.733C157.158 158.369 179.188 147.22 187.814 141.691L231.814 117.167L250.839 114.101L274.823 119.421C281.855 120.323 297.634 121.964 304.487 121.314C324.972 115.832 324.99 114.854 330.495 111.966C313.761 128.7 286.339 126.781 273.836 122.934C264.94 119.448 244.491 113.413 229.199 122.934C210.085 134.836 177.085 150.978 160.855 157.47C144.625 163.962 133.084 160.896 120.822 158.733C111.012 157.001 108.626 135.769 108.56 126.273Z" fill="#9D4EDD"/>
<path d="M16.083 82.25C24.1979 84.6409 42.9232 84.8404 51.2714 84.6413L81.7381 80.3887C91.0372 87.3436 110.049 106.167 111.702 125.823C111.769 135.319 114.354 154.744 124.163 156.475C136.426 158.639 144.721 160.442 160.951 153.95C177.18 147.458 207.475 131.95 226.59 120.049C241.882 110.527 263.497 115.12 272.394 118.606C284.896 122.453 314.086 125.963 330.82 109.229C329.498 113.917 321.731 124.665 301.246 130.147C280.761 135.629 268.426 136.278 264.82 135.917C255.563 135.797 234.958 138.658 226.59 151.065C218.223 163.472 208.197 180.278 204.229 187.131C196.054 199.633 173.429 225 148.328 226.442C123.226 227.885 107.333 223.196 102.524 220.672C96.7536 217.907 82.0388 207.688 77.9994 188.934C73.9601 170.18 73.1906 154.672 73.3109 149.262L74.3929 131.59C74.3929 124.016 68.8055 113.366 60.1153 119.444C51.425 125.521 31.3633 125.25 22.4188 124.354C21.1356 123.501 18.4819 121.385 18.1331 119.752C17.7842 118.119 20.0375 117.103 21.2077 116.8L21.1006 116.777C20.4959 116.746 19.8654 116.708 19.2052 116.663C10.0504 116.041 5.93954 79.2615 16.083 82.25Z" stroke="#240046" stroke-width="2.87325"/>
<path d="M66.7824 117.133L68.1597 107.833L61.8055 109.484L66.7824 117.133Z" fill="white"/>
<path d="M66.4925 115.597L66.7891 112.162L66.2171 113.732L63.5175 109.471L62.6295 109.594L66.4925 115.597Z" fill="black" fill-opacity="0.3"/>
<path d="M66.7824 117.133L68.1597 107.833L61.8055 109.484L66.7824 117.133Z" stroke="#240046" stroke-width="1.43662"/>
<path d="M74.1904 115.434L74.8169 106.054L68.6157 108.209L74.1904 115.434Z" fill="white"/>
<path d="M73.7873 113.841L73.8073 110.393L73.3632 112.003L70.3304 107.973L69.4551 108.167L73.7873 113.841Z" fill="black" fill-opacity="0.3"/>
<path d="M74.1904 115.434L74.8169 106.054L68.6157 108.209L74.1904 115.434Z" stroke="#240046" stroke-width="1.43662"/>
<path d="M81.5864 113.109V103.011L75.0946 105.765L81.5864 113.109Z" fill="white"/>
<path d="M81.1133 111.565L80.8879 107.868L80.5272 109.626L76.9883 105.524L76.0641 105.794L81.1133 111.565Z" fill="black" fill-opacity="0.3"/>
<path d="M81.5864 113.109V103.011L75.0946 105.765L81.5864 113.109Z" stroke="#240046" stroke-width="1.43662"/>
<path d="M82.9443 99.4912C82.089 101.348 75.6277 106.744 55.224 111.064C35.0518 115.335 31.825 117.268 20.9216 116.78" stroke="#240046" stroke-width="2.87325"/>
<path d="M25.7139 97.5822C27.3235 93.2729 24.2419 92.5516 22.2755 91.579C22.2755 91.579 22.9085 91.0004 24.2419 90.9433C26.5564 90.8442 31.1335 91.4116 27.3235 96.5376C26.507 97.6361 25.7139 97.5822 25.7139 97.5822Z" fill="#240046"/>
<path d="M59.6352 78.7617C59.7666 83.1918 63.0778 86.4325 66.741 86.3238C70.4042 86.2152 73.5176 82.784 73.3862 78.3539C73.2548 73.9239 69.9436 70.6832 66.2804 70.7918C62.6172 70.9005 59.5039 74.3317 59.6352 78.7617Z" fill="white" stroke="#240046" stroke-width="2.87325"/>
<ellipse rx="2.37575" ry="4.15756" transform="matrix(-0.999561 0.0296415 0.0296415 0.999561 64.8813 79.106)" fill="black"/>
<path d="M66.2378 69.3558C70.8281 69.2197 74.6715 73.2292 74.8222 78.3114C74.8362 78.7837 74.8178 79.2486 74.7693 79.7036L58.1962 78.3222C58.2784 73.4573 61.7935 69.4876 66.2378 69.3558Z" fill="#9D4EDD"/>
<path d="M60.8235 77.0437C61.9756 74.6383 63.9517 73.0301 66.2393 72.9622C68.9596 72.8816 71.3694 75.0016 72.534 78.1257L60.8235 77.0437Z" fill="#5A189A"/>
<path d="M59.7566 77.0106L73.3777 78.146C73.1507 73.8229 69.8861 70.6849 66.2804 70.7918C63.1157 70.8857 60.3655 73.4538 59.7566 77.0106Z" stroke="#240046" stroke-width="2.87325"/>
<path d="M180.14 243.362C179.592 241.307 179.314 240.598 179.607 240.428L185.92 244.215C185.576 247.659 187.466 250.486 190.928 252.821C184.64 252.946 180.76 245.689 180.14 243.362Z" fill="#240046"/>
<path d="M184.096 242.838C183.548 240.782 185.241 243.624 185.533 243.454L185.921 244.215C185.576 247.66 187.466 250.486 190.929 252.821C185.31 249.754 184.716 245.164 184.096 242.838Z" fill="#5A189A"/>
<path d="M180.14 243.362C179.592 241.307 179.315 240.598 179.607 240.428L180.287 241.085C182.345 249.815 187.452 251.566 190.928 252.821C184.64 252.946 180.76 245.689 180.14 243.362Z" fill="#190031"/>
<path d="M175.474 244.34C175.351 242.216 175.222 241.466 175.542 241.359L178.843 243.306L180.965 246.338C179.935 249.643 181.217 252.792 184.14 255.775C177.955 254.633 175.614 246.744 175.474 244.34Z" fill="#240046"/>
<path d="M179.455 244.621C179.332 242.498 180.418 245.622 180.739 245.515L180.965 246.338C179.935 249.643 181.217 252.792 184.14 255.776C179.253 251.641 179.594 247.025 179.455 244.621Z" fill="#5A189A"/>
<path d="M175.474 244.34C175.351 242.216 175.222 241.466 175.543 241.359L176.077 242.139C176.336 251.104 180.987 253.847 184.14 255.775C177.955 254.633 175.614 246.744 175.474 244.34Z" fill="#190031"/>
<path d="M170.592 242.433C171.115 240.371 171.218 239.618 171.557 239.612L174.115 242.465L175.223 245.996C173.243 248.835 173.515 252.225 175.4 255.951C169.849 252.995 169.999 244.767 170.592 242.433Z" fill="#240046"/>
<path d="M174.302 243.903C174.825 241.841 174.918 245.148 175.256 245.142L175.223 245.995C173.244 248.835 173.515 252.224 175.4 255.951C171.99 250.534 173.709 246.237 174.302 243.903Z" fill="#5A189A"/>
<path d="M170.592 242.433C171.115 240.371 171.218 239.618 171.557 239.612L171.83 240.517C169.371 249.142 172.976 253.161 175.4 255.951C169.849 252.995 169.999 244.767 170.592 242.433Z" fill="#190031"/>
<path d="M165.359 187.576C167.042 184.571 168.821 177.911 162.474 175.314C156.126 172.717 150.933 176.396 149.13 178.56C147.086 180.483 139.54 188.775 144.445 201.47C149.35 214.165 173.774 213.423 183.031 212.101C182.07 213.183 180.29 216.717 180.867 222.199C181.444 227.681 174.214 237.881 171.449 242.45C172.531 241.969 176.828 241.819 177.982 243.839C179.785 242.036 180.146 242.036 181.589 244.199C182.19 243.238 183.681 241.675 184.835 243.118C184.835 239.15 185.195 238.429 186.277 235.544C188.922 231.817 194.572 222.776 196.015 216.429C198.179 210.658 198.179 210.298 198.179 209.576C198.299 208.374 195.654 206.331 190.605 205.609C185.556 204.888 175.939 196.352 172.572 192.265C171.115 190.898 167.723 188.454 163.655 187.225C164.301 187.351 164.888 187.473 165.359 187.576Z" fill="#5A189A"/>
<path d="M186.462 226.536C188.698 223.578 192.503 212.56 194.125 207.421L198.453 208.323L193.675 222.208L186.011 236.364L185.019 241.683C183.696 243.186 180.962 245.506 180.601 242.765H178.843L172.892 241.954C172.441 241.338 171.909 240.087 173.388 240.015C174.866 239.943 175.987 240.263 176.363 240.432C178.635 239.72 180.211 240.135 180.715 240.432C181.391 236.241 184.169 229.568 186.462 226.536Z" fill="black" fill-opacity="0.3"/>
<path d="M186.101 210.397C162.586 210.541 151.388 206.61 143.453 194.708C144.535 210.397 160.735 212.08 168.789 212.02C172.396 212.921 178.617 212.02 186.101 210.397Z" fill="black" fill-opacity="0.3"/>
<path d="M174.289 197.503C168.952 189.785 158.481 188.337 153.912 188.577L156.437 186.684L167.707 189.118L179.789 199.307L191.24 206.069C187.814 206.43 179.627 205.221 174.289 197.503Z" fill="#9D4EDD"/>
<path d="M165.359 187.576C165.764 186.853 166.175 185.919 166.476 184.88M153.822 187.576C154.908 186.683 155.986 186.314 159.589 186.494C165.359 186.783 170.649 190.462 172.572 192.265C175.939 196.352 185.556 204.888 190.605 205.609C195.654 206.33 198.299 208.374 198.179 209.576C198.179 210.298 198.179 210.658 196.015 216.429C194.572 222.776 188.922 231.817 186.277 235.544C185.195 238.429 184.835 239.15 184.835 243.117C183.396 242.757 181.469 243.238 180.867 244.199C179.425 242.035 177.621 242.035 175.818 243.839C174.664 241.819 172.17 242.035 171.13 242.035C173.895 237.467 181.444 227.681 180.867 222.199C180.29 216.717 182.07 213.183 183.031 212.101C173.774 213.423 149.35 214.165 144.445 201.47C139.54 188.775 147.086 180.483 149.13 178.56C149.485 178.133 149.973 177.647 150.576 177.162" stroke="#240046" stroke-width="2.87325" stroke-linecap="round"/>
<path d="M71.897 80.9253C72.0283 85.3553 75.3395 88.596 79.0027 88.4874C82.666 88.3788 85.7793 84.9476 85.6479 80.5175C85.5166 76.0875 82.2054 72.8468 78.5421 72.9554C74.8789 73.064 71.7656 76.4953 71.897 80.9253Z" fill="white" stroke="#240046" stroke-width="2.87325"/>
<ellipse rx="2.37575" ry="4.15756" transform="matrix(-0.999561 0.0296415 0.0296415 0.999561 77.1431 81.2696)" fill="black"/>
<path d="M78.4996 71.5194C83.0899 71.3833 86.9332 75.3928 87.0839 80.4749C87.0979 80.9472 87.0795 81.4122 87.031 81.8672L70.4579 80.4858C70.5402 75.6209 74.0552 71.6512 78.4996 71.5194Z" fill="#9D4EDD"/>
<path d="M73.0852 79.2073C74.2373 76.8019 76.2134 75.1937 78.501 75.1258C81.2213 75.0451 83.6311 77.1652 84.7957 80.2892L73.0852 79.2073Z" fill="#5A189A"/>
<path d="M72.0183 79.1742L85.6394 80.3096C85.4124 75.9865 82.1478 72.8485 78.5421 72.9554C75.3775 73.0493 72.6272 75.6173 72.0183 79.1742Z" stroke="#240046" stroke-width="2.87325"/>
<path d="M69.4201 193.237C71.7656 193.041 72.5911 192.877 72.7194 193.229L67.3632 199.367C63.6791 198.32 60.2316 199.826 57.013 203.142C58.1038 196.269 66.7648 193.458 69.4201 193.237Z" fill="#240046"/>
<path d="M69.2197 197.648C71.5651 197.453 68.1394 198.742 68.2677 199.094L67.363 199.367C63.679 198.32 60.2314 199.826 57.0128 203.142C61.4494 197.621 66.5644 197.869 69.2197 197.648Z" fill="#5A189A"/>
<path d="M69.4201 193.237C71.7656 193.041 72.5911 192.877 72.7194 193.229L71.8709 193.842C61.9613 194.379 59.0584 199.6 57.013 203.142C58.1038 196.269 66.7648 193.458 69.4201 193.237Z" fill="#190031"/>
<path d="M68.3459 187.098C70.6964 187.217 71.5364 187.164 71.6167 187.53L69.0788 190.927L65.4898 192.898C61.9783 191.369 58.3605 192.403 54.7285 195.259C56.7262 188.593 65.6848 186.963 68.3459 187.098Z" fill="#240046"/>
<path d="M67.559 191.443C69.9095 191.562 66.3424 192.382 66.4226 192.748L65.4896 192.899C61.9781 191.369 58.3604 192.403 54.7284 195.26C59.8617 190.379 64.8979 191.308 67.559 191.443Z" fill="#5A189A"/>
<path d="M68.3459 187.098C70.6964 187.217 71.5364 187.164 71.6167 187.53L70.6941 188.024C60.8013 187.235 57.228 192.022 54.7285 195.259C56.7262 188.593 65.6848 186.963 68.3459 187.098Z" fill="#190031"/>
<path d="M68.9145 181.343C71.7555 181.442 72.7782 181.382 72.847 181.75L69.5049 185.197L64.9992 187.216C60.8604 185.705 56.3931 186.778 51.7663 189.69C54.7082 182.951 65.6982 181.23 68.9145 181.343Z" fill="#240046"/>
<path d="M67.6218 185.73C70.4628 185.83 66.0734 186.688 66.1421 187.056L64.9991 187.216C60.8602 185.704 56.3929 186.778 51.7661 189.69C58.371 184.725 64.4055 185.617 67.6218 185.73Z" fill="#5A189A"/>
<path d="M68.9145 181.343C71.7555 181.442 72.7782 181.382 72.847 181.75L71.6898 182.256C59.7554 181.547 55.0494 186.404 51.7663 189.69C54.7082 182.951 65.6982 181.23 68.9145 181.343Z" fill="#190031"/>
<path d="M118.828 215.232C125.123 196.235 120.247 179.59 117.022 173.643L99.1396 176.918C101.776 179.319 102.389 186.585 105.212 191.109C103.742 196.698 104.316 203.551 104.787 206.279C99.6174 206.962 92.0401 204.978 85.7444 199.754C79.8699 186.845 71.172 181.612 67.5574 180.61L69.3187 198.078L72.849 199.907L84.4732 206.28C93.3016 217.18 112.532 234.229 118.828 215.232Z" fill="#5A189A"/>
<path d="M112.978 213.642C116.801 210.18 119.35 203.965 119.741 197.142C121.544 207.691 119.65 209.675 117.306 216.978C116.512 223.11 112.407 223.681 110.453 223.2C99.2729 220.946 86.2893 209.585 83.404 205.618C79.0739 204.827 75.2883 201.561 73.9368 200.028L70.9614 199.306C69.3685 198.525 66.904 196.908 69.7892 196.691C72.6745 196.475 74.8985 197.323 75.6499 197.773C77.7237 200.569 78.2647 200.208 86.2893 204.175C97.1811 215.067 106.155 218.631 109.281 219.052C108.921 218.692 115.863 220.495 112.978 213.642Z" fill="black" fill-opacity="0.3"/>
<path d="M73.2153 186.052C71.2678 183.96 69.4585 184.038 68.7973 184.339L68.0759 184.339L68.7973 180.462L77.0022 186.683C78.4448 188.607 80.8252 192.075 78.8055 190.56C76.7858 189.046 74.2372 186.924 73.2153 186.052Z" fill="#9D4EDD"/>
<path d="M67.1682 180.776L66.3178 181.934C65.8435 181.585 65.6296 180.983 65.778 180.413C65.9265 179.844 66.4074 179.422 66.9915 179.35L67.1682 180.776ZM82.0959 194.049L80.8466 194.758L80.8466 194.758L82.0959 194.049ZM106.033 206.977L107.457 206.785C107.512 207.195 107.388 207.609 107.116 207.921C106.844 208.233 106.451 208.413 106.037 208.414L106.033 206.977ZM117.615 215.611L116.179 215.631L116.174 215.292L116.321 214.987L117.615 215.611ZM113.265 223.344L112.931 221.947C112.986 221.934 113.041 221.924 113.097 221.917L113.265 223.344ZM96.6693 217.957L95.9327 219.191L95.9327 219.191L96.6693 217.957ZM84.0829 205.594L84.4491 204.205C84.9576 204.339 85.3522 204.74 85.4779 205.251L84.0829 205.594ZM73.6265 199.652L74.5675 198.567L74.8429 198.806L74.9712 199.147L73.6265 199.652ZM68.1911 194.257L67.4169 195.467C67.0297 195.219 66.7844 194.801 66.757 194.343C66.7296 193.884 66.9234 193.439 67.2784 193.147L68.1911 194.257ZM70.0128 192.584L70.22 191.163L70.364 191.184L70.5009 191.233L70.0128 192.584ZM65.7364 186.335L65.6965 187.771L65.5352 184.912L65.7364 186.335ZM71.9453 189.021L72.7036 187.801C73.2857 188.163 73.5312 188.885 73.2901 189.527C73.049 190.168 72.3883 190.55 71.7121 190.439L71.9453 189.021ZM67.0445 192.152L66.8373 193.573C66.4168 193.512 66.045 193.268 65.8218 192.906C65.5987 192.545 65.5471 192.103 65.6809 191.699L67.0445 192.152ZM67.0973 188.246L66.7185 189.631L67.3269 186.828L67.0973 188.246ZM68.5458 198.615L67.1124 198.711C67.0932 198.423 67.1611 198.136 67.3074 197.887L68.5458 198.615ZM116.237 178.819C116.013 178.058 116.45 177.26 117.211 177.036C117.972 176.813 118.771 177.249 118.994 178.011L116.237 178.819ZM105.525 190.637L106.745 189.878L107.058 190.383L106.924 190.962L105.525 190.637ZM98.9744 180.516C98.7154 179.766 99.1133 178.948 99.8632 178.689C100.613 178.43 101.431 178.828 101.69 179.578L98.9744 180.516ZM66.9915 179.35C69.3904 179.053 72.0782 180.11 74.7877 182.354C77.519 184.616 80.4296 188.205 83.3451 193.34L80.8466 194.758C78.0381 189.813 75.3327 186.536 72.955 184.567C70.5557 182.58 68.6416 182.041 67.3449 182.201L66.9915 179.35ZM83.3451 193.34C86.0057 198.025 90.3329 201.085 94.7339 202.979C99.1437 204.877 103.503 205.547 106.029 205.54L106.037 208.414C103.11 208.422 98.3627 207.669 93.5982 205.618C88.8248 203.564 83.91 200.153 80.8466 194.758L83.3451 193.34ZM119.052 215.591C119.094 218.621 118.472 220.829 117.393 222.35C116.294 223.898 114.81 224.609 113.433 224.771L113.097 221.917C113.722 221.844 114.453 221.528 115.049 220.688C115.664 219.821 116.216 218.28 116.179 215.631L119.052 215.591ZM113.6 224.741C112.366 225.036 110.187 224.965 107.285 224.207C104.332 223.436 100.508 221.923 95.9327 219.191L97.4059 216.724C101.781 219.336 105.354 220.733 108.011 221.427C110.718 222.134 112.362 222.083 112.931 221.947L113.6 224.741ZM95.9327 219.191C91.3494 216.454 88.2039 213.748 86.1272 211.443C84.083 209.175 83.0014 207.211 82.6879 205.938L85.4779 205.251C85.6305 205.871 86.3669 207.417 88.2618 209.52C90.1242 211.587 93.0388 214.116 97.4059 216.724L95.9327 219.191ZM83.7166 206.983C81.7495 206.465 79.3338 205.804 77.2382 204.812C75.1783 203.836 73.1247 202.4 72.2817 200.158L74.9712 199.147C75.4125 200.321 76.6098 201.335 78.4683 202.215C80.2912 203.079 82.4616 203.681 84.4491 204.205L83.7166 206.983ZM67.2784 193.147C67.8344 192.69 68.4562 192.416 68.9591 192.24C69.4351 192.072 69.9596 191.946 70.1461 191.893C70.3049 191.848 70.2475 191.853 70.1392 191.915C70.0946 191.941 69.8384 192.086 69.66 192.419C69.5579 192.609 69.4897 192.846 69.4982 193.111C69.5066 193.369 69.5853 193.578 69.6664 193.724C69.809 193.982 69.9911 194.106 70.012 194.121C70.0568 194.152 70.0746 194.158 70.0356 194.139C69.9592 194.102 69.8042 194.037 69.5246 193.936L70.5009 191.233C70.805 191.343 71.0774 191.45 71.2964 191.557C71.4052 191.61 71.5377 191.681 71.6673 191.772C71.7729 191.847 72.0097 192.025 72.1801 192.333C72.4025 192.734 72.4602 193.277 72.1918 193.777C71.9901 194.153 71.6866 194.339 71.5739 194.404C71.3292 194.545 71.0515 194.623 70.9302 194.658C70.1946 194.866 69.5563 194.994 69.1038 195.366L67.2784 193.147ZM68.0185 179.618C68.7717 180.171 69.1155 181.027 69.2598 181.748C69.4105 182.502 69.3914 183.329 69.2349 184.103C68.9502 185.509 68.0085 187.464 65.9376 187.757L65.5352 184.912C65.7393 184.883 66.2087 184.57 66.4188 183.532C66.5096 183.084 66.5089 182.645 66.4422 182.311C66.3691 181.945 66.26 181.891 66.3178 181.934L68.0185 179.618ZM65.7763 184.899C67.4145 184.944 68.8577 185.513 70.0133 186.126C71.1111 186.709 72.1767 187.474 72.7036 187.801L71.1871 190.242C70.3808 189.741 69.6735 189.199 68.666 188.664C67.7161 188.16 66.7215 187.799 65.6965 187.771L65.7763 184.899ZM65.6809 191.699C65.7901 191.37 65.9702 190.951 66.1004 190.631C66.2483 190.268 66.3723 189.942 66.4496 189.655C66.5341 189.342 66.5181 189.231 66.5218 189.251C66.5274 189.281 66.5511 189.372 66.6308 189.475C66.7146 189.583 66.8099 189.639 66.8628 189.66L67.9309 186.992C68.7617 187.325 69.2134 188.003 69.3473 188.729C69.4612 189.347 69.3436 189.959 69.2238 190.403C69.0969 190.874 68.9139 191.34 68.7613 191.715C68.5911 192.133 68.4772 192.396 68.408 192.604L65.6809 191.699ZM66.8628 189.66C66.8865 189.669 66.8909 189.668 66.8678 189.664L67.3269 186.828C67.5287 186.86 67.7321 186.913 67.9309 186.992L66.8628 189.66ZM67.4762 186.86C67.5753 186.887 67.6705 186.913 67.7622 186.937L67.0315 189.715C66.9304 189.689 66.8262 189.661 66.7185 189.631L67.4762 186.86ZM67.7622 186.937C68.877 187.23 69.4725 187.313 69.9991 187.363C70.5382 187.414 71.1841 187.44 72.1786 187.604L71.7121 190.439C70.8473 190.297 70.4052 190.287 69.7281 190.223C69.0385 190.158 68.2893 190.046 67.0315 189.715L67.7622 186.937ZM72.6854 200.738C72.8427 200.874 72.9502 200.88 72.8146 200.842C72.7182 200.814 72.5635 200.783 72.3395 200.752C71.8875 200.69 71.3357 200.651 70.7235 200.603C70.1543 200.559 69.5025 200.505 68.984 200.404C68.7348 200.355 68.4073 200.276 68.1074 200.127C67.8734 200.01 67.1721 199.605 67.1124 198.711L69.9793 198.519C69.9564 198.177 69.8023 197.921 69.6613 197.767C69.5358 197.631 69.4189 197.57 69.3896 197.556C69.3377 197.53 69.3608 197.55 69.5341 197.584C69.8606 197.647 70.3413 197.691 70.9465 197.738C71.5088 197.782 72.1732 197.829 72.7336 197.906C73.0159 197.945 73.3164 197.998 73.5935 198.076C73.8315 198.143 74.2308 198.275 74.5675 198.567L72.6854 200.738ZM67.3074 197.887C67.4377 197.665 67.6297 197.046 67.6299 196.377C67.63 195.651 67.419 195.468 67.4169 195.467L68.9653 193.047C70.2493 193.868 70.5033 195.376 70.5031 196.378C70.5029 197.438 70.2292 198.586 69.7843 199.343L67.3074 197.887ZM69.8056 194.006L66.8373 193.573L67.2516 190.73L70.22 191.163L69.8056 194.006ZM116.321 214.987C119.367 208.673 121.494 196.746 116.237 178.819L118.994 178.011C124.403 196.456 122.331 209.141 118.909 216.235L116.321 214.987ZM104.609 207.169C104.13 203.611 102.43 197.621 104.125 190.313L106.924 190.962C105.384 197.602 106.92 202.803 107.457 206.785L104.609 207.169ZM104.305 191.396C102.191 187.998 101.212 186.342 100.585 184.987C99.9623 183.64 99.6747 182.543 98.9744 180.516L101.69 179.578C102.467 181.825 102.651 182.608 103.193 183.781C103.731 184.945 104.609 186.446 106.745 189.878L104.305 191.396Z" fill="#240046"/>
<path d="M231.724 88.4041C232.157 71.9581 251.981 66.8849 261.839 66.404C241.221 61.7155 189.455 57.2433 147.33 76.8631C140.15 80.2071 123.647 93.8139 138.133 90.027C143.663 105.956 153.425 140.411 148.232 150.798C163.199 129.699 183.095 114.311 195.838 113.109C201.248 98.8631 210.625 89.6664 231.724 88.4041Z" fill="#9D4EDD"/>
<path d="M261.839 66.4038C251.981 66.8847 232.157 71.9579 231.724 88.4039C210.625 89.6662 201.248 98.8629 195.838 113.109C183.095 114.311 162.297 130.601 142.822 158.191" stroke="#240046" stroke-width="2.87325" stroke-linecap="round" stroke-linejoin="round"/>
<path d="M147.92 106.442C145.969 94.0713 165.318 96.0042 175.236 98.5169C165.48 80.5798 191.82 78.5438 206.21 79.7679C191.186 72.8095 209.218 65.9156 220.112 63.3384L156.944 71.4565L135.969 87.3062C140.766 98.8391 149.871 118.812 147.92 106.442Z" fill="black" fill-opacity="0.3"/>
<path d="M143.363 143.945C142.353 153.899 125.751 160.355 117.576 162.339L131.101 168.83C139.756 163.493 146.969 154.224 151.117 143.945C155.445 121.945 142.371 97.9613 137.773 87.8629C152.199 85.6989 181.412 103.431 194.216 112.568C183.847 97.5104 159.412 85.3383 142.371 83.4448C159.394 76.953 212.789 84.3014 227.171 86.6006C205.531 79.6579 183.396 71.6333 145.888 78.1251C187.435 63.1218 240.62 63.6989 262.019 65.8628C251.055 58.2169 220.063 57.5076 205.937 58.1087C174.56 60.7535 140.838 65.5021 126.953 84.076C142.101 102.109 144.625 131.502 143.363 143.945Z" fill="#5A189A"/>
<path d="M205.937 58.1087C174.56 60.7535 142.371 65.1866 128.486 83.7604C128.486 83.7604 128.689 85.3157 129.478 86.0596C134.797 85.6088 131.822 80.9202 131.822 80.9202C155.575 63.5386 210.202 58.9501 236.278 59.0052C225.055 57.8374 213.241 57.7979 205.937 58.1087Z" fill="#9D4EDD"/>
<path d="M254.445 62.6167C189.96 59.4429 154.483 71.032 144.806 77.2233C143.844 77.8244 144.842 78.0889 156.527 74.338C168.212 70.5872 204.915 66.5238 221.806 64.9609C259.555 65.5019 257.691 64.9609 254.445 62.6167Z" fill="black" fill-opacity="0.3"/>
<path d="M117.576 162.339C125.751 160.355 142.353 153.899 143.363 143.945C144.625 131.502 142.101 102.109 126.953 84.076C133.445 84.3915 128.773 81.7997 129.795 80.7403C145.06 64.9146 176.528 60.5876 205.937 58.1087C220.063 57.5076 251.055 58.2169 262.019 65.8628C240.62 63.6989 187.435 63.1218 145.888 78.1251C183.396 71.6333 209.904 80.9202 231.544 87.8629C217.162 85.5637 159.394 76.953 142.371 83.4448C159.412 85.3383 185.47 98.2318 195.838 113.289C183.035 104.153 152.199 85.6989 137.773 87.8629C142.371 97.9613 155.445 121.945 151.117 143.945C146.969 154.224 139.756 163.493 131.101 168.83" stroke="#240046" stroke-width="2.87325" stroke-linecap="round" stroke-linejoin="round"/>
<path d="M124.586 82.223C126.013 84.3814 126.063 84.8113 126.843 85.0767C127.623 85.342 129.745 84.8397 130.854 83.8481C132.224 82.6241 130.803 80.3027 130.803 80.3027C127.294 77.8373 122.429 70.4242 122.052 64.7485C119.093 72.6382 122.97 79.7795 124.586 82.223Z" fill="#240046"/>
<path d="M125.856 74.7049C123.868 71.6186 122.262 67.9134 122.051 64.7485C120.391 69.1755 120.883 73.3668 121.92 76.6248C121.485 73.1943 121.527 69.5166 125.856 74.7049Z" fill="#5A189A"/>
<defs>
<filter id="filter0_d" x="49.5768" y="40.4416" width="79.9698" height="79.9698" filterUnits="userSpaceOnUse" color-interpolation-filters="sRGB">
<feFlood flood-opacity="0" result="BackgroundImageFix"/>
<feColorMatrix in="SourceAlpha" type="matrix" values="0 0 0 0 0 0 0 0 0 0 0 0 0 0 0 0 0 0 127 0"/>
<feOffset/>
<feGaussianBlur stdDeviation="5.74649"/>
<feColorMatrix type="matrix" values="0 0 0 0 1 0 0 0 0 1 0 0 0 0 1 0 0 0 0.4 0"/>
<feBlend mode="normal" in2="BackgroundImageFix" result="effect1_dropShadow"/>
<feBlend mode="normal" in="SourceGraphic" in2="effect1_dropShadow" result="shape"/>
</filter>
<filter id="filter1_d" x="62.5242" y="53.3894" width="54.0745" height="54.0745" filterUnits="userSpaceOnUse" color-interpolation-filters="sRGB">
<feFlood flood-opacity="0" result="BackgroundImageFix"/>
<feColorMatrix in="SourceAlpha" type="matrix" values="0 0 0 0 0 0 0 0 0 0 0 0 0 0 0 0 0 0 127 0"/>
<feOffset/>
<feGaussianBlur stdDeviation="1.43662"/>
<feColorMatrix type="matrix" values="0 0 0 0 1 0 0 0 0 1 0 0 0 0 1 0 0 0 0.2 0"/>
<feBlend mode="normal" in2="BackgroundImageFix" result="effect1_dropShadow"/>
<feBlend mode="normal" in="SourceGraphic" in2="effect1_dropShadow" result="shape"/>
</filter>
<radialGradient id="paint0_radial" cx="0" cy="0" r="1" gradientUnits="userSpaceOnUse" gradientTransform="translate(228.657 83.6724) rotate(143.295) scale(251.018)">
<stop stop-color="#3E3E70" stop-opacity="0.46"/>
<stop offset="1" stop-color="#3E3E70" stop-opacity="0"/>
</radialGradient>
</defs>
</svg>
