<svg xmlns="http://www.w3.org/2000/svg" viewBox="0 0 103.92 80.74"><defs><style>.cls-1{fill:#b53b3b;stroke-width:1.04px;}.cls-1,.cls-2,.cls-3,.cls-4,.cls-5,.cls-6,.cls-7{stroke:#0f0f0f;stroke-miterlimit:10;}.cls-1,.cls-7{stroke-linecap:round;}.cls-2,.cls-3,.cls-4,.cls-5,.cls-6{fill:#fffce8;}.cls-2{stroke-width:1.15px;}.cls-3{stroke-width:1.1px;}.cls-4{stroke-width:1.23px;}.cls-5{stroke-width:1.08px;}.cls-6{stroke-width:1.01px;}.cls-7{fill:none;stroke-width:1.47px;}</style></defs><g id="bottom"><path class="cls-1" d="M2.51,47.82a19.71,19.71,0,0,0,0,16C6.05,72.15,4.78,78.54,6,79S41.87,67.26,98.92,80.1c1,.23.18-1.9.58-3.53S103,67,103,62.68s-3.52-8.12-3.52-8.12S68,31,2.51,47.82Z"/><path class="cls-2" d="M20.05,52.78S16.77,71.57,6.28,57.37,7.65,13,11.09,8.43C13.23,5.58,14.91,5,14.91,5s2.53-1.17,3.73,13.82C19.88,34.24,20.72,50.07,20.05,52.78Z"/><path class="cls-2" d="M30.65,46.26s-.85-10.11-1.81-12S26.51,31,24.46,31s-3.63,2.53-3.63,2.53-.93,2.39-.75,7.39,3.35,10.2,3.35,10.2,3.7,4.38,5.55,1S30.67,46.67,30.65,46.26Z"/><path class="cls-2" d="M39.91,45.73S39.85,35.59,39,33.67,37,30.06,34.93,30.06a4.53,4.53,0,0,0-3.81,2.24S30,34.61,29.78,39.6,32.33,50,32.33,50s3.35,4.65,5.45,1.39S39.9,46.14,39.91,45.73Z"/><path class="cls-3" d="M49.14,45.13s0-10.14-.72-12.05-1.85-3.58-3.73-3.59a4.08,4.08,0,0,0-3.5,2.27,22.22,22.22,0,0,0-1.26,7.31c-.24,5,2.26,10.4,2.26,10.4s3,4.63,5,1.35S49.13,45.54,49.14,45.13Z"/><path class="cls-4" d="M60.66,44.8s-.17-10.16-1.1-12.08-2.36-3.66-4.68-3.66a4.82,4.82,0,0,0-4.29,2.2s-1.24,2.3-1.43,7.3,3,10.46,3,10.46,3.49,4.42,6.17,1.44A8.55,8.55,0,0,0,60.66,44.8Z"/><path class="cls-5" d="M71,44.77s-.16-8.91-1-10.61S67.87,31,65.82,31A4.48,4.48,0,0,0,62,32.88s-1.09,2-1.26,6.41,2.65,9.19,2.65,9.19,3.38,4.12,5.46,1.27S70.94,45.13,71,44.77Z"/><path class="cls-6" d="M80.67,43.88s-.2-8.07-1-9.61a4.72,4.72,0,0,0-4-2.93A4.35,4.35,0,0,0,72,33.07a13.65,13.65,0,0,0-1.18,5.8c-.14,4,2.59,8.33,2.59,8.33S76.71,51,78.7,48.37,80.66,44.21,80.67,43.88Z"/><path class="cls-6" d="M84.25,53.4s-5.75-9.21-2.42-24.34c4-18.24,2.52-27.58,3-28s6.81.3,14.07,24.66-2.57,34.2-2.57,34.2S90.46,65.18,84.25,53.4Z"/><path class="cls-7" d="M31.09,47.82a23.68,23.68,0,0,0,.1,8.91"/><path class="cls-7" d="M21.21,47.05a48.34,48.34,0,0,0,.64,10.58"/><path class="cls-7" d="M40.71,45.25s-.43,8.65.92,13.63"/><path class="cls-7" d="M49.57,43.72s.71,10.79,1.42,13"/><path class="cls-7" d="M61.17,44.2s.23,8.28,1,10"/><path class="cls-7" d="M71.56,43.72s.08,7.79-.61,9.68"/><path class="cls-7" d="M80.8,44.44s.31,10.12.72,12.75"/></g></svg>