<svg width="282" height="189" viewBox="0 0 282 189" fill="none" xmlns="http://www.w3.org/2000/svg">
<mask id="mask0" mask-type="alpha" maskUnits="userSpaceOnUse" x="-1" y="10" width="283" height="178">
<path d="M52.2978 113.667C54.1581 112.98 54.7914 112.66 54.9746 112.918L52.0043 119.123C48.7783 119.1 46.3176 121.103 44.4491 124.528C43.7913 118.685 50.1918 114.446 52.2978 113.667Z" fill="#B53B3B"/>
<path d="M53.1258 117.305C54.9861 116.617 52.4942 118.439 52.6773 118.696L52.0043 119.123C48.778 119.1 46.3171 121.104 44.4485 124.529C46.8109 119.033 51.0196 118.083 53.1258 117.305Z" fill="#B53B3B"/>
<path d="M52.2978 113.667C54.1581 112.98 54.7914 112.66 54.9746 112.918L54.4233 113.608C46.4989 116.278 45.3144 121.183 44.4491 124.528C43.7913 118.685 50.1918 114.446 52.2978 113.667Z" fill="#B53B3B"/>
<path d="M50.0468 108.909C51.9819 108.477 52.6521 108.245 52.7993 108.525L51.5017 111.863L49.0306 114.277C45.8364 113.822 43.1313 115.479 40.8242 118.623C40.9491 112.744 47.8562 109.399 50.0468 108.909Z" fill="#B53B3B"/>
<path d="M50.3834 112.625C52.3184 112.192 49.6068 113.664 49.754 113.944L49.0303 114.277C45.8361 113.822 43.131 115.479 40.8238 118.623C43.8956 113.493 48.1927 113.114 50.3834 112.625Z" fill="#B53B3B"/>
<path d="M50.0468 108.909C51.9819 108.477 52.6521 108.245 52.7993 108.525L52.1612 109.135C43.9526 110.721 42.1264 115.424 40.8241 118.623C40.9491 112.744 47.8562 109.399 50.0468 108.909Z" fill="#B53B3B"/>
<path d="M49.2161 104.095C51.545 103.536 52.3618 103.257 52.5002 103.541L50.561 107.101L47.3563 109.76C43.6568 109.461 40.271 111.342 37.1686 114.755C38.0438 108.605 46.5796 104.728 49.2161 104.095Z" fill="#B53B3B"/>
<path d="M49.1512 107.96C51.48 107.401 48.1092 109.089 48.2477 109.373L47.3556 109.761C43.656 109.462 40.2702 111.342 37.1678 114.756C41.4151 109.225 46.5147 108.592 49.1512 107.96Z" fill="#B53B3B"/>
<path d="M49.2161 104.095C51.545 103.536 52.3618 103.257 52.5002 103.541L51.6744 104.214C41.826 106.324 39.0961 111.34 37.1686 114.755C38.0438 108.605 46.5796 104.728 49.2161 104.095Z" fill="#B53B3B"/>
<path d="M97.3481 120.452C98.1935 103.563 90.497 91.1063 86.543 86.9889L72.7608 93.6838C75.4403 95.0456 77.5692 100.825 80.877 103.873C80.9391 108.756 82.944 114.208 83.9387 116.323C79.8949 118.044 73.2978 118.135 67.0136 115.299C59.3458 106.109 51.1094 103.807 47.9496 103.804L53.3019 117.633L56.5788 118.328L67.447 120.9C77.0618 127.788 96.5026 137.341 97.3481 120.452Z" fill="#B53B3B"/>
<path d="M61.8636 112.181C58.5825 108.951 51.8384 105.401 49.3322 106.848L48.1928 104.029L57.003 106.239C59.9903 109.565 65.1446 115.411 61.8636 112.181Z" fill="#B53B3B"/>
<path d="M57.5346 115C59.4788 114.817 61.8889 116.803 62.851 117.818L64.1421 120.104L62.3193 120.561L56.7751 117.818L53.2814 117.818L53.2814 116.066C53.889 115.787 55.5903 115.182 57.5346 115Z" fill="#B53B3B"/>
<path d="M47.672 104.027L47.2334 105.174C46.7641 104.995 46.4516 104.548 46.4446 104.045C46.4375 103.543 46.7374 103.086 47.2015 102.893L47.672 104.027ZM62.7715 111.474L61.9027 112.342L61.9027 112.342L62.7715 111.474ZM85.1078 116.611L85.9993 115.766C86.2951 116.078 86.4057 116.523 86.2908 116.938C86.176 117.352 85.8524 117.677 85.4381 117.793L85.1078 116.611ZM96.4497 121.033L95.271 121.378L95.1903 121.1L95.2418 120.816L96.4497 121.033ZM94.6544 128.311L94.0603 127.237C94.1026 127.213 94.1464 127.192 94.1912 127.174L94.6544 128.311ZM79.9714 127.662L79.6439 128.846L79.6439 128.846L79.9714 127.662ZM66.977 120.429L66.9634 119.201C67.4129 119.196 67.8292 119.436 68.0485 119.829L66.977 120.429ZM57.1538 117.945L57.6836 116.837L57.9644 116.971L58.1472 117.223L57.1538 117.945ZM51.5295 114.775L51.1656 115.948C50.791 115.833 50.4946 115.544 50.3678 115.173C50.2411 114.802 50.2993 114.393 50.5245 114.071L51.5295 114.775ZM52.6329 113.003L52.4805 111.785L52.6042 111.769L52.7286 111.779L52.6329 113.003ZM47.7578 108.877L48.0517 110.068L47.2679 107.751L47.7578 108.877ZM53.4018 109.666L53.7503 108.488C54.3115 108.654 54.6774 109.193 54.6243 109.776C54.5712 110.359 54.1139 110.824 53.5318 110.887L53.4018 109.666ZM50.1259 113.319L50.2783 114.537C49.9182 114.583 49.5566 114.467 49.2907 114.22C49.0247 113.973 48.8817 113.621 48.8999 113.259L50.1259 113.319ZM49.2918 110.126L49.2942 111.354L49.1586 108.906L49.2918 110.126ZM52.7961 118.245L51.6371 118.65C51.5561 118.418 51.5467 118.167 51.6102 117.929L52.7961 118.245ZM81.0262 103.418L81.8597 102.516L82.3827 102.999L82.2222 103.694L81.0262 103.418ZM47.2015 102.893C49.0899 102.107 51.5158 102.366 54.2216 103.584C56.9494 104.812 60.1198 107.081 63.6404 110.606L61.9027 112.342C58.5128 108.948 55.5821 106.89 53.2122 105.823C50.8201 104.746 49.1515 104.741 48.1424 105.161L47.2015 102.893ZM63.6404 110.606C66.8494 113.819 71.0458 115.336 75.0409 115.886C79.0444 116.438 82.731 116.003 84.7776 115.429L85.4381 117.793C83.0611 118.46 79.0347 118.916 74.7036 118.319C70.364 117.721 65.604 116.049 61.9027 112.342L63.6404 110.606ZM97.6283 120.689C98.3439 123.149 98.335 125.089 97.7989 126.575C97.2535 128.086 96.2047 129.003 95.1176 129.448L94.1912 127.174C94.6768 126.976 95.1958 126.558 95.4898 125.743C95.7933 124.902 95.8956 123.525 95.271 121.378L97.6283 120.689ZM95.2485 129.385C94.309 129.906 92.52 130.338 89.992 130.375C87.4191 130.412 83.9737 130.041 79.6439 128.846L80.299 126.478C84.4358 127.62 87.6486 127.952 89.9589 127.919C92.314 127.885 93.6332 127.474 94.0603 127.237L95.2485 129.385ZM79.6439 128.846C75.3067 127.649 72.1438 126.153 69.9387 124.743C67.7684 123.355 66.4475 121.998 65.9056 121.029L68.0485 119.829C68.3103 120.297 69.2533 121.388 71.2626 122.673C73.2372 123.936 76.1696 125.339 80.299 126.478L79.6439 128.846ZM66.9907 121.657C65.2773 121.677 63.1661 121.684 61.2397 121.347C59.3461 121.016 57.3514 120.308 56.1603 118.667L58.1472 117.223C58.7658 118.075 59.9604 118.63 61.6647 118.928C63.3365 119.22 65.232 119.222 66.9634 119.201L66.9907 121.657ZM50.5245 114.071C50.8747 113.571 51.3198 113.207 51.6894 112.949C52.039 112.705 52.438 112.484 52.5764 112.399C52.6954 112.327 52.6478 112.344 52.5721 112.421C52.5407 112.453 52.3632 112.632 52.2922 112.946C52.2516 113.126 52.2495 113.337 52.3165 113.552C52.3818 113.762 52.4936 113.916 52.5936 114.018C52.7696 114.198 52.9479 114.259 52.9694 114.267C53.0142 114.283 53.0309 114.284 52.9956 114.277C52.9263 114.264 52.7866 114.246 52.5372 114.227L52.7286 111.779C53.0003 111.8 53.2463 111.825 53.4493 111.863C53.5501 111.882 53.6746 111.91 53.8016 111.956C53.9052 111.993 54.1402 112.086 54.3499 112.301C54.6234 112.581 54.7934 113.013 54.6869 113.485C54.6068 113.84 54.4001 114.062 54.3222 114.142C54.1534 114.314 53.9434 114.44 53.8528 114.496C53.3006 114.833 52.8157 115.078 52.5345 115.479L50.5245 114.071ZM48.1106 102.88C48.8518 103.162 49.3251 103.786 49.6047 104.342C49.8971 104.924 50.0676 105.603 50.1142 106.269C50.1988 107.478 49.8746 109.292 48.2477 110.002L47.2679 107.751C47.4157 107.687 47.7276 107.335 47.6652 106.443C47.6383 106.058 47.5395 105.702 47.4112 105.447C47.2701 105.166 47.1713 105.15 47.2334 105.174L48.1106 102.88ZM47.4639 107.685C48.8085 107.352 50.1114 107.49 51.1888 107.73C52.2116 107.957 53.251 108.341 53.7503 108.488L53.0534 110.844C52.2842 110.617 51.591 110.336 50.6536 110.127C49.7708 109.931 48.8859 109.862 48.0517 110.068L47.4639 107.685ZM48.8999 113.259C48.9147 112.966 48.9668 112.583 49.0006 112.293C49.0392 111.964 49.0666 111.671 49.065 111.421C49.0632 111.147 49.0253 111.063 49.0338 111.08C49.0458 111.105 49.0867 111.176 49.1767 111.243C49.2715 111.314 49.3644 111.339 49.4154 111.345L49.6905 108.904C50.4475 108.989 50.9703 109.444 51.2434 110.008C51.4755 110.487 51.5174 111.014 51.52 111.403C51.5226 111.816 51.4788 112.237 51.439 112.577C51.3946 112.956 51.3612 113.195 51.3519 113.38L48.8999 113.259ZM49.4154 111.345C49.4384 111.347 49.4432 111.345 49.425 111.347L49.1586 108.906C49.3311 108.887 49.5096 108.884 49.6905 108.904L49.4154 111.345ZM49.2893 108.898C49.3758 108.898 49.4588 108.897 49.5385 108.896L49.5674 111.352C49.4793 111.353 49.3883 111.354 49.2942 111.354L49.2893 108.898ZM49.5385 108.896C50.5084 108.884 51.0093 108.818 51.4468 108.74C51.895 108.66 52.4267 108.536 53.2719 108.445L53.5318 110.887C52.7987 110.966 52.4392 111.057 51.8741 111.158C51.2983 111.26 50.6639 111.338 49.5674 111.352L49.5385 108.896ZM56.624 119.053C56.786 119.131 56.8781 119.111 56.7604 119.11C56.6774 119.11 56.5458 119.119 56.3575 119.144C55.9773 119.195 55.5213 119.288 55.0133 119.387C54.5415 119.479 53.999 119.582 53.5539 119.617C53.3401 119.633 53.0543 119.643 52.7745 119.588C52.5554 119.545 51.8884 119.371 51.6371 118.65L53.9552 117.839C53.8588 117.563 53.6741 117.387 53.5226 117.292C53.3876 117.207 53.2768 117.184 53.2483 117.178C53.1977 117.168 53.2187 117.18 53.3664 117.168C53.6444 117.147 54.0433 117.074 54.5455 116.976C55.0114 116.885 55.562 116.773 56.0352 116.71C56.2736 116.678 56.5304 116.653 56.7743 116.655C56.9835 116.656 57.3409 116.673 57.6836 116.837L56.624 119.053ZM51.6102 117.929C51.6656 117.722 51.6827 117.176 51.533 116.633C51.4624 116.377 51.3719 116.187 51.2857 116.068C51.2447 116.011 51.2118 115.98 51.1919 115.965C51.1739 115.951 51.1659 115.949 51.1656 115.948L51.8934 113.602C53.1288 113.985 53.675 115.162 53.8998 115.978C54.138 116.842 54.174 117.841 53.9821 118.561L51.6102 117.929ZM52.7853 114.221L50.2783 114.537L49.9735 112.101L52.4805 111.785L52.7853 114.221ZM95.2418 120.816C96.3133 114.898 95.9393 100.341 85.4214 87.7223L87.3076 86.1485C98.3939 99.4486 98.8267 114.793 97.6576 121.251L95.2418 120.816ZM84.2163 117.456C83.1612 116.342 81.7249 114.344 80.7181 111.863C79.7094 109.378 79.0962 106.319 79.8303 103.143L82.2222 103.694C81.636 106.23 82.1083 108.758 82.9929 110.937C83.8792 113.121 85.1438 114.863 85.9993 115.766L84.2163 117.456ZM80.1928 104.321C77.6342 101.956 76.1632 100.139 74.987 98.51C73.7931 96.8571 73.0219 95.5833 71.7101 94.069L73.5661 92.4596C74.9708 94.0812 75.9021 95.5817 76.9774 97.0705C78.0704 98.5838 79.4352 100.275 81.8597 102.516L80.1928 104.321Z" fill="#B53B3B"/>
<path d="M127.834 176.862C127.372 175.126 127.138 174.527 127.385 174.383L132.703 177.583C132.413 180.493 134.005 182.882 136.922 184.855C131.624 184.961 128.356 178.829 127.834 176.862Z" fill="#B53B3B"/>
<path d="M131.167 176.419C130.705 174.682 132.131 177.084 132.378 176.94L132.704 177.583C132.414 180.493 134.006 182.882 136.922 184.855C132.189 182.263 131.689 178.385 131.167 176.419Z" fill="#B53B3B"/>
<path d="M127.834 176.862C127.372 175.126 127.138 174.527 127.385 174.383L127.958 174.939C129.691 182.315 133.993 183.794 136.922 184.855C131.624 184.961 128.356 178.829 127.834 176.862Z" fill="#B53B3B"/>
<path d="M123.904 177.688C123.8 175.894 123.691 175.261 123.962 175.169L126.742 176.815L128.53 179.377C127.662 182.169 128.742 184.83 131.204 187.351C125.993 186.386 124.021 179.72 123.904 177.688Z" fill="#B53B3B"/>
<path d="M127.258 177.926C127.154 176.132 128.069 178.772 128.339 178.681L128.53 179.377C127.662 182.169 128.742 184.83 131.204 187.351C127.087 183.857 127.375 179.957 127.258 177.926Z" fill="#B53B3B"/>
<path d="M123.904 177.688C123.8 175.894 123.691 175.261 123.962 175.169L124.411 175.829C124.63 183.404 128.547 185.721 131.204 187.351C125.993 186.386 124.021 179.72 123.904 177.688Z" fill="#B53B3B"/>
<path d="M119.791 176.077C120.232 174.335 120.319 173.698 120.604 173.693L122.759 176.104L123.692 179.088C122.025 181.487 122.253 184.351 123.841 187.499C119.165 185.001 119.291 178.049 119.791 176.077Z" fill="#B53B3B"/>
<path d="M122.915 177.32C123.357 175.578 123.435 178.372 123.72 178.367L123.692 179.088C122.024 181.487 122.253 184.351 123.841 187.5C120.968 182.923 122.416 179.292 122.915 177.32Z" fill="#B53B3B"/>
<path d="M119.791 176.077C120.232 174.335 120.319 173.698 120.604 173.693L120.834 174.458C118.762 181.746 121.8 185.141 123.841 187.499C119.165 185.001 119.291 178.049 119.791 176.077Z" fill="#B53B3B"/>
<path d="M115.383 129.726C116.8 127.186 118.299 121.559 112.952 119.365C107.606 117.17 103.231 120.279 101.712 122.107C99.9904 123.732 93.6343 130.739 97.7659 141.465C101.897 152.192 122.471 151.565 130.269 150.448C129.458 151.362 127.96 154.349 128.446 158.981C128.932 163.613 122.842 172.231 120.512 176.091C121.424 175.685 125.043 175.559 126.015 177.265C127.534 175.741 127.838 175.741 129.053 177.57C129.56 176.757 130.815 175.437 131.788 176.656C131.788 173.304 132.091 172.694 133.003 170.256C135.231 167.107 139.99 159.468 141.205 154.105C143.028 149.229 143.028 148.924 143.028 148.315C143.129 147.299 140.901 145.572 136.648 144.963C132.395 144.353 124.294 137.141 121.459 133.687C120.231 132.533 117.374 130.468 113.947 129.429C114.491 129.535 114.986 129.638 115.383 129.726Z" fill="#B53B3B"/>
<path d="M133.176 162.803C135.06 160.304 138.265 150.994 139.632 146.651L143.277 147.413L139.252 159.146L132.796 171.107L131.961 175.602C130.847 176.871 128.543 178.832 128.24 176.516H126.759L121.746 175.83C121.366 175.31 120.918 174.253 122.164 174.192C123.409 174.131 124.353 174.402 124.67 174.544C126.584 173.943 127.911 174.294 128.336 174.544C128.905 171.003 131.245 165.365 133.176 162.803Z" fill="#B53B3B"/>
<path d="M115.383 129.726C115.724 129.115 116.07 128.325 116.324 127.447M105.665 129.726C106.579 128.971 107.487 128.659 110.522 128.812C115.383 129.055 119.838 132.164 121.459 133.687C124.294 137.141 132.395 144.353 136.648 144.963C140.901 145.572 143.129 147.299 143.028 148.315C143.028 148.924 143.028 149.229 141.205 154.105C139.99 159.468 135.231 167.107 133.003 170.256C132.091 172.694 131.788 173.304 131.788 176.656C130.576 176.351 128.952 176.757 128.446 177.57C127.231 175.742 125.712 175.742 124.193 177.265C123.221 175.559 121.12 175.742 120.243 175.742C122.572 171.881 128.932 163.613 128.446 158.981C127.96 154.349 129.458 151.362 130.269 150.448C122.471 151.565 101.897 152.192 97.7659 141.465C93.6343 130.739 99.9904 123.733 101.712 122.107C102.012 121.746 102.423 121.336 102.93 120.926" stroke="#B53B3B" stroke-width="2.45547" stroke-linecap="round"/>
<path d="M184.858 49.7145C185.465 35.8269 202.236 31.8345 210.545 31.5743C201.424 24.9524 175.493 23.4396 163.587 23.7382C137.122 25.5078 108.651 29.02 96.6828 44.506C109.174 59.965 110.866 84.8349 109.619 95.3282C108.622 103.723 94.5438 108.931 87.6296 110.486L98.9242 116.17L108.953 107.356C125.763 84.335 143.52 70.8812 154.27 70.0543C159.036 58.0991 167.07 50.4683 184.858 49.7145Z" fill="#B53B3B"/>
<path d="M123.059 32.8177C108.395 35.8284 100.42 43.4266 98.4481 46.0645L96.3901 43.484L102.05 38.4949L114.827 31.9575C123.573 30.1511 138.001 29.7498 123.059 32.8177Z" fill="#B53B3B"/>
<path d="M210.545 31.5743L211.266 30.5804C211.691 30.8888 211.873 31.4333 211.719 31.9352C211.565 32.437 211.109 32.7853 210.584 32.8017L210.545 31.5743ZM184.858 49.7145L186.084 49.7683L186.035 50.8937L184.91 50.9414L184.858 49.7145ZM154.27 70.0543L155.41 70.5094C155.237 70.9444 154.831 71.2428 154.364 71.2787L154.27 70.0543ZM108.953 107.356L109.944 108.08C109.891 108.152 109.831 108.219 109.763 108.278L108.953 107.356ZM87.6296 110.486L87.078 111.583C86.6148 111.349 86.348 110.85 86.4113 110.335C86.4746 109.821 86.8544 109.401 87.3603 109.287L87.6296 110.486ZM109.619 95.3282L108.4 95.1831L108.4 95.1831L109.619 95.3282ZM96.6828 44.506L95.7283 45.2779L95.1182 44.5228L95.7118 43.7547L96.6828 44.506ZM163.587 23.7382L163.505 22.5129C163.522 22.5118 163.539 22.511 163.556 22.5106L163.587 23.7382ZM98.9242 116.17L99.7344 117.093C99.3585 117.423 98.8197 117.492 98.3727 117.267L98.9242 116.17ZM210.584 32.8017C206.557 32.9278 200.481 33.9646 195.38 36.6232C190.305 39.269 186.362 43.4147 186.084 49.7683L183.631 49.6607C183.961 42.1267 188.707 37.3323 194.246 34.445C199.761 31.5705 206.224 30.481 210.507 30.3469L210.584 32.8017ZM184.91 50.9414C176.182 51.3112 169.981 53.3614 165.401 56.6786C160.82 59.9957 157.739 64.6681 155.41 70.5094L153.13 69.5992C155.567 63.4853 158.886 58.3647 163.961 54.6891C169.036 51.0137 175.745 48.8715 184.806 48.4875L184.91 50.9414ZM154.364 71.2787C149.368 71.663 142.483 75.0388 134.653 81.3392C126.868 87.6037 118.299 96.6389 109.944 108.08L107.962 106.631C116.417 95.0517 125.131 85.8497 133.115 79.4254C141.053 73.0371 148.422 69.2725 154.176 68.8299L154.364 71.2787ZM87.3603 109.287C90.7334 108.529 95.8617 106.874 100.24 104.402C104.702 101.883 107.977 98.7476 108.4 95.1831L110.838 95.4732C110.264 100.303 106.001 103.969 101.447 106.541C96.8077 109.161 91.4399 110.887 87.8988 111.684L87.3603 109.287ZM108.4 95.1831C109.007 90.0749 108.905 81.3621 107.098 72.0123C105.29 62.6579 101.8 52.7924 95.7283 45.2779L97.6374 43.734C104.057 51.6786 107.659 61.9776 109.508 71.5463C111.358 81.1194 111.478 90.0882 110.838 95.4732L108.4 95.1831ZM95.7118 43.7547C101.948 35.6857 112.384 30.8463 124.396 27.7883C136.434 24.7237 150.264 23.3983 163.505 22.5129L163.669 24.9635C150.445 25.8477 136.807 27.1632 125.002 30.1685C113.17 33.1805 103.386 37.8403 97.6539 45.2572L95.7118 43.7547ZM163.556 22.5106C169.566 22.3599 179.088 22.6658 188.267 23.843C192.857 24.4318 197.386 25.2415 201.359 26.3299C205.31 27.4124 208.808 28.796 211.266 30.5804L209.825 32.5682C207.722 31.0417 204.559 29.7529 200.71 28.6987C196.884 27.6504 192.476 26.859 187.955 26.2791C178.911 25.1191 169.514 24.818 163.618 24.9658L163.556 22.5106ZM88.1811 109.388L99.4758 115.073L98.3727 117.267L87.078 111.583L88.1811 109.388ZM109.763 108.278L99.7344 117.093L98.1141 115.248L108.143 106.433L109.763 108.278Z" fill="#B53B3B"/>
<path d="M94.0383 42.8047C95.0866 44.3952 95.1235 44.7121 95.6965 44.9076C96.2695 45.1031 97.8287 44.7329 98.6436 44.0022C99.6496 43.1003 98.6057 41.3896 98.6057 41.3896C96.0283 39.5729 92.4538 34.1101 92.1767 29.9276C90.0029 35.7416 92.8515 41.0041 94.0383 42.8047Z" fill="#B53B3B"/>
<path d="M94.9702 37.2656C93.5097 34.9914 92.3299 32.261 92.1754 29.9287C90.9556 33.191 91.3171 36.2797 92.079 38.6805C91.7589 36.1526 91.7899 33.4424 94.9702 37.2656Z" fill="#B53B3B"/>
<path d="M46.8376 31.7922C55.6641 37.4482 55.8647 43.351 54.8617 45.5955L59.8768 40.2088C58.8738 32.8022 58.2051 35.1588 51.5184 27.4155C46.169 21.2209 49.5478 13.293 50.181 10.2456C46.8376 10.2456 38.0112 26.1362 46.8376 31.7922Z" fill="#B53B3B"/>
<path d="M46.7261 31.7925C55.5527 37.4484 55.7532 43.3513 54.7502 45.5957L59.7653 40.2091C58.7623 32.8025 57.0344 35.3594 50.3477 27.6161C44.9983 21.4214 48.4993 14.5122 49.1325 11.4648C45.7891 11.4648 38.3063 26.3971 46.7261 31.7925Z" fill="#B53B3B"/>
<path d="M46.7256 31.7923C55.5522 37.4483 55.7527 43.3512 54.7497 45.5956L55.4693 44.9861C56.2943 43.1399 56.305 38.8185 51.3705 34.1952C50.306 33.1979 49.0114 32.1865 47.4452 31.1828C41.9071 27.6341 43.0798 19.9593 45.5984 15.1216C45.8493 14.6184 45.9537 14.3089 46.206 13.9026L46.418 13.5288C43.1914 17.817 40.2384 27.6353 46.7256 31.7923Z" fill="#B53B3B"/>
<path d="M86.9126 39.5825C82.3754 41.2147 80.045 45.4599 79.9979 46.506L75.137 42.6815C76.4141 40.5145 82.4713 38.1809 86.9126 39.5825Z" fill="#B53B3B"/>
<path d="M76.4874 41.3511C78.8518 39.7095 83.3908 38.4706 86.9131 39.582C86.6401 39.6803 86.3751 39.788 86.1182 39.9039C84.0693 40.0288 79.5044 40.7853 77.6359 42.8119L76.4874 41.3511Z" fill="#B53B3B"/>
<path d="M269.551 59.6738C268.138 63.7453 270.346 65.1243 271.141 65.584L266.107 67.6854C264.959 65.8467 266.99 61.6439 269.551 59.6738Z" fill="#B53B3B"/>
<path d="M269.552 59.6738C269.157 60.8114 269.045 61.7387 269.106 62.4946C268.299 61.7523 266.581 64.3599 265.823 65.7565C266.102 63.7287 267.687 61.1089 269.552 59.6738Z" fill="#B53B3B"/>
<path d="M262.705 60.9477C260.92 65.3053 262.562 68.6419 263.313 69.36L257.235 70.3842C256.461 68.0411 258.716 63.2519 262.705 60.9477Z" fill="#B53B3B"/>
<path d="M262.705 60.9468C262.284 61.9757 262.054 62.9478 261.959 63.842C261.237 63.7754 259.395 64.2029 257.796 66.4462C258.695 64.4158 260.413 62.2704 262.705 60.9468Z" fill="#B53B3B"/>
<path d="M255.171 61.1207C252.199 65.9742 253.37 70.2372 254.077 71.2268L246.896 71.3398C246.508 68.4151 250.111 63.1341 255.171 61.1207Z" fill="#B53B3B"/>
<path d="M248.571 66.4759C250.048 64.3241 252.389 62.2248 255.173 61.1173C254.354 62.4579 253.85 63.7536 253.566 64.9479C252.933 63.395 249.973 65.3196 248.571 66.4759Z" fill="#B53B3B"/>
<path d="M246.909 61.8319C242.991 65.9509 243.205 70.3496 243.675 71.4606L236.712 70.0879C236.966 67.1559 241.585 62.7502 246.909 61.8319Z" fill="#B53B3B"/>
<path d="M246.909 61.8311C246.432 62.3326 246.016 62.8382 245.655 63.3416C243.16 63.5218 239.316 66.273 237.706 67.6261C239.381 65.126 242.95 62.514 246.909 61.8311Z" fill="#B53B3B"/>
<path d="M237.416 59.1802C232.988 62.7468 232.018 68.3737 232.366 69.5571L225.488 67.1697C226.081 64.2636 231.933 59.3302 237.416 59.1802Z" fill="#B53B3B"/>
<path d="M237.417 59.1807C236.811 59.6687 236.269 60.1953 235.788 60.7438C232.295 60.8714 228.177 63.6799 226.555 65.0682C228.596 62.3533 233.12 59.2982 237.417 59.1807Z" fill="#B53B3B"/>
<path d="M186.881 57.7092C186.244 64.1655 190.924 69.3892 192.43 70.0324L183.556 73.8286C181.226 71.0552 181.849 62.3496 186.881 57.7092Z" fill="#B53B3B"/>
<path d="M186.881 57.7093C186.664 59.9049 187.342 62.6237 188.021 64.4025C185.241 59.9154 183.357 63.4116 182.683 65.3096C183.317 62.5564 184.676 59.7426 186.881 57.7093Z" fill="#B53B3B"/>
<path d="M175.861 63.74C175.375 70.2094 180.175 75.3222 181.696 75.93L172.912 79.9327C170.518 77.2146 170.939 68.4968 175.861 63.74Z" fill="#B53B3B"/>
<path d="M176.871 69.656C176.965 69.9199 177.061 70.1705 177.157 70.4045C177.074 70.1186 176.978 69.8702 176.871 69.656C176.255 67.9333 175.718 65.6477 175.861 63.7398C173.704 65.8241 172.411 68.6689 171.841 71.4362C172.424 69.6645 175.528 66.9763 176.871 69.656Z" fill="#B53B3B"/>
<path d="M164.238 69.1395C163.703 76.2537 168.982 81.876 170.654 82.5443L160.995 86.946C158.362 83.957 158.824 74.3704 164.238 69.1395Z" fill="#B53B3B"/>
<path d="M164.238 69.1396C164.128 70.6073 164.265 72.0114 164.567 73.3217C161.757 73.3217 159.981 78.2758 159.443 80.7529C159.559 76.8724 161.029 72.2406 164.238 69.1396Z" fill="#B53B3B"/>
<path d="M151.483 74.5482C150.948 81.6624 156.227 87.2847 157.899 87.953L148.24 92.3547C145.607 89.3657 146.07 79.7791 151.483 74.5482Z" fill="#B53B3B"/>
<path d="M151.483 74.548C151.345 76.3769 151.592 78.1071 152.063 79.68C149.306 79.1563 147.333 83.711 146.691 86.0538C146.831 82.1955 148.303 77.6204 151.483 74.548Z" fill="#B53B3B"/>
<path d="M140.726 80.5589C140.191 87.6731 145.47 93.2954 147.142 93.9638L137.483 98.3655C134.85 95.3765 135.313 85.7898 140.726 80.5589Z" fill="#B53B3B"/>
<path d="M140.727 80.5591C140.613 82.0634 140.76 83.501 141.078 84.8392C138.617 86.1569 137.242 89.9787 136.862 91.7248L136.393 88.6188C137.06 85.7047 138.459 82.7499 140.727 80.5591Z" fill="#B53B3B"/>
<path d="M199.205 53.1272C197.544 59.312 200.385 65.0664 201.484 65.9092L193.66 68.3183C192.276 65.2854 194.326 56.9118 199.205 53.1272Z" fill="#B53B3B"/>
<path d="M194.472 59.9097C195.472 57.3246 197.067 54.7853 199.205 53.127C198.869 54.3782 198.685 55.8559 198.697 57.232C198.083 57.0873 196.433 57.4198 194.472 59.9097Z" fill="#B53B3B"/>
<path d="M213.64 52.2544C210 57.5172 210.744 63.8953 211.496 65.06L203.32 64.6864C203.035 61.363 207.776 54.1705 213.64 52.2544Z" fill="#B53B3B"/>
<path d="M213.641 52.2549C213.008 53.1696 212.508 54.1179 212.117 55.0668C209.009 56.0615 205.888 58.8651 204.715 60.1426C206.509 56.957 209.839 53.4971 213.641 52.2549Z" fill="#B53B3B"/>
<path d="M226.212 57.3168C221.82 60.6739 220.739 66.1193 221.048 67.2782L214.422 64.7872C215.069 61.9771 220.879 57.3268 226.212 57.3168Z" fill="#B53B3B"/>
<path d="M226.211 57.3169C225.487 57.8705 224.853 58.4809 224.3 59.1195C221.173 59.1196 217.04 61.6788 215.365 62.9585C217.343 60.3225 221.931 57.3249 226.211 57.3169Z" fill="#B53B3B"/>
<path d="M113.413 91.1605C106.11 91.1075 100.587 95.9262 99.9767 97.3894L95.0504 89.4055C97.9939 86.9915 107.824 86.8425 113.413 91.1605Z" fill="#B53B3B"/>
<path d="M96.7508 88.5032C100.78 87.0467 108.643 87.4752 113.414 91.1611C104.772 88.6687 99.1924 90.1226 97.4831 91.161L96.7508 88.5032Z" fill="#B53B3B"/>
<path d="M110.111 81.2267C103.194 79.4024 96.2666 82.7553 95.3337 83.9955L93.1097 75.1007C96.4858 73.5249 105.85 75.7713 110.111 81.2267Z" fill="#B53B3B"/>
<path d="M94.9394 74.6516C99.1144 74.2491 106.473 76.5677 110.111 81.2256C102.511 76.759 96.8658 76.782 94.9932 77.3518L94.9394 74.6516Z" fill="#B53B3B"/>
<path d="M104.937 67.9254C99.1557 67.0962 94.2637 70.3191 93.623 71.4127L90.5748 64.5554C93.1657 62.96 100.971 63.9015 104.937 67.9254Z" fill="#B53B3B"/>
<path d="M93.078 66.3552C92.835 65.5934 92.3253 64.4716 92.1008 64.0059C95.1095 63.3954 100.31 64.2852 103.779 66.9126C97.1633 64.6129 94.3312 66.0124 93.078 66.3552Z" fill="#B53B3B"/>
<path d="M99.7019 57.4725C94.5453 57.7276 90.8395 61.3497 90.4666 62.4069L86.672 56.9692C88.6534 55.1476 95.5853 54.6487 99.7019 57.4725Z" fill="#B53B3B"/>
<path d="M89.1464 58.1096C88.8078 57.4893 88.1775 56.6016 87.9046 56.2352C90.4136 55.1981 95.0764 55.0935 98.5273 56.7891C92.4002 55.9085 90.1766 57.6007 89.1464 58.1096Z" fill="#B53B3B"/>
<path d="M92.6519 46.9723C87.9432 48.0065 85.0887 51.9162 84.9081 52.9475L80.5768 48.5286C82.1207 46.5441 88.4266 45.0103 92.6519 46.9723Z" fill="#B53B3B"/>
<path d="M83.0305 49.195C82.6232 48.6763 81.906 47.9566 81.5984 47.6616C83.7491 46.3176 88.0268 45.4985 91.4658 46.5249C85.6879 46.6638 83.9009 48.5667 83.0305 49.195Z" fill="#B53B3B"/>
<path d="M85.0671 34.8386C76.2407 40.4946 76.0401 46.3974 77.0431 48.6419L72.028 43.2552C73.031 35.8486 73.6997 38.2052 80.3864 30.4619C85.7358 24.2673 82.357 16.3394 81.7238 13.292C85.0671 13.292 93.8936 29.1826 85.0671 34.8386Z" fill="#B53B3B"/>
<path d="M85.1786 34.8389C76.3521 40.4948 76.1516 46.3977 77.1546 48.6421L72.1395 43.2555C73.1425 35.8488 74.8704 38.4058 81.5571 30.6625C86.9065 24.4678 83.4055 17.5586 82.7723 14.5112C86.1156 14.5112 93.5985 29.4435 85.1786 34.8389Z" fill="#B53B3B"/>
<path d="M85.1791 34.8387C76.3526 40.4946 76.152 46.3976 77.1551 48.642L76.4355 48.0325C75.6105 46.1863 75.5998 41.8649 80.5343 37.2416C81.5987 36.2442 82.8934 35.2328 84.4596 34.2292C89.9977 30.6804 88.825 23.0057 86.3063 18.168C86.0555 17.6648 85.9511 17.3552 85.6988 16.949L85.4868 16.5752C88.7134 20.8633 91.6664 30.6817 85.1791 34.8387Z" fill="#B53B3B"/>
<path d="M13.2082 38.4143C20.0436 40.4344 35.8166 40.6029 42.8487 40.4347L68.5119 36.8413C76.3449 42.7178 92.359 58.623 93.7516 75.2314L62.0207 80.4086C63.0618 74.5703 57.6182 64.706 50.298 69.8411C42.9779 74.9762 26.0792 74.7471 18.5449 73.9907C17.464 73.2694 15.2287 71.4819 14.9349 70.102C14.641 68.722 16.5391 67.8638 17.5248 67.6072L17.4345 67.5878C16.9252 67.562 16.3941 67.5301 15.838 67.4922C8.12662 66.9666 4.664 35.8891 13.2082 38.4143Z" fill="#B53B3B"/>
<path d="M42.8468 43.4837C35.8148 43.652 20.0418 43.4835 13.2064 41.4633C4.66211 38.9382 8.12476 66.9682 15.8361 67.4938L15.8385 67.494C16.1139 67.5128 16.3831 67.5311 16.6466 67.9192C15.7148 68.3348 14.7137 69.0739 14.933 70.1036C15.2269 71.4836 17.4621 73.2711 18.543 73.9923C26.0773 74.7487 42.976 74.9778 50.2962 69.8427C57.6164 64.7077 68.296 73.2796 67.2548 79.1179C67.2548 79.1179 75.4571 115.382 81.2292 129.095C92.4695 144.027 104.925 146.161 104.925 146.161L130.748 146.16C130.748 146.16 132.267 146.77 145.937 138.542C159.608 130.314 176.317 100.144 176.317 100.144C176.317 100.144 186.342 81.86 201.532 79.1173C218.848 80.3361 251.962 76.3744 251.962 76.3744L261.059 73.3081L265.329 69.67L251.962 71.8033C251.962 71.8033 236.165 72.0803 226.443 68.1326C216.722 64.1849 200.621 66.0134 200.621 66.0134L153.532 90.3929L120.419 103.802L105.305 101.669L97.6341 97.4022L93.7497 75.2331C92.3572 58.6246 76.343 45.7669 68.51 39.8903L42.8468 43.4837Z" fill="#B53B3B"/>
<path d="M19.7593 70.9433C18.6784 70.222 16.4432 68.4345 16.1493 67.0545C19.9673 66.9348 26.692 66.6345 23.0465 66.3907C19.401 66.1469 17.5315 64.9918 17.0524 64.4448C12.7175 60.9054 8.54719 51.0822 9.64536 43.5352C8.44158 47.8016 7.49224 58.3456 13.3251 66.3907C14.2972 67.3483 15.1479 68.2119 15.4517 68.5239C15.4156 69.946 16.0225 72.9731 18.7392 73.7045C22.1351 74.6187 46.4387 75.5329 52.5146 69.1334L57.8582 69.1334C57.2961 65.8666 55.5642 63.9515 51.5124 66.7938C44.1923 71.9289 27.2937 71.6997 19.7593 70.9433Z" fill="#B53B3B"/>
<path d="M65.7356 73.9358C63.0623 70.7665 60.6724 69.7711 58.4446 70.279C59.9635 71.4979 62.88 75.4595 62.3939 81.5543C61.9078 87.6491 61.3813 93.4392 61.1787 95.5724C61.5838 101.566 62.5154 113.857 63.0015 115.076C63.6091 116.599 65.1281 133.36 69.685 139.76C74.2419 146.159 79.1026 151.645 85.4823 154.997C91.862 158.349 109.178 161.092 117.684 160.787C126.191 160.482 139.861 158.044 150.19 149.816C160.519 141.588 170.545 129.399 173.886 123.608C176.56 118.976 187.152 102.175 192.114 94.3534C194.241 92.0171 200.195 87.0397 207 85.8207C215.506 84.297 215.202 83.9923 222.19 83.6875L222.326 83.6816C229.272 83.3787 236.531 83.0622 246.19 80.6401C255.911 78.2022 262.594 76.069 265.936 74.2406C268.61 72.7778 272.721 68.5521 274.442 66.6221C248.316 82.7733 222.494 77.8975 206.392 78.8117C193.512 79.5431 183.608 89.4776 180.266 94.3534C174.899 103.496 160.702 124.888 146.849 137.322C132.996 149.755 113.026 147.886 104.621 146.464C93.6847 143.538 82.1142 132.017 79.4064 124.827C74.2419 111.114 69.0774 77.8975 65.7356 73.9358Z" fill="#B53B3B"/>
<path d="M68.7567 89.2262C67.3829 90.3524 64.2372 92.3197 62.645 91.1798C63.1174 91.0823 64.9225 91.2499 68.7567 89.2262Z" fill="#B53B3B"/>
<path d="M71.181 99.8657C69.3486 101.368 65.153 103.992 63.0294 102.471C63.6595 102.341 66.0671 102.565 71.181 99.8657Z" fill="#B53B3B"/>
<path d="M73.5021 110.903C71.1395 112.84 66.4401 115.795 63.7019 113.834C64.5144 113.667 66.9084 114.383 73.5021 110.903Z" fill="#B53B3B"/>
<path d="M76.4705 121.173C74.1809 123.549 69.2905 127.411 65.9359 125.431C66.8064 125.175 69.7594 125.637 76.4705 121.173Z" fill="#B53B3B"/>
<path d="M80.8446 131.675C78.9761 134.397 74.3305 139.49 70.6967 138.091C71.5133 137.694 74.9576 137.186 80.8446 131.675Z" fill="#B53B3B"/>
<path d="M87.2687 140.356C86.0686 143.434 82.7044 149.456 78.848 148.925C79.5529 148.352 82.7907 147.069 87.2687 140.356Z" fill="#B53B3B"/>
<path d="M107.623 148.096C108.133 150.954 108.371 157.013 105.24 158.392C105.506 157.639 107.343 155.186 107.623 148.096Z" fill="#B53B3B"/>
<path d="M118.59 148.745C119.561 151.479 120.788 157.417 117.925 159.294C118.064 158.506 119.475 155.785 118.59 148.745Z" fill="#B53B3B"/>
<path d="M128.71 147.381C130.345 149.776 133.041 155.204 130.75 157.751C130.684 156.954 131.356 153.961 128.71 147.381Z" fill="#B53B3B"/>
<path d="M137.121 142.905C139.505 144.551 143.966 148.644 142.741 151.846C142.393 151.127 141.948 148.092 137.121 142.905Z" fill="#B53B3B"/>
<path d="M153.656 133.104C155.704 134.056 159.67 136.614 159.147 139.238C158.786 138.73 158.046 136.456 153.656 133.104Z" fill="#B53B3B"/>
<path d="M162.031 124.771C163.883 125.518 167.517 127.57 167.238 129.802C166.889 129.384 166.09 127.481 162.031 124.771Z" fill="#B53B3B"/>
<path d="M168.682 114.939C170.357 115.614 173.643 117.47 173.391 119.489C173.075 119.11 172.352 117.39 168.682 114.939Z" fill="#B53B3B"/>
<path d="M175.165 104.686C176.839 105.361 180.126 107.217 179.873 109.236C179.557 108.857 178.834 107.137 175.165 104.686Z" fill="#B53B3B"/>
<path d="M181.286 96.3639C182.771 96.9629 185.685 98.6083 185.461 100.398C185.181 100.063 184.54 98.5372 181.286 96.3639Z" fill="#B53B3B"/>
<path d="M188.786 88.0777C189.978 88.8481 192.241 90.7691 191.748 92.2898C191.56 91.9505 191.256 90.5153 188.786 88.0777Z" fill="#B53B3B"/>
<path d="M197.006 82.8214C197.857 83.8182 199.348 86.115 198.512 87.3273C198.435 86.9778 198.545 85.6296 197.006 82.8214Z" fill="#B53B3B"/>
<path d="M206.582 80.4028C207.087 81.3123 207.885 83.3338 207.044 84.1437C207.039 83.8599 207.337 82.8293 206.582 80.4028Z" fill="#B53B3B"/>
<path d="M54.4953 68.1458C56.7231 67.6379 64.8243 71.8027 66.9508 77.288C68.8259 82.1247 74.2419 111.114 79.4064 124.827C82.1142 132.017 92.4696 143.234 103.406 146.159C111.811 147.581 132.996 149.755 146.849 137.322C160.702 124.888 174.899 103.496 180.266 94.3534C183.608 89.4776 193.512 79.5431 206.392 78.8117C222.494 77.8975 248.316 82.7733 274.442 66.6221" stroke="#B53B3B" stroke-width="2.45547"/>
<path d="M60.3885 72.6073C59.9216 71.098 59.4397 70.0521 58.4446 70.279C58.9872 70.7144 59.7081 71.4998 60.3885 72.6073C60.8575 74.1233 61.3112 76.1068 62.2546 77.7378C62.4391 78.8951 62.5043 80.1697 62.3939 81.5543C61.9078 87.6491 61.3813 93.4392 61.1787 95.5724C61.5838 101.566 62.5154 113.857 63.0015 115.076C63.6091 116.599 65.1281 133.36 69.685 139.76C74.2419 146.159 79.1026 151.645 85.4823 154.997C91.862 158.349 109.178 161.092 117.684 160.787C126.191 160.482 139.861 158.044 150.19 149.816C160.519 141.588 170.545 129.399 173.886 123.608C176.56 118.976 187.152 102.175 192.114 94.3534C194.241 92.0171 200.195 87.0397 207 85.8207C215.506 84.297 215.202 83.9923 222.19 83.6875L222.326 83.6816C229.272 83.3787 236.531 83.0622 246.19 80.6401C255.911 78.2022 262.594 76.069 265.936 74.2406C268.61 72.7778 272.721 68.5521 274.442 66.6221C248.316 82.7733 231 79.7259 205.633 83.6875C196.063 85.182 191.658 91.4584 185.431 96.7913C179.203 102.124 168.6 125.193 154.747 137.627C140.894 150.06 125.509 159.018 105.533 154.997C90.1423 151.899 81.7045 144.837 72.4191 132.141C59.9467 115.088 66.3432 82.7733 63.0015 78.8117C62.7216 78.4799 62.4748 78.1184 62.2546 77.7378C61.9171 75.6207 61.1802 73.8959 60.3885 72.6073Z" fill="#B53B3B"/>
<path d="M91.103 75.6127C89.7105 59.0042 78.1263 47.2061 70.2933 41.3296C76.4704 44.0722 89.6753 53.519 93.0777 69.3655C92.6219 86.05 97.1281 91.3575 97.0269 92.4495C96.6218 96.1073 99.8369 103.346 115.938 103.039C132.039 102.732 150.596 93.3116 157.862 88.6398L194.925 67.9173L210.95 65.3269L231.152 69.8216C237.076 70.5834 250.367 71.9699 256.139 71.4214C273.395 66.7892 273.149 65.8256 277.786 63.3848C263.69 77.5248 240.853 76.0405 230.322 72.79C222.828 69.8443 205.603 64.745 192.722 72.7903C176.621 82.8468 148.824 96.4869 135.153 101.972C121.482 107.458 111.761 104.868 101.432 103.039C93.1686 101.576 91.1588 83.6363 91.103 75.6127Z" fill="#B53B3B"/>
<path d="M13.2019 38.4699C20.0371 40.4886 35.8105 40.6539 42.8428 40.4842L68.5074 36.8857C76.3394 42.7605 92.3508 58.6619 93.74 75.2696C93.7942 83.293 95.9683 99.7051 104.231 101.166C114.56 102.992 121.548 104.514 135.22 99.0265C148.892 93.5385 174.414 80.4297 190.518 70.3702C203.401 62.3226 221.608 66.199 229.101 69.1432C239.632 72.3915 264.22 75.3524 278.319 61.2099C277.204 65.1716 270.66 74.254 253.403 78.8895C236.146 83.525 225.756 84.0757 222.718 83.7716C214.921 83.6717 197.563 86.0928 190.513 96.5771C183.462 107.061 175.013 121.264 171.67 127.054C164.782 137.62 145.719 159.056 124.574 160.28C103.429 161.503 90.0423 157.544 85.992 155.412C81.1317 153.077 68.7383 144.445 65.339 128.6C61.9397 112.755 61.2943 99.6513 61.3965 95.0803L62.3111 80.1483C62.3124 73.7489 57.6077 64.7519 50.2863 69.8883C42.9649 75.0247 26.0658 74.7991 18.5315 74.0442C17.4507 73.3232 15.2157 71.5362 14.9221 70.1563C14.6285 68.7765 16.5268 67.9179 17.5126 67.6611L17.4223 67.6417C16.913 67.616 16.3819 67.5843 15.8258 67.5465C8.11429 67.0224 4.65792 35.9466 13.2019 38.4699Z" stroke="#B53B3B" stroke-width="2.45547"/>
<path d="M55.9126 67.8888L57.0728 60.0308L51.7199 61.4257L55.9126 67.8888Z" fill="#B53B3B"/>
<path d="M55.6668 66.5905L55.9166 63.6879L55.4348 65.0144L53.1606 61.4142L52.4125 61.5182L55.6668 66.5905Z" fill="#B53B3B"/>
<path d="M55.9126 67.8888L57.0728 60.0308L51.7199 61.4257L55.9126 67.8888Z" stroke="#B53B3B" stroke-width="1.22773"/>
<path d="M62.1524 66.453L62.6802 58.5269L57.4562 60.3482L62.1524 66.453Z" fill="#B53B3B"/>
<path d="M61.8127 65.1063L61.8295 62.1929L61.4554 63.554L58.9005 60.1485L58.1631 60.3123L61.8127 65.1063Z" fill="#B53B3B"/>
<path d="M62.1524 66.453L62.6802 58.5269L57.4562 60.3482L62.1524 66.453Z" stroke="#B53B3B" stroke-width="1.22773"/>
<path d="M68.3833 64.4883V55.9556L62.9144 58.2827L68.3833 64.4883Z" fill="#B53B3B"/>
<path d="M67.9844 63.184L67.7945 60.0604L67.4907 61.546L64.5094 58.0796L63.7308 58.3081L67.9844 63.184Z" fill="#B53B3B"/>
<path d="M68.3833 64.4883V55.9556L62.9144 58.2827L68.3833 64.4883Z" stroke="#B53B3B" stroke-width="1.22773"/>
<path d="M69.5269 52.9819C68.8063 54.5512 63.3637 59.1099 46.177 62.7604C29.1852 66.3695 26.4672 68.0027 17.2829 67.5905" stroke="#B53B3B" stroke-width="2.45547"/>
<path d="M21.3181 51.369C22.674 47.7279 20.078 47.1184 18.4214 46.2965C18.4214 46.2965 18.9547 45.8077 20.078 45.7594C22.0278 45.6757 25.8836 46.1552 22.674 50.4864C21.9862 51.4146 21.3181 51.369 21.3181 51.369Z" fill="#B53B3B"/>
<path d="M49.9096 35.4658C50.0202 39.2065 52.8061 41.9335 55.877 41.8422C58.9479 41.7508 61.5679 38.863 61.4573 35.1223C61.3467 31.3817 58.5607 28.6546 55.4898 28.746C52.4189 28.8373 49.799 31.7252 49.9096 35.4658Z" fill="#B53B3B" stroke="#240046" stroke-width="2.45547"/>
<ellipse rx="2.00139" ry="3.51296" transform="matrix(-0.999558 0.0297307 0.0295526 0.999563 54.3099 35.757)" fill="#B53B3B"/>
<path d="M55.4535 27.5188C59.3201 27.4038 62.5575 30.7917 62.6845 35.0858C62.6963 35.4849 62.6808 35.8778 62.6399 36.2622L48.6798 35.0949C48.749 30.9843 51.7099 27.6301 55.4535 27.5188Z" fill="#B53B3B"/>
<path d="M50.8919 34.015C51.8624 31.9825 53.5269 30.6236 55.4538 30.5663C57.7452 30.4982 59.7751 32.2896 60.7561 34.9292L50.8919 34.015Z" fill="#B53B3B"/>
<path d="M50.0139 33.9745L61.4492 34.9306C61.251 31.2889 58.508 28.6562 55.4898 28.746C52.8407 28.8248 50.5307 30.9797 50.0139 33.9745Z" stroke="#B53B3B" stroke-width="2.45547"/>
<path d="M151.397 174.547C150.936 172.81 150.702 172.212 150.949 172.068L156.267 175.268C155.977 178.178 157.569 180.567 160.486 182.539C155.188 182.645 151.92 176.513 151.397 174.547Z" fill="#B53B3B"/>
<path d="M154.73 174.103C154.268 172.367 155.694 174.768 155.941 174.624L156.267 175.268C155.977 178.178 157.569 180.567 160.485 182.539C155.752 179.948 155.252 176.07 154.73 174.103Z" fill="#B53B3B"/>
<path d="M151.397 174.547C150.936 172.81 150.702 172.212 150.949 172.068L151.522 172.623C153.255 180 157.557 181.479 160.486 182.539C155.188 182.645 151.92 176.513 151.397 174.547Z" fill="#B53B3B"/>
<path d="M147.468 175.373C147.364 173.578 147.255 172.945 147.525 172.854L150.305 174.5L152.093 177.061C151.225 179.854 152.305 182.515 154.767 185.036C149.557 184.07 147.585 177.404 147.468 175.373Z" fill="#B53B3B"/>
<path d="M150.821 175.61C150.717 173.816 151.633 176.456 151.903 176.365L152.094 177.061C151.226 179.853 152.306 182.514 154.767 185.035C150.651 181.542 150.938 177.642 150.821 175.61Z" fill="#B53B3B"/>
<path d="M147.468 175.373C147.364 173.578 147.255 172.945 147.525 172.854L147.975 173.514C148.193 181.089 152.111 183.406 154.767 185.036C149.557 184.07 147.585 177.404 147.468 175.373Z" fill="#B53B3B"/>
<path d="M143.355 173.762C143.796 172.02 143.883 171.383 144.168 171.378L146.323 173.789L147.257 176.773C145.589 179.172 145.818 182.036 147.406 185.184C142.729 182.686 142.856 175.734 143.355 173.762Z" fill="#B53B3B"/>
<path d="M146.481 175.005C146.922 173.263 147 176.057 147.285 176.052L147.257 176.773C145.59 179.172 145.818 182.036 147.406 185.185C144.533 180.608 145.981 176.977 146.481 175.005Z" fill="#B53B3B"/>
<path d="M143.355 173.762C143.796 172.02 143.883 171.383 144.168 171.378L144.399 172.143C142.327 179.431 145.364 182.826 147.406 185.184C142.729 182.686 142.856 175.734 143.355 173.762Z" fill="#B53B3B"/>
<path d="M138.946 127.41C140.364 124.871 141.863 119.243 136.516 117.049C131.169 114.855 126.794 117.963 125.275 119.792C123.554 121.417 117.198 128.423 121.329 139.15C125.461 149.877 146.035 149.25 153.832 148.133C153.022 149.047 151.523 152.033 152.009 156.665C152.495 161.297 146.405 169.916 144.076 173.776C144.987 173.37 148.607 173.243 149.579 174.95C151.098 173.426 151.402 173.426 152.617 175.254C153.123 174.442 154.379 173.121 155.351 174.34C155.351 170.988 155.655 170.379 156.566 167.941C158.794 164.792 163.553 157.153 164.769 151.789C166.591 146.914 166.591 146.609 166.591 145.999C166.693 144.984 164.465 143.257 160.212 142.647C155.959 142.038 147.858 134.826 145.022 131.372C143.794 130.217 140.938 128.152 137.511 127.114C138.055 127.219 138.549 127.323 138.946 127.41Z" fill="#B53B3B"/>
<path d="M156.723 160.329C158.606 157.831 161.811 148.521 163.178 144.178L166.824 144.94L162.798 156.673L156.343 168.634L155.507 173.129C154.393 174.398 152.09 176.359 151.786 174.043H150.305L145.292 173.357C144.913 172.837 144.464 171.78 145.71 171.719C146.956 171.658 147.9 171.929 148.216 172.071C150.13 171.469 151.458 171.821 151.882 172.071C152.451 168.53 154.791 162.892 156.723 160.329Z" fill="#B53B3B"/>
<path d="M156.418 146.692C136.611 146.814 127.178 143.492 120.495 133.436C121.406 146.692 135.052 148.114 141.836 148.064C144.874 148.825 150.115 148.064 156.418 146.692Z" fill="#B53B3B"/>
<path d="M146.47 135.797C141.974 129.276 133.154 128.052 129.306 128.255L131.432 126.655L140.926 128.712L151.103 137.321L160.749 143.035C157.862 143.34 150.966 142.319 146.47 135.797Z" fill="#B53B3B"/>
<path d="M138.946 127.411C139.287 126.8 139.633 126.01 139.887 125.132M129.228 127.411C130.143 126.656 131.051 126.344 134.085 126.497C138.946 126.74 143.402 129.849 145.022 131.372C147.858 134.826 155.959 142.038 160.212 142.648C164.465 143.257 166.693 144.984 166.591 146C166.591 146.609 166.591 146.914 164.769 151.79C163.553 157.153 158.794 164.792 156.566 167.941C155.655 170.379 155.351 170.989 155.351 174.341C154.139 174.036 152.516 174.442 152.009 175.255C150.794 173.427 149.275 173.427 147.756 174.95C146.784 173.244 144.684 173.427 143.807 173.427C146.136 169.567 152.495 161.298 152.009 156.666C151.523 152.034 153.022 149.047 153.832 148.133C146.035 149.251 125.461 149.877 121.329 139.151C117.198 128.424 123.554 121.418 125.275 119.792C125.575 119.431 125.986 119.021 126.494 118.611" stroke="#B53B3B" stroke-width="2.45547" stroke-linecap="round"/>
<path d="M60.2387 37.2944C60.3493 41.0351 63.1352 43.7621 66.2061 43.6708C69.277 43.5795 71.897 40.6916 71.7864 36.951C71.6758 33.2103 68.8898 30.4833 65.8189 30.5746C62.748 30.6659 60.1281 33.5538 60.2387 37.2944Z" fill="#B53B3B" stroke="#240046" stroke-width="2.45547"/>
<ellipse rx="2.00139" ry="3.51296" transform="matrix(-0.999558 0.0297307 0.0295526 0.999563 64.639 37.5856)" fill="#B53B3B"/>
<path d="M65.7826 29.3474C69.6492 29.2324 72.8866 32.6203 73.0136 36.9145C73.0254 37.3135 73.0099 37.7064 72.969 38.0908L59.0089 36.9236C59.0781 32.8129 62.039 29.4587 65.7826 29.3474Z" fill="#B53B3B"/>
<path d="M61.221 35.8436C62.1915 33.8112 63.856 32.4523 65.7829 32.395C68.0743 32.3268 70.1042 34.1182 71.0852 36.7578L61.221 35.8436Z" fill="#B53B3B"/>
<path d="M60.343 35.8031L71.7783 36.7592C71.5801 33.1175 68.8371 30.4848 65.8189 30.5746C63.1698 30.6534 60.8598 32.8084 60.343 35.8031Z" stroke="#B53B3B" stroke-width="2.45547"/>
<path d="M58.1356 132.193C60.1112 132.028 60.8066 131.889 60.9146 132.187L56.4029 137.373C53.2997 136.488 50.3957 137.761 47.6846 140.563C48.6034 134.755 55.8989 132.38 58.1356 132.193Z" fill="#B53B3B"/>
<path d="M57.9672 135.92C59.943 135.755 57.0571 136.844 57.1651 137.142L56.4031 137.373C53.2996 136.488 50.3954 137.761 47.684 140.563C51.4215 135.898 55.7303 136.107 57.9672 135.92Z" fill="#B53B3B"/>
<path d="M58.1356 132.193C60.1112 132.028 60.8066 131.889 60.9146 132.187L60.1999 132.704C51.8527 133.159 49.4075 137.57 47.6846 140.563C48.6034 134.755 55.8989 132.38 58.1356 132.193Z" fill="#B53B3B"/>
<path d="M57.2296 127.006C59.2096 127.106 59.9171 127.062 59.9847 127.371L57.847 130.241L54.8238 131.907C51.8659 130.615 48.8186 131.488 45.7592 133.902C47.4419 128.269 54.9881 126.892 57.2296 127.006Z" fill="#B53B3B"/>
<path d="M56.5669 130.676C58.5469 130.777 55.5422 131.471 55.6097 131.78L54.8238 131.907C51.866 130.614 48.8186 131.488 45.7592 133.902C50.0832 129.778 54.3254 130.563 56.5669 130.676Z" fill="#B53B3B"/>
<path d="M57.2296 127.006C59.2096 127.106 59.9171 127.062 59.9847 127.371L59.2076 127.788C50.8745 127.122 47.8646 131.166 45.7592 133.902C47.4419 128.269 54.9881 126.892 57.2296 127.006Z" fill="#B53B3B"/>
<path d="M57.709 122.143C60.1021 122.227 60.9636 122.176 61.0215 122.487L58.2064 125.4L54.4111 127.105C50.9248 125.828 47.1618 126.735 43.2645 129.196C45.7425 123.502 54.9998 122.047 57.709 122.143Z" fill="#B53B3B"/>
<path d="M56.6201 125.85C59.0132 125.934 55.3158 126.659 55.3738 126.97L54.4109 127.105C50.9246 125.828 47.1616 126.735 43.2643 129.195C48.8279 125 53.9109 125.754 56.6201 125.85Z" fill="#B53B3B"/>
<path d="M57.709 122.143C60.1021 122.227 60.9636 122.176 61.0215 122.487L60.0468 122.915C49.994 122.315 46.03 126.419 43.2645 129.196C45.7425 123.502 54.9998 122.047 57.709 122.143Z" fill="#B53B3B"/>
<path d="M99.7521 150.779C105.055 134.727 100.947 120.663 98.2306 115.637L83.168 118.405C85.3887 120.433 85.9048 126.573 88.2827 130.395C87.0449 135.118 87.5286 140.909 87.9251 143.214C83.5705 143.79 77.1879 142.114 71.8847 137.7C66.9365 126.793 59.6099 122.371 56.5652 121.524L58.0488 136.284L61.0224 137.83L70.814 143.215C78.2505 152.424 94.4492 166.831 99.7521 150.779Z" fill="#B53B3B"/>
<path d="M94.8247 149.435C98.0449 146.51 100.192 141.258 100.521 135.493C102.04 144.407 100.445 146.083 98.4703 152.254C97.802 157.435 94.3438 157.917 92.6982 157.511C83.2806 155.606 72.3439 146.007 69.9135 142.654C66.2661 141.986 63.0773 139.227 61.9388 137.931L59.4325 137.321C58.0908 136.661 56.0148 135.295 58.4452 135.112C60.8755 134.929 62.749 135.645 63.3819 136.026C65.1287 138.388 65.5844 138.083 72.3439 141.435C81.5185 150.639 89.078 153.651 91.7109 154.006C91.4071 153.701 97.2551 155.225 94.8247 149.435Z" fill="#B53B3B"/>
<path d="M61.3308 126.122C59.6901 124.355 58.166 124.421 57.6089 124.675L57.0013 124.675L57.6089 121.399L64.5209 126.656C65.7362 128.281 67.7415 131.212 66.0401 129.932C64.3386 128.652 62.1916 126.859 61.3308 126.122Z" fill="#B53B3B"/>
<path d="M56.2373 121.664L55.5096 122.653C55.1049 122.355 54.9226 121.84 55.0494 121.354C55.1762 120.868 55.5865 120.508 56.0851 120.446L56.2373 121.664ZM68.8114 132.88L67.7432 133.484L67.7432 133.484L68.8114 132.88ZM88.9745 143.804L90.1912 143.641C90.2383 143.991 90.1321 144.345 89.8999 144.611C89.6677 144.877 89.332 145.03 88.9786 145.031L88.9745 143.804ZM98.7307 151.099L97.5032 151.115L97.4991 150.826L97.6243 150.566L98.7307 151.099ZM95.0664 157.633L94.7791 156.439C94.8262 156.428 94.8739 156.419 94.922 156.414L95.0664 157.633ZM81.0872 153.081L80.4568 154.135L80.4568 154.135L81.0872 153.081ZM70.4852 142.635L70.7984 141.448C71.2331 141.563 71.5703 141.906 71.6775 142.343L70.4852 142.635ZM61.6774 137.615L62.4826 136.688L62.7176 136.893L62.8269 137.184L61.6774 137.615ZM57.0989 133.056L56.4364 134.089C56.1062 133.877 55.897 133.52 55.8735 133.129C55.8499 132.737 56.0148 132.358 56.3173 132.108L57.0989 133.056ZM58.6334 131.642L58.8103 130.427L58.9337 130.445L59.051 130.488L58.6334 131.642ZM55.0313 126.362L54.9979 127.589L54.8581 125.146L55.0313 126.362ZM60.2613 128.632L60.9102 127.59C61.4071 127.9 61.6165 128.517 61.4103 129.065C61.2041 129.613 60.6398 129.939 60.0621 129.843L60.2613 128.632ZM56.1331 131.277L55.9563 132.492C55.5971 132.439 55.2795 132.23 55.0887 131.921C54.8979 131.613 54.8536 131.235 54.9675 130.89L56.1331 131.277ZM56.1776 127.976L55.8537 129.16L56.3736 126.764L56.1776 127.976ZM57.3978 136.738L56.1728 136.819C56.1565 136.574 56.2142 136.329 56.3385 136.117L57.3978 136.738ZM97.5524 120.014C97.3621 119.363 97.7354 118.681 98.3861 118.491C99.0369 118.301 99.7187 118.675 99.909 119.326L97.5524 120.014ZM88.5464 129.997L89.5896 129.35L89.8566 129.781L89.7425 130.274L88.5464 129.997ZM83.012 121.448C82.7911 120.807 83.1318 120.108 83.7728 119.888C84.4138 119.667 85.1125 120.008 85.3334 120.65L83.012 121.448ZM56.0851 120.446C58.114 120.194 60.3836 121.091 62.6678 122.989C64.9706 124.902 67.4233 127.936 69.8797 132.276L67.7432 133.484C65.378 129.306 63.1002 126.539 61.0996 124.877C59.0803 123.2 57.4735 122.748 56.3895 122.883L56.0851 120.446ZM69.8797 132.276C72.1187 136.231 75.7603 138.814 79.4645 140.413C83.1765 142.015 86.8453 142.582 88.9703 142.576L88.9786 145.031C86.5105 145.038 82.5085 144.401 78.4927 142.668C74.4691 140.931 70.3257 138.046 67.7432 133.484L69.8797 132.276ZM99.9582 151.082C99.9942 153.644 99.47 155.512 98.5586 156.8C97.6313 158.111 96.3767 158.715 95.2109 158.852L94.922 156.414C95.4428 156.352 96.054 156.088 96.554 155.381C97.0699 154.652 97.5346 153.352 97.5032 151.115L99.9582 151.082ZM95.3537 158.827C94.3098 159.077 92.4705 159.016 90.0242 158.375C87.5346 157.723 84.3124 156.444 80.4568 154.135L81.7175 152.028C85.4012 154.235 88.4095 155.414 90.645 156C92.9239 156.597 94.3047 156.553 94.7791 156.439L95.3537 158.827ZM80.4568 154.135C76.5947 151.821 73.9437 149.534 72.1932 147.585C70.4703 145.667 69.5576 144.006 69.2929 142.927L71.6775 142.343C71.8054 142.865 72.4241 144.169 74.0192 145.945C75.5868 147.69 78.0404 149.826 81.7175 152.028L80.4568 154.135ZM70.172 143.822C68.5152 143.384 66.4786 142.825 64.7115 141.986C62.9743 141.16 61.2399 139.945 60.5279 138.045L62.8269 137.184C63.1967 138.171 64.2006 139.025 65.7641 139.768C67.2976 140.497 69.1241 141.005 70.7984 141.448L70.172 143.822ZM56.3173 132.108C56.7877 131.72 57.3136 131.488 57.7383 131.338C58.14 131.197 58.5835 131.09 58.7394 131.045C58.8733 131.007 58.8227 131.011 58.7293 131.065C58.6905 131.088 58.472 131.213 58.32 131.497C58.2332 131.659 58.1752 131.861 58.1825 132.087C58.1896 132.307 58.2565 132.485 58.3257 132.61C58.4474 132.831 58.6031 132.938 58.6217 132.951C58.6606 132.978 58.6765 132.983 58.6442 132.968C58.5809 132.937 58.4511 132.882 58.2158 132.797L59.051 130.488C59.3073 130.581 59.5376 130.672 59.7231 130.762C59.8153 130.808 59.9279 130.868 60.0382 130.946C60.1281 131.009 60.3299 131.162 60.475 131.425C60.6643 131.768 60.7131 132.23 60.4851 132.656C60.3136 132.977 60.0552 133.136 59.959 133.192C59.7507 133.312 59.5146 133.378 59.4126 133.407C58.7908 133.584 58.2583 133.691 57.8806 134.003L56.3173 132.108ZM56.965 120.676C57.6042 121.147 57.8948 121.874 58.0165 122.485C58.1437 123.124 58.1276 123.824 57.9955 124.478C57.7558 125.666 56.9612 127.328 55.2045 127.577L54.8581 125.146C55.0177 125.123 55.4117 124.868 55.5887 123.991C55.665 123.613 55.6643 123.244 55.6085 122.963C55.5471 122.655 55.456 122.613 55.5096 122.653L56.965 120.676ZM55.0647 125.134C56.4492 125.173 57.6682 125.655 58.6429 126.174C59.5682 126.667 60.4682 127.314 60.9102 127.59L59.6124 129.674C58.9314 129.249 58.338 128.793 57.4899 128.341C56.6912 127.916 55.8567 127.613 54.9979 127.589L55.0647 125.134ZM54.9675 130.89C55.0596 130.612 55.2116 130.257 55.3211 129.987C55.4457 129.68 55.5499 129.405 55.6149 129.164C55.6859 128.899 55.672 128.807 55.6755 128.827C55.6805 128.854 55.701 128.933 55.7699 129.022C55.8424 129.116 55.9253 129.164 55.973 129.184L56.8869 126.905C57.594 127.189 57.9769 127.767 58.0903 128.384C58.1866 128.908 58.0871 129.427 57.986 129.802C57.8789 130.201 57.7246 130.596 57.596 130.912C57.4525 131.266 57.3568 131.487 57.2987 131.663L54.9675 130.89ZM55.973 129.184C55.9945 129.192 55.9998 129.191 55.9817 129.188L56.3736 126.764C56.545 126.792 56.7178 126.837 56.8868 126.905L55.973 129.184ZM56.5016 126.792C56.585 126.815 56.6652 126.837 56.7423 126.857L56.1175 129.231C56.0323 129.209 55.9444 129.185 55.8537 129.16L56.5016 126.792ZM56.7423 126.857C57.6803 127.104 58.1808 127.174 58.6231 127.216C59.0763 127.259 59.6218 127.282 60.4605 127.42L60.0621 129.843C59.3346 129.723 58.9638 129.715 58.3924 129.661C57.8103 129.606 57.1781 129.511 56.1175 129.231L56.7423 126.857ZM60.8722 138.541C61.0078 138.659 61.1018 138.664 60.9885 138.632C60.9086 138.61 60.7794 138.584 60.5912 138.558C60.2112 138.505 59.7472 138.472 59.2312 138.432C58.752 138.394 58.2017 138.349 57.7636 138.263C57.5531 138.222 57.275 138.155 57.0199 138.027C56.8201 137.927 56.2235 137.581 56.1728 136.819L58.6227 136.657C58.6033 136.365 58.4721 136.146 58.3513 136.014C58.2436 135.896 58.1431 135.844 58.1171 135.831C58.0709 135.808 58.0882 135.825 58.2335 135.853C58.5071 135.907 58.9108 135.944 59.4209 135.983C59.8941 136.02 60.4546 136.06 60.9275 136.125C61.1657 136.158 61.4199 136.203 61.6546 136.269C61.856 136.326 62.1958 136.439 62.4826 136.688L60.8722 138.541ZM56.3385 136.117C56.4471 135.932 56.6086 135.41 56.6087 134.847C56.6087 134.581 56.5718 134.374 56.5204 134.236C56.4959 134.17 56.4725 134.132 56.4575 134.111C56.4438 134.093 56.4367 134.089 56.4364 134.089L57.7615 132.022C58.8506 132.721 59.0641 134.002 59.064 134.848C59.0638 135.745 58.833 136.718 58.457 137.359L56.3385 136.117ZM58.4566 132.857L55.9563 132.492L56.3099 130.062L58.8103 130.427L58.4566 132.857ZM97.6243 150.566C100.189 145.234 101.98 135.159 97.5524 120.014L99.909 119.326C104.466 134.913 102.721 145.634 99.8371 151.632L97.6243 150.566ZM87.7578 143.966C87.354 140.962 85.9222 135.897 87.3503 129.72L89.7425 130.274C88.446 135.883 89.7388 140.274 90.1912 143.641L87.7578 143.966ZM87.5032 130.644C85.7231 127.773 84.8973 126.372 84.3691 125.227C83.8442 124.088 83.6015 123.16 83.012 121.448L85.3334 120.65C85.9877 122.55 86.1423 123.21 86.5987 124.2C87.0516 125.182 87.7908 126.45 89.5896 129.35L87.5032 130.644Z" fill="#B53B3B"/>
<path d="M194.848 43.6148C195.213 29.7187 211.911 25.432 220.215 25.0257C202.848 21.0641 159.243 17.2853 123.76 33.8632C117.712 36.6887 103.811 48.1859 116.013 44.9862C120.672 58.4455 128.894 87.5584 124.52 96.3349C137.127 78.5076 153.886 65.5053 164.62 64.4895C169.177 52.4523 177.076 44.6814 194.848 43.6148Z" fill="#B53B3B"/>
<path d="M220.215 25.0254C211.911 25.4317 195.213 29.7184 194.848 43.6145C177.076 44.6811 169.177 52.452 164.62 64.4892C153.886 65.505 136.368 79.2691 119.963 102.582" stroke="#B53B3B" stroke-width="2.45547" stroke-linecap="round" stroke-linejoin="round"/>
<path d="M124.258 58.8552C122.615 48.4026 138.913 50.0358 147.267 52.159C139.05 37.0028 161.237 35.2825 173.358 36.3169C160.703 30.4373 175.892 24.6122 185.068 22.4346L131.859 29.2941L114.192 42.6864C118.232 52.4312 125.902 69.3077 124.258 58.8552Z" fill="#B53B3B"/>
<path d="M120.419 90.5443C119.568 98.9551 105.584 104.41 98.6975 106.086L110.09 111.571C117.381 107.061 123.457 99.2294 126.95 90.5443C130.596 71.9552 119.583 51.6899 115.71 43.1572C127.862 41.3288 152.469 56.3118 163.254 64.0319C154.52 51.309 133.938 41.024 119.583 39.4241C133.923 33.9388 178.899 40.1479 191.013 42.0906C172.785 36.2244 154.14 29.4439 122.545 34.9292C157.543 22.252 202.342 22.7396 220.367 24.5681C211.132 18.1076 185.026 17.5083 173.127 18.0162C146.697 20.2509 118.292 24.2633 106.596 39.9574C119.356 55.1945 121.482 80.0308 120.419 90.5443Z" fill="#B53B3B"/>
<path d="M173.127 18.0162C146.697 20.2509 119.584 23.9967 107.888 39.6908C107.888 39.6908 108.058 41.005 108.723 41.6335C113.204 41.2526 110.698 37.291 110.698 37.291C130.706 22.6042 176.72 18.7272 198.685 18.7737C189.231 17.7869 179.28 17.7535 173.127 18.0162Z" fill="#B53B3B"/>
<path d="M213.987 21.8254C159.669 19.1437 129.786 28.936 121.634 34.1674C120.824 34.6753 121.664 34.8988 131.507 31.7295C141.35 28.5602 172.266 25.1268 186.494 23.8062C218.291 24.2634 216.721 23.8062 213.987 21.8254Z" fill="#B53B3B"/>
<path d="M98.6975 106.086C105.584 104.41 119.568 98.9551 120.419 90.5443C121.482 80.0308 119.356 55.1945 106.596 39.9574C112.065 40.2241 108.13 38.0341 108.99 37.139C121.849 23.7668 148.355 20.1107 173.127 18.0162C185.026 17.5083 211.132 18.1076 220.367 24.5681C202.342 22.7396 157.543 22.252 122.545 34.9292C154.14 29.4439 176.469 37.291 194.697 43.1572C182.583 41.2145 133.923 33.9388 119.583 39.4241C133.938 41.024 155.887 51.9185 164.621 64.6414C153.836 56.9213 127.862 41.3288 115.71 43.1572C119.583 51.6899 130.596 71.9552 126.95 90.5443C123.457 99.2294 117.381 107.061 110.09 111.571" stroke="#B53B3B" stroke-width="2.45547" stroke-linecap="round" stroke-linejoin="round"/>
<path d="M104.603 38.3916C105.805 40.2153 105.848 40.5786 106.505 40.8028C107.162 41.027 108.95 40.6025 109.884 39.7647C111.038 38.7304 109.841 36.7689 109.841 36.7689C106.885 34.6858 102.786 28.4221 102.469 23.6263C99.9761 30.2928 103.242 36.327 104.603 38.3916Z" fill="#B53B3B"/>
<path d="M105.672 32.0391C103.997 29.4313 102.645 26.3006 102.468 23.6263C101.069 27.367 101.483 30.9086 102.357 33.6615C101.99 30.7628 102.025 27.6552 105.672 32.0391Z" fill="#B53B3B"/>
</mask>
<g mask="url(#mask0)">
<rect x="0.873535" y="0.992188" width="280.937" height="188.672" fill="#B53B3B"/>
</g>
</svg>
