<svg xmlns="http://www.w3.org/2000/svg" viewBox="0 0 128.32 107.08"><defs><style>.cls-1{fill:#b53b3b;}.cls-1,.cls-2,.cls-4,.cls-5{stroke:#0f0f0f;stroke-linecap:round;stroke-miterlimit:10;}.cls-1,.cls-2,.cls-4{stroke-width:1.36px;}.cls-2,.cls-3{fill:#fffce8;}.cls-4,.cls-5{fill:none;}.cls-5{stroke-width:1.54px;}.cls-6{fill:#0f0f0f;}</style></defs><g id="top"><path class="cls-1" d="M115.12,3.51l.07.08s.28.3,1,4.07c1,5.52,2.84,8.64,8.51,13s0,14.9,0,14.9-10.41,8.25-28.5,12c-19.65,4.09-48.3,3.56-80.55-.9L5.53,35.85s-5.75-11-1.79-16.22,5.17-4.94,4.92-10c0,0,31.17,6.5,52.11,6.5,8-.11,15.29.62,35-5.41,4.9-1.63,13.8-4.62,19.39-7.13"/><path class="cls-2" d="M8.36,27.05S-3.73,51.74,11.21,88.33,24,93.61,24,93.61,22.9,67,30.21,56.52c0,0,4.17-8.74-.61-14.13S16.19,25.73,16.19,25.73,11,19.24,8.36,27.05Z"/><path class="cls-2" d="M45.39,45.11s-1.07-4.7-5.63-4.13-6.64,6.44-6.64,6.44-2.89,4.69-1.22,12.2S45.39,79.83,45.39,79.83,48,83,47.76,74.63a35.86,35.86,0,0,1,3.42-15.3.52.52,0,0,0,.07-.27.49.49,0,0,0-.08-.24c-.49-.89-1-1.79-1.45-2.68Z"/><path class="cls-2" d="M56.9,45.17s-4.7-11.2-7.82,0S55,63.25,55,63.25s4.32,2,5.19-4.19S56.9,45.17,56.9,45.17Z"/><path class="cls-2" d="M69.72,47.81S68.35,41.15,65.48,39,59,42.74,59,42.74s-1.5,1.34-.15,7.07S60,53.74,60,53.74s-.1,5.95,1.72,6.94,3.45,2.25,7.12,0C71.76,58.86,69.72,47.81,69.72,47.81Z"/><path class="cls-2" d="M80.39,44.78s-1.36-5.15-6-5.6-4.8,8.16-4.8,8.16l.71,5.38c.22,1.81,0,3.77.74,5.5s2.51,3.4,4.33,3.29c1.37-.08,4-.12,4.93-1.33,1.12-1.5,1.31-3.91,1.28-5.71A59.48,59.48,0,0,0,80.39,44.78Z"/><path class="cls-2" d="M93.91,43.26s-3.33-5-9.5-1.21c0,0-3.55,3-2.81,9.82,0,0-.75,6.93,0,9.65s4.3,10.72,4.21,15.1C88.56,76.34,100.25,58.38,93.91,43.26Z"/><path class="cls-3" d="M106.89,29.59s-7.24,4.32-10,12.44,2.71,21.53,2.71,21.53,4.43,5.83,6.38,35.26c0,0,.32,14.17,5.62,2.7s8.92-15,13.09-50.3C129.07,14.66,106.89,29.59,106.89,29.59Z"/><path class="cls-4" d="M81.6,46.47s1.35-10-.67-15.87"/><path class="cls-4" d="M69.46,44.22s.73-4.44-.2-14.09"/><path class="cls-4" d="M49.19,44.77s-2.66-11.53-2.5-17"/><path class="cls-5" d="M58.05,45.38S56.44,35,57.24,30.13"/><path class="cls-4" d="M32.21,46.63s5.42-3.79,3.66-12.92c-1.32-6.85-.16-8.64-.16-8.64"/><path class="cls-4" d="M96.32,44.91a13,13,0,0,0-1.07-9.41c-2.57-4.59-2.65-6.93-2.65-6.93"/><path class="cls-4" d="M120.61,1S96,13.21,73.18,15.68,9,9.63,9,9.63,1.78,7.54.92,3.09"/><path class="cls-6" d="M100.63,35.32a16,16,0,0,0,4,12.21c-2.69-5.19-2.21-14.3-2.21-14.3Z"/><path class="cls-6" d="M22.73,34.09s0,12.21,1.07,14.58-3.42-2-3.13-17.19Z"/><path class="cls-4" d="M106.89,29.59s-7.24,4.32-10,12.44,2.71,21.53,2.71,21.53,4.43,5.83,6.38,35.26c0,0,.32,14.17,5.62,2.7s8.92-15,13.09-50.3C129.07,14.66,106.89,29.59,106.89,29.59Z"/></g></svg>