<svg width="331" height="296" viewBox="0 0 331 296" fill="none" xmlns="http://www.w3.org/2000/svg">
<circle cx="166.211" cy="147.972" r="146.536" fill="#0C0E19"/>
<circle cx="166.211" cy="147.972" r="146.536" fill="url(#paint0_radial)"/>
<circle cx="166.211" cy="147.972" r="146.536" stroke="#2A294C" stroke-width="2.87325"/>
<mask id="mask0" mask-type="alpha" maskUnits="userSpaceOnUse" x="21" y="2" width="291" height="292">
<circle cx="166.211" cy="147.972" r="145.099" fill="#C4C4C4"/>
</mask>
<g mask="url(#mask0)">
<path d="M135.683 233.451L110.183 258.592V299.536H198.176L135.683 233.451Z" fill="#232341"/>
<path d="M198.176 299.536L135.683 233.451L136.097 237.043L195.302 299.536H196.739H198.176Z" fill="#3E3E70"/>
<path d="M135.683 233.451L110.183 258.592L132.091 267.93L136.76 253.564L135.683 249.254L136.76 242.789L135.683 233.451Z" fill="#17172C"/>
<path d="M-14.085 230.818L61.7083 168.128L127.594 261.825L134.413 271.522L152.403 297.105L120.287 309.952H-14.085V230.818Z" fill="#232341"/>
<path d="M61.7083 168.128V180.204L56.5698 185.085L57.3405 212.577V230.818L35.5018 246.491L-14.085 230.818L61.7083 168.128Z" fill="#17172C"/>
<path d="M15.9651 139.352L58.3579 210.007V249.317H-6.90137L15.9651 139.352Z" fill="#232341"/>
<path d="M15.2178 142.944L15.9646 139.352L57.2369 208.14L57.3871 211.902L15.2178 142.944Z" fill="#3E3E70"/>
<path d="M61.708 169.565V171.72L131.302 270.689L132.091 267.93L131.804 267.811L61.708 168.128V169.565Z" fill="#3E3E70"/>
</g>
<g filter="url(#filter0_d)">
<circle cx="243.43" cy="80.0917" r="28.3733" fill="white" fill-opacity="0.6"/>
</g>
<g filter="url(#filter1_d)">
<circle cx="243.43" cy="80.0916" r="24.0634" fill="white" fill-opacity="0.6"/>
</g>
<circle cx="243.43" cy="80.0917" r="19.7536" fill="white"/>
<path d="M173.46 85.1997C174.065 85.2002 174.669 85.2368 175.269 85.3089C176.899 80.0012 181.796 76.3738 187.348 76.3625C188.73 76.361 190.102 76.5906 191.408 77.0404C194.641 70.0489 202.304 66.2493 209.826 67.9074C217.349 69.566 222.703 76.2346 222.697 83.9371C222.697 85.2684 222.531 86.5942 222.205 87.884C229.372 88.9782 234.493 95.4013 233.96 102.632C233.428 109.863 227.422 115.468 220.173 115.5H173.46C165.093 115.5 158.31 108.717 158.31 100.35C158.31 91.9824 165.093 85.1997 173.46 85.1997Z" fill="#232341"/>
<path d="M173.46 85.1997C174.065 85.2002 174.669 85.2368 175.269 85.3089C176.899 80.0012 181.796 76.3738 187.348 76.3625C188.73 76.361 190.102 76.5906 191.408 77.0404C194.641 70.0489 202.304 66.2493 209.826 67.9074C217.349 69.566 222.703 76.2346 222.697 83.9371C222.697 85.2684 222.531 86.5942 222.205 87.884C229.372 88.9782 234.493 95.4013 233.96 102.632C233.428 109.863 227.422 115.468 220.173 115.5H173.46C165.093 115.5 158.31 108.717 158.31 100.35C158.31 91.9824 165.093 85.1997 173.46 85.1997Z" fill="#3E3E70"/>
<path d="M173.229 86.6379C173.825 86.6384 174.42 86.6742 175.011 86.7449C176.616 81.5374 181.438 77.9785 186.905 77.9673C188.266 77.9659 189.617 78.1911 190.904 78.6325C194.087 71.7729 201.633 68.0449 209.04 69.6717C216.448 71.2991 221.721 77.8418 221.715 85.3991C221.715 86.7052 221.551 88.006 221.231 89.2715C228.289 90.3451 233.331 96.647 232.806 103.741C232.283 110.836 226.368 116.335 219.229 116.366H173.229C164.99 116.366 158.311 109.711 158.311 101.502C158.311 93.2926 164.99 86.6379 173.229 86.6379Z" fill="#141426"/>
<path d="M173.432 86.3115C174.036 86.312 174.639 86.3471 175.238 86.4166C176.865 81.307 181.752 77.815 187.294 77.8041C188.673 77.8027 190.043 78.0237 191.347 78.4567C194.574 71.7262 202.222 68.0684 209.73 69.6646C217.238 71.2613 222.582 77.681 222.577 85.096C222.576 86.3776 222.411 87.6539 222.086 88.8955C229.239 89.9489 234.35 96.1323 233.818 103.093C233.288 110.054 227.293 115.45 220.057 115.481H173.432C165.081 115.481 158.311 108.951 158.311 100.896C158.311 92.841 165.081 86.3115 173.432 86.3115Z" fill="#2B2B4E"/>
<path fill-rule="evenodd" clip-rule="evenodd" d="M157.664 24.7098H157.664L157.659 26.2902C157.225 26.2876 156.874 25.9348 156.874 25.5001C156.874 25.0637 157.228 24.7099 157.664 24.7099V24.7098Z" fill="#E1B554"/>
<path fill-rule="evenodd" clip-rule="evenodd" d="M43.2368 162.482V162.482H43.2368C42.9194 162.482 42.6621 162.739 42.6621 163.057C42.6621 163.371 42.9149 163.627 43.2284 163.631L43.2367 163.631C44.1888 163.631 44.9606 164.403 44.9606 165.355H44.9607C44.9608 165.673 45.218 165.93 45.5354 165.93C45.8499 165.93 46.1054 165.677 46.11 165.364C46.11 165.361 46.11 165.358 46.11 165.355C46.11 164.403 46.8818 163.631 47.8339 163.631C47.8367 163.631 47.8395 163.631 47.8424 163.631C48.1559 163.627 48.4086 163.371 48.4086 163.057C48.4086 162.739 48.1514 162.482 47.834 162.482V162.482H47.8339C46.8818 162.482 46.11 161.71 46.11 160.758L46.11 160.75C46.1055 160.436 45.85 160.183 45.5354 160.183C45.218 160.183 44.9608 160.441 44.9607 160.758H44.9606V160.758C44.9606 161.71 44.1889 162.482 43.2368 162.482Z" fill="#E1B554"/>
<path fill-rule="evenodd" clip-rule="evenodd" d="M288.181 156.736V156.736H288.181C287.864 156.736 287.606 156.993 287.606 157.31C287.606 157.624 287.858 157.88 288.171 157.885L288.181 157.885C289.133 157.885 289.905 158.657 289.905 159.609V159.609H289.905C289.905 159.926 290.162 160.183 290.48 160.183C290.797 160.183 291.054 159.926 291.054 159.609H291.054C291.054 159.609 291.054 159.609 291.054 159.609C291.054 158.657 291.826 157.885 292.778 157.885C292.782 157.885 292.786 157.885 292.79 157.885C293.102 157.879 293.353 157.624 293.353 157.31C293.353 156.993 293.096 156.736 292.778 156.736V156.736H292.778C291.826 156.736 291.054 155.964 291.054 155.012L291.054 155.005C291.051 154.691 290.795 154.437 290.48 154.437C290.162 154.437 289.905 154.694 289.905 155.012H289.905C289.905 155.964 289.133 156.736 288.181 156.736Z" fill="#E1B554"/>
<path fill-rule="evenodd" clip-rule="evenodd" d="M193.579 47.6957H193.579C194.888 47.6957 195.95 46.6344 195.95 45.3252L195.95 45.3166C195.954 44.8843 196.306 44.5353 196.74 44.5353C197.176 44.5353 197.53 44.889 197.53 45.3254C197.53 46.6345 198.591 47.6957 199.9 47.6957V47.6958H199.9C200.337 47.6958 200.691 48.0496 200.691 48.486C200.691 48.9215 200.338 49.2748 199.903 49.2761C199.902 49.2761 199.901 49.2761 199.9 49.2761C198.591 49.2761 197.53 50.3374 197.53 51.6465V51.6465C197.53 52.0829 197.176 52.4367 196.74 52.4367C196.307 52.4367 195.955 52.0885 195.95 51.6569L195.95 51.6465C195.95 50.3373 194.888 49.2761 193.579 49.2761L193.572 49.2761C193.139 49.2724 192.789 48.9201 192.789 48.486C192.789 48.0496 193.143 47.6958 193.579 47.6958V47.6957Z" fill="#E1B554"/>
<path fill-rule="evenodd" clip-rule="evenodd" d="M75.7764 99.4143H75.7764C77.0856 99.4143 78.1468 98.353 78.1468 97.0439L78.1468 97.0359C78.1512 96.6032 78.5032 96.2538 78.9369 96.2538C79.3709 96.2538 79.7232 96.6037 79.727 97.0368L79.727 97.0438C79.727 98.353 80.7883 99.4143 82.0975 99.4143H82.0975V99.4144H82.0976C82.5339 99.4144 82.8877 99.7681 82.8877 100.205C82.8877 100.638 82.5384 100.99 82.1059 100.995" fill="#E1B554"/>
<path fill-rule="evenodd" clip-rule="evenodd" d="M51.7128 83.6114H51.7128C53.617 83.6114 55.1607 82.0677 55.1607 80.1635L55.1607 80.1529C55.1664 79.5231 55.6788 79.0143 56.31 79.0143C56.942 79.0143 57.455 79.5246 57.4592 80.1557L57.4592 80.1635C57.4592 82.0677 59.0029 83.6114 60.9071 83.6114H60.9072V83.6115H60.9072C61.5419 83.6115 62.0565 84.1261 62.0565 84.7608C62.0565 85.3915 61.5485 85.9035 60.9194 85.91C60.9153 85.91 60.9113 85.91 60.9072 85.91C59.003 85.91 57.4593 87.4537 57.4593 89.3579C57.4593 89.3579 57.4593 89.3579 57.4593 89.358H57.4593C57.4592 89.9927 56.9447 90.5072 56.31 90.5072C55.6783 90.5072 55.1656 89.9976 55.1607 89.3671L55.1607 89.3579C55.1607 87.4537 53.617 85.91 51.7128 85.91L51.7008 85.91C51.0716 85.9036 50.5635 85.3916 50.5635 84.7608C50.5635 84.1261 51.078 83.6115 51.7128 83.6115V83.6114Z" fill="#E1B554"/>
<path d="M127.839 65.9421C127.11 65.9425 126.382 65.9764 125.658 66.0432C123.694 61.1258 117.792 57.7651 111.1 57.7546C109.434 57.7533 107.78 57.966 106.206 58.3827C102.309 51.9053 93.0735 48.385 84.0076 49.9212C74.9404 51.4579 68.4872 57.6361 68.4937 64.7723C68.4943 66.0057 68.6943 67.234 69.0865 68.4289C60.4485 69.4427 54.2767 75.3936 54.9189 82.0924C55.5599 88.7917 62.7987 93.9845 71.5367 94.0143H127.839C137.924 94.0143 146.099 87.7299 146.099 79.9779C146.099 72.226 137.924 65.9421 127.839 65.9421Z" fill="#232341"/>
<path d="M127.839 65.9421C127.11 65.9425 126.382 65.9764 125.658 66.0432C123.694 61.1258 117.792 57.7651 111.1 57.7546C109.434 57.7533 107.78 57.966 106.206 58.3827C102.309 51.9053 93.0735 48.385 84.0076 49.9212C74.9404 51.4579 68.4872 57.6361 68.4937 64.7723C68.4943 66.0057 68.6943 67.234 69.0865 68.4289C60.4485 69.4427 54.2767 75.3936 54.9189 82.0924C55.5599 88.7917 62.7987 93.9845 71.5367 94.0143H127.839C137.924 94.0143 146.099 87.7299 146.099 79.9779C146.099 72.226 137.924 65.9421 127.839 65.9421Z" fill="#3E3E70"/>
<path d="M128.117 67.2745C127.399 67.2749 126.683 67.3082 125.97 67.3737C124.035 62.549 118.224 59.2518 111.634 59.2415C109.993 59.2401 108.365 59.4488 106.815 59.8577C102.977 53.5025 93.8824 50.0486 84.9547 51.5559C76.0259 53.0635 69.6711 59.1252 69.6775 66.1268C69.6781 67.3369 69.875 68.542 70.2613 69.7144C61.755 70.7091 55.6774 76.5477 56.3098 83.1202C56.941 89.6931 64.0694 94.788 72.6741 94.8171H128.117C138.048 94.8171 146.099 88.6513 146.099 81.0456C146.099 73.4399 138.048 67.2745 128.117 67.2745Z" fill="#141426"/>
<path d="M127.873 66.9721C127.146 66.9726 126.419 67.0051 125.697 67.0694C123.736 62.3356 117.846 59.1004 111.166 59.0902C109.504 59.0889 107.853 59.2937 106.281 59.6949C102.392 53.4593 93.1736 50.0704 84.1247 51.5492C75.0746 53.0286 68.6335 58.9762 68.64 65.846C68.6406 67.0333 68.8402 68.2158 69.2317 69.3661C60.6099 70.3421 54.4497 76.0708 55.0907 82.5196C55.7305 88.9689 62.9557 93.9679 71.6773 93.9965H127.873C137.939 93.9965 146.099 87.9467 146.099 80.4841C146.099 73.0215 137.939 66.9721 127.873 66.9721Z" fill="#2B2B4E"/>
<path fill-rule="evenodd" clip-rule="evenodd" d="M112.051 37.6394V37.6396C111.416 37.6396 110.901 38.1541 110.901 38.7889C110.901 39.421 111.412 39.9339 112.043 39.9381L112.051 39.9381C113.955 39.9381 115.499 41.4818 115.499 43.386L115.499 43.386C115.499 44.0207 116.013 44.5353 116.648 44.5353C117.281 44.5353 117.794 44.0238 117.797 43.3918C117.797 43.3899 117.797 43.3879 117.797 43.386C117.797 41.4818 119.341 39.9381 121.245 39.9381C121.248 39.9381 121.25 39.9381 121.253 39.9381C121.884 39.9339 122.394 39.421 122.394 38.7889C122.394 38.1541 121.88 37.6396 121.245 37.6396H121.245V37.6394H121.245C119.341 37.6394 117.797 36.0958 117.797 34.1915L117.797 34.178C117.79 33.5496 117.278 33.0424 116.648 33.0424C116.013 33.0424 115.499 33.5569 115.499 34.1916H115.499C115.498 36.0958 113.955 37.6394 112.051 37.6394Z" fill="#E1B554"/>
<path fill-rule="evenodd" clip-rule="evenodd" d="M139.347 54.879H139.347C141.251 54.879 142.795 53.3353 142.795 51.4311L142.795 51.4215C142.8 50.7912 143.312 50.2819 143.944 50.2819C144.577 50.2819 145.09 50.7933 145.093 51.4254L145.093 51.4311C145.093 53.3353 146.637 54.879 148.541 54.879H148.541V54.8791H148.541C149.176 54.8791 149.69 55.3936 149.69 56.0284C149.69 56.6612 149.179 57.1745 148.547 57.1777" fill="#E1B554"/>
<path d="M270.388 170.599C268.189 169.788 267.44 169.412 267.224 169.715L270.735 177.028C274.549 177.001 277.459 179.362 279.667 183.399C280.445 176.513 272.878 171.516 270.388 170.599Z" fill="#240046"/>
<path d="M269.41 174.885C267.211 174.075 270.157 176.222 269.94 176.526L270.736 177.028C274.55 177.001 277.459 179.362 279.668 183.399C276.875 176.922 271.9 175.803 269.41 174.885Z" fill="#5A189A"/>
<path d="M270.388 170.599C268.189 169.788 267.44 169.412 267.224 169.715L267.876 170.528C277.244 173.675 278.645 179.457 279.667 183.399C280.445 176.513 272.878 171.516 270.388 170.599Z" fill="#190031"/>
<path d="M273.05 164.991C270.763 164.482 269.97 164.208 269.796 164.538L271.33 168.472L274.252 171.317C278.028 170.782 281.226 172.734 283.954 176.44C283.806 169.511 275.64 165.568 273.05 164.991Z" fill="#240046"/>
<path d="M272.652 169.37C270.364 168.86 273.57 170.595 273.396 170.925L274.252 171.317C278.028 170.781 281.226 172.734 283.954 176.44C280.322 170.393 275.242 169.947 272.652 169.37Z" fill="#5A189A"/>
<path d="M273.05 164.991C270.763 164.482 269.97 164.208 269.796 164.538L270.551 165.257C280.255 167.126 282.414 172.669 283.954 176.44C283.806 169.511 275.64 165.569 273.05 164.991Z" fill="#190031"/>
<path d="M274.032 159.317C271.278 158.658 270.313 158.329 270.149 158.664L272.442 162.86L276.23 165.993C280.604 165.641 284.607 167.857 288.275 171.88C287.24 164.632 277.149 160.062 274.032 159.317Z" fill="#240046"/>
<path d="M274.108 163.871C271.355 163.212 275.34 165.202 275.176 165.537L276.231 165.993C280.605 165.641 284.607 167.857 288.275 171.88C283.254 165.362 277.225 164.616 274.108 163.871Z" fill="#5A189A"/>
<path d="M274.032 159.317C271.278 158.658 270.313 158.329 270.149 158.664L271.126 159.457C282.769 161.944 285.996 167.855 288.275 171.881C287.24 164.632 277.149 160.062 274.032 159.317Z" fill="#190031"/>
<path d="M217.128 178.594C216.129 158.69 225.228 144.008 229.902 139.156L246.196 147.046C243.028 148.651 240.511 155.462 236.601 159.055C236.527 164.81 234.157 171.235 232.981 173.728C237.762 175.756 245.561 175.863 252.991 172.521C262.056 161.69 271.793 158.977 275.529 158.974L269.201 175.272L265.327 176.091L252.478 179.122C241.111 187.24 218.128 198.499 217.128 178.594Z" fill="#5A189A"/>
<path d="M259.08 168.847C262.959 165.04 270.932 160.855 273.895 162.561L275.242 159.239L264.826 161.843C261.294 165.764 255.201 172.654 259.08 168.847Z" fill="#9D4EDD"/>
<path d="M264.198 172.169C261.9 171.953 259.05 174.294 257.913 175.491L256.387 178.185L258.542 178.723L265.096 175.491L269.227 175.491L269.227 173.426C268.508 173.097 266.497 172.384 264.198 172.169Z" fill="black" fill-opacity="0.3"/>
<path d="M275.858 159.237L276.369 160.579C276.919 160.37 277.286 159.846 277.295 159.258C277.304 158.669 276.952 158.135 276.409 157.91L275.858 159.237ZM258.007 168.014L259.022 169.031L258.007 168.014ZM231.6 174.068L230.559 173.078C230.212 173.444 230.082 173.964 230.216 174.45C230.35 174.936 230.728 175.316 231.214 175.451L231.6 174.068ZM218.192 179.28L219.571 179.682L219.666 179.357L219.605 179.023L218.192 179.28ZM220.314 187.857L221.009 186.599C220.959 186.572 220.908 186.548 220.856 186.526L220.314 187.857ZM237.673 187.092L238.054 188.477L237.673 187.092ZM253.035 178.567L253.053 177.131C252.527 177.125 252.039 177.406 251.782 177.865L253.035 178.567ZM264.649 175.64L264.031 174.343L263.702 174.5L263.487 174.794L264.649 175.64ZM271.298 171.904L271.721 173.277C272.161 173.142 272.509 172.804 272.657 172.369C272.806 171.934 272.738 171.454 272.473 171.078L271.298 171.904ZM269.993 169.816L270.173 168.39L270.028 168.372L269.883 168.383L269.993 169.816ZM275.757 164.952L275.413 166.347L276.33 163.635L275.757 164.952ZM269.084 165.883L268.679 164.505C268.021 164.698 267.592 165.329 267.653 166.011C267.715 166.694 268.25 167.238 268.931 167.311L269.084 165.883ZM272.957 170.188L272.778 171.614C273.2 171.667 273.623 171.53 273.935 171.241C274.246 170.952 274.413 170.54 274.392 170.116L272.957 170.188ZM273.943 166.425L273.939 167.862L274.1 164.997L273.943 166.425ZM269.8 175.993L271.156 176.468C271.252 176.195 271.263 175.901 271.188 175.622L269.8 175.993ZM236.426 158.52L235.452 157.463L234.838 158.03L235.026 158.844L236.426 158.52ZM276.409 157.91C274.183 156.986 271.321 157.289 268.124 158.723C264.901 160.17 261.154 162.843 256.992 166.997L259.022 169.031C263.03 165.029 266.496 162.603 269.3 161.345C272.13 160.075 274.108 160.066 275.308 160.564L276.409 157.91ZM256.992 166.997C253.196 170.787 248.232 172.575 243.506 173.224C238.77 173.875 234.409 173.361 231.987 172.684L231.214 175.451C234.021 176.236 238.779 176.774 243.897 176.071C249.024 175.366 254.649 173.396 259.022 169.031L256.992 166.997ZM216.813 178.877C215.967 181.776 215.978 184.061 216.611 185.81C217.255 187.588 218.492 188.666 219.772 189.187L220.856 186.526C220.277 186.291 219.661 185.795 219.312 184.832C218.953 183.838 218.832 182.214 219.571 179.682L216.813 178.877ZM219.619 189.114C220.726 189.726 222.838 190.236 225.825 190.279C228.865 190.322 232.936 189.886 238.054 188.477L237.292 185.707C232.4 187.053 228.6 187.445 225.866 187.406C223.081 187.366 221.518 186.881 221.009 186.599L219.619 189.114ZM238.054 188.477C243.18 187.067 246.918 185.305 249.524 183.644C252.088 182.009 253.649 180.411 254.288 179.27L251.782 177.865C251.472 178.418 250.356 179.706 247.979 181.221C245.643 182.71 242.175 184.364 237.292 185.707L238.054 188.477ZM253.018 180.004C255.044 180.028 257.538 180.036 259.814 179.639C262.05 179.249 264.404 178.416 265.81 176.486L263.487 174.794C262.754 175.802 261.337 176.457 259.32 176.808C257.342 177.153 255.099 177.156 253.053 177.131L253.018 180.004ZM272.473 171.078C272.06 170.491 271.536 170.063 271.1 169.759C270.687 169.472 270.217 169.212 270.052 169.112C269.911 169.026 269.966 169.046 270.054 169.135C270.09 169.172 270.298 169.381 270.382 169.749C270.429 169.96 270.432 170.207 270.353 170.459C270.276 170.706 270.145 170.886 270.027 171.006C269.821 171.216 269.613 171.287 269.588 171.296C269.536 171.314 269.518 171.315 269.56 171.307C269.643 171.292 269.809 171.271 270.104 171.248L269.883 168.383C269.562 168.408 269.272 168.438 269.033 168.483C268.914 168.505 268.768 168.538 268.619 168.591C268.498 168.635 268.222 168.743 267.976 168.994C267.654 169.322 267.454 169.83 267.579 170.383C267.674 170.799 267.916 171.06 268.008 171.152C268.206 171.353 268.452 171.502 268.559 171.567C269.211 171.963 269.788 172.254 270.122 172.73L272.473 171.078ZM275.347 157.894C274.476 158.226 273.918 158.957 273.587 159.612C273.242 160.297 273.041 161.096 272.986 161.881C272.886 163.307 273.27 165.437 275.184 166.27L276.33 163.635C276.145 163.555 275.778 163.133 275.852 162.082C275.884 161.628 276.001 161.208 276.153 160.906C276.32 160.575 276.438 160.553 276.369 160.579L275.347 157.894ZM276.101 163.558C274.516 163.166 272.978 163.329 271.706 163.611C270.497 163.879 269.271 164.33 268.679 164.505L269.49 167.261C270.397 166.994 271.219 166.662 272.328 166.416C273.373 166.184 274.422 166.103 275.413 166.347L276.101 163.558ZM274.392 170.116C274.375 169.771 274.313 169.32 274.273 168.978C274.227 168.591 274.195 168.245 274.197 167.95C274.199 167.627 274.244 167.526 274.234 167.545C274.221 167.574 274.173 167.656 274.068 167.734C273.958 167.816 273.851 167.844 273.794 167.851L273.475 164.995C272.587 165.094 271.972 165.626 271.65 166.289C271.376 166.853 271.327 167.473 271.324 167.931C271.321 168.417 271.372 168.914 271.419 169.314C271.472 169.76 271.511 170.043 271.522 170.261L274.392 170.116ZM273.794 167.851C273.768 167.853 273.764 167.851 273.787 167.853L274.1 164.997C273.897 164.975 273.688 164.971 273.475 164.995L273.794 167.851ZM273.948 164.989C273.845 164.988 273.747 164.987 273.653 164.986L273.616 167.859C273.72 167.861 273.828 167.861 273.939 167.862L273.948 164.989ZM273.653 164.986C272.505 164.972 271.912 164.893 271.394 164.801C270.863 164.707 270.236 164.561 269.237 164.454L268.931 167.311C269.799 167.404 270.225 167.512 270.892 167.631C271.572 167.751 272.321 167.843 273.616 167.859L273.653 164.986ZM265.266 176.937C265.078 177.027 264.972 177.004 265.112 177.003C265.212 177.003 265.368 177.014 265.591 177.043C266.041 177.103 266.581 177.212 267.181 177.329C267.739 177.438 268.38 177.559 268.905 177.6C269.157 177.619 269.493 177.631 269.821 177.566C270.077 177.516 270.861 177.313 271.156 176.468L268.444 175.519C268.558 175.195 268.775 174.989 268.952 174.878C269.109 174.78 269.238 174.753 269.271 174.746C269.328 174.735 269.301 174.749 269.126 174.735C268.796 174.71 268.324 174.624 267.73 174.509C267.179 174.401 266.529 174.269 265.97 174.195C265.689 174.158 265.386 174.128 265.099 174.13C264.852 174.131 264.433 174.152 264.031 174.343L265.266 176.937ZM271.188 175.622C271.122 175.376 271.102 174.732 271.279 174.09C271.363 173.788 271.47 173.564 271.573 173.422C271.622 173.355 271.661 173.318 271.686 173.299C271.708 173.281 271.719 173.278 271.721 173.277L270.874 170.532C269.421 170.98 268.776 172.363 268.51 173.325C268.229 174.343 268.186 175.519 268.413 176.365L271.188 175.622ZM269.814 171.241L272.778 171.614L273.136 168.763L270.173 168.39L269.814 171.241ZM219.605 179.023C218.338 172.047 218.78 154.888 231.217 140.015L229.013 138.172C215.908 153.845 215.396 171.927 216.778 179.537L219.605 179.023ZM232.642 175.057C233.889 173.745 235.586 171.391 236.776 168.468C237.968 165.541 238.693 161.936 237.825 158.195L235.026 158.844C235.72 161.835 235.161 164.816 234.115 167.385C233.067 169.959 231.571 172.013 230.559 173.078L232.642 175.057ZM237.399 159.576C240.424 156.79 242.162 154.648 243.552 152.729C244.963 150.782 245.876 149.28 247.427 147.495L245.258 145.61C243.598 147.521 242.497 149.288 241.226 151.044C239.933 152.827 238.319 154.822 235.452 157.463L237.399 159.576Z" fill="#240046"/>
<path d="M181.088 245.079C181.633 243.032 181.91 242.327 181.618 242.158L175.331 245.929C175.674 249.358 173.792 252.174 170.344 254.499C176.606 254.623 180.47 247.396 181.088 245.079Z" fill="#240046"/>
<path d="M177.149 244.556C177.694 242.51 176.008 245.34 175.717 245.171L175.331 245.929C175.674 249.358 173.793 252.174 170.344 254.499C175.94 251.444 176.531 246.874 177.149 244.556Z" fill="#5A189A"/>
<path d="M181.088 245.079C181.633 243.032 181.91 242.327 181.618 242.158L180.941 242.812C178.892 251.506 173.806 253.249 170.344 254.499C176.606 254.623 180.47 247.396 181.088 245.079Z" fill="#190031"/>
<path d="M185.733 246.052C185.856 243.938 185.985 243.191 185.666 243.084L182.379 245.023L180.265 248.042C181.291 251.333 180.014 254.469 177.104 257.44C183.263 256.303 185.595 248.446 185.733 246.052Z" fill="#240046"/>
<path d="M181.77 246.333C181.892 244.218 180.81 247.33 180.491 247.222L180.265 248.042C181.291 251.333 180.014 254.469 177.104 257.44C181.971 253.323 181.631 248.727 181.77 246.333Z" fill="#5A189A"/>
<path d="M185.733 246.052C185.856 243.938 185.985 243.191 185.666 243.084L185.134 243.861C184.875 252.789 180.244 255.52 177.104 257.441C183.263 256.303 185.595 248.446 185.733 246.052Z" fill="#190031"/>
<path d="M190.596 244.154C190.074 242.101 189.972 241.35 189.635 241.344L187.087 244.185L185.983 247.702C187.955 250.529 187.685 253.905 185.807 257.616C191.336 254.671 191.186 246.478 190.596 244.154Z" fill="#240046"/>
<path d="M186.902 245.618C186.38 243.565 186.288 246.858 185.951 246.852L185.984 247.702C187.955 250.529 187.685 253.905 185.807 257.616C189.204 252.221 187.492 247.942 186.902 245.618Z" fill="#5A189A"/>
<path d="M190.596 244.154C190.074 242.101 189.972 241.35 189.635 241.344L189.362 242.246C191.812 250.835 188.221 254.837 185.807 257.616C191.336 254.672 191.186 246.478 190.596 244.154Z" fill="#190031"/>
<path d="M195.806 189.525C194.13 186.532 192.358 179.9 198.679 177.314C205.001 174.728 210.172 178.391 211.968 180.546C214.003 182.462 221.518 190.719 216.633 203.361C211.749 216.004 187.426 215.265 178.208 213.948C179.165 215.025 180.937 218.545 180.363 224.004C179.788 229.463 186.988 239.621 189.742 244.17C188.664 243.691 184.385 243.542 183.236 245.554C181.44 243.758 181.081 243.758 179.644 245.913C179.046 244.955 177.561 243.399 176.412 244.835C176.412 240.885 176.053 240.166 174.975 237.293C172.341 233.582 166.715 224.579 165.278 218.258C163.123 212.511 163.123 212.152 163.123 211.434C163.003 210.237 165.637 208.201 170.665 207.483C175.693 206.765 185.271 198.265 188.623 194.194C190.075 192.833 193.452 190.4 197.503 189.176C196.86 189.3 196.276 189.422 195.806 189.525Z" fill="#5A189A"/>
<path d="M174.771 228.508C172.544 225.563 168.755 214.591 167.139 209.473L162.829 210.371L167.588 224.198L175.22 238.295L176.208 243.593C177.525 245.089 180.248 247.4 180.607 244.67H182.358L188.284 243.862C188.733 243.249 189.263 242.003 187.79 241.932C186.318 241.86 185.202 242.178 184.827 242.347C182.565 241.637 180.995 242.051 180.494 242.347C179.821 238.173 177.054 231.528 174.771 228.508Z" fill="black" fill-opacity="0.3"/>
<path d="M195.806 189.525C195.403 188.805 194.994 187.874 194.694 186.84M207.295 189.525C206.214 188.636 205.14 188.268 201.553 188.448C195.806 188.735 190.539 192.399 188.623 194.194C185.271 198.265 175.693 206.765 170.665 207.483C165.637 208.201 163.003 210.237 163.123 211.434C163.123 212.152 163.123 212.511 165.278 218.258C166.715 224.579 172.341 233.582 174.975 237.293C176.053 240.166 176.412 240.885 176.412 244.835C177.845 244.476 179.764 244.955 180.363 245.913C181.799 243.758 183.595 243.758 185.391 245.554C186.54 243.542 189.023 243.758 190.06 243.758C187.306 239.208 179.788 229.463 180.363 224.004C180.937 218.545 179.165 215.025 178.208 213.948C187.426 215.265 211.749 216.004 216.633 203.361C221.518 190.719 214.003 182.462 211.968 180.546C211.614 180.121 211.128 179.637 210.528 179.154" stroke="#240046" stroke-width="2.87325" stroke-linecap="round"/>
<path d="M113.673 95.2255C112.955 78.8581 93.1282 74.1529 83.3044 73.8462C94.0875 66.0418 124.745 64.259 138.82 64.6108C170.108 66.6964 203.767 70.8357 217.917 89.087C203.149 107.306 201.149 136.617 202.623 148.984C203.802 158.878 220.445 165.016 228.62 166.848L215.267 173.548L203.41 163.159C183.537 136.028 162.544 120.172 149.835 119.197C144.2 105.107 134.703 96.114 113.673 95.2255Z" fill="#5A189A"/>
<path d="M186.734 75.3116C204.07 78.8598 213.498 87.8149 215.83 90.9238L218.263 87.8825L211.572 82.0025L196.466 74.2978C186.126 72.1688 169.069 71.6959 186.734 75.3116Z" fill="#9D4EDD"/>
<path d="M83.3044 73.8462L82.462 72.6824C81.9642 73.0428 81.7506 73.6799 81.9309 74.2675C82.1111 74.8551 82.6452 75.2629 83.2595 75.2821L83.3044 73.8462ZM113.673 95.2255L112.238 95.2885L112.296 96.6052L113.613 96.6609L113.673 95.2255ZM149.835 119.197L148.501 119.731C148.705 120.239 149.179 120.588 149.725 120.63L149.835 119.197ZM203.41 163.159L202.251 164.008C202.313 164.093 202.384 164.171 202.463 164.24L203.41 163.159ZM228.62 166.848L229.264 168.132C229.807 167.86 230.12 167.276 230.046 166.673C229.971 166.07 229.526 165.579 228.934 165.446L228.62 166.848ZM202.623 148.984L204.049 148.814L202.623 148.984ZM217.917 89.087L219.033 89.9916L219.75 89.1068L219.052 88.2068L217.917 89.087ZM138.82 64.6108L138.916 63.1774C138.896 63.176 138.876 63.1751 138.856 63.1746L138.82 64.6108ZM215.267 173.548L214.32 174.629C214.76 175.014 215.389 175.094 215.911 174.832L215.267 173.548ZM83.2595 75.2821C88.0221 75.4308 95.2088 76.6532 101.241 79.7879C107.245 82.9081 111.909 87.7971 112.238 95.2885L115.109 95.1626C114.719 86.2865 109.111 80.6392 102.566 77.2383C96.0492 73.8519 88.4104 72.5683 83.3492 72.4103L83.2595 75.2821ZM113.613 96.6609C123.933 97.0969 131.268 99.5139 136.686 103.426C142.104 107.337 145.748 112.846 148.501 119.731L151.169 118.664C148.288 111.459 144.365 105.426 138.368 101.096C132.371 96.7666 124.443 94.2426 113.734 93.7902L113.613 96.6609ZM149.725 120.63C155.638 121.083 163.781 125.064 173.037 132.49C182.242 139.874 192.374 150.523 202.251 164.008L204.569 162.31C194.573 148.664 184.272 137.82 174.835 130.249C165.45 122.72 156.742 118.286 149.945 117.765L149.725 120.63ZM228.934 165.446C224.945 164.552 218.88 162.602 213.703 159.687C208.426 156.717 204.551 153.019 204.049 148.814L201.196 149.154C201.874 154.843 206.91 159.161 212.293 162.191C217.776 165.277 224.12 167.312 228.305 168.25L228.934 165.446ZM204.049 148.814C203.332 142.793 203.453 132.524 205.589 121.504C207.727 110.479 211.853 98.8498 219.033 89.9916L216.801 88.1824C209.213 97.5437 204.955 109.68 202.769 120.957C200.582 132.239 200.44 142.808 201.196 149.154L204.049 148.814ZM219.052 88.2068C211.682 78.7001 199.348 72.9979 185.149 69.3943C170.918 65.7828 154.57 64.2208 138.916 63.1774L138.725 66.0443C154.359 67.0864 170.483 68.6368 184.442 72.1792C198.431 75.7296 210.002 81.2226 216.781 89.9672L219.052 88.2068ZM138.856 63.1746C131.752 62.9971 120.496 63.3576 109.645 64.7449C104.219 65.4387 98.866 66.3929 94.17 67.6754C89.4993 68.9509 85.3657 70.5809 82.462 72.6824L84.1467 75.01C86.6346 73.2093 90.3768 71.6898 94.927 70.4471C99.4519 69.2113 104.664 68.2784 110.01 67.5949C120.703 66.2277 131.813 65.8727 138.784 66.047L138.856 63.1746ZM227.975 165.564L214.622 172.264L215.911 174.832L229.264 168.132L227.975 165.564ZM202.463 164.24L214.32 174.629L216.213 172.468L204.357 162.079L202.463 164.24Z" fill="#240046"/>
<path d="M221.043 87.0816C219.804 88.956 219.76 89.3294 219.083 89.5599C218.406 89.7903 216.563 89.354 215.599 88.4929C214.41 87.4299 215.644 85.4138 215.644 85.4138C218.691 83.2727 222.916 76.8346 223.244 71.9054C225.814 78.7574 222.446 84.9595 221.043 87.0816Z" fill="#240046"/>
<path d="M219.94 80.5525C221.667 77.8722 223.061 74.6543 223.244 71.9056C224.686 75.7504 224.259 79.3904 223.358 82.2199C223.736 79.2407 223.7 76.0466 219.94 80.5525Z" fill="#5A189A"/>
<path d="M276.844 74.103C266.409 80.7689 266.172 87.7259 267.358 90.3711L261.429 84.0226C262.615 75.2934 263.405 78.0708 271.31 68.9449C277.635 61.6441 273.64 52.3005 272.892 48.709C276.844 48.709 287.279 67.4371 276.844 74.103Z" fill="#5A189A"/>
<path d="M276.976 74.103C266.541 80.7689 266.304 87.7259 267.49 90.3711L261.561 84.0226C262.746 75.2934 264.789 78.3069 272.694 69.1809C279.019 61.8801 274.88 53.7372 274.131 50.1456C278.084 50.1456 286.93 67.7443 276.976 74.103Z" fill="#240046"/>
<path d="M276.977 74.103C266.542 80.7689 266.305 87.7258 267.491 90.371L266.64 89.6527C265.665 87.4769 265.652 82.3837 271.486 76.9349C272.744 75.7595 274.275 74.5675 276.126 73.3846C282.674 69.2022 281.287 60.157 278.31 54.4554C278.013 53.8624 277.89 53.4976 277.591 53.0188L277.341 52.5782C281.155 57.6321 284.646 69.2037 276.977 74.103Z" fill="black" fill-opacity="0.3"/>
<path d="M229.465 83.2876C234.828 85.2121 237.584 90.2163 237.639 91.4493L243.385 86.9419C241.875 84.3874 234.715 81.6361 229.465 83.2876Z" fill="#240046"/>
<path d="M241.789 85.3721C238.994 83.4376 233.629 81.9777 229.465 83.2876C229.788 83.4034 230.101 83.5303 230.405 83.6669C232.827 83.8141 238.223 84.7055 240.432 87.0939L241.789 85.3721Z" fill="#5A189A"/>
<path d="M13.5434 106.964C15.2138 111.762 12.6038 113.388 11.6641 113.929L17.6152 116.406C18.9724 114.239 16.571 109.286 13.5434 106.964Z" fill="#240046"/>
<path d="M13.5439 106.964C14.0106 108.304 14.1432 109.397 14.0714 110.288C15.0255 109.413 17.0564 112.487 17.9526 114.133C17.6226 111.743 15.7494 108.655 13.5439 106.964Z" fill="#5A189A"/>
<path d="M21.6378 108.464C23.7435 113.6 21.8005 117.535 20.9128 118.382L28.0942 119.585C29.0107 116.823 26.3497 111.178 21.6378 108.464Z" fill="#240046"/>
<path d="M21.6377 108.464C22.1349 109.677 22.4064 110.823 22.5193 111.877C23.3722 111.798 25.5504 112.302 27.4406 114.946C26.3774 112.553 24.3464 110.024 21.6377 108.464Z" fill="#5A189A"/>
<path d="M30.5441 108.665C34.0505 114.387 32.6635 119.416 31.8272 120.584L40.3094 120.711C40.7704 117.261 36.5196 111.035 30.5441 108.665Z" fill="#240046"/>
<path d="M38.3472 114.98C36.6015 112.444 33.834 109.97 30.5436 108.665C31.5118 110.245 32.1069 111.772 32.4435 113.179C33.1912 111.349 36.6909 113.617 38.3472 114.98Z" fill="#5A189A"/>
<path d="M40.3135 109.508C44.9443 114.362 44.692 119.546 44.1361 120.856L52.3675 119.238C52.0662 115.782 46.6064 110.59 40.3135 109.508Z" fill="#240046"/>
<path d="M40.3135 109.508C40.8773 110.099 41.3688 110.695 41.7961 111.288C44.7457 111.5 49.2893 114.743 51.1924 116.338C49.2132 113.391 44.9938 110.313 40.3135 109.508Z" fill="#5A189A"/>
<path d="M51.5352 106.383C56.7698 110.586 57.9165 117.218 57.505 118.613L65.6354 115.799C64.9348 112.374 58.0165 106.56 51.5352 106.383Z" fill="#240046"/>
<path d="M51.5352 106.383C52.2514 106.958 52.8911 107.579 53.4608 108.225C57.5894 108.375 62.4571 111.685 64.3749 113.322C61.9616 110.122 56.6142 106.521 51.5352 106.383Z" fill="#5A189A"/>
<path d="M111.28 104.649C112.033 112.258 106.5 118.415 104.719 119.173L115.211 123.647C117.966 120.378 117.229 110.118 111.28 104.649Z" fill="#240046"/>
<path d="M111.28 104.649C111.536 107.236 110.736 110.441 109.933 112.537C113.219 107.249 115.446 111.369 116.243 113.606C115.493 110.361 113.887 107.045 111.28 104.649Z" fill="#5A189A"/>
<path d="M124.308 111.757C124.884 119.381 119.208 125.407 117.411 126.123L127.795 130.841C130.625 127.637 130.128 117.363 124.308 111.757Z" fill="#240046"/>
<path d="M123.115 118.729C123.004 119.04 122.89 119.335 122.777 119.611C122.875 119.274 122.988 118.982 123.115 118.729C123.842 116.699 124.478 114.005 124.308 111.757C126.858 114.213 128.387 117.566 129.061 120.827C128.372 118.739 124.702 115.571 123.115 118.729Z" fill="#5A189A"/>
<path d="M138.048 118.12C138.681 126.504 132.44 133.131 130.463 133.918L141.882 139.106C144.995 135.583 144.448 124.285 138.048 118.12Z" fill="#240046"/>
<path d="M138.049 118.12C138.179 119.85 138.017 121.504 137.661 123.049C140.981 123.049 143.082 128.887 143.717 131.807C143.58 127.233 141.843 121.775 138.049 118.12Z" fill="#5A189A"/>
<path d="M153.127 124.495C153.76 132.879 147.519 139.506 145.542 140.293L156.961 145.481C160.074 141.958 159.527 130.66 153.127 124.495Z" fill="#240046"/>
<path d="M153.127 124.495C153.29 126.65 152.998 128.69 152.442 130.543C155.7 129.926 158.032 135.294 158.791 138.055C158.626 133.508 156.886 128.116 153.127 124.495Z" fill="#5A189A"/>
<path d="M165.845 131.579C166.478 139.963 160.237 146.59 158.26 147.377L169.679 152.565C172.792 149.042 172.245 137.744 165.845 131.579Z" fill="#240046"/>
<path d="M165.846 131.579C165.98 133.352 165.806 135.046 165.43 136.623C168.34 138.176 169.965 142.68 170.414 144.738L170.968 141.078C170.18 137.643 168.526 134.161 165.846 131.579Z" fill="#5A189A"/>
<path d="M96.7108 99.2484C98.6747 106.538 95.3161 113.319 94.0172 114.313L103.266 117.152C104.902 113.578 102.478 103.709 96.7108 99.2484Z" fill="#240046"/>
<path d="M102.306 107.242C101.123 104.196 99.238 101.203 96.7109 99.2484C97.1083 100.723 97.3246 102.465 97.3114 104.086C98.0373 103.916 99.9873 104.308 102.306 107.242Z" fill="#5A189A"/>
<path d="M79.6436 98.2198C83.947 104.422 83.0678 111.939 82.1792 113.311L91.8435 112.871C92.1808 108.955 86.5759 100.478 79.6436 98.2198Z" fill="#240046"/>
<path d="M79.6436 98.2198C80.3915 99.2978 80.9829 100.416 81.4449 101.534C85.1184 102.706 88.809 106.01 90.1952 107.516C88.0742 103.762 84.1378 99.684 79.6436 98.2198Z" fill="#5A189A"/>
<path d="M64.7811 104.187C69.9729 108.143 71.2514 114.561 70.8859 115.926L78.7188 112.991C77.9533 109.679 71.0852 104.198 64.7811 104.187Z" fill="#240046"/>
<path d="M64.7812 104.187C65.6374 104.839 66.3872 105.558 67.0407 106.311C70.7377 106.311 75.6233 109.327 77.604 110.835C75.2647 107.729 69.8413 104.196 64.7812 104.187Z" fill="#5A189A"/>
<path d="M198.135 144.075C206.768 144.014 213.298 149.695 214.02 151.42L219.841 142.011C216.361 139.165 204.741 138.987 198.135 144.075Z" fill="#240046"/>
<path d="M217.835 140.942C213.071 139.226 203.775 139.73 198.135 144.075C208.352 141.137 214.948 142.851 216.969 144.075L217.835 140.942Z" fill="#5A189A"/>
<path d="M202.038 132.365C210.216 130.217 218.407 134.17 219.511 135.632L222.137 125.15C218.146 123.292 207.075 125.937 202.038 132.365Z" fill="#240046"/>
<path d="M219.974 124.622C215.038 124.146 206.339 126.877 202.038 132.365C211.023 127.103 217.697 127.132 219.911 127.804L219.974 124.622Z" fill="#5A189A"/>
<path d="M208.155 116.689C214.99 115.713 220.774 119.513 221.532 120.802L225.133 112.721C222.07 110.84 212.843 111.947 208.155 116.689Z" fill="#240046"/>
<path d="M222.176 114.838C222.464 113.941 223.066 112.618 223.331 112.07C219.775 111.35 213.626 112.399 209.525 115.495C217.346 112.785 220.695 114.434 222.176 114.838Z" fill="#5A189A"/>
<path d="M214.346 104.37C220.441 104.672 224.823 108.942 225.264 110.188L229.749 103.78C227.406 101.632 219.211 101.042 214.346 104.37Z" fill="#240046"/>
<path d="M226.826 105.12C227.226 104.389 227.971 103.343 228.294 102.911C225.328 101.689 219.815 101.566 215.735 103.564C222.979 102.526 225.608 104.521 226.826 105.12Z" fill="#5A189A"/>
<path d="M222.679 91.9951C228.246 93.2149 231.621 97.8239 231.834 99.0396L236.953 93.8317C235.128 91.4922 227.674 89.6831 222.679 91.9951Z" fill="#240046"/>
<path d="M234.055 94.6145C234.536 94.0032 235.384 93.1549 235.748 92.8072C233.205 91.2234 228.148 90.2582 224.083 91.4679C230.913 91.6315 233.026 93.8741 234.055 94.6145Z" fill="#5A189A"/>
<path d="M231.647 77.6946C242.082 84.3605 242.319 91.3174 241.133 93.9626L247.062 87.6141C245.877 78.8849 245.086 81.6624 237.181 72.5364C230.857 65.2356 234.851 55.8921 235.6 52.3005C231.647 52.3005 221.212 71.0286 231.647 77.6946Z" fill="#5A189A"/>
<path d="M231.515 77.6946C241.95 84.3605 242.187 91.3174 241.002 93.9626L246.931 87.6141C245.745 78.8849 243.702 81.8984 235.797 72.7724C229.473 65.4717 233.612 57.3287 234.36 53.7372C230.408 53.7372 221.561 71.3358 231.515 77.6946Z" fill="#240046"/>
<path d="M231.514 77.6945C241.949 84.3604 242.186 91.3174 241.001 93.9626L241.851 93.2443C242.827 91.0684 242.839 85.9753 237.006 80.5265C235.747 79.351 234.217 78.159 232.365 76.9762C225.818 72.7937 227.204 63.7485 230.182 58.047C230.478 57.4539 230.602 57.0891 230.9 56.6104L231.151 56.1698C227.336 61.2237 223.845 72.7952 231.514 77.6945Z" fill="black" fill-opacity="0.3"/>
<path d="M316.603 81.9079C308.522 84.2888 289.875 84.4875 281.561 84.2892L251.221 80.0544C241.961 86.9803 223.028 105.726 221.382 125.3L258.895 131.401C257.664 124.52 264.1 112.895 272.754 118.947C281.408 124.999 301.386 124.729 310.294 123.837C311.571 122.987 314.214 120.88 314.561 119.254C314.909 117.627 312.665 116.616 311.5 116.314L311.606 116.291C312.208 116.26 312.836 116.223 313.494 116.178C322.61 115.559 326.704 78.9318 316.603 81.9079Z" fill="#9D4EDD"/>
<path d="M281.561 87.8808C289.875 88.079 308.522 87.8803 316.603 85.4995C326.704 82.5233 322.61 115.559 313.494 116.178L313.491 116.178C313.165 116.2 312.847 116.222 312.536 116.679C313.637 117.169 314.821 118.04 314.561 119.254C314.214 120.88 311.571 122.987 310.294 123.837C301.386 124.729 281.408 124.999 272.754 118.947C264.1 112.895 251.474 122.997 252.705 129.878C252.705 129.878 243.008 172.618 236.184 188.78C222.895 206.378 208.169 208.892 208.169 208.892L177.641 208.892C177.641 208.892 175.845 209.611 159.683 199.914C143.521 190.216 123.768 154.66 123.768 154.66C123.768 154.66 111.916 133.111 93.9579 129.878C73.486 131.315 34.3381 126.646 34.3381 126.646L23.583 123.032L18.5352 118.744L34.3381 121.258C34.3381 121.258 53.0143 121.585 64.5072 116.932C76.0001 112.28 95.0356 114.434 95.0356 114.434L150.705 143.167L189.853 158.97L207.721 156.456L216.789 151.428L221.382 125.3C223.028 105.726 241.961 90.5718 251.221 83.6459L281.561 87.8808Z" fill="#5A189A"/>
<path d="M308.858 120.246C310.136 119.395 312.778 117.289 313.126 115.662C308.612 115.521 300.662 115.167 304.971 114.88C309.281 114.593 311.492 113.231 312.058 112.587C317.183 108.415 322.113 96.838 320.815 87.9433C322.238 92.9715 323.36 105.398 316.464 114.88C315.315 116.009 314.309 117.026 313.95 117.394C313.993 119.07 313.275 122.638 310.064 123.5C306.049 124.577 277.316 125.655 270.133 118.112L263.816 118.112C264.48 114.262 266.528 112.005 271.318 115.355C279.972 121.407 299.95 121.137 308.858 120.246Z" fill="black" fill-opacity="0.3"/>
<path d="M254.501 123.773C257.661 120.037 260.487 118.864 263.121 119.463C261.325 120.899 257.877 125.568 258.451 132.751C259.026 139.935 259.649 146.759 259.888 149.273C259.409 156.336 258.308 170.822 257.733 172.259C257.015 174.054 255.219 193.808 249.832 201.35C244.444 208.893 238.698 215.357 231.156 219.308C223.613 223.259 203.141 226.491 193.085 226.132C183.029 225.773 166.867 222.9 154.655 213.202C142.444 203.505 130.592 189.139 126.641 182.315C123.481 176.856 110.958 157.054 105.092 147.836C102.578 145.082 95.5384 139.216 87.4933 137.78C77.437 135.984 77.7961 135.625 69.5355 135.266L69.3746 135.259C61.1629 134.902 52.5806 134.529 41.1622 131.674C29.6692 128.801 21.7678 126.287 17.8171 124.132C14.6565 122.408 9.79596 117.427 7.76074 115.153C38.6481 134.188 69.1764 128.442 88.2116 129.519C103.44 130.381 115.148 142.09 119.099 147.836C125.444 158.611 142.229 183.823 158.606 198.477C174.984 213.131 198.592 210.928 208.529 209.252C221.458 205.804 235.138 192.225 238.339 183.752C244.444 167.59 250.55 128.442 254.501 123.773Z" fill="#9D4EDD"/>
<path d="M250.93 141.794C252.554 143.121 256.273 145.439 258.155 144.096C257.597 143.981 255.463 144.178 250.93 141.794Z" fill="black" fill-opacity="0.3"/>
<path d="M248.064 154.333C250.23 156.103 255.19 159.195 257.701 157.404C256.956 157.25 254.109 157.514 248.064 154.333Z" fill="black" fill-opacity="0.3"/>
<path d="M245.32 167.341C248.113 169.623 253.668 173.105 256.905 170.795C255.945 170.597 253.115 171.442 245.32 167.341Z" fill="black" fill-opacity="0.3"/>
<path d="M241.81 179.444C244.517 182.245 250.298 186.796 254.263 184.462C253.234 184.161 249.743 184.705 241.81 179.444Z" fill="black" fill-opacity="0.3"/>
<path d="M236.64 191.823C238.849 195.03 244.341 201.033 248.636 199.383C247.671 198.916 243.599 198.318 236.64 191.823Z" fill="black" fill-opacity="0.3"/>
<path d="M229.045 202.054C230.464 205.681 234.441 212.778 239 212.152C238.167 211.477 234.339 209.965 229.045 202.054Z" fill="black" fill-opacity="0.3"/>
<path d="M204.982 211.175C204.378 214.543 204.097 221.684 207.798 223.31C207.484 222.421 205.312 219.531 204.982 211.175Z" fill="black" fill-opacity="0.3"/>
<path d="M192.015 211.94C190.867 215.162 189.416 222.161 192.8 224.372C192.636 223.444 190.969 220.236 192.015 211.94Z" fill="black" fill-opacity="0.3"/>
<path d="M180.051 210.333C178.118 213.156 174.931 219.553 177.639 222.554C177.717 221.615 176.923 218.088 180.051 210.333Z" fill="black" fill-opacity="0.3"/>
<path d="M170.108 205.057C167.29 206.997 162.016 211.821 163.465 215.594C163.875 214.747 164.401 211.17 170.108 205.057Z" fill="black" fill-opacity="0.3"/>
<path d="M150.561 193.507C148.139 194.629 143.451 197.644 144.069 200.735C144.496 200.137 145.37 197.457 150.561 193.507Z" fill="black" fill-opacity="0.3"/>
<path d="M140.658 183.686C138.469 184.566 134.173 186.984 134.503 189.615C134.916 189.122 135.861 186.88 140.658 183.686Z" fill="black" fill-opacity="0.3"/>
<path d="M132.795 172.098C130.815 172.894 126.93 175.08 127.229 177.46C127.602 177.013 128.457 174.986 132.795 172.098Z" fill="black" fill-opacity="0.3"/>
<path d="M125.131 160.014C123.151 160.81 119.266 162.997 119.565 165.376C119.938 164.929 120.793 162.902 125.131 160.014Z" fill="black" fill-opacity="0.3"/>
<path d="M117.895 150.206C116.139 150.911 112.694 152.851 112.959 154.96C113.29 154.564 114.048 152.767 117.895 150.206Z" fill="black" fill-opacity="0.3"/>
<path d="M109.028 140.44C107.618 141.348 104.943 143.612 105.526 145.404C105.748 145.004 106.107 143.313 109.028 140.44Z" fill="black" fill-opacity="0.3"/>
<path d="M99.3092 134.245C98.3039 135.42 96.5405 138.127 97.5294 139.555C97.6199 139.143 97.4896 137.555 99.3092 134.245Z" fill="black" fill-opacity="0.3"/>
<path d="M87.9885 131.395C87.3925 132.466 86.449 134.849 87.4432 135.803C87.4485 135.469 87.0964 134.254 87.9885 131.395Z" fill="black" fill-opacity="0.3"/>
<path d="M267.79 116.949C265.156 116.35 255.578 121.258 253.064 127.723C250.847 133.424 244.444 167.59 238.339 183.752C235.138 192.225 222.895 205.445 209.965 208.892C200.029 210.569 174.984 213.131 158.606 198.477C142.229 183.823 125.444 158.611 119.099 147.836C115.148 142.09 103.44 130.381 88.2116 129.519C69.1764 128.442 38.6481 134.188 7.76074 115.153" stroke="#240046" stroke-width="2.87325"/>
<path d="M260.822 122.207C261.374 120.428 261.944 119.195 263.121 119.463C262.479 119.976 261.627 120.902 260.822 122.207C260.268 123.994 259.731 126.331 258.616 128.253C258.398 129.617 258.321 131.12 258.451 132.751C259.026 139.935 259.649 146.759 259.888 149.273C259.409 156.336 258.308 170.822 257.733 172.259C257.015 174.054 255.219 193.808 249.832 201.35C244.444 208.893 238.698 215.357 231.156 219.308C223.613 223.259 203.141 226.491 193.085 226.132C183.029 225.773 166.867 222.9 154.655 213.202C142.444 203.505 130.592 189.139 126.641 182.315C123.481 176.856 110.958 157.054 105.092 147.836C102.578 145.082 95.5384 139.216 87.4933 137.78C77.437 135.984 77.7961 135.625 69.5355 135.266L69.3746 135.259C61.1629 134.902 52.5806 134.529 41.1622 131.674C29.6692 128.801 21.7678 126.287 17.8171 124.132C14.6565 122.408 9.79596 117.427 7.76074 115.153C38.6481 134.188 59.12 130.597 89.1095 135.266C100.423 137.027 105.631 144.424 112.993 150.709C120.356 156.994 132.891 184.183 149.268 198.836C165.646 213.49 183.835 224.047 207.451 219.308C225.646 215.657 235.622 207.334 246.599 192.371C261.345 172.273 253.782 134.188 257.733 129.519C258.064 129.128 258.356 128.702 258.616 128.253C259.015 125.758 259.886 123.726 260.822 122.207Z" fill="black" fill-opacity="0.3"/>
<path d="M224.511 125.748C226.158 106.174 239.853 92.2688 249.114 85.3429C241.811 88.5753 226.199 99.7092 222.177 118.385C222.716 138.049 217.388 144.304 217.508 145.591C217.987 149.902 214.186 158.434 195.15 158.072C176.115 157.71 154.177 146.608 145.587 141.102L101.77 116.679L82.8244 113.626L58.9405 118.924C51.937 119.822 36.2239 121.456 29.4 120.81C8.99992 115.35 7.22209 115.961 1.73941 113.084C18.4042 129.749 47.4719 126.253 59.9227 122.422C68.7818 118.951 89.1455 112.941 104.374 122.422C123.409 134.275 156.272 150.35 172.434 156.815C188.596 163.28 200.089 160.227 212.3 158.072C222.069 156.348 224.445 135.204 224.511 125.748Z" fill="#9D4EDD"/>
<path d="M316.603 81.9079C308.522 84.2888 289.874 84.4875 281.561 84.2892L251.221 80.0544C241.96 86.9803 223.028 105.726 221.381 125.3C221.315 134.756 218.741 154.1 208.972 155.824C196.761 157.979 188.5 159.775 172.338 153.31C156.176 146.845 126.007 131.401 106.972 119.549C91.7434 110.067 70.218 114.641 61.3588 118.112C48.9081 121.943 19.8404 125.439 3.17556 108.774C4.49252 113.443 12.2264 124.146 32.6265 129.605C53.0265 135.065 65.3097 135.711 68.9012 135.352C78.1195 135.232 98.6391 138.082 106.972 150.436C115.304 162.791 125.289 179.528 129.239 186.352C137.38 198.803 159.911 224.063 184.909 225.5C209.906 226.937 225.733 222.268 230.521 219.754C236.268 217 250.921 206.824 254.944 188.148C258.967 169.472 259.733 154.028 259.613 148.641L258.535 131.042C258.536 123.5 264.1 112.895 272.754 118.947C281.408 124.999 301.386 124.729 310.293 123.837C311.571 122.987 314.214 120.88 314.561 119.254C314.909 117.628 312.665 116.616 311.499 116.314L311.606 116.291C312.208 116.26 312.836 116.223 313.494 116.178C322.61 115.559 326.704 78.9318 316.603 81.9079Z" stroke="#240046" stroke-width="2.87325"/>
<path d="M266.115 116.646L264.743 107.384L271.071 109.028L266.115 116.646Z" fill="white"/>
<path d="M266.404 115.116L266.108 111.695L266.678 113.258L269.366 109.015L270.25 109.138L266.404 115.116Z" fill="black" fill-opacity="0.3"/>
<path d="M266.115 116.646L264.743 107.384L271.071 109.028L266.115 116.646Z" stroke="#240046" stroke-width="1.43662"/>
<path d="M258.738 114.954L258.114 105.613L264.29 107.759L258.738 114.954Z" fill="white"/>
<path d="M259.14 113.367L259.12 109.933L259.562 111.537L262.582 107.524L263.454 107.717L259.14 113.367Z" fill="black" fill-opacity="0.3"/>
<path d="M258.738 114.954L258.114 105.613L264.29 107.759L258.738 114.954Z" stroke="#240046" stroke-width="1.43662"/>
<path d="M251.372 112.639V102.582L257.837 105.325L251.372 112.639Z" fill="white"/>
<path d="M251.844 111.101L252.068 107.42L252.427 109.171L255.952 105.085L256.872 105.355L251.844 111.101Z" fill="black" fill-opacity="0.3"/>
<path d="M251.372 112.639V102.582L257.837 105.325L251.372 112.639Z" stroke="#240046" stroke-width="1.43662"/>
<path d="M250.021 99.0771C250.872 100.927 257.307 106.299 277.626 110.602C297.714 114.855 300.927 116.78 311.785 116.294" stroke="#240046" stroke-width="2.87325"/>
<path d="M307.013 97.1764C305.411 92.8851 308.479 92.1668 310.438 91.1982C310.438 91.1982 309.807 90.6221 308.479 90.5652C306.174 90.4665 301.616 91.0316 305.411 96.1362C306.224 97.2301 307.013 97.1764 307.013 97.1764Z" fill="#240046"/>
<path d="M273.227 78.4337C273.096 82.8425 269.801 86.0665 266.157 85.9585C262.513 85.8504 259.414 82.4368 259.545 78.0279C259.676 73.619 262.971 70.395 266.615 70.5031C270.259 70.6112 273.358 74.0248 273.227 78.4337Z" fill="white" stroke="#240046" stroke-width="2.87325"/>
<ellipse cx="268.008" cy="78.7767" rx="2.36586" ry="4.14026" transform="rotate(1.69858 268.008 78.7767)" fill="black"/>
<path d="M266.658 69.0671C262.087 68.9315 258.259 72.9244 258.109 77.9853C258.095 78.4557 258.113 78.9187 258.162 79.3718L274.666 77.9961C274.584 73.1515 271.084 69.1983 266.658 69.0671Z" fill="#9D4EDD"/>
<path d="M272.05 76.7231C270.902 74.3277 268.935 72.7262 266.657 72.6586C263.948 72.5783 261.548 74.6895 260.388 77.8005L272.05 76.7231Z" fill="#5A189A"/>
<path d="M259.554 77.8141C259.783 73.5152 263.03 70.3968 266.615 70.5031C269.761 70.5964 272.497 73.1483 273.105 76.6846L259.554 77.8141Z" stroke="#240046" stroke-width="2.87325"/>
<path d="M153.23 242.35C153.775 240.303 154.051 239.598 153.76 239.428L147.473 243.199C147.816 246.629 145.934 249.444 142.486 251.769C148.748 251.894 152.612 244.667 153.23 242.35Z" fill="#240046"/>
<path d="M149.29 241.827C149.836 239.78 148.15 242.611 147.859 242.441L147.473 243.199C147.816 246.629 145.934 249.444 142.486 251.769C148.081 248.715 148.673 244.144 149.29 241.827Z" fill="#5A189A"/>
<path d="M153.23 242.35C153.775 240.303 154.051 239.598 153.76 239.428L153.083 240.083C151.034 248.776 145.948 250.519 142.486 251.769C148.748 251.894 152.612 244.667 153.23 242.35Z" fill="#190031"/>
<path d="M157.876 243.323C157.999 241.208 158.127 240.462 157.808 240.354L154.521 242.294L152.408 245.313C153.434 248.604 152.157 251.74 149.247 254.711C155.406 253.573 157.737 245.717 157.876 243.323Z" fill="#240046"/>
<path d="M153.912 243.603C154.035 241.489 152.953 244.6 152.634 244.493L152.408 245.313C153.434 248.604 152.157 251.74 149.247 254.711C154.114 250.594 153.774 245.997 153.912 243.603Z" fill="#5A189A"/>
<path d="M157.876 243.323C157.999 241.208 158.127 240.462 157.808 240.355L157.276 241.132C157.018 250.06 152.387 252.79 149.247 254.711C155.406 253.574 157.737 245.717 157.876 243.323Z" fill="#190031"/>
<path d="M162.737 241.424C162.216 239.371 162.113 238.621 161.776 238.615L159.229 241.456L158.125 244.972C160.097 247.8 159.826 251.175 157.949 254.886C163.477 251.942 163.328 243.748 162.737 241.424Z" fill="#240046"/>
<path d="M159.043 242.888C158.522 240.835 158.429 244.128 158.093 244.122L158.125 244.972C160.097 247.8 159.826 251.175 157.949 254.886C161.345 249.492 159.634 245.213 159.043 242.888Z" fill="#5A189A"/>
<path d="M162.737 241.424C162.216 239.371 162.113 238.621 161.776 238.615L161.504 239.517C163.953 248.106 160.363 252.107 157.949 254.887C163.477 251.942 163.328 243.749 162.737 241.424Z" fill="#190031"/>
<path d="M167.949 186.796C166.273 183.803 164.501 177.171 170.822 174.585C177.143 171.999 182.315 175.662 184.111 177.817C186.146 179.733 193.66 187.99 188.776 200.632C183.891 213.274 159.569 212.535 150.35 211.218C151.308 212.296 153.08 215.816 152.505 221.275C151.93 226.734 159.131 236.892 161.884 241.441C160.807 240.962 156.528 240.813 155.378 242.824C153.583 241.028 153.223 241.028 151.787 243.183C151.188 242.226 149.704 240.669 148.554 242.106C148.554 238.155 148.195 237.437 147.118 234.564C144.484 230.852 138.857 221.849 137.421 215.528C135.266 209.782 135.266 209.423 135.266 208.704C135.146 207.507 137.78 205.472 142.808 204.754C147.836 204.035 157.413 195.535 160.766 191.465C162.217 190.104 165.594 187.67 169.646 186.446C169.002 186.571 168.418 186.693 167.949 186.796Z" fill="#5A189A"/>
<path d="M146.934 225.593C144.707 222.648 140.918 211.676 139.302 206.558L134.992 207.456L139.751 221.283L147.383 235.38L148.371 240.678C149.688 242.174 152.411 244.485 152.77 241.755H154.521L160.447 240.947C160.896 240.333 161.426 239.088 159.954 239.017C158.481 238.945 157.365 239.263 156.99 239.432C154.728 238.722 153.159 239.136 152.657 239.432C151.984 235.258 149.217 228.613 146.934 225.593Z" fill="black" fill-opacity="0.3"/>
<path d="M147.293 209.521C170.71 209.665 181.862 205.75 189.763 193.898C188.686 209.521 172.554 211.197 164.532 211.137C160.941 212.035 154.745 211.137 147.293 209.521Z" fill="black" fill-opacity="0.3"/>
<path d="M159.055 196.681C164.371 188.995 174.798 187.553 179.347 187.792L176.833 185.906L165.61 188.331L153.578 198.477L142.175 205.211C145.587 205.57 153.74 204.367 159.055 196.681Z" fill="#9D4EDD"/>
<path d="M167.949 186.796C167.546 186.076 167.137 185.145 166.836 184.111M179.438 186.796C178.357 185.906 177.283 185.539 173.695 185.718C167.949 186.006 162.681 189.669 160.766 191.465C157.413 195.535 147.836 204.035 142.808 204.754C137.78 205.472 135.146 207.507 135.266 208.704C135.266 209.423 135.266 209.782 137.421 215.528C138.857 221.849 144.484 230.852 147.118 234.564C148.195 237.437 148.554 238.155 148.554 242.106C149.987 241.747 151.907 242.226 152.505 243.183C153.942 241.028 155.738 241.028 157.533 242.824C158.683 240.813 161.166 241.028 162.202 241.028C159.449 236.479 151.93 226.734 152.505 221.275C153.08 215.816 151.308 212.296 150.35 211.218C159.569 212.535 183.891 213.274 188.776 200.632C193.66 187.99 186.146 179.732 184.111 177.817C183.756 177.392 183.271 176.908 182.67 176.425" stroke="#240046" stroke-width="2.87325" stroke-linecap="round"/>
<path d="M261.016 80.5886C260.885 84.9974 257.59 88.2215 253.946 88.1134C250.302 88.0053 247.203 84.5917 247.334 80.1828C247.465 75.7739 250.76 72.5499 254.404 72.658C258.048 72.7661 261.147 76.1797 261.016 80.5886Z" fill="white" stroke="#240046" stroke-width="2.87325"/>
<ellipse cx="255.797" cy="80.9317" rx="2.36586" ry="4.14026" transform="rotate(1.69858 255.797 80.9317)" fill="black"/>
<path d="M254.447 71.222C249.876 71.0865 246.048 75.0793 245.898 80.1402C245.884 80.6106 245.903 81.0736 245.951 81.5267L262.455 80.151C262.373 75.3064 258.873 71.3533 254.447 71.222Z" fill="#9D4EDD"/>
<path d="M259.839 78.878C258.692 76.4826 256.724 74.8811 254.446 74.8135C251.737 74.7332 249.337 76.8444 248.177 79.9555L259.839 78.878Z" fill="#5A189A"/>
<path d="M247.343 79.969C247.572 75.6701 250.819 72.5517 254.404 72.658C257.551 72.7513 260.286 75.3032 260.894 78.8395L247.343 79.969Z" stroke="#240046" stroke-width="2.87325"/>
<path d="M263.488 192.433C261.153 192.238 260.33 192.075 260.203 192.425L265.537 198.537C269.205 197.494 272.639 198.995 275.844 202.297C274.757 195.452 266.132 192.653 263.488 192.433Z" fill="#240046"/>
<path d="M263.687 196.826C261.352 196.631 264.763 197.915 264.635 198.265L265.536 198.537C269.205 197.495 272.638 198.995 275.843 202.297C271.425 196.799 266.332 197.046 263.687 196.826Z" fill="#5A189A"/>
<path d="M263.488 192.433C261.153 192.238 260.33 192.075 260.203 192.425L261.048 193.035C270.916 193.571 273.807 198.77 275.844 202.297C274.757 195.452 266.132 192.653 263.488 192.433Z" fill="#190031"/>
<path d="M264.559 186.319C262.218 186.438 261.382 186.385 261.302 186.749L263.829 190.132L267.403 192.096C270.9 190.573 274.503 191.602 278.12 194.447C276.13 187.808 267.209 186.185 264.559 186.319Z" fill="#240046"/>
<path d="M265.342 190.646C263.001 190.764 266.553 191.582 266.473 191.946L267.403 192.096C270.9 190.573 274.502 191.602 278.119 194.447C273.007 189.587 267.992 190.511 265.342 190.646Z" fill="#5A189A"/>
<path d="M264.559 186.319C262.218 186.438 261.382 186.385 261.302 186.749L262.22 187.241C272.072 186.456 275.63 191.223 278.12 194.447C276.13 187.808 267.209 186.185 264.559 186.319Z" fill="#190031"/>
<path d="M263.993 180.588C261.163 180.687 260.145 180.627 260.077 180.994L263.405 184.427L267.892 186.437C272.013 184.932 276.462 186.001 281.069 188.9C278.14 182.19 267.196 180.476 263.993 180.588Z" fill="#240046"/>
<path d="M265.28 184.957C262.451 185.056 266.822 185.911 266.753 186.278L267.891 186.437C272.013 184.932 276.462 186.001 281.069 188.9C274.492 183.956 268.483 184.845 265.28 184.957Z" fill="#5A189A"/>
<path d="M263.993 180.588C261.163 180.687 260.145 180.627 260.077 180.994L261.229 181.498C273.114 180.791 277.8 185.629 281.069 188.901C278.14 182.19 267.196 180.476 263.993 180.588Z" fill="#190031"/>
<path d="M214.287 214.337C208.018 195.419 212.874 178.843 216.086 172.92L233.893 176.182C231.268 178.573 230.658 185.809 227.846 190.314C229.31 195.88 228.738 202.705 228.269 205.421C233.417 206.101 240.963 204.125 247.233 198.923C253.083 186.068 261.744 180.857 265.344 179.858L263.59 197.254L260.075 199.076L248.499 205.422C239.707 216.276 220.556 233.255 214.287 214.337Z" fill="#5A189A"/>
<path d="M220.112 212.754C216.305 209.306 213.767 203.116 213.378 196.322C211.582 206.827 213.468 208.803 215.802 216.076C216.592 222.181 220.681 222.75 222.626 222.271C233.76 220.026 246.69 208.713 249.563 204.762C253.875 203.975 257.645 200.723 258.991 199.195L261.954 198.477C263.54 197.699 265.994 196.089 263.121 195.873C260.248 195.658 258.033 196.502 257.285 196.951C255.22 199.734 254.681 199.375 246.69 203.326C235.843 214.172 226.906 217.722 223.793 218.141C224.153 217.782 217.239 219.577 220.112 212.754Z" fill="black" fill-opacity="0.3"/>
<path d="M259.709 185.278C261.648 183.195 263.45 183.273 264.109 183.572L264.827 183.572L264.109 179.711L255.938 185.906C254.501 187.822 252.131 191.276 254.142 189.767C256.153 188.259 258.691 186.146 259.709 185.278Z" fill="#9D4EDD"/>
<path d="M265.73 180.024L266.581 181.182C267.055 180.834 267.269 180.231 267.121 179.662C266.972 179.092 266.491 178.671 265.907 178.598L265.73 180.024ZM250.865 193.242L252.114 193.952L250.865 193.242ZM227.028 206.116L225.604 205.924C225.548 206.334 225.673 206.748 225.945 207.06C226.217 207.372 226.61 207.552 227.024 207.553L227.028 206.116ZM215.493 214.714L216.93 214.734L216.935 214.395L216.787 214.09L215.493 214.714ZM219.825 222.415L220.16 221.018C220.105 221.005 220.049 220.995 219.993 220.988L219.825 222.415ZM236.352 217.051L237.089 218.284L236.352 217.051ZM248.886 204.739L248.52 203.35C248.011 203.484 247.617 203.885 247.491 204.396L248.886 204.739ZM259.299 198.822L258.358 197.737L258.083 197.975L257.954 198.317L259.299 198.822ZM264.712 193.449L265.486 194.659C265.873 194.412 266.119 193.994 266.146 193.535C266.173 193.076 265.98 192.632 265.625 192.34L264.712 193.449ZM262.898 191.784L262.691 190.362L262.546 190.383L262.41 190.432L262.898 191.784ZM267.156 185.56L267.196 186.996L267.357 184.137L267.156 185.56ZM260.973 188.235L260.215 187.015C259.633 187.377 259.387 188.099 259.628 188.741C259.87 189.382 260.53 189.764 261.206 189.653L260.973 188.235ZM265.854 191.353L266.061 192.774C266.481 192.713 266.853 192.469 267.076 192.107C267.299 191.745 267.351 191.304 267.217 190.9L265.854 191.353ZM265.801 187.463L266.18 188.849L265.571 186.045L265.801 187.463ZM264.359 197.789L265.792 197.885C265.811 197.597 265.743 197.31 265.597 197.061L264.359 197.789ZM216.872 178.077C217.095 177.316 216.659 176.518 215.898 176.295C215.136 176.071 214.338 176.507 214.115 177.269L216.872 178.077ZM227.534 189.844L226.314 189.086L226 189.59L226.134 190.169L227.534 189.844ZM234.062 179.767C234.321 179.018 233.923 178.2 233.173 177.94C232.424 177.681 231.606 178.079 231.346 178.829L234.062 179.767ZM265.907 178.598C263.516 178.302 260.838 179.356 258.139 181.591C255.418 183.844 252.519 187.419 249.616 192.533L252.114 193.952C254.911 189.027 257.604 185.764 259.972 183.804C262.36 181.826 264.265 181.29 265.554 181.45L265.907 178.598ZM249.616 192.533C246.967 197.197 242.659 200.244 238.277 202.129C233.886 204.019 229.546 204.687 227.031 204.68L227.024 207.553C229.939 207.561 234.667 206.811 239.413 204.769C244.167 202.723 249.063 199.325 252.114 193.952L249.616 192.533ZM214.057 214.694C214.014 217.713 214.634 219.913 215.71 221.429C216.805 222.972 218.285 223.681 219.658 223.842L219.993 220.988C219.372 220.915 218.646 220.602 218.053 219.766C217.442 218.905 216.893 217.371 216.93 214.734L214.057 214.694ZM219.491 223.812C220.721 224.107 222.892 224.035 225.782 223.28C228.724 222.512 232.532 221.006 237.089 218.284L235.616 215.817C231.259 218.419 227.701 219.809 225.056 220.5C222.361 221.204 220.725 221.153 220.16 221.018L219.491 223.812ZM237.089 218.284C241.653 215.558 244.786 212.864 246.855 210.568C248.891 208.308 249.969 206.352 250.281 205.083L247.491 204.396C247.34 205.012 246.607 206.551 244.72 208.645C242.866 210.703 239.964 213.221 235.616 215.817L237.089 218.284ZM249.252 206.128C251.211 205.612 253.617 204.954 255.705 203.965C257.757 202.993 259.803 201.563 260.644 199.328L257.954 198.317C257.516 199.483 256.325 200.492 254.475 201.369C252.66 202.228 250.499 202.828 248.52 203.35L249.252 206.128ZM265.625 192.34C265.07 191.884 264.45 191.61 263.949 191.435C263.475 191.268 262.952 191.142 262.767 191.09C262.608 191.045 262.666 191.049 262.775 191.112C262.82 191.138 263.076 191.283 263.254 191.616C263.356 191.806 263.425 192.044 263.416 192.308C263.408 192.566 263.329 192.775 263.248 192.922C263.105 193.179 262.923 193.303 262.902 193.318C262.857 193.35 262.839 193.356 262.878 193.337C262.953 193.3 263.108 193.235 263.386 193.135L262.41 190.432C262.107 190.542 261.835 190.648 261.617 190.755C261.508 190.808 261.376 190.879 261.247 190.97C261.141 191.044 260.905 191.222 260.734 191.53C260.512 191.931 260.454 192.474 260.723 192.974C260.924 193.35 261.227 193.536 261.34 193.601C261.584 193.742 261.862 193.82 261.982 193.854C262.716 194.062 263.35 194.189 263.799 194.559L265.625 192.34ZM264.88 178.866C264.128 179.418 263.786 180.272 263.642 180.991C263.491 181.743 263.51 182.568 263.666 183.338C263.95 184.739 264.889 186.69 266.955 186.982L267.357 184.137C267.158 184.109 266.692 183.801 266.483 182.768C266.392 182.322 266.393 181.886 266.459 181.554C266.532 181.191 266.64 181.138 266.581 181.182L264.88 178.866ZM267.116 184.124C265.484 184.169 264.046 184.736 262.894 185.347C261.801 185.927 260.739 186.689 260.215 187.015L261.731 189.456C262.535 188.956 263.239 188.417 264.242 187.885C265.187 187.383 266.177 187.024 267.196 186.996L267.116 184.124ZM267.217 190.9C267.108 190.572 266.929 190.154 266.799 189.836C266.652 189.474 266.529 189.15 266.452 188.865C266.368 188.553 266.384 188.444 266.38 188.465C266.374 188.496 266.35 188.588 266.27 188.691C266.186 188.799 266.09 188.855 266.037 188.877L264.969 186.209C264.139 186.541 263.688 187.218 263.554 187.943C263.441 188.56 263.558 189.17 263.678 189.613C263.804 190.082 263.986 190.547 264.138 190.92C264.308 191.336 264.421 191.598 264.49 191.805L267.217 190.9ZM266.037 188.877C266.013 188.886 266.008 188.885 266.031 188.881L265.571 186.045C265.37 186.077 265.167 186.13 264.969 186.209L266.037 188.877ZM265.422 186.077C265.324 186.104 265.229 186.129 265.137 186.153L265.868 188.932C265.969 188.906 266.073 188.878 266.18 188.849L265.422 186.077ZM265.137 186.153C264.028 186.445 263.435 186.528 262.911 186.578C262.374 186.628 261.731 186.655 260.74 186.818L261.206 189.653C262.067 189.511 262.507 189.502 263.182 189.438C263.869 189.373 264.615 189.262 265.868 188.932L265.137 186.153ZM260.24 199.908C260.082 200.044 259.974 200.05 260.109 200.012C260.205 199.985 260.359 199.954 260.581 199.923C261.031 199.861 261.581 199.822 262.19 199.775C262.757 199.731 263.407 199.677 263.923 199.576C264.172 199.528 264.498 199.449 264.798 199.3C265.031 199.183 265.732 198.778 265.792 197.885L262.925 197.693C262.948 197.351 263.102 197.095 263.243 196.941C263.369 196.804 263.486 196.743 263.516 196.729C263.568 196.702 263.546 196.723 263.373 196.756C263.049 196.82 262.57 196.863 261.967 196.91C261.408 196.954 260.746 197 260.187 197.077C259.906 197.116 259.607 197.169 259.33 197.246C259.093 197.313 258.694 197.445 258.358 197.737L260.24 199.908ZM265.597 197.061C265.468 196.841 265.277 196.226 265.277 195.561C265.277 195.247 265.32 195.002 265.382 194.839C265.411 194.761 265.439 194.714 265.457 194.689C265.474 194.667 265.484 194.661 265.486 194.659L263.938 192.239C262.656 193.059 262.403 194.563 262.403 195.561C262.404 196.617 262.676 197.763 263.12 198.517L265.597 197.061ZM263.105 193.205L266.061 192.774L265.646 189.931L262.691 190.362L263.105 193.205ZM216.787 214.09C213.755 207.804 211.637 195.929 216.872 178.077L214.115 177.269C208.728 195.638 210.791 208.272 214.199 215.338L216.787 214.09ZM228.451 206.308C228.929 202.766 230.621 196.799 228.933 189.52L226.134 190.169C227.667 196.78 226.138 201.958 225.604 205.924L228.451 206.308ZM228.753 190.603C230.858 187.22 231.834 185.57 232.458 184.22C233.078 182.879 233.365 181.786 234.062 179.767L231.346 178.829C230.573 181.068 230.39 181.847 229.85 183.014C229.315 184.173 228.44 185.667 226.314 189.086L228.753 190.603Z" fill="#240046"/>
<path d="M101.86 88.0366C101.429 71.6591 81.687 66.6069 71.8701 66.1281C92.4019 61.459 143.953 57.0055 185.902 76.5436C193.052 79.8737 209.487 93.4239 195.061 89.6528C189.554 105.515 179.832 139.827 185.004 150.171C170.099 129.16 150.286 113.836 137.596 112.639C132.208 98.4521 122.87 89.2936 101.86 88.0366Z" fill="#9D4EDD"/>
<path d="M71.8701 66.1281C81.687 66.6069 101.429 71.6591 101.86 88.0366C122.87 89.2936 132.208 98.4521 137.596 112.639C150.286 113.836 170.997 130.058 190.392 157.533" stroke="#240046" stroke-width="2.87325" stroke-linecap="round" stroke-linejoin="round"/>
<path d="M185.314 105.999C187.257 93.6802 167.989 95.605 158.112 98.1073C167.827 80.2448 141.596 78.2173 127.267 79.4364C142.228 72.5069 124.271 65.6417 113.423 63.0752L176.328 71.1595L197.215 86.9432C192.438 98.4281 183.371 118.318 185.314 105.999Z" fill="black" fill-opacity="0.3"/>
<path d="M189.853 143.347C190.858 153.259 207.391 159.688 215.532 161.664L202.064 168.128C193.444 162.813 186.261 153.583 182.131 143.347C177.821 121.438 190.84 97.5542 195.42 87.4979C181.053 85.3429 151.962 103.001 139.212 112.1C149.537 97.1053 173.87 84.9838 190.84 83.0982C173.888 76.6334 120.715 83.9512 106.394 86.2408C127.943 79.3271 149.986 71.3359 187.339 77.8007C145.964 62.8598 93.0003 63.4344 71.6904 65.5894C82.6088 57.9753 113.472 57.2689 127.539 57.8675C158.786 60.5013 192.367 65.2302 206.194 83.7267C191.11 101.685 188.596 130.956 189.853 143.347Z" fill="#5A189A"/>
<path d="M127.539 57.8675C158.785 60.5013 190.84 64.9159 204.667 83.4125C204.667 83.4125 204.465 84.9613 203.68 85.7021C198.382 85.2531 201.345 80.5841 201.345 80.5841C177.691 63.2748 123.291 58.7055 97.3242 58.7603C108.5 57.5974 120.265 57.558 127.539 57.8675Z" fill="#9D4EDD"/>
<path d="M79.2324 62.357C143.449 59.1964 178.778 70.7373 188.416 76.9028C189.374 77.5014 188.38 77.7648 176.743 74.0295C165.107 70.2943 128.556 66.2478 111.736 64.6915C74.1443 65.2302 75.9999 64.6915 79.2324 62.357Z" fill="black" fill-opacity="0.3"/>
<path d="M215.532 161.664C207.391 159.688 190.858 153.259 189.853 143.347C188.596 130.956 191.11 101.685 206.194 83.7267C199.729 84.041 204.381 81.46 203.364 80.405C188.162 64.6451 156.825 60.3361 127.539 57.8675C113.472 57.2689 82.6088 57.9753 71.6904 65.5894C93.0003 63.4344 145.964 62.8598 187.339 77.8007C149.986 71.3359 123.588 80.5841 102.039 87.4979C116.36 85.2082 173.888 76.6334 190.84 83.0982C173.87 84.9838 147.921 97.8236 137.596 112.818C150.346 103.72 181.053 85.3429 195.42 87.4979C190.84 97.5542 177.821 121.438 182.131 143.347C186.261 153.583 193.444 162.813 202.064 168.128" stroke="#240046" stroke-width="2.87325" stroke-linecap="round" stroke-linejoin="round"/>
<path d="M208.552 81.8808C207.131 84.0301 207.081 84.4583 206.304 84.7225C205.528 84.9868 203.414 84.4865 202.31 83.4991C200.946 82.2802 202.361 79.9684 202.361 79.9684C205.855 77.5133 210.7 70.1311 211.076 64.479C214.022 72.3359 210.161 79.4475 208.552 81.8808Z" fill="#240046"/>
<path d="M207.287 74.3939C209.266 71.3205 210.866 67.6307 211.075 64.4789C212.728 68.8875 212.238 73.0614 211.206 76.3059C211.64 72.8897 211.598 69.2272 207.287 74.3939Z" fill="#5A189A"/>
<defs>
<filter id="filter0_d" x="203.564" y="40.2254" width="79.7326" height="79.7326" filterUnits="userSpaceOnUse" color-interpolation-filters="sRGB">
<feFlood flood-opacity="0" result="BackgroundImageFix"/>
<feColorMatrix in="SourceAlpha" type="matrix" values="0 0 0 0 0 0 0 0 0 0 0 0 0 0 0 0 0 0 127 0"/>
<feOffset/>
<feGaussianBlur stdDeviation="5.74649"/>
<feColorMatrix type="matrix" values="0 0 0 0 1 0 0 0 0 1 0 0 0 0 1 0 0 0 0.4 0"/>
<feBlend mode="normal" in2="BackgroundImageFix" result="effect1_dropShadow"/>
<feBlend mode="normal" in="SourceGraphic" in2="effect1_dropShadow" result="shape"/>
</filter>
<filter id="filter1_d" x="216.493" y="53.155" width="53.8734" height="53.8734" filterUnits="userSpaceOnUse" color-interpolation-filters="sRGB">
<feFlood flood-opacity="0" result="BackgroundImageFix"/>
<feColorMatrix in="SourceAlpha" type="matrix" values="0 0 0 0 0 0 0 0 0 0 0 0 0 0 0 0 0 0 127 0"/>
<feOffset/>
<feGaussianBlur stdDeviation="1.43662"/>
<feColorMatrix type="matrix" values="0 0 0 0 1 0 0 0 0 1 0 0 0 0 1 0 0 0 0.2 0"/>
<feBlend mode="normal" in2="BackgroundImageFix" result="effect1_dropShadow"/>
<feBlend mode="normal" in="SourceGraphic" in2="effect1_dropShadow" result="shape"/>
</filter>
<radialGradient id="paint0_radial" cx="0" cy="0" r="1" gradientUnits="userSpaceOnUse" gradientTransform="translate(245.944 83.3242) rotate(143.295) scale(249.973)">
<stop stop-color="#3E3E70" stop-opacity="0.46"/>
<stop offset="1" stop-color="#3E3E70" stop-opacity="0"/>
</radialGradient>
</defs>
</svg>
