<svg width="278" height="180" viewBox="0 0 278 180" fill="none" xmlns="http://www.w3.org/2000/svg">
<g clip-path="url(#clip0)">
<path d="M46.3768 104.726C48.2563 104.034 48.8962 103.712 49.0812 103.971L46.0803 110.221C42.8209 110.198 40.3348 112.216 38.447 115.666C37.7824 109.78 44.2491 105.51 46.3768 104.726Z" fill="#240046"/>
<path d="M47.2129 108.39C49.0923 107.698 46.5749 109.532 46.7599 109.792L46.0799 110.221C42.8205 110.198 40.3344 112.216 38.4467 115.666C40.8332 110.131 45.0851 109.174 47.2129 108.39Z" fill="#5A189A"/>
<path d="M46.3768 104.726C48.2563 104.034 48.8962 103.712 49.0812 103.971L48.5242 104.666C40.5179 107.356 39.3212 112.297 38.447 115.666C37.7824 109.78 44.2491 105.51 46.3768 104.726Z" fill="#190031"/>
<path d="M44.1026 99.9344C46.0576 99.4988 46.7347 99.2651 46.8835 99.5469L45.5725 102.909L43.0758 105.34C39.8486 104.883 37.1156 106.551 34.7846 109.718C34.9109 103.797 41.8893 100.428 44.1026 99.9344Z" fill="#240046"/>
<path d="M44.4425 103.677C46.3975 103.241 43.6578 104.724 43.8066 105.005L43.0754 105.34C39.8482 104.883 37.1152 106.551 34.7842 109.718C37.8876 104.551 42.2292 104.17 44.4425 103.677Z" fill="#5A189A"/>
<path d="M44.1026 99.9344C46.0576 99.4988 46.7347 99.2651 46.8835 99.5469L46.2388 100.161C37.9454 101.759 36.1003 106.496 34.7846 109.718C34.9109 103.797 41.8893 100.428 44.1026 99.9344Z" fill="#190031"/>
<path d="M43.2631 95.0851C45.616 94.5224 46.4412 94.241 46.5811 94.5272L44.6218 98.1128L41.3841 100.791C37.6463 100.49 34.2255 102.384 31.091 105.822C31.9753 99.6273 40.5994 95.7223 43.2631 95.0851Z" fill="#240046"/>
<path d="M43.1983 98.9775C45.5513 98.4147 42.1456 100.115 42.2856 100.401L41.3842 100.791C37.6464 100.491 34.2256 102.384 31.0911 105.822C35.3824 100.251 40.5346 99.6146 43.1983 98.9775Z" fill="#5A189A"/>
<path d="M43.2631 95.0851C45.616 94.5224 46.4412 94.241 46.5811 94.5272L45.7467 95.2048C35.7966 97.3302 33.0385 102.382 31.091 105.822C31.9753 99.6273 40.5994 95.7223 43.2631 95.0851Z" fill="#190031"/>
<path d="M91.8929 111.56C92.7471 94.5496 84.971 82.0029 80.9761 77.8559L67.0515 84.5989C69.7587 85.9705 71.9097 91.7914 75.2515 94.8616C75.3143 99.7799 77.3399 105.271 78.3449 107.401C74.2593 109.134 67.5941 109.226 61.2449 106.369C53.4979 97.1136 45.1763 94.7947 41.9839 94.7921L47.3915 108.721L50.7023 109.421L61.6828 112.011C71.3969 118.948 91.0387 128.57 91.8929 111.56Z" fill="#5A189A"/>
<path d="M56.0416 103.23C52.7267 99.976 45.9128 96.4002 43.3808 97.8582L42.2296 95.019L51.1308 97.2443C54.149 100.595 59.3566 106.483 56.0416 103.23Z" fill="#9D4EDD"/>
<path d="M51.6675 106.069C53.6318 105.884 56.0668 107.885 57.0388 108.908L58.3433 111.21L56.5017 111.67L50.9001 108.908L47.3704 108.908L47.3704 107.143C47.9843 106.861 49.7031 106.253 51.6675 106.069Z" fill="black" fill-opacity="0.3"/>
<path d="M41.7031 95.0167L41.2665 96.1642C40.7964 95.9853 40.4829 95.5378 40.4755 95.0348C40.4681 94.5319 40.7681 94.0753 41.2327 93.8826L41.7031 95.0167ZM56.9587 102.518L56.0913 103.387L56.9587 102.518ZM79.5258 107.691L80.4159 106.846C80.7125 107.158 80.8239 107.603 80.7093 108.018C80.5948 108.433 80.2711 108.758 79.8563 108.874L79.5258 107.691ZM90.9848 112.146L89.8063 112.49L89.7251 112.211L89.7769 111.926L90.9848 112.146ZM89.171 119.476L88.5773 118.401C88.6195 118.378 88.6632 118.357 88.7079 118.338L89.171 119.476ZM74.3363 118.822L74.0106 120.006L74.3363 118.822ZM61.2077 111.537L61.1929 110.309C61.6422 110.304 62.0586 110.544 62.2785 110.936L61.2077 111.537ZM51.2829 109.035L51.8107 107.927L52.0919 108.061L52.2753 108.312L51.2829 109.035ZM45.6005 105.843L45.2385 107.016C44.8631 106.9 44.5659 106.611 44.4388 106.24C44.3117 105.868 44.3701 105.458 44.596 105.137L45.6005 105.843ZM46.7153 104.057L46.5621 102.839L46.6855 102.824L46.8096 102.833L46.7153 104.057ZM41.7898 99.9013L42.0841 101.093L41.3001 98.7754L41.7898 99.9013ZM47.4922 100.696L47.8387 99.5186C48.4006 99.6839 48.7674 100.223 48.715 100.806C48.6625 101.39 48.2053 101.855 47.623 101.917L47.4922 100.696ZM44.1824 104.376L44.3356 105.594C43.9753 105.639 43.6134 105.523 43.3472 105.276C43.081 105.029 42.9379 104.677 42.9562 104.314L44.1824 104.376ZM43.3396 101.16L43.3433 102.388L43.2056 99.9396L43.3396 101.16ZM46.8802 109.337L45.7213 109.742C45.6399 109.51 45.6305 109.258 45.6943 109.019L46.8802 109.337ZM75.402 94.4039L76.2339 93.5009L76.7594 93.9851L76.598 94.6811L75.402 94.4039ZM41.2327 93.8826C43.1348 93.0937 45.5809 93.3519 48.3132 94.5781C51.0674 95.8143 54.2695 98.0984 57.826 101.649L56.0913 103.387C52.6659 99.9672 49.704 97.8938 47.3077 96.8183C44.8895 95.733 43.1988 95.7255 42.1735 96.1507L41.2327 93.8826ZM57.826 101.649C61.0703 104.887 65.3128 106.415 69.3515 106.97C73.3985 107.526 77.1253 107.088 79.1953 106.509L79.8563 108.874C77.457 109.544 73.3912 110.004 69.0173 109.403C64.6353 108.801 59.8289 107.118 56.0913 103.387L57.826 101.649ZM92.1634 111.802C92.8862 114.279 92.8769 116.232 92.336 117.726C91.7857 119.246 90.7284 120.167 89.6341 120.613L88.7079 118.338C89.2026 118.137 89.7292 117.713 90.0271 116.89C90.3344 116.041 90.4375 114.653 89.8063 112.49L92.1634 111.802ZM89.7648 120.55C88.8188 121.073 87.0144 121.508 84.4614 121.545C81.8636 121.582 78.384 121.209 74.0106 120.006L74.662 117.638C78.8427 118.789 82.0902 119.124 84.426 119.09C86.8067 119.056 88.1426 118.641 88.5773 118.401L89.7648 120.55ZM74.0106 120.006C69.6298 118.8 66.4354 117.295 64.2087 115.875C62.0169 114.477 60.6836 113.112 60.1368 112.137L62.2785 110.936C62.5438 111.409 63.4978 112.51 65.5288 113.804C67.5248 115.077 70.4888 116.49 74.662 117.638L74.0106 120.006ZM61.2225 112.764C59.4913 112.785 57.3596 112.792 55.4149 112.453C53.5035 112.119 51.4917 111.407 50.2904 109.758L52.2753 108.312C52.9023 109.173 54.1128 109.733 55.8366 110.034C57.5272 110.328 59.4437 110.33 61.1929 110.309L61.2225 112.764ZM44.596 105.137C44.9487 104.635 45.3972 104.268 45.7698 104.009C46.1226 103.764 46.5245 103.542 46.6652 103.456C46.7854 103.383 46.7387 103.4 46.6635 103.476C46.6325 103.507 46.4546 103.686 46.3834 104.001C46.3426 104.18 46.3405 104.392 46.4079 104.608C46.4735 104.818 46.5859 104.972 46.6861 105.075C46.8624 105.254 47.0407 105.315 47.0615 105.323C47.1058 105.338 47.1219 105.339 47.0858 105.332C47.0149 105.319 46.8732 105.301 46.621 105.281L46.8096 102.833C47.0839 102.854 47.3318 102.88 47.5361 102.918C47.6375 102.937 47.7625 102.965 47.8899 103.011C47.9937 103.048 48.2292 103.141 48.4395 103.356C48.7142 103.636 48.8853 104.07 48.7782 104.543C48.6978 104.898 48.4903 105.121 48.4123 105.2C48.2431 105.371 48.0324 105.498 47.9408 105.554C47.3842 105.893 46.8909 106.142 46.605 106.548L44.596 105.137ZM42.1397 93.8692C42.8846 94.1527 43.3616 94.7777 43.6439 95.3377C43.939 95.9228 44.1111 96.606 44.1581 97.2763C44.2437 98.495 43.9149 100.316 42.2796 101.027L41.3001 98.7754C41.4578 98.7068 41.7717 98.3463 41.7087 97.4482C41.6815 97.0602 41.5815 96.7012 41.4515 96.4433C41.3088 96.1603 41.2077 96.1418 41.2665 96.1642L42.1397 93.8692ZM41.4955 98.7093C42.8506 98.3747 44.1643 98.5139 45.2517 98.755C46.2846 98.984 47.3328 99.3697 47.8387 99.5186L47.1456 101.874C46.37 101.646 45.6677 101.362 44.7201 101.152C43.827 100.954 42.9303 100.884 42.0841 101.093L41.4955 98.7093ZM42.9562 104.314C42.9711 104.019 43.0237 103.634 43.0579 103.342C43.0969 103.011 43.1246 102.715 43.123 102.463C43.1212 102.187 43.0829 102.101 43.0909 102.117C43.1028 102.141 43.1433 102.212 43.2328 102.278C43.3268 102.349 43.4185 102.373 43.4675 102.378L43.7396 99.9378C44.4985 100.022 45.0242 100.477 45.2995 101.044C45.5335 101.526 45.5758 102.055 45.5784 102.447C45.5811 102.862 45.5368 103.287 45.4966 103.629C45.4518 104.01 45.418 104.251 45.4086 104.438L42.9562 104.314ZM43.4675 102.378C43.4894 102.381 43.4931 102.378 43.4736 102.38L43.2056 99.9396C43.3789 99.9205 43.558 99.9175 43.7396 99.9378L43.4675 102.378ZM43.336 99.9322C43.4234 99.932 43.5073 99.9313 43.5879 99.9303L43.6191 102.386C43.5302 102.387 43.4383 102.387 43.3433 102.388L43.336 99.9322ZM43.5879 99.9303C44.5686 99.9178 45.0756 99.8509 45.5186 99.7724C45.9722 99.692 46.5082 99.5671 47.3614 99.4757L47.623 101.917C46.8816 101.997 46.5172 102.089 45.947 102.19C45.3662 102.293 44.7261 102.372 43.6191 102.386L43.5879 99.9303ZM50.755 110.144C50.916 110.22 51.0064 110.2 50.8867 110.2C50.8018 110.199 50.668 110.209 50.4774 110.234C50.0927 110.285 49.6314 110.379 49.1184 110.478C48.6415 110.571 48.0944 110.675 47.6458 110.71C47.4302 110.726 47.1431 110.736 46.8626 110.681C46.6437 110.639 45.974 110.464 45.7213 109.742L48.0391 108.932C47.9422 108.654 47.7568 108.479 47.6055 108.384C47.4708 108.3 47.3606 108.277 47.3329 108.271C47.2838 108.262 47.3068 108.273 47.4564 108.262C47.7383 108.24 48.1423 108.167 48.6495 108.068C49.1205 107.976 49.6762 107.864 50.1537 107.8C50.3942 107.768 50.6529 107.743 50.8982 107.744C51.1088 107.745 51.4672 107.763 51.8107 107.927L50.755 110.144ZM45.6943 109.019C45.7506 108.809 45.7678 108.259 45.6163 107.711C45.5449 107.452 45.4532 107.261 45.3654 107.14C45.3237 107.082 45.2899 107.05 45.269 107.034C45.2499 107.019 45.2405 107.016 45.2385 107.016L45.9625 104.669C47.2046 105.053 47.7557 106.234 47.983 107.056C48.2235 107.926 48.2597 108.932 48.0662 109.655L45.6943 109.019ZM46.8685 105.276L44.3356 105.594L44.0292 103.158L46.5621 102.839L46.8685 105.276ZM89.7769 111.926C90.8596 105.964 90.4818 91.3007 79.8536 78.5897L81.7374 77.0147C92.9366 90.4086 93.3739 105.862 92.1928 112.365L89.7769 111.926ZM78.6357 108.537C77.5704 107.416 76.1197 105.404 75.1027 102.906C74.0839 100.404 73.4647 97.3238 74.206 94.1266L76.598 94.6811C76.0054 97.2373 76.483 99.7849 77.3769 101.98C78.2727 104.18 79.5508 105.935 80.4159 106.846L78.6357 108.537ZM74.5701 95.3068C71.9856 92.9256 70.4998 91.0954 69.3116 89.4555C68.1058 87.7912 67.3261 86.5075 66.0005 84.9819L67.8539 83.3713C69.2729 85.0042 70.2133 86.5148 71.3001 88.0149C72.4046 89.5394 73.7838 91.2436 76.2339 93.5009L74.5701 95.3068Z" fill="#240046"/>
<path d="M122.693 168.377C122.227 166.628 121.991 166.026 122.24 165.881L127.613 169.103C127.32 172.035 128.928 174.44 131.875 176.427C126.523 176.534 123.221 170.358 122.693 168.377Z" fill="#240046"/>
<path d="M126.06 167.931C125.594 166.182 127.034 168.6 127.283 168.456L127.613 169.103C127.32 172.035 128.928 174.44 131.875 176.427C127.093 173.817 126.588 169.911 126.06 167.931Z" fill="#5A189A"/>
<path d="M122.693 168.377C122.227 166.628 121.991 166.026 122.24 165.881L122.818 166.44C124.569 173.87 128.916 175.359 131.875 176.427C126.523 176.534 123.221 170.358 122.693 168.377Z" fill="#190031"/>
<path d="M118.723 169.209C118.618 167.402 118.508 166.764 118.781 166.672L121.589 168.33L123.396 170.91C122.519 173.722 123.61 176.402 126.097 178.941C120.834 177.969 118.841 171.255 118.723 169.209Z" fill="#240046"/>
<path d="M122.11 169.449C122.006 167.642 122.93 170.301 123.203 170.209L123.396 170.91C122.519 173.722 123.61 176.402 126.097 178.942C121.938 175.423 122.229 171.495 122.11 169.449Z" fill="#5A189A"/>
<path d="M118.723 169.209C118.618 167.402 118.508 166.764 118.781 166.672L119.235 167.336C119.456 174.966 123.414 177.3 126.097 178.941C120.834 177.969 118.841 171.255 118.723 169.209Z" fill="#190031"/>
<path d="M114.567 167.586C115.013 165.832 115.101 165.19 115.389 165.185L117.566 167.613L118.509 170.618C116.824 173.035 117.055 175.919 118.66 179.091C113.935 176.575 114.063 169.572 114.567 167.586Z" fill="#240046"/>
<path d="M117.724 168.838C118.17 167.084 118.249 169.898 118.537 169.893L118.509 170.619C116.824 173.036 117.055 175.92 118.659 179.092C115.757 174.482 117.22 170.825 117.724 168.838Z" fill="#5A189A"/>
<path d="M114.567 167.586C115.013 165.832 115.101 165.19 115.389 165.185L115.622 165.956C113.528 173.296 116.597 176.716 118.66 179.091C113.935 176.575 114.063 169.572 114.567 167.586Z" fill="#190031"/>
<path d="M110.115 120.901C111.547 118.344 113.061 112.676 107.659 110.466C102.257 108.256 97.8372 111.386 96.3025 113.228C94.5632 114.865 88.1414 121.922 92.3157 132.726C96.49 143.53 117.276 142.898 125.154 141.773C124.336 142.694 122.822 145.702 123.313 150.367C123.804 155.032 117.651 163.713 115.297 167.601C116.218 167.192 119.875 167.064 120.857 168.783C122.392 167.248 122.699 167.248 123.927 169.09C124.438 168.271 125.707 166.941 126.689 168.169C126.689 164.793 126.996 164.179 127.917 161.724C130.168 158.552 134.976 150.858 136.204 145.456C138.045 140.545 138.045 140.238 138.045 139.624C138.148 138.601 135.897 136.862 131.6 136.248C127.303 135.634 119.118 128.37 116.253 124.892C115.013 123.728 112.127 121.649 108.664 120.603C109.214 120.709 109.713 120.813 110.115 120.901Z" fill="#5A189A"/>
<path d="M128.091 154.216C129.994 151.699 133.232 142.323 134.614 137.949L138.297 138.716L134.23 150.533L127.708 162.58L126.864 167.107C125.738 168.386 123.411 170.361 123.104 168.028H121.607L116.543 167.338C116.159 166.813 115.707 165.749 116.965 165.688C118.223 165.626 119.177 165.899 119.497 166.043C121.431 165.436 122.772 165.79 123.201 166.043C123.776 162.476 126.14 156.797 128.091 154.216Z" fill="black" fill-opacity="0.3"/>
<path d="M110.115 120.901C110.459 120.286 110.809 119.491 111.065 118.607M100.296 120.901C101.22 120.141 102.138 119.827 105.204 119.981C110.115 120.226 114.616 123.357 116.253 124.892C119.118 128.37 127.303 135.634 131.6 136.248C135.897 136.862 138.148 138.601 138.045 139.624C138.045 140.238 138.045 140.545 136.204 145.456C134.976 150.858 130.168 158.552 127.917 161.724C126.996 164.179 126.689 164.793 126.689 168.169C125.465 167.862 123.824 168.271 123.313 169.09C122.085 167.248 120.55 167.248 119.016 168.783C118.033 167.064 115.911 167.248 115.025 167.248C117.379 163.361 123.804 155.032 123.313 150.367C122.822 145.702 124.336 142.694 125.154 141.773C117.276 142.898 96.49 143.53 92.3157 132.726C88.1414 121.922 94.5632 114.865 96.3025 113.228C96.6054 112.865 97.0206 112.451 97.5336 112.038" stroke="#240046" stroke-width="2.45547" stroke-linecap="round"/>
<path d="M180.306 40.3138C180.919 26.3262 197.864 22.3051 206.259 22.043C197.044 15.3734 170.844 13.8498 158.815 14.1505C132.077 15.9328 103.312 19.4703 91.2198 35.0678C103.84 50.6381 105.55 75.687 104.29 86.2558C103.282 94.7108 89.0586 99.9563 82.073 101.522L93.4843 107.248L103.617 98.3697C120.6 75.1835 138.541 61.6328 149.402 60.8C154.218 48.7587 162.334 41.073 180.306 40.3138Z" fill="#5A189A"/>
<path d="M117.868 23.2949C103.053 26.3272 94.996 33.9802 93.0034 36.6371L90.9241 34.038L96.6422 29.013L109.551 22.4285C118.388 20.6091 132.965 20.2049 117.868 23.2949Z" fill="#9D4EDD"/>
<path d="M206.259 22.043L206.979 21.0485C207.404 21.3564 207.587 21.9009 207.433 22.4031C207.279 22.9052 206.822 23.2538 206.297 23.2702L206.259 22.043ZM180.306 40.3138L181.532 40.3676L181.483 41.4928L180.358 41.5404L180.306 40.3138ZM149.402 60.8L150.542 61.2559C150.368 61.6904 149.962 61.9884 149.496 62.0241L149.402 60.8ZM103.617 98.3697L104.607 99.0952C104.554 99.1676 104.494 99.234 104.426 99.2931L103.617 98.3697ZM82.073 101.522L81.5224 102.62C81.0585 102.387 80.7911 101.888 80.8544 101.372C80.9177 100.857 81.298 100.438 81.8044 100.324L82.073 101.522ZM104.29 86.2558L103.071 86.1105L104.29 86.2558ZM91.2198 35.0678L90.266 35.8408L89.6532 35.0847L90.2495 34.3155L91.2198 35.0678ZM158.815 14.1505L158.734 12.9255C158.751 12.9244 158.768 12.9236 158.785 12.9231L158.815 14.1505ZM93.4843 107.248L94.2934 108.171C93.9178 108.501 93.3802 108.569 92.9338 108.345L93.4843 107.248ZM206.297 23.2702C202.227 23.3972 196.086 24.4419 190.93 27.1208C185.799 29.7873 181.813 33.9655 181.532 40.3676L179.079 40.2599C179.412 32.6745 184.205 27.8484 189.798 24.9419C195.367 22.0479 201.895 20.9509 206.221 20.8159L206.297 23.2702ZM180.358 41.5404C171.538 41.913 165.269 43.9786 160.639 47.3215C156.009 50.6641 152.895 55.372 150.542 61.2559L148.262 60.3441C150.725 54.1867 154.076 49.0311 159.202 45.3307C164.326 41.6307 171.102 39.4738 180.254 39.0871L180.358 41.5404ZM149.496 62.0241C144.443 62.4116 137.484 65.814 129.574 72.16C121.707 78.4703 113.049 87.5712 104.607 99.0952L102.626 97.6442C111.169 85.982 119.972 76.7145 128.037 70.2447C136.058 63.8106 143.499 60.0212 149.308 59.5759L149.496 62.0241ZM81.8044 100.324C85.2135 99.56 90.3962 97.8932 94.8209 95.4025C99.3303 92.8642 102.642 89.7041 103.071 86.1105L105.509 86.4011C104.929 91.2624 100.626 94.9526 96.0253 97.5423C91.34 100.18 85.9181 101.918 82.3415 102.72L81.8044 100.324ZM103.071 86.1105C103.684 80.9648 103.58 72.1887 101.754 62.771C99.9279 53.3489 96.4019 43.4111 90.266 35.8408L92.1736 34.2947C98.6579 42.2948 102.297 52.6666 104.165 62.3037C106.034 71.9452 106.155 80.978 105.509 86.4011L103.071 86.1105ZM90.2495 34.3155C96.5481 26.1912 107.089 21.318 119.223 18.2384C131.384 15.1521 145.356 13.8172 158.734 12.9255L158.897 15.3755C145.536 16.2661 131.756 17.5911 119.827 20.6185C107.872 23.6525 97.9838 28.3469 92.1901 35.82L90.2495 34.3155ZM158.785 12.9231C164.856 12.7714 174.475 13.0795 183.748 14.2651C188.385 14.858 192.96 15.6734 196.973 16.7694C200.965 17.8596 204.497 19.2525 206.979 21.0485L205.539 23.0376C203.413 21.4987 200.215 20.2002 196.326 19.1382C192.459 18.0821 188.005 17.2848 183.437 16.7007C174.298 15.5323 164.804 15.2289 158.846 15.3779L158.785 12.9231ZM82.6236 100.425L94.035 106.151L92.9338 108.345L81.5224 102.62L82.6236 100.425ZM104.426 99.2931L94.2934 108.171L92.6753 106.325L102.808 97.4463L104.426 99.2931Z" fill="#240046"/>
<path d="M88.5474 33.3544C89.6065 34.9563 89.6437 35.2754 90.2226 35.4723C90.8015 35.6693 92.3766 35.2964 93.2 34.5605C94.2163 33.6521 93.1616 31.9291 93.1616 31.9291C90.5577 30.0993 86.9465 24.5974 86.6666 20.3849C84.4705 26.2406 87.3483 31.5409 88.5474 33.3544Z" fill="#240046"/>
<path d="M89.4896 27.7751C88.014 25.4845 86.8221 22.7345 86.666 20.3855C85.4338 23.6712 85.799 26.782 86.5688 29.2001C86.2453 26.654 86.2766 23.9244 89.4896 27.7751Z" fill="#5A189A"/>
<path d="M40.8604 22.2627C49.7781 27.9594 49.9808 33.9047 48.9674 36.1653L54.0343 30.7399C53.0209 23.28 52.3453 25.6536 45.5895 17.8546C40.1848 11.6153 43.5985 3.63037 44.2383 0.561035C40.8604 0.561035 31.9427 16.566 40.8604 22.2627Z" fill="#5A189A"/>
<path d="M40.747 22.263C49.6647 27.9597 49.8674 33.905 48.854 36.1656L53.9209 30.7402C52.9075 23.2803 51.1618 25.8556 44.406 18.0565C39.0013 11.8173 42.5384 4.8584 43.1782 1.78906C39.8003 1.78906 32.2402 16.8288 40.747 22.263Z" fill="#240046"/>
<path d="M40.7473 22.2626C49.665 27.9593 49.8676 33.9047 48.8543 36.1653L49.5812 35.5514C50.4148 33.6919 50.4256 29.3394 45.4401 24.6828C44.3646 23.6783 43.0566 22.6596 41.4742 21.6488C35.8789 18.0744 37.0637 10.3444 39.6084 5.47191C39.8618 4.96509 39.9673 4.65334 40.2223 4.24418L40.4364 3.86768C37.1765 8.18669 34.193 18.0757 40.7473 22.2626Z" fill="black" fill-opacity="0.3"/>
<path d="M81.3495 30.1105C76.7659 31.7552 74.4113 36.0317 74.3637 37.0854L69.4537 33.2334C70.744 31.0503 76.8631 28.6991 81.3495 30.1105Z" fill="#240046"/>
<path d="M70.8166 31.8913C73.2051 30.238 77.7907 28.9904 81.3491 30.1099C81.0734 30.2088 80.8057 30.3173 80.5461 30.434C78.4762 30.5598 73.8645 31.3216 71.9769 33.3627L70.8166 31.8913Z" fill="#5A189A"/>
<path d="M265.876 50.3457C264.448 54.4465 266.679 55.8355 267.482 56.2984L262.396 58.415C261.236 56.563 263.288 52.3299 265.876 50.3457Z" fill="#240046"/>
<path d="M265.876 50.3452C265.477 51.4909 265.364 52.425 265.425 53.1863C264.61 52.4387 262.874 55.0651 262.108 56.4717C262.39 54.4293 263.991 51.7906 265.876 50.3452Z" fill="#5A189A"/>
<path d="M258.958 51.6273C257.159 56.0165 258.819 59.3792 259.578 60.1031L253.44 61.1313C252.657 58.7702 254.931 53.9464 258.958 51.6273Z" fill="#240046"/>
<path d="M258.958 51.6274C258.533 52.6638 258.301 53.6429 258.205 54.5435C257.476 54.4764 255.614 54.907 253.999 57.1664C254.907 55.1215 256.643 52.9606 258.958 51.6274Z" fill="#5A189A"/>
<path d="M251.348 51.799C248.351 56.689 249.537 60.9868 250.251 61.9848L243.002 62.0933C242.608 59.145 246.241 53.8246 251.348 51.799Z" fill="#240046"/>
<path d="M244.679 57.1961C246.171 55.0288 248.536 52.9144 251.348 51.799C250.521 53.1491 250.012 54.4542 249.724 55.6571C249.085 54.0931 246.095 56.0314 244.679 57.1961Z" fill="#5A189A"/>
<path d="M242.999 52.5186C239.041 56.6672 239.257 61.0976 239.732 62.2166L232.697 60.834C232.955 57.8809 237.621 53.4435 242.999 52.5186Z" fill="#240046"/>
<path d="M242.999 52.5181C242.517 53.0232 242.097 53.5325 241.732 54.0395C239.211 54.2209 235.328 56.992 233.702 58.3548C235.393 55.8368 238.999 53.206 242.999 52.5181Z" fill="#5A189A"/>
<path d="M233.408 49.8483C228.934 53.4405 227.954 59.108 228.306 60.2999L221.358 57.8953C221.957 54.9683 227.869 49.9994 233.408 49.8483Z" fill="#240046"/>
<path d="M233.408 49.8486C232.796 50.3402 232.249 50.8705 231.763 51.423C228.234 51.5515 224.074 54.3802 222.435 55.7785C224.498 53.0441 229.068 49.967 233.408 49.8486Z" fill="#5A189A"/>
<path d="M182.35 48.3668C181.707 54.8696 186.435 60.1308 187.957 60.7786L178.991 64.6022C176.636 61.8089 177.266 53.0406 182.35 48.3668Z" fill="#240046"/>
<path d="M182.351 48.3668C182.132 50.5781 182.816 53.3166 183.502 55.1081C180.694 50.5887 178.79 54.1101 178.11 56.0218C178.751 53.2487 180.123 50.4147 182.351 48.3668Z" fill="#5A189A"/>
<path d="M171.217 54.4407C170.725 60.9568 175.575 66.1063 177.112 66.7185L168.237 70.7501C165.818 68.0124 166.243 59.2318 171.217 54.4407Z" fill="#240046"/>
<path d="M172.237 60.3991C172.332 60.6648 172.429 60.9173 172.526 61.153C172.442 60.865 172.345 60.6148 172.237 60.3991C171.615 58.664 171.072 56.3619 171.217 54.4403C169.038 56.5397 167.732 59.4049 167.156 62.1921C167.745 60.4077 170.881 57.7002 172.237 60.3991Z" fill="#5A189A"/>
<path d="M159.474 59.8791C158.933 67.0445 164.266 72.7073 165.956 73.3804L156.197 77.8139C153.537 74.8034 154.004 65.1477 159.474 59.8791Z" fill="#240046"/>
<path d="M159.474 59.8794C159.363 61.3576 159.501 62.7718 159.806 64.0915C156.968 64.0915 155.173 69.0813 154.63 71.5762C154.747 67.6678 156.232 63.0027 159.474 59.8794Z" fill="#5A189A"/>
<path d="M146.587 65.3268C146.046 72.4923 151.38 78.155 153.069 78.8282L143.31 83.2616C140.65 80.2511 141.117 70.5954 146.587 65.3268Z" fill="#240046"/>
<path d="M146.587 65.3268C146.448 67.1688 146.697 68.9116 147.173 70.4958C144.389 69.9683 142.395 74.5558 141.747 76.9155C141.888 73.0294 143.375 68.4214 146.587 65.3268Z" fill="#5A189A"/>
<path d="M135.72 71.3805C135.179 78.546 140.512 84.2087 142.202 84.8819L132.443 89.3153C129.783 86.3048 130.25 76.6491 135.72 71.3805Z" fill="#240046"/>
<path d="M135.72 71.3809C135.606 72.896 135.754 74.344 136.075 75.6918C133.589 77.0189 132.2 80.8682 131.816 82.627L131.343 79.4986C132.016 76.5635 133.43 73.5874 135.72 71.3809Z" fill="#5A189A"/>
<path d="M194.802 43.7517C193.123 49.9811 195.994 55.7768 197.104 56.6257L189.2 59.0522C187.802 55.9975 189.873 47.5637 194.802 43.7517Z" fill="#240046"/>
<path d="M190.02 50.5835C191.031 47.9799 192.642 45.4222 194.802 43.752C194.462 45.0122 194.277 46.5005 194.289 47.8865C193.668 47.7408 192.002 48.0757 190.02 50.5835Z" fill="#5A189A"/>
<path d="M209.387 42.8722C205.709 48.1728 206.46 54.5966 207.22 55.7696L198.96 55.3934C198.672 52.0463 203.462 44.8022 209.387 42.8722Z" fill="#240046"/>
<path d="M209.387 42.8726C208.748 43.7938 208.242 44.749 207.847 45.7046C204.708 46.7065 201.554 49.5303 200.369 50.8169C202.182 47.6085 205.546 44.1238 209.387 42.8726Z" fill="#5A189A"/>
<path d="M222.088 47.9714C217.651 51.3524 216.559 56.8368 216.871 58.0039L210.177 55.4951C210.831 52.6649 216.701 47.9813 222.088 47.9714Z" fill="#240046"/>
<path d="M222.088 47.9712C221.356 48.5288 220.715 49.1435 220.157 49.7867C216.998 49.7867 212.822 52.3643 211.13 53.653C213.129 50.9982 217.764 47.9792 222.088 47.9712Z" fill="#5A189A"/>
<path d="M108.125 82.059C100.746 82.0074 95.1663 86.8623 94.5489 88.3364L89.5739 80.2956C92.5482 77.8634 102.479 77.7109 108.125 82.059Z" fill="#240046"/>
<path d="M91.2891 79.3826C95.36 77.9156 103.304 78.3471 108.125 82.0596C99.3929 79.5493 93.7559 81.0136 92.0289 82.0596L91.2891 79.3826Z" fill="#5A189A"/>
<path d="M104.789 72.0533C97.7995 70.2176 90.7995 73.596 89.8566 74.8453L87.6116 65.8874C91.0231 64.2996 100.484 66.5599 104.789 72.0533Z" fill="#240046"/>
<path d="M89.4606 65.4352C93.679 65.0289 101.113 67.3624 104.789 72.0527C97.1104 67.5559 91.4065 67.5804 89.5143 68.1547L89.4606 65.4352Z" fill="#5A189A"/>
<path d="M99.5608 58.656C93.7202 57.8222 88.7769 61.0696 88.1293 62.1712L85.0514 55.2653C87.6694 53.6577 95.5547 54.604 99.5608 58.656Z" fill="#240046"/>
<path d="M87.5788 57.0745C87.3332 56.3071 86.8183 55.1772 86.5915 54.7082C89.6313 54.0933 94.8856 54.9894 98.3901 57.6357C91.7063 55.3195 88.8449 56.7292 87.5788 57.0745Z" fill="#5A189A"/>
<path d="M94.2711 48.1281C89.0618 48.3862 85.3171 52.0355 84.9402 53.1005L81.108 47.624C83.1101 45.7886 90.113 45.2846 94.2711 48.1281Z" fill="#240046"/>
<path d="M83.6056 48.77C83.2635 48.1453 82.6267 47.2512 82.351 46.8822C84.8859 45.8375 89.597 45.7322 93.0835 47.4399C86.893 46.5531 84.6465 48.2575 83.6056 48.77Z" fill="#5A189A"/>
<path d="M87.1485 37.5525C82.3916 38.595 79.5074 42.5338 79.3249 43.5727L74.9501 39.1221C76.51 37.1228 82.8804 35.5767 87.1485 37.5525Z" fill="#240046"/>
<path d="M77.4276 39.7911C77.016 39.2687 76.2915 38.5438 75.9807 38.2466C78.1534 36.8931 82.475 36.0682 85.9492 37.1021C80.1121 37.2418 78.3068 39.1584 77.4276 39.7911Z" fill="#5A189A"/>
<path d="M79.4843 25.3316C70.5666 31.0282 70.364 36.9736 71.3773 39.2342L66.3104 33.8088C67.3238 26.3488 67.9994 28.7224 74.7552 20.9234C80.1599 14.6842 76.7462 6.69922 76.1064 3.62988C79.4843 3.62988 88.402 19.6349 79.4843 25.3316Z" fill="#5A189A"/>
<path d="M79.5977 25.3318C70.68 31.0285 70.4774 36.9739 71.4907 39.2345L66.4239 33.8091C67.4372 26.3491 69.1829 28.9244 75.9388 21.1254C81.3434 14.8862 77.8063 7.92725 77.1665 4.85791C80.5444 4.85791 88.1046 19.8977 79.5977 25.3318Z" fill="#240046"/>
<path d="M79.5975 25.3315C70.6798 31.0281 70.4771 36.9735 71.4905 39.2341L70.7635 38.6203C69.9299 36.7608 69.9191 32.4082 74.9046 27.7517C75.9801 26.7471 77.2881 25.7285 78.8705 24.7176C84.4658 21.1433 83.281 13.4133 80.7363 8.54076C80.4829 8.03394 80.3774 7.72218 80.1225 7.31302L79.9083 6.93652C83.1682 11.2555 86.1518 21.1446 79.5975 25.3315Z" fill="black" fill-opacity="0.3"/>
<path d="M6.88232 28.9319C13.7884 30.9666 29.7243 31.1364 36.8291 30.967L62.7574 27.3479C70.6714 33.2668 86.8511 49.2865 88.2581 66.0145L56.1994 71.2288C57.2512 65.3485 51.7513 55.4131 44.3555 60.5851C36.9597 65.7571 19.8865 65.5263 12.2743 64.7644C11.1822 64.038 8.92385 62.2376 8.62696 60.8477C8.33006 59.4578 10.2477 58.5934 11.2437 58.335L11.1524 58.3154C10.6378 58.2894 10.1013 58.2573 9.53937 58.2191C1.74834 57.6897 -1.75022 26.3885 6.88232 28.9319Z" fill="#9D4EDD"/>
<path d="M36.8283 34.0374C29.7236 34.2068 13.7876 34.037 6.88153 32.0023C-1.75102 29.4589 1.74756 57.6908 9.53858 58.2202L9.541 58.2204C9.81924 58.2393 10.0913 58.2578 10.3575 58.6487C9.41601 59.0672 8.40463 59.8117 8.62617 60.8487C8.92307 62.2386 11.1814 64.039 12.2735 64.7655C19.8857 65.5274 36.959 65.7582 44.3547 60.5862C51.7505 55.4142 62.5405 64.0479 61.4887 69.9282C61.4887 69.9282 69.7759 106.453 75.6077 120.265C86.9642 135.305 99.5485 137.454 99.5485 137.454L125.638 137.454C125.638 137.454 127.173 138.068 140.985 129.78C154.797 121.493 171.678 91.1067 171.678 91.1067C171.678 91.1067 181.807 72.6907 197.153 69.9283C214.649 71.156 248.104 67.1659 248.104 67.1659L257.296 64.0776L261.609 60.4133L248.104 62.5619C248.104 62.5619 232.144 62.8408 222.322 58.8646C212.5 54.8885 196.232 56.7301 196.232 56.7301L148.658 81.2848L115.202 94.7899L99.9321 92.6413L92.182 88.3443L88.2573 66.0155C86.8503 49.2875 70.6706 36.3371 62.7566 30.4183L36.8283 34.0374Z" fill="#5A189A"/>
<path d="M13.5015 61.6958C12.4094 60.9693 10.151 59.1689 9.85413 57.779C13.7116 57.6584 20.5058 57.356 16.8226 57.1104C13.1394 56.8649 11.2506 55.7015 10.7665 55.1505C6.38686 51.5856 2.17345 41.6918 3.28297 34.0904C2.06675 38.3875 1.1076 49.0074 7.00072 57.1104C7.98291 58.0749 8.84233 58.9447 9.14926 59.259C9.11279 60.6913 9.72604 63.7402 12.4708 64.4768C15.9018 65.3976 40.4565 66.3184 46.5952 59.8728L51.9941 59.8728C51.4261 56.5825 49.6764 54.6537 45.5827 57.5164C38.1869 62.6884 21.1136 62.4576 13.5015 61.6958Z" fill="black" fill-opacity="0.3"/>
<path d="M59.954 64.7102C57.253 61.518 54.8384 60.5154 52.5876 61.027C54.1222 62.2547 57.0688 66.2448 56.5777 72.3835C56.0866 78.5222 55.5546 84.3539 55.35 86.5024C55.7592 92.5388 56.7005 104.918 57.1916 106.146C57.8054 107.681 59.3401 124.562 63.9441 131.008C68.5481 137.453 73.459 142.978 79.9047 146.354C86.3503 149.731 103.845 152.493 112.44 152.186C121.034 151.879 134.846 149.424 145.282 141.137C155.717 132.849 165.846 120.572 169.222 114.74C171.923 110.075 182.625 93.1527 187.638 85.2747C189.787 82.9216 195.803 77.9083 202.678 76.6806C211.272 75.1459 210.965 74.839 218.025 74.532L218.162 74.5261C225.18 74.221 232.514 73.9022 242.273 71.4627C252.094 69.0072 258.847 66.8587 262.223 65.0171C264.924 63.5438 269.078 59.2877 270.817 57.3438C244.421 73.6112 218.332 68.7003 202.064 69.6211C189.05 70.3577 179.044 80.3638 175.668 85.2747C170.245 94.4827 155.901 116.029 141.905 128.552C127.909 141.075 107.733 139.193 99.2415 137.76C88.1919 134.814 76.5017 123.21 73.766 115.968C68.5481 102.156 63.3302 68.7003 59.954 64.7102Z" fill="#9D4EDD"/>
<path d="M63.0056 80.1108C61.6176 81.245 58.4396 83.2264 56.831 82.0783C57.3083 81.9801 59.132 82.1489 63.0056 80.1108Z" fill="black" fill-opacity="0.3"/>
<path d="M65.4552 90.8269C63.604 92.3397 59.3653 94.9823 57.2198 93.4511C57.8564 93.3201 60.2887 93.5452 65.4552 90.8269Z" fill="black" fill-opacity="0.3"/>
<path d="M67.8001 101.943C65.4133 103.894 60.6656 106.87 57.8993 104.895C58.7201 104.726 61.1387 105.448 67.8001 101.943Z" fill="black" fill-opacity="0.3"/>
<path d="M70.7992 112.287C68.486 114.68 63.5454 118.57 60.1563 116.575C61.0357 116.318 64.0191 116.783 70.7992 112.287Z" fill="black" fill-opacity="0.3"/>
<path d="M75.2187 122.866C73.3309 125.607 68.6375 130.737 64.9664 129.327C65.7914 128.928 69.271 128.416 75.2187 122.866Z" fill="black" fill-opacity="0.3"/>
<path d="M81.7085 131.609C80.4961 134.708 77.0972 140.774 73.2012 140.239C73.9134 139.662 77.1845 138.37 81.7085 131.609Z" fill="black" fill-opacity="0.3"/>
<path d="M102.274 139.404C102.789 142.282 103.03 148.386 99.8667 149.774C100.135 149.015 101.991 146.545 102.274 139.404Z" fill="black" fill-opacity="0.3"/>
<path d="M113.354 140.057C114.335 142.812 115.575 148.792 112.683 150.682C112.823 149.889 114.248 147.148 113.354 140.057Z" fill="black" fill-opacity="0.3"/>
<path d="M123.579 138.684C125.23 141.096 127.955 146.563 125.64 149.128C125.573 148.326 126.252 145.311 123.579 138.684Z" fill="black" fill-opacity="0.3"/>
<path d="M132.076 134.175C134.485 135.833 138.992 139.956 137.753 143.181C137.403 142.456 136.953 139.4 132.076 134.175Z" fill="black" fill-opacity="0.3"/>
<path d="M148.782 124.305C150.851 125.263 154.858 127.84 154.33 130.482C153.965 129.971 153.217 127.68 148.782 124.305Z" fill="black" fill-opacity="0.3"/>
<path d="M157.245 115.911C159.115 116.664 162.787 118.73 162.505 120.979C162.152 120.557 161.344 118.641 157.245 115.911Z" fill="black" fill-opacity="0.3"/>
<path d="M163.964 106.008C165.656 106.689 168.976 108.558 168.721 110.591C168.401 110.209 167.671 108.477 163.964 106.008Z" fill="black" fill-opacity="0.3"/>
<path d="M170.513 95.6818C172.205 96.3621 175.525 98.2309 175.27 100.264C174.951 99.8827 174.221 98.1502 170.513 95.6818Z" fill="black" fill-opacity="0.3"/>
<path d="M176.698 87.2996C178.198 87.9028 181.142 89.56 180.916 91.3629C180.633 91.0247 179.985 89.4884 176.698 87.2996Z" fill="black" fill-opacity="0.3"/>
<path d="M184.275 78.9539C185.48 79.7298 187.765 81.6644 187.267 83.196C187.077 82.8543 186.77 81.4088 184.275 78.9539Z" fill="black" fill-opacity="0.3"/>
<path d="M192.581 73.6599C193.44 74.6638 194.947 76.9771 194.102 78.1981C194.024 77.846 194.136 76.4882 192.581 73.6599Z" fill="black" fill-opacity="0.3"/>
<path d="M202.256 71.2236C202.765 72.1397 203.571 74.1757 202.722 74.9914C202.717 74.7055 203.018 73.6676 202.256 71.2236Z" fill="black" fill-opacity="0.3"/>
<path d="M48.5974 58.8784C50.8483 58.3669 59.0332 62.5616 61.1817 68.0864C63.0762 72.9579 68.5481 102.156 73.766 115.968C76.5018 123.21 86.9641 134.507 98.0138 137.453C106.506 138.886 127.909 141.075 141.905 128.552C155.901 116.029 170.245 94.4827 175.668 85.2747C179.044 80.3638 189.05 70.3577 202.064 69.6211C218.332 68.7003 244.421 73.6112 270.817 57.3438" stroke="#240046" stroke-width="2.45547"/>
<path d="M54.5516 63.3721C54.0799 61.8519 53.593 60.7985 52.5876 61.027C53.1358 61.4655 53.8641 62.2566 54.5516 63.3721C55.0254 64.899 55.4839 66.8967 56.437 68.5395C56.6234 69.7051 56.6893 70.9889 56.5777 72.3835C56.0866 78.5222 55.5546 84.3539 55.35 86.5024C55.7592 92.5388 56.7005 104.918 57.1916 106.146C57.8054 107.681 59.3401 124.562 63.9441 131.008C68.5481 137.453 73.459 142.978 79.9047 146.354C86.3503 149.731 103.845 152.493 112.44 152.186C121.034 151.879 134.846 149.424 145.282 141.137C155.717 132.849 165.846 120.572 169.222 114.74C171.923 110.075 182.625 93.1527 187.638 85.2747C189.787 82.9216 195.803 77.9083 202.678 76.6806C211.272 75.1459 210.965 74.839 218.025 74.532L218.162 74.5261C225.18 74.221 232.514 73.9022 242.273 71.4627C252.094 69.0072 258.847 66.8587 262.223 65.0171C264.924 63.5438 269.078 59.2877 270.817 57.3438C244.421 73.6112 226.926 70.5419 201.297 74.532C191.628 76.0373 187.178 82.3588 180.886 87.7302C174.594 93.1015 163.882 116.336 149.886 128.859C135.889 141.382 120.345 150.404 100.162 146.354C84.6129 143.234 76.0878 136.122 66.7065 123.334C54.1052 106.158 60.5678 73.6112 57.1916 69.6211C56.9088 69.2869 56.6594 68.9228 56.437 68.5395C56.0959 66.4071 55.3514 64.67 54.5516 63.3721Z" fill="black" fill-opacity="0.3"/>
<path d="M85.5832 66.3977C84.1762 49.6697 72.4722 37.7865 64.5583 31.8677C70.7993 34.6301 84.1406 44.145 87.5783 60.1056C87.1179 76.9102 91.6707 82.2559 91.5684 83.3558C91.1592 87.0399 94.4076 94.3309 110.675 94.0217C126.943 93.7125 145.691 84.2245 153.032 79.5191L190.478 58.6476L206.669 56.0387L227.08 60.5659C233.065 61.3333 246.493 62.7298 252.325 62.1773C269.759 57.512 269.51 56.5414 274.195 54.0831C259.954 68.3248 236.881 66.8297 226.24 63.5557C218.669 60.5887 201.266 55.4526 188.252 63.5557C171.985 73.6845 143.901 87.4226 130.089 92.9474C116.277 98.4723 106.455 95.8633 96.019 94.0217C87.6704 92.5484 85.6397 74.4791 85.5832 66.3977Z" fill="#9D4EDD"/>
<path d="M6.88163 28.9325C13.7877 30.9672 29.7236 31.137 36.8284 30.9675L62.7567 27.3485C70.6707 33.2673 86.8504 49.2871 88.2574 66.0151C88.3138 74.0964 90.5138 90.6275 98.8624 92.1008C109.298 93.9424 116.358 95.4771 130.17 89.9523C143.982 84.4275 169.764 71.2294 186.032 61.1005C199.046 52.9975 217.441 56.9058 225.012 59.8728C235.653 63.1467 260.494 66.1343 274.736 51.8925C273.61 55.8827 267.001 65.0293 249.567 69.6946C232.133 74.36 221.636 74.9125 218.567 74.6056C210.689 74.5033 193.153 76.9383 186.032 87.4968C178.911 98.0553 170.378 112.358 167.002 118.19C160.045 128.831 140.79 150.418 119.427 151.646C98.0645 152.874 84.5389 148.884 80.4465 146.735C75.5355 144.382 63.0126 135.685 59.5749 119.725C56.1373 103.764 55.4825 90.5661 55.5848 85.9621L56.5056 70.9224C56.5056 64.4768 51.7506 55.4137 44.3548 60.5857C36.959 65.7577 19.8858 65.5269 12.2736 64.765C11.1815 64.0385 8.92314 62.2381 8.62625 60.8482C8.32936 59.4583 10.247 58.594 11.2429 58.3355L11.1517 58.316C10.6371 58.29 10.1006 58.2579 9.53868 58.2197C1.74763 57.6903 -1.75092 26.3891 6.88163 28.9325Z" stroke="#240046" stroke-width="2.45547"/>
<path d="M50.029 58.6192L51.2012 50.7046L45.7935 52.1096L50.029 58.6192Z" fill="white"/>
<path d="M49.7817 57.3113L50.0341 54.3878L49.5474 55.724L47.2499 52.0979L46.4942 52.2026L49.7817 57.3113Z" fill="black" fill-opacity="0.3"/>
<path d="M50.029 58.6192L51.2012 50.7046L45.7935 52.1096L50.029 58.6192Z" stroke="#240046" stroke-width="1.22773"/>
<path d="M56.333 57.1736L56.8662 49.1904L51.5888 51.0249L56.333 57.1736Z" fill="white"/>
<path d="M55.9901 55.8171L56.0071 52.8828L55.6292 54.2537L53.0481 50.8237L52.3032 50.9887L55.9901 55.8171Z" fill="black" fill-opacity="0.3"/>
<path d="M56.333 57.1736L56.8662 49.1904L51.5888 51.0249L56.333 57.1736Z" stroke="#240046" stroke-width="1.22773"/>
<path d="M62.6279 55.1947V46.6006L57.1031 48.9444L62.6279 55.1947Z" fill="white"/>
<path d="M62.2251 53.8809L62.0333 50.7348L61.7263 52.2311L58.7145 48.7397L57.928 48.9699L62.2251 53.8809Z" fill="black" fill-opacity="0.3"/>
<path d="M62.6279 55.1947V46.6006L57.1031 48.9444L62.6279 55.1947Z" stroke="#240046" stroke-width="1.22773"/>
<path d="M63.7837 43.605C63.0557 45.1855 57.5569 49.777 40.1925 53.4538C23.0252 57.0889 20.2791 58.7338 10.9998 58.3187" stroke="#240046" stroke-width="2.45547"/>
<path d="M15.0774 41.9806C16.4472 38.3133 13.8247 37.6994 12.1512 36.8716C12.1512 36.8716 12.6899 36.3793 13.8247 36.3307C15.7945 36.2463 19.6897 36.7292 16.4472 41.0917C15.7524 42.0265 15.0774 41.9806 15.0774 41.9806Z" fill="#240046"/>
<path d="M43.9508 25.9634C44.0625 29.7312 46.8786 32.4865 49.9929 32.3941C53.1071 32.3018 55.755 29.3845 55.6432 25.6167C55.5315 21.8489 52.7154 19.0936 49.6012 19.186C46.4869 19.2783 43.8391 22.1956 43.9508 25.9634Z" fill="white" stroke="#240046" stroke-width="2.45547"/>
<ellipse rx="2.02186" ry="3.53825" transform="matrix(-0.999561 0.0296415 0.0296415 0.999561 48.4101 26.2563)" fill="black"/>
<path d="M49.5648 17.9588C53.4713 17.8429 56.7422 21.2552 56.8704 25.5803C56.8823 25.9822 56.8667 26.3779 56.8254 26.7651L42.721 25.5895C42.791 21.4493 45.7825 18.0709 49.5648 17.9588Z" fill="#9D4EDD"/>
<path d="M44.9564 24.5019C45.9369 22.4548 47.6186 21.0861 49.5654 21.0284C51.8805 20.9597 53.9314 22.764 54.9225 25.4227L44.9564 24.5019Z" fill="#5A189A"/>
<path d="M55.6357 25.434C55.44 21.7601 52.6649 19.0951 49.6012 19.186C46.9124 19.2657 44.5747 21.4465 44.0549 24.4687L55.6357 25.434Z" stroke="#240046" stroke-width="2.45547"/>
<path d="M146.501 166.045C146.034 164.296 145.798 163.694 146.047 163.549L151.42 166.771C151.127 169.703 152.735 172.108 155.682 174.095C150.331 174.202 147.028 168.026 146.501 166.045Z" fill="#240046"/>
<path d="M149.867 165.599C149.401 163.85 150.842 166.268 151.091 166.124L151.421 166.771C151.127 169.703 152.736 172.108 155.682 174.095C150.901 171.485 150.395 167.579 149.867 165.599Z" fill="#5A189A"/>
<path d="M146.501 166.045C146.034 164.296 145.798 163.694 146.047 163.549L146.626 164.108C148.377 171.537 152.723 173.027 155.682 174.095C150.331 174.202 147.028 168.026 146.501 166.045Z" fill="#190031"/>
<path d="M142.53 166.877C142.426 165.07 142.315 164.432 142.588 164.34L145.397 165.998L147.203 168.578C146.327 171.39 147.418 174.07 149.905 176.609C144.641 175.637 142.649 168.923 142.53 166.877Z" fill="#240046"/>
<path d="M145.918 167.116C145.813 165.309 146.738 167.968 147.011 167.877L147.204 168.577C146.327 171.39 147.418 174.07 149.905 176.609C145.746 173.09 146.037 169.162 145.918 167.116Z" fill="#5A189A"/>
<path d="M142.53 166.877C142.426 165.07 142.315 164.432 142.588 164.34L143.043 165.004C143.264 172.634 147.221 174.968 149.905 176.609C144.641 175.637 142.649 168.923 142.53 166.877Z" fill="#190031"/>
<path d="M138.375 165.255C138.821 163.5 138.909 162.859 139.196 162.854L141.374 165.282L142.317 168.287C140.632 170.703 140.863 173.588 142.467 176.759C137.743 174.243 137.87 167.241 138.375 165.255Z" fill="#240046"/>
<path d="M141.533 166.506C141.978 164.752 142.057 167.566 142.345 167.561L142.317 168.287C140.632 170.704 140.863 173.588 142.468 176.76C139.565 172.15 141.028 168.493 141.533 166.506Z" fill="#5A189A"/>
<path d="M138.375 165.255C138.821 163.5 138.909 162.859 139.196 162.854L139.429 163.624C137.336 170.965 140.405 174.384 142.467 176.759C137.743 174.243 137.87 167.241 138.375 165.255Z" fill="#190031"/>
<path d="M133.922 118.569C135.354 116.012 136.868 110.344 131.466 108.134C126.064 105.924 121.644 109.054 120.11 110.896C118.37 112.533 111.949 119.589 116.123 130.394C120.297 141.198 141.083 140.566 148.961 139.441C148.143 140.362 146.629 143.37 147.12 148.035C147.611 152.7 141.458 161.381 139.105 165.269C140.025 164.86 143.682 164.732 144.664 166.451C146.199 164.916 146.506 164.916 147.734 166.758C148.245 165.939 149.514 164.609 150.496 165.837C150.496 162.461 150.803 161.847 151.724 159.392C153.975 156.22 158.783 148.526 160.011 143.124C161.853 138.213 161.853 137.906 161.853 137.292C161.955 136.269 159.704 134.53 155.407 133.916C151.11 133.302 142.925 126.038 140.06 122.559C138.82 121.396 135.934 119.317 132.471 118.271C133.021 118.377 133.52 118.481 133.922 118.569Z" fill="#5A189A"/>
<path d="M151.881 151.725C153.784 149.209 157.022 139.832 158.403 135.458L162.086 136.225L158.02 148.042L151.497 160.089L150.653 164.617C149.528 165.896 147.2 167.87 146.893 165.538H145.397L140.333 164.847C139.949 164.323 139.496 163.259 140.755 163.197C142.013 163.136 142.967 163.408 143.287 163.552C145.22 162.946 146.561 163.299 146.99 163.552C147.565 159.985 149.93 154.306 151.881 151.725Z" fill="black" fill-opacity="0.3"/>
<path d="M151.574 137.99C131.562 138.113 122.031 134.767 115.279 124.639C116.2 137.99 129.986 139.423 136.841 139.371C139.91 140.139 145.205 139.371 151.574 137.99Z" fill="black" fill-opacity="0.3"/>
<path d="M141.522 127.017C136.979 120.449 128.068 119.216 124.18 119.42L126.329 117.809L135.92 119.881L146.203 128.552L155.948 134.307C153.032 134.614 146.064 133.585 141.522 127.017Z" fill="#9D4EDD"/>
<path d="M133.922 118.57C134.266 117.954 134.616 117.159 134.872 116.275M124.103 118.57C125.027 117.81 125.945 117.496 129.011 117.649C133.922 117.895 138.423 121.025 140.06 122.56C142.925 126.039 151.11 133.303 155.407 133.917C159.704 134.53 161.955 136.27 161.853 137.293C161.853 137.907 161.853 138.214 160.011 143.125C158.783 148.527 153.975 156.22 151.724 159.392C150.803 161.847 150.496 162.461 150.496 165.838C149.272 165.531 147.631 165.94 147.12 166.758C145.892 164.917 144.357 164.917 142.823 166.451C141.841 164.733 139.718 164.917 138.833 164.917C141.186 161.029 147.611 152.701 147.12 148.035C146.629 143.37 148.143 140.362 148.961 139.441C141.083 140.567 120.297 141.198 116.123 130.394C111.949 119.59 118.37 112.533 120.11 110.897C120.413 110.533 120.828 110.119 121.341 109.707" stroke="#240046" stroke-width="2.45547" stroke-linecap="round"/>
<path d="M54.3869 27.8052C54.4986 31.573 57.3147 34.3283 60.4289 34.2359C63.5431 34.1436 66.191 31.2263 66.0793 27.4585C65.9675 23.6907 63.1515 20.9354 60.0372 21.0278C56.923 21.1201 54.2751 24.0374 54.3869 27.8052Z" fill="white" stroke="#240046" stroke-width="2.45547"/>
<ellipse rx="2.02186" ry="3.53825" transform="matrix(-0.999561 0.0296415 0.0296415 0.999561 58.8461 28.0981)" fill="black"/>
<path d="M60.0008 19.8006C63.9074 19.6847 67.1782 23.097 67.3065 27.4221C67.3184 27.824 67.3027 28.2197 67.2614 28.6069L53.157 27.4313C53.227 23.2911 56.2185 19.9127 60.0008 19.8006Z" fill="#9D4EDD"/>
<path d="M55.3924 26.3437C56.3729 24.2966 58.0547 22.9279 60.0014 22.8702C62.3166 22.8015 64.3674 24.6058 65.3585 27.2645L55.3924 26.3437Z" fill="#5A189A"/>
<path d="M66.0717 27.2758C65.876 23.6019 63.1009 20.9369 60.0372 21.0278C57.3484 21.1075 55.0107 23.2883 54.491 26.3105L66.0717 27.2758Z" stroke="#240046" stroke-width="2.45547"/>
<path d="M52.2739 123.387C54.27 123.221 54.9725 123.081 55.0817 123.381L50.5234 128.604C47.3881 127.713 44.454 128.995 41.7149 131.817C42.6432 125.968 50.0141 123.576 52.2739 123.387Z" fill="#240046"/>
<path d="M52.1038 127.141C54.0998 126.975 51.1844 128.072 51.2935 128.371L50.5237 128.604C47.3884 127.713 44.4543 128.995 41.7152 131.817C45.4909 127.118 49.844 127.33 52.1038 127.141Z" fill="#5A189A"/>
<path d="M52.2739 123.387C54.27 123.221 54.9725 123.081 55.0817 123.381L54.3596 123.902C45.9261 124.36 43.4556 128.803 41.7149 131.817C42.6432 125.968 50.0141 123.576 52.2739 123.387Z" fill="#190031"/>
<path d="M51.3592 118.162C53.3596 118.264 54.0745 118.219 54.1428 118.53L51.9829 121.421L48.9285 123.099C45.9401 121.797 42.8613 122.677 39.7702 125.108C41.4704 119.435 49.0945 118.048 51.3592 118.162Z" fill="#240046"/>
<path d="M50.6897 121.86C52.6902 121.961 49.6544 122.659 49.7227 122.971L48.9286 123.099C45.9402 121.797 42.8614 122.677 39.7704 125.108C44.1391 120.955 48.425 121.745 50.6897 121.86Z" fill="#5A189A"/>
<path d="M51.3592 118.162C53.3596 118.264 54.0745 118.219 54.1428 118.53L53.3576 118.95C44.9384 118.279 41.8974 122.353 39.7702 125.108C41.4704 119.435 49.0945 118.048 51.3592 118.162Z" fill="#190031"/>
<path d="M51.8432 113.264C54.261 113.349 55.1314 113.298 55.1899 113.611L52.3457 116.545L48.5112 118.263C44.9889 116.977 41.187 117.89 37.2494 120.368C39.7531 114.633 49.106 113.168 51.8432 113.264Z" fill="#240046"/>
<path d="M50.7436 116.998C53.1614 117.083 49.4259 117.814 49.4844 118.127L48.5116 118.263C44.9893 116.977 41.1874 117.89 37.2498 120.368C42.8709 116.143 48.0064 116.902 50.7436 116.998Z" fill="#5A189A"/>
<path d="M51.8432 113.264C54.261 113.349 55.1314 113.298 55.1899 113.611L54.2051 114.042C44.0484 113.438 40.0434 117.572 37.2494 120.368C39.7531 114.633 49.106 113.168 51.8432 113.264Z" fill="#190031"/>
<path d="M94.3215 142.107C99.6792 125.94 95.529 111.774 92.7842 106.712L77.566 109.499C79.8096 111.543 80.331 117.727 82.7336 121.577C81.483 126.334 81.9717 132.166 82.3723 134.487C77.9727 135.068 71.5241 133.38 66.1662 128.934C61.1667 117.948 53.7645 113.495 50.6883 112.642L52.1872 127.508L55.1916 129.065L65.0843 134.488C72.5977 143.764 88.9637 158.274 94.3215 142.107Z" fill="#5A189A"/>
<path d="M89.343 140.753C92.5965 137.807 94.7658 132.517 95.0983 126.711C96.6328 135.689 95.0212 137.377 93.0262 143.592C92.3509 148.81 88.857 149.296 87.1944 148.887C77.6795 146.969 66.6299 137.3 64.1744 133.924C60.4893 133.251 57.2676 130.472 56.1174 129.167L53.5852 128.553C52.2296 127.888 50.1322 126.512 52.5877 126.327C55.0431 126.143 56.9359 126.865 57.5753 127.248C59.3402 129.627 59.8006 129.32 66.6299 132.696C75.8993 141.966 83.5368 144.999 86.1969 145.357C85.89 145.05 91.7984 146.585 89.343 140.753Z" fill="black" fill-opacity="0.3"/>
<path d="M55.5034 117.273C53.846 115.493 52.3062 115.559 51.7435 115.815L51.1296 115.815L51.7435 112.516L58.7262 117.81C59.9539 119.447 61.9797 122.399 60.2609 121.11C58.542 119.821 56.3731 118.015 55.5034 117.273Z" fill="#9D4EDD"/>
<path d="M50.3571 112.783L49.6304 113.772C49.225 113.475 49.0422 112.96 49.1691 112.473C49.296 111.986 49.7069 111.626 50.206 111.564L50.3571 112.783ZM63.0611 124.079L61.9935 124.685L63.0611 124.079ZM83.4325 135.081L84.6493 134.917C84.6965 135.268 84.5903 135.621 84.358 135.888C84.1256 136.155 83.7895 136.308 83.4359 136.309L83.4325 135.081ZM93.2896 142.429L92.062 142.446L92.0579 142.156L92.1838 141.895L93.2896 142.429ZM89.5874 149.01L89.3016 147.816C89.3486 147.805 89.3962 147.796 89.4442 147.791L89.5874 149.01ZM75.4637 144.426L74.8343 145.48L75.4637 144.426ZM64.7522 133.904L65.0652 132.717C65.4997 132.832 65.8369 133.175 65.9443 133.611L64.7522 133.904ZM55.8533 128.848L56.6576 127.92L56.8929 128.124L57.0025 128.416L55.8533 128.848ZM51.2276 124.256L50.5659 125.29C50.2351 125.078 50.0254 124.721 50.002 124.329C49.9786 123.937 50.1442 123.557 50.4476 123.308L51.2276 124.256ZM52.7779 122.832L52.955 121.618L53.0781 121.635L53.1951 121.678L52.7779 122.832ZM49.1386 117.514L49.1045 118.741L48.9667 116.298L49.1386 117.514ZM54.4226 119.8L55.0706 118.757C55.5681 119.067 55.7779 119.684 55.5719 120.232C55.3658 120.78 54.8012 121.107 54.2233 121.012L54.4226 119.8ZM50.2518 122.464L50.0747 123.679C49.7154 123.627 49.3976 123.418 49.2069 123.109C49.0162 122.8 48.9721 122.422 49.0865 122.078L50.2518 122.464ZM50.2968 119.14L49.973 120.324L50.4929 117.928L50.2968 119.14ZM51.5295 127.965L50.3045 128.047C50.2881 127.801 50.3461 127.555 50.4711 127.343L51.5295 127.965ZM92.1115 111.119C91.9206 110.469 92.2934 109.786 92.9441 109.596C93.5947 109.405 94.2769 109.778 94.4677 110.428L92.1115 111.119ZM83 121.175L84.0425 120.527L84.3107 120.958L84.196 121.453L83 121.175ZM77.4206 112.564C77.1992 111.923 77.5393 111.224 78.1802 111.002C78.8211 110.781 79.5201 111.121 79.7415 111.762L77.4206 112.564ZM50.206 111.564C52.2496 111.311 54.5384 112.212 56.8449 114.122C59.1699 116.048 61.6473 119.103 64.1287 123.473L61.9935 124.685C59.6036 120.477 57.3015 117.689 55.2787 116.013C53.2373 114.323 51.6097 113.865 50.5081 114.001L50.206 111.564ZM64.1287 123.473C66.3923 127.459 70.0739 130.063 73.8186 131.674C77.5709 133.289 81.2799 133.859 83.4292 133.854L83.4359 136.309C80.9446 136.316 76.9035 135.675 72.8481 133.93C68.7851 132.181 64.6013 129.278 61.9935 124.685L64.1287 123.473ZM94.5172 142.412C94.5535 144.992 94.024 146.871 93.1043 148.167C92.1688 149.486 90.9042 150.092 89.7307 150.229L89.4442 147.791C89.9747 147.728 90.5952 147.46 91.1018 146.746C91.6242 146.01 92.0937 144.7 92.062 142.446L94.5172 142.412ZM89.8733 150.204C88.8222 150.456 86.967 150.395 84.4965 149.749C81.9828 149.093 78.7286 147.806 74.8343 145.48L76.0932 143.372C79.816 145.595 82.8566 146.783 85.1169 147.374C87.4206 147.975 88.8186 147.932 89.3016 147.816L89.8733 150.204ZM74.8343 145.48C70.9333 143.15 68.2559 140.848 66.4882 138.886C64.7482 136.954 63.8271 135.283 63.56 134.198L65.9443 133.611C66.0739 134.138 66.7001 135.453 68.3124 137.242C69.897 139.001 72.377 141.153 76.0932 143.372L74.8343 145.48ZM64.4392 135.092C62.7651 134.65 60.7088 134.088 58.9249 133.243C57.1714 132.412 55.4223 131.19 54.7041 129.28L57.0025 128.416C57.3774 129.413 58.3948 130.275 59.9761 131.024C61.527 131.759 63.3737 132.271 65.0652 132.717L64.4392 135.092ZM50.4476 123.308C50.9214 122.918 51.4513 122.685 51.8795 122.534C52.2848 122.392 52.7316 122.284 52.89 122.239C53.0252 122.201 52.9758 122.205 52.883 122.258C52.8448 122.28 52.6257 122.405 52.4732 122.689C52.386 122.852 52.3276 123.055 52.3349 123.281C52.3421 123.501 52.4093 123.68 52.4787 123.805C52.6006 124.025 52.7563 124.131 52.7743 124.144C52.8128 124.171 52.8282 124.176 52.7952 124.16C52.7304 124.128 52.5986 124.073 52.3608 123.987L53.1951 121.678C53.4539 121.771 53.6859 121.862 53.8726 121.953C53.9654 121.999 54.0784 122.059 54.1889 122.137C54.2791 122.201 54.4813 122.353 54.6269 122.616C54.8169 122.959 54.8662 123.423 54.6368 123.85C54.4645 124.171 54.2053 124.33 54.1091 124.386C53.9002 124.506 53.6633 124.572 53.5601 124.602C52.9334 124.78 52.3917 124.888 52.0076 125.204L50.4476 123.308ZM51.0838 111.793C51.7262 112.265 52.0192 112.995 52.1421 113.61C52.2705 114.252 52.2543 114.956 52.1209 115.615C51.8785 116.812 51.0763 118.48 49.3105 118.729L48.9667 116.298C49.137 116.274 49.5356 116.01 49.7143 115.128C49.7915 114.747 49.7908 114.374 49.7343 114.091C49.6722 113.78 49.5797 113.735 49.6304 113.772L51.0838 111.793ZM49.1727 116.286C50.5679 116.325 51.797 116.81 52.7807 117.332C53.7152 117.828 54.6227 118.479 55.0706 118.757L53.7746 120.843C53.0879 120.416 52.4866 119.956 51.6293 119.501C50.8214 119.072 49.9757 118.765 49.1045 118.741L49.1727 116.286ZM49.0865 122.078C49.1795 121.797 49.3328 121.44 49.4436 121.168C49.5695 120.859 49.6749 120.582 49.7406 120.338C49.8125 120.072 49.7986 119.978 49.8019 119.996C49.8068 120.023 49.8272 120.101 49.8957 120.189C49.9676 120.282 50.0495 120.33 50.0953 120.348L51.008 118.069C51.717 118.353 52.1024 118.931 52.2166 119.551C52.3138 120.077 52.2134 120.599 52.1114 120.977C52.0033 121.378 51.8475 121.776 51.7176 122.094C51.5727 122.45 51.4759 122.674 51.417 122.851L49.0865 122.078ZM50.0953 120.348C50.1158 120.356 50.12 120.355 50.1006 120.352L50.4929 117.928C50.665 117.956 50.8385 118.001 51.008 118.069L50.0953 120.348ZM50.6205 117.956C50.7048 117.979 50.7859 118.001 50.8639 118.021L50.2394 120.396C50.1534 120.373 50.0647 120.349 49.973 120.324L50.6205 117.956ZM50.8639 118.021C51.8124 118.27 52.3189 118.341 52.7668 118.384C53.2254 118.427 53.7754 118.449 54.622 118.589L54.2233 121.012C53.4875 120.891 53.1117 120.883 52.5352 120.828C51.948 120.772 51.3102 120.677 50.2394 120.396L50.8639 118.021ZM55.0491 129.775C55.1838 129.892 55.2762 129.897 55.161 129.865C55.0793 129.842 54.9479 129.815 54.7574 129.789C54.3729 129.735 53.9035 129.702 53.3824 129.662C52.8981 129.624 52.343 129.578 51.9015 129.492C51.6892 129.451 51.4099 129.384 51.1541 129.256C50.9546 129.156 50.3555 128.81 50.3045 128.047L52.7545 127.883C52.735 127.59 52.6032 127.371 52.4826 127.24C52.3752 127.123 52.2751 127.071 52.2499 127.059C52.2051 127.036 52.2242 127.053 52.3715 127.082C52.6491 127.136 53.0579 127.174 53.573 127.214C54.0514 127.251 54.6171 127.29 55.0942 127.356C55.3345 127.39 55.5905 127.435 55.8267 127.501C56.0294 127.558 56.3701 127.671 56.6576 127.92L55.0491 129.775ZM50.4711 127.343C50.5815 127.155 50.7448 126.629 50.7449 126.06C50.7449 125.793 50.7076 125.583 50.6553 125.443C50.6304 125.377 50.6063 125.337 50.5905 125.316C50.576 125.296 50.5678 125.291 50.5659 125.29L51.8892 123.222C52.9842 123.922 53.2005 125.208 53.2003 126.061C53.2002 126.963 52.9671 127.942 52.5879 128.587L50.4711 127.343ZM52.6009 124.047L50.0747 123.679L50.4288 121.249L52.955 121.618L52.6009 124.047ZM92.1838 141.895C94.7753 136.524 96.5852 126.375 92.1115 111.119L94.4677 110.428C99.0714 126.127 97.3085 136.924 94.3954 142.962L92.1838 141.895ZM82.2158 135.245C81.8077 132.218 80.3615 127.119 81.804 120.898L84.196 121.453C82.8858 127.103 84.1923 131.527 84.6493 134.917L82.2158 135.245ZM81.9575 121.824C80.1589 118.932 79.3249 117.522 78.7915 116.369C78.2614 115.222 78.0165 114.288 77.4206 112.564L79.7415 111.762C80.4024 113.675 80.5589 114.341 81.0202 115.338C81.478 116.328 82.2252 117.605 84.0425 120.527L81.9575 121.824Z" fill="#240046"/>
<path d="M190.4 34.1701C190.769 20.174 207.64 15.8564 216.029 15.4472C198.483 11.457 154.428 7.65106 118.578 24.3483C112.468 27.1941 98.4226 38.7741 110.751 35.5513C115.457 49.1076 123.765 78.43 119.345 87.2696C132.083 69.314 149.015 56.2182 159.86 55.1951C164.464 43.0712 172.445 35.2444 190.4 34.1701Z" fill="#9D4EDD"/>
<path d="M216.029 15.4468C207.64 15.856 190.769 20.1736 190.4 34.1697C172.445 35.244 164.464 43.0708 159.86 55.1947C149.015 56.2178 131.316 70.081 114.741 93.5614" stroke="#240046" stroke-width="2.45547" stroke-linecap="round" stroke-linejoin="round"/>
<path d="M119.081 49.5201C117.42 38.9924 133.887 40.6373 142.327 42.7758C134.025 27.5105 156.441 25.7778 168.688 26.8196C155.902 20.8977 171.247 15.0307 180.519 12.8374L126.76 19.7463L108.91 33.235C112.992 43.0499 120.741 60.0479 119.081 49.5201Z" fill="black" fill-opacity="0.3"/>
<path d="M115.202 81.438C114.343 89.9093 100.213 95.4035 93.2562 97.0916L104.766 102.616C112.133 98.0738 118.271 90.1856 121.801 81.438C125.484 62.715 114.358 42.3039 110.444 33.7098C122.722 31.8682 147.583 46.9591 158.48 54.7347C149.655 41.9203 128.86 31.5612 114.358 29.9498C128.845 24.425 174.287 30.6788 186.526 32.6355C168.11 26.727 149.272 19.8978 117.35 25.4226C152.709 12.6541 197.972 13.1452 216.183 14.9868C206.852 8.47985 180.476 7.87621 168.455 8.38777C141.752 10.6386 113.053 14.6799 101.236 30.487C114.128 45.8337 116.276 70.8488 115.202 81.438Z" fill="#5A189A"/>
<path d="M168.455 8.38728C141.751 10.6381 114.358 14.4108 102.541 30.2179C102.541 30.2179 102.713 31.5416 103.385 32.1746C107.912 31.791 105.38 27.8008 105.38 27.8008C125.595 13.0083 172.085 9.1034 194.276 9.15024C184.725 8.15642 174.671 8.12276 168.455 8.38728Z" fill="#9D4EDD"/>
<path d="M209.737 12.2237C154.857 9.52272 124.665 19.3855 116.429 24.6546C115.611 25.1661 116.46 25.3912 126.405 22.1991C136.349 19.007 167.585 15.5489 181.96 14.2188C214.085 14.6792 212.5 14.2188 209.737 12.2237Z" fill="black" fill-opacity="0.3"/>
<path d="M93.2562 97.0916C100.213 95.4034 114.343 89.9093 115.202 81.438C116.276 70.8488 114.128 45.8337 101.236 30.487C106.761 30.7555 102.786 28.5498 103.655 27.6482C116.647 14.1798 143.427 10.4974 168.455 8.38777C180.476 7.87621 206.852 8.47985 216.183 14.9868C197.972 13.1452 152.709 12.6541 117.35 25.4226C149.272 19.8978 171.831 27.8013 190.247 33.7098C178.008 31.7531 128.845 24.425 114.358 29.9498C128.86 31.5612 151.036 42.5341 159.861 55.3486C148.965 47.573 122.722 31.8682 110.444 33.7098C114.358 42.3039 125.484 62.715 121.801 81.438C118.271 90.1856 112.133 98.0738 104.766 102.616" stroke="#240046" stroke-width="2.45547" stroke-linecap="round" stroke-linejoin="round"/>
<path d="M99.2219 28.9094C100.436 30.7462 100.479 31.1121 101.143 31.3379C101.807 31.5637 103.613 31.1362 104.557 30.2924C105.722 29.2507 104.513 27.2751 104.513 27.2751C101.527 25.1769 97.3863 18.8681 97.0654 14.0378C94.5472 20.7523 97.8471 26.8299 99.2219 28.9094Z" fill="#240046"/>
<path d="M100.303 22.5109C98.6108 19.8844 97.2441 16.7311 97.0651 14.0376C95.6521 17.8052 96.0709 21.3722 96.9536 24.1449C96.5827 21.2254 96.6186 18.0955 100.303 22.5109Z" fill="#5A189A"/>
</g>
<defs>
<clipPath id="clip0">
<rect width="277.59" height="180" fill="white"/>
</clipPath>
</defs>
</svg>
