<svg width="268" height="181" viewBox="0 0 268 181" fill="none" xmlns="http://www.w3.org/2000/svg">
<path d="M218.215 108.875C216.437 108.22 215.831 107.915 215.656 108.16L218.496 114.074C221.58 114.052 223.932 115.961 225.718 119.225C226.347 113.657 220.228 109.616 218.215 108.875Z" fill="#240046"/>
<path d="M217.424 112.34C215.646 111.685 218.028 113.421 217.852 113.667L218.496 114.073C221.58 114.051 223.932 115.96 225.718 119.225C223.46 113.987 219.437 113.082 217.424 112.34Z" fill="#5A189A"/>
<path d="M218.215 108.875C216.437 108.22 215.831 107.915 215.656 108.16L216.183 108.818C223.759 111.362 224.891 116.037 225.718 119.225C226.347 113.657 220.228 109.616 218.215 108.875Z" fill="#190031"/>
<path d="M220.368 104.34C218.518 103.928 217.877 103.707 217.736 103.974L218.977 107.155L221.339 109.455C224.393 109.022 226.978 110.601 229.184 113.598C229.065 107.995 222.462 104.807 220.368 104.34Z" fill="#240046"/>
<path d="M220.045 107.881C218.195 107.469 220.788 108.872 220.647 109.138L221.339 109.455C224.392 109.022 226.978 110.601 229.184 113.597C226.247 108.708 222.139 108.348 220.045 107.881Z" fill="#5A189A"/>
<path d="M220.368 104.34C218.518 103.928 217.877 103.707 217.736 103.974L218.346 104.555C226.193 106.066 227.939 110.549 229.184 113.598C229.065 107.995 222.462 104.807 220.368 104.34Z" fill="#190031"/>
<path d="M221.162 99.7525C218.936 99.22 218.155 98.9537 218.023 99.2246L219.876 102.617L222.94 105.151C226.476 104.867 229.713 106.658 232.679 109.912C231.842 104.05 223.682 100.355 221.162 99.7525Z" fill="#240046"/>
<path d="M221.223 103.435C218.997 102.903 222.219 104.512 222.087 104.782L222.94 105.152C226.476 104.867 229.713 106.659 232.679 109.912C228.619 104.641 223.744 104.038 221.223 103.435Z" fill="#5A189A"/>
<path d="M221.162 99.7525C218.936 99.22 218.155 98.9537 218.023 99.2246L218.812 99.8657C228.227 101.877 230.836 106.657 232.679 109.912C231.842 104.05 223.682 100.355 221.162 99.7525Z" fill="#190031"/>
<path d="M175.149 115.342C174.341 99.2468 181.699 87.3754 185.478 83.4516L198.654 89.8317C196.092 91.1295 194.057 96.6371 190.895 99.542C190.836 104.196 188.919 109.391 187.968 111.407C191.834 113.046 198.14 113.133 204.148 110.43C211.478 101.673 219.351 99.4787 222.372 99.4763L217.255 112.655L214.123 113.317L203.733 115.768C194.542 122.332 175.957 131.436 175.149 115.342Z" fill="#5A189A"/>
<path d="M209.071 107.458C212.207 104.38 218.655 100.996 221.05 102.376L222.14 99.6895L213.717 101.795C210.862 104.965 205.934 110.536 209.071 107.458Z" fill="#9D4EDD"/>
<path d="M213.21 110.144C211.351 109.97 209.047 111.862 208.128 112.83L206.894 115.009L208.636 115.444L213.936 112.83L217.276 112.83L217.276 111.161C216.695 110.894 215.069 110.318 213.21 110.144Z" fill="black" fill-opacity="0.3"/>
<path d="M222.637 99.6869L222.827 100.185C223.03 100.107 223.166 99.9129 223.17 99.6948C223.173 99.4767 223.043 99.2787 222.841 99.1951L222.637 99.6869ZM208.203 106.784L208.579 107.161L208.203 106.784ZM186.85 111.679L186.464 111.313C186.336 111.448 186.287 111.641 186.337 111.821C186.387 112.001 186.527 112.142 186.707 112.192L186.85 111.679ZM176.008 115.894L176.519 116.043L176.554 115.922L176.532 115.799L176.008 115.894ZM177.724 122.829L177.982 122.363C177.963 122.353 177.944 122.344 177.925 122.336L177.724 122.829ZM191.76 122.211L191.902 122.724L191.76 122.211ZM204.182 115.318L204.189 114.785C203.994 114.783 203.813 114.887 203.718 115.057L204.182 115.318ZM213.573 112.951L213.344 112.47L213.222 112.528L213.143 112.637L213.573 112.951ZM218.95 109.93L219.107 110.439C219.269 110.389 219.398 110.264 219.453 110.102C219.509 109.941 219.483 109.763 219.385 109.624L218.95 109.93ZM217.895 108.241L217.961 107.713L217.908 107.706L217.854 107.71L217.895 108.241ZM222.555 104.309L222.428 104.826L222.768 103.82L222.555 104.309ZM217.16 105.061L217.009 104.55C216.766 104.622 216.607 104.856 216.629 105.109C216.652 105.362 216.85 105.563 217.103 105.59L217.16 105.061ZM220.291 108.542L220.225 109.071C220.381 109.09 220.538 109.04 220.654 108.933C220.769 108.826 220.831 108.673 220.823 108.516L220.291 108.542ZM221.089 105.5L221.087 106.032L221.147 104.97L221.089 105.5ZM217.739 113.236L218.241 113.412C218.277 113.311 218.281 113.202 218.253 113.099L217.739 113.236ZM190.752 99.1071L190.391 98.7155L190.163 98.9255L190.233 99.2274L190.752 99.1071ZM222.841 99.1951C221.266 98.5419 219.145 98.7219 216.641 99.8461C214.126 100.974 211.158 103.082 207.827 106.407L208.579 107.161C211.854 103.892 214.718 101.876 217.077 100.818C219.445 99.7545 221.238 99.6832 222.433 100.179L222.841 99.1951ZM207.827 106.407C204.631 109.598 200.472 111.083 196.563 111.621C192.65 112.158 189.037 111.738 186.994 111.167L186.707 112.192C188.893 112.803 192.653 113.232 196.708 112.675C200.766 112.118 205.169 110.565 208.579 107.161L207.827 106.407ZM175.497 115.745C174.837 118.008 174.869 119.711 175.321 120.96C175.777 122.219 176.642 122.963 177.523 123.322L177.925 122.336C177.303 122.083 176.669 121.555 176.323 120.597C175.972 119.629 175.898 118.17 176.519 116.043L175.497 115.745ZM177.467 123.295C178.231 123.717 179.818 124.124 182.189 124.158C184.58 124.193 187.813 123.849 191.902 122.724L191.619 121.698C187.614 122.8 184.482 123.126 182.205 123.094C179.908 123.061 178.524 122.663 177.982 122.363L177.467 123.295ZM191.902 122.724C195.994 121.599 198.957 120.198 201.005 118.892C203.037 117.596 204.202 116.372 204.647 115.578L203.718 115.057C203.395 115.633 202.395 116.743 200.432 117.994C198.485 119.236 195.621 120.597 191.619 121.698L191.902 122.724ZM204.176 115.85C205.819 115.87 207.78 115.874 209.555 115.564C211.316 115.258 213.014 114.623 214.003 113.264L213.143 112.637C212.402 113.654 211.052 114.223 209.372 114.515C207.708 114.806 205.839 114.805 204.189 114.785L204.176 115.85ZM219.385 109.624C218.855 108.87 217.958 108.418 217.615 108.21C217.509 108.145 217.487 108.124 217.496 108.133C217.497 108.134 217.567 108.2 217.595 108.326C217.635 108.503 217.569 108.665 217.473 108.763C217.436 108.801 217.401 108.822 217.384 108.832C217.375 108.837 217.367 108.841 217.363 108.843C217.358 108.845 217.355 108.846 217.355 108.846C217.355 108.846 217.36 108.844 217.374 108.841C217.387 108.837 217.405 108.833 217.429 108.829C217.53 108.81 217.691 108.791 217.936 108.772L217.854 107.71C217.6 107.73 217.393 107.752 217.234 107.782C217.154 107.797 217.072 107.816 216.996 107.843C216.929 107.867 216.813 107.916 216.713 108.018C216.585 108.148 216.508 108.346 216.557 108.561C216.594 108.726 216.691 108.834 216.737 108.88C216.835 108.979 216.968 109.062 217.062 109.12C217.521 109.398 218.147 109.714 218.514 110.236L219.385 109.624ZM222.448 99.1893C221.949 99.3792 221.594 99.8152 221.363 100.274C221.126 100.744 220.981 101.307 220.942 101.869C220.867 102.94 221.174 104.288 222.343 104.797L222.768 103.82C222.24 103.591 221.939 102.875 222.004 101.944C222.035 101.504 222.148 101.081 222.313 100.753C222.484 100.415 222.676 100.242 222.827 100.185L222.448 99.1893ZM222.683 103.792C221.531 103.507 220.395 103.621 219.416 103.838C218.46 104.05 217.557 104.389 217.009 104.55L217.31 105.572C217.975 105.376 218.728 105.082 219.646 104.878C220.541 104.68 221.497 104.596 222.428 104.826L222.683 103.792ZM220.823 108.516C220.81 108.264 220.766 107.937 220.73 107.638C220.693 107.321 220.663 107.009 220.665 106.728C220.666 106.437 220.704 106.242 220.758 106.13C220.795 106.055 220.823 106.035 220.898 106.027L220.78 104.968C220.301 105.022 219.978 105.3 219.8 105.665C219.641 105.993 219.602 106.38 219.6 106.721C219.597 107.073 219.635 107.441 219.673 107.762C219.713 108.1 219.749 108.365 219.76 108.569L220.823 108.516ZM220.898 106.027C220.929 106.023 220.973 106.022 221.031 106.029L221.147 104.97C221.022 104.957 220.9 104.955 220.78 104.968L220.898 106.027ZM221.09 104.967C221.006 104.967 220.924 104.966 220.846 104.965L220.832 106.03C220.914 106.031 220.999 106.032 221.087 106.032L221.09 104.967ZM220.846 104.965C219.886 104.953 219.372 104.887 218.917 104.806C218.458 104.725 217.995 104.615 217.216 104.532L217.103 105.59C217.833 105.669 218.222 105.764 218.732 105.855C219.246 105.946 219.817 106.017 220.832 106.03L220.846 104.965ZM213.802 113.432C213.779 113.442 213.808 113.424 213.945 113.424C214.066 113.423 214.225 113.436 214.418 113.462C214.806 113.513 215.267 113.606 215.741 113.699C216.2 113.788 216.681 113.878 217.063 113.908C217.25 113.922 217.454 113.926 217.635 113.891C217.789 113.861 218.119 113.763 218.241 113.412L217.236 113.061C217.311 112.848 217.496 112.833 217.431 112.846C217.393 112.853 217.304 112.859 217.145 112.846C216.836 112.822 216.417 112.745 215.945 112.654C215.488 112.565 214.987 112.463 214.559 112.406C214.344 112.378 214.131 112.358 213.94 112.359C213.764 112.36 213.54 112.377 213.344 112.47L213.802 113.432ZM218.253 113.099C218.165 112.768 218.162 112.131 218.328 111.53C218.5 110.908 218.789 110.537 219.107 110.439L218.793 109.421C217.936 109.686 217.501 110.526 217.302 111.246C217.097 111.987 217.076 112.822 217.224 113.374L218.253 113.099ZM217.828 108.769L220.225 109.071L220.358 108.014L217.961 107.713L217.828 108.769ZM176.532 115.799C175.482 110.019 175.855 95.9424 186.057 83.7405L185.24 83.0575C174.79 95.5555 174.392 109.975 175.484 115.989L176.532 115.799ZM187.236 112.046C188.193 111.039 189.521 109.201 190.453 106.914C191.385 104.626 191.934 101.848 191.271 98.9869L190.233 99.2274C190.832 101.81 190.344 104.357 189.466 106.513C188.588 108.671 187.334 110.397 186.464 111.313L187.236 112.046ZM191.113 99.4987C193.524 97.2774 194.902 95.578 196.005 94.056C197.116 92.5233 197.894 91.2505 199.173 89.7796L198.369 89.0811C197.05 90.5986 196.202 91.9698 195.143 93.4312C194.076 94.9032 192.744 96.548 190.391 98.7155L191.113 99.4987Z" fill="#240046"/>
<path d="M146.006 169.099C146.447 167.444 146.67 166.874 146.435 166.737L141.351 169.786C141.628 172.559 140.107 174.835 137.319 176.716C142.382 176.816 145.507 170.973 146.006 169.099Z" fill="#240046"/>
<path d="M142.821 168.676C143.262 167.021 141.899 169.309 141.663 169.172L141.351 169.785C141.629 172.559 140.107 174.835 137.319 176.715C141.843 174.245 142.321 170.549 142.821 168.676Z" fill="#5A189A"/>
<path d="M146.006 169.099C146.447 167.444 146.67 166.874 146.435 166.737L145.887 167.266C144.23 174.295 140.118 175.705 137.319 176.716C142.382 176.816 145.507 170.973 146.006 169.099Z" fill="#190031"/>
<path d="M149.763 169.886C149.862 168.176 149.966 167.573 149.708 167.486L147.05 169.054L145.341 171.495C146.171 174.156 145.138 176.692 142.785 179.095C147.766 178.175 149.651 171.822 149.763 169.886Z" fill="#240046"/>
<path d="M146.557 170.113C146.656 168.403 145.781 170.919 145.523 170.832L145.341 171.495C146.17 174.156 145.138 176.692 142.785 179.095C146.72 175.765 146.445 172.049 146.557 170.113Z" fill="#5A189A"/>
<path d="M149.763 169.886C149.862 168.176 149.966 167.573 149.708 167.486L149.278 168.114C149.069 175.334 145.324 177.541 142.785 179.095C147.766 178.175 149.651 171.822 149.763 169.886Z" fill="#190031"/>
<path d="M153.694 168.351C153.272 166.691 153.19 166.084 152.917 166.079L150.857 168.376L149.965 171.22C151.559 173.506 151.34 176.235 149.822 179.236C154.292 176.855 154.172 170.23 153.694 168.351Z" fill="#240046"/>
<path d="M150.707 169.534C150.286 167.874 150.211 170.537 149.939 170.532L149.965 171.219C151.559 173.505 151.34 176.235 149.823 179.235C152.569 174.874 151.185 171.413 150.707 169.534Z" fill="#5A189A"/>
<path d="M153.694 168.351C153.272 166.691 153.19 166.084 152.917 166.079L152.697 166.808C154.677 173.753 151.774 176.989 149.822 179.236C154.292 176.855 154.172 170.23 153.694 168.351Z" fill="#190031"/>
<path d="M157.907 124.178C156.552 121.758 155.119 116.395 160.231 114.304C165.342 112.213 169.524 115.175 170.976 116.918C172.622 118.467 178.698 125.143 174.748 135.366C170.798 145.588 151.131 144.991 143.677 143.926C144.451 144.797 145.884 147.644 145.42 152.058C144.955 156.472 150.777 164.686 153.003 168.364C152.132 167.977 148.672 167.856 147.743 169.483C146.291 168.031 146 168.031 144.839 169.773C144.355 168.999 143.154 167.74 142.225 168.902C142.225 165.707 141.935 165.126 141.063 162.803C138.934 159.802 134.384 152.522 133.222 147.411C131.48 142.765 131.48 142.474 131.48 141.893C131.383 140.925 133.513 139.28 137.578 138.699C141.644 138.118 149.388 131.245 152.099 127.954C153.273 126.853 156.003 124.885 159.28 123.896C158.759 123.996 158.287 124.095 157.907 124.178Z" fill="#5A189A"/>
<path d="M140.899 155.7C139.098 153.318 136.034 144.446 134.728 140.308L131.243 141.034L135.091 152.215L141.262 163.613L142.061 167.897C143.125 169.107 145.328 170.975 145.618 168.768H147.034L151.826 168.115C152.189 167.619 152.617 166.612 151.426 166.554C150.236 166.496 149.333 166.753 149.03 166.889C147.201 166.316 145.932 166.65 145.526 166.889C144.982 163.514 142.745 158.141 140.899 155.7Z" fill="black" fill-opacity="0.3"/>
<path d="M157.908 124.178C157.582 123.596 157.252 122.843 157.009 122.007M167.198 124.178C166.324 123.459 165.456 123.161 162.555 123.307C157.908 123.539 153.649 126.501 152.1 127.953C149.389 131.244 141.645 138.118 137.579 138.698C133.514 139.279 131.384 140.925 131.481 141.893C131.481 142.474 131.481 142.764 133.223 147.411C134.385 152.522 138.935 159.802 141.064 162.803C141.936 165.126 142.226 165.707 142.226 168.901C143.384 168.611 144.936 168.998 145.421 169.773C146.582 168.03 148.034 168.03 149.486 169.482C150.416 167.856 152.424 168.03 153.262 168.03C151.035 164.352 144.956 156.472 145.421 152.057C145.885 147.643 144.452 144.797 143.678 143.926C151.132 144.991 170.799 145.588 174.749 135.366C178.699 125.143 172.623 118.466 170.977 116.917C170.69 116.574 170.297 116.182 169.812 115.792" stroke="#240046" stroke-width="1.06485" stroke-linecap="round"/>
<path d="M91.4942 47.9283C90.9135 34.6936 74.8813 30.889 66.9378 30.641C75.6571 24.3304 100.447 22.8888 111.828 23.1733C137.127 24.8597 164.344 28.2067 175.785 42.9647C163.844 57.697 162.227 81.3976 163.419 91.3975C164.372 99.3974 177.83 104.361 184.44 105.842L173.642 111.26L164.055 102.859C147.986 80.9212 131.011 68.0999 120.735 67.3119C116.178 55.9187 108.499 48.6467 91.4942 47.9283Z" fill="#5A189A"/>
<path d="M150.571 31.8261C164.589 34.6952 172.212 41.9362 174.098 44.4501L176.065 41.9909L170.655 37.2364L158.441 31.0063C150.079 29.2849 136.287 28.9024 150.571 31.8261Z" fill="#9D4EDD"/>
<path d="M66.9378 30.641L66.6256 30.2097C66.4411 30.3432 66.362 30.5794 66.4288 30.7971C66.4956 31.0149 66.6935 31.1661 66.9212 31.1732L66.9378 30.641ZM91.4942 47.9283L90.9623 47.9516L90.9837 48.4396L91.4717 48.4602L91.4942 47.9283ZM120.735 67.3119L120.24 67.5096C120.316 67.698 120.492 67.8272 120.694 67.8427L120.735 67.3119ZM164.055 102.859L163.626 103.174C163.649 103.205 163.675 103.234 163.704 103.26L164.055 102.859ZM184.44 105.842L184.678 106.318C184.88 106.217 184.995 106.001 184.968 105.777C184.941 105.554 184.776 105.372 184.556 105.323L184.44 105.842ZM163.419 91.3975L163.947 91.3345L163.419 91.3975ZM175.785 42.9647L176.199 43.2999L176.464 42.972L176.206 42.6385L175.785 42.9647ZM111.828 23.1733L111.863 22.642C111.856 22.6415 111.848 22.6412 111.841 22.641L111.828 23.1733ZM173.642 111.26L173.292 111.66C173.454 111.803 173.688 111.833 173.881 111.736L173.642 111.26ZM66.9212 31.1732C70.8376 31.2954 76.7478 32.2972 81.7316 34.8871C86.705 37.4715 90.6832 41.5909 90.9623 47.9516L92.0261 47.905C91.7245 41.031 87.3963 36.6307 82.2226 33.9422C77.0592 31.259 70.9815 30.2345 66.9544 30.1088L66.9212 31.1732ZM91.4717 48.4602C99.9018 48.8164 105.963 50.7942 110.471 54.0487C114.978 57.3031 117.986 61.8723 120.24 67.5096L121.229 67.1142C118.927 61.3583 115.816 56.5949 111.094 53.1854C106.372 49.776 100.091 47.7586 91.5166 47.3963L91.4717 48.4602ZM120.694 67.8427C125.668 68.2242 132.376 71.5426 139.889 77.5696C147.383 83.5811 155.613 92.2349 163.626 103.174L164.485 102.545C156.428 91.5457 148.136 82.8197 140.556 76.739C132.995 70.6738 126.078 67.1876 120.775 66.781L120.694 67.8427ZM184.556 105.323C181.288 104.59 176.323 102.994 172.069 100.6C167.779 98.1854 164.391 95.0596 163.947 91.3345L162.89 91.4605C163.399 95.7353 167.217 99.0911 171.547 101.528C175.913 103.986 180.982 105.613 184.323 106.362L184.556 105.323ZM163.947 91.3345C163.358 86.3947 163.461 78.0252 165.2 69.0571C166.939 60.087 170.304 50.5728 176.199 43.2999L175.371 42.6294C169.325 50.0888 165.911 59.7911 164.154 68.8544C162.397 77.9196 162.287 86.4004 162.89 91.4605L163.947 91.3345ZM176.206 42.6385C170.376 35.1183 160.57 30.5533 149.134 27.6511C137.687 24.746 124.517 23.4855 111.863 22.642L111.792 23.7045C124.438 24.5475 137.526 25.8037 148.872 28.6832C160.23 31.5657 169.753 36.0531 175.364 43.2909L176.206 42.6385ZM111.841 22.641C106.126 22.4981 97.0561 22.7884 88.317 23.9058C83.9471 24.4646 79.6492 25.2315 75.8895 26.2583C72.1392 27.2825 68.8825 28.5763 66.6256 30.2097L67.25 31.0723C69.3528 29.5504 72.4644 28.2975 76.1701 27.2855C79.8664 26.276 84.112 25.517 88.4521 24.9621C97.1329 23.8522 106.148 23.5639 111.814 23.7055L111.841 22.641ZM184.201 105.366L173.404 110.784L173.881 111.736L184.678 106.318L184.201 105.366ZM163.704 103.26L173.292 111.66L173.993 110.859L164.406 102.459L163.704 103.26Z" fill="#240046"/>
<path d="M178.315 41.3436C177.313 42.8593 177.277 43.1612 176.73 43.3475C176.182 43.5339 174.692 43.1811 173.913 42.4848C172.951 41.6252 173.949 39.995 173.949 39.995C176.413 38.2637 179.829 33.0579 180.094 29.0721C182.172 34.6127 179.449 39.6276 178.315 41.3436Z" fill="#240046"/>
<path d="M177.423 36.0647C178.819 33.8974 179.947 31.2954 180.095 29.0728C181.261 32.1817 180.915 35.125 180.187 37.413C180.493 35.0039 180.463 32.4212 177.423 36.0647Z" fill="#5A189A"/>
<path d="M223.436 30.8485C214.998 36.2386 214.806 41.8639 215.765 44.0028L210.971 38.8694C211.93 31.811 212.569 34.0569 218.961 26.6776C224.075 20.7742 220.845 13.2191 220.24 10.3149C223.436 10.3149 231.873 25.4585 223.436 30.8485Z" fill="#5A189A"/>
<path d="M223.543 30.848C215.105 36.238 214.913 41.8634 215.872 44.0023L211.078 38.8689C212.037 31.8105 213.688 34.2472 220.081 26.868C225.194 20.9646 221.848 14.3802 221.242 11.4761C224.438 11.4761 231.592 25.7063 223.543 30.848Z" fill="#240046"/>
<path d="M223.543 30.8482C215.105 36.2383 214.913 41.8636 215.872 44.0025L215.184 43.4217C214.396 41.6623 214.386 37.544 219.103 33.1381C220.12 32.1877 221.358 31.2238 222.855 30.2674C228.149 26.8855 227.028 19.5715 224.621 14.9612C224.381 14.4817 224.281 14.1867 224.04 13.7996L223.837 13.4434C226.922 17.5299 229.744 26.8867 223.543 30.8482Z" fill="black" fill-opacity="0.3"/>
<path d="M185.125 38.2757C189.462 39.8318 191.69 43.8782 191.735 44.8752L196.381 41.2305C195.16 39.1649 189.37 36.9402 185.125 38.2757Z" fill="#240046"/>
<path d="M195.091 39.9614C192.831 38.3971 188.492 37.2167 185.125 38.2759C185.386 38.3695 185.639 38.4721 185.885 38.5826C187.843 38.7016 192.207 39.4224 193.993 41.3536L195.091 39.9614Z" fill="#5A189A"/>
<path d="M10.5304 57.4199C11.8811 61.3 9.7706 62.6142 9.01074 63.0522L13.8228 65.0549C14.9203 63.3026 12.9785 59.2973 10.5304 57.4199Z" fill="#240046"/>
<path d="M10.5308 57.4194C10.9081 58.5035 11.0153 59.3873 10.9573 60.1076C11.7288 59.4002 13.371 61.8852 14.0956 63.2162C13.8287 61.2837 12.3141 58.787 10.5308 57.4194Z" fill="#5A189A"/>
<path d="M17.0757 58.6323C18.7784 62.7853 17.2073 65.967 16.4895 66.6519L22.2964 67.6248C23.0375 65.3907 20.8858 60.8266 17.0757 58.6323Z" fill="#240046"/>
<path d="M17.0752 58.6328C17.4772 59.6134 17.6967 60.5398 17.7881 61.3919C18.4777 61.3284 20.239 61.7359 21.7674 63.8736C20.9077 61.9388 19.2655 59.8942 17.0752 58.6328Z" fill="#5A189A"/>
<path d="M24.2773 58.7952C27.1126 63.422 25.991 67.4886 25.3148 68.4329L32.1735 68.5355C32.5462 65.7459 29.1091 60.7118 24.2773 58.7952Z" fill="#240046"/>
<path d="M30.5879 63.9024C29.1763 61.8517 26.9386 59.8511 24.278 58.7957C25.0608 60.0733 25.542 61.3081 25.8142 62.4462C26.4188 60.9664 29.2486 62.8004 30.5879 63.9024Z" fill="#5A189A"/>
<path d="M32.176 59.4761C35.9204 63.4014 35.7164 67.5933 35.267 68.6521L41.9229 67.3438C41.6792 64.5497 37.2644 60.3512 32.176 59.4761Z" fill="#240046"/>
<path d="M32.1763 59.4766C32.6322 59.9545 33.0296 60.4364 33.3751 60.9161C35.7601 61.0878 39.4341 63.7097 40.9729 64.9992C39.3726 62.6166 35.9607 60.1274 32.1763 59.4766Z" fill="#5A189A"/>
<path d="M41.2504 56.9502C45.4831 60.3491 46.4104 65.7115 46.0777 66.8392L52.6518 64.5641C52.0854 61.7946 46.4912 57.0931 41.2504 56.9502Z" fill="#240046"/>
<path d="M41.25 56.9497C41.8292 57.4148 42.3464 57.9166 42.8071 58.4393C46.1454 58.5609 50.0815 61.2374 51.6322 62.5604C49.6808 59.9731 45.3569 57.0617 41.25 56.9497Z" fill="#5A189A"/>
<path d="M89.5605 55.5479C90.1694 61.7007 85.6952 66.6787 84.2555 67.2916L92.7387 70.9095C94.9667 68.2665 94.3708 59.9701 89.5605 55.5479Z" fill="#240046"/>
<path d="M89.56 55.5477C89.767 57.64 89.1197 60.2311 88.4704 61.9262C91.1277 57.6501 92.9289 60.9819 93.5728 62.7907C92.9663 60.1669 91.6677 57.4854 89.56 55.5477Z" fill="#5A189A"/>
<path d="M100.094 61.2954C100.559 67.4607 95.9702 72.333 94.5166 72.9122L102.913 76.7269C105.202 74.1366 104.8 65.8286 100.094 61.2954Z" fill="#240046"/>
<path d="M99.1301 66.9334C99.04 67.1848 98.9482 67.4237 98.8568 67.6467C98.9357 67.3742 99.0275 67.1375 99.1301 66.9334C99.7181 65.2916 100.232 63.1135 100.095 61.2954C102.157 63.2817 103.392 65.9927 103.938 68.6299C103.381 66.9415 100.413 64.3797 99.1301 66.9334Z" fill="#5A189A"/>
<path d="M111.205 66.4408C111.717 73.2206 106.67 78.5785 105.072 79.2154L114.305 83.4102C116.822 80.5618 116.38 71.4258 111.205 66.4408Z" fill="#240046"/>
<path d="M111.205 66.4399C111.311 67.8386 111.18 69.1767 110.891 70.4254C113.576 70.4254 115.275 75.1466 115.788 77.5072C115.677 73.8091 114.273 69.3951 111.205 66.4399Z" fill="#5A189A"/>
<path d="M123.398 71.5956C123.91 78.3753 118.863 83.7333 117.265 84.3702L126.498 88.565C129.015 85.7166 128.573 76.5806 123.398 71.5956Z" fill="#240046"/>
<path d="M123.399 71.5948C123.53 73.3376 123.294 74.9866 122.844 76.4855C125.479 75.9864 127.365 80.327 127.978 82.5597C127.845 78.8828 126.438 74.5227 123.399 71.5948Z" fill="#5A189A"/>
<path d="M133.681 77.3241C134.193 84.1039 129.146 89.4618 127.548 90.0987L136.781 94.2935C139.299 91.4451 138.856 82.3091 133.681 77.3241Z" fill="#240046"/>
<path d="M133.681 77.3232C133.789 78.7568 133.649 80.1269 133.345 81.4021C135.698 82.6578 137.012 86.3 137.375 87.964L137.823 85.0041C137.186 82.2269 135.848 79.411 133.681 77.3232Z" fill="#5A189A"/>
<path d="M77.7791 51.1808C79.3671 57.0748 76.6513 62.5586 75.601 63.3618L83.0792 65.6577C84.4023 62.7674 82.4425 54.7875 77.7791 51.1808Z" fill="#240046"/>
<path d="M82.3039 57.645C81.3474 55.1815 79.8231 52.7615 77.7798 51.1812C78.1011 52.3736 78.276 53.7818 78.2653 55.0932C78.8522 54.9553 80.429 55.2722 82.3039 57.645Z" fill="#5A189A"/>
<path d="M63.979 50.3484C67.4587 55.3637 66.7478 61.4417 66.0292 62.5516L73.8438 62.1957C74.1166 59.0287 69.5844 52.1745 63.979 50.3484Z" fill="#240046"/>
<path d="M63.9795 50.3491C64.5843 51.2208 65.0625 52.1245 65.436 53.0287C68.4065 53.9767 71.3907 56.6485 72.5115 57.8659C70.7965 54.8302 67.6135 51.533 63.9795 50.3491Z" fill="#5A189A"/>
<path d="M51.9611 55.1742C56.1592 58.3732 57.1929 63.5624 56.8974 64.6668L63.2311 62.2929C62.6121 59.6151 57.0586 55.1836 51.9611 55.1742Z" fill="#240046"/>
<path d="M51.9619 55.1733C52.6542 55.7009 53.2605 56.2826 53.7889 56.8911C56.7783 56.8911 60.7288 59.3299 62.3304 60.5493C60.4388 58.0375 56.0535 55.1809 51.9619 55.1733Z" fill="#5A189A"/>
<path d="M159.79 87.4267C166.771 87.3779 172.051 91.9716 172.635 93.3663L177.342 85.7582C174.528 83.457 165.132 83.3127 159.79 87.4267Z" fill="#240046"/>
<path d="M175.72 84.8944C171.868 83.5063 164.352 83.9146 159.791 87.4272C168.053 85.0521 173.386 86.4376 175.02 87.4272L175.72 84.8944Z" fill="#5A189A"/>
<path d="M162.947 77.9597C169.56 76.2228 176.183 79.4194 177.076 80.6014L179.2 72.1257C175.972 70.6233 167.02 72.762 162.947 77.9597Z" fill="#240046"/>
<path d="M177.451 71.6986C173.46 71.3142 166.426 73.5221 162.948 77.96C170.213 73.7052 175.61 73.7284 177.4 74.2718L177.451 71.6986Z" fill="#5A189A"/>
<path d="M167.893 65.2825C173.42 64.4936 178.097 67.5661 178.71 68.6085L181.622 62.0743C179.145 60.5532 171.684 61.4486 167.893 65.2825Z" fill="#240046"/>
<path d="M179.23 63.7858C179.462 63.0598 179.949 61.9907 180.164 61.5469C177.288 60.9651 172.316 61.813 169 64.3169C175.325 62.1253 178.032 63.4591 179.23 63.7858Z" fill="#5A189A"/>
<path d="M172.899 55.3219C177.828 55.5661 181.371 59.019 181.727 60.0267L185.353 54.8449C183.459 53.1084 176.833 52.6315 172.899 55.3219Z" fill="#240046"/>
<path d="M182.99 55.9289C183.314 55.3378 183.916 54.4918 184.177 54.1427C181.779 53.1543 177.321 53.0546 174.022 54.6704C179.88 53.8313 182.005 55.444 182.99 55.9289Z" fill="#5A189A"/>
<path d="M179.638 45.3157C184.139 46.3021 186.868 50.0289 187.041 51.0118L191.18 46.8007C189.704 44.9091 183.676 43.4462 179.638 45.3157Z" fill="#240046"/>
<path d="M188.836 47.4335C189.226 46.9392 189.911 46.2533 190.205 45.9721C188.15 44.6914 184.061 43.911 180.773 44.8892C186.296 45.0214 188.005 46.8348 188.836 47.4335Z" fill="#5A189A"/>
<path d="M186.889 33.7533C195.326 39.1434 195.518 44.7687 194.559 46.9076L199.353 41.7742C198.395 34.7158 197.755 36.9617 191.363 29.5824C186.249 23.679 189.479 16.1239 190.085 13.2197C186.889 13.2197 178.451 28.3632 186.889 33.7533Z" fill="#5A189A"/>
<path d="M186.782 33.7528C195.219 39.1428 195.411 44.7682 194.452 46.9071L199.246 41.7737C198.288 34.7153 196.636 37.152 190.244 29.7727C185.13 23.8693 188.477 17.285 189.082 14.3809C185.886 14.3809 178.733 28.6111 186.782 33.7528Z" fill="#240046"/>
<path d="M186.781 33.754C195.219 39.144 195.411 44.7694 194.452 46.9083L195.14 46.3275C195.928 44.5681 195.939 40.4498 191.222 36.0439C190.204 35.0934 188.966 34.1296 187.469 33.1732C182.175 29.7912 183.296 22.4773 185.704 17.867C185.943 17.3875 186.043 17.0925 186.285 16.7054L186.487 16.3491C183.403 20.4357 180.58 29.7924 186.781 33.754Z" fill="black" fill-opacity="0.3"/>
<path d="M255.584 37.1597C249.05 39.0849 233.971 39.2456 227.249 39.0853L202.716 35.661C195.228 41.2613 179.919 56.4187 178.588 72.2464L208.921 77.18C207.926 71.6162 213.13 62.2156 220.128 67.1092C227.125 72.0028 243.28 71.7845 250.482 71.0636C251.515 70.3762 253.652 68.6727 253.933 67.3576C254.214 66.0426 252.4 65.2247 251.457 64.9802L251.544 64.9617C252.031 64.9371 252.538 64.9067 253.07 64.8706C260.441 64.3697 263.752 34.7533 255.584 37.1597Z" fill="#9D4EDD"/>
<path d="M227.249 41.9891C233.971 42.1494 249.049 41.9888 255.584 40.0636C263.751 37.6571 260.441 64.3694 253.069 64.8703L253.067 64.8705C252.804 64.8884 252.547 64.9058 252.295 65.2757C253.185 65.6717 254.142 66.3761 253.933 67.3573C253.652 68.6724 251.515 70.3759 250.482 71.0633C243.279 71.7842 227.125 72.0025 220.127 67.1089C213.13 62.2153 202.92 70.3844 203.916 75.9482C203.916 75.9482 196.074 110.507 190.557 123.576C179.811 137.806 167.904 139.839 167.904 139.839L143.219 139.839C143.219 139.839 141.767 140.42 128.699 132.579C115.63 124.738 99.6573 95.9867 99.6573 95.9867C99.6573 95.9867 90.0737 78.5619 75.553 75.9482C58.9995 77.1098 27.3445 73.3345 27.3445 73.3345L18.648 70.4125L14.5663 66.9453L27.3445 68.9783C27.3445 68.9783 42.4461 69.2422 51.7392 65.4801C61.0324 61.7179 76.4244 63.4604 76.4244 63.4604L121.438 86.6935L153.093 99.4716L167.541 97.4387L174.874 93.3729L178.588 72.2461C179.919 56.4185 195.228 44.1651 202.716 38.5648L227.249 41.9891Z" fill="#5A189A"/>
<path d="M249.32 68.1593C250.354 67.4719 252.491 65.7684 252.771 64.4533C249.122 64.3393 242.693 64.0531 246.178 63.8207C249.663 63.5884 251.45 62.4876 251.908 61.9663C256.052 58.5933 260.039 49.232 258.989 42.0398C260.14 46.1055 261.047 56.1538 255.471 63.8207C254.542 64.7333 253.729 65.5562 253.438 65.8536C253.473 67.2089 252.893 70.0937 250.296 70.7906C247.049 71.6619 223.816 72.5331 218.008 66.4344L212.9 66.4344C213.437 63.3212 215.093 61.4962 218.966 64.2049C225.964 69.0985 242.118 68.8801 249.32 68.1593Z" fill="black" fill-opacity="0.3"/>
<path d="M205.369 71.0114C207.924 67.9911 210.209 67.0424 212.339 67.5265C210.887 68.6881 208.099 72.4635 208.563 78.2717C209.028 84.08 209.531 89.5978 209.725 91.6307C209.338 97.3422 208.447 109.056 207.982 110.217C207.402 111.669 205.95 127.642 201.593 133.741C197.237 139.839 192.591 145.067 186.492 148.261C180.393 151.456 163.84 154.07 155.708 153.779C147.577 153.489 134.508 151.165 124.634 143.324C114.76 135.483 105.176 123.867 101.982 118.349C99.426 113.934 89.3003 97.923 84.5569 90.4691C82.524 88.2426 76.8319 83.4992 70.3267 82.3375C62.1951 80.8855 62.4855 80.595 55.806 80.3046L55.6759 80.299C49.0359 80.0104 42.0963 79.7087 32.8634 77.4005C23.5702 75.0772 17.1811 73.0443 13.9865 71.3018C11.4309 69.9078 7.50065 65.8808 5.85498 64.0415C30.8305 79.4334 55.5156 74.7868 70.9075 75.658C83.221 76.355 92.6885 85.8225 95.883 90.4691C101.014 99.1815 114.586 119.568 127.828 131.417C141.071 143.266 160.161 141.485 168.196 140.13C178.651 137.342 189.712 126.362 192.3 119.51C197.237 106.442 202.174 74.7868 205.369 71.0114Z" fill="#9D4EDD"/>
<path d="M202.481 85.5834C203.794 86.6565 206.801 88.5312 208.323 87.445C207.872 87.352 206.146 87.5117 202.481 85.5834Z" fill="black" fill-opacity="0.3"/>
<path d="M200.163 95.7228C201.915 97.1541 205.925 99.6545 207.955 98.2057C207.353 98.0818 205.052 98.2948 200.163 95.7228Z" fill="black" fill-opacity="0.3"/>
<path d="M197.945 106.241C200.203 108.086 204.695 110.902 207.313 109.034C206.536 108.874 204.248 109.557 197.945 106.241Z" fill="black" fill-opacity="0.3"/>
<path d="M195.107 116.027C197.295 118.291 201.97 121.972 205.177 120.085C204.345 119.841 201.522 120.281 195.107 116.027Z" fill="black" fill-opacity="0.3"/>
<path d="M190.926 126.037C192.712 128.631 197.153 133.484 200.627 132.15C199.846 131.773 196.554 131.289 190.926 126.037Z" fill="black" fill-opacity="0.3"/>
<path d="M184.785 134.31C185.932 137.243 189.148 142.982 192.834 142.476C192.16 141.93 189.065 140.707 184.785 134.31Z" fill="black" fill-opacity="0.3"/>
<path d="M165.327 141.685C164.84 144.408 164.612 150.183 167.605 151.497C167.351 150.779 165.595 148.442 165.327 141.685Z" fill="black" fill-opacity="0.3"/>
<path d="M154.843 142.303C153.914 144.909 152.741 150.568 155.477 152.355C155.345 151.605 153.996 149.011 154.843 142.303Z" fill="black" fill-opacity="0.3"/>
<path d="M145.168 141.004C143.605 143.287 141.028 148.459 143.218 150.886C143.281 150.127 142.639 147.275 145.168 141.004Z" fill="black" fill-opacity="0.3"/>
<path d="M137.128 136.737C134.849 138.306 130.585 142.206 131.756 145.258C132.088 144.572 132.514 141.68 137.128 136.737Z" fill="black" fill-opacity="0.3"/>
<path d="M121.322 127.399C119.364 128.306 115.573 130.744 116.072 133.244C116.417 132.76 117.125 130.593 121.322 127.399Z" fill="black" fill-opacity="0.3"/>
<path d="M113.315 119.457C111.544 120.168 108.071 122.124 108.338 124.251C108.672 123.852 109.436 122.039 113.315 119.457Z" fill="black" fill-opacity="0.3"/>
<path d="M106.957 110.087C105.357 110.73 102.215 112.498 102.457 114.422C102.759 114.061 103.449 112.422 106.957 110.087Z" fill="black" fill-opacity="0.3"/>
<path d="M100.761 100.316C99.1598 100.959 96.0185 102.727 96.2597 104.651C96.5618 104.29 97.2527 102.651 100.761 100.316Z" fill="black" fill-opacity="0.3"/>
<path d="M94.9084 92.3857C93.489 92.9564 90.7036 94.5243 90.9175 96.2302C91.1853 95.9102 91.7979 94.4567 94.9084 92.3857Z" fill="black" fill-opacity="0.3"/>
<path d="M87.7396 84.4879C86.5994 85.2221 84.437 87.0526 84.9084 88.5018C85.088 88.1784 85.3783 86.8107 87.7396 84.4879Z" fill="black" fill-opacity="0.3"/>
<path d="M79.8802 79.4789C79.0673 80.4289 77.6414 82.6176 78.441 83.7729C78.5142 83.4398 78.4088 82.155 79.8802 79.4789Z" fill="black" fill-opacity="0.3"/>
<path d="M70.7254 77.1744C70.2435 78.0411 69.4806 79.9675 70.2845 80.7393C70.2888 80.4689 70.0041 79.4868 70.7254 77.1744Z" fill="black" fill-opacity="0.3"/>
<path d="M216.114 65.4936C213.984 65.0095 206.24 68.9785 204.207 74.206C202.415 78.8152 197.237 106.442 192.3 119.51C189.712 126.362 179.812 137.051 169.357 139.839C161.323 141.195 141.071 143.266 127.828 131.417C114.586 119.568 101.014 99.1815 95.883 90.4691C92.6884 85.8225 83.221 76.355 70.9075 75.658C55.5156 74.7868 30.8305 79.4334 5.85498 64.0415" stroke="#240046" stroke-width="1.06485"/>
<path d="M210.48 69.7454C210.927 68.307 211.387 67.3103 212.339 67.5265C211.82 67.9414 211.131 68.6899 210.48 69.7454C210.032 71.1901 209.598 73.0803 208.696 74.6346C208.52 75.7375 208.458 76.9522 208.563 78.2717C209.028 84.08 209.531 89.5978 209.725 91.6307C209.338 97.3422 208.447 109.056 207.982 110.217C207.402 111.669 205.95 127.642 201.593 133.741C197.237 139.839 192.591 145.067 186.492 148.261C180.393 151.456 163.84 154.07 155.708 153.779C147.577 153.489 134.508 151.165 124.634 143.324C114.76 135.483 105.176 123.867 101.982 118.349C99.426 113.934 89.3003 97.923 84.5569 90.4691C82.524 88.2426 76.8319 83.4992 70.3267 82.3375C62.1951 80.8855 62.4855 80.595 55.806 80.3046L55.6759 80.299C49.0359 80.0104 42.0963 79.7087 32.8634 77.4005C23.5702 75.0772 17.1811 73.0443 13.9865 71.3018C11.4309 69.9078 7.50065 65.8808 5.85498 64.0415C30.8305 79.4334 47.384 76.5293 71.6335 80.3046C80.7816 81.7289 84.9925 87.7102 90.946 92.7924C96.8994 97.8746 107.035 119.859 120.278 131.708C133.521 143.557 148.228 152.093 167.325 148.261C182.037 145.309 190.103 138.579 198.98 126.48C210.903 110.229 204.788 79.4334 207.982 75.658C208.25 75.3418 208.486 74.9974 208.696 74.6346C209.019 72.617 209.723 70.9734 210.48 69.7454Z" fill="black" fill-opacity="0.3"/>
<path d="M181.119 72.6086C182.45 56.781 193.524 45.5375 201.012 39.9372C195.107 42.5509 182.484 51.5537 179.231 66.6552C179.667 82.5553 175.359 87.6133 175.456 88.6539C175.843 92.1398 172.769 99.0384 157.377 98.7458C141.986 98.4532 124.246 89.4759 117.3 85.0238L81.8701 65.2757L66.5508 62.8072L47.2383 67.0908C41.5753 67.8168 28.8697 69.1382 23.3519 68.6155C6.85642 64.2012 5.41887 64.6949 0.985578 62.3689C14.4607 75.844 37.9648 73.0173 48.0325 69.9196C55.196 67.1123 71.6621 62.2527 83.9756 69.9196C99.3675 79.5032 125.94 92.5019 139.009 97.7294C152.077 102.957 161.371 100.488 171.245 98.7458C179.144 97.3518 181.065 80.255 181.119 72.6086Z" fill="#9D4EDD"/>
<path d="M255.584 37.1593C249.05 39.0845 233.972 39.2451 227.249 39.0848L202.717 35.6605C195.229 41.2608 179.92 56.4183 178.588 72.2459C178.535 79.8923 176.453 95.5336 168.554 96.9276C158.68 98.6701 152.001 100.122 138.932 94.8947C125.863 89.6673 101.469 77.1795 86.0768 67.5959C73.7633 59.929 56.3579 63.6269 49.1944 66.4342C39.1267 69.532 15.6226 72.3587 2.14745 58.8835C3.21234 62.6589 9.46598 71.3131 25.9614 75.7274C42.4569 80.1417 52.389 80.6644 55.2931 80.374C62.747 80.2772 79.3391 82.5812 86.0768 92.5714C92.8145 102.562 100.888 116.095 104.083 121.613C110.665 131.68 128.884 152.106 149.097 153.268C169.309 154.429 182.107 150.654 185.979 148.621C190.626 146.395 202.474 138.166 205.727 123.065C208.98 107.963 209.599 95.4755 209.502 91.1193L208.631 76.8891C208.631 70.7904 213.13 62.2151 220.128 67.1087C227.126 72.0023 243.28 71.784 250.482 71.0631C251.516 70.3757 253.653 68.6723 253.933 67.3572C254.214 66.0421 252.4 65.2242 251.458 64.9797L251.544 64.9612C252.031 64.9366 252.538 64.9062 253.07 64.8701C260.442 64.3692 263.752 34.7528 255.584 37.1593Z" stroke="#240046" stroke-width="1.06485"/>
<path d="M214.759 65.2479L213.65 57.7593L218.766 59.0887L214.759 65.2479Z" fill="white"/>
<path d="M214.993 64.0115L214.754 61.2454L215.215 62.5096L217.389 59.0787L218.104 59.1778L214.993 64.0115Z" fill="black" fill-opacity="0.3"/>
<path d="M214.759 65.2479L213.65 57.7593L218.766 59.0887L214.759 65.2479Z" stroke="#240046" stroke-width="0.532424"/>
<path d="M208.794 63.8811L208.289 56.3276L213.282 58.0633L208.794 63.8811Z" fill="white"/>
<path d="M209.119 62.5977L209.103 59.8213L209.461 61.1184L211.903 57.873L212.608 58.0292L209.119 62.5977Z" fill="black" fill-opacity="0.3"/>
<path d="M208.794 63.8811L208.289 56.3276L213.282 58.0633L208.794 63.8811Z" stroke="#240046" stroke-width="0.532424"/>
<path d="M202.838 62.0085V53.877L208.066 56.0947L202.838 62.0085Z" fill="white"/>
<path d="M203.22 60.7653L203.401 57.7886L203.692 59.2043L206.541 55.9009L207.286 56.1187L203.22 60.7653Z" fill="black" fill-opacity="0.3"/>
<path d="M202.838 62.0085V53.877L208.066 56.0947L202.838 62.0085Z" stroke="#240046" stroke-width="0.532424"/>
<path d="M201.745 51.043C202.434 52.5385 207.637 56.8828 224.066 60.3617C240.31 63.8012 242.908 65.3575 251.688 64.9647" stroke="#240046" stroke-width="1.06485"/>
<path d="M247.83 49.506C246.534 46.036 249.015 45.4552 250.599 44.672C250.599 44.672 250.089 44.2061 249.015 44.1602C247.151 44.0803 243.466 44.5373 246.534 48.6649C247.191 49.5494 247.83 49.506 247.83 49.506Z" fill="#240046"/>
<path d="M221.14 34.369C221.026 38.2196 218.128 41.1633 214.775 41.0639C211.423 40.9645 208.705 37.8543 208.819 34.0037C208.933 30.153 211.831 27.2094 215.183 27.3088C218.536 27.4082 221.254 30.5184 221.14 34.369Z" fill="white" stroke="#240046" stroke-width="1.06485"/>
<ellipse cx="216.291" cy="34.6281" rx="1.91303" ry="3.34781" transform="rotate(1.69858 216.291 34.6281)" fill="black"/>
<path d="M215.199 26.7766C211.503 26.667 208.408 29.8956 208.287 33.9879C208.275 34.3682 208.29 34.7426 208.329 35.1089L221.674 33.9966C221.608 30.0792 218.778 26.8827 215.199 26.7766Z" fill="#9D4EDD"/>
<path d="M219.559 32.9672C218.631 31.0303 217.04 29.7353 215.198 29.6807C213.007 29.6157 211.067 31.3229 210.129 33.8385L219.559 32.9672Z" fill="#5A189A"/>
<path d="M208.819 34.0037C208.933 30.153 211.831 27.2094 215.183 27.3088C218.283 27.4007 220.838 30.0632 221.118 33.5087L208.821 34.5337C208.814 34.3586 208.814 34.1819 208.819 34.0037Z" stroke="#240046" stroke-width="1.06485"/>
<path d="M123.48 166.892C123.921 165.237 124.145 164.667 123.909 164.53L118.825 167.579C119.102 170.353 117.581 172.629 114.793 174.509C119.856 174.61 122.981 168.766 123.48 166.892Z" fill="#240046"/>
<path d="M120.294 166.47C120.735 164.815 119.372 167.104 119.136 166.967L118.824 167.58C119.102 170.353 117.58 172.629 114.792 174.509C119.316 172.04 119.795 168.344 120.294 166.47Z" fill="#5A189A"/>
<path d="M123.48 166.892C123.921 165.237 124.145 164.667 123.909 164.53L123.361 165.059C121.705 172.089 117.592 173.498 114.793 174.509C119.856 174.61 122.981 168.766 123.48 166.892Z" fill="#190031"/>
<path d="M127.237 167.679C127.336 165.969 127.44 165.365 127.182 165.278L124.524 166.847L122.815 169.288C123.645 171.949 122.612 174.485 120.259 176.887C125.239 175.967 127.124 169.614 127.237 167.679Z" fill="#240046"/>
<path d="M124.032 167.905C124.131 166.195 123.256 168.711 122.998 168.624L122.816 169.287C123.645 171.948 122.613 174.484 120.26 176.887C124.195 173.557 123.92 169.841 124.032 167.905Z" fill="#5A189A"/>
<path d="M127.237 167.679C127.336 165.969 127.44 165.365 127.182 165.278L126.752 165.907C126.543 173.126 122.798 175.334 120.259 176.887C125.239 175.967 127.124 169.614 127.237 167.679Z" fill="#190031"/>
<path d="M131.169 166.144C130.747 164.484 130.664 163.877 130.392 163.872L128.332 166.17L127.439 169.013C129.034 171.299 128.815 174.029 127.297 177.029C131.767 174.649 131.646 168.023 131.169 166.144Z" fill="#240046"/>
<path d="M128.181 167.328C127.76 165.668 127.685 168.331 127.413 168.326L127.439 169.013C129.033 171.299 128.815 174.029 127.297 177.029C130.043 172.667 128.659 169.207 128.181 167.328Z" fill="#5A189A"/>
<path d="M131.169 166.144C130.747 164.484 130.664 163.877 130.392 163.872L130.172 164.601C132.152 171.547 129.249 174.782 127.297 177.029C131.767 174.649 131.646 168.023 131.169 166.144Z" fill="#190031"/>
<path d="M135.38 121.972C134.025 119.552 132.592 114.189 137.704 112.098C142.815 110.007 146.997 112.969 148.449 114.711C150.095 116.26 156.171 122.937 152.221 133.159C148.272 143.382 128.604 142.785 121.15 141.72C121.925 142.591 123.357 145.437 122.893 149.851C122.428 154.266 128.25 162.479 130.477 166.158C129.605 165.77 126.145 165.65 125.216 167.276C123.764 165.824 123.474 165.824 122.312 167.566C121.828 166.792 120.627 165.534 119.698 166.695C119.698 163.501 119.408 162.92 118.536 160.597C116.407 157.596 111.857 150.316 110.695 145.205C108.953 140.558 108.953 140.268 108.953 139.687C108.856 138.719 110.986 137.073 115.052 136.492C119.117 135.911 126.862 129.038 129.572 125.747C130.746 124.647 133.477 122.679 136.753 121.689C136.232 121.79 135.76 121.888 135.38 121.972Z" fill="#5A189A"/>
<path d="M118.39 153.343C116.589 150.961 113.525 142.089 112.218 137.951L108.733 138.677L112.581 149.858L118.753 161.256L119.551 165.54C120.616 166.75 122.818 168.618 123.109 166.411H124.525L129.316 165.758C129.679 165.262 130.108 164.255 128.917 164.197C127.726 164.139 126.824 164.396 126.521 164.532C124.692 163.959 123.423 164.293 123.017 164.532C122.473 161.157 120.236 155.784 118.39 153.343Z" fill="black" fill-opacity="0.3"/>
<path d="M118.681 140.347C137.616 140.463 146.633 137.298 153.022 127.714C152.151 140.347 139.106 141.703 132.62 141.654C129.716 142.38 124.707 141.654 118.681 140.347Z" fill="black" fill-opacity="0.3"/>
<path d="M128.191 129.964C132.49 123.75 140.921 122.583 144.6 122.777L142.567 121.252L133.491 123.212L123.763 131.416L114.542 136.862C117.301 137.152 123.893 136.179 128.191 129.964Z" fill="#9D4EDD"/>
<path d="M135.381 121.971C135.055 121.389 134.725 120.636 134.482 119.8M144.671 121.971C143.797 121.252 142.929 120.955 140.028 121.1C135.381 121.332 131.122 124.295 129.573 125.747C126.863 129.038 119.118 135.911 115.053 136.492C110.987 137.073 108.857 138.718 108.954 139.686C108.954 140.267 108.954 140.558 110.696 145.204C111.858 150.316 116.408 157.595 118.537 160.596C119.409 162.919 119.699 163.5 119.699 166.695C120.858 166.404 122.41 166.792 122.894 167.566C124.055 165.824 125.507 165.824 126.959 167.276C127.889 165.649 129.897 165.824 130.735 165.824C128.508 162.145 122.429 154.265 122.894 149.851C123.358 145.437 121.926 142.591 121.151 141.719C128.605 142.784 148.273 143.381 152.222 133.159C156.172 122.936 150.096 116.26 148.45 114.711C148.163 114.367 147.771 113.976 147.285 113.585" stroke="#240046" stroke-width="1.06485" stroke-linecap="round"/>
<path d="M211.264 36.1112C211.15 39.9618 208.253 42.9055 204.9 42.8061C201.547 42.7067 198.829 39.5965 198.943 35.7458C199.058 31.8952 201.955 28.9515 205.308 29.051C208.66 29.1504 211.378 32.2606 211.264 36.1112Z" fill="white" stroke="#240046" stroke-width="1.06485"/>
<ellipse cx="206.415" cy="36.3694" rx="1.91303" ry="3.34781" transform="rotate(1.69858 206.415 36.3694)" fill="black"/>
<path d="M205.324 28.5188C201.627 28.4092 198.532 31.6378 198.411 35.7301C198.4 36.1104 198.415 36.4848 198.454 36.8511L211.799 35.7388C211.733 31.8214 208.902 28.6249 205.324 28.5188Z" fill="#9D4EDD"/>
<path d="M209.683 34.7094C208.756 32.7725 207.164 31.4775 205.322 31.4229C203.132 31.3579 201.192 33.0651 200.254 35.5806L209.683 34.7094Z" fill="#5A189A"/>
<path d="M198.943 35.7458C199.058 31.8952 201.955 28.9515 205.308 29.051C208.407 29.1429 210.962 31.8054 211.242 35.2509L198.946 36.2759C198.939 36.1008 198.938 35.9241 198.943 35.7458Z" stroke="#240046" stroke-width="1.06485"/>
<path d="M212.635 126.53C210.746 126.373 210.081 126.241 209.978 126.524L214.291 131.466C217.257 130.623 220.033 131.836 222.625 134.506C221.747 128.972 214.773 126.709 212.635 126.53Z" fill="#240046"/>
<path d="M212.796 130.082C210.908 129.925 213.666 130.963 213.563 131.246L214.291 131.466C217.258 130.623 220.034 131.836 222.626 134.506C219.053 130.06 214.934 130.261 212.796 130.082Z" fill="#5A189A"/>
<path d="M212.635 126.53C210.746 126.373 210.081 126.241 209.978 126.524L210.661 127.017C218.641 127.45 220.978 131.654 222.625 134.506C221.747 128.972 214.773 126.709 212.635 126.53Z" fill="#190031"/>
<path d="M213.5 121.586C211.607 121.682 210.931 121.64 210.866 121.934L212.91 124.67L215.8 126.257C218.627 125.026 221.54 125.858 224.465 128.159C222.856 122.791 215.643 121.478 213.5 121.586Z" fill="#240046"/>
<path d="M214.133 125.085C212.24 125.18 215.112 125.841 215.048 126.136L215.799 126.257C218.627 125.026 221.54 125.858 224.464 128.158C220.331 124.228 216.276 124.976 214.133 125.085Z" fill="#5A189A"/>
<path d="M213.5 121.586C211.607 121.682 210.931 121.64 210.866 121.934L211.609 122.332C219.575 121.697 222.452 125.552 224.465 128.159C222.856 122.791 215.643 121.478 213.5 121.586Z" fill="#190031"/>
<path d="M213.042 116.953C210.755 117.033 209.931 116.984 209.876 117.281L212.567 120.056L216.195 121.682C219.528 120.465 223.125 121.329 226.851 123.674C224.482 118.248 215.632 116.862 213.042 116.953Z" fill="#240046"/>
<path d="M214.084 120.486C211.796 120.566 215.331 121.257 215.275 121.554L216.196 121.682C219.528 120.465 223.126 121.329 226.851 123.674C221.533 119.676 216.674 120.395 214.084 120.486Z" fill="#5A189A"/>
<path d="M213.042 116.953C210.755 117.033 209.931 116.984 209.876 117.281L210.808 117.688C220.418 117.117 224.207 121.028 226.851 123.674C224.482 118.248 215.632 116.862 213.042 116.953Z" fill="#190031"/>
<path d="M172.85 144.241C167.781 128.944 171.707 115.541 174.304 110.752L188.704 113.389C186.581 115.323 186.087 121.173 183.814 124.816C184.997 129.317 184.535 134.835 184.156 137.032C188.319 137.581 194.42 135.984 199.49 131.778C204.22 121.383 211.224 117.169 214.135 116.362L212.716 130.428L209.874 131.901L200.513 137.033C193.405 145.809 177.919 159.538 172.85 144.241Z" fill="#5A189A"/>
<path d="M177.56 142.961C174.481 140.173 172.429 135.168 172.114 129.675C170.662 138.169 172.187 139.767 174.075 145.647C174.714 150.584 178.019 151.044 179.592 150.657C188.595 148.842 199.05 139.694 201.373 136.499C204.86 135.862 207.908 133.233 208.997 131.998L211.393 131.417C212.675 130.788 214.66 129.486 212.337 129.312C210.013 129.137 208.222 129.82 207.617 130.183C205.947 132.434 205.512 132.143 199.05 135.338C190.28 144.108 183.053 146.978 180.536 147.317C180.827 147.027 175.236 148.479 177.56 142.961Z" fill="black" fill-opacity="0.3"/>
<path d="M209.577 120.744C211.146 119.06 212.603 119.123 213.135 119.365L213.716 119.365L213.135 116.243L206.528 121.252C205.366 122.801 203.45 125.594 205.076 124.374C206.702 123.155 208.755 121.446 209.577 120.744Z" fill="#9D4EDD"/>
<path d="M214.448 116.496L214.763 116.925C214.939 116.796 215.018 116.573 214.963 116.362C214.908 116.151 214.73 115.995 214.513 115.968L214.448 116.496ZM202.427 127.184L202.89 127.447L202.427 127.184ZM183.152 137.594L182.625 137.523C182.604 137.675 182.65 137.829 182.751 137.944C182.852 138.06 182.998 138.126 183.151 138.127L183.152 137.594ZM173.826 144.547L174.358 144.554L174.36 144.428L174.306 144.315L173.826 144.547ZM177.329 150.774L177.453 150.256C177.432 150.251 177.412 150.247 177.391 150.245L177.329 150.774ZM190.692 146.436L190.965 146.893L190.692 146.436ZM200.827 136.481L200.692 135.966C200.503 136.016 200.357 136.164 200.31 136.354L200.827 136.481ZM209.247 131.696L208.898 131.294L208.796 131.382L208.749 131.509L209.247 131.696ZM213.624 127.352L213.911 127.8C214.054 127.708 214.145 127.553 214.155 127.383C214.166 127.213 214.094 127.049 213.962 126.941L213.624 127.352ZM212.157 126.005L212.08 125.478L212.027 125.486L211.976 125.504L212.157 126.005ZM215.601 120.972L215.615 121.505L215.675 120.445L215.601 120.972ZM210.601 123.136L210.32 122.684C210.104 122.818 210.013 123.085 210.103 123.323C210.192 123.561 210.437 123.702 210.687 123.661L210.601 123.136ZM214.547 125.657L214.624 126.183C214.78 126.161 214.918 126.07 215 125.936C215.083 125.802 215.102 125.638 215.053 125.489L214.547 125.657ZM214.505 122.511L214.645 123.025L214.42 121.986L214.505 122.511ZM213.338 130.861L213.87 130.897C213.877 130.79 213.851 130.683 213.797 130.591L213.338 130.861ZM174.337 114.745C174.42 114.463 174.258 114.167 173.976 114.084C173.694 114.002 173.398 114.163 173.315 114.445L174.337 114.745ZM183.562 124.437L183.11 124.156L182.993 124.343L183.043 124.557L183.562 124.437ZM188.246 116.083C188.342 115.805 188.195 115.502 187.917 115.406C187.639 115.31 187.336 115.458 187.24 115.736L188.246 116.083ZM214.513 115.968C212.821 115.758 210.825 116.497 208.71 118.248C206.588 120.006 204.289 122.828 201.964 126.921L202.89 127.447C205.175 123.424 207.398 120.717 209.39 119.068C211.389 117.412 213.098 116.865 214.382 117.025L214.513 115.968ZM201.964 126.921C199.734 130.848 196.122 133.389 192.498 134.949C188.87 136.51 185.275 137.068 183.154 137.062L183.151 138.127C185.421 138.133 189.159 137.544 192.918 135.927C196.681 134.308 200.511 131.637 202.89 127.447L201.964 126.921ZM173.294 144.539C173.26 146.897 173.746 148.529 174.514 149.612C175.29 150.705 176.321 151.191 177.267 151.302L177.391 150.245C176.724 150.166 175.972 149.826 175.383 148.996C174.787 148.156 174.327 146.77 174.358 144.554L173.294 144.539ZM177.205 151.291C178.054 151.495 179.692 151.463 181.987 150.864C184.3 150.26 187.325 149.067 190.965 146.893L190.419 145.979C186.853 148.109 183.921 149.258 181.718 149.834C179.495 150.414 178.055 150.4 177.453 150.256L177.205 151.291ZM190.965 146.893C194.609 144.717 197.092 142.577 198.717 140.773C200.331 138.982 201.127 137.492 201.344 136.608L200.31 136.354C200.152 136.995 199.484 138.331 197.926 140.06C196.38 141.776 193.983 143.851 190.419 145.979L190.965 146.893ZM200.963 136.996C202.552 136.577 204.443 136.058 206.072 135.286C207.687 134.521 209.154 133.457 209.746 131.884L208.749 131.509C208.306 132.686 207.156 133.594 205.616 134.324C204.089 135.047 202.288 135.545 200.692 135.966L200.963 136.996ZM213.962 126.941C213.251 126.355 212.265 126.159 211.879 126.049C211.76 126.015 211.733 126.001 211.743 126.007C211.745 126.008 211.83 126.053 211.891 126.167C211.977 126.327 211.956 126.501 211.89 126.62C211.864 126.667 211.836 126.697 211.822 126.711C211.815 126.718 211.808 126.723 211.805 126.727C211.801 126.73 211.798 126.731 211.798 126.732C211.798 126.732 211.803 126.728 211.815 126.722C211.826 126.715 211.843 126.706 211.865 126.696C211.957 126.65 212.108 126.589 212.338 126.506L211.976 125.504C211.737 125.591 211.543 125.668 211.397 125.739C211.325 125.774 211.251 125.814 211.185 125.861C211.127 125.902 211.027 125.98 210.958 126.105C210.87 126.264 210.848 126.476 210.953 126.67C211.032 126.819 211.155 126.897 211.212 126.929C211.332 126.999 211.483 127.044 211.589 127.074C212.105 127.22 212.793 127.357 213.286 127.763L213.962 126.941ZM214.132 116.067C213.702 116.383 213.476 116.898 213.376 117.402C213.273 117.918 213.284 118.499 213.395 119.051C213.608 120.103 214.264 121.321 215.526 121.5L215.675 120.445C215.105 120.365 214.624 119.755 214.439 118.84C214.352 118.408 214.348 117.97 214.42 117.61C214.494 117.238 214.633 117.021 214.763 116.925L214.132 116.067ZM215.586 120.44C214.4 120.473 213.335 120.886 212.449 121.356C211.585 121.815 210.805 122.382 210.32 122.684L210.882 123.588C211.47 123.222 212.118 122.738 212.949 122.297C213.758 121.867 214.657 121.531 215.615 121.505L215.586 120.44ZM215.053 125.489C214.973 125.25 214.843 124.946 214.729 124.667C214.609 124.373 214.496 124.079 214.423 123.809C214.348 123.528 214.332 123.33 214.354 123.207C214.369 123.125 214.391 123.098 214.461 123.07L214.066 122.082C213.618 122.261 213.381 122.615 213.307 123.014C213.241 123.373 213.306 123.756 213.395 124.086C213.487 124.425 213.621 124.77 213.743 125.069C213.871 125.384 213.978 125.63 214.042 125.824L215.053 125.489ZM214.461 123.07C214.491 123.058 214.532 123.046 214.59 123.037L214.42 121.986C214.296 122.006 214.177 122.037 214.066 122.082L214.461 123.07ZM214.364 121.998C214.283 122.02 214.204 122.041 214.128 122.061L214.399 123.091C214.478 123.07 214.56 123.048 214.645 123.025L214.364 121.998ZM214.128 122.061C213.199 122.305 212.686 122.378 212.227 122.422C211.763 122.466 211.287 122.483 210.514 122.61L210.687 123.661C211.412 123.542 211.812 123.531 212.327 123.482C212.847 123.433 213.417 123.349 214.399 123.091L214.128 122.061ZM209.596 132.099C209.577 132.115 209.6 132.09 209.732 132.053C209.849 132.02 210.005 131.99 210.198 131.963C210.585 131.91 211.054 131.877 211.536 131.839C212.002 131.803 212.49 131.762 212.866 131.689C213.05 131.653 213.248 131.602 213.413 131.52C213.553 131.449 213.845 131.267 213.87 130.897L212.807 130.826C212.822 130.6 212.997 130.537 212.937 130.567C212.903 130.584 212.818 130.613 212.662 130.643C212.357 130.703 211.933 130.74 211.454 130.778C210.99 130.814 210.479 130.849 210.052 130.909C209.837 130.938 209.627 130.976 209.443 131.028C209.274 131.076 209.062 131.152 208.898 131.294L209.596 132.099ZM213.797 130.591C213.624 130.296 213.452 129.683 213.451 129.059C213.451 128.414 213.631 127.979 213.911 127.8L213.337 126.903C212.582 127.386 212.386 128.312 212.387 129.059C212.387 129.828 212.589 130.638 212.879 131.131L213.797 130.591ZM212.234 126.532L214.624 126.183L214.47 125.13L212.08 125.478L212.234 126.532ZM174.306 144.315C171.771 139.062 170.071 129.293 174.337 114.745L173.315 114.445C168.992 129.186 170.672 139.235 173.346 144.778L174.306 144.315ZM183.68 137.666C184.079 134.709 185.411 130.056 184.08 124.317L183.043 124.557C184.317 130.049 183.045 134.409 182.625 137.523L183.68 137.666ZM184.014 124.718C185.72 121.975 186.487 120.674 186.973 119.625C187.456 118.579 187.666 117.763 188.246 116.083L187.24 115.736C186.631 117.497 186.46 118.196 186.006 119.178C185.553 120.157 184.824 121.399 183.11 124.156L184.014 124.718Z" fill="#240046"/>
<path d="M81.9428 42.1145C81.5943 28.8716 65.6313 24.7865 57.6934 24.3993C74.2953 20.6239 115.979 17.0228 149.899 32.8212C155.681 35.514 168.97 46.4706 157.305 43.4213C152.852 56.2479 144.991 83.992 149.173 92.3559C137.121 75.3667 121.1 62.9758 110.839 62.0078C106.483 50.5364 98.932 43.1309 81.9428 42.1145Z" fill="#9D4EDD"/>
<path d="M57.6934 24.3999C65.6313 24.7871 81.5943 28.8723 81.9428 42.1151C98.932 43.1315 106.483 50.5371 110.839 62.0084C121.1 62.9764 137.847 76.0934 153.53 98.31" stroke="#240046" stroke-width="1.06485" stroke-linecap="round" stroke-linejoin="round"/>
<path d="M149.424 56.6399C150.995 46.6788 135.415 48.2352 127.429 50.2586C135.284 35.815 114.074 34.1755 102.487 35.1613C114.585 29.5581 100.065 24.0069 91.293 21.9316L142.158 28.4686L159.047 41.2313C155.185 50.518 147.853 66.6011 149.424 56.6399Z" fill="black" fill-opacity="0.3"/>
<path d="M153.094 86.8388C153.907 94.8542 167.276 100.053 173.858 101.65L162.968 106.877C155.998 102.579 150.19 95.1156 146.85 86.8388C143.365 69.1236 153.892 49.8112 157.595 41.6796C145.979 39.9371 122.455 54.2157 112.145 61.5729C120.495 49.4481 140.17 39.6467 153.892 38.122C140.185 32.8946 97.1892 38.8118 85.609 40.6631C103.034 35.0727 120.858 28.611 151.061 33.8384C117.605 21.7573 74.779 22.2219 57.5479 23.9644C66.3764 17.8076 91.3326 17.2365 102.707 17.7205C127.973 19.8502 155.127 23.674 166.308 38.6303C154.11 53.1509 152.077 76.8196 153.094 86.8388Z" fill="#5A189A"/>
<path d="M102.708 17.72C127.974 19.8497 153.894 23.4194 165.074 38.3757C165.074 38.3757 164.911 39.6281 164.276 40.227C159.992 39.864 162.388 36.0887 162.388 36.0887C143.261 22.0924 99.2736 18.3976 78.2769 18.4419C87.3138 17.5016 96.8267 17.4698 102.708 17.72Z" fill="#9D4EDD"/>
<path d="M63.6476 21.3509C115.573 18.7952 144.14 28.1272 151.933 33.1126C152.708 33.5966 151.904 33.8096 142.495 30.7893C133.085 27.769 103.531 24.497 89.9299 23.2385C59.5334 23.6742 61.0338 23.2385 63.6476 21.3509Z" fill="black" fill-opacity="0.3"/>
<path d="M173.858 101.65C167.276 100.053 153.907 94.8542 153.094 86.8388C152.077 76.8196 154.11 53.1509 166.308 38.6303C161.08 38.8844 164.842 36.7973 164.019 35.9443C151.727 23.2008 126.388 19.7166 102.707 17.7205C91.3326 17.2365 66.3764 17.8076 57.5479 23.9644C74.779 22.2219 117.605 21.7573 151.061 33.8384C120.858 28.611 99.5125 36.0891 82.0877 41.6796C93.668 39.8282 140.185 32.8946 153.892 38.122C140.17 39.6467 119.188 50.029 110.839 62.1537C121.148 54.7966 145.979 39.9371 157.595 41.6796C153.892 49.8112 143.365 69.1236 146.85 86.8388C150.19 95.1156 155.998 102.579 162.968 106.877" stroke="#240046" stroke-width="1.06485" stroke-linecap="round" stroke-linejoin="round"/>
<path d="M168.214 37.1377C167.065 38.8757 167.025 39.2219 166.397 39.4356C165.769 39.6493 164.06 39.2447 163.166 38.4463C162.064 37.4607 163.208 35.5914 163.208 35.5914C166.033 33.6062 169.951 27.637 170.255 23.0667C172.637 29.4198 169.515 35.1702 168.214 37.1377Z" fill="#240046"/>
<path d="M167.192 31.0842C168.792 28.599 170.086 25.6155 170.255 23.067C171.592 26.6317 171.196 30.0068 170.36 32.6302C170.711 29.8679 170.677 26.9064 167.192 31.0842Z" fill="#5A189A"/>
</svg>
