<svg width="720" height="416" viewBox="0 0 720 416" fill="none" xmlns="http://www.w3.org/2000/svg">
<rect width="720" height="416" transform="matrix(-1 0 0 1 720 0)" fill="#0C0E19"/>
<rect width="720" height="416" transform="matrix(-1 0 0 1 720 0)" fill="url(#paint0_radial)"/>
<path d="M131.944 358.151L109.479 380.144L109.44 416H187L131.944 358.151Z" fill="#232341"/>
<path d="M187 416L131.944 358.151L132.309 361.293L184.469 416H185.734H187Z" fill="#3E3E70"/>
<path d="M131.944 358.151L109.479 380.144L128.78 388.313L132.893 375.745L131.944 371.975L132.893 366.32L131.944 358.151Z" fill="#17172C"/>
<path d="M0 358.013L66.7728 303.172L124.818 385.137L130.825 393.62L146.674 416H118.38H0V358.013Z" fill="#232341"/>
<path d="M66.7728 303.172V313.735L62.2459 318.006L62.9249 342.055V358.013L43.6853 371.723L0 358.013L66.7728 303.172Z" fill="#17172C"/>
<path d="M26.4741 278L63.8216 339.808V374.196H6.3291L26.4741 278Z" fill="#232341"/>
<path d="M25.8164 281.142L26.4744 278L62.8347 338.174L62.967 341.466L25.8164 281.142Z" fill="#3E3E70"/>
<path d="M66.7734 304.429V306.314L128.085 392.891L128.78 390.478L128.527 390.374L66.7734 303.172V304.429Z" fill="#3E3E70"/>
<g filter="url(#filter0_d)">
<ellipse cx="104.808" cy="96.4984" rx="22.9426" ry="22.9632" fill="white" fill-opacity="0.6"/>
</g>
<g filter="url(#filter1_d)">
<ellipse cx="104.807" cy="96.4986" rx="19.4577" ry="19.4751" fill="white" fill-opacity="0.6"/>
</g>
<ellipse cx="104.808" cy="96.4983" rx="15.9727" ry="15.9871" fill="white"/>
<path d="M444.444 97.4429C445.14 97.4435 445.836 97.4856 446.527 97.5687C448.404 91.4518 454.042 87.2715 460.434 87.2584C462.026 87.2567 463.606 87.5213 465.11 88.0397C468.833 79.9824 477.655 75.6035 486.316 77.5144C494.978 79.4258 501.143 87.111 501.137 95.9878C501.136 97.522 500.945 99.05 500.57 100.536C508.822 101.797 514.718 109.2 514.105 117.533C513.492 125.866 506.577 132.325 498.23 132.362H444.444C434.81 132.362 427 124.545 427 114.902C427 105.26 434.81 97.4429 444.444 97.4429Z" fill="#232341"/>
<path d="M444.444 97.4429C445.14 97.4435 445.836 97.4856 446.527 97.5687C448.404 91.4518 454.042 87.2715 460.434 87.2584C462.026 87.2567 463.606 87.5213 465.11 88.0397C468.833 79.9824 477.655 75.6035 486.316 77.5144C494.978 79.4258 501.143 87.111 501.137 95.9878C501.136 97.522 500.945 99.05 500.57 100.536C508.822 101.797 514.718 109.2 514.105 117.533C513.492 125.866 506.577 132.325 498.23 132.362H444.444C434.81 132.362 427 124.545 427 114.902C427 105.26 434.81 97.4429 444.444 97.4429Z" fill="#3E3E70"/>
<path d="M444.178 99.1006C444.864 99.1012 445.548 99.1425 446.229 99.224C448.077 93.2225 453.629 89.1211 459.924 89.1082C461.491 89.1065 463.047 89.3662 464.528 89.8748C468.194 81.9694 476.882 77.6731 485.411 79.548C493.941 81.4234 500.012 88.9636 500.005 97.673C500.005 99.1782 499.817 100.677 499.448 102.136C507.574 103.373 513.38 110.636 512.776 118.811C512.173 126.987 505.363 133.325 497.143 133.361H444.178C434.691 133.361 427 125.692 427 116.231C427 106.77 434.691 99.1006 444.178 99.1006Z" fill="#141426"/>
<path d="M444.411 98.7245C445.107 98.725 445.801 98.7656 446.491 98.8455C448.364 92.957 453.991 88.9327 460.372 88.9201C461.96 88.9185 463.537 89.1732 465.038 89.6723C468.754 81.9157 477.56 77.7002 486.205 79.5397C494.85 81.3799 501.004 88.7782 500.997 97.3237C500.997 98.8006 500.806 100.272 500.432 101.702C508.669 102.916 514.553 110.042 513.941 118.064C513.33 126.087 506.428 132.305 498.096 132.34H444.411C434.795 132.34 427.001 124.815 427.001 115.532C427.001 106.249 434.795 98.7245 444.411 98.7245Z" fill="#2B2B4E"/>
<path d="M292.002 70.356C291.413 70.3565 290.824 70.389 290.239 70.4531C288.651 65.7304 283.879 62.5029 278.468 62.4928C277.121 62.4914 275.783 62.6958 274.51 63.096C271.359 56.8751 263.891 53.4942 256.561 54.9696C249.229 56.4454 244.011 62.379 244.016 69.2326C244.017 70.4171 244.178 71.5968 244.495 72.7444C237.511 73.718 232.52 79.4332 233.04 85.8668C233.558 92.3008 239.411 97.288 246.477 97.3166H292.002C300.157 97.3166 306.767 91.2811 306.767 83.8361C306.767 76.3911 300.157 70.356 292.002 70.356Z" fill="#232341"/>
<path d="M292.002 70.356C291.413 70.3565 290.824 70.389 290.239 70.4531C288.651 65.7304 283.879 62.5029 278.468 62.4928C277.121 62.4914 275.783 62.6958 274.51 63.096C271.359 56.8751 263.891 53.4942 256.561 54.9696C249.229 56.4454 244.011 62.379 244.016 69.2326C244.017 70.4171 244.178 71.5968 244.495 72.7444C237.511 73.718 232.52 79.4332 233.04 85.8668C233.558 92.3008 239.411 97.288 246.477 97.3166H292.002C300.157 97.3166 306.767 91.2811 306.767 83.8361C306.767 76.3911 300.157 70.356 292.002 70.356Z" fill="#3E3E70"/>
<path d="M292.228 71.6355C291.648 71.6359 291.068 71.6678 290.492 71.7307C288.928 67.0971 284.228 63.9305 278.9 63.9205C277.573 63.9193 276.257 64.1197 275.003 64.5124C271.9 58.4088 264.546 55.0917 257.327 56.5393C250.107 57.9872 244.969 63.8089 244.974 70.5332C244.975 71.6954 245.134 72.8528 245.446 73.9788C238.568 74.9341 233.654 80.5415 234.165 86.8537C234.675 93.1663 240.439 98.0595 247.397 98.0875H292.228C300.259 98.0875 306.768 92.1658 306.768 84.8613C306.768 77.5567 300.259 71.6355 292.228 71.6355Z" fill="#141426"/>
<path d="M292.032 71.3451C291.443 71.3455 290.856 71.3768 290.272 71.4385C288.686 66.8921 283.923 63.785 278.522 63.7753C277.178 63.774 275.843 63.9707 274.572 64.356C271.427 58.3673 263.973 55.1126 256.656 56.5329C249.339 57.9537 244.13 63.6658 244.136 70.2636C244.136 71.4039 244.297 72.5395 244.614 73.6443C237.642 74.5816 232.661 80.0835 233.18 86.2769C233.697 92.4708 239.539 97.2718 246.591 97.2993H292.032C300.171 97.2993 306.769 91.4891 306.769 84.322C306.769 77.1549 300.171 71.3451 292.032 71.3451Z" fill="#2B2B4E"/>
<path fill-rule="evenodd" clip-rule="evenodd" d="M124.463 27.7697L124.476 27.7697C125.535 27.7697 126.393 26.9108 126.393 25.8513V25.8507H126.393C126.394 25.498 126.68 25.2122 127.032 25.2122C127.379 25.2122 127.662 25.489 127.671 25.8341L127.671 25.8513C127.671 26.9108 128.529 27.7697 129.588 27.7697L129.601 27.7697C129.948 27.7772 130.226 28.0606 130.226 28.409C130.226 28.762 129.94 29.0482 129.588 29.0485V29.0488C129.588 29.0488 129.588 29.0488 129.588 29.0488C128.529 29.0488 127.671 29.9077 127.671 30.9672C127.671 30.9742 127.671 30.9811 127.671 30.9881C127.66 31.3316 127.378 31.6067 127.032 31.6067C126.68 31.6067 126.394 31.3204 126.394 30.9672L126.394 30.9666H126.393C126.393 29.9074 125.535 29.0488 124.476 29.0488V29.0485C124.124 29.0483 123.838 28.7621 123.838 28.409C123.838 28.0606 124.116 27.7772 124.463 27.7697Z" fill="#E1B554"/>
<path fill-rule="evenodd" clip-rule="evenodd" d="M188.006 29.5718L188.03 29.572C188.8 29.572 189.424 28.9474 189.424 28.1768L189.424 28.1533C189.436 27.9069 189.639 27.7107 189.888 27.7107C190.145 27.7107 190.353 27.9187 190.353 28.1754V28.1755H190.354L190.354 28.1768C190.354 28.9474 190.978 29.572 191.748 29.572L191.772 29.5718C192.017 29.5845 192.212 29.7874 192.212 30.0359C192.212 30.2924 192.004 30.5004 191.748 30.5005V30.501C190.978 30.501 190.354 31.1256 190.354 31.8961H190.353V31.8962C190.353 32.1528 190.145 32.3608 189.888 32.3608C189.639 32.3608 189.435 32.164 189.424 31.917L189.424 31.8962C189.424 31.1257 188.8 30.501 188.03 30.501H188.03V30.5005L188.03 30.5005C187.773 30.5005 187.565 30.2925 187.565 30.0359C187.565 29.7873 187.76 29.5843 188.006 29.5718Z" fill="#E1B554"/>
<path fill-rule="evenodd" clip-rule="evenodd" d="M151.6 49.5703C151.6 50.6298 152.458 51.4887 153.517 51.4887C154.575 51.4887 155.434 50.6298 155.434 49.5703C155.434 48.5108 154.575 47.6519 153.517 47.6519C152.458 47.6519 151.6 48.5108 151.6 49.5703Z" fill="#E1B554"/>
<path fill-rule="evenodd" clip-rule="evenodd" d="M38.8061 75.44H38.8063C40.346 75.44 41.5942 74.1907 41.5942 72.6495V72.6489H41.5947C41.5952 72.1356 42.0111 71.7197 42.524 71.7197C43.025 71.7197 43.4334 72.1165 43.4526 72.6132L43.4524 72.6495C43.4524 74.1907 44.7006 75.44 46.2404 75.44H46.2407V75.4403H46.2408C46.7541 75.4403 47.1702 75.8567 47.1702 76.3705C47.1702 76.8771 46.7654 77.2892 46.2619 77.3004C46.2547 77.3003 46.2476 77.3003 46.2404 77.3003C44.7006 77.3003 43.4524 78.5496 43.4524 80.0908C43.4524 80.1016 43.4525 80.1125 43.4526 80.1233C43.4356 80.6221 43.0263 81.0212 42.5238 81.0212C42.0106 81.0212 41.5945 80.6048 41.5945 80.0911L41.5945 80.0901H41.5933C41.5929 78.5493 40.3448 77.3003 38.8053 77.3003L38.7845 77.3004C38.2811 77.289 37.8765 76.877 37.8765 76.3705C37.8765 75.8567 38.2925 75.4403 38.8058 75.4403H38.8061V75.44Z" fill="#E1B554"/>
<path fill-rule="evenodd" clip-rule="evenodd" d="M84.8057 42.885C84.8057 44.4261 86.0539 45.6754 87.5936 45.6754C89.1334 45.6754 90.3816 44.4261 90.3816 42.885C90.3816 41.3438 89.1334 40.0945 87.5936 40.0945C86.0539 40.0945 84.8057 41.3438 84.8057 42.885Z" fill="#E1B554"/>
<path fill-rule="evenodd" clip-rule="evenodd" d="M109.666 52.1862H109.666C111.206 52.1862 112.454 50.9369 112.454 49.3958V49.3949H112.455C112.455 48.8817 112.871 48.4658 113.384 48.4658C113.882 48.4658 114.289 48.8584 114.312 49.3514C114.312 49.3661 114.312 49.3809 114.312 49.3958C114.312 50.9369 115.56 52.1862 117.1 52.1862H117.101V52.187C117.613 52.1874 118.029 52.6037 118.029 53.1171C118.029 53.6245 117.623 54.0369 117.119 54.0471C117.112 54.047 117.106 54.047 117.1 54.047C115.56 54.047 114.312 55.2964 114.312 56.8375C114.312 56.8514 114.312 56.8652 114.312 56.879C114.29 57.3733 113.883 57.7674 113.384 57.7674C112.87 57.7674 112.454 57.351 112.454 56.8373L112.454 56.8362H112.454C112.453 55.2957 111.205 54.047 109.666 54.047L109.647 54.0471C109.142 54.037 108.736 53.6245 108.736 53.1171C108.736 52.6034 109.152 52.187 109.666 52.187H109.666V52.1862Z" fill="#E1B554"/>
<path fill-rule="evenodd" clip-rule="evenodd" d="M401.497 70.0595V70.0594C401.849 70.0592 402.135 69.773 402.135 69.4199C402.135 69.0669 401.849 68.7807 401.497 68.7805V68.78C400.438 68.7799 399.58 67.9214 399.58 66.8623H399.58V66.862C399.58 66.5088 399.294 66.2225 398.941 66.2225C398.595 66.2225 398.313 66.4976 398.302 66.841C398.302 66.8478 398.302 66.8547 398.302 66.8615C398.302 67.921 397.444 68.78 396.385 68.78C396.385 68.78 396.385 68.78 396.385 68.78V68.7805C396.033 68.7808 395.747 69.067 395.747 69.4199C395.747 69.7729 396.033 70.0591 396.385 70.0594V70.0595H396.385C397.444 70.0595 398.302 70.9184 398.302 71.9779L398.302 71.9949C398.311 72.3399 398.594 72.6167 398.941 72.6167C399.293 72.6167 399.579 72.3309 399.58 71.9781H399.58V71.9779C399.58 70.9184 400.438 70.0595 401.497 70.0595Z" fill="#E1B554"/>
<path fill-rule="evenodd" clip-rule="evenodd" d="M669.073 60.5641V60.5641C669.426 60.5639 669.712 60.2777 669.712 59.9246C669.712 59.5716 669.426 59.2853 669.073 59.2851V59.2846C668.015 59.2846 667.157 58.4262 667.157 57.3672H667.156L667.156 57.3667C667.156 57.0135 666.87 56.7272 666.517 56.7272C666.171 56.7272 665.89 57.0022 665.879 57.3457C665.879 57.3525 665.879 57.3593 665.879 57.3662C665.879 58.4257 665.021 59.2846 663.962 59.2846C663.962 59.2846 663.962 59.2846 663.962 59.2846V59.2851C663.609 59.2854 663.324 59.5716 663.324 59.9246C663.324 60.2776 663.609 60.5638 663.962 60.5641V60.5641H663.962C665.021 60.5641 665.879 61.4231 665.879 62.4826L665.879 62.4997C665.888 62.8447 666.17 63.1216 666.517 63.1216C666.87 63.1216 667.156 62.8358 667.156 62.483H667.157V62.4826C667.157 61.4231 668.015 60.5642 669.073 60.5641Z" fill="#E1B554"/>
<path fill-rule="evenodd" clip-rule="evenodd" d="M305.925 108.888V108.888C306.278 108.888 306.563 108.601 306.563 108.248C306.563 107.895 306.278 107.609 305.925 107.609V107.608C304.867 107.608 304.009 106.75 304.008 105.691H304.008L304.008 105.69C304.008 105.337 303.722 105.05 303.369 105.05C303.023 105.05 302.741 105.325 302.73 105.669C302.73 105.676 302.73 105.683 302.73 105.69C302.73 106.749 301.872 107.608 300.814 107.608C300.814 107.608 300.814 107.608 300.814 107.608V107.609C300.461 107.609 300.175 107.895 300.175 108.248C300.175 108.601 300.461 108.887 300.814 108.888V108.888H300.814C301.872 108.888 302.73 109.747 302.73 110.806L302.73 110.823C302.74 111.168 303.022 111.445 303.369 111.445C303.722 111.445 304.007 111.16 304.008 110.807H304.008V110.806C304.008 109.747 304.866 108.888 305.925 108.888Z" fill="#E1B554"/>
<path fill-rule="evenodd" clip-rule="evenodd" d="M337.965 68.257L337.943 68.2568C337.173 68.2568 336.549 68.8815 336.549 69.6521L336.549 69.6741C336.538 69.9212 336.335 70.1182 336.085 70.1182C335.828 70.1182 335.62 69.9101 335.62 69.6535V69.6533H335.619L335.619 69.6521C335.619 68.8816 334.995 68.2569 334.225 68.2569L334.205 68.257C333.958 68.2464 333.761 68.0426 333.761 67.7928C333.761 67.5363 333.969 67.3283 334.225 67.3281V67.3275C334.995 67.3272 335.619 66.7029 335.619 65.9327H335.62C335.62 65.6761 335.828 65.4681 336.085 65.4681C336.335 65.4681 336.539 65.6657 336.549 65.9133L336.549 65.9322C336.549 66.7027 337.173 67.3274 337.943 67.3274V67.3281L337.944 67.3281C338.2 67.3281 338.408 67.5362 338.408 67.7928C338.408 68.0424 338.211 68.246 337.965 68.257Z" fill="#E1B554"/>
<path fill-rule="evenodd" clip-rule="evenodd" d="M220.392 49.0123H220.392C219.622 49.0123 218.998 49.637 218.998 50.4076L218.998 50.4316C218.986 50.6772 218.783 50.8726 218.534 50.8726C218.278 50.8726 218.07 50.6645 218.07 50.4079V50.4077H218.069V50.4076C218.069 49.637 217.445 49.0124 216.675 49.0123V49.0122C216.418 49.0121 216.21 48.8041 216.21 48.5476C216.21 48.291 216.418 48.083 216.675 48.0829V48.0822C217.445 48.0822 218.069 47.4576 218.069 46.6871H218.069V46.687C218.069 46.4304 218.277 46.2224 218.534 46.2224C218.784 46.2224 218.987 46.4192 218.998 46.6662L218.998 46.687C218.998 47.4575 219.622 48.0822 220.392 48.0822H220.392V48.0829L220.393 48.0829C220.649 48.0829 220.857 48.2909 220.857 48.5476C220.857 48.8042 220.649 49.0122 220.393 49.0122L220.392 49.0122V49.0123Z" fill="#E1B554"/>
<path fill-rule="evenodd" clip-rule="evenodd" d="M372.456 51.4559V51.4558L372.456 51.4558C372.809 51.4558 373.095 51.1695 373.095 50.8163C373.095 50.4632 372.809 50.1769 372.456 50.1769L372.456 50.1769V50.1768C371.398 50.1762 370.54 49.3177 370.54 48.2587H370.539V48.2584C370.539 47.9052 370.253 47.6189 369.9 47.6189C369.547 47.6189 369.261 47.9052 369.261 48.2584V48.2587H369.261C369.261 49.318 368.403 50.1766 367.344 50.1768V50.1769C366.992 50.1772 366.706 50.4634 366.706 50.8163C366.706 51.1693 366.992 51.4555 367.344 51.4558V51.4559C368.403 51.4561 369.261 52.3149 369.261 53.3743V53.3746H369.261C369.261 53.7276 369.547 54.0137 369.9 54.0137C370.252 54.0137 370.538 53.7276 370.539 53.3746H370.54V53.3743C370.54 52.3152 371.398 51.4565 372.456 51.4559Z" fill="#E1B554"/>
<path fill-rule="evenodd" clip-rule="evenodd" d="M519.394 40.9508V40.9508L519.395 40.9508C519.748 40.9508 520.034 40.6645 520.034 40.3113C520.034 39.9632 519.756 39.6801 519.41 39.672L519.395 39.6721C518.337 39.6721 517.479 38.8133 517.479 37.7539H517.477L517.477 37.7531C517.477 37.3999 517.191 37.1136 516.838 37.1136C516.485 37.1136 516.199 37.3999 516.199 37.7531L516.199 37.7539H516.199C516.199 38.8133 515.341 39.6721 514.282 39.6721C514.278 39.6721 514.273 39.672 514.268 39.672C513.922 39.6802 513.645 39.9633 513.645 40.3113C513.645 40.6643 513.93 40.9505 514.283 40.9508V40.9508C515.341 40.9511 516.199 41.8099 516.199 42.8693V42.8697H516.199C516.2 43.2227 516.486 43.5088 516.838 43.5088C517.191 43.5088 517.477 43.2227 517.477 42.8697H517.479V42.8693C517.479 41.8101 518.336 40.9514 519.394 40.9508Z" fill="#E1B554"/>
<path fill-rule="evenodd" clip-rule="evenodd" d="M629.745 49.3479L629.721 49.3477C628.951 49.3477 628.327 49.9723 628.327 50.7429L628.327 50.7663C628.316 51.0127 628.113 51.209 627.863 51.209C627.607 51.209 627.399 51.0009 627.399 50.7443V50.7442H627.398L627.398 50.7429C627.398 49.9723 626.774 49.3477 626.004 49.3477L625.981 49.3478C625.735 49.3355 625.54 49.1324 625.54 48.8838C625.54 48.6274 625.748 48.4195 626.004 48.4191V48.4184C626.774 48.4184 627.398 47.7939 627.398 47.0235H627.398C627.399 46.767 627.607 46.5591 627.863 46.5591C628.113 46.5591 628.316 46.7559 628.327 47.0028L628.327 47.0232C628.327 47.7938 628.951 48.4184 629.721 48.4184H629.721V48.4191L629.722 48.4191C629.978 48.4191 630.187 48.6272 630.187 48.8838C630.187 49.1326 629.991 49.3357 629.745 49.3479Z" fill="#E1B554"/>
<path fill-rule="evenodd" clip-rule="evenodd" d="M664.205 111.888L664.182 111.888C663.412 111.888 662.788 112.512 662.788 113.283L662.788 113.306C662.776 113.553 662.573 113.749 662.324 113.749C662.067 113.749 661.859 113.541 661.859 113.284V113.284H661.858L661.858 113.283C661.858 112.512 661.234 111.888 660.464 111.888L660.442 111.888C660.196 111.876 660 111.673 660 111.424C660 111.167 660.208 110.959 660.464 110.959V110.958C661.234 110.958 661.858 110.334 661.858 109.564H661.859C661.859 109.307 662.067 109.099 662.324 109.099C662.573 109.099 662.777 109.296 662.788 109.543L662.788 109.563C662.788 110.334 663.412 110.958 664.182 110.958H664.182V110.959L664.182 110.959C664.439 110.959 664.647 111.167 664.647 111.424C664.647 111.673 664.451 111.876 664.205 111.888Z" fill="#E1B554"/>
<path fill-rule="evenodd" clip-rule="evenodd" d="M704.207 128.903L704.182 128.903C703.412 128.903 702.788 129.528 702.788 130.298L702.788 130.322C702.776 130.568 702.573 130.764 702.324 130.764C702.067 130.764 701.859 130.556 701.859 130.299V130.299H701.858L701.858 130.298C701.858 129.528 701.234 128.903 700.464 128.903L700.44 128.903C700.195 128.89 700 128.687 700 128.439C700 128.183 700.208 127.975 700.464 127.974V127.974C701.234 127.974 701.858 127.349 701.858 126.579H701.859C701.859 126.322 702.067 126.114 702.324 126.114C702.573 126.114 702.777 126.311 702.788 126.558L702.788 126.578C702.788 127.349 703.412 127.974 704.182 127.974H704.182V127.974L704.182 127.974C704.439 127.974 704.647 128.182 704.647 128.439C704.647 128.687 704.452 128.89 704.207 128.903Z" fill="#E1B554"/>
<path fill-rule="evenodd" clip-rule="evenodd" d="M664.248 32.5466L664.235 32.5466C663.176 32.5466 662.318 33.4055 662.318 34.465V34.4657H662.316C662.316 34.8187 662.03 35.1047 661.678 35.1047C661.325 35.1047 661.039 34.8187 661.039 34.4657H661.039V34.465C661.039 33.4055 660.18 32.5466 659.122 32.5466L659.109 32.5466C658.762 32.539 658.484 32.2557 658.484 31.9073C658.484 31.5592 658.762 31.2761 659.108 31.268C659.112 31.268 659.117 31.268 659.122 31.268C660.18 31.268 661.038 30.4092 661.039 29.3498H661.039L661.039 29.3491C661.039 28.9959 661.325 28.7096 661.677 28.7096C662.03 28.7096 662.316 28.9959 662.316 29.3491L662.316 29.3498H662.318C662.318 30.4092 663.176 31.268 664.235 31.268L664.249 31.268C664.595 31.276 664.873 31.5592 664.873 31.9073C664.873 32.2558 664.595 32.5391 664.248 32.5466Z" fill="#E1B554"/>
<path fill-rule="evenodd" clip-rule="evenodd" d="M211.486 87.8773L211.465 87.8772C210.406 87.8772 209.548 88.7361 209.548 89.7957L209.548 89.7965H209.547C209.547 90.1495 209.261 90.4355 208.908 90.4355C208.555 90.4355 208.269 90.1495 208.269 89.7965H208.269V89.7961C208.269 88.7368 207.411 87.8779 206.353 87.8777V87.8777C206 87.8773 205.714 87.5911 205.714 87.2382C205.714 86.8852 206 86.599 206.353 86.5987V86.5987C206.353 86.5987 206.353 86.5987 206.353 86.5987C207.411 86.5987 208.269 85.7398 208.269 84.6802C208.269 84.6733 208.269 84.6663 208.269 84.6594C208.28 84.3158 208.562 84.0407 208.908 84.0407C209.261 84.0407 209.547 84.327 209.547 84.6802L209.547 84.6806H209.548C209.549 85.7396 210.406 86.5981 211.464 86.5987V86.5987L211.465 86.5987C211.817 86.5987 212.104 86.885 212.104 87.2382C212.104 87.5843 211.829 87.8663 211.486 87.8773Z" fill="#E1B554"/>
<path fill-rule="evenodd" clip-rule="evenodd" d="M487.168 22.3892H487.167C485.628 22.3892 484.379 23.6386 484.379 25.1797V25.1805H484.379C484.378 25.6937 483.963 26.1096 483.45 26.1096C482.951 26.1096 482.545 25.717 482.521 25.224C482.522 25.2092 482.522 25.1945 482.522 25.1797C482.522 23.6386 481.274 22.3892 479.734 22.3892H479.733V22.3887H479.733C479.22 22.3887 478.803 21.9723 478.803 21.4586C478.803 20.9536 479.205 20.5426 479.707 20.5288C479.716 20.5289 479.725 20.5289 479.734 20.5289C481.274 20.5289 482.522 19.2796 482.522 17.7384C482.522 17.7245 482.522 17.7105 482.521 17.6966C482.543 17.2022 482.951 16.808 483.45 16.808C483.963 16.808 484.379 17.2245 484.379 17.7382L484.379 17.7392H484.381C484.381 19.28 485.629 20.5289 487.169 20.5289L487.194 20.5288C487.695 20.5429 488.097 20.9538 488.097 21.4586C488.097 21.9723 487.681 22.3887 487.168 22.3887H487.168V22.3892Z" fill="#E1B554"/>
<path fill-rule="evenodd" clip-rule="evenodd" d="M694.777 93.8232H694.777C693.237 93.8232 691.989 95.0725 691.989 96.6136V96.6143H691.989C691.989 97.1278 691.573 97.5439 691.06 97.5439C690.561 97.5439 690.154 97.1513 690.131 96.6582C690.131 96.6434 690.132 96.6285 690.132 96.6136C690.132 95.0725 688.883 93.8232 687.344 93.8232H687.343V93.8229H687.343C686.829 93.8229 686.413 93.4065 686.413 92.8928C686.413 92.3851 686.82 91.9725 687.324 91.9628C687.331 91.9628 687.338 91.9629 687.345 91.9629C688.884 91.9629 690.133 90.7135 690.133 89.1724C690.133 89.1538 690.132 89.1352 690.132 89.1167C690.161 88.629 690.565 88.2425 691.06 88.2425C691.573 88.2425 691.989 88.6589 691.989 89.1726V89.1731H691.991C691.991 90.7139 693.239 91.9629 694.779 91.9629L694.797 91.9628C695.301 91.9729 695.707 92.3854 695.707 92.8928C695.707 93.4065 695.291 93.8229 694.778 93.8229H694.777V93.8232Z" fill="#E1B554"/>
<path fill-rule="evenodd" clip-rule="evenodd" d="M438.378 59.5952V59.5951H438.378C438.892 59.5951 439.308 59.1786 439.308 58.6649C439.308 58.1562 438.9 57.7429 438.393 57.7349L438.379 57.7349C436.839 57.7349 435.591 56.4859 435.591 54.9451H435.591L435.591 54.9443C435.591 54.4306 435.175 54.0141 434.661 54.0141C434.148 54.0141 433.732 54.4306 433.732 54.9443L433.732 54.9451H433.732C433.731 56.4859 432.483 57.7349 430.944 57.7349C430.939 57.7349 430.934 57.7349 430.929 57.7349C430.423 57.7429 430.015 58.1562 430.015 58.6649C430.015 59.1783 430.431 59.5946 430.943 59.5951V59.5952H430.944C432.483 59.5952 433.732 60.8445 433.732 62.3857V62.3863H433.732C433.732 62.8995 434.148 63.3154 434.661 63.3154C435.174 63.3154 435.59 62.8995 435.59 62.3863H435.591V62.3857C435.591 60.8448 436.839 59.5957 438.378 59.5952Z" fill="#E1B554"/>
<path fill-rule="evenodd" clip-rule="evenodd" d="M258.158 108.531V108.53H258.159C258.672 108.53 259.088 108.114 259.088 107.6C259.088 107.097 258.689 106.687 258.191 106.67L258.16 106.67C256.62 106.67 255.372 105.421 255.372 103.88H255.371C255.371 103.366 254.955 102.95 254.442 102.95C253.935 102.95 253.522 103.356 253.512 103.861C253.512 103.868 253.512 103.874 253.512 103.88C253.512 105.421 252.264 106.67 250.724 106.67C250.714 106.67 250.703 106.67 250.692 106.67C250.194 106.687 249.795 107.097 249.795 107.6C249.795 108.113 250.211 108.53 250.724 108.53V108.531H250.724C252.264 108.531 253.512 109.781 253.512 111.322L253.512 111.344C253.525 111.847 253.936 112.251 254.441 112.251C254.954 112.251 255.37 111.835 255.371 111.321H255.372C255.372 109.781 256.619 108.532 258.158 108.531Z" fill="#E1B554"/>
<path fill-rule="evenodd" clip-rule="evenodd" d="M287.546 51.8035V51.8033H287.547C288.06 51.8033 288.476 51.3869 288.476 50.8732C288.476 50.3655 288.07 49.9528 287.565 49.9432L287.547 49.9432C286.008 49.9432 284.76 48.6943 284.759 47.1535H284.759L284.759 47.1525C284.759 46.6388 284.343 46.2224 283.83 46.2224C283.316 46.2224 282.9 46.6388 282.9 47.1525L282.9 47.1535H282.9C282.9 48.6943 281.652 49.9432 280.112 49.9432C280.106 49.9432 280.1 49.9432 280.095 49.9432C279.59 49.9528 279.183 50.3655 279.183 50.8732C279.183 51.3866 279.599 51.8028 280.112 51.8033V51.8035H280.112C281.652 51.8035 282.9 53.0529 282.9 54.594V54.5948H282.9C282.901 55.108 283.317 55.5239 283.83 55.5239C284.342 55.5239 284.758 55.108 284.759 54.5948H284.759V54.594C284.759 53.0532 286.007 51.804 287.546 51.8035Z" fill="#E1B554"/>
<path fill-rule="evenodd" clip-rule="evenodd" d="M606.635 28.6923L606.615 28.6922C605.075 28.6922 603.827 29.9416 603.827 31.4827L603.827 31.4837H603.826C603.825 31.997 603.409 32.4128 602.897 32.4128C602.39 32.4128 601.978 32.0072 601.967 31.5028L601.968 31.4827C601.968 29.9416 600.719 28.6922 599.18 28.6922L599.158 28.6923C598.655 28.6811 598.25 28.2691 598.25 27.7624C598.25 27.2489 598.666 26.8326 599.179 26.8322V26.8319C599.179 26.8319 599.179 26.8319 599.18 26.8319C600.719 26.8319 601.968 25.5826 601.968 24.0415C601.968 24.0352 601.968 24.029 601.967 24.0228C601.977 23.5177 602.39 23.1114 602.897 23.1114C603.41 23.1114 603.826 23.5278 603.826 24.0415L603.826 24.0425H603.827C603.827 25.5827 605.075 26.8313 606.613 26.8319V26.8322H606.614C607.127 26.8322 607.543 27.2487 607.543 27.7624C607.543 28.269 607.138 28.681 606.635 28.6923Z" fill="#E1B554"/>
<path fill-rule="evenodd" clip-rule="evenodd" d="M639.363 82.6501V82.6499H639.363C639.876 82.6499 640.292 82.2334 640.292 81.7197C640.292 81.2115 639.885 80.7984 639.379 80.7897L639.364 80.7898C637.825 80.7898 636.577 79.5409 636.576 78.0002H636.575L636.575 77.9991C636.575 77.4854 636.159 77.069 635.646 77.069C635.139 77.069 634.727 77.4753 634.717 77.9804C634.717 77.9867 634.717 77.993 634.717 77.9993C634.717 79.5404 633.469 80.7898 631.929 80.7898C631.924 80.7898 631.918 80.7897 631.913 80.7897C631.407 80.7983 631 81.2114 631 81.7197C631 82.2332 631.415 82.6495 631.928 82.6499V82.6501H631.929C633.469 82.6501 634.717 83.8994 634.717 85.4405L634.717 85.4606C634.728 85.965 635.14 86.3706 635.646 86.3706C636.159 86.3706 636.575 85.9547 636.575 85.4415H636.576L636.576 85.4405C636.576 83.8998 637.824 82.6507 639.363 82.6501Z" fill="#E1B554"/>
<path fill-rule="evenodd" clip-rule="evenodd" d="M707.363 163.723V163.723H707.363C707.876 163.723 708.292 163.307 708.292 162.793C708.292 162.285 707.885 161.872 707.379 161.863L707.364 161.863C705.824 161.863 704.576 160.614 704.576 159.073V159.072H704.575V159.072C704.575 158.559 704.159 158.142 703.646 158.142C703.139 158.142 702.727 158.549 702.717 159.054C702.717 159.06 702.717 159.066 702.717 159.073C702.717 160.614 701.469 161.863 699.929 161.863C699.924 161.863 699.918 161.863 699.913 161.863C699.407 161.871 699 162.285 699 162.793C699 163.306 699.415 163.723 699.928 163.723V163.723L699.929 163.723C701.469 163.723 702.717 164.973 702.717 166.514L702.717 166.534C702.728 167.038 703.14 167.444 703.646 167.444C704.159 167.444 704.575 167.027 704.575 166.514H704.576C704.576 164.973 705.824 163.724 707.363 163.723Z" fill="#E1B554"/>
<path fill-rule="evenodd" clip-rule="evenodd" d="M416.307 45.6427H416.307C414.767 45.6427 413.519 46.892 413.519 48.4331H413.518V48.4331C413.518 48.9468 413.102 49.3633 412.589 49.3633C412.09 49.3633 411.684 48.9707 411.661 48.4776C411.661 48.4628 411.661 48.448 411.661 48.4332C411.661 46.8921 410.413 45.6427 408.873 45.6427L408.872 45.6427V45.642C408.359 45.6416 407.944 45.2253 407.944 44.7119C407.944 44.1984 408.359 43.7822 408.872 43.7817V40.9918H411.66V40.9917C411.66 40.9777 411.66 40.9638 411.661 40.9499" fill="#E1B554"/>
<path fill-rule="evenodd" clip-rule="evenodd" d="M698.976 70.7126H698.975C697.436 70.7126 696.188 71.9618 696.188 73.5029H696.187L694.33 73.5029C694.33 71.9619 693.082 70.7126 691.542 70.7126L691.541 70.7126V70.7118C691.028 70.7114 690.613 70.2951 690.613 69.7817C690.613 69.2742 691.019 68.8617 691.523 68.8517C691.529 68.8518 691.536 68.8518 691.542 68.8518C693.082 68.8518 694.33 67.6024 694.33 66.0613C694.33 66.0474 694.33 66.0336 694.33 66.0198C694.351 65.5255 694.759 65.1314 695.258 65.1314C695.771 65.1314 696.187 65.5478 696.187 66.0616V66.0617H696.188C696.188 67.6026 697.436 68.8518 698.975 68.8518L698.995 68.8517C699.499 68.8616 699.905 69.2742 699.905 69.7817C699.905 70.2954 699.489 70.7118 698.976 70.7118H698.976V70.7126Z" fill="#E1B554"/>
<path d="M259.047 334C257.266 334 256.375 333.414 256.375 332.242C256.375 331.711 256.492 331.297 256.727 331C257.32 331.156 257.906 331.234 258.484 331.234C259.078 331.234 259.562 331.195 259.938 331.117C260.328 331.039 260.672 330.875 260.969 330.625C261.578 330.062 261.898 329.047 261.93 327.578V321.672L250.633 302.922C250.008 301.906 249.484 301.297 249.062 301.094C248.641 300.875 248.305 300.727 248.055 300.648C247.82 300.57 247.609 300.469 247.422 300.344C246.984 300.094 246.766 299.75 246.766 299.312C246.766 298.672 246.891 298.195 247.141 297.883C247.5 298.008 248.273 298.07 249.461 298.07H257.922C259.453 298.07 260.422 298.32 260.828 298.82C261.031 299.055 261.133 299.414 261.133 299.898C261.133 300.367 260.984 300.766 260.688 301.094C260.156 300.938 259.562 300.859 258.906 300.859C257.609 300.859 256.961 301.359 256.961 302.359C256.961 303.078 257.281 303.953 257.922 304.984L265.445 317.969C267.367 314.766 268.766 312.367 269.641 310.773L271.844 306.648C272.859 304.68 273.406 303.531 273.484 303.203C273.562 302.859 273.602 302.586 273.602 302.383C273.602 302.18 273.539 302 273.414 301.844C273.305 301.688 273.156 301.562 272.969 301.469C272.781 301.359 272.57 301.281 272.336 301.234C272.102 301.172 271.82 301.102 271.492 301.023C271.164 300.945 270.812 300.867 270.438 300.789C270.062 300.711 269.734 300.609 269.453 300.484C268.828 300.219 268.516 299.781 268.516 299.172C268.516 298.547 268.633 298.117 268.867 297.883C269.227 298.008 270 298.07 271.188 298.07H279.297C280.719 298.07 281.625 298.328 282.016 298.844C282.188 299.078 282.273 299.359 282.273 299.688C282.273 300.312 282.133 300.781 281.852 301.094C281.32 300.938 280.867 300.859 280.492 300.859C280.117 300.859 279.781 300.977 279.484 301.211C279.188 301.445 278.898 301.766 278.617 302.172C278.352 302.578 278.078 303.047 277.797 303.578C276.922 305.297 276.234 306.602 275.734 307.492C270.766 315.93 268.203 320.297 268.047 320.594L267.461 321.578V328.469C267.461 329.812 268.203 330.609 269.688 330.859C271.469 331.141 272.523 331.383 272.852 331.586C273.414 331.898 273.695 332.344 273.695 332.922C273.695 333.453 273.57 333.875 273.32 334.188C272.961 334.062 272.188 334 271 334H259.047ZM284.195 321.062C284.195 319.156 284.383 317.445 284.758 315.93C285.133 314.414 285.648 313.078 286.305 311.922C286.961 310.766 287.734 309.781 288.625 308.969C289.516 308.141 290.469 307.469 291.484 306.953C293.469 305.938 295.648 305.43 298.023 305.43C301.07 305.43 303.656 306.539 305.781 308.758C308.141 311.195 309.32 314.414 309.32 318.414C309.32 323.664 307.891 327.75 305.031 330.672C302.547 333.188 299.57 334.445 296.102 334.445C292.477 334.445 289.57 333.172 287.383 330.625C285.258 328.172 284.195 324.984 284.195 321.062ZM297.484 330.625C298.531 330.625 299.469 330.383 300.297 329.898C301.125 329.398 301.828 328.719 302.406 327.859C303.562 326.078 304.141 323.766 304.141 320.922C304.141 317.797 303.531 315.141 302.312 312.953C300.938 310.438 298.961 309.18 296.383 309.18C294.305 309.18 292.641 309.977 291.391 311.57C290.062 313.258 289.398 315.617 289.398 318.648C289.398 322.445 290.234 325.445 291.906 327.648C293.406 329.633 295.266 330.625 297.484 330.625ZM316.164 313.141C316.164 312.25 316.094 311.539 315.953 311.008C315.828 310.461 315.562 310.188 315.156 310.188C314.859 310.188 314.625 310.219 314.453 310.281L313.891 310.516C313.781 310.547 313.648 310.484 313.492 310.328C313.195 310 313.047 309.703 313.047 309.438C313.047 309.156 313.133 308.867 313.305 308.57C313.492 308.258 313.766 307.906 314.125 307.516C314.5 307.125 314.922 306.781 315.391 306.484C316.453 305.781 317.414 305.43 318.273 305.43C319.133 305.43 319.742 305.578 320.102 305.875C320.461 306.172 320.734 306.562 320.922 307.047C321.234 307.828 321.391 309.008 321.391 310.586V325.258C321.391 327.898 322.188 329.375 323.781 329.688C324.266 329.781 324.836 329.828 325.492 329.828C326.164 329.828 326.875 329.742 327.625 329.57C328.391 329.398 329.117 329.172 329.805 328.891C331.133 328.344 332.305 327.648 333.32 326.805V313.141C333.32 311.656 333.055 310.742 332.523 310.398C332.305 310.258 332.016 310.188 331.656 310.188C331.297 310.188 331.008 310.242 330.789 310.352C330.586 310.461 330.414 310.539 330.273 310.586C330.148 310.633 330.039 310.633 329.945 310.586C329.852 310.523 329.75 310.438 329.641 310.328C329.406 310.062 329.289 309.797 329.289 309.531C329.289 309.266 329.383 308.984 329.57 308.688C329.773 308.375 330.094 308.023 330.531 307.633C330.969 307.227 331.469 306.859 332.031 306.531C333.297 305.797 334.562 305.43 335.828 305.43C337.359 305.43 338.234 306.516 338.453 308.688C338.516 309.297 338.547 309.93 338.547 310.586V324.461C338.547 326.867 338.641 328.367 338.828 328.961C339.016 329.555 339.242 329.945 339.508 330.133C339.773 330.305 340.102 330.391 340.492 330.391C340.883 330.391 341.203 330.328 341.453 330.203L342.156 329.898C342.359 329.852 342.539 329.945 342.695 330.18C343.023 330.664 343.07 331.102 342.836 331.492C342.602 331.883 342.234 332.258 341.734 332.617C341.25 332.977 340.703 333.289 340.094 333.555C337.391 334.742 335.469 334.719 334.328 333.484C333.734 332.844 333.398 331.828 333.32 330.438C331.023 332.203 328.672 333.422 326.266 334.094C325.391 334.328 324.469 334.445 323.5 334.445C322.547 334.445 321.609 334.312 320.688 334.047C319.781 333.781 318.992 333.352 318.32 332.758C316.883 331.492 316.164 329.539 316.164 326.898V313.141ZM371.078 332.852L363.555 311.594C362.992 310 362.5 309.203 362.078 309.203C361.891 309.203 361.672 309.227 361.422 309.273C361.172 309.32 360.969 309.234 360.812 309.016C360.656 308.797 360.578 308.523 360.578 308.195C360.578 307.867 360.711 307.531 360.977 307.188C361.242 306.844 361.578 306.547 361.984 306.297C362.891 305.719 363.68 305.43 364.352 305.43C365.039 305.43 365.547 305.445 365.875 305.477C366.203 305.508 366.516 305.617 366.812 305.805C367.406 306.195 367.906 307.078 368.312 308.453L374.336 328.844C375.82 324.469 376.781 321.578 377.219 320.172C378.766 314.953 379.797 311.094 380.312 308.594C380.422 308.031 380.938 307.555 381.859 307.164C382.578 306.867 383.188 306.719 383.688 306.719C384.188 306.719 384.516 306.758 384.672 306.836C384.844 306.898 384.969 307.023 385.047 307.211C385.234 307.586 385.375 308.039 385.469 308.57L391.703 329.008C392.875 326.148 393.672 324.141 394.094 322.984L395.312 319.562C396.609 315.828 397.258 312.914 397.258 310.82C397.258 309.336 396.539 308.508 395.102 308.336C394.945 308.086 394.867 307.828 394.867 307.562C394.867 307.281 395 307.008 395.266 306.742C395.531 306.461 395.875 306.219 396.297 306.016C397.141 305.625 397.992 305.43 398.852 305.43C399.727 305.43 400.398 305.477 400.867 305.57C401.336 305.664 401.711 305.828 401.992 306.062C402.523 306.531 402.789 307.234 402.789 308.172C402.789 309.094 402.688 310.031 402.484 310.984C402.281 311.922 402.008 312.953 401.664 314.078C401.32 315.203 400.922 316.383 400.469 317.617C398.766 322.148 397.523 325.258 396.742 326.945L395.031 330.508C394.688 331.195 394.422 331.695 394.234 332.008L393.648 332.922C392.992 333.938 392.219 334.445 391.328 334.445C390.359 334.445 389.562 334.188 388.938 333.672C388.688 333.453 388.508 333.18 388.398 332.852L382.586 316.07C381.023 320.961 380.031 324.023 379.609 325.258C378.328 328.852 377.555 330.922 377.289 331.469C377.023 332 376.789 332.438 376.586 332.781C376.383 333.109 376.156 333.391 375.906 333.625C375.344 334.172 374.727 334.445 374.055 334.445C373.117 334.445 372.312 334.172 371.641 333.625C371.391 333.422 371.203 333.164 371.078 332.852ZM412.445 301.07C411.914 301.07 411.422 300.992 410.969 300.836C410.531 300.664 410.148 300.422 409.82 300.109C409.133 299.453 408.789 298.57 408.789 297.461C408.789 296.398 409.195 295.5 410.008 294.766C410.789 294.031 411.727 293.664 412.82 293.664C413.914 293.664 414.789 293.992 415.445 294.648C416.102 295.305 416.43 296.195 416.43 297.32C416.43 298.383 416.039 299.281 415.258 300.016C414.492 300.719 413.555 301.07 412.445 301.07ZM411.016 334C408.609 334 407.406 333.453 407.406 332.359C407.406 331.797 407.531 331.359 407.781 331.047C408.156 331.172 408.5 331.234 408.812 331.234C410.266 331.234 410.977 330.312 410.945 328.469V312.766C410.945 311.672 410.789 310.914 410.477 310.492C410.18 310.055 409.641 309.836 408.859 309.836C408.281 309.836 407.758 309.906 407.289 310.047C407.008 310.078 406.805 309.859 406.68 309.391C406.57 308.969 406.633 308.602 406.867 308.289C407.102 307.961 407.461 307.625 407.945 307.281C408.445 306.922 408.992 306.609 409.586 306.344C410.867 305.734 411.938 305.43 412.797 305.43C413.656 305.43 414.289 305.555 414.695 305.805C415.117 306.055 415.438 306.391 415.656 306.812C416 307.5 416.172 308.609 416.172 310.141V328.867C416.219 330.102 416.664 330.852 417.508 331.117C417.742 331.195 418.031 331.266 418.375 331.328C418.719 331.391 419.023 331.469 419.289 331.562C419.57 331.641 419.789 331.734 419.945 331.844C420.211 332.047 420.344 332.375 420.344 332.828C420.344 333.391 420.227 333.82 419.992 334.117C419.664 334.039 419.164 334 418.492 334H411.016ZM436.422 334.117C436.109 334.039 435.609 334 434.922 334H427.445C425.945 334 424.984 333.734 424.562 333.203C424.391 333 424.305 332.766 424.305 332.5C424.305 331.844 424.43 331.359 424.68 331.047C425.055 331.172 425.477 331.234 425.945 331.234C426.43 331.234 426.789 331.039 427.023 330.648C427.273 330.258 427.391 329.531 427.375 328.469V313.141C427.375 311.672 427.102 310.758 426.555 310.398C426.336 310.258 426.047 310.188 425.688 310.188C425.328 310.188 425.039 310.242 424.82 310.352C424.617 310.461 424.445 310.539 424.305 310.586C424.18 310.633 424.07 310.633 423.977 310.586C423.883 310.523 423.789 310.438 423.695 310.328C423.461 310.078 423.344 309.82 423.344 309.555C423.344 309.273 423.438 308.984 423.625 308.688C423.828 308.375 424.148 308.023 424.586 307.633C425.023 307.227 425.523 306.859 426.086 306.531C427.352 305.797 428.617 305.43 429.883 305.43C431.336 305.43 432.195 306.391 432.461 308.312C432.539 308.875 432.586 309.453 432.602 310.047C434.93 308.094 437.461 306.703 440.195 305.875C441.18 305.578 442.172 305.43 443.172 305.43C444.188 305.43 445.148 305.562 446.055 305.828C446.977 306.094 447.773 306.523 448.445 307.117C449.867 308.367 450.578 310.32 450.578 312.977V328.867C450.625 330.086 451.078 330.836 451.938 331.117C452.172 331.195 452.461 331.266 452.805 331.328C453.148 331.391 453.453 331.469 453.719 331.562C454 331.641 454.219 331.734 454.375 331.844C454.641 332.047 454.773 332.375 454.773 332.828C454.773 333.375 454.648 333.805 454.398 334.117C454.086 334.039 453.586 334 452.898 334H445.422C443.922 334 442.961 333.734 442.539 333.203C442.367 333 442.281 332.766 442.281 332.5C442.281 331.844 442.406 331.359 442.656 331.047C443.031 331.172 443.375 331.234 443.688 331.234C444.016 331.234 444.289 331.195 444.508 331.117C444.727 331.023 444.898 330.875 445.023 330.672C445.242 330.297 445.352 329.562 445.352 328.469V314.641C445.352 311.984 444.562 310.5 442.984 310.188C442.5 310.094 441.891 310.047 441.156 310.047C440.438 310.047 439.641 310.156 438.766 310.375C437.891 310.594 437.07 310.875 436.305 311.219C434.836 311.875 433.602 312.703 432.602 313.703V328.867C432.648 330.086 433.094 330.836 433.938 331.117C434.188 331.195 434.477 331.266 434.805 331.328C435.148 331.391 435.461 331.469 435.742 331.562C436.023 331.641 436.242 331.734 436.398 331.844C436.664 332.047 436.797 332.375 436.797 332.828C436.797 333.375 436.672 333.805 436.422 334.117ZM465.273 321.672C465.242 322 464.656 322.164 463.516 322.164C462.391 322.164 461.828 321.977 461.828 321.602C461.828 321.227 461.797 320.602 461.734 319.727C461.547 316.742 461.398 314.484 461.289 312.953L460.422 300.367C460.25 297.789 460.164 296.172 460.164 295.516C460.164 295.047 461.5 294.531 464.172 293.969C465.172 293.766 465.953 293.664 466.516 293.664C467.078 293.664 467.359 293.742 467.359 293.898C467.359 294.039 467.328 294.469 467.266 295.188L465.484 319C465.391 320.109 465.32 321 465.273 321.672ZM459.648 330.555C459.648 329.43 460.016 328.5 460.75 327.766C461.5 327.016 462.422 326.641 463.516 326.641C465.297 326.641 466.523 327.422 467.195 328.984C467.398 329.469 467.5 329.992 467.5 330.555C467.5 331.648 467.125 332.578 466.375 333.344C465.625 334.078 464.672 334.445 463.516 334.445C462.422 334.445 461.5 334.078 460.75 333.344C460.016 332.594 459.648 331.664 459.648 330.555Z" fill="#E1B554"/>
<path d="M393.695 151.365C393.695 151.365 390.066 153.51 389.662 165.771C389.252 178.032 389.662 192.229 389.662 192.229C389.662 192.229 389.613 196.262 393.393 191.77C397.172 187.274 399.318 178.641 399.318 178.641C399.318 178.641 400.952 168.985 400.186 152.691C400.181 152.691 397.372 149.062 393.695 151.365Z" fill="#240046"/>
<path opacity="0.3" d="M393.695 151.365C393.695 151.365 390.066 153.51 389.662 165.771C389.252 178.032 389.662 192.229 389.662 192.229C389.662 192.229 389.613 196.262 393.393 191.77C397.172 187.274 399.318 178.641 399.318 178.641C399.318 178.641 400.952 168.985 400.186 152.691C400.181 152.691 397.372 149.062 393.695 151.365Z" fill="black"/>
<path d="M392.384 152.485L393.246 152.14L394.556 151.579L394.087 148.635L395.689 145.034C395.689 145.034 394.379 141.944 395.57 141.254C396.762 140.564 397.479 140.359 397.937 141.022C398.395 141.685 399.037 143.287 399.037 143.287L405.318 141.443L406.877 143.6L405.831 144.85L406.672 146.258L405.442 147.832L406.079 149.708L404.698 151.471L404.434 153.822C404.434 153.822 403.393 154.717 401.172 154.512C398.951 154.308 398.05 156.184 398.05 156.184L394.923 158.254L390.405 159.209L392.384 152.485Z" fill="#FB8671"/>
<path opacity="0.3" d="M397.781 152.718C396.152 152.783 395.915 151.084 395.915 149.909C395.915 149.127 396.368 148.75 396.341 148.448C396.298 147.935 396.028 147.084 396.044 146.738C396.055 146.539 396.142 146.286 396.449 146.172C396.115 146.232 395.268 146.038 395.279 145.957C395.435 144.905 397.516 144.841 397.845 145.029C398.606 145.471 398.201 151.958 397.743 155.446C397.678 155.931 397.414 156.293 397.36 156.638C397.295 157.064 393.111 158.703 391.251 158.908C390.184 159.026 390.96 157.975 390.976 157.732C390.987 157.587 396.88 155.78 396.993 155.71C397.204 155.576 397.392 154.912 397.36 155.053C397.312 155.274 397.781 152.718 397.781 152.718Z" fill="black"/>
<path d="M403.35 141.438C403.35 141.438 403.679 141.654 404.439 141.708" stroke="#240046" stroke-width="0.513713" stroke-linecap="round" stroke-linejoin="round"/>
<path d="M395.57 144.647C395.57 144.647 393.807 147.321 394.12 149.036C394.432 150.75 394.54 151.058 394.54 151.058C394.54 151.058 395.015 152.163 393.246 151.883" stroke="#240046" stroke-width="0.513713" stroke-linecap="round" stroke-linejoin="round"/>
<path d="M401.409 154.255C400.481 154.778 398.249 154.692 398.249 154.692L397.915 156.579C397.915 156.579 395.71 158.649 390.906 159.204" stroke="#240046" stroke-width="0.513713" stroke-linecap="round" stroke-linejoin="round"/>
<path d="M405.351 141.336C404.58 140.894 403.729 140.576 403.729 140.576" stroke="#240046" stroke-width="0.513713" stroke-linecap="round" stroke-linejoin="round"/>
<path d="M377.907 173.638C377.907 173.638 386.361 179.978 389.187 189.797C389.187 189.797 389.057 181.903 390.071 163.312C390.071 163.312 389.661 153.537 394.152 150.712C394.152 150.712 392.222 150.076 389.478 149.812C385.73 149.456 380.722 149.294 379.352 147.73C378.252 146.194 379.325 135.022 379.325 135.022H377.19L377.907 173.638Z" fill="#5A189A"/>
<path opacity="0.3" d="M377.276 171.276C377.276 171.276 385.062 173.816 389.553 187.123L389.186 189.797C389.186 189.797 383.794 176.307 377.675 173.746L377.276 171.276Z" fill="black"/>
<path opacity="0.2" d="M379.05 147.752C379.077 149.214 379.164 150.281 379.352 150.432C380.053 150.993 380.77 152.168 384.701 152.12C386.566 152.098 389.575 152.4 392.152 152.718C392.864 152.804 393.813 150.615 394.147 150.438L381.369 149.289L379.692 148.421L379.05 147.752Z" fill="white"/>
<path d="M394.152 150.712C394.152 150.712 390.065 153.505 389.655 165.766C389.245 178.027 389.655 192.223 389.655 192.223C389.655 192.223 389.607 196.256 393.386 191.765C394.578 190.347 394.912 189.932 395.764 188.088" stroke="#240046" stroke-width="0.513713" stroke-miterlimit="10"/>
<path d="M379.352 134.5C379.352 134.5 378.651 147.17 379.352 147.731C380.052 148.292 380.77 149.467 384.7 149.418C387.078 149.386 391.321 149.888 394.152 150.276" stroke="#240046" stroke-width="0.513713" stroke-miterlimit="10"/>
<path d="M394.988 255.291L397.312 255.55L405.416 91.0049L400.202 90.7461L394.988 255.291Z" fill="#E1B554"/>
<path opacity="0.4" d="M394.988 255.291L397.312 255.55L401.345 93.8894L402.429 93.1454L403.221 91.3931L400.698 91.2637L400.563 94.0296L394.988 255.291Z" fill="black"/>
<path d="M403.927 65L405.685 80.2209L400.897 80.0322L403.927 65Z" fill="#B53B3B"/>
<path opacity="0.2" d="M404.068 66.2236L405.416 80.0588L402.801 79.9564L404.068 66.2236Z" fill="white"/>
<path d="M402.008 86.6802H404.682L405.685 80.2209L400.897 80.0322L402.008 86.6802Z" fill="#B53B3B"/>
<path opacity="0.3" d="M402.008 86.6802L402.622 83.731L402.779 80.2209L400.897 80.0322L402.008 86.6802Z" fill="black"/>
<path d="M403.928 65L405.686 80.2209L410.064 79.0671L403.928 65Z" fill="#B53B3B"/>
<path opacity="0.3" d="M404.694 67.5288L406.009 80.0323L410.425 78.6358L404.694 67.5288Z" fill="white"/>
<path d="M405.417 86.6795L405.686 80.2202L410.064 79.0664L407.444 85.1483L405.417 86.6795Z" fill="#B53B3B"/>
<path d="M403.928 65L396.374 78.7328L400.898 80.0322L403.928 65Z" fill="#B53B3B"/>
<path d="M401.351 87.0788L399.264 85.3643L396.374 78.7324L400.898 80.0318L401.351 87.0788Z" fill="#B53B3B"/>
<path opacity="0.3" d="M401.351 86.4264L398.542 84.7119L396.374 78.7324L400.898 80.0318L401.351 86.4264Z" fill="black"/>
<path d="M403.928 65L396.374 78.7328L400.898 80.0322L403.928 65Z" stroke="#240046" stroke-width="0.513713" stroke-miterlimit="10" stroke-linejoin="bevel"/>
<path d="M404.72 88.0444L405.685 80.2209L400.897 80.0322L401.9 87.8988L404.72 88.0444Z" stroke="#240046" stroke-width="0.513713" stroke-miterlimit="10" stroke-linejoin="bevel"/>
<path d="M403.928 65L405.686 80.2209L410.064 79.0671" stroke="#240046" stroke-width="0.513713" stroke-miterlimit="10" stroke-linejoin="bevel"/>
<path d="M394.988 255.291L397.312 255.55L405.416 91.0049L400.202 90.7461L394.988 255.291Z" stroke="#240046" stroke-width="0.513713" stroke-miterlimit="10"/>
<path d="M403.927 65L405.685 80.2209L400.897 80.0322L403.927 65Z" stroke="#240046" stroke-width="0.513713" stroke-miterlimit="10" stroke-linejoin="bevel"/>
<path d="M403.928 65L396.374 78.7328L398.822 84.3564L403.416 89.6295L407.659 84.5289L410.064 79.0671L403.928 65Z" stroke="#240046" stroke-width="0.513713" stroke-miterlimit="10"/>
<path d="M400.202 90.7459L405.416 91.0047L407.659 84.5292L404.72 88.0446L403.248 83.1543L401.9 87.899L398.822 84.3567L400.202 90.7459Z" fill="#5A189A"/>
<path opacity="0.4" d="M401.156 87.5537L398.822 84.3564L400.202 90.7457H403.292L401.156 87.5537Z" fill="black"/>
<path d="M400.202 90.7459L405.416 91.0047L407.659 84.5292L404.72 88.0446L403.248 83.1543L401.9 87.899L398.822 84.3567L400.202 90.7459Z" stroke="#240046" stroke-width="0.513713" stroke-miterlimit="10"/>
<path d="M404.439 141.18L399.026 143.811L398.088 141.438L397.807 143.595L398.665 144.248L398.357 145.596L396.988 146.42L397.441 151.063L398.481 152.319L399.468 154.255L403.771 154.443L404.844 151.289L405.965 148.938L404.973 147.601L406.677 145.984L405.372 144.927L406.677 143.078L406.041 141.929L404.439 141.18Z" fill="#FB8671"/>
<path opacity="0.2" d="M404.843 141.18L406.547 142.167L405.997 143.838C405.997 143.838 405.156 143.401 404.849 143.401C403.323 143.396 400.692 144.943 398.799 144.183C397.866 143.811 403.517 141.627 404.078 141.352C404.121 141.331 404.142 141.32 404.18 141.304C404.493 141.169 404.843 141.18 404.843 141.18Z" fill="white"/>
<path opacity="0.2" d="M405.167 144.955L406.542 145.882L406.612 146.772C406.612 146.772 405.151 147.171 405.291 146.901C405.765 145.99 405.167 144.955 405.167 144.955Z" fill="white"/>
<path opacity="0.3" d="M397.985 146.34C397.985 146.34 399.349 147.44 401.241 146.707C402.223 146.324 405.07 145.785 405.415 145.515C405.754 145.246 403.56 145.515 403.56 145.515L397.985 146.34Z" fill="black"/>
<path opacity="0.3" d="M396.697 149.111C396.697 149.111 396.81 149.904 399.517 149.705C404.137 149.359 404.499 148.556 404.844 148.286C405.183 148.017 402.186 148.34 402.186 148.34L396.697 149.111Z" fill="black"/>
<path opacity="0.3" d="M397.985 151.985C397.985 151.985 398.756 152.707 400.783 152.535C405.399 152.141 403.56 151.855 403.9 151.581C404.239 151.311 403.215 151.214 403.215 151.214L397.985 151.985Z" fill="black"/>
<path opacity="0.2" d="M405.808 148.174L405.986 149.462L405.83 150.352L404.407 150.902C404.407 150.902 405.738 149.43 404.331 148.109C403.56 147.386 404.601 148.303 405.253 148.184C405.302 148.174 405.49 148.125 405.533 148.12C405.9 148.066 405.808 148.174 405.808 148.174Z" fill="white"/>
<path opacity="0.2" d="M405.28 152.723L404.843 153.721L404.331 154.486L402.854 154.125C402.854 154.125 404.622 153.446 403.9 151.429C403.544 150.437 404.137 151.85 404.735 152.125C404.778 152.146 404.962 152.211 405.005 152.233C405.323 152.394 405.28 152.723 405.28 152.723Z" fill="white"/>
<path d="M403.744 141.778C403.566 142.053 399.236 143.552 398.692 143.719C398.147 143.886 398.476 145.126 398.476 145.126C398.476 145.126 398.665 146.356 400.525 145.865C402.385 145.374 404.617 144.949 404.617 144.949C404.617 144.949 405.76 144.862 406.132 144.318C406.504 143.773 406.925 143.153 406.477 142.285C406.305 141.951 405.846 141.616 405.35 141.331C405.086 141.18 404.811 141.045 404.569 140.926" stroke="#240046" stroke-width="0.513713" stroke-linecap="round" stroke-linejoin="round"/>
<path d="M398.875 145.742C398.875 145.742 397.262 145.979 397.246 146.793C397.23 147.607 397.3 148.211 397.78 148.389C398.26 148.567 402.53 148.265 402.53 148.265C402.53 148.265 404.229 147.979 404.827 147.678C405.803 147.187 405.922 146.95 406.245 146.653C406.504 146.416 406.515 145.704 405.927 145.278C405.097 144.68 405.102 144.874 405.102 144.874" stroke="#240046" stroke-width="0.513713" stroke-linecap="round" stroke-linejoin="round"/>
<path d="M401.09 148.448L398.378 148.615C398.378 148.615 396.917 148.464 396.993 149.71C397.068 150.95 397.365 151.672 398.26 151.575C399.155 151.478 403.355 151.376 403.355 151.376C403.355 151.376 404.697 151.473 405.366 150.729C406.035 149.985 405.787 149.041 405.787 149.041C405.787 149.041 405.873 148.022 404.439 147.833" stroke="#240046" stroke-width="0.513713" stroke-linecap="round" stroke-linejoin="round"/>
<path d="M404.196 151.312C404.196 151.312 404.989 151.845 404.816 152.74C404.643 153.635 403.894 154.255 403.894 154.255H400.594C400.594 154.255 399.5 154.304 398.907 153.608C398.308 152.913 398.287 151.883 399.079 151.516" stroke="#240046" stroke-width="0.513713" stroke-linecap="round" stroke-linejoin="round"/>
<path opacity="0.4" d="M398.605 142.296C398.605 142.296 398.805 141.186 397.985 140.614C397.721 140.431 397.937 140.533 397.888 140.56C397.397 140.841 397.322 142.275 397.37 142.69C397.532 144.043 398.168 144.076 398.168 144.076C398.168 144.076 397.187 145.742 398.244 144.367C398.244 144.367 398.832 143.084 398.605 142.296Z" fill="black"/>
<path d="M398.605 142.296C398.605 142.296 398.659 140.878 397.705 140.582C396.481 140.204 396.082 140.652 395.629 140.921C395.144 141.212 394.459 141.703 394.75 143.035C395.042 144.367 395.92 144.981 395.92 144.981C395.92 144.981 397.182 145.747 398.244 144.372C398.244 144.367 398.832 143.083 398.605 142.296Z" stroke="#240046" stroke-width="0.513713" stroke-linecap="round" stroke-linejoin="round"/>
<path d="M358.022 254.093C358.022 254.093 365.824 236.02 366.503 167.06C366.503 167.06 374.758 236.829 376.591 249.106L367.307 254.088H358.022V254.093Z" fill="#240046"/>
<path opacity="0.3" d="M358.022 254.093C358.022 254.093 365.824 236.02 366.503 167.06C366.503 167.06 374.758 236.829 376.591 249.106L367.307 254.088H358.022V254.093Z" fill="black"/>
<path d="M319.439 191.198C319.439 191.198 320.857 210.511 309.135 228.897C309.135 228.897 310.995 248.205 331.43 251.472C351.865 254.74 357.585 255.149 357.585 255.149C357.585 255.149 369.674 230.396 365.711 135.943C365.711 135.943 346.942 138.397 332.298 135.943C317.654 133.49 318.458 170.558 318.458 170.558L319.439 191.198Z" fill="#5A189A"/>
<path d="M357.58 255.155C357.58 255.155 361.468 254.745 367.307 253.214C373.146 251.683 376.753 249.979 376.753 249.979" stroke="#240046" stroke-width="0.513713" stroke-miterlimit="10"/>
<path d="M365.705 135.949C365.705 135.949 367.598 173.6 368.843 185.235C370.094 196.871 376.747 249.979 376.747 249.979L388.674 246.027C388.674 246.027 389.488 245.65 389.051 243.385C386.404 229.669 376.041 178.921 376.774 158.578C377.626 134.876 377.4 141.007 377.4 141.007C377.4 141.007 377.4 135.318 376.381 134.499C373.469 132.154 365.705 135.949 365.705 135.949Z" fill="#5A189A"/>
<path d="M366.439 161.991C366.439 161.991 373.621 233.637 376.753 249.979L387.823 246.372C387.823 246.372 390.686 246.27 388.944 241.061C387.208 235.853 379.034 197.539 377.4 173.33C377.4 173.33 385.067 177.288 390.071 193.646" stroke="#240046" stroke-width="0.513713" stroke-miterlimit="10"/>
<path d="M376.774 135.027C376.936 139.125 377.4 173.325 377.4 173.325" stroke="#240046" stroke-width="0.513713" stroke-miterlimit="10"/>
<path d="M319.439 191.198C319.439 191.198 320.857 210.512 309.135 228.897C309.135 228.897 310.995 248.205 331.43 251.473C351.865 254.74 357.585 255.15 357.585 255.15C357.585 255.15 369.674 230.396 365.711 135.944" stroke="#240046" stroke-width="0.513713" stroke-miterlimit="10"/>
<path d="M361.959 142.792C359.328 140.668 354.712 141.951 354.712 141.951L354.68 143.321C358.708 142.113 361.021 143.736 361.021 143.736L364.24 180.443L320.55 187.317L321.726 187.738L364.315 181.273L365.388 181.079L361.959 142.792Z" fill="#B53B3B"/>
<path opacity="0.4" d="M361.959 142.792C359.328 140.668 354.712 141.951 354.712 141.951L354.68 143.321C358.708 142.113 361.021 143.736 361.021 143.736L364.24 180.443L320.55 187.317L321.726 187.738L364.315 181.273L365.388 181.079L361.959 142.792Z" fill="black"/>
<path d="M316.506 186.605C319.789 187.565 319.213 187.366 319.213 187.366L364.239 180.157L357.898 179.736L316.506 186.605Z" fill="#FFFCE8"/>
<path opacity="0.4" d="M316.506 186.605C319.789 187.565 319.213 187.366 319.213 187.366L364.147 180.151L357.898 179.736L316.506 186.605Z" fill="black"/>
<path d="M354.712 143.439C357.899 145.494 361.021 143.741 361.021 143.741L364.234 180.157L357.894 179.737L354.712 143.439Z" fill="#FFFCE8"/>
<path opacity="0.4" d="M361.02 143.94C360.945 144.593 359.489 143.741 359.489 143.741L362.74 180.054L364.234 180.157L361.02 143.94Z" fill="black"/>
<path d="M354.712 143.439C357.899 145.493 361.021 143.741 361.021 143.741C361.021 143.741 357.996 142.172 354.712 143.439Z" fill="#240046"/>
<path d="M354.712 143.439C357.899 145.494 361.021 143.741 361.021 143.741" stroke="#240046" stroke-width="0.256857" stroke-miterlimit="10"/>
<path d="M353.973 141.995C358.605 140.781 362.136 142.803 362.136 142.803L365.458 180.675C365.484 180.961 365.28 181.214 364.999 181.257L321.725 187.738L314.452 186.665" stroke="#240046" stroke-width="0.256857" stroke-miterlimit="10"/>
<path d="M354.712 143.439C358.362 142.194 361.02 143.741 361.02 143.741L364.234 180.367L318.868 187.317" stroke="#240046" stroke-width="0.256857" stroke-miterlimit="10"/>
<path d="M354.572 141.865L357.942 180.238L314.161 186.8L312.565 150.902L354.572 141.865Z" fill="#B53B3B"/>
<path d="M354.625 142.474L357.893 179.731C357.92 180.016 357.715 180.27 357.434 180.313L314.748 186.707C314.43 186.756 314.144 186.519 314.128 186.195L312.581 151.359C312.57 151.095 312.748 150.863 313.006 150.809L353.973 141.994C354.291 141.924 354.598 142.15 354.625 142.474Z" stroke="#240046" stroke-width="0.256857" stroke-miterlimit="10"/>
<path opacity="0.4" d="M318.145 149.704L318.442 186.158L314.161 186.799L312.565 150.901L318.145 149.704Z" fill="black"/>
<path d="M351.58 145.849L354.346 177.359C354.368 177.601 354.195 177.817 353.958 177.849L317.86 183.257C317.591 183.295 317.348 183.095 317.337 182.826L316.027 153.365C316.016 153.144 316.167 152.945 316.388 152.896L351.03 145.439C351.294 145.385 351.553 145.574 351.58 145.849Z" stroke="#E1B554" stroke-width="0.513713" stroke-miterlimit="10"/>
<path d="M314.57 133.281C314.57 133.281 310.154 151.408 309.119 156.342C308.084 161.27 314.128 177.909 314.128 177.909L330.379 219.026L336.17 187.048L338.111 180.168L340.505 175.968C340.505 175.968 332.379 170.986 326.567 158.569C324.734 152.131 324.141 154.185 324.491 149.963C324.734 148.464 328.842 140.366 328.842 140.366L330.39 135.562L314.737 133.394L314.57 133.281Z" fill="#5A189A"/>
<path opacity="0.3" d="M311.276 167.966C313.465 173.509 316.506 179.132 316.506 179.132L331.657 211.024L330.017 217.306L315.498 180.162L311.044 168.106L311.276 167.966Z" fill="black"/>
<path opacity="0.2" d="M338.655 178.518L336.897 177.38C326.497 169.832 328.023 166.063 324.653 160.332C320.911 153.964 322.474 149.704 322.474 149.704C324.588 145.892 328.923 139.557 328.923 139.557L325.063 148.502L324.858 152.638L326.459 158.191L332.142 167.648L340.65 175.515L338.655 178.518Z" fill="white"/>
<path opacity="0.3" d="M314.194 135.562C314.194 135.562 313.967 136.791 318.728 137.465C323.489 138.139 336.192 140.571 339.357 140.679C342.522 140.787 360.708 140.043 360.708 140.043L362.579 139.832V138.668C362.579 138.668 376.953 137.951 379.04 137.465V134.845L362.8 136.268L362.358 137.201L340.753 137.767C340.753 137.767 322.567 133.594 315.412 133.54C315.412 133.54 314.361 133.319 314.194 135.562Z" fill="black"/>
<path d="M314.571 133.281L309.993 151.872C309.993 151.872 307.313 157.593 311.4 169.649C315.487 181.704 330.6 219.673 330.6 219.673" stroke="#240046" stroke-width="0.513713" stroke-miterlimit="10"/>
<path d="M342.667 182.518C342.667 182.518 343.514 189.474 339.017 204.484C335.28 216.95 331.738 219.5 331.738 219.5C331.738 219.5 329.182 221.954 331.123 214.394C333.064 206.835 335.21 193.965 336.186 186.4C337.162 178.836 340.521 176.081 340.521 176.081C340.521 176.081 342.468 173.838 342.667 182.518Z" fill="#240046"/>
<path opacity="0.3" d="M342.667 182.518C342.667 182.518 343.514 189.474 339.017 204.484C335.28 216.95 331.738 219.5 331.738 219.5C331.738 219.5 329.182 221.954 331.123 214.394C333.064 206.835 335.21 193.965 336.186 186.4C337.162 178.836 340.521 176.081 340.521 176.081C340.521 176.081 342.468 173.838 342.667 182.518Z" fill="black"/>
<path d="M340.677 176.157C340.677 176.157 341.578 176.292 343.292 175.704L344.872 174.89C344.872 174.89 345.686 174.572 346.495 174.572C347.304 174.572 349.784 174.572 349.784 174.572C349.784 174.572 351.229 174.404 351.725 175.37C352.221 176.335 351.229 176.874 351.229 176.874C351.229 176.874 350.959 177.462 349.784 177.462H348.139C348.139 177.462 346.295 177.332 345.788 178.394C345.276 179.457 346.441 180.276 346.441 180.276L350.226 182.853C350.226 182.853 351.369 183.403 352.722 183.425C352.722 183.425 354.41 183.409 354.83 183.279C354.83 183.279 355.159 183.376 355.224 182.988L356.755 182.762C356.755 182.762 357.607 183.975 354.329 185.323C354.329 185.323 354.712 186.816 354.103 186.903C353.493 186.983 352.334 187.647 352.334 187.647L346.225 188.639C346.225 188.639 345.319 189.528 344.246 189.48C344.246 189.48 343.589 190.041 342.645 190.024C341.707 190.008 336.795 187.237 336.277 186.061C335.771 184.886 340.677 176.157 340.677 176.157Z" fill="#FB8671"/>
<path opacity="0.3" d="M346.554 176.017C347.088 176.06 347.255 176.135 348.819 176.205C349.525 176.238 350.959 176.475 351.666 176.249C352.464 175.995 351.434 175.451 351.434 175.451C351.434 175.451 350.431 174.782 349.984 174.847C349.536 174.911 344.71 175.068 344.71 175.068L343.961 175.575C343.956 175.575 345.746 175.947 346.554 176.017Z" fill="white"/>
<path opacity="0.3" d="M337.959 187.086C338.402 187.393 338.504 187.539 339.82 188.391C340.413 188.779 341.583 189.48 342.305 189.641C343.125 189.825 346.554 188.579 346.554 188.579C346.554 188.579 343.378 188.38 342.505 188.099C340.887 187.571 336.897 185.102 336.897 185.102L336.558 186.148C336.563 186.148 337.296 186.617 337.959 187.086Z" fill="black"/>
<path opacity="0.3" d="M346.257 187.738C346.791 187.803 347.842 187.248 349.406 187.388C350.112 187.447 351.746 187.522 352.457 187.328C353.266 187.107 354.415 186.153 354.415 186.153C354.415 186.153 352.948 185.997 352.048 186.153C350.371 186.444 347.071 186.455 347.071 186.455L344.963 187.188C344.963 187.183 345.448 187.636 346.257 187.738Z" fill="black"/>
<path opacity="0.3" d="M347.493 186.234C348.027 186.299 349.078 185.744 350.642 185.884C351.348 185.943 352.982 186.019 353.693 185.824C354.502 185.603 356.815 183.43 356.815 183.43C356.815 183.43 357.279 182.341 355.597 182.94C354.545 183.312 353.165 184.875 352.626 184.967C350.949 185.258 349.148 184.849 348.027 185.107C347.735 185.172 346.981 185.684 346.981 185.684C346.981 185.684 346.689 186.132 347.493 186.234Z" fill="black"/>
<path d="M340.677 176.157C340.677 176.157 341.577 176.292 343.292 175.704L344.872 174.89C344.872 174.89 345.686 174.572 346.494 174.572C347.303 174.572 349.783 174.572 349.783 174.572C349.783 174.572 351.228 174.404 351.724 175.37C352.22 176.335 351.342 176.987 351.342 176.987C351.342 176.987 350.592 177.408 349.783 177.462H348.139C348.139 177.462 346.295 177.332 345.788 178.394C345.276 179.457 346.441 180.276 346.441 180.276L350.226 182.853C350.226 182.853 351.369 183.403 352.722 183.425C352.722 183.425 354.41 183.409 354.83 183.279C354.83 183.279 355.035 183.306 355.11 182.983" stroke="#240046" stroke-width="0.513713" stroke-miterlimit="10" stroke-linecap="round"/>
<path d="M352.453 187.328C352.453 187.328 352.663 187.733 352.151 187.937C351.638 188.142 346.123 188.822 346.123 188.822C346.123 188.822 345.799 189.151 345.136 189.517C345.136 189.517 344.802 189.631 344.214 189.593C344.214 189.593 343.513 190.229 342.516 190.17C342.516 190.17 339.049 188.671 338.24 187.824C337.431 186.978 336.283 186.153 336.283 186.153" stroke="#240046" stroke-width="0.513713" stroke-miterlimit="10" stroke-linecap="round"/>
<path d="M344.963 187.469C344.963 187.469 345.642 188.321 346.564 188.046C347.486 187.771 347.723 187.782 347.723 187.782C347.723 187.782 353.104 187.361 353.989 187.059C354.873 186.757 354.167 185.404 354.167 185.404" stroke="#240046" stroke-width="0.513713" stroke-miterlimit="10" stroke-linecap="round"/>
<path d="M357.025 182.746C357.019 182.924 357.008 183.296 356.992 183.431C356.863 184.434 355.849 184.59 355.849 184.59C355.849 184.59 354.156 185.377 353.32 185.863C352.485 186.348 351.131 186.024 351.131 186.024L347.282 186.154" stroke="#240046" stroke-width="0.513713" stroke-miterlimit="10" stroke-linecap="round"/>
<path d="M342.257 190.169C341.777 193.674 340.834 198.424 339.011 204.484C335.275 216.95 331.733 219.5 331.733 219.5C331.733 219.5 329.177 221.953 331.118 214.394C333.059 206.835 335.205 193.965 336.181 186.4C337.157 178.836 340.516 176.081 340.516 176.081C340.516 176.081 340.839 175.709 341.233 175.854" stroke="#240046" stroke-width="0.513713" stroke-miterlimit="10" stroke-linecap="round"/>
<path d="M330.395 135.562C330.395 135.562 327.171 144.685 325.063 148.502C325.063 148.502 323.499 152.756 327.241 159.129C330.606 164.861 330.681 168.284 341.087 175.828" stroke="#240046" stroke-width="0.513713" stroke-miterlimit="10"/>
<path d="M344.289 104.133C344.289 104.133 333.49 99.0974 336.87 95.1884C340.251 91.2793 351.951 93.4684 351.951 93.4684C351.951 93.4684 362.907 93.463 363.71 97.7333C364.821 103.648 360.249 108.722 360.249 108.722L344.289 104.133Z" fill="#E1B554"/>
<path d="M340.995 95.6567C340.995 95.6567 342.235 97.8242 343.373 103.308C343.373 103.308 343.745 107.578 342.801 109.244C342.677 109.465 342.219 109.896 342.219 109.896C342.219 109.896 340.04 110.549 340.995 113.471C341.949 116.399 345.605 117.536 345.605 117.536C345.605 117.536 350.522 119.283 354.345 116.765C355.299 116.135 357.553 121.03 358.291 120.238C360.518 117.86 363.338 110.516 363.338 110.516C363.338 110.516 360.858 107.535 360.346 106.478C359.834 105.421 360.249 106.284 359.44 104.461" fill="#FB8671"/>
<path d="M340.995 95.6567C340.995 95.6567 342.235 97.8242 343.373 103.308C343.373 103.308 343.745 107.578 342.801 109.244C342.677 109.465 342.219 109.896 342.219 109.896C342.219 109.896 340.04 110.549 340.995 113.471C341.949 116.399 345.605 117.536 345.605 117.536C345.605 117.536 350.522 119.283 354.345 116.765C355.299 116.135 357.849 121.381 358.588 120.588C360.815 118.21 363.333 110.516 363.333 110.516C363.333 110.516 360.853 107.535 360.34 106.478C359.828 105.421 360.243 106.284 359.435 104.461" stroke="#240046" stroke-width="0.513713" stroke-linejoin="round"/>
<path d="M362.104 82.9755C362.104 82.9755 361.867 77.697 358.977 75.7829C356.087 73.8688 351.272 73.4968 347.843 73.9497C345.648 74.2408 343.281 75.8422 341.847 77.4058C340.516 78.8616 342.721 82.0265 342.721 82.0265C340.559 84.318 341.847 86.2698 341.847 86.2698C341.847 86.2698 343.303 88.874 340.931 90.7989C340.931 90.7989 342.117 94.3952 342.343 95.6353C342.721 97.6518 343.551 102.542 345.379 103.254C347.951 104.246 351.498 104.381 353.617 104.505C355.192 104.596 358.281 104.963 359.904 104.294C361.527 103.626 362.611 99.2154 362.611 99.2154C362.611 99.2154 363.317 94.3898 363.484 92.9718C363.651 91.5591 362.573 88.7716 362.228 87.4776C362.007 86.6365 362.304 85.4395 362.368 84.5984C362.406 84.1886 362.104 82.9755 362.104 82.9755Z" fill="#FB8671"/>
<path d="M357.796 84.4311C357.796 84.4311 358.972 83.4606 360.131 83.4067C361.29 83.3474 362.595 83.9189 362.595 83.9189C362.595 83.9189 362.989 84.1831 362.886 84.6845C362.784 85.1859 361.991 84.8732 361.991 84.8732C361.991 84.8732 360.201 84.5066 358.912 85.1212C357.618 85.7359 357.796 84.4311 357.796 84.4311Z" fill="#240046"/>
<path d="M362.169 86.3891L365.21 85.0088L365.372 85.3107L362.169 86.6802V86.3891Z" fill="#E1B554" stroke="#E1B554" stroke-width="0.256857" stroke-miterlimit="10"/>
<path d="M340.995 90.7994C340.995 90.7994 342.181 94.3957 342.408 95.6358C342.785 97.6523 343.616 102.543 345.443 103.254C348.015 104.246 351.563 104.381 353.682 104.505C355.256 104.597 358.346 104.964 359.969 104.295C361.592 103.626 362.675 99.2159 362.675 99.2159C362.675 99.2159 363.382 94.3903 363.549 92.9723L363.101 94.0129C362.573 95.1883 362.018 95.3339 362.018 95.3339C362.018 95.3339 361.813 94.6276 360.432 93.9859C359.052 93.3389 359.429 92.7135 359.429 92.7135L357.699 92.5949L356.48 92.8213C356.313 94.0614 355.558 94.2771 355.558 94.2771C352.916 94.8918 352.156 97.3558 352.156 97.3558C352.156 97.3558 350.716 98.0891 347.136 96.0078C343.556 93.9266 342.44 89.3706 342.44 89.3706L340.995 90.7994Z" fill="#240046"/>
<path d="M354.178 97.5495C354.178 97.5495 357.079 95.9158 357.564 95.8134C358.049 95.711 358.502 95.932 358.502 95.932C358.502 95.932 358.767 95.959 359.106 95.711C359.446 95.4629 360.282 96.0938 360.427 96.2393C360.589 96.4011 360.691 96.7677 360.913 97.0265C360.913 97.0265 359.942 98.0186 359.198 98.1912C358.454 98.3637 355.974 98.4014 354.971 98.0618C354.744 97.9863 354.178 97.5495 354.178 97.5495Z" fill="#FB7F71"/>
<path opacity="0.3" d="M360.53 96.5956C360.384 96.45 359.403 95.7599 359.063 96.0079C358.724 96.2559 358.459 96.229 358.459 96.229C358.459 96.229 358.007 96.0079 357.521 96.1103C357.338 96.1481 356.75 96.4015 356.039 96.6549C356.039 96.6549 356.993 95.9701 357.71 95.8623C358.427 95.7545 358.503 96.0079 358.503 96.0079L359.29 95.7329C359.29 95.7329 360.126 95.9324 360.325 96.2613C360.53 96.5956 360.53 96.5956 360.53 96.5956Z" fill="white"/>
<path opacity="0.3" d="M354.356 97.6841C354.356 97.6841 354.696 97.7164 354.923 97.765C355.656 97.9105 358.999 98.0184 359.748 97.8404C359.748 97.8404 359.932 98.3634 357.5 98.2286C355.074 98.0939 355.327 98.0939 355.327 98.0939L354.356 97.6841Z" fill="black"/>
<path d="M354.178 97.5495C354.178 97.5495 357.079 95.9158 357.564 95.8134C358.049 95.711 358.502 95.932 358.502 95.932C358.502 95.932 358.767 95.959 359.106 95.711C359.446 95.4629 360.282 96.0938 360.427 96.2393C360.589 96.4011 360.691 96.7677 360.913 97.0265C360.913 97.0265 359.942 98.0186 359.198 98.1912C358.454 98.3637 355.974 98.4014 354.971 98.0618C354.744 97.9863 354.178 97.5495 354.178 97.5495Z" stroke="#9E5346" stroke-width="0.128428" stroke-miterlimit="10" stroke-linecap="round" stroke-linejoin="round"/>
<path d="M354.356 97.5925C354.356 97.5925 356.087 97.1181 357.516 97.1181C358.956 97.1181 359.279 96.897 359.279 96.897C359.279 96.897 359.678 96.6706 360.072 96.8593C360.465 97.048 360.654 96.9509 360.654 96.9509" stroke="#9E5346" stroke-width="0.128428" stroke-miterlimit="10" stroke-linecap="round"/>
<path d="M361.785 86.7343C361.785 86.7343 361.678 84.9443 359.613 86.2706L358.782 86.7828L359.747 87.3328C359.747 87.3328 360.923 87.9205 361.419 87.4568C361.419 87.4568 361.672 87.0956 361.785 86.7343Z" fill="#FFE9E9"/>
<path d="M360.745 87.4559C361.096 87.4559 361.381 87.0672 361.381 86.5878C361.381 86.1084 361.096 85.7197 360.745 85.7197C360.393 85.7197 360.108 86.1084 360.108 86.5878C360.108 87.0672 360.393 87.4559 360.745 87.4559Z" fill="#37444C"/>
<path d="M360.746 87.0464C360.925 87.0464 361.069 86.846 361.069 86.5989C361.069 86.3517 360.925 86.1514 360.746 86.1514C360.567 86.1514 360.422 86.3517 360.422 86.5989C360.422 86.846 360.567 87.0464 360.746 87.0464Z" fill="black"/>
<path d="M361.683 86.7343C361.683 86.7343 361.678 84.9443 359.613 86.2706L358.782 86.7828L359.807 87.3058C359.807 87.3058 360.939 87.8828 361.381 87.3705C361.516 87.2142 361.564 87.0956 361.683 86.7343Z" stroke="#C56858" stroke-width="0.115585" stroke-miterlimit="10"/>
<path d="M360.956 86.4475C361.018 86.4475 361.069 86.3775 361.069 86.2911C361.069 86.2048 361.018 86.1348 360.956 86.1348C360.893 86.1348 360.842 86.2048 360.842 86.2911C360.842 86.3775 360.893 86.4475 360.956 86.4475Z" fill="#9BB0CF"/>
<path d="M338.089 94.1963C338.089 94.1963 338.283 95.9432 339.141 97.4259L339.61 96.7574C339.61 96.7574 340.429 99.7821 342.624 100.17L341.923 94.7301L338.089 94.1963Z" fill="#240046" stroke="#240046" stroke-width="0.256857" stroke-linejoin="round"/>
<path d="M336.984 88.8257C336.984 88.8257 335.307 85.1377 336.283 81.3419C337.259 77.5462 338.709 75.6698 338.709 75.6698L339.96 74.9258C339.96 74.9258 338.984 74.6508 338.553 74.9258C338.122 75.2008 339.885 71.4804 343.638 72.0681C343.638 72.0681 342.532 71.0922 340.99 71.4804C340.99 71.4804 342.387 69.3669 344.851 70.855C344.851 70.855 343.95 69.836 343.168 69.6041C343.168 69.6041 344.457 69.41 345.557 70.4668C345.557 70.4668 345.476 68.9787 345.207 68.9787C345.207 68.9787 347.126 68.6282 347.476 69.9977C347.476 69.9977 347.514 68.9032 346.77 68.4719C346.77 68.4719 347.476 67.3773 349.04 70.1163L348.258 68.2562C348.258 68.2562 349.434 67.8842 350.215 69.5664C350.215 69.5664 350.41 68.9086 349.94 68.2184C349.94 68.2184 351.105 67.6847 352.28 69.685C352.28 69.685 353.262 70.3913 354.437 69.9977C355.613 69.6041 357.92 69.6473 359.64 70.8604C359.64 70.8604 358.422 70.5477 357.877 71.0976C357.877 71.0976 359.775 71.6476 360.568 72.3485C361.36 73.0548 361.969 74.3812 362.293 75.0066C362.611 75.6321 361.635 75.3571 361.635 75.3571C361.635 75.3571 362.428 76.6134 360.514 77.3359L360.341 77.0825C359.948 76.4732 359.635 76.182 359.031 75.7831C356.141 73.869 351.326 73.497 347.897 73.9499C345.703 74.241 343.336 75.8424 341.901 77.406C340.57 78.8617 342.775 82.0267 342.775 82.0267C340.613 84.3182 341.901 86.27 341.901 86.27C341.901 86.27 343.357 88.8742 340.985 90.7991L336.984 88.8257Z" fill="#240046"/>
<path d="M353.127 87.0467C352.847 87.2247 352.28 87.5374 351.472 87.629C350.663 87.7207 348.544 87.0467 348.544 87.0467C348.544 87.0467 349.304 85.9468 350.782 85.5586C352.259 85.165 353.181 86.5992 353.181 86.5992L353.359 86.8742C353.353 86.8688 353.181 87.009 353.127 87.0467Z" fill="#FFE9E9"/>
<path d="M351.472 87.4299C352.017 87.4299 352.459 86.9882 352.459 86.4432C352.459 85.8983 352.017 85.4565 351.472 85.4565C350.927 85.4565 350.485 85.8983 350.485 86.4432C350.485 86.9882 350.927 87.4299 351.472 87.4299Z" fill="#37444C"/>
<path d="M351.472 86.9226C351.737 86.9226 351.951 86.7078 351.951 86.4428C351.951 86.1777 351.737 85.9629 351.472 85.9629C351.207 85.9629 350.992 86.1777 350.992 86.4428C350.992 86.7078 351.207 86.9226 351.472 86.9226Z" fill="black"/>
<path d="M351.811 86.2756C351.874 86.2756 351.924 86.2056 351.924 86.1193C351.924 86.0329 351.874 85.9629 351.811 85.9629C351.748 85.9629 351.698 86.0329 351.698 86.1193C351.698 86.2056 351.748 86.2756 351.811 86.2756Z" fill="#9BB0CF"/>
<path d="M353.127 87.0467C352.847 87.2247 352.28 87.5374 351.472 87.629C350.663 87.7207 348.544 87.0467 348.544 87.0467C348.544 87.0467 349.304 85.9468 350.782 85.5586C352.259 85.165 353.181 86.5992 353.181 86.5992L353.359 86.8742C353.353 86.8688 353.181 87.009 353.127 87.0467Z" stroke="#C56858" stroke-width="0.115585" stroke-miterlimit="10"/>
<path d="M348.274 86.3565C348.274 86.3565 349.024 85.0517 350.668 84.9816C352.307 84.9115 352.76 85.3267 352.76 85.3267" stroke="#C56858" stroke-width="0.128428" stroke-miterlimit="10" stroke-linecap="round" stroke-linejoin="round"/>
<path d="M347.994 85.9623C347.994 85.9623 348.641 85.4717 349.352 85.3477" stroke="#C56858" stroke-width="0.128428" stroke-miterlimit="10" stroke-linecap="round" stroke-linejoin="round"/>
<path d="M360.61 85.3921C360.61 85.3921 359.586 85.4406 358.939 86.1092" stroke="#C56858" stroke-width="0.128428" stroke-miterlimit="10" stroke-linecap="round" stroke-linejoin="round"/>
<path d="M355.979 84.1134C354.846 83.4934 353.973 82.5606 351.654 82.6145C349.336 82.6685 349.358 82.7601 348.608 83.0027C347.95 83.213 347.082 83.4287 346.117 84.2752C345.157 85.1217 348.791 84.3075 350.943 84.2428C351.902 84.2105 353.865 84.7766 355.326 85.0193C356.162 85.1594 356.227 84.2482 355.979 84.1134Z" fill="#240046"/>
<path opacity="0.2" d="M341.928 77.8534C341.992 77.4167 343.389 76.3707 343.389 76.3707C343.389 76.3707 344.748 74.9689 347.923 74.117C351.099 73.2651 351.725 74.6615 354.776 74.3488C357.828 74.0361 360.028 76.6673 360.75 78.2363C361.473 79.8052 362.379 84.8789 362.087 85.8494C361.796 86.8199 363.009 91.3921 363.009 91.3921C362.476 90.1035 361.57 88.6477 361.209 87.7958C360.869 86.9924 360.993 85.7685 360.934 84.9274C360.961 85.3587 361.063 85.2024 360.61 83.2452C360.61 83.2452 359.359 78.7862 356.221 77.3089C353.083 75.8315 348.263 76.155 344.942 77.0932C343.869 77.4005 343.055 77.3035 342.1 78.0907L341.928 77.8534Z" fill="white"/>
<path opacity="0.2" d="M342.796 71.1737C343.61 71.0497 344.16 71.6266 344.624 71.5727C344.813 71.5511 345.201 71.0766 345.201 71.0766L345.023 70.4134L343.535 69.6855L342.09 70.9796L342.796 71.1737Z" fill="white"/>
<path opacity="0.2" d="M360.842 75.8101C360.842 75.8101 360.276 73.3245 356.82 72.1922C356.82 72.1922 356.06 71.9981 356.448 71.5129C356.448 71.5129 354.642 71.9334 352.895 71.707C352.62 71.6692 352.491 71.4643 351.472 71.2217C350.668 71.033 349.601 71.2595 348.83 71.1031C348.803 71.0977 347.196 71.0006 346.57 70.785C345.95 70.5747 346.101 69.863 345.983 69.7713C345.347 69.2699 346.409 69.1998 346.295 69.1189C346.139 69.0111 347.73 70.4507 347.649 70.2512C347.271 69.3184 349.148 68.8925 348.954 68.5851C348.749 68.267 350.205 69.8738 350.205 69.8738L350.63 68.5851L352.809 70.2188L357.149 70.1541L357.893 70.4669L360.697 72.9255L361.754 74.9366L361.112 76.759L360.842 75.8101Z" fill="white"/>
<path d="M336.984 88.8257C336.984 88.8257 335.307 85.1377 336.283 81.3419C337.259 77.5462 338.709 75.6698 338.709 75.6698L339.96 74.9258C339.96 74.9258 338.984 74.6508 338.553 74.9258C338.122 75.2008 339.885 71.4804 343.638 72.0681C343.638 72.0681 342.532 71.0922 340.99 71.4804C340.99 71.4804 342.387 69.3669 344.851 70.855C344.851 70.855 343.95 69.836 343.168 69.6041C343.168 69.6041 344.457 69.41 345.557 70.4668C345.557 70.4668 345.476 68.9787 345.207 68.9787C345.207 68.9787 347.126 68.6282 347.476 69.9977C347.476 69.9977 347.514 68.9032 346.77 68.4719C346.77 68.4719 347.476 67.3773 349.04 70.1163L348.258 68.2562C348.258 68.2562 349.434 67.8842 350.215 69.5664C350.215 69.5664 350.41 68.9086 349.94 68.2184C349.94 68.2184 351.105 67.6847 352.28 69.685C352.28 69.685 353.262 70.3913 354.437 69.9977C355.613 69.6041 357.92 69.6473 359.64 70.8604C359.64 70.8604 358.422 70.5477 357.877 71.0976C357.877 71.0976 359.775 71.6476 360.568 72.3485C361.36 73.0548 361.969 74.3812 362.293 75.0066C362.611 75.6321 361.635 75.3571 361.635 75.3571C361.635 75.3571 362.428 76.6134 360.514 77.3359L360.341 77.0825C359.948 76.4732 359.635 76.182 359.031 75.7831C356.141 73.869 351.326 73.497 347.897 73.9499C345.703 74.241 343.336 75.8424 341.901 77.406C340.57 78.8617 342.775 82.0267 342.775 82.0267C340.613 84.3182 341.901 86.27 341.901 86.27C341.901 86.27 343.357 88.8742 340.985 90.7991L336.984 88.8257Z" stroke="#240046" stroke-width="0.513713" stroke-linejoin="round"/>
<path d="M362.168 82.9755C362.168 82.9755 361.931 77.697 359.041 75.7829C356.151 73.8688 351.336 73.4968 347.907 73.9497C345.713 74.2408 343.346 75.8422 341.912 77.4058C340.58 78.8616 342.785 82.0265 342.785 82.0265C340.623 84.318 341.912 86.2698 341.912 86.2698C341.912 86.2698 343.367 88.874 340.995 90.7989C340.995 90.7989 342.181 94.3952 342.408 95.6353C342.785 97.6518 343.616 102.542 345.443 103.254C348.015 104.246 351.563 104.381 353.682 104.505C355.256 104.596 358.346 104.963 359.969 104.294C361.592 103.626 362.675 99.2154 362.675 99.2154C362.675 99.2154 363.382 94.3898 363.549 92.9718C363.716 91.5591 362.638 88.7716 362.293 87.4776C362.071 86.6365 362.368 85.4395 362.433 84.5984C362.47 84.1886 362.168 82.9755 362.168 82.9755Z" stroke="#240046" stroke-width="0.513713" stroke-linejoin="round"/>
<path opacity="0.4" d="M341.793 88.4165C341.793 88.4165 343.211 94.2126 343.442 95.4527C343.82 97.4692 344.958 101.421 346.791 102.128C349.363 103.12 352.84 103.681 354.948 103.929C355.887 104.042 358.367 104.505 359.752 104.479C359.752 104.479 352.269 105.562 345.534 103.589C338.8 101.615 345.534 103.589 345.534 103.589C345.534 103.589 344.639 103.918 343.863 101.384C343.087 98.8495 341 90.0718 341 90.0718C341 90.0718 341.421 89.5919 341.496 89.414C341.722 88.9826 341.793 88.4165 341.793 88.4165Z" fill="black"/>
<path opacity="0.2" d="M348.436 84.0114C348.641 83.7796 348.905 83.483 349.45 83.2997C350 83.111 350.625 82.8953 352.097 83.0139C353.574 83.1379 354.405 83.3806 355.311 84.2864C356.216 85.1922 355.92 86.7342 355.92 86.7342C355.92 86.7342 355.656 88.0876 355.213 88.837C354.766 89.5865 354.523 89.9315 353.941 90.2712C353.353 90.6163 352.625 90.7187 352.625 90.7187C352.625 90.7187 351.806 90.956 350.501 90.6163C348.938 90.2119 348.382 88.8963 348.382 88.8963C348.382 88.8963 347.73 87.7209 347.67 86.6911C347.611 85.6613 347.627 85.1814 347.892 84.7123C348.156 84.2432 348.22 84.2163 348.361 84.0869C348.382 84.0707 348.42 84.0276 348.436 84.0114Z" fill="white"/>
<path d="M348.404 84.0756C348.404 84.0756 348.905 83.4825 349.45 83.2938C350 83.1051 350.625 82.8895 352.097 83.0081C353.574 83.1321 354.405 83.3747 355.311 84.2805C356.216 85.1863 355.92 86.7284 355.92 86.7284C355.92 86.7284 355.656 88.0817 355.213 88.8311C354.766 89.5806 354.523 89.9257 353.941 90.2654C353.353 90.6104 352.625 90.7129 352.625 90.7129C352.625 90.7129 351.806 90.9501 350.501 90.6104C348.938 90.206 348.382 88.8905 348.382 88.8905C348.382 88.8905 347.73 87.7151 347.67 86.6852C347.611 85.6554 347.627 85.1755 347.892 84.7065C348.156 84.2374 348.382 84.0918 348.382 84.0918L348.404 84.0756Z" stroke="#E1B554" stroke-width="0.256857" stroke-miterlimit="10"/>
<path d="M355.812 85.1056L356.642 84.6473C356.642 84.6473 358.12 84.437 358.702 84.8737C358.702 84.8737 358.767 85.4992 359.036 85.6879" stroke="#E1B554" stroke-width="0.128428" stroke-miterlimit="10"/>
<path d="M365.21 84.8037L366.11 84.8954L366.17 85.3698H365.566L365.21 84.8037Z" fill="#E1B554" stroke="#E1B554" stroke-width="0.256857" stroke-miterlimit="10"/>
<path opacity="0.2" d="M359.036 86.324C359.036 86.324 358.929 84.933 359.694 84.3237C360.46 83.7144 361.101 83.5742 361.101 83.5742C361.101 83.5742 362.131 83.3424 362.989 83.5742C363.846 83.8061 364.423 84.0703 364.849 84.5124C365.086 84.755 365.145 84.8898 365.28 85.1378C365.458 85.4721 365.544 85.9412 365.56 86.6314C365.577 87.3161 365.485 87.8175 365.485 87.8175C365.485 87.8175 365.345 88.7072 364.892 89.489C364.439 90.2708 363.77 90.5188 363.77 90.5188C363.77 90.5188 363.08 90.8207 362.304 90.7938C361.527 90.7668 360.762 90.2384 360.401 89.8448C360.072 89.4836 359.683 88.7988 359.446 88.141C359.209 87.494 359.036 86.324 359.036 86.324Z" fill="white"/>
<path opacity="0.2" d="M360.611 84.4695C360.643 84.3293 361.085 84.1352 361.085 84.1352C361.085 84.1352 361.29 84.049 361.619 83.9735C361.943 83.898 362.374 83.9681 362.374 83.9681C362.374 83.9681 362.816 84.0328 363.296 84.1784C363.776 84.3239 364.213 84.5666 364.412 84.7122C364.595 84.8416 364.795 85.0518 364.897 85.2244C365.005 85.3969 365.135 85.7312 365.037 85.6665C364.541 85.3214 364.153 85.1165 363.835 84.9763C363.56 84.8523 363.204 84.6367 362.66 84.5288C362.158 84.421 360.611 84.4695 360.611 84.4695Z" fill="white"/>
<path d="M347.389 84.6582L348.112 84.6474C348.204 84.3725 348.576 84.0166 348.576 84.0166H348.284C347.53 84.0328 347.158 84.0921 346.807 84.0597C346.457 84.0274 346.192 84.2377 346.192 84.2377L339.302 87.9795L339.426 88.179L345.826 85.0033C345.826 85.0033 345.977 85.0572 346.192 85.0249C346.408 84.9925 346.591 84.9062 346.591 84.9062C346.591 84.9062 346.71 84.7768 346.915 84.7445C347.125 84.7067 347.389 84.6582 347.389 84.6582Z" fill="#E1B554" stroke="#E1B554" stroke-width="0.256857" stroke-miterlimit="10"/>
<path opacity="0.4" d="M341.912 88.4756C341.912 88.4756 339.513 87.3164 338.817 86.5993C337.507 85.2514 336.644 83.0246 337.625 79.2288C337.739 78.7975 337.857 78.3877 337.976 78.0049C337.976 78.0049 335.032 80.9811 336.833 87.8718L339.728 88.1737L341.211 90.7941L341.912 88.4756Z" fill="black"/>
<path d="M359.036 86.324C359.036 86.324 358.929 84.933 359.694 84.3237C360.46 83.7144 361.101 83.5742 361.101 83.5742C361.101 83.5742 362.131 83.3424 362.989 83.5742C363.846 83.8061 364.423 84.0703 364.849 84.5124C365.086 84.755 365.145 84.8898 365.28 85.1378C365.458 85.4721 365.544 85.9412 365.56 86.6314C365.577 87.3161 365.485 87.8175 365.485 87.8175C365.485 87.8175 365.345 88.7072 364.892 89.489C364.439 90.2708 363.77 90.5188 363.77 90.5188C363.77 90.5188 363.08 90.8207 362.304 90.7938C361.527 90.7668 360.762 90.2384 360.401 89.8448C360.072 89.4836 359.683 88.7988 359.446 88.141C359.209 87.494 359.036 86.324 359.036 86.324Z" stroke="#E1B554" stroke-width="0.256857" stroke-miterlimit="10"/>
<path d="M339.729 88.4326C339.729 88.4326 339.319 88.341 338.338 88.1792C337.356 88.0175 336.812 89.0904 336.812 89.0904C336.812 89.0904 336.008 90.6756 336.812 91.948C337.615 93.2205 337.771 94.4498 339.491 95.334C341.211 96.2183 342.257 94.9836 342.257 94.9836C342.257 94.9836 340.413 89.1659 339.729 88.4326Z" fill="#FB8671"/>
<path opacity="0.3" d="M339.804 88.4487C339.804 88.4487 339.394 88.3571 338.413 88.1953C337.432 88.0336 336.887 89.1065 336.887 89.1065C336.887 89.1065 336.725 89.031 337.523 90.3035C338.321 91.5759 338.483 92.8053 340.203 93.6895C341.923 94.5684 341.632 93.091 341.632 93.091C341.632 93.091 340.489 89.182 339.804 88.4487Z" fill="black"/>
<path d="M339.729 88.4326C339.729 88.4326 339.319 88.341 338.338 88.1792C337.356 88.0175 336.812 89.0904 336.812 89.0904C336.812 89.0904 336.008 90.6756 336.812 91.948C337.615 93.2205 337.771 94.4498 339.491 95.334C341.211 96.2183 341.831 95.3287 341.831 95.3287C341.831 95.3287 340.413 89.1659 339.729 88.4326Z" stroke="#240046" stroke-width="0.513713" stroke-linejoin="round"/>
<path d="M357.737 85.9146C357.737 85.9146 358.351 86.3621 358.643 87.5375C358.934 88.7075 360.341 89.5863 360.546 90.4113C360.751 91.2308 360.4 91.6136 360.222 91.9048C360.044 92.1959 358.961 92.6974 358.961 92.6974C358.961 92.6974 357.877 92.0234 356.351 92.6974C354.825 93.3713 355.122 91.3225 355.267 91.1715" fill="#FB8671"/>
<path opacity="0.2" d="M357.483 85.9741C357.483 85.9741 358.001 87.1819 358.298 88.3519C358.589 89.5219 359.996 90.4007 360.201 91.2257C360.233 91.3551 360.255 91.4791 360.26 91.5869C360.298 92.1638 360.573 90.1635 360.427 90.4115L358.858 88.3034L358.184 86.6804L357.483 85.9741Z" fill="white"/>
<path d="M355.451 91.3552C355.305 91.5008 355.413 92.6492 356.939 91.9752C358.465 91.3013 359.549 91.9752 359.549 91.9752C359.549 91.9752 359.931 91.7973 360.277 91.5978C360.277 91.5978 360.287 92.5737 358.956 92.6762C357.624 92.784 357.705 92.4389 357.705 92.4389L355.591 92.9997C355.591 92.9997 354.95 92.5575 355.214 91.8782C355.473 91.1988 355.273 91.2473 355.273 91.2473L355.451 91.3552Z" fill="#C56858"/>
<path d="M357.737 85.9146C357.737 85.9146 358.351 86.3621 358.643 87.5375C358.934 88.7075 360.341 89.5863 360.546 90.4113C360.751 91.2308 360.4 91.6136 360.222 91.9048C360.044 92.1959 358.961 92.6974 358.961 92.6974C358.961 92.6974 357.877 92.0234 356.351 92.6974C354.825 93.3713 355.122 91.3225 355.267 91.1715" stroke="#C56858" stroke-width="0.256857" stroke-linecap="round" stroke-linejoin="round"/>
<path opacity="0.3" d="M343.297 102.953L343.469 101.443L345.723 103.6C345.723 103.6 353.352 104.953 358.782 104.888H359.451L360.955 107.999L361.683 108.436C361.214 109.579 360.75 110.436 359.974 110.76C358.351 111.428 355.261 111.062 353.687 110.97C351.568 110.846 348.015 110.717 345.448 109.719C343.615 109.013 343.669 104.969 343.297 102.953Z" fill="black"/>
<path opacity="0.2" d="M350.528 84.2596C350.561 84.1194 351.003 83.9253 351.003 83.9253C351.003 83.9253 351.208 83.839 351.537 83.7635C351.86 83.688 352.291 83.7581 352.291 83.7581C352.291 83.7581 352.734 83.8228 353.213 83.9684C353.693 84.114 354.13 84.3566 354.329 84.5022C354.513 84.6316 354.712 84.8419 354.815 85.0144C354.923 85.1869 355.052 85.5212 354.955 85.4565C354.459 85.1115 354.071 84.9066 353.753 84.7664C353.478 84.6424 353.122 84.4267 352.577 84.3189C352.07 84.2164 350.528 84.2596 350.528 84.2596Z" fill="white"/>
<path d="M314.058 133.507C314.058 133.507 307.685 132.472 311.158 136.748C311.158 136.748 314.948 137.928 314.058 133.507Z" fill="#240046"/>
<path opacity="0.3" d="M314.058 133.507C314.058 133.507 307.685 132.472 311.158 136.748C311.158 136.748 314.948 137.928 314.058 133.507Z" fill="black"/>
<path d="M310.279 134.403C310.587 131.502 327.565 134.883 336.117 136.77C339.427 137.503 342.818 137.789 346.204 137.627L362.585 136.856L362.072 130.623L361.053 129.399C361.053 129.399 342.139 108.151 336.467 97.5234L338.71 102.096L338.634 103.223L332.908 108.727L320.119 116.249L317.499 118.88L310.279 134.403Z" fill="#5A189A"/>
<path opacity="0.3" d="M317.579 119.673L314.193 131.853C316.592 131.917 328.109 133.4 336.121 136.775L314.974 133.303L310.688 133.54L317.579 119.673Z" fill="black"/>
<path d="M361.565 107.05C361.565 107.05 366.266 114.07 371.372 117.241C371.372 117.241 374.03 117.753 375.562 120.201C377.093 122.654 379.034 126.741 381.59 132.866C381.59 132.866 383.827 135.422 362.886 136.031L362.077 130.618L359.855 128.03C359.855 128.03 360.033 129.582 362.589 123.921C365.139 118.265 361.565 107.05 361.565 107.05Z" fill="#5A189A"/>
<path d="M340.074 102.581C340.074 102.581 350.604 106.069 357.791 120.476C357.791 120.476 358.012 110.156 361.118 107.74C364.223 105.325 363.49 117.602 363.49 117.602C363.49 117.602 363.366 125.161 360.972 126.789C358.573 128.418 352.814 119.775 352.814 119.775L340.074 102.581Z" fill="#9D4EDD"/>
<path opacity="0.3" d="M357.883 121.544C357.883 121.544 355.694 110.329 339.81 101.869L337.254 104.436C337.254 104.436 350.049 108.824 358.508 122.773" fill="black"/>
<path opacity="0.2" d="M359.452 111.325C359.452 111.325 359.872 111.897 360.611 112.776C360.886 113.105 361.204 113.477 361.565 113.876C363.253 115.757 365.798 118.292 368.661 120.065C368.661 120.065 371.319 120.578 372.85 123.025C374.333 125.403 375.816 128.681 378.253 134.499L381.358 133.108C381.358 133.108 376.694 120.534 373.745 118.701C370.796 116.868 367.431 114.544 367.431 114.544L361.646 107.454L360.498 108.484L359.452 111.325Z" fill="white"/>
<path d="M359.667 127.819C359.667 127.819 365.722 125.447 362.854 108.83" stroke="#240046" stroke-width="0.513713" stroke-miterlimit="10"/>
<path d="M310.279 134.403C310.587 131.502 327.565 134.883 336.117 136.77C339.427 137.503 342.818 137.789 346.204 137.627L362.585 136.856L362.072 130.624L361.053 129.4C361.053 129.4 345.256 111.44 338.214 100.273" stroke="#240046" stroke-width="0.513713" stroke-miterlimit="10"/>
<path d="M361.565 107.05C361.565 107.05 366.267 114.07 371.373 117.241C371.373 117.241 374.031 117.753 375.562 120.201C377.093 122.654 379.034 126.741 381.59 132.866C381.59 132.866 383.628 135.422 362.686 136.031" stroke="#240046" stroke-width="0.513713" stroke-miterlimit="10"/>
<path d="M339.011 101.875C339.011 101.875 338.068 105.287 328.26 111.623C328.26 111.623 319.676 114.993 317.94 118.875C316.204 122.757 310.279 134.403 310.279 134.403C310.279 134.403 308.542 136.139 313.648 137.465" stroke="#240046" stroke-width="0.513713" stroke-miterlimit="10"/>
<path d="M337.658 94.0508C337.658 94.0508 332.244 97.1133 342.154 103.244C352.064 109.374 356.453 117.241 356.453 117.241C356.453 117.241 357.203 118.432 357.51 119.559C357.817 120.681 360.406 128.714 360.406 128.714" stroke="#240046" stroke-width="0.513713" stroke-miterlimit="10"/>
<path d="M360.778 126.379C359.963 123.878 358.659 119.823 358.497 119.079C358.26 117.99 358.292 117.24 358.292 117.24C358.292 114.28 359.726 109.271 361.969 106.516C364.218 103.756 364.32 100.283 363.711 97.7278C363.571 97.1616 363.355 96.6764 363.101 96.2666" stroke="#240046" stroke-width="0.513713" stroke-miterlimit="10" stroke-linecap="round"/>
<defs>
<filter id="filter0_d" x="77.6063" y="69.2758" width="54.404" height="54.4452" filterUnits="userSpaceOnUse" color-interpolation-filters="sRGB">
<feFlood flood-opacity="0" result="BackgroundImageFix"/>
<feColorMatrix in="SourceAlpha" type="matrix" values="0 0 0 0 0 0 0 0 0 0 0 0 0 0 0 0 0 0 127 0"/>
<feOffset/>
<feGaussianBlur stdDeviation="2.1297"/>
<feColorMatrix type="matrix" values="0 0 0 0 1 0 0 0 0 1 0 0 0 0 1 0 0 0 0.4 0"/>
<feBlend mode="normal" in2="BackgroundImageFix" result="effect1_dropShadow"/>
<feBlend mode="normal" in="SourceGraphic" in2="effect1_dropShadow" result="shape"/>
</filter>
<filter id="filter1_d" x="84.2848" y="75.9586" width="41.045" height="41.08" filterUnits="userSpaceOnUse" color-interpolation-filters="sRGB">
<feFlood flood-opacity="0" result="BackgroundImageFix"/>
<feColorMatrix in="SourceAlpha" type="matrix" values="0 0 0 0 0 0 0 0 0 0 0 0 0 0 0 0 0 0 127 0"/>
<feOffset/>
<feGaussianBlur stdDeviation="0.532424"/>
<feColorMatrix type="matrix" values="0 0 0 0 1 0 0 0 0 1 0 0 0 0 1 0 0 0 0.2 0"/>
<feBlend mode="normal" in2="BackgroundImageFix" result="effect1_dropShadow"/>
<feBlend mode="normal" in="SourceGraphic" in2="effect1_dropShadow" result="shape"/>
</filter>
<radialGradient id="paint0_radial" cx="0" cy="0" r="1" gradientUnits="userSpaceOnUse" gradientTransform="translate(608.746 94.5455) rotate(152.136) scale(688.582 522.042)">
<stop stop-color="#3E3E70" stop-opacity="0.46"/>
<stop offset="1" stop-color="#3E3E70" stop-opacity="0"/>
</radialGradient>
</defs>
</svg>
