<svg width="720" height="416" viewBox="0 0 720 416" fill="none" xmlns="http://www.w3.org/2000/svg">
<rect width="720" height="416" transform="matrix(-1 0 0 1 720 0)" fill="#0C0E19"/>
<rect width="720" height="416" transform="matrix(-1 0 0 1 720 0)" fill="url(#paint0_radial)"/>
<path d="M131.944 358.151L109.479 380.144L109.44 416H187L131.944 358.151Z" fill="#232341"/>
<path d="M187 416L131.944 358.151L132.309 361.293L184.469 416H185.734H187Z" fill="#3E3E70"/>
<path d="M131.944 358.151L109.479 380.144L128.78 388.313L132.893 375.745L131.944 371.975L132.893 366.32L131.944 358.151Z" fill="#17172C"/>
<path d="M0 358.013L66.7728 303.172L124.818 385.137L130.825 393.62L146.674 416H118.38H0V358.013Z" fill="#232341"/>
<path d="M66.7728 303.172V313.735L62.2459 318.006L62.9249 342.055V358.013L43.6853 371.723L0 358.013L66.7728 303.172Z" fill="#17172C"/>
<path d="M26.4741 278L63.8216 339.808V374.196H6.3291L26.4741 278Z" fill="#232341"/>
<path d="M25.8164 281.142L26.4744 278L62.8347 338.174L62.967 341.466L25.8164 281.142Z" fill="#3E3E70"/>
<path d="M66.7734 304.429V306.314L128.085 392.891L128.78 390.478L128.527 390.374L66.7734 303.172V304.429Z" fill="#3E3E70"/>
<g filter="url(#filter0_d)">
<ellipse cx="104.808" cy="96.4984" rx="22.9426" ry="22.9632" fill="white" fill-opacity="0.6"/>
</g>
<g filter="url(#filter1_d)">
<ellipse cx="104.807" cy="96.4986" rx="19.4577" ry="19.4751" fill="white" fill-opacity="0.6"/>
</g>
<ellipse cx="104.808" cy="96.4983" rx="15.9727" ry="15.9871" fill="white"/>
<path d="M444.444 97.4429C445.14 97.4435 445.836 97.4856 446.527 97.5687C448.404 91.4518 454.042 87.2715 460.434 87.2584C462.026 87.2567 463.606 87.5213 465.11 88.0397C468.833 79.9824 477.655 75.6035 486.316 77.5144C494.978 79.4258 501.143 87.111 501.137 95.9878C501.136 97.522 500.945 99.05 500.57 100.536C508.822 101.797 514.718 109.2 514.105 117.533C513.492 125.866 506.577 132.325 498.23 132.362H444.444C434.81 132.362 427 124.545 427 114.902C427 105.26 434.81 97.4429 444.444 97.4429Z" fill="#232341"/>
<path d="M444.444 97.4429C445.14 97.4435 445.836 97.4856 446.527 97.5687C448.404 91.4518 454.042 87.2715 460.434 87.2584C462.026 87.2567 463.606 87.5213 465.11 88.0397C468.833 79.9824 477.655 75.6035 486.316 77.5144C494.978 79.4258 501.143 87.111 501.137 95.9878C501.136 97.522 500.945 99.05 500.57 100.536C508.822 101.797 514.718 109.2 514.105 117.533C513.492 125.866 506.577 132.325 498.23 132.362H444.444C434.81 132.362 427 124.545 427 114.902C427 105.26 434.81 97.4429 444.444 97.4429Z" fill="#3E3E70"/>
<path d="M444.178 99.1006C444.864 99.1012 445.548 99.1425 446.229 99.224C448.077 93.2225 453.629 89.1211 459.924 89.1082C461.491 89.1065 463.047 89.3662 464.528 89.8748C468.194 81.9694 476.882 77.6731 485.411 79.548C493.941 81.4234 500.012 88.9636 500.005 97.673C500.005 99.1782 499.817 100.677 499.448 102.136C507.574 103.373 513.38 110.636 512.776 118.811C512.173 126.987 505.363 133.325 497.143 133.361H444.178C434.691 133.361 427 125.692 427 116.231C427 106.77 434.691 99.1006 444.178 99.1006Z" fill="#141426"/>
<path d="M444.411 98.7245C445.107 98.725 445.801 98.7656 446.491 98.8455C448.364 92.957 453.991 88.9327 460.372 88.9201C461.96 88.9185 463.537 89.1732 465.038 89.6723C468.754 81.9157 477.56 77.7002 486.205 79.5397C494.85 81.3799 501.004 88.7782 500.997 97.3237C500.997 98.8006 500.806 100.272 500.432 101.702C508.669 102.916 514.553 110.042 513.941 118.064C513.33 126.087 506.428 132.305 498.096 132.34H444.411C434.795 132.34 427.001 124.815 427.001 115.532C427.001 106.249 434.795 98.7245 444.411 98.7245Z" fill="#2B2B4E"/>
<path d="M292.002 70.356C291.413 70.3565 290.824 70.389 290.239 70.4531C288.651 65.7304 283.879 62.5029 278.468 62.4928C277.121 62.4914 275.783 62.6958 274.51 63.096C271.359 56.8751 263.891 53.4942 256.561 54.9696C249.229 56.4454 244.011 62.379 244.016 69.2326C244.017 70.4171 244.178 71.5968 244.495 72.7444C237.511 73.718 232.52 79.4332 233.04 85.8668C233.558 92.3008 239.411 97.288 246.477 97.3166H292.002C300.157 97.3166 306.767 91.2811 306.767 83.8361C306.767 76.3911 300.157 70.356 292.002 70.356Z" fill="#232341"/>
<path d="M292.002 70.356C291.413 70.3565 290.824 70.389 290.239 70.4531C288.651 65.7304 283.879 62.5029 278.468 62.4928C277.121 62.4914 275.783 62.6958 274.51 63.096C271.359 56.8751 263.891 53.4942 256.561 54.9696C249.229 56.4454 244.011 62.379 244.016 69.2326C244.017 70.4171 244.178 71.5968 244.495 72.7444C237.511 73.718 232.52 79.4332 233.04 85.8668C233.558 92.3008 239.411 97.288 246.477 97.3166H292.002C300.157 97.3166 306.767 91.2811 306.767 83.8361C306.767 76.3911 300.157 70.356 292.002 70.356Z" fill="#3E3E70"/>
<path d="M292.228 71.6355C291.648 71.6359 291.068 71.6678 290.492 71.7307C288.928 67.0971 284.228 63.9305 278.9 63.9205C277.573 63.9193 276.257 64.1197 275.003 64.5124C271.9 58.4088 264.546 55.0917 257.327 56.5393C250.107 57.9872 244.969 63.8089 244.974 70.5332C244.975 71.6954 245.134 72.8528 245.446 73.9788C238.568 74.9341 233.654 80.5415 234.165 86.8537C234.675 93.1663 240.439 98.0595 247.397 98.0875H292.228C300.259 98.0875 306.768 92.1658 306.768 84.8613C306.768 77.5567 300.259 71.6355 292.228 71.6355Z" fill="#141426"/>
<path d="M292.032 71.3451C291.443 71.3455 290.856 71.3768 290.272 71.4385C288.686 66.8921 283.923 63.785 278.522 63.7753C277.178 63.774 275.843 63.9707 274.572 64.356C271.427 58.3673 263.973 55.1126 256.656 56.5329C249.339 57.9537 244.13 63.6658 244.136 70.2636C244.136 71.4039 244.297 72.5395 244.614 73.6443C237.642 74.5816 232.661 80.0835 233.18 86.2769C233.697 92.4708 239.539 97.2718 246.591 97.2993H292.032C300.171 97.2993 306.769 91.4891 306.769 84.322C306.769 77.1549 300.171 71.3451 292.032 71.3451Z" fill="#2B2B4E"/>
<path fill-rule="evenodd" clip-rule="evenodd" d="M124.463 27.7697L124.476 27.7697C125.535 27.7697 126.393 26.9108 126.393 25.8513V25.8507H126.393C126.394 25.498 126.68 25.2122 127.032 25.2122C127.379 25.2122 127.662 25.489 127.671 25.8341L127.671 25.8513C127.671 26.9108 128.529 27.7697 129.588 27.7697L129.601 27.7697C129.948 27.7772 130.226 28.0606 130.226 28.409C130.226 28.762 129.94 29.0482 129.588 29.0485V29.0488C129.588 29.0488 129.588 29.0488 129.588 29.0488C128.529 29.0488 127.671 29.9077 127.671 30.9672C127.671 30.9742 127.671 30.9811 127.671 30.9881C127.66 31.3316 127.378 31.6067 127.032 31.6067C126.68 31.6067 126.394 31.3204 126.394 30.9672L126.394 30.9666H126.393C126.393 29.9074 125.535 29.0488 124.476 29.0488V29.0485C124.124 29.0483 123.838 28.7621 123.838 28.409C123.838 28.0606 124.116 27.7772 124.463 27.7697Z" fill="#E1B554"/>
<path fill-rule="evenodd" clip-rule="evenodd" d="M188.006 29.5718L188.03 29.572C188.8 29.572 189.424 28.9474 189.424 28.1768L189.424 28.1533C189.436 27.9069 189.639 27.7107 189.888 27.7107C190.145 27.7107 190.353 27.9187 190.353 28.1754V28.1755H190.354L190.354 28.1768C190.354 28.9474 190.978 29.572 191.748 29.572L191.772 29.5718C192.017 29.5845 192.212 29.7874 192.212 30.0359C192.212 30.2924 192.004 30.5004 191.748 30.5005V30.501C190.978 30.501 190.354 31.1256 190.354 31.8961H190.353V31.8962C190.353 32.1528 190.145 32.3608 189.888 32.3608C189.639 32.3608 189.435 32.164 189.424 31.917L189.424 31.8962C189.424 31.1257 188.8 30.501 188.03 30.501H188.03V30.5005L188.03 30.5005C187.773 30.5005 187.565 30.2925 187.565 30.0359C187.565 29.7873 187.76 29.5843 188.006 29.5718Z" fill="#E1B554"/>
<path fill-rule="evenodd" clip-rule="evenodd" d="M151.6 49.5703C151.6 50.6298 152.458 51.4887 153.517 51.4887C154.575 51.4887 155.434 50.6298 155.434 49.5703C155.434 48.5108 154.575 47.6519 153.517 47.6519C152.458 47.6519 151.6 48.5108 151.6 49.5703Z" fill="#E1B554"/>
<path fill-rule="evenodd" clip-rule="evenodd" d="M38.8061 75.44H38.8063C40.346 75.44 41.5942 74.1907 41.5942 72.6495V72.6489H41.5947C41.5952 72.1356 42.0111 71.7197 42.524 71.7197C43.025 71.7197 43.4334 72.1165 43.4526 72.6132L43.4524 72.6495C43.4524 74.1907 44.7006 75.44 46.2404 75.44H46.2407V75.4403H46.2408C46.7541 75.4403 47.1702 75.8567 47.1702 76.3705C47.1702 76.8771 46.7654 77.2892 46.2619 77.3004C46.2547 77.3003 46.2476 77.3003 46.2404 77.3003C44.7006 77.3003 43.4524 78.5496 43.4524 80.0908C43.4524 80.1016 43.4525 80.1125 43.4526 80.1233C43.4356 80.6221 43.0263 81.0212 42.5238 81.0212C42.0106 81.0212 41.5945 80.6048 41.5945 80.0911L41.5945 80.0901H41.5933C41.5929 78.5493 40.3448 77.3003 38.8053 77.3003L38.7845 77.3004C38.2811 77.289 37.8765 76.877 37.8765 76.3705C37.8765 75.8567 38.2925 75.4403 38.8058 75.4403H38.8061V75.44Z" fill="#E1B554"/>
<path fill-rule="evenodd" clip-rule="evenodd" d="M84.8057 42.885C84.8057 44.4261 86.0539 45.6754 87.5936 45.6754C89.1334 45.6754 90.3816 44.4261 90.3816 42.885C90.3816 41.3438 89.1334 40.0945 87.5936 40.0945C86.0539 40.0945 84.8057 41.3438 84.8057 42.885Z" fill="#E1B554"/>
<path fill-rule="evenodd" clip-rule="evenodd" d="M109.666 52.1862H109.666C111.206 52.1862 112.454 50.9369 112.454 49.3958V49.3949H112.455C112.455 48.8817 112.871 48.4658 113.384 48.4658C113.882 48.4658 114.289 48.8584 114.312 49.3514C114.312 49.3661 114.312 49.3809 114.312 49.3958C114.312 50.9369 115.56 52.1862 117.1 52.1862H117.101V52.187C117.613 52.1874 118.029 52.6037 118.029 53.1171C118.029 53.6245 117.623 54.0369 117.119 54.0471C117.112 54.047 117.106 54.047 117.1 54.047C115.56 54.047 114.312 55.2964 114.312 56.8375C114.312 56.8514 114.312 56.8652 114.312 56.879C114.29 57.3733 113.883 57.7674 113.384 57.7674C112.87 57.7674 112.454 57.351 112.454 56.8373L112.454 56.8362H112.454C112.453 55.2957 111.205 54.047 109.666 54.047L109.647 54.0471C109.142 54.037 108.736 53.6245 108.736 53.1171C108.736 52.6034 109.152 52.187 109.666 52.187H109.666V52.1862Z" fill="#E1B554"/>
<path fill-rule="evenodd" clip-rule="evenodd" d="M401.497 70.0595V70.0594C401.849 70.0592 402.135 69.773 402.135 69.4199C402.135 69.0669 401.849 68.7807 401.497 68.7805V68.78C400.438 68.7799 399.58 67.9214 399.58 66.8623H399.58V66.862C399.58 66.5088 399.294 66.2225 398.941 66.2225C398.595 66.2225 398.313 66.4976 398.302 66.841C398.302 66.8478 398.302 66.8547 398.302 66.8615C398.302 67.921 397.444 68.78 396.385 68.78C396.385 68.78 396.385 68.78 396.385 68.78V68.7805C396.033 68.7808 395.747 69.067 395.747 69.4199C395.747 69.7729 396.033 70.0591 396.385 70.0594V70.0595H396.385C397.444 70.0595 398.302 70.9184 398.302 71.9779L398.302 71.9949C398.311 72.3399 398.594 72.6167 398.941 72.6167C399.293 72.6167 399.579 72.3309 399.58 71.9781H399.58V71.9779C399.58 70.9184 400.438 70.0595 401.497 70.0595Z" fill="#E1B554"/>
<path fill-rule="evenodd" clip-rule="evenodd" d="M669.073 60.5641V60.5641C669.426 60.5639 669.712 60.2777 669.712 59.9246C669.712 59.5716 669.426 59.2853 669.073 59.2851V59.2846C668.015 59.2846 667.157 58.4262 667.157 57.3672H667.156L667.156 57.3667C667.156 57.0135 666.87 56.7272 666.517 56.7272C666.171 56.7272 665.89 57.0022 665.879 57.3457C665.879 57.3525 665.879 57.3593 665.879 57.3662C665.879 58.4257 665.021 59.2846 663.962 59.2846C663.962 59.2846 663.962 59.2846 663.962 59.2846V59.2851C663.609 59.2854 663.324 59.5716 663.324 59.9246C663.324 60.2776 663.609 60.5638 663.962 60.5641V60.5641H663.962C665.021 60.5641 665.879 61.4231 665.879 62.4826L665.879 62.4997C665.888 62.8447 666.17 63.1216 666.517 63.1216C666.87 63.1216 667.156 62.8358 667.156 62.483H667.157V62.4826C667.157 61.4231 668.015 60.5642 669.073 60.5641Z" fill="#E1B554"/>
<path fill-rule="evenodd" clip-rule="evenodd" d="M305.925 108.888V108.888C306.278 108.888 306.563 108.601 306.563 108.248C306.563 107.895 306.278 107.609 305.925 107.609V107.608C304.867 107.608 304.009 106.75 304.008 105.691H304.008L304.008 105.69C304.008 105.337 303.722 105.05 303.369 105.05C303.023 105.05 302.741 105.325 302.73 105.669C302.73 105.676 302.73 105.683 302.73 105.69C302.73 106.749 301.872 107.608 300.814 107.608C300.814 107.608 300.814 107.608 300.814 107.608V107.609C300.461 107.609 300.175 107.895 300.175 108.248C300.175 108.601 300.461 108.887 300.814 108.888V108.888H300.814C301.872 108.888 302.73 109.747 302.73 110.806L302.73 110.823C302.74 111.168 303.022 111.445 303.369 111.445C303.722 111.445 304.007 111.16 304.008 110.807H304.008V110.806C304.008 109.747 304.866 108.888 305.925 108.888Z" fill="#E1B554"/>
<path fill-rule="evenodd" clip-rule="evenodd" d="M337.965 68.257L337.943 68.2568C337.173 68.2568 336.549 68.8815 336.549 69.6521L336.549 69.6741C336.538 69.9212 336.335 70.1182 336.085 70.1182C335.828 70.1182 335.62 69.9101 335.62 69.6535V69.6533H335.619L335.619 69.6521C335.619 68.8816 334.995 68.2569 334.225 68.2569L334.205 68.257C333.958 68.2464 333.761 68.0426 333.761 67.7928C333.761 67.5363 333.969 67.3283 334.225 67.3281V67.3275C334.995 67.3272 335.619 66.7029 335.619 65.9327H335.62C335.62 65.6761 335.828 65.4681 336.085 65.4681C336.335 65.4681 336.539 65.6657 336.549 65.9133L336.549 65.9322C336.549 66.7027 337.173 67.3274 337.943 67.3274V67.3281L337.944 67.3281C338.2 67.3281 338.408 67.5362 338.408 67.7928C338.408 68.0424 338.211 68.246 337.965 68.257Z" fill="#E1B554"/>
<path fill-rule="evenodd" clip-rule="evenodd" d="M220.392 49.0123H220.392C219.622 49.0123 218.998 49.637 218.998 50.4076L218.998 50.4316C218.986 50.6772 218.783 50.8726 218.534 50.8726C218.278 50.8726 218.07 50.6645 218.07 50.4079V50.4077H218.069V50.4076C218.069 49.637 217.445 49.0124 216.675 49.0123V49.0122C216.418 49.0121 216.21 48.8041 216.21 48.5476C216.21 48.291 216.418 48.083 216.675 48.0829V48.0822C217.445 48.0822 218.069 47.4576 218.069 46.6871H218.069V46.687C218.069 46.4304 218.277 46.2224 218.534 46.2224C218.784 46.2224 218.987 46.4192 218.998 46.6662L218.998 46.687C218.998 47.4575 219.622 48.0822 220.392 48.0822H220.392V48.0829L220.393 48.0829C220.649 48.0829 220.857 48.2909 220.857 48.5476C220.857 48.8042 220.649 49.0122 220.393 49.0122L220.392 49.0122V49.0123Z" fill="#E1B554"/>
<path fill-rule="evenodd" clip-rule="evenodd" d="M372.456 51.4559V51.4558L372.456 51.4558C372.809 51.4558 373.095 51.1695 373.095 50.8163C373.095 50.4632 372.809 50.1769 372.456 50.1769L372.456 50.1769V50.1768C371.398 50.1762 370.54 49.3177 370.54 48.2587H370.539V48.2584C370.539 47.9052 370.253 47.6189 369.9 47.6189C369.547 47.6189 369.261 47.9052 369.261 48.2584V48.2587H369.261C369.261 49.318 368.403 50.1766 367.344 50.1768V50.1769C366.992 50.1772 366.706 50.4634 366.706 50.8163C366.706 51.1693 366.992 51.4555 367.344 51.4558V51.4559C368.403 51.4561 369.261 52.3149 369.261 53.3743V53.3746H369.261C369.261 53.7276 369.547 54.0137 369.9 54.0137C370.252 54.0137 370.538 53.7276 370.539 53.3746H370.54V53.3743C370.54 52.3152 371.398 51.4565 372.456 51.4559Z" fill="#E1B554"/>
<path fill-rule="evenodd" clip-rule="evenodd" d="M519.394 40.9508V40.9508L519.395 40.9508C519.748 40.9508 520.034 40.6645 520.034 40.3113C520.034 39.9632 519.756 39.6801 519.41 39.672L519.395 39.6721C518.337 39.6721 517.479 38.8133 517.479 37.7539H517.477L517.477 37.7531C517.477 37.3999 517.191 37.1136 516.838 37.1136C516.485 37.1136 516.199 37.3999 516.199 37.7531L516.199 37.7539H516.199C516.199 38.8133 515.341 39.6721 514.282 39.6721C514.278 39.6721 514.273 39.672 514.268 39.672C513.922 39.6802 513.645 39.9633 513.645 40.3113C513.645 40.6643 513.93 40.9505 514.283 40.9508V40.9508C515.341 40.9511 516.199 41.8099 516.199 42.8693V42.8697H516.199C516.2 43.2227 516.486 43.5088 516.838 43.5088C517.191 43.5088 517.477 43.2227 517.477 42.8697H517.479V42.8693C517.479 41.8101 518.336 40.9514 519.394 40.9508Z" fill="#E1B554"/>
<path fill-rule="evenodd" clip-rule="evenodd" d="M629.745 49.3479L629.721 49.3477C628.951 49.3477 628.327 49.9723 628.327 50.7429L628.327 50.7663C628.316 51.0127 628.113 51.209 627.863 51.209C627.607 51.209 627.399 51.0009 627.399 50.7443V50.7442H627.398L627.398 50.7429C627.398 49.9723 626.774 49.3477 626.004 49.3477L625.981 49.3478C625.735 49.3355 625.54 49.1324 625.54 48.8838C625.54 48.6274 625.748 48.4195 626.004 48.4191V48.4184C626.774 48.4184 627.398 47.7939 627.398 47.0235H627.398C627.399 46.767 627.607 46.5591 627.863 46.5591C628.113 46.5591 628.316 46.7559 628.327 47.0028L628.327 47.0232C628.327 47.7938 628.951 48.4184 629.721 48.4184H629.721V48.4191L629.722 48.4191C629.978 48.4191 630.187 48.6272 630.187 48.8838C630.187 49.1326 629.991 49.3357 629.745 49.3479Z" fill="#E1B554"/>
<path fill-rule="evenodd" clip-rule="evenodd" d="M664.205 111.888L664.182 111.888C663.412 111.888 662.788 112.512 662.788 113.283L662.788 113.306C662.776 113.553 662.573 113.749 662.324 113.749C662.067 113.749 661.859 113.541 661.859 113.284V113.284H661.858L661.858 113.283C661.858 112.512 661.234 111.888 660.464 111.888L660.442 111.888C660.196 111.876 660 111.673 660 111.424C660 111.167 660.208 110.959 660.464 110.959V110.958C661.234 110.958 661.858 110.334 661.858 109.564H661.859C661.859 109.307 662.067 109.099 662.324 109.099C662.573 109.099 662.777 109.296 662.788 109.543L662.788 109.563C662.788 110.334 663.412 110.958 664.182 110.958H664.182V110.959L664.182 110.959C664.439 110.959 664.647 111.167 664.647 111.424C664.647 111.673 664.451 111.876 664.205 111.888Z" fill="#E1B554"/>
<path fill-rule="evenodd" clip-rule="evenodd" d="M704.207 128.903L704.182 128.903C703.412 128.903 702.788 129.528 702.788 130.298L702.788 130.322C702.776 130.568 702.573 130.764 702.324 130.764C702.067 130.764 701.859 130.556 701.859 130.299V130.299H701.858L701.858 130.298C701.858 129.528 701.234 128.903 700.464 128.903L700.44 128.903C700.195 128.89 700 128.687 700 128.439C700 128.183 700.208 127.975 700.464 127.974V127.974C701.234 127.974 701.858 127.349 701.858 126.579H701.859C701.859 126.322 702.067 126.114 702.324 126.114C702.573 126.114 702.777 126.311 702.788 126.558L702.788 126.578C702.788 127.349 703.412 127.974 704.182 127.974H704.182V127.974L704.182 127.974C704.439 127.974 704.647 128.182 704.647 128.439C704.647 128.687 704.452 128.89 704.207 128.903Z" fill="#E1B554"/>
<path fill-rule="evenodd" clip-rule="evenodd" d="M664.248 32.5466L664.235 32.5466C663.176 32.5466 662.318 33.4055 662.318 34.465V34.4657H662.316C662.316 34.8187 662.03 35.1047 661.678 35.1047C661.325 35.1047 661.039 34.8187 661.039 34.4657H661.039V34.465C661.039 33.4055 660.18 32.5466 659.122 32.5466L659.109 32.5466C658.762 32.539 658.484 32.2557 658.484 31.9073C658.484 31.5592 658.762 31.2761 659.108 31.268C659.112 31.268 659.117 31.268 659.122 31.268C660.18 31.268 661.038 30.4092 661.039 29.3498H661.039L661.039 29.3491C661.039 28.9959 661.325 28.7096 661.677 28.7096C662.03 28.7096 662.316 28.9959 662.316 29.3491L662.316 29.3498H662.318C662.318 30.4092 663.176 31.268 664.235 31.268L664.249 31.268C664.595 31.276 664.873 31.5592 664.873 31.9073C664.873 32.2558 664.595 32.5391 664.248 32.5466Z" fill="#E1B554"/>
<path fill-rule="evenodd" clip-rule="evenodd" d="M211.486 87.8773L211.465 87.8772C210.406 87.8772 209.548 88.7361 209.548 89.7957L209.548 89.7965H209.547C209.547 90.1495 209.261 90.4355 208.908 90.4355C208.555 90.4355 208.269 90.1495 208.269 89.7965H208.269V89.7961C208.269 88.7368 207.411 87.8779 206.353 87.8777V87.8777C206 87.8773 205.714 87.5911 205.714 87.2382C205.714 86.8852 206 86.599 206.353 86.5987V86.5987C206.353 86.5987 206.353 86.5987 206.353 86.5987C207.411 86.5987 208.269 85.7398 208.269 84.6802C208.269 84.6733 208.269 84.6663 208.269 84.6594C208.28 84.3158 208.562 84.0407 208.908 84.0407C209.261 84.0407 209.547 84.327 209.547 84.6802L209.547 84.6806H209.548C209.549 85.7396 210.406 86.5981 211.464 86.5987V86.5987L211.465 86.5987C211.817 86.5987 212.104 86.885 212.104 87.2382C212.104 87.5843 211.829 87.8663 211.486 87.8773Z" fill="#E1B554"/>
<path fill-rule="evenodd" clip-rule="evenodd" d="M487.168 22.3892H487.167C485.628 22.3892 484.379 23.6386 484.379 25.1797V25.1805H484.379C484.378 25.6937 483.963 26.1096 483.45 26.1096C482.951 26.1096 482.545 25.717 482.521 25.224C482.522 25.2092 482.522 25.1945 482.522 25.1797C482.522 23.6386 481.274 22.3892 479.734 22.3892H479.733V22.3887H479.733C479.22 22.3887 478.803 21.9723 478.803 21.4586C478.803 20.9536 479.205 20.5426 479.707 20.5288C479.716 20.5289 479.725 20.5289 479.734 20.5289C481.274 20.5289 482.522 19.2796 482.522 17.7384C482.522 17.7245 482.522 17.7105 482.521 17.6966C482.543 17.2022 482.951 16.808 483.45 16.808C483.963 16.808 484.379 17.2245 484.379 17.7382L484.379 17.7392H484.381C484.381 19.28 485.629 20.5289 487.169 20.5289L487.194 20.5288C487.695 20.5429 488.097 20.9538 488.097 21.4586C488.097 21.9723 487.681 22.3887 487.168 22.3887H487.168V22.3892Z" fill="#E1B554"/>
<path fill-rule="evenodd" clip-rule="evenodd" d="M694.777 93.8232H694.777C693.237 93.8232 691.989 95.0725 691.989 96.6136V96.6143H691.989C691.989 97.1278 691.573 97.5439 691.06 97.5439C690.561 97.5439 690.154 97.1513 690.131 96.6582C690.131 96.6434 690.132 96.6285 690.132 96.6136C690.132 95.0725 688.883 93.8232 687.344 93.8232H687.343V93.8229H687.343C686.829 93.8229 686.413 93.4065 686.413 92.8928C686.413 92.3851 686.82 91.9725 687.324 91.9628C687.331 91.9628 687.338 91.9629 687.345 91.9629C688.884 91.9629 690.133 90.7135 690.133 89.1724C690.133 89.1538 690.132 89.1352 690.132 89.1167C690.161 88.629 690.565 88.2425 691.06 88.2425C691.573 88.2425 691.989 88.6589 691.989 89.1726V89.1731H691.991C691.991 90.7139 693.239 91.9629 694.779 91.9629L694.797 91.9628C695.301 91.9729 695.707 92.3854 695.707 92.8928C695.707 93.4065 695.291 93.8229 694.778 93.8229H694.777V93.8232Z" fill="#E1B554"/>
<path fill-rule="evenodd" clip-rule="evenodd" d="M438.378 59.5952V59.5951H438.378C438.892 59.5951 439.308 59.1786 439.308 58.6649C439.308 58.1562 438.9 57.7429 438.393 57.7349L438.379 57.7349C436.839 57.7349 435.591 56.4859 435.591 54.9451H435.591L435.591 54.9443C435.591 54.4306 435.175 54.0141 434.661 54.0141C434.148 54.0141 433.732 54.4306 433.732 54.9443L433.732 54.9451H433.732C433.731 56.4859 432.483 57.7349 430.944 57.7349C430.939 57.7349 430.934 57.7349 430.929 57.7349C430.423 57.7429 430.015 58.1562 430.015 58.6649C430.015 59.1783 430.431 59.5946 430.943 59.5951V59.5952H430.944C432.483 59.5952 433.732 60.8445 433.732 62.3857V62.3863H433.732C433.732 62.8995 434.148 63.3154 434.661 63.3154C435.174 63.3154 435.59 62.8995 435.59 62.3863H435.591V62.3857C435.591 60.8448 436.839 59.5957 438.378 59.5952Z" fill="#E1B554"/>
<path fill-rule="evenodd" clip-rule="evenodd" d="M258.158 108.531V108.53H258.159C258.672 108.53 259.088 108.114 259.088 107.6C259.088 107.097 258.689 106.687 258.191 106.67L258.16 106.67C256.62 106.67 255.372 105.421 255.372 103.88H255.371C255.371 103.366 254.955 102.95 254.442 102.95C253.935 102.95 253.522 103.356 253.512 103.861C253.512 103.868 253.512 103.874 253.512 103.88C253.512 105.421 252.264 106.67 250.724 106.67C250.714 106.67 250.703 106.67 250.692 106.67C250.194 106.687 249.795 107.097 249.795 107.6C249.795 108.113 250.211 108.53 250.724 108.53V108.531H250.724C252.264 108.531 253.512 109.781 253.512 111.322L253.512 111.344C253.525 111.847 253.936 112.251 254.441 112.251C254.954 112.251 255.37 111.835 255.371 111.321H255.372C255.372 109.781 256.619 108.532 258.158 108.531Z" fill="#E1B554"/>
<path fill-rule="evenodd" clip-rule="evenodd" d="M287.546 51.8035V51.8033H287.547C288.06 51.8033 288.476 51.3869 288.476 50.8732C288.476 50.3655 288.07 49.9528 287.565 49.9432L287.547 49.9432C286.008 49.9432 284.76 48.6943 284.759 47.1535H284.759L284.759 47.1525C284.759 46.6388 284.343 46.2224 283.83 46.2224C283.316 46.2224 282.9 46.6388 282.9 47.1525L282.9 47.1535H282.9C282.9 48.6943 281.652 49.9432 280.112 49.9432C280.106 49.9432 280.1 49.9432 280.095 49.9432C279.59 49.9528 279.183 50.3655 279.183 50.8732C279.183 51.3866 279.599 51.8028 280.112 51.8033V51.8035H280.112C281.652 51.8035 282.9 53.0529 282.9 54.594V54.5948H282.9C282.901 55.108 283.317 55.5239 283.83 55.5239C284.342 55.5239 284.758 55.108 284.759 54.5948H284.759V54.594C284.759 53.0532 286.007 51.804 287.546 51.8035Z" fill="#E1B554"/>
<path fill-rule="evenodd" clip-rule="evenodd" d="M606.635 28.6923L606.615 28.6922C605.075 28.6922 603.827 29.9416 603.827 31.4827L603.827 31.4837H603.826C603.825 31.997 603.409 32.4128 602.897 32.4128C602.39 32.4128 601.978 32.0072 601.967 31.5028L601.968 31.4827C601.968 29.9416 600.719 28.6922 599.18 28.6922L599.158 28.6923C598.655 28.6811 598.25 28.2691 598.25 27.7624C598.25 27.2489 598.666 26.8326 599.179 26.8322V26.8319C599.179 26.8319 599.179 26.8319 599.18 26.8319C600.719 26.8319 601.968 25.5826 601.968 24.0415C601.968 24.0352 601.968 24.029 601.967 24.0228C601.977 23.5177 602.39 23.1114 602.897 23.1114C603.41 23.1114 603.826 23.5278 603.826 24.0415L603.826 24.0425H603.827C603.827 25.5827 605.075 26.8313 606.613 26.8319V26.8322H606.614C607.127 26.8322 607.543 27.2487 607.543 27.7624C607.543 28.269 607.138 28.681 606.635 28.6923Z" fill="#E1B554"/>
<path fill-rule="evenodd" clip-rule="evenodd" d="M639.363 82.6501V82.6499H639.363C639.876 82.6499 640.292 82.2334 640.292 81.7197C640.292 81.2115 639.885 80.7984 639.379 80.7897L639.364 80.7898C637.825 80.7898 636.577 79.5409 636.576 78.0002H636.575L636.575 77.9991C636.575 77.4854 636.159 77.069 635.646 77.069C635.139 77.069 634.727 77.4753 634.717 77.9804C634.717 77.9867 634.717 77.993 634.717 77.9993C634.717 79.5404 633.469 80.7898 631.929 80.7898C631.924 80.7898 631.918 80.7897 631.913 80.7897C631.407 80.7983 631 81.2114 631 81.7197C631 82.2332 631.415 82.6495 631.928 82.6499V82.6501H631.929C633.469 82.6501 634.717 83.8994 634.717 85.4405L634.717 85.4606C634.728 85.965 635.14 86.3706 635.646 86.3706C636.159 86.3706 636.575 85.9547 636.575 85.4415H636.576L636.576 85.4405C636.576 83.8998 637.824 82.6507 639.363 82.6501Z" fill="#E1B554"/>
<path fill-rule="evenodd" clip-rule="evenodd" d="M707.363 163.723V163.723H707.363C707.876 163.723 708.292 163.307 708.292 162.793C708.292 162.285 707.885 161.872 707.379 161.863L707.364 161.863C705.824 161.863 704.576 160.614 704.576 159.073V159.072H704.575V159.072C704.575 158.559 704.159 158.142 703.646 158.142C703.139 158.142 702.727 158.549 702.717 159.054C702.717 159.06 702.717 159.066 702.717 159.073C702.717 160.614 701.469 161.863 699.929 161.863C699.924 161.863 699.918 161.863 699.913 161.863C699.407 161.871 699 162.285 699 162.793C699 163.306 699.415 163.723 699.928 163.723V163.723L699.929 163.723C701.469 163.723 702.717 164.973 702.717 166.514L702.717 166.534C702.728 167.038 703.14 167.444 703.646 167.444C704.159 167.444 704.575 167.027 704.575 166.514H704.576C704.576 164.973 705.824 163.724 707.363 163.723Z" fill="#E1B554"/>
<path fill-rule="evenodd" clip-rule="evenodd" d="M416.307 45.6427H416.307C414.767 45.6427 413.519 46.892 413.519 48.4331H413.518V48.4331C413.518 48.9468 413.102 49.3633 412.589 49.3633C412.09 49.3633 411.684 48.9707 411.661 48.4776C411.661 48.4628 411.661 48.448 411.661 48.4332C411.661 46.8921 410.413 45.6427 408.873 45.6427L408.872 45.6427V45.642C408.359 45.6416 407.944 45.2253 407.944 44.7119C407.944 44.1984 408.359 43.7822 408.872 43.7817V40.9918H411.66V40.9917C411.66 40.9777 411.66 40.9638 411.661 40.9499" fill="#E1B554"/>
<path fill-rule="evenodd" clip-rule="evenodd" d="M698.976 70.7126H698.975C697.436 70.7126 696.188 71.9618 696.188 73.5029H696.187L694.33 73.5029C694.33 71.9619 693.082 70.7126 691.542 70.7126L691.541 70.7126V70.7118C691.028 70.7114 690.613 70.2951 690.613 69.7817C690.613 69.2742 691.019 68.8617 691.523 68.8517C691.529 68.8518 691.536 68.8518 691.542 68.8518C693.082 68.8518 694.33 67.6024 694.33 66.0613C694.33 66.0474 694.33 66.0336 694.33 66.0198C694.351 65.5255 694.759 65.1314 695.258 65.1314C695.771 65.1314 696.187 65.5478 696.187 66.0616V66.0617H696.188C696.188 67.6026 697.436 68.8518 698.975 68.8518L698.995 68.8517C699.499 68.8616 699.905 69.2742 699.905 69.7817C699.905 70.2954 699.489 70.7118 698.976 70.7118H698.976V70.7126Z" fill="#E1B554"/>
<defs>
<filter id="filter0_d" x="77.6063" y="69.2758" width="54.404" height="54.4452" filterUnits="userSpaceOnUse" color-interpolation-filters="sRGB">
<feFlood flood-opacity="0" result="BackgroundImageFix"/>
<feColorMatrix in="SourceAlpha" type="matrix" values="0 0 0 0 0 0 0 0 0 0 0 0 0 0 0 0 0 0 127 0"/>
<feOffset/>
<feGaussianBlur stdDeviation="2.1297"/>
<feColorMatrix type="matrix" values="0 0 0 0 1 0 0 0 0 1 0 0 0 0 1 0 0 0 0.4 0"/>
<feBlend mode="normal" in2="BackgroundImageFix" result="effect1_dropShadow"/>
<feBlend mode="normal" in="SourceGraphic" in2="effect1_dropShadow" result="shape"/>
</filter>
<filter id="filter1_d" x="84.2848" y="75.9586" width="41.045" height="41.08" filterUnits="userSpaceOnUse" color-interpolation-filters="sRGB">
<feFlood flood-opacity="0" result="BackgroundImageFix"/>
<feColorMatrix in="SourceAlpha" type="matrix" values="0 0 0 0 0 0 0 0 0 0 0 0 0 0 0 0 0 0 127 0"/>
<feOffset/>
<feGaussianBlur stdDeviation="0.532424"/>
<feColorMatrix type="matrix" values="0 0 0 0 1 0 0 0 0 1 0 0 0 0 1 0 0 0 0.2 0"/>
<feBlend mode="normal" in2="BackgroundImageFix" result="effect1_dropShadow"/>
<feBlend mode="normal" in="SourceGraphic" in2="effect1_dropShadow" result="shape"/>
</filter>
<radialGradient id="paint0_radial" cx="0" cy="0" r="1" gradientUnits="userSpaceOnUse" gradientTransform="translate(608.746 94.5455) rotate(152.136) scale(688.582 522.042)">
<stop stop-color="#3E3E70" stop-opacity="0.46"/>
<stop offset="1" stop-color="#3E3E70" stop-opacity="0"/>
</radialGradient>
</defs>
</svg>
