<svg width="720" height="416" viewBox="0 0 720 416" fill="none" xmlns="http://www.w3.org/2000/svg">
<rect width="720" height="416" transform="matrix(-1 0 0 1 720 0)" fill="#0C0E19"/>
<rect width="720" height="416" transform="matrix(-1 0 0 1 720 0)" fill="url(#paint0_radial)"/>
<path d="M131.944 358.151L109.479 380.144L109.44 416H187L131.944 358.151Z" fill="#232341"/>
<path d="M187 416L131.944 358.151L132.309 361.293L184.469 416H185.734H187Z" fill="#3E3E70"/>
<path d="M131.944 358.151L109.479 380.144L128.78 388.313L132.893 375.745L131.944 371.975L132.893 366.32L131.944 358.151Z" fill="#17172C"/>
<path d="M0 358.013L66.7728 303.172L124.818 385.137L130.825 393.62L146.674 416H118.38H0V358.013Z" fill="#232341"/>
<path d="M66.7728 303.172V313.735L62.2459 318.006L62.9249 342.055V358.013L43.6853 371.723L0 358.013L66.7728 303.172Z" fill="#17172C"/>
<path d="M26.4741 278L63.8216 339.808V374.196H6.3291L26.4741 278Z" fill="#232341"/>
<path d="M25.8164 281.142L26.4744 278L62.8347 338.174L62.967 341.466L25.8164 281.142Z" fill="#3E3E70"/>
<path d="M66.7734 304.429V306.314L128.085 392.891L128.78 390.478L128.527 390.374L66.7734 303.172V304.429Z" fill="#3E3E70"/>
<g filter="url(#filter0_d)">
<ellipse cx="104.808" cy="96.4984" rx="22.9426" ry="22.9632" fill="white" fill-opacity="0.6"/>
</g>
<g filter="url(#filter1_d)">
<ellipse cx="104.807" cy="96.4986" rx="19.4577" ry="19.4751" fill="white" fill-opacity="0.6"/>
</g>
<ellipse cx="104.808" cy="96.4983" rx="15.9727" ry="15.9871" fill="white"/>
<path d="M444.444 97.4429C445.14 97.4435 445.836 97.4856 446.527 97.5687C448.404 91.4518 454.042 87.2715 460.434 87.2584C462.026 87.2567 463.606 87.5213 465.11 88.0397C468.833 79.9824 477.655 75.6035 486.316 77.5144C494.978 79.4258 501.143 87.111 501.137 95.9878C501.136 97.522 500.945 99.05 500.57 100.536C508.822 101.797 514.718 109.2 514.105 117.533C513.492 125.866 506.577 132.325 498.23 132.362H444.444C434.81 132.362 427 124.545 427 114.902C427 105.26 434.81 97.4429 444.444 97.4429Z" fill="#232341"/>
<path d="M444.444 97.4429C445.14 97.4435 445.836 97.4856 446.527 97.5687C448.404 91.4518 454.042 87.2715 460.434 87.2584C462.026 87.2567 463.606 87.5213 465.11 88.0397C468.833 79.9824 477.655 75.6035 486.316 77.5144C494.978 79.4258 501.143 87.111 501.137 95.9878C501.136 97.522 500.945 99.05 500.57 100.536C508.822 101.797 514.718 109.2 514.105 117.533C513.492 125.866 506.577 132.325 498.23 132.362H444.444C434.81 132.362 427 124.545 427 114.902C427 105.26 434.81 97.4429 444.444 97.4429Z" fill="#3E3E70"/>
<path d="M444.178 99.1006C444.864 99.1012 445.548 99.1425 446.229 99.224C448.077 93.2225 453.629 89.1211 459.924 89.1082C461.491 89.1065 463.047 89.3662 464.528 89.8748C468.194 81.9694 476.882 77.6731 485.411 79.548C493.941 81.4234 500.012 88.9636 500.005 97.673C500.005 99.1782 499.817 100.677 499.448 102.136C507.574 103.373 513.38 110.636 512.776 118.811C512.173 126.987 505.363 133.325 497.143 133.361H444.178C434.691 133.361 427 125.692 427 116.231C427 106.77 434.691 99.1006 444.178 99.1006Z" fill="#141426"/>
<path d="M444.411 98.7245C445.107 98.725 445.801 98.7656 446.491 98.8455C448.364 92.957 453.991 88.9327 460.372 88.9201C461.96 88.9185 463.537 89.1732 465.038 89.6723C468.754 81.9157 477.56 77.7002 486.205 79.5397C494.85 81.3799 501.004 88.7782 500.997 97.3237C500.997 98.8006 500.806 100.272 500.432 101.702C508.669 102.916 514.553 110.042 513.941 118.064C513.33 126.087 506.428 132.305 498.096 132.34H444.411C434.795 132.34 427.001 124.815 427.001 115.532C427.001 106.249 434.795 98.7245 444.411 98.7245Z" fill="#2B2B4E"/>
<path d="M292.002 70.356C291.413 70.3565 290.824 70.389 290.239 70.4531C288.651 65.7304 283.879 62.5029 278.468 62.4928C277.121 62.4914 275.783 62.6958 274.51 63.096C271.359 56.8751 263.891 53.4942 256.561 54.9696C249.229 56.4454 244.011 62.379 244.016 69.2326C244.017 70.4171 244.178 71.5968 244.495 72.7444C237.511 73.718 232.52 79.4332 233.04 85.8668C233.558 92.3008 239.411 97.288 246.477 97.3166H292.002C300.157 97.3166 306.767 91.2811 306.767 83.8361C306.767 76.3911 300.157 70.356 292.002 70.356Z" fill="#232341"/>
<path d="M292.002 70.356C291.413 70.3565 290.824 70.389 290.239 70.4531C288.651 65.7304 283.879 62.5029 278.468 62.4928C277.121 62.4914 275.783 62.6958 274.51 63.096C271.359 56.8751 263.891 53.4942 256.561 54.9696C249.229 56.4454 244.011 62.379 244.016 69.2326C244.017 70.4171 244.178 71.5968 244.495 72.7444C237.511 73.718 232.52 79.4332 233.04 85.8668C233.558 92.3008 239.411 97.288 246.477 97.3166H292.002C300.157 97.3166 306.767 91.2811 306.767 83.8361C306.767 76.3911 300.157 70.356 292.002 70.356Z" fill="#3E3E70"/>
<path d="M292.228 71.6355C291.648 71.6359 291.068 71.6678 290.492 71.7307C288.928 67.0971 284.228 63.9305 278.9 63.9205C277.573 63.9193 276.257 64.1197 275.003 64.5124C271.9 58.4088 264.546 55.0917 257.327 56.5393C250.107 57.9872 244.969 63.8089 244.974 70.5332C244.975 71.6954 245.134 72.8528 245.446 73.9788C238.568 74.9341 233.654 80.5415 234.165 86.8537C234.675 93.1663 240.439 98.0595 247.397 98.0875H292.228C300.259 98.0875 306.768 92.1658 306.768 84.8613C306.768 77.5567 300.259 71.6355 292.228 71.6355Z" fill="#141426"/>
<path d="M292.032 71.3451C291.443 71.3455 290.856 71.3768 290.272 71.4385C288.686 66.8921 283.923 63.785 278.522 63.7753C277.178 63.774 275.843 63.9707 274.572 64.356C271.427 58.3673 263.973 55.1126 256.656 56.5329C249.339 57.9537 244.13 63.6658 244.136 70.2636C244.136 71.4039 244.297 72.5395 244.614 73.6443C237.642 74.5816 232.661 80.0835 233.18 86.2769C233.697 92.4708 239.539 97.2718 246.591 97.2993H292.032C300.171 97.2993 306.769 91.4891 306.769 84.322C306.769 77.1549 300.171 71.3451 292.032 71.3451Z" fill="#2B2B4E"/>
<path fill-rule="evenodd" clip-rule="evenodd" d="M124.463 27.7694L124.476 27.7695C125.535 27.7695 126.393 26.9106 126.393 25.851V25.8505H126.393C126.394 25.4977 126.68 25.2119 127.032 25.2119C127.379 25.2119 127.662 25.4888 127.671 25.8339L127.671 25.851C127.671 26.9106 128.529 27.7695 129.588 27.7695L129.601 27.7694C129.948 27.777 130.226 28.0603 130.226 28.4088C130.226 28.7618 129.94 29.048 129.588 29.0483V29.0485C129.588 29.0485 129.588 29.0485 129.588 29.0485C128.529 29.0485 127.671 29.9074 127.671 30.967C127.671 30.9739 127.671 30.9809 127.671 30.9878C127.66 31.3313 127.378 31.6065 127.032 31.6065C126.68 31.6065 126.394 31.3202 126.394 30.967L126.394 30.9663H126.393C126.393 29.9071 125.535 29.0486 124.476 29.0485V29.0483C124.124 29.0481 123.838 28.7618 123.838 28.4088C123.838 28.0603 124.116 27.777 124.463 27.7694Z" fill="#E1B554"/>
<path fill-rule="evenodd" clip-rule="evenodd" d="M188.006 29.5716L188.03 29.5718C188.8 29.5718 189.424 28.9471 189.424 28.1766L189.424 28.1531C189.436 27.9067 189.639 27.7104 189.888 27.7104C190.145 27.7104 190.353 27.9185 190.353 28.1751V28.1753H190.354L190.354 28.1766C190.354 28.9471 190.978 29.5718 191.748 29.5718L191.772 29.5716C192.017 29.5842 192.212 29.7872 192.212 30.0356C192.212 30.2922 192.004 30.5002 191.748 30.5003V30.5007C190.978 30.5008 190.354 31.1254 190.354 31.8959H190.353V31.8959C190.353 32.1526 190.145 32.3606 189.888 32.3606C189.639 32.3606 189.435 32.1637 189.424 31.9168L189.424 31.896C189.424 31.1254 188.8 30.5007 188.03 30.5007H188.03V30.5003L188.03 30.5003C187.773 30.5003 187.565 30.2922 187.565 30.0356C187.565 29.7871 187.76 29.5841 188.006 29.5716Z" fill="#E1B554"/>
<path fill-rule="evenodd" clip-rule="evenodd" d="M151.6 49.5703C151.6 50.6298 152.458 51.4887 153.517 51.4887C154.575 51.4887 155.434 50.6298 155.434 49.5703C155.434 48.5108 154.575 47.6519 153.517 47.6519C152.458 47.6519 151.6 48.5108 151.6 49.5703Z" fill="#E1B554"/>
<path fill-rule="evenodd" clip-rule="evenodd" d="M38.8061 75.44H38.8063C40.346 75.44 41.5942 74.1907 41.5942 72.6495V72.6489H41.5947C41.5952 72.1356 42.0111 71.7197 42.524 71.7197C43.025 71.7197 43.4334 72.1165 43.4526 72.6132L43.4524 72.6495C43.4524 74.1907 44.7006 75.44 46.2404 75.44H46.2407V75.4403H46.2408C46.7541 75.4403 47.1702 75.8567 47.1702 76.3705C47.1702 76.8771 46.7654 77.2892 46.2619 77.3004C46.2547 77.3003 46.2476 77.3003 46.2404 77.3003C44.7006 77.3003 43.4524 78.5496 43.4524 80.0908C43.4524 80.1016 43.4525 80.1125 43.4526 80.1233C43.4356 80.6221 43.0263 81.0212 42.5238 81.0212C42.0106 81.0212 41.5945 80.6048 41.5945 80.0911L41.5945 80.0901H41.5933C41.5929 78.5493 40.3448 77.3003 38.8053 77.3003L38.7845 77.3004C38.2811 77.289 37.8765 76.877 37.8765 76.3705C37.8765 75.8567 38.2925 75.4403 38.8058 75.4403H38.8061V75.44Z" fill="#E1B554"/>
<path fill-rule="evenodd" clip-rule="evenodd" d="M84.8057 42.8852C84.8057 44.4263 86.0539 45.6757 87.5936 45.6757C89.1334 45.6757 90.3816 44.4263 90.3816 42.8852C90.3816 41.3441 89.1334 40.0947 87.5936 40.0947C86.0539 40.0947 84.8057 41.3441 84.8057 42.8852Z" fill="#E1B554"/>
<path fill-rule="evenodd" clip-rule="evenodd" d="M109.666 52.1862H109.666C111.206 52.1862 112.454 50.9369 112.454 49.3958V49.3949H112.455C112.455 48.8817 112.871 48.4658 113.384 48.4658C113.882 48.4658 114.289 48.8584 114.312 49.3514C114.312 49.3661 114.312 49.3809 114.312 49.3958C114.312 50.9369 115.56 52.1862 117.1 52.1862H117.101V52.187C117.613 52.1874 118.029 52.6037 118.029 53.1171C118.029 53.6245 117.623 54.0369 117.119 54.0471C117.112 54.047 117.106 54.047 117.1 54.047C115.56 54.047 114.312 55.2964 114.312 56.8375C114.312 56.8514 114.312 56.8652 114.312 56.879C114.29 57.3733 113.883 57.7674 113.384 57.7674C112.87 57.7674 112.454 57.351 112.454 56.8373L112.454 56.8362H112.454C112.453 55.2957 111.205 54.047 109.666 54.047L109.647 54.0471C109.142 54.037 108.736 53.6245 108.736 53.1171C108.736 52.6034 109.152 52.187 109.666 52.187H109.666V52.1862Z" fill="#E1B554"/>
<path fill-rule="evenodd" clip-rule="evenodd" d="M401.497 70.0595V70.0594C401.849 70.0592 402.135 69.773 402.135 69.4199C402.135 69.0669 401.849 68.7807 401.497 68.7805V68.78C400.438 68.7799 399.58 67.9214 399.58 66.8623H399.58V66.862C399.58 66.5088 399.294 66.2225 398.941 66.2225C398.595 66.2225 398.313 66.4976 398.302 66.841C398.302 66.8478 398.302 66.8547 398.302 66.8615C398.302 67.921 397.444 68.78 396.385 68.78C396.385 68.78 396.385 68.78 396.385 68.78V68.7805C396.033 68.7808 395.747 69.067 395.747 69.4199C395.747 69.7729 396.033 70.0591 396.385 70.0594V70.0595H396.385C397.444 70.0595 398.302 70.9184 398.302 71.9779L398.302 71.9949C398.311 72.3399 398.594 72.6167 398.941 72.6167C399.293 72.6167 399.579 72.3309 399.58 71.9781H399.58V71.9779C399.58 70.9184 400.438 70.0595 401.497 70.0595Z" fill="#E1B554"/>
<path fill-rule="evenodd" clip-rule="evenodd" d="M669.073 60.5641V60.5641C669.426 60.5639 669.712 60.2777 669.712 59.9246C669.712 59.5716 669.426 59.2853 669.073 59.2851V59.2846C668.015 59.2846 667.157 58.4262 667.157 57.3672H667.156L667.156 57.3667C667.156 57.0135 666.87 56.7272 666.517 56.7272C666.171 56.7272 665.89 57.0022 665.879 57.3457C665.879 57.3525 665.879 57.3593 665.879 57.3662C665.879 58.4257 665.021 59.2846 663.962 59.2846C663.962 59.2846 663.962 59.2846 663.962 59.2846V59.2851C663.609 59.2854 663.324 59.5716 663.324 59.9246C663.324 60.2776 663.609 60.5638 663.962 60.5641V60.5641H663.962C665.021 60.5641 665.879 61.4231 665.879 62.4826L665.879 62.4997C665.888 62.8447 666.17 63.1216 666.517 63.1216C666.87 63.1216 667.156 62.8358 667.156 62.483H667.157V62.4826C667.157 61.4231 668.015 60.5642 669.073 60.5641Z" fill="#E1B554"/>
<path fill-rule="evenodd" clip-rule="evenodd" d="M305.925 108.888V108.888C306.278 108.888 306.563 108.601 306.563 108.248C306.563 107.895 306.278 107.609 305.925 107.609V107.608C304.867 107.608 304.009 106.75 304.008 105.691H304.008L304.008 105.69C304.008 105.337 303.722 105.05 303.369 105.05C303.023 105.05 302.741 105.325 302.73 105.669C302.73 105.676 302.73 105.683 302.73 105.69C302.73 106.749 301.872 107.608 300.814 107.608C300.814 107.608 300.814 107.608 300.814 107.608V107.609C300.461 107.609 300.175 107.895 300.175 108.248C300.175 108.601 300.461 108.887 300.814 108.888V108.888H300.814C301.872 108.888 302.73 109.747 302.73 110.806L302.73 110.823C302.74 111.168 303.022 111.445 303.369 111.445C303.722 111.445 304.007 111.16 304.008 110.807H304.008V110.806C304.008 109.747 304.866 108.888 305.925 108.888Z" fill="#E1B554"/>
<path fill-rule="evenodd" clip-rule="evenodd" d="M337.965 68.257L337.943 68.2568C337.173 68.2568 336.549 68.8815 336.549 69.6521L336.549 69.6741C336.538 69.9212 336.335 70.1182 336.085 70.1182C335.828 70.1182 335.62 69.9101 335.62 69.6535V69.6533H335.619L335.619 69.6521C335.619 68.8816 334.995 68.2569 334.225 68.2569L334.205 68.257C333.958 68.2464 333.761 68.0426 333.761 67.7928C333.761 67.5363 333.969 67.3283 334.225 67.3281V67.3275C334.995 67.3272 335.619 66.7029 335.619 65.9327H335.62C335.62 65.6761 335.828 65.4681 336.085 65.4681C336.335 65.4681 336.539 65.6657 336.549 65.9133L336.549 65.9322C336.549 66.7027 337.173 67.3274 337.943 67.3274V67.3281L337.944 67.3281C338.2 67.3281 338.408 67.5362 338.408 67.7928C338.408 68.0424 338.211 68.246 337.965 68.257Z" fill="#E1B554"/>
<path fill-rule="evenodd" clip-rule="evenodd" d="M220.392 49.0123H220.392C219.622 49.0123 218.998 49.637 218.998 50.4076L218.998 50.4316C218.986 50.6772 218.783 50.8726 218.534 50.8726C218.278 50.8726 218.07 50.6645 218.07 50.4079V50.4077H218.069V50.4076C218.069 49.637 217.445 49.0124 216.675 49.0123V49.0122C216.418 49.0121 216.21 48.8041 216.21 48.5476C216.21 48.291 216.418 48.083 216.675 48.0829V48.0822C217.445 48.0822 218.069 47.4576 218.069 46.6871H218.069V46.687C218.069 46.4304 218.277 46.2224 218.534 46.2224C218.784 46.2224 218.987 46.4192 218.998 46.6662L218.998 46.687C218.998 47.4575 219.622 48.0822 220.392 48.0822H220.392V48.0829L220.393 48.0829C220.649 48.0829 220.857 48.2909 220.857 48.5476C220.857 48.8042 220.649 49.0122 220.393 49.0122L220.392 49.0122V49.0123Z" fill="#E1B554"/>
<path fill-rule="evenodd" clip-rule="evenodd" d="M372.456 51.4559V51.4558L372.456 51.4558C372.809 51.4558 373.095 51.1695 373.095 50.8163C373.095 50.4632 372.809 50.1769 372.456 50.1769L372.456 50.1769V50.1768C371.398 50.1762 370.54 49.3177 370.54 48.2587H370.539V48.2584C370.539 47.9052 370.253 47.6189 369.9 47.6189C369.547 47.6189 369.261 47.9052 369.261 48.2584V48.2587H369.261C369.261 49.318 368.403 50.1766 367.344 50.1768V50.1769C366.992 50.1772 366.706 50.4634 366.706 50.8163C366.706 51.1693 366.992 51.4555 367.344 51.4558V51.4559C368.403 51.4561 369.261 52.3149 369.261 53.3743V53.3746H369.261C369.261 53.7276 369.547 54.0137 369.9 54.0137C370.252 54.0137 370.538 53.7276 370.539 53.3746H370.54V53.3743C370.54 52.3152 371.398 51.4565 372.456 51.4559Z" fill="#E1B554"/>
<path fill-rule="evenodd" clip-rule="evenodd" d="M519.394 40.9508V40.9508L519.395 40.9508C519.748 40.9508 520.034 40.6645 520.034 40.3113C520.034 39.9632 519.756 39.6801 519.41 39.672L519.395 39.6721C518.337 39.6721 517.479 38.8133 517.479 37.7539H517.477L517.477 37.7531C517.477 37.3999 517.191 37.1136 516.838 37.1136C516.485 37.1136 516.199 37.3999 516.199 37.7531L516.199 37.7539H516.199C516.199 38.8133 515.341 39.6721 514.282 39.6721C514.278 39.6721 514.273 39.672 514.268 39.672C513.922 39.6802 513.645 39.9633 513.645 40.3113C513.645 40.6643 513.93 40.9505 514.283 40.9508V40.9508C515.341 40.9511 516.199 41.8099 516.199 42.8693V42.8697H516.199C516.2 43.2227 516.486 43.5088 516.838 43.5088C517.191 43.5088 517.477 43.2227 517.477 42.8697H517.479V42.8693C517.479 41.8101 518.336 40.9514 519.394 40.9508Z" fill="#E1B554"/>
<path fill-rule="evenodd" clip-rule="evenodd" d="M629.745 49.3479L629.721 49.3477C628.951 49.3477 628.327 49.9723 628.327 50.7429L628.327 50.7663C628.316 51.0127 628.113 51.209 627.863 51.209C627.607 51.209 627.399 51.0009 627.399 50.7443V50.7442H627.398L627.398 50.7429C627.398 49.9723 626.774 49.3477 626.004 49.3477L625.981 49.3478C625.735 49.3355 625.54 49.1324 625.54 48.8838C625.54 48.6274 625.748 48.4195 626.004 48.4191V48.4184C626.774 48.4184 627.398 47.7939 627.398 47.0235H627.398C627.399 46.767 627.607 46.5591 627.863 46.5591C628.113 46.5591 628.316 46.7559 628.327 47.0028L628.327 47.0232C628.327 47.7938 628.951 48.4184 629.721 48.4184H629.721V48.4191L629.722 48.4191C629.978 48.4191 630.187 48.6272 630.187 48.8838C630.187 49.1326 629.991 49.3357 629.745 49.3479Z" fill="#E1B554"/>
<path fill-rule="evenodd" clip-rule="evenodd" d="M664.205 111.888L664.182 111.888C663.412 111.888 662.788 112.512 662.788 113.283L662.788 113.306C662.776 113.553 662.573 113.749 662.324 113.749C662.067 113.749 661.859 113.541 661.859 113.284V113.284H661.858L661.858 113.283C661.858 112.512 661.234 111.888 660.464 111.888L660.442 111.888C660.196 111.876 660 111.673 660 111.424C660 111.167 660.208 110.959 660.464 110.959V110.958C661.234 110.958 661.858 110.334 661.858 109.564H661.859C661.859 109.307 662.067 109.099 662.324 109.099C662.573 109.099 662.777 109.296 662.788 109.543L662.788 109.563C662.788 110.334 663.412 110.958 664.182 110.958H664.182V110.959L664.182 110.959C664.439 110.959 664.647 111.167 664.647 111.424C664.647 111.673 664.451 111.876 664.205 111.888Z" fill="#E1B554"/>
<path fill-rule="evenodd" clip-rule="evenodd" d="M704.207 128.903L704.182 128.903C703.412 128.903 702.788 129.528 702.788 130.298L702.788 130.322C702.776 130.568 702.573 130.764 702.324 130.764C702.067 130.764 701.859 130.556 701.859 130.299V130.299H701.858L701.858 130.298C701.858 129.528 701.234 128.903 700.464 128.903L700.44 128.903C700.195 128.89 700 128.687 700 128.439C700 128.183 700.208 127.975 700.464 127.974V127.974C701.234 127.974 701.858 127.349 701.858 126.579H701.859C701.859 126.322 702.067 126.114 702.324 126.114C702.573 126.114 702.777 126.311 702.788 126.558L702.788 126.578C702.788 127.349 703.412 127.974 704.182 127.974H704.182V127.974L704.182 127.974C704.439 127.974 704.647 128.182 704.647 128.439C704.647 128.687 704.452 128.89 704.207 128.903Z" fill="#E1B554"/>
<path fill-rule="evenodd" clip-rule="evenodd" d="M664.248 32.5464L664.235 32.5463C663.176 32.5463 662.318 33.4052 662.318 34.4648V34.4654H662.316C662.316 34.8184 662.03 35.1045 661.678 35.1045C661.325 35.1045 661.039 34.8184 661.039 34.4654H661.039V34.4648C661.039 33.4052 660.18 32.5463 659.122 32.5463L659.109 32.5464C658.762 32.5388 658.484 32.2555 658.484 31.907C658.484 31.559 658.762 31.2758 659.108 31.2677C659.112 31.2678 659.117 31.2678 659.122 31.2678C660.18 31.2678 661.038 30.409 661.039 29.3496H661.039L661.039 29.3488C661.039 28.9957 661.325 28.7094 661.677 28.7094C662.03 28.7094 662.316 28.9957 662.316 29.3488L662.316 29.3496H662.318C662.318 30.409 663.176 31.2678 664.235 31.2678L664.249 31.2677C664.595 31.2758 664.873 31.5589 664.873 31.907C664.873 32.2555 664.595 32.5389 664.248 32.5464Z" fill="#E1B554"/>
<path fill-rule="evenodd" clip-rule="evenodd" d="M211.486 87.8773L211.465 87.8772C210.406 87.8772 209.548 88.7361 209.548 89.7957L209.548 89.7965H209.547C209.547 90.1495 209.261 90.4355 208.908 90.4355C208.555 90.4355 208.269 90.1495 208.269 89.7965H208.269V89.7961C208.269 88.7368 207.411 87.8779 206.353 87.8777V87.8777C206 87.8773 205.714 87.5911 205.714 87.2382C205.714 86.8852 206 86.599 206.353 86.5987V86.5987C206.353 86.5987 206.353 86.5987 206.353 86.5987C207.411 86.5987 208.269 85.7398 208.269 84.6802C208.269 84.6733 208.269 84.6663 208.269 84.6594C208.28 84.3158 208.562 84.0407 208.908 84.0407C209.261 84.0407 209.547 84.327 209.547 84.6802L209.547 84.6806H209.548C209.549 85.7396 210.406 86.5981 211.464 86.5987V86.5987L211.465 86.5987C211.817 86.5987 212.104 86.885 212.104 87.2382C212.104 87.5843 211.829 87.8663 211.486 87.8773Z" fill="#E1B554"/>
<path fill-rule="evenodd" clip-rule="evenodd" d="M487.168 22.389H487.167C485.628 22.389 484.379 23.6383 484.379 25.1794V25.1802H484.379C484.378 25.6935 483.963 26.1094 483.45 26.1094C482.951 26.1094 482.545 25.7168 482.521 25.2237C482.522 25.209 482.522 25.1942 482.522 25.1794C482.522 23.6383 481.274 22.389 479.734 22.389H479.733V22.3885H479.733C479.22 22.3885 478.803 21.972 478.803 21.4583C478.803 20.9534 479.205 20.5424 479.707 20.5285C479.716 20.5286 479.725 20.5287 479.734 20.5287C481.274 20.5287 482.522 19.2793 482.522 17.7382C482.522 17.7242 482.522 17.7102 482.521 17.6963C482.543 17.2019 482.951 16.8078 483.45 16.8078C483.963 16.8078 484.379 17.2242 484.379 17.738L484.379 17.739H484.381C484.381 19.2798 485.629 20.5287 487.169 20.5287L487.194 20.5286C487.695 20.5427 488.097 20.9535 488.097 21.4583C488.097 21.972 487.681 22.3885 487.168 22.3885H487.168V22.389Z" fill="#E1B554"/>
<path fill-rule="evenodd" clip-rule="evenodd" d="M694.777 93.8232H694.777C693.237 93.8232 691.989 95.0725 691.989 96.6136V96.6143H691.989C691.989 97.1278 691.573 97.5439 691.06 97.5439C690.561 97.5439 690.154 97.1513 690.131 96.6582C690.131 96.6434 690.132 96.6285 690.132 96.6136C690.132 95.0725 688.883 93.8232 687.344 93.8232H687.343V93.8229H687.343C686.829 93.8229 686.413 93.4065 686.413 92.8928C686.413 92.3851 686.82 91.9725 687.324 91.9628C687.331 91.9628 687.338 91.9629 687.345 91.9629C688.884 91.9629 690.133 90.7135 690.133 89.1724C690.133 89.1538 690.132 89.1352 690.132 89.1167C690.161 88.629 690.565 88.2425 691.06 88.2425C691.573 88.2425 691.989 88.6589 691.989 89.1726V89.1731H691.991C691.991 90.7139 693.239 91.9629 694.779 91.9629L694.797 91.9628C695.301 91.9729 695.707 92.3854 695.707 92.8928C695.707 93.4065 695.291 93.8229 694.778 93.8229H694.777V93.8232Z" fill="#E1B554"/>
<path fill-rule="evenodd" clip-rule="evenodd" d="M438.378 59.5952V59.5951H438.378C438.892 59.5951 439.308 59.1786 439.308 58.6649C439.308 58.1562 438.9 57.7429 438.393 57.7349L438.379 57.7349C436.839 57.7349 435.591 56.4859 435.591 54.9451H435.591L435.591 54.9443C435.591 54.4306 435.175 54.0141 434.661 54.0141C434.148 54.0141 433.732 54.4306 433.732 54.9443L433.732 54.9451H433.732C433.731 56.4859 432.483 57.7349 430.944 57.7349C430.939 57.7349 430.934 57.7349 430.929 57.7349C430.423 57.7429 430.015 58.1562 430.015 58.6649C430.015 59.1783 430.431 59.5946 430.943 59.5951V59.5952H430.944C432.483 59.5952 433.732 60.8445 433.732 62.3857V62.3863H433.732C433.732 62.8995 434.148 63.3154 434.661 63.3154C435.174 63.3154 435.59 62.8995 435.59 62.3863H435.591V62.3857C435.591 60.8448 436.839 59.5957 438.378 59.5952Z" fill="#E1B554"/>
<path fill-rule="evenodd" clip-rule="evenodd" d="M258.158 108.531V108.53H258.159C258.672 108.53 259.088 108.114 259.088 107.6C259.088 107.097 258.689 106.687 258.191 106.67L258.16 106.67C256.62 106.67 255.372 105.421 255.372 103.88H255.371C255.371 103.366 254.955 102.95 254.442 102.95C253.935 102.95 253.522 103.356 253.512 103.861C253.512 103.868 253.512 103.874 253.512 103.88C253.512 105.421 252.264 106.67 250.724 106.67C250.714 106.67 250.703 106.67 250.692 106.67C250.194 106.687 249.795 107.097 249.795 107.6C249.795 108.113 250.211 108.53 250.724 108.53V108.531H250.724C252.264 108.531 253.512 109.781 253.512 111.322L253.512 111.344C253.525 111.847 253.936 112.251 254.441 112.251C254.954 112.251 255.37 111.835 255.371 111.321H255.372C255.372 109.781 256.619 108.532 258.158 108.531Z" fill="#E1B554"/>
<path fill-rule="evenodd" clip-rule="evenodd" d="M287.546 51.8035V51.8033H287.547C288.06 51.8033 288.476 51.3869 288.476 50.8732C288.476 50.3655 288.07 49.9528 287.565 49.9432L287.547 49.9432C286.008 49.9432 284.76 48.6943 284.759 47.1535H284.759L284.759 47.1525C284.759 46.6388 284.343 46.2224 283.83 46.2224C283.316 46.2224 282.9 46.6388 282.9 47.1525L282.9 47.1535H282.9C282.9 48.6943 281.652 49.9432 280.112 49.9432C280.106 49.9432 280.1 49.9432 280.095 49.9432C279.59 49.9528 279.183 50.3655 279.183 50.8732C279.183 51.3866 279.599 51.8028 280.112 51.8033V51.8035H280.112C281.652 51.8035 282.9 53.0529 282.9 54.594V54.5948H282.9C282.901 55.108 283.317 55.5239 283.83 55.5239C284.342 55.5239 284.758 55.108 284.759 54.5948H284.759V54.594C284.759 53.0532 286.007 51.804 287.546 51.8035Z" fill="#E1B554"/>
<path fill-rule="evenodd" clip-rule="evenodd" d="M606.635 28.6926L606.615 28.6925C605.075 28.6925 603.827 29.9418 603.827 31.483L603.827 31.484H603.826C603.825 31.9972 603.409 32.4131 602.897 32.4131C602.39 32.4131 601.978 32.0075 601.967 31.5031L601.968 31.483C601.968 29.9418 600.719 28.6925 599.18 28.6925L599.158 28.6926C598.655 28.6813 598.25 28.2693 598.25 27.7626C598.25 27.2492 598.666 26.8329 599.179 26.8325V26.8322C599.179 26.8322 599.179 26.8322 599.18 26.8322C600.719 26.8322 601.968 25.5828 601.968 24.0417C601.968 24.0355 601.968 24.0293 601.967 24.023C601.977 23.518 602.39 23.1116 602.897 23.1116C603.41 23.1116 603.826 23.5281 603.826 24.0418L603.826 24.0427H603.827C603.827 25.583 605.075 26.8315 606.613 26.8322V26.8325H606.614C607.127 26.8325 607.543 27.2489 607.543 27.7626C607.543 28.2692 607.138 28.6812 606.635 28.6926Z" fill="#E1B554"/>
<path fill-rule="evenodd" clip-rule="evenodd" d="M639.363 82.6501V82.6499H639.363C639.876 82.6499 640.292 82.2334 640.292 81.7197C640.292 81.2115 639.885 80.7984 639.379 80.7897L639.364 80.7898C637.825 80.7898 636.577 79.5409 636.576 78.0002H636.575L636.575 77.9991C636.575 77.4854 636.159 77.069 635.646 77.069C635.139 77.069 634.727 77.4753 634.717 77.9804C634.717 77.9867 634.717 77.993 634.717 77.9993C634.717 79.5404 633.469 80.7898 631.929 80.7898C631.924 80.7898 631.918 80.7897 631.913 80.7897C631.407 80.7983 631 81.2114 631 81.7197C631 82.2332 631.415 82.6495 631.928 82.6499V82.6501H631.929C633.469 82.6501 634.717 83.8994 634.717 85.4405L634.717 85.4606C634.728 85.965 635.14 86.3706 635.646 86.3706C636.159 86.3706 636.575 85.9547 636.575 85.4415H636.576L636.576 85.4405C636.576 83.8998 637.824 82.6507 639.363 82.6501Z" fill="#E1B554"/>
<path fill-rule="evenodd" clip-rule="evenodd" d="M707.363 163.723V163.723H707.363C707.876 163.723 708.292 163.307 708.292 162.793C708.292 162.285 707.885 161.872 707.379 161.863L707.364 161.863C705.824 161.863 704.576 160.614 704.576 159.073V159.072H704.575V159.072C704.575 158.559 704.159 158.142 703.646 158.142C703.139 158.142 702.727 158.549 702.717 159.054C702.717 159.06 702.717 159.066 702.717 159.073C702.717 160.614 701.469 161.863 699.929 161.863C699.924 161.863 699.918 161.863 699.913 161.863C699.407 161.871 699 162.285 699 162.793C699 163.306 699.415 163.723 699.928 163.723V163.723L699.929 163.723C701.469 163.723 702.717 164.973 702.717 166.514L702.717 166.534C702.728 167.038 703.14 167.444 703.646 167.444C704.159 167.444 704.575 167.027 704.575 166.514H704.576C704.576 164.973 705.824 163.724 707.363 163.723Z" fill="#E1B554"/>
<path fill-rule="evenodd" clip-rule="evenodd" d="M416.307 45.6427H416.307C414.767 45.6427 413.519 46.892 413.519 48.4331H413.518V48.4331C413.518 48.9468 413.102 49.3633 412.589 49.3633C412.09 49.3633 411.684 48.9707 411.661 48.4776C411.661 48.4628 411.661 48.448 411.661 48.4332C411.661 46.8921 410.413 45.6427 408.873 45.6427L408.872 45.6427V45.642C408.359 45.6416 407.944 45.2253 407.944 44.7119C407.944 44.1984 408.359 43.7822 408.872 43.7817V40.9918H411.66V40.9917C411.66 40.9777 411.66 40.9638 411.661 40.9499" fill="#E1B554"/>
<path fill-rule="evenodd" clip-rule="evenodd" d="M698.976 70.7126H698.975C697.436 70.7126 696.188 71.9618 696.188 73.5029H696.187L694.33 73.5029C694.33 71.9619 693.082 70.7126 691.542 70.7126L691.541 70.7126V70.7118C691.028 70.7114 690.613 70.2951 690.613 69.7817C690.613 69.2742 691.019 68.8617 691.523 68.8517C691.529 68.8518 691.536 68.8518 691.542 68.8518C693.082 68.8518 694.33 67.6024 694.33 66.0613C694.33 66.0474 694.33 66.0336 694.33 66.0198C694.351 65.5255 694.759 65.1314 695.258 65.1314C695.771 65.1314 696.187 65.5478 696.187 66.0616V66.0617H696.188C696.188 67.6026 697.436 68.8518 698.975 68.8518L698.995 68.8517C699.499 68.8616 699.905 69.2742 699.905 69.7817C699.905 70.2954 699.489 70.7118 698.976 70.7118H698.976V70.7126Z" fill="#E1B554"/>
<path d="M256.283 326C254.502 326 253.611 325.414 253.611 324.242C253.611 323.711 253.729 323.297 253.963 323C254.557 323.156 255.143 323.234 255.721 323.234C256.314 323.234 256.799 323.195 257.174 323.117C257.564 323.039 257.908 322.875 258.205 322.625C258.814 322.062 259.135 321.047 259.166 319.578V313.672L247.869 294.922C247.244 293.906 246.721 293.297 246.299 293.094C245.877 292.875 245.541 292.727 245.291 292.648C245.057 292.57 244.846 292.469 244.658 292.344C244.221 292.094 244.002 291.75 244.002 291.312C244.002 290.672 244.127 290.195 244.377 289.883C244.736 290.008 245.51 290.07 246.697 290.07H255.158C256.689 290.07 257.658 290.32 258.064 290.82C258.268 291.055 258.369 291.414 258.369 291.898C258.369 292.367 258.221 292.766 257.924 293.094C257.393 292.938 256.799 292.859 256.143 292.859C254.846 292.859 254.197 293.359 254.197 294.359C254.197 295.078 254.518 295.953 255.158 296.984L262.682 309.969C264.604 306.766 266.002 304.367 266.877 302.773L269.08 298.648C270.096 296.68 270.643 295.531 270.721 295.203C270.799 294.859 270.838 294.586 270.838 294.383C270.838 294.18 270.775 294 270.65 293.844C270.541 293.688 270.393 293.562 270.205 293.469C270.018 293.359 269.807 293.281 269.572 293.234C269.338 293.172 269.057 293.102 268.729 293.023C268.4 292.945 268.049 292.867 267.674 292.789C267.299 292.711 266.971 292.609 266.689 292.484C266.064 292.219 265.752 291.781 265.752 291.172C265.752 290.547 265.869 290.117 266.104 289.883C266.463 290.008 267.236 290.07 268.424 290.07H276.533C277.955 290.07 278.861 290.328 279.252 290.844C279.424 291.078 279.51 291.359 279.51 291.688C279.51 292.312 279.369 292.781 279.088 293.094C278.557 292.938 278.104 292.859 277.729 292.859C277.354 292.859 277.018 292.977 276.721 293.211C276.424 293.445 276.135 293.766 275.854 294.172C275.588 294.578 275.314 295.047 275.033 295.578C274.158 297.297 273.471 298.602 272.971 299.492C268.002 307.93 265.439 312.297 265.283 312.594L264.697 313.578V320.469C264.697 321.812 265.439 322.609 266.924 322.859C268.705 323.141 269.76 323.383 270.088 323.586C270.65 323.898 270.932 324.344 270.932 324.922C270.932 325.453 270.807 325.875 270.557 326.188C270.197 326.062 269.424 326 268.236 326H256.283ZM281.432 313.062C281.432 311.156 281.619 309.445 281.994 307.93C282.369 306.414 282.885 305.078 283.541 303.922C284.197 302.766 284.971 301.781 285.861 300.969C286.752 300.141 287.705 299.469 288.721 298.953C290.705 297.938 292.885 297.43 295.26 297.43C298.307 297.43 300.893 298.539 303.018 300.758C305.377 303.195 306.557 306.414 306.557 310.414C306.557 315.664 305.127 319.75 302.268 322.672C299.783 325.188 296.807 326.445 293.338 326.445C289.713 326.445 286.807 325.172 284.619 322.625C282.494 320.172 281.432 316.984 281.432 313.062ZM294.721 322.625C295.768 322.625 296.705 322.383 297.533 321.898C298.361 321.398 299.064 320.719 299.643 319.859C300.799 318.078 301.377 315.766 301.377 312.922C301.377 309.797 300.768 307.141 299.549 304.953C298.174 302.438 296.197 301.18 293.619 301.18C291.541 301.18 289.877 301.977 288.627 303.57C287.299 305.258 286.635 307.617 286.635 310.648C286.635 314.445 287.471 317.445 289.143 319.648C290.643 321.633 292.502 322.625 294.721 322.625ZM313.4 305.141C313.4 304.25 313.33 303.539 313.189 303.008C313.064 302.461 312.799 302.188 312.393 302.188C312.096 302.188 311.861 302.219 311.689 302.281L311.127 302.516C311.018 302.547 310.885 302.484 310.729 302.328C310.432 302 310.283 301.703 310.283 301.438C310.283 301.156 310.369 300.867 310.541 300.57C310.729 300.258 311.002 299.906 311.361 299.516C311.736 299.125 312.158 298.781 312.627 298.484C313.689 297.781 314.65 297.43 315.51 297.43C316.369 297.43 316.979 297.578 317.338 297.875C317.697 298.172 317.971 298.562 318.158 299.047C318.471 299.828 318.627 301.008 318.627 302.586V317.258C318.627 319.898 319.424 321.375 321.018 321.688C321.502 321.781 322.072 321.828 322.729 321.828C323.4 321.828 324.111 321.742 324.861 321.57C325.627 321.398 326.354 321.172 327.041 320.891C328.369 320.344 329.541 319.648 330.557 318.805V305.141C330.557 303.656 330.291 302.742 329.76 302.398C329.541 302.258 329.252 302.188 328.893 302.188C328.533 302.188 328.244 302.242 328.025 302.352C327.822 302.461 327.65 302.539 327.51 302.586C327.385 302.633 327.275 302.633 327.182 302.586C327.088 302.523 326.986 302.438 326.877 302.328C326.643 302.062 326.525 301.797 326.525 301.531C326.525 301.266 326.619 300.984 326.807 300.688C327.01 300.375 327.33 300.023 327.768 299.633C328.205 299.227 328.705 298.859 329.268 298.531C330.533 297.797 331.799 297.43 333.064 297.43C334.596 297.43 335.471 298.516 335.689 300.688C335.752 301.297 335.783 301.93 335.783 302.586V316.461C335.783 318.867 335.877 320.367 336.064 320.961C336.252 321.555 336.479 321.945 336.744 322.133C337.01 322.305 337.338 322.391 337.729 322.391C338.119 322.391 338.439 322.328 338.689 322.203L339.393 321.898C339.596 321.852 339.775 321.945 339.932 322.18C340.26 322.664 340.307 323.102 340.072 323.492C339.838 323.883 339.471 324.258 338.971 324.617C338.486 324.977 337.939 325.289 337.33 325.555C334.627 326.742 332.705 326.719 331.564 325.484C330.971 324.844 330.635 323.828 330.557 322.438C328.26 324.203 325.908 325.422 323.502 326.094C322.627 326.328 321.705 326.445 320.736 326.445C319.783 326.445 318.846 326.312 317.924 326.047C317.018 325.781 316.229 325.352 315.557 324.758C314.119 323.492 313.4 321.539 313.4 318.898V305.141ZM364.494 326C362.104 326 360.908 325.453 360.908 324.359C360.908 323.781 361.025 323.344 361.26 323.047C361.635 323.172 361.986 323.234 362.314 323.234C363.674 323.234 364.377 322.414 364.424 320.773V291.43C364.424 290.336 364.314 289.641 364.096 289.344C363.736 288.844 363.158 288.594 362.361 288.594C362.002 288.594 361.65 288.633 361.307 288.711C360.979 288.773 360.744 288.773 360.604 288.711C360.479 288.633 360.377 288.531 360.299 288.406C359.986 287.891 360.377 287.234 361.471 286.438C363.189 285.172 364.885 284.539 366.557 284.539C368.338 284.539 369.338 285.5 369.557 287.422C369.619 288 369.65 288.609 369.65 289.25V320.867C369.697 322.086 370.143 322.836 370.986 323.117C371.236 323.195 371.525 323.266 371.854 323.328C372.197 323.391 372.51 323.469 372.791 323.562C373.072 323.641 373.291 323.734 373.447 323.844C373.713 324.047 373.846 324.375 373.846 324.828C373.846 325.375 373.721 325.805 373.471 326.117C373.158 326.039 372.658 326 371.971 326H364.494ZM376.963 313.062C376.963 311.156 377.15 309.445 377.525 307.93C377.9 306.414 378.416 305.078 379.072 303.922C379.729 302.766 380.502 301.781 381.393 300.969C382.283 300.141 383.236 299.469 384.252 298.953C386.236 297.938 388.416 297.43 390.791 297.43C393.838 297.43 396.424 298.539 398.549 300.758C400.908 303.195 402.088 306.414 402.088 310.414C402.088 315.664 400.658 319.75 397.799 322.672C395.314 325.188 392.338 326.445 388.869 326.445C385.244 326.445 382.338 325.172 380.15 322.625C378.025 320.172 376.963 316.984 376.963 313.062ZM390.252 322.625C391.299 322.625 392.236 322.383 393.064 321.898C393.893 321.398 394.596 320.719 395.174 319.859C396.33 318.078 396.908 315.766 396.908 312.922C396.908 309.797 396.299 307.141 395.08 304.953C393.705 302.438 391.729 301.18 389.15 301.18C387.072 301.18 385.408 301.977 384.158 303.57C382.83 305.258 382.166 307.617 382.166 310.648C382.166 314.445 383.002 317.445 384.674 319.648C386.174 321.633 388.033 322.625 390.252 322.625ZM423.018 305.75C423.018 303.344 422.018 301.75 420.018 300.969C419.377 300.719 418.682 300.594 417.932 300.594C417.197 300.594 416.51 300.656 415.869 300.781C415.244 300.906 414.689 301.102 414.205 301.367C413.111 301.961 412.564 302.812 412.564 303.922C412.564 304.984 413.018 305.906 413.924 306.688C414.924 307.516 416.783 308.539 419.502 309.758C422.221 310.961 424.314 312.281 425.783 313.719C427.268 315.141 428.01 316.781 428.01 318.641C428.01 320.734 427.15 322.5 425.432 323.938C423.416 325.609 420.627 326.445 417.064 326.445C412.705 326.445 409.689 325.516 408.018 323.656C407.439 323 407.15 322.164 407.15 321.148C407.15 318.695 407.752 317.266 408.955 316.859C409.252 316.766 409.533 316.719 409.799 316.719C410.533 316.719 410.932 316.945 410.994 317.398C411.338 321.305 413.525 323.258 417.557 323.258C419.979 323.258 421.596 322.578 422.408 321.219C422.674 320.781 422.807 320.25 422.807 319.625C422.807 319 422.604 318.43 422.197 317.914C421.807 317.398 421.26 316.922 420.557 316.484C419.854 316.031 419.018 315.594 418.049 315.172L414.932 313.766C410.15 311.578 407.76 308.672 407.76 305.047C407.76 302.703 408.799 300.828 410.877 299.422C412.846 298.094 415.385 297.43 418.494 297.43C422.713 297.43 425.338 298.344 426.369 300.172C426.635 300.641 426.768 301.156 426.768 301.719C426.768 302.281 426.736 302.789 426.674 303.242C426.611 303.68 426.533 304.078 426.439 304.438C426.283 305.125 426.104 305.609 425.9 305.891C425.494 306.188 424.908 306.336 424.143 306.336C423.393 306.336 423.018 306.141 423.018 305.75ZM433.049 313.391C433.049 311.5 433.244 309.82 433.635 308.352C434.025 306.883 434.549 305.57 435.205 304.414C435.877 303.242 436.658 302.219 437.549 301.344C438.455 300.469 439.424 299.742 440.455 299.164C442.486 298.008 444.486 297.43 446.455 297.43C448.424 297.43 450.002 297.781 451.189 298.484C452.377 299.172 453.346 300.094 454.096 301.25C455.486 303.453 456.182 306.383 456.182 310.039C456.182 311.398 455.611 312.094 454.471 312.125L438.111 312.477C438.205 315.867 439.08 318.375 440.736 320C442.143 321.375 443.963 322.062 446.197 322.062C449.525 322.062 452.229 321.367 454.307 319.977C454.447 319.977 454.619 320.094 454.822 320.328C455.213 320.797 455.408 321.203 455.408 321.547C455.408 322.297 454.471 323.258 452.596 324.43C450.439 325.773 447.924 326.445 445.049 326.445C441.299 326.445 438.354 325.25 436.213 322.859C434.104 320.516 433.049 317.359 433.049 313.391ZM438.252 309.453C442.752 309.234 446.869 308.945 450.604 308.586C450.775 303.617 449.057 301.133 445.447 301.133C443.432 301.133 441.783 301.914 440.502 303.477C439.33 304.914 438.58 306.906 438.252 309.453ZM468.369 313.672C468.338 314 467.752 314.164 466.611 314.164C465.486 314.164 464.924 313.977 464.924 313.602C464.924 313.227 464.893 312.602 464.83 311.727C464.643 308.742 464.494 306.484 464.385 304.953L463.518 292.367C463.346 289.789 463.26 288.172 463.26 287.516C463.26 287.047 464.596 286.531 467.268 285.969C468.268 285.766 469.049 285.664 469.611 285.664C470.174 285.664 470.455 285.742 470.455 285.898C470.455 286.039 470.424 286.469 470.361 287.188L468.58 311C468.486 312.109 468.416 313 468.369 313.672ZM462.744 322.555C462.744 321.43 463.111 320.5 463.846 319.766C464.596 319.016 465.518 318.641 466.611 318.641C468.393 318.641 469.619 319.422 470.291 320.984C470.494 321.469 470.596 321.992 470.596 322.555C470.596 323.648 470.221 324.578 469.471 325.344C468.721 326.078 467.768 326.445 466.611 326.445C465.518 326.445 464.596 326.078 463.846 325.344C463.111 324.594 462.744 323.664 462.744 322.555Z" fill="#E1B554"/>
<path d="M276.011 180.323C277.789 179.668 278.394 179.364 278.569 179.609L275.73 185.522C272.646 185.5 270.294 187.41 268.508 190.674C267.879 185.106 273.997 181.065 276.011 180.323Z" fill="#240046"/>
<path d="M276.802 183.789C278.58 183.134 276.198 184.87 276.373 185.115L275.73 185.522C272.646 185.5 270.294 187.409 268.507 190.673C270.765 185.436 274.788 184.531 276.802 183.789Z" fill="#5A189A"/>
<path d="M276.011 180.323C277.789 179.668 278.394 179.364 278.569 179.609L278.042 180.267C270.467 182.811 269.335 187.486 268.508 190.674C267.879 185.106 273.997 181.065 276.011 180.323Z" fill="#190031"/>
<path d="M273.858 175.789C275.708 175.377 276.349 175.156 276.489 175.422L275.249 178.604L272.887 180.904C269.833 180.471 267.247 182.05 265.042 185.046C265.161 179.444 271.764 176.256 273.858 175.789Z" fill="#240046"/>
<path d="M274.18 179.33C276.03 178.918 273.438 180.32 273.579 180.587L272.887 180.904C269.833 180.471 267.248 182.049 265.042 185.046C267.978 180.157 272.086 179.796 274.18 179.33Z" fill="#5A189A"/>
<path d="M273.858 175.789C275.708 175.377 276.349 175.156 276.489 175.422L275.879 176.004C268.032 177.515 266.287 181.997 265.042 185.046C265.161 179.444 271.764 176.256 273.858 175.789Z" fill="#190031"/>
<path d="M273.064 171.201C275.29 170.669 276.071 170.402 276.203 170.673L274.349 174.066L271.286 176.6C267.749 176.315 264.512 178.107 261.547 181.36C262.383 175.499 270.543 171.804 273.064 171.201Z" fill="#240046"/>
<path d="M273.002 174.884C275.228 174.352 272.006 175.96 272.139 176.231L271.286 176.6C267.749 176.316 264.512 178.108 261.547 181.361C265.607 176.09 270.482 175.487 273.002 174.884Z" fill="#5A189A"/>
<path d="M273.064 171.201C275.29 170.669 276.071 170.402 276.203 170.673L275.413 171.314C265.999 173.325 263.389 178.105 261.547 181.36C262.383 175.499 270.543 171.804 273.064 171.201Z" fill="#190031"/>
<path d="M319.076 186.79C319.885 170.695 312.527 158.824 308.747 154.9L295.572 161.28C298.134 162.578 300.169 168.086 303.331 170.991C303.39 175.644 305.307 180.84 306.258 182.855C302.392 184.495 296.085 184.582 290.078 181.879C282.748 173.122 274.874 170.927 271.854 170.925L276.97 184.104L280.103 184.766L290.492 187.217C299.684 193.781 318.268 202.885 319.076 186.79Z" fill="#5A189A"/>
<path d="M285.155 178.907C282.018 175.828 275.571 172.445 273.175 173.825L272.086 171.138L280.508 173.244C283.364 176.414 288.291 181.985 285.155 178.907Z" fill="#9D4EDD"/>
<path d="M281.016 181.593C282.874 181.419 285.178 183.311 286.098 184.279L287.332 186.457L285.59 186.893L280.29 184.279L276.95 184.279L276.95 182.609C277.531 182.343 279.157 181.767 281.016 181.593Z" fill="black" fill-opacity="0.3"/>
<path d="M271.588 171.136L271.399 171.633C271.195 171.556 271.059 171.362 271.056 171.144C271.053 170.925 271.183 170.727 271.384 170.644L271.588 171.136ZM286.023 178.233L285.647 178.61L285.647 178.61L286.023 178.233ZM307.375 183.128L307.761 182.761C307.89 182.897 307.938 183.09 307.889 183.27C307.839 183.45 307.698 183.591 307.519 183.641L307.375 183.128ZM318.218 187.343L317.706 187.492L317.671 187.371L317.694 187.248L318.218 187.343ZM316.501 194.278L316.244 193.812C316.262 193.802 316.281 193.793 316.3 193.785L316.501 194.278ZM302.465 193.66L302.324 194.173L302.324 194.173L302.465 193.66ZM290.043 186.766L290.037 186.234C290.232 186.232 290.412 186.336 290.507 186.506L290.043 186.766ZM280.653 184.4L280.881 183.919L281.003 183.977L281.083 184.086L280.653 184.4ZM275.276 181.379L275.119 181.888C274.956 181.837 274.827 181.712 274.772 181.551C274.717 181.39 274.742 181.212 274.84 181.073L275.276 181.379ZM276.331 179.69L276.264 179.161L276.318 179.155L276.372 179.159L276.331 179.69ZM271.67 175.757L271.798 176.274L271.458 175.269L271.67 175.757ZM277.066 176.51L277.216 175.999C277.46 176.071 277.619 176.304 277.596 176.557C277.573 176.81 277.375 177.012 277.123 177.039L277.066 176.51ZM273.934 179.991L274.001 180.519C273.844 180.539 273.687 180.489 273.572 180.381C273.457 180.274 273.395 180.122 273.402 179.964L273.934 179.991ZM273.137 176.948L273.138 177.481L273.079 176.419L273.137 176.948ZM276.487 184.685L275.984 184.861C275.949 184.76 275.945 184.651 275.973 184.547L276.487 184.685ZM303.473 170.556L303.834 170.164L304.062 170.374L303.992 170.676L303.473 170.556ZM271.384 170.644C272.959 169.991 275.08 170.171 277.585 171.295C280.099 172.423 283.067 174.53 286.399 177.856L285.647 178.61C282.372 175.341 279.508 173.325 277.149 172.266C274.78 171.203 272.987 171.132 271.792 171.627L271.384 170.644ZM286.399 177.856C289.595 181.046 293.754 182.532 297.663 183.069C301.576 183.607 305.189 183.186 307.232 182.615L307.519 183.641C305.333 184.252 301.573 184.681 297.518 184.124C293.46 183.567 289.057 182.014 285.647 178.61L286.399 177.856ZM318.729 187.194C319.389 189.457 319.356 191.16 318.904 192.408C318.448 193.668 317.584 194.412 316.702 194.771L316.3 193.785C316.922 193.532 317.556 193.003 317.903 192.046C318.254 191.077 318.327 189.619 317.706 187.492L318.729 187.194ZM316.759 194.744C315.995 195.166 314.408 195.573 312.036 195.607C309.645 195.641 306.413 195.298 302.324 194.173L302.606 193.146C306.611 194.248 309.744 194.575 312.021 194.542C314.317 194.509 315.702 194.112 316.244 193.812L316.759 194.744ZM302.324 194.173C298.232 193.047 295.269 191.646 293.221 190.341C291.188 189.045 290.024 187.821 289.579 187.027L290.507 186.506C290.831 187.082 291.83 188.191 293.793 189.443C295.741 190.685 298.605 192.045 302.606 193.146L302.324 194.173ZM290.05 187.299C288.407 187.319 286.445 187.323 284.67 187.013C282.91 186.706 281.212 186.072 280.222 184.713L281.083 184.086C281.823 185.103 283.174 185.671 284.853 185.964C286.518 186.254 288.386 186.254 290.037 186.234L290.05 187.299ZM274.84 181.073C275.37 180.319 276.267 179.867 276.61 179.658C276.717 179.594 276.738 179.573 276.73 179.581C276.729 179.583 276.659 179.649 276.63 179.775C276.59 179.952 276.657 180.114 276.753 180.212C276.79 180.25 276.824 180.271 276.842 180.281C276.851 180.286 276.858 180.289 276.863 180.291C276.868 180.293 276.87 180.294 276.871 180.294C276.871 180.295 276.865 180.293 276.852 180.289C276.839 180.286 276.821 180.282 276.797 180.277C276.695 180.259 276.534 180.239 276.29 180.221L276.372 179.159C276.626 179.178 276.833 179.201 276.992 179.231C277.071 179.245 277.153 179.265 277.23 179.292C277.296 179.316 277.413 179.364 277.513 179.466C277.641 179.597 277.718 179.794 277.669 180.01C277.632 180.175 277.534 180.282 277.488 180.329C277.391 180.428 277.257 180.511 277.163 180.568C276.705 180.847 276.078 181.163 275.712 181.685L274.84 181.073ZM271.778 170.638C272.277 170.828 272.632 171.264 272.863 171.723C273.1 172.192 273.244 172.756 273.284 173.318C273.359 174.389 273.051 175.737 271.883 176.246L271.458 175.269C271.986 175.039 272.287 174.324 272.221 173.392C272.191 172.953 272.077 172.53 271.912 172.202C271.741 171.863 271.549 171.69 271.399 171.633L271.778 170.638ZM271.543 175.24C272.695 174.956 273.831 175.07 274.81 175.287C275.765 175.499 276.668 175.838 277.216 175.999L276.916 177.02C276.251 176.825 275.498 176.53 274.579 176.327C273.684 176.128 272.729 176.044 271.798 176.274L271.543 175.24ZM273.402 179.964C273.415 179.713 273.46 179.385 273.495 179.086C273.532 178.77 273.563 178.458 273.561 178.177C273.559 177.886 273.522 177.691 273.467 177.579C273.431 177.504 273.403 177.484 273.328 177.476L273.446 176.417C273.925 176.471 274.248 176.749 274.425 177.114C274.585 177.442 274.624 177.829 274.626 178.17C274.628 178.521 274.59 178.89 274.553 179.211C274.513 179.549 274.476 179.814 274.466 180.018L273.402 179.964ZM273.328 177.476C273.296 177.472 273.253 177.471 273.195 177.478L273.079 176.419C273.203 176.405 273.326 176.404 273.445 176.417L273.328 177.476ZM273.135 176.416C273.22 176.416 273.301 176.415 273.38 176.414L273.393 177.479C273.311 177.48 273.226 177.48 273.138 177.481L273.135 176.416ZM273.38 176.414C274.34 176.402 274.854 176.336 275.308 176.255C275.767 176.174 276.231 176.064 277.009 175.98L277.123 177.039C276.392 177.117 276.004 177.213 275.494 177.304C274.98 177.395 274.408 177.466 273.393 177.479L273.38 176.414ZM280.424 184.88C280.447 184.891 280.417 184.873 280.281 184.872C280.159 184.872 280.001 184.885 279.807 184.91C279.42 184.962 278.959 185.055 278.484 185.148C278.025 185.237 277.544 185.327 277.163 185.357C276.976 185.371 276.772 185.375 276.591 185.34C276.436 185.309 276.107 185.211 275.984 184.861L276.989 184.509C276.915 184.296 276.73 184.282 276.795 184.294C276.833 184.302 276.922 184.307 277.081 184.295C277.39 184.271 277.809 184.194 278.281 184.102C278.737 184.013 279.239 183.912 279.667 183.855C279.882 183.826 280.095 183.807 280.286 183.807C280.462 183.808 280.686 183.826 280.881 183.919L280.424 184.88ZM275.973 184.547C276.061 184.217 276.064 183.58 275.897 182.979C275.726 182.357 275.437 181.986 275.119 181.888L275.433 180.87C276.29 181.134 276.725 181.975 276.924 182.695C277.128 183.436 277.149 184.27 277.001 184.823L275.973 184.547ZM276.397 180.218L274.001 180.519L273.868 179.463L276.264 179.161L276.397 180.218ZM317.694 187.248C318.743 181.468 318.371 167.391 308.168 155.189L308.985 154.506C319.435 167.004 319.834 181.423 318.741 187.438L317.694 187.248ZM306.989 183.495C306.033 182.488 304.704 180.65 303.773 178.363C302.841 176.074 302.292 173.296 302.955 170.436L303.992 170.676C303.393 173.259 303.881 175.806 304.759 177.962C305.638 180.119 306.891 181.846 307.761 182.761L306.989 183.495ZM303.113 170.947C300.702 168.726 299.323 167.027 298.22 165.505C297.11 163.972 296.331 162.699 295.053 161.228L295.857 160.53C297.175 162.047 298.024 163.419 299.083 164.88C300.149 166.352 301.482 167.997 303.834 170.164L303.113 170.947Z" fill="#240046"/>
<path d="M348.22 240.548C347.779 238.893 347.555 238.322 347.791 238.185L352.875 241.235C352.597 244.008 354.119 246.284 356.907 248.164C351.844 248.265 348.719 242.421 348.22 240.548Z" fill="#240046"/>
<path d="M351.405 240.125C350.964 238.469 352.327 240.758 352.562 240.621L352.874 241.234C352.597 244.007 354.119 246.284 356.907 248.164C352.382 245.694 351.904 241.998 351.405 240.125Z" fill="#5A189A"/>
<path d="M348.22 240.548C347.779 238.893 347.555 238.322 347.791 238.185L348.338 238.714C349.995 245.744 354.107 247.154 356.907 248.164C351.844 248.265 348.719 242.421 348.22 240.548Z" fill="#190031"/>
<path d="M344.463 241.335C344.364 239.625 344.259 239.021 344.518 238.935L347.175 240.503L348.884 242.944C348.055 245.605 349.087 248.141 351.44 250.543C346.46 249.623 344.575 243.271 344.463 241.335Z" fill="#240046"/>
<path d="M347.668 241.562C347.569 239.852 348.444 242.368 348.702 242.281L348.885 242.944C348.055 245.605 349.088 248.141 351.441 250.543C347.506 247.214 347.781 243.498 347.668 241.562Z" fill="#5A189A"/>
<path d="M344.463 241.335C344.364 239.625 344.259 239.021 344.518 238.935L344.948 239.563C345.157 246.782 348.901 248.99 351.44 250.543C346.46 249.623 344.575 243.271 344.463 241.335Z" fill="#190031"/>
<path d="M340.531 239.799C340.953 238.139 341.036 237.532 341.308 237.528L343.369 239.825L344.261 242.668C342.667 244.955 342.885 247.684 344.403 250.685C339.933 248.304 340.054 241.679 340.531 239.799Z" fill="#240046"/>
<path d="M343.518 240.983C343.94 239.323 344.015 241.985 344.287 241.981L344.261 242.668C342.666 244.954 342.885 247.683 344.403 250.684C341.657 246.322 343.041 242.862 343.518 240.983Z" fill="#5A189A"/>
<path d="M340.531 239.799C340.953 238.139 341.036 237.532 341.308 237.528L341.529 238.257C339.548 245.202 342.452 248.437 344.403 250.685C339.933 248.304 340.054 241.679 340.531 239.799Z" fill="#190031"/>
<path d="M336.318 195.627C337.674 193.207 339.106 187.844 333.995 185.753C328.884 183.662 324.702 186.624 323.25 188.367C321.604 189.915 315.528 196.592 319.477 206.815C323.427 217.037 343.095 216.44 350.549 215.375C349.774 216.246 348.341 219.092 348.806 223.507C349.271 227.921 343.449 236.134 341.222 239.813C342.093 239.426 345.553 239.305 346.483 240.931C347.935 239.479 348.225 239.479 349.387 241.222C349.871 240.447 351.071 239.189 352.001 240.35C352.001 237.156 352.291 236.575 353.162 234.252C355.292 231.251 359.842 223.971 361.003 218.86C362.746 214.213 362.746 213.923 362.746 213.342C362.843 212.374 360.713 210.728 356.647 210.148C352.582 209.567 344.837 202.694 342.127 199.402C340.953 198.302 338.222 196.334 334.946 195.344C335.466 195.445 335.939 195.543 336.318 195.627Z" fill="#5A189A"/>
<path d="M353.327 227.148C355.127 224.767 358.191 215.895 359.498 211.756L362.983 212.482L359.135 223.663L352.964 235.062L352.165 239.346C351.1 240.556 348.898 242.424 348.607 240.217H347.192L342.4 239.563C342.037 239.067 341.609 238.061 342.799 238.002C343.99 237.944 344.893 238.202 345.195 238.338C347.025 237.764 348.294 238.099 348.699 238.338C349.243 234.963 351.48 229.59 353.327 227.148Z" fill="black" fill-opacity="0.3"/>
<path d="M336.317 195.626C336.643 195.044 336.974 194.292 337.217 193.455M327.027 195.626C327.902 194.907 328.77 194.61 331.671 194.755C336.317 194.988 340.577 197.95 342.126 199.402C344.836 202.693 352.581 209.566 356.646 210.147C360.712 210.728 362.842 212.374 362.745 213.342C362.745 213.922 362.745 214.213 361.002 218.86C359.841 223.971 355.291 231.25 353.161 234.251C352.29 236.575 352 237.156 352 240.35C350.841 240.06 349.289 240.447 348.805 241.221C347.643 239.479 346.191 239.479 344.739 240.931C343.81 239.305 341.802 239.479 340.964 239.479C343.19 235.8 349.27 227.92 348.805 223.506C348.34 219.092 349.773 216.246 350.548 215.375C343.094 216.439 323.426 217.037 319.477 206.814C315.527 196.592 321.603 189.915 323.249 188.366C323.535 188.022 323.928 187.631 324.414 187.24" stroke="#240046" stroke-width="1.06485" stroke-linecap="round"/>
<path d="M402.731 119.377C403.312 106.142 419.344 102.338 427.288 102.09C418.569 95.7791 393.779 94.3375 382.398 94.622C357.098 96.3084 329.882 99.6555 318.441 114.413C330.381 129.146 331.999 152.846 330.807 162.846C329.853 170.846 316.396 175.809 309.786 177.291L320.583 182.709L330.17 174.308C346.24 152.37 363.214 139.549 373.491 138.761C378.048 127.367 385.727 120.095 402.731 119.377Z" fill="#5A189A"/>
<path d="M343.654 103.275C329.637 106.144 322.013 113.385 320.128 115.899L318.16 113.44L323.571 108.685L335.785 102.455C344.146 100.734 357.938 100.351 343.654 103.275Z" fill="#9D4EDD"/>
<path d="M427.288 102.09L427.6 101.658C427.784 101.792 427.864 102.028 427.797 102.246C427.73 102.464 427.532 102.615 427.304 102.622L427.288 102.09ZM402.731 119.377L403.263 119.4L403.242 119.888L402.754 119.909L402.731 119.377ZM373.491 138.761L373.985 138.958C373.91 139.147 373.734 139.276 373.532 139.291L373.491 138.761ZM330.17 174.308L330.6 174.623C330.577 174.654 330.551 174.683 330.521 174.709L330.17 174.308ZM309.786 177.291L309.547 177.767C309.346 177.666 309.23 177.449 309.258 177.226C309.285 177.003 309.45 176.821 309.67 176.771L309.786 177.291ZM330.807 162.846L330.278 162.783L330.278 162.783L330.807 162.846ZM318.441 114.413L318.027 114.749L317.761 114.421L318.02 114.087L318.441 114.413ZM382.398 94.622L382.362 94.0908C382.37 94.0903 382.377 94.0899 382.384 94.0897L382.398 94.622ZM320.583 182.709L320.934 183.109C320.771 183.252 320.538 183.282 320.344 183.184L320.583 182.709ZM427.304 102.622C423.388 102.744 417.478 103.746 412.494 106.336C407.521 108.92 403.542 113.04 403.263 119.4L402.2 119.354C402.501 112.48 406.829 108.079 412.003 105.391C417.166 102.708 423.244 101.683 427.271 101.558L427.304 102.622ZM402.754 119.909C394.324 120.265 388.263 122.243 383.755 125.497C379.247 128.752 376.24 133.321 373.985 138.958L372.997 138.563C375.299 132.807 378.409 128.044 383.132 124.634C387.854 121.225 394.135 119.207 402.709 118.845L402.754 119.909ZM373.532 139.291C368.557 139.673 361.849 142.991 354.336 149.018C346.842 155.03 338.613 163.684 330.6 174.623L329.741 173.994C337.797 162.994 346.09 154.268 353.67 148.188C361.23 142.123 368.148 138.636 373.45 138.23L373.532 139.291ZM309.67 176.771C312.938 176.039 317.903 174.443 322.156 172.049C326.446 169.634 329.834 166.508 330.278 162.783L331.336 162.909C330.826 167.184 327.008 170.54 322.679 172.977C318.312 175.435 313.244 177.062 309.902 177.81L309.67 176.771ZM330.278 162.783C330.867 157.843 330.764 149.474 329.026 140.506C327.287 131.536 323.922 122.022 318.027 114.749L318.854 114.078C324.9 121.538 328.314 131.24 330.071 140.303C331.829 149.368 331.939 157.849 331.336 162.909L330.278 162.783ZM318.02 114.087C323.85 106.567 333.656 102.002 345.091 99.0998C356.539 96.1947 369.709 94.9342 382.362 94.0908L382.433 95.1533C369.787 95.9962 356.7 97.2524 345.353 100.132C333.996 103.014 324.473 107.502 318.861 114.74L318.02 114.087ZM382.384 94.0897C388.1 93.9469 397.169 94.2372 405.909 95.3546C410.278 95.9133 414.576 96.6802 418.336 97.707C422.086 98.7312 425.343 100.025 427.6 101.658L426.976 102.521C424.873 100.999 421.761 99.7462 418.055 98.7342C414.359 97.7247 410.114 96.9657 405.774 96.4108C397.093 95.3009 388.077 95.0126 382.411 95.1543L382.384 94.0897ZM310.025 176.815L320.822 182.233L320.344 183.184L309.547 177.767L310.025 176.815ZM330.521 174.709L320.934 183.109L320.232 182.308L329.819 173.908L330.521 174.709Z" fill="#240046"/>
<path d="M315.911 112.792C316.913 114.308 316.948 114.61 317.496 114.796C318.044 114.983 319.534 114.63 320.313 113.934C321.275 113.074 320.277 111.444 320.277 111.444C317.813 109.712 314.396 104.507 314.131 100.521C312.053 106.061 314.776 111.076 315.911 112.792Z" fill="#240046"/>
<path d="M316.803 107.513C315.406 105.346 314.279 102.744 314.131 100.522C312.965 103.63 313.311 106.574 314.039 108.862C313.733 106.453 313.763 103.87 316.803 107.513Z" fill="#5A189A"/>
<path d="M270.79 102.297C279.228 107.687 279.419 113.313 278.461 115.452L283.255 110.318C282.296 103.26 281.657 105.506 275.265 98.1264C270.151 92.223 273.381 84.6678 273.986 81.7637C270.79 81.7637 262.352 96.9072 270.79 102.297Z" fill="#5A189A"/>
<path d="M270.683 102.297C279.121 107.687 279.312 113.312 278.354 115.451L283.148 110.318C282.189 103.259 280.537 105.696 274.145 98.3167C269.031 92.4133 272.378 85.8289 272.983 82.9248C269.787 82.9248 262.634 97.155 270.683 102.297Z" fill="#240046"/>
<path d="M270.683 102.297C279.12 107.687 279.312 113.312 278.353 115.451L279.041 114.87C279.83 113.111 279.84 108.993 275.123 104.587C274.105 103.636 272.868 102.673 271.37 101.716C266.076 98.3342 267.197 91.0202 269.605 86.41C269.845 85.9304 269.945 85.6355 270.186 85.2483L270.388 84.8921C267.304 88.9786 264.481 98.3354 270.683 102.297Z" fill="black" fill-opacity="0.3"/>
<path d="M309.1 109.724C304.763 111.281 302.535 115.327 302.49 116.324L297.845 112.679C299.065 110.614 304.855 108.389 309.1 109.724Z" fill="#240046"/>
<path d="M299.135 111.41C301.395 109.846 305.734 108.665 309.101 109.725C308.84 109.818 308.586 109.921 308.341 110.031C306.382 110.15 302.019 110.871 300.233 112.802L299.135 111.41Z" fill="#5A189A"/>
<path d="M483.695 128.869C482.345 132.749 484.455 134.063 485.215 134.501L480.403 136.504C479.305 134.751 481.247 130.746 483.695 128.869Z" fill="#240046"/>
<path d="M483.695 128.868C483.317 129.952 483.21 130.836 483.268 131.556C482.497 130.849 480.855 133.334 480.13 134.665C480.397 132.732 481.911 130.236 483.695 128.868Z" fill="#5A189A"/>
<path d="M477.15 130.081C475.447 134.234 477.018 137.416 477.736 138.101L471.929 139.073C471.188 136.839 473.34 132.275 477.15 130.081Z" fill="#240046"/>
<path d="M477.15 130.082C476.748 131.062 476.529 131.988 476.438 132.841C475.748 132.777 473.987 133.185 472.458 135.322C473.318 133.388 474.96 131.343 477.15 130.082Z" fill="#5A189A"/>
<path d="M469.948 130.244C467.113 134.871 468.235 138.937 468.911 139.882L462.052 139.984C461.679 137.195 465.117 132.161 469.948 130.244Z" fill="#240046"/>
<path d="M463.638 135.351C465.049 133.3 467.287 131.3 469.948 130.244C469.165 131.522 468.684 132.757 468.411 133.895C467.807 132.415 464.977 134.249 463.638 135.351Z" fill="#5A189A"/>
<path d="M462.05 130.925C458.305 134.85 458.509 139.042 458.959 140.101L452.303 138.793C452.546 135.998 456.961 131.8 462.05 130.925Z" fill="#240046"/>
<path d="M462.049 130.925C461.593 131.403 461.196 131.885 460.85 132.365C458.465 132.537 454.791 135.158 453.253 136.448C454.853 134.065 458.265 131.576 462.049 130.925Z" fill="#5A189A"/>
<path d="M452.975 128.399C448.742 131.798 447.815 137.16 448.148 138.288L441.574 136.013C442.14 133.243 447.734 128.542 452.975 128.399Z" fill="#240046"/>
<path d="M452.976 128.398C452.396 128.864 451.879 129.365 451.419 129.888C448.08 130.01 444.144 132.686 442.593 134.009C444.545 131.422 448.869 128.51 452.976 128.398Z" fill="#5A189A"/>
<path d="M404.665 126.997C404.056 133.149 408.53 138.127 409.97 138.74L401.487 142.358C399.259 139.715 399.855 131.419 404.665 126.997Z" fill="#240046"/>
<path d="M404.666 126.996C404.459 129.089 405.106 131.68 405.755 133.375C403.098 129.099 401.297 132.431 400.653 134.239C401.259 131.616 402.558 128.934 404.666 126.996Z" fill="#5A189A"/>
<path d="M394.132 132.744C393.666 138.909 398.255 143.782 399.709 144.361L391.312 148.176C389.023 145.585 389.426 137.277 394.132 132.744Z" fill="#240046"/>
<path d="M395.096 138.382C395.186 138.634 395.277 138.872 395.369 139.095C395.29 138.823 395.198 138.586 395.096 138.382C394.507 136.74 393.994 134.562 394.131 132.744C392.069 134.73 390.833 137.441 390.288 140.079C390.845 138.39 393.812 135.828 395.096 138.382Z" fill="#5A189A"/>
<path d="M383.02 137.89C382.509 144.669 387.555 150.027 389.154 150.664L379.92 154.859C377.403 152.011 377.845 142.875 383.02 137.89Z" fill="#240046"/>
<path d="M383.021 137.889C382.915 139.287 383.046 140.625 383.334 141.874C380.649 141.874 378.951 146.595 378.437 148.956C378.548 145.258 379.953 140.844 383.021 137.889Z" fill="#5A189A"/>
<path d="M370.828 143.044C370.316 149.824 375.362 155.182 376.961 155.819L367.727 160.014C365.21 157.165 365.653 148.029 370.828 143.044Z" fill="#240046"/>
<path d="M370.827 143.043C370.695 144.786 370.931 146.435 371.381 147.934C368.747 147.435 366.861 151.776 366.247 154.008C366.381 150.332 367.787 145.971 370.827 143.043Z" fill="#5A189A"/>
<path d="M360.544 148.773C360.033 155.553 365.079 160.911 366.678 161.547L357.444 165.742C354.927 162.894 355.369 153.758 360.544 148.773Z" fill="#240046"/>
<path d="M360.544 148.772C360.436 150.206 360.577 151.576 360.88 152.851C358.528 154.107 357.214 157.749 356.851 159.413L356.403 156.453C357.04 153.676 358.377 150.86 360.544 148.772Z" fill="#5A189A"/>
<path d="M416.447 122.63C414.859 128.524 417.574 134.007 418.625 134.81L411.146 137.106C409.823 134.216 411.783 126.236 416.447 122.63Z" fill="#240046"/>
<path d="M411.922 129.094C412.878 126.63 414.402 124.21 416.446 122.63C416.125 123.822 415.95 125.231 415.96 126.542C415.373 126.404 413.797 126.721 411.922 129.094Z" fill="#5A189A"/>
<path d="M430.247 121.797C426.767 126.812 427.478 132.89 428.196 134L420.382 133.644C420.109 130.477 424.641 123.623 430.247 121.797Z" fill="#240046"/>
<path d="M430.246 121.798C429.641 122.67 429.163 123.573 428.79 124.477C425.819 125.425 422.835 128.097 421.714 129.315C423.429 126.279 426.612 122.982 430.246 121.798Z" fill="#5A189A"/>
<path d="M442.265 126.623C438.066 129.822 437.033 135.011 437.328 136.115L430.994 133.742C431.614 131.064 437.167 126.632 442.265 126.623Z" fill="#240046"/>
<path d="M442.264 126.622C441.571 127.15 440.965 127.731 440.437 128.34C437.447 128.34 433.497 130.779 431.895 131.998C433.787 129.486 438.172 126.63 442.264 126.622Z" fill="#5A189A"/>
<path d="M334.435 158.875C327.454 158.827 322.175 163.42 321.59 164.815L316.883 157.207C319.697 154.906 329.094 154.761 334.435 158.875Z" fill="#240046"/>
<path d="M318.505 156.343C322.357 154.955 329.874 155.363 334.435 158.876C326.173 156.501 320.839 157.886 319.205 158.876L318.505 156.343Z" fill="#5A189A"/>
<path d="M331.278 149.408C324.665 147.672 318.042 150.868 317.15 152.05L315.026 143.574C318.254 142.072 327.205 144.211 331.278 149.408Z" fill="#240046"/>
<path d="M316.774 143.147C320.766 142.763 327.8 144.971 331.277 149.409C324.012 145.154 318.616 145.177 316.825 145.72L316.774 143.147Z" fill="#5A189A"/>
<path d="M326.332 136.731C320.806 135.942 316.129 139.015 315.516 140.057L312.604 133.523C315.081 132.002 322.542 132.897 326.332 136.731Z" fill="#240046"/>
<path d="M314.996 135.235C314.763 134.509 314.276 133.439 314.062 132.996C316.938 132.414 321.909 133.262 325.225 135.766C318.901 133.574 316.194 134.908 314.996 135.235Z" fill="#5A189A"/>
<path d="M321.327 126.771C316.398 127.015 312.855 130.468 312.498 131.475L308.872 126.294C310.767 124.557 317.393 124.08 321.327 126.771Z" fill="#240046"/>
<path d="M311.235 127.378C310.912 126.787 310.309 125.941 310.048 125.591C312.447 124.603 316.904 124.503 320.203 126.119C314.346 125.28 312.22 126.893 311.235 127.378Z" fill="#5A189A"/>
<path d="M314.588 116.764C310.087 117.751 307.358 121.478 307.185 122.461L303.046 118.249C304.522 116.358 310.549 114.895 314.588 116.764Z" fill="#240046"/>
<path d="M305.389 118.882C305 118.388 304.314 117.702 304.02 117.421C306.076 116.14 310.165 115.36 313.452 116.338C307.929 116.47 306.221 118.284 305.389 118.882Z" fill="#5A189A"/>
<path d="M307.337 105.202C298.899 110.592 298.708 116.217 299.666 118.356L294.872 113.223C295.831 106.165 296.47 108.41 302.862 101.031C307.976 95.1277 304.746 87.5726 304.141 84.6685C307.337 84.6685 315.775 99.812 307.337 105.202Z" fill="#5A189A"/>
<path d="M307.444 105.202C299.006 110.592 298.814 116.217 299.773 118.356L294.979 113.222C295.938 106.164 297.59 108.601 303.982 101.221C309.096 95.3181 305.749 88.7337 305.144 85.8296C308.34 85.8296 315.493 100.06 307.444 105.202Z" fill="#240046"/>
<path d="M307.444 105.203C299.007 110.593 298.815 116.218 299.774 118.357L299.086 117.776C298.297 116.017 298.287 111.899 303.004 107.493C304.022 106.542 305.259 105.578 306.756 104.622C312.051 101.24 310.93 93.926 308.522 89.3157C308.282 88.8362 308.182 88.5412 307.941 88.1541L307.738 87.7979C310.823 91.8844 313.646 101.241 307.444 105.203Z" fill="black" fill-opacity="0.3"/>
<path d="M238.642 108.608C245.176 110.534 260.254 110.694 266.977 110.534L291.509 107.11C298.997 112.71 314.306 127.867 315.637 143.695L285.304 148.629C286.3 143.065 281.096 133.664 274.098 138.558C267.1 143.452 250.946 143.233 243.743 142.512C242.71 141.825 240.573 140.121 240.292 138.806C240.012 137.491 241.826 136.673 242.768 136.429L242.682 136.41C242.195 136.386 241.687 136.355 241.156 136.319C233.784 135.818 230.474 106.202 238.642 108.608Z" fill="#9D4EDD"/>
<path d="M266.977 113.438C260.255 113.598 245.176 113.438 238.642 111.512C230.474 109.106 233.784 135.818 241.156 136.319L241.158 136.319C241.422 136.337 241.679 136.355 241.931 136.724C241.04 137.12 240.083 137.825 240.293 138.806C240.574 140.121 242.711 141.825 243.744 142.512C250.946 143.233 267.101 143.451 274.098 138.558C281.096 133.664 291.305 141.833 290.31 147.397C290.31 147.397 298.151 181.956 303.669 195.025C314.414 209.255 326.321 211.288 326.321 211.288L351.006 211.288C351.006 211.288 352.458 211.869 365.527 204.027C378.596 196.186 394.568 167.435 394.568 167.435C394.568 167.435 404.152 150.011 418.673 147.397C435.226 148.559 466.881 144.783 466.881 144.783L475.578 141.861L479.659 138.394L466.881 140.427C466.881 140.427 451.78 140.691 442.486 136.929C433.193 133.167 417.801 134.909 417.801 134.909L372.787 158.142L341.132 170.92L326.684 168.887L319.351 164.822L315.638 143.695C314.307 127.867 298.998 115.614 291.51 110.014L266.977 113.438Z" fill="#5A189A"/>
<path d="M244.905 139.608C243.872 138.921 241.735 137.217 241.454 135.902C245.104 135.788 251.532 135.502 248.048 135.269C244.563 135.037 242.775 133.936 242.317 133.415C238.173 130.042 234.187 120.681 235.237 113.488C234.086 117.554 233.178 127.603 238.754 135.269C239.684 136.182 240.497 137.005 240.787 137.302C240.753 138.658 241.333 141.542 243.93 142.239C247.176 143.111 270.409 143.982 276.218 137.883L281.326 137.883C280.788 134.77 279.133 132.945 275.26 135.654C268.262 140.547 252.108 140.329 244.905 139.608Z" fill="black" fill-opacity="0.3"/>
<path d="M288.857 142.46C286.301 139.44 284.017 138.491 281.887 138.975C283.339 140.137 286.127 143.912 285.662 149.72C285.198 155.529 284.694 161.047 284.501 163.079C284.888 168.791 285.779 180.504 286.243 181.666C286.824 183.118 288.276 199.091 292.632 205.189C296.988 211.288 301.635 216.515 307.734 219.71C313.832 222.905 330.386 225.518 338.518 225.228C346.649 224.937 359.718 222.614 369.592 214.773C379.466 206.932 389.049 195.315 392.244 189.797C394.8 185.383 404.925 169.372 409.669 161.918C411.702 159.691 417.394 154.948 423.899 153.786C432.03 152.334 431.74 152.044 438.42 151.753L438.55 151.748C445.19 151.459 452.129 151.157 461.362 148.849C470.655 146.526 477.045 144.493 480.239 142.751C482.795 141.357 486.725 137.33 488.371 135.49C463.395 150.882 438.71 146.236 423.318 147.107C411.005 147.804 401.537 157.271 398.343 161.918C393.212 170.63 379.64 191.017 366.397 202.866C353.154 214.715 334.065 212.934 326.03 211.578C315.575 208.79 304.514 197.811 301.925 190.959C296.988 177.891 292.051 146.236 288.857 142.46Z" fill="#9D4EDD"/>
<path d="M291.744 157.032C290.431 158.105 287.424 159.98 285.902 158.894C286.354 158.801 288.079 158.96 291.744 157.032Z" fill="black" fill-opacity="0.3"/>
<path d="M294.062 167.172C292.311 168.603 288.3 171.103 286.27 169.654C286.873 169.531 289.174 169.744 294.062 167.172Z" fill="black" fill-opacity="0.3"/>
<path d="M296.281 177.69C294.023 179.535 289.53 182.351 286.913 180.483C287.69 180.323 289.978 181.006 296.281 177.69Z" fill="black" fill-opacity="0.3"/>
<path d="M299.119 187.476C296.93 189.74 292.256 193.421 289.049 191.533C289.881 191.289 292.704 191.73 299.119 187.476Z" fill="black" fill-opacity="0.3"/>
<path d="M303.299 197.486C301.513 200.079 297.072 204.933 293.599 203.599C294.38 203.222 297.672 202.738 303.299 197.486Z" fill="black" fill-opacity="0.3"/>
<path d="M309.441 205.758C308.294 208.691 305.078 214.43 301.392 213.924C302.065 213.378 305.16 212.156 309.441 205.758Z" fill="black" fill-opacity="0.3"/>
<path d="M328.898 213.134C329.386 215.857 329.614 221.632 326.621 222.946C326.875 222.228 328.631 219.891 328.898 213.134Z" fill="black" fill-opacity="0.3"/>
<path d="M339.383 213.751C340.312 216.357 341.485 222.016 338.748 223.804C338.881 223.054 340.229 220.46 339.383 213.751Z" fill="black" fill-opacity="0.3"/>
<path d="M349.058 212.453C350.62 214.736 353.198 219.908 351.008 222.335C350.945 221.576 351.587 218.724 349.058 212.453Z" fill="black" fill-opacity="0.3"/>
<path d="M357.098 208.186C359.376 209.755 363.641 213.655 362.469 216.707C362.137 216.021 361.712 213.129 357.098 208.186Z" fill="black" fill-opacity="0.3"/>
<path d="M372.904 198.848C374.862 199.754 378.653 202.192 378.153 204.692C377.808 204.209 377.101 202.041 372.904 198.848Z" fill="black" fill-opacity="0.3"/>
<path d="M380.911 190.905C382.681 191.617 386.155 193.572 385.888 195.7C385.554 195.301 384.79 193.488 380.911 190.905Z" fill="black" fill-opacity="0.3"/>
<path d="M387.268 181.535C388.869 182.179 392.01 183.947 391.769 185.871C391.467 185.51 390.776 183.871 387.268 181.535Z" fill="black" fill-opacity="0.3"/>
<path d="M393.465 171.764C395.066 172.408 398.207 174.176 397.966 176.1C397.664 175.739 396.973 174.1 393.465 171.764Z" fill="black" fill-opacity="0.3"/>
<path d="M399.317 163.834C400.737 164.405 403.522 165.973 403.308 167.679C403.04 167.359 402.428 165.905 399.317 163.834Z" fill="black" fill-opacity="0.3"/>
<path d="M406.486 155.937C407.626 156.671 409.789 158.501 409.317 159.951C409.138 159.627 408.847 158.259 406.486 155.937Z" fill="black" fill-opacity="0.3"/>
<path d="M414.345 150.928C415.158 151.878 416.584 154.066 415.785 155.222C415.711 154.888 415.817 153.604 414.345 150.928Z" fill="black" fill-opacity="0.3"/>
<path d="M423.5 148.623C423.982 149.49 424.745 151.416 423.941 152.188C423.937 151.918 424.221 150.936 423.5 148.623Z" fill="black" fill-opacity="0.3"/>
<path d="M278.112 136.942C280.241 136.458 287.986 140.427 290.019 145.655C291.811 150.264 296.988 177.891 301.926 190.959C304.514 197.811 314.413 208.5 324.868 211.288C332.903 212.643 353.154 214.715 366.397 202.866C379.64 191.017 393.212 170.63 398.343 161.918C401.537 157.271 411.005 147.804 423.318 147.107C438.71 146.236 463.395 150.882 488.371 135.49" stroke="#240046" stroke-width="1.06485"/>
<path d="M283.745 141.194C283.299 139.756 282.838 138.759 281.887 138.975C282.406 139.39 283.095 140.139 283.745 141.194C284.194 142.639 284.627 144.529 285.529 146.083C285.706 147.186 285.768 148.401 285.662 149.72C285.198 155.529 284.694 161.047 284.501 163.079C284.888 168.791 285.779 180.504 286.243 181.666C286.824 183.118 288.276 199.091 292.632 205.189C296.988 211.288 301.635 216.515 307.734 219.71C313.832 222.905 330.386 225.518 338.518 225.228C346.649 224.937 359.718 222.614 369.592 214.773C379.466 206.932 389.049 195.315 392.244 189.797C394.8 185.383 404.925 169.372 409.669 161.918C411.702 159.691 417.394 154.948 423.899 153.786C432.03 152.334 431.74 152.044 438.42 151.753L438.55 151.748C445.19 151.459 452.129 151.157 461.362 148.849C470.655 146.526 477.045 144.493 480.239 142.751C482.795 141.357 486.725 137.33 488.371 135.49C463.395 150.882 446.842 147.978 422.592 151.753C413.444 153.178 409.233 159.159 403.28 164.241C397.326 169.323 387.191 191.308 373.948 203.156C360.705 215.005 345.997 223.542 326.901 219.71C312.189 216.758 304.122 210.028 295.246 197.929C283.323 181.677 289.438 150.882 286.243 147.107C285.976 146.791 285.74 146.446 285.529 146.083C285.207 144.066 284.502 142.422 283.745 141.194Z" fill="black" fill-opacity="0.3"/>
<path d="M313.107 144.057C311.776 128.23 300.702 116.986 293.214 111.386C299.119 114 311.742 123.002 314.995 138.104C314.559 154.004 318.867 159.062 318.77 160.103C318.383 163.589 321.456 170.487 336.848 170.195C352.24 169.902 369.979 160.925 376.925 156.473L412.356 136.724L427.675 134.256L446.987 138.54C452.65 139.266 465.356 140.587 470.874 140.064C487.369 135.65 488.807 136.144 493.24 133.818C479.765 147.293 456.261 144.466 446.193 141.368C439.03 138.561 422.564 133.701 410.25 141.368C394.858 150.952 368.285 163.951 355.217 169.178C342.148 174.406 332.855 171.937 322.981 170.195C315.082 168.801 313.16 151.704 313.107 144.057Z" fill="#9D4EDD"/>
<path d="M238.641 108.608C245.176 110.533 260.254 110.694 266.976 110.534L291.509 107.109C298.997 112.71 314.306 127.867 315.637 143.695C315.691 151.341 317.772 166.982 325.671 168.376C335.545 170.119 342.225 171.571 355.294 166.343C368.362 161.116 392.757 148.628 408.149 139.045C420.462 131.378 437.868 135.076 445.031 137.883C455.099 140.981 478.603 143.807 492.078 130.332C491.013 134.108 484.76 142.762 468.264 147.176C451.769 151.59 441.837 152.113 438.932 151.823C431.479 151.726 414.886 154.03 408.149 164.02C401.411 174.01 393.338 187.544 390.143 193.061C383.56 203.129 365.342 223.555 345.129 224.716C324.916 225.878 312.119 222.103 308.247 220.07C303.6 217.843 291.751 209.615 288.499 194.513C285.246 179.412 284.626 166.924 284.723 162.568L285.594 148.338C285.594 142.239 281.095 133.664 274.098 138.557C267.1 143.451 250.946 143.233 243.743 142.512C242.71 141.824 240.573 140.121 240.292 138.806C240.011 137.491 241.826 136.673 242.768 136.428L242.682 136.41C242.195 136.385 241.687 136.355 241.155 136.319C233.784 135.818 230.474 106.202 238.641 108.608Z" stroke="#240046" stroke-width="1.06485"/>
<path d="M279.467 136.697L280.576 129.208L275.459 130.537L279.467 136.697Z" fill="white"/>
<path d="M279.233 135.46L279.471 132.694L279.011 133.958L276.837 130.527L276.122 130.627L279.233 135.46Z" fill="black" fill-opacity="0.3"/>
<path d="M279.467 136.697L280.576 129.208L275.459 130.537L279.467 136.697Z" stroke="#240046" stroke-width="0.532424"/>
<path d="M285.432 135.33L285.937 127.776L280.943 129.512L285.432 135.33Z" fill="white"/>
<path d="M285.106 134.046L285.122 131.27L284.765 132.567L282.323 129.322L281.618 129.478L285.106 134.046Z" fill="black" fill-opacity="0.3"/>
<path d="M285.432 135.33L285.937 127.776L280.943 129.512L285.432 135.33Z" stroke="#240046" stroke-width="0.532424"/>
<path d="M291.387 133.457V125.326L286.16 127.543L291.387 133.457Z" fill="white"/>
<path d="M291.006 132.214L290.824 129.237L290.534 130.653L287.684 127.35L286.94 127.567L291.006 132.214Z" fill="black" fill-opacity="0.3"/>
<path d="M291.387 133.457V125.326L286.16 127.543L291.387 133.457Z" stroke="#240046" stroke-width="0.532424"/>
<path d="M292.48 122.492C291.792 123.987 286.589 128.332 270.159 131.81C253.916 135.25 251.317 136.806 242.538 136.413" stroke="#240046" stroke-width="1.06485"/>
<path d="M246.396 120.955C247.692 117.485 245.21 116.904 243.627 116.121C243.627 116.121 244.137 115.655 245.21 115.609C247.074 115.529 250.76 115.986 247.692 120.114C247.034 120.998 246.396 120.955 246.396 120.955Z" fill="#240046"/>
<path d="M273.086 105.818C273.2 109.668 276.098 112.612 279.45 112.513C282.803 112.413 285.521 109.303 285.407 105.452C285.293 101.602 282.395 98.6581 279.042 98.7575C275.69 98.8569 272.972 101.967 273.086 105.818Z" fill="white" stroke="#240046" stroke-width="1.06485"/>
<ellipse rx="1.91303" ry="3.34781" transform="matrix(-0.999561 0.0296415 0.0296415 0.999561 277.935 106.077)" fill="black"/>
<path d="M279.027 98.2253C282.723 98.1157 285.818 101.344 285.939 105.437C285.95 105.817 285.935 106.191 285.896 106.558L272.551 105.445C272.617 101.528 275.448 98.3314 279.027 98.2253Z" fill="#9D4EDD"/>
<path d="M274.667 104.416C275.594 102.479 277.186 101.184 279.028 101.129C281.218 101.064 283.159 102.772 284.096 105.287L274.667 104.416Z" fill="#5A189A"/>
<path d="M285.407 105.452C285.293 101.602 282.395 98.6581 279.042 98.7575C275.943 98.8494 273.388 101.512 273.108 104.957L285.405 105.982C285.411 105.807 285.412 105.631 285.407 105.452Z" stroke="#240046" stroke-width="1.06485"/>
<path d="M370.746 238.341C370.305 236.686 370.081 236.116 370.317 235.979L375.401 239.028C375.123 241.801 376.645 244.078 379.433 245.958C374.369 246.058 371.245 240.215 370.746 238.341Z" fill="#240046"/>
<path d="M373.932 237.919C373.491 236.264 374.854 238.552 375.089 238.415L375.401 239.028C375.124 241.802 376.645 244.078 379.434 245.958C374.909 243.489 374.431 239.793 373.932 237.919Z" fill="#5A189A"/>
<path d="M370.746 238.341C370.305 236.686 370.081 236.116 370.317 235.979L370.864 236.508C372.521 243.537 376.633 244.947 379.433 245.958C374.369 246.058 371.245 240.215 370.746 238.341Z" fill="#190031"/>
<path d="M366.989 239.127C366.89 237.417 366.786 236.814 367.044 236.727L369.702 238.295L371.411 240.737C370.581 243.397 371.614 245.933 373.967 248.336C368.986 247.416 367.101 241.063 366.989 239.127Z" fill="#240046"/>
<path d="M370.193 239.354C370.094 237.644 370.969 240.16 371.227 240.073L371.41 240.736C370.58 243.397 371.613 245.933 373.966 248.335C370.031 245.006 370.306 241.289 370.193 239.354Z" fill="#5A189A"/>
<path d="M366.989 239.127C366.89 237.417 366.786 236.814 367.044 236.727L367.474 237.356C367.683 244.575 371.428 246.783 373.967 248.336C368.986 247.416 367.101 241.063 366.989 239.127Z" fill="#190031"/>
<path d="M363.057 237.593C363.479 235.933 363.561 235.326 363.834 235.321L365.894 237.619L366.786 240.462C365.192 242.748 365.411 245.477 366.929 248.478C362.459 246.098 362.579 239.472 363.057 237.593Z" fill="#240046"/>
<path d="M366.044 238.777C366.466 237.117 366.54 239.779 366.813 239.775L366.786 240.462C365.192 242.748 365.411 245.477 366.929 248.478C364.183 244.116 365.567 240.656 366.044 238.777Z" fill="#5A189A"/>
<path d="M363.057 237.593C363.479 235.933 363.561 235.326 363.834 235.321L364.054 236.05C362.074 242.995 364.977 246.231 366.929 248.478C362.459 246.098 362.579 239.472 363.057 237.593Z" fill="#190031"/>
<path d="M358.845 193.42C360.2 191 361.633 185.637 356.522 183.546C351.411 181.455 347.229 184.418 345.777 186.16C344.131 187.709 338.055 194.386 342.004 204.608C345.954 214.831 365.621 214.233 373.075 213.168C372.301 214.04 370.868 216.886 371.333 221.3C371.798 225.714 365.976 233.928 363.749 237.606C364.62 237.219 368.08 237.098 369.01 238.725C370.462 237.273 370.752 237.273 371.914 239.015C372.398 238.241 373.598 236.982 374.527 238.144C374.527 234.949 374.818 234.369 375.689 232.045C377.819 229.044 382.369 221.765 383.53 216.653C385.273 212.007 385.273 211.716 385.273 211.136C385.37 210.168 383.24 208.522 379.174 207.941C375.108 207.36 367.364 200.487 364.653 197.196C363.48 196.095 360.749 194.127 357.473 193.138C357.993 193.239 358.466 193.337 358.845 193.42Z" fill="#5A189A"/>
<path d="M375.836 224.791C377.637 222.41 380.7 213.538 382.007 209.399L385.492 210.125L381.644 221.306L375.473 232.705L374.674 236.989C373.609 238.199 371.407 240.067 371.117 237.86H369.701L364.909 237.206C364.546 236.71 364.118 235.704 365.308 235.645C366.499 235.587 367.402 235.845 367.704 235.981C369.534 235.407 370.803 235.742 371.209 235.981C371.753 232.606 373.99 227.233 375.836 224.791Z" fill="black" fill-opacity="0.3"/>
<path d="M375.545 211.796C356.61 211.912 347.593 208.747 341.204 199.163C342.075 211.796 355.119 213.151 361.605 213.103C364.509 213.829 369.519 213.103 375.545 211.796Z" fill="black" fill-opacity="0.3"/>
<path d="M366.034 201.413C361.736 195.198 353.304 194.032 349.626 194.225L351.659 192.701L360.734 194.661L370.463 202.865L379.684 208.31C376.925 208.601 370.332 207.628 366.034 201.413Z" fill="#9D4EDD"/>
<path d="M358.844 193.42C359.17 192.838 359.501 192.085 359.744 191.249M349.554 193.42C350.428 192.701 351.297 192.404 354.198 192.549C358.844 192.781 363.104 195.743 364.653 197.195C367.363 200.487 375.107 207.36 379.173 207.941C383.239 208.521 385.369 210.167 385.272 211.135C385.272 211.716 385.272 212.006 383.529 216.653C382.368 221.764 377.818 229.044 375.688 232.045C374.817 234.368 374.526 234.949 374.526 238.144C373.368 237.853 371.816 238.24 371.332 239.015C370.17 237.272 368.718 237.272 367.266 238.724C366.337 237.098 364.329 237.272 363.491 237.272C365.717 233.594 371.797 225.714 371.332 221.3C370.867 216.885 372.3 214.039 373.074 213.168C365.62 214.233 345.953 214.83 342.003 204.608C338.054 194.385 344.13 187.708 345.776 186.16C346.062 185.816 346.455 185.424 346.94 185.034" stroke="#240046" stroke-width="1.06485" stroke-linecap="round"/>
<path d="M282.961 107.56C283.075 111.411 285.973 114.354 289.326 114.255C292.678 114.155 295.396 111.045 295.282 107.195C295.168 103.344 292.271 100.4 288.918 100.5C285.565 100.599 282.847 103.709 282.961 107.56Z" fill="white" stroke="#240046" stroke-width="1.06485"/>
<ellipse rx="1.91303" ry="3.34781" transform="matrix(-0.999561 0.0296415 0.0296415 0.999561 287.81 107.818)" fill="black"/>
<path d="M288.902 99.9675C292.598 99.8579 295.693 103.086 295.814 107.179C295.826 107.559 295.811 107.933 295.772 108.3L282.427 107.188C282.493 103.27 285.323 100.074 288.902 99.9675Z" fill="#9D4EDD"/>
<path d="M284.542 106.158C285.47 104.221 287.061 102.926 288.903 102.872C291.094 102.807 293.034 104.514 293.972 107.029L284.542 106.158Z" fill="#5A189A"/>
<path d="M295.282 107.195C295.168 103.344 292.271 100.4 288.918 100.5C285.818 100.592 283.263 103.254 282.983 106.7L295.28 107.725C295.287 107.55 295.288 107.373 295.282 107.195Z" stroke="#240046" stroke-width="1.06485"/>
<path d="M281.591 197.979C283.48 197.822 284.144 197.689 284.248 197.973L279.935 202.915C276.968 202.072 274.192 203.285 271.6 205.955C272.479 200.42 279.453 198.157 281.591 197.979Z" fill="#240046"/>
<path d="M281.429 201.531C283.318 201.374 280.559 202.412 280.663 202.695L279.934 202.915C276.968 202.072 274.192 203.285 271.6 205.955C275.172 201.509 279.291 201.709 281.429 201.531Z" fill="#5A189A"/>
<path d="M281.591 197.979C283.48 197.822 284.144 197.689 284.248 197.973L283.564 198.466C275.585 198.899 273.247 203.103 271.6 205.955C272.479 200.42 279.453 198.157 281.591 197.979Z" fill="#190031"/>
<path d="M280.726 193.035C282.619 193.131 283.295 193.089 283.36 193.383L281.316 196.119L278.426 197.706C275.598 196.475 272.685 197.307 269.761 199.607C271.369 194.239 278.583 192.927 280.726 193.035Z" fill="#240046"/>
<path d="M280.093 196.533C281.986 196.629 279.113 197.29 279.178 197.585L278.427 197.706C275.599 196.474 272.686 197.306 269.761 199.607C273.895 195.677 277.95 196.425 280.093 196.533Z" fill="#5A189A"/>
<path d="M280.726 193.035C282.619 193.131 283.295 193.089 283.36 193.383L282.617 193.781C274.651 193.146 271.773 197 269.761 199.607C271.369 194.239 278.583 192.927 280.726 193.035Z" fill="#190031"/>
<path d="M281.183 188.401C283.471 188.482 284.294 188.433 284.35 188.729L281.659 191.505L278.03 193.131C274.698 191.914 271.1 192.778 267.375 195.123C269.744 189.697 278.593 188.311 281.183 188.401Z" fill="#240046"/>
<path d="M280.142 191.934C282.429 192.015 278.895 192.706 278.95 193.002L278.03 193.131C274.697 191.914 271.1 192.778 267.374 195.123C272.693 191.125 277.552 191.844 280.142 191.934Z" fill="#5A189A"/>
<path d="M281.183 188.401C283.471 188.482 284.294 188.433 284.35 188.729L283.418 189.137C273.808 188.566 270.019 192.477 267.375 195.123C269.744 189.697 278.593 188.311 281.183 188.401Z" fill="#190031"/>
<path d="M321.376 215.69C326.445 200.393 322.518 186.99 319.921 182.2L305.522 184.838C307.645 186.771 308.138 192.622 310.411 196.265C309.228 200.766 309.691 206.284 310.07 208.48C305.907 209.03 299.805 207.433 294.736 203.226C290.005 192.832 283.002 188.618 280.091 187.811L281.509 201.876L284.352 203.35L293.712 208.482C300.821 217.258 316.306 230.987 321.376 215.69Z" fill="#5A189A"/>
<path d="M316.666 214.41C319.744 211.622 321.797 206.617 322.112 201.123C323.564 209.618 322.039 211.215 320.151 217.096C319.512 222.033 316.206 222.493 314.633 222.106C305.63 220.291 295.175 211.143 292.852 207.948C289.365 207.311 286.317 204.682 285.229 203.447L282.833 202.866C281.55 202.237 279.566 200.935 281.889 200.76C284.212 200.586 286.003 201.269 286.608 201.632C288.278 203.882 288.714 203.592 295.175 206.786C303.946 215.557 311.172 218.427 313.689 218.766C313.399 218.476 318.989 219.928 316.666 214.41Z" fill="black" fill-opacity="0.3"/>
<path d="M284.648 192.193C283.08 190.508 281.623 190.571 281.091 190.813L280.51 190.813L281.091 187.691L287.698 192.701C288.859 194.25 290.776 197.043 289.15 195.823C287.523 194.603 285.471 192.895 284.648 192.193Z" fill="#9D4EDD"/>
<path d="M279.778 187.945L279.463 188.374C279.287 188.245 279.208 188.022 279.263 187.811C279.318 187.599 279.496 187.443 279.712 187.417L279.778 187.945ZM291.798 198.633L291.335 198.896L291.335 198.896L291.798 198.633ZM311.073 209.043L311.601 208.972C311.621 209.124 311.575 209.277 311.474 209.393C311.374 209.509 311.228 209.575 311.075 209.576L311.073 209.043ZM320.4 215.995L319.867 216.003L319.865 215.877L319.92 215.764L320.4 215.995ZM316.897 222.222L316.773 221.704C316.793 221.7 316.814 221.696 316.835 221.693L316.897 222.222ZM303.533 217.885L303.26 218.342L303.26 218.342L303.533 217.885ZM293.398 207.93L293.534 207.415C293.722 207.464 293.869 207.613 293.915 207.802L293.398 207.93ZM284.978 203.145L285.327 202.743L285.429 202.831L285.477 202.958L284.978 203.145ZM280.602 198.8L280.315 199.249C280.171 199.157 280.08 199.002 280.07 198.832C280.06 198.662 280.132 198.497 280.263 198.389L280.602 198.8ZM282.069 197.454L282.145 196.927L282.199 196.935L282.249 196.953L282.069 197.454ZM278.625 192.421L278.61 192.953L278.551 191.894L278.625 192.421ZM283.625 194.585L283.906 194.132C284.121 194.266 284.212 194.534 284.123 194.772C284.034 195.01 283.789 195.151 283.538 195.11L283.625 194.585ZM279.678 197.105L279.602 197.632C279.446 197.609 279.308 197.519 279.225 197.385C279.143 197.251 279.123 197.087 279.173 196.938L279.678 197.105ZM279.721 193.96L279.581 194.474L279.806 193.434L279.721 193.96ZM280.887 202.31L280.356 202.345C280.349 202.239 280.374 202.132 280.428 202.04L280.887 202.31ZM319.889 186.194C319.806 185.912 319.968 185.616 320.25 185.533C320.532 185.45 320.828 185.612 320.911 185.894L319.889 186.194ZM310.664 195.886L311.116 195.604L311.232 195.791L311.183 196.006L310.664 195.886ZM305.98 187.532C305.884 187.254 306.031 186.951 306.309 186.855C306.587 186.759 306.89 186.906 306.986 187.184L305.98 187.532ZM279.712 187.417C281.405 187.207 283.401 187.946 285.515 189.697C287.638 191.455 289.937 194.277 292.261 198.37L291.335 198.896C289.051 194.872 286.827 192.166 284.836 190.517C282.837 188.861 281.127 188.314 279.843 188.473L279.712 187.417ZM292.261 198.37C294.491 202.297 298.103 204.838 301.728 206.397C305.356 207.958 308.95 208.517 311.072 208.511L311.075 209.576C308.805 209.582 305.067 208.993 301.307 207.375C297.544 205.756 293.714 203.086 291.335 198.896L292.261 198.37ZM320.932 215.988C320.965 218.345 320.48 219.978 319.711 221.061C318.936 222.153 317.904 222.64 316.959 222.751L316.835 221.693C317.501 221.615 318.254 221.275 318.843 220.445C319.439 219.605 319.898 218.219 319.867 216.003L320.932 215.988ZM317.021 222.74C316.172 222.943 314.534 222.912 312.239 222.313C309.925 221.709 306.901 220.516 303.26 218.342L303.806 217.428C307.373 219.557 310.304 220.707 312.508 221.283C314.73 221.863 316.17 221.849 316.773 221.704L317.021 222.74ZM303.26 218.342C299.617 216.166 297.134 214.026 295.508 212.222C293.895 210.431 293.099 208.94 292.881 208.057L293.915 207.802C294.073 208.444 294.741 209.779 296.299 211.509C297.846 213.225 300.243 215.3 303.806 217.428L303.26 218.342ZM293.263 208.444C291.674 208.026 289.782 207.506 288.154 206.735C286.539 205.97 285.072 204.906 284.48 203.332L285.477 202.958C285.919 204.135 287.07 205.043 288.61 205.773C290.137 206.496 291.938 206.994 293.534 207.415L293.263 208.444ZM280.263 198.389C280.975 197.804 281.96 197.607 282.346 197.498C282.466 197.464 282.493 197.45 282.482 197.456C282.48 197.457 282.396 197.502 282.335 197.616C282.249 197.776 282.27 197.95 282.336 198.069C282.362 198.116 282.389 198.145 282.403 198.159C282.411 198.167 282.417 198.172 282.421 198.175C282.425 198.178 282.427 198.18 282.428 198.18C282.428 198.181 282.423 198.177 282.411 198.17C282.399 198.164 282.383 198.155 282.361 198.144C282.268 198.099 282.118 198.038 281.888 197.954L282.249 196.953C282.489 197.039 282.683 197.116 282.828 197.187C282.901 197.223 282.975 197.263 283.041 197.31C283.099 197.351 283.198 197.428 283.267 197.553C283.356 197.713 283.377 197.924 283.273 198.119C283.193 198.268 283.07 198.346 283.014 198.378C282.894 198.448 282.743 198.492 282.637 198.522C282.121 198.669 281.433 198.806 280.94 199.212L280.263 198.389ZM280.093 187.516C280.523 187.832 280.749 188.347 280.85 188.85C280.953 189.366 280.942 189.948 280.83 190.5C280.617 191.552 279.961 192.77 278.7 192.948L278.551 191.894C279.12 191.813 279.601 191.204 279.787 190.289C279.874 189.857 279.878 189.419 279.806 189.059C279.731 188.687 279.592 188.469 279.463 188.374L280.093 187.516ZM278.64 191.889C279.826 191.922 280.89 192.335 281.776 192.805C282.641 193.264 283.421 193.831 283.906 194.132L283.344 195.037C282.755 194.671 282.108 194.186 281.277 193.745C280.467 193.316 279.569 192.98 278.61 192.953L278.64 191.889ZM279.173 196.938C279.252 196.699 279.383 196.395 279.496 196.116C279.617 195.821 279.729 195.528 279.802 195.257C279.878 194.976 279.894 194.778 279.871 194.656C279.856 194.574 279.834 194.547 279.764 194.519L280.16 193.53C280.608 193.71 280.845 194.064 280.919 194.463C280.985 194.821 280.919 195.205 280.83 195.534C280.739 195.874 280.604 196.219 280.483 196.518C280.354 196.833 280.248 197.079 280.184 197.273L279.173 196.938ZM279.764 194.519C279.735 194.507 279.693 194.495 279.636 194.486L279.806 193.434C279.93 193.454 280.048 193.486 280.16 193.53L279.764 194.519ZM279.861 193.446C279.943 193.469 280.022 193.49 280.097 193.51L279.827 194.54C279.747 194.519 279.665 194.497 279.581 194.474L279.861 193.446ZM280.097 193.51C281.026 193.754 281.539 193.827 281.999 193.871C282.463 193.915 282.939 193.932 283.711 194.059L283.538 195.11C282.814 194.991 282.413 194.979 281.898 194.931C281.378 194.881 280.808 194.798 279.827 194.54L280.097 193.51ZM284.63 203.547C284.649 203.564 284.625 203.539 284.494 203.502C284.377 203.469 284.221 203.439 284.028 203.412C283.64 203.358 283.171 203.326 282.689 203.288C282.223 203.252 281.735 203.211 281.36 203.137C281.176 203.101 280.978 203.051 280.813 202.968C280.672 202.898 280.381 202.716 280.356 202.345L281.419 202.274C281.403 202.049 281.229 201.986 281.288 202.015C281.323 202.033 281.407 202.062 281.564 202.092C281.868 202.152 282.292 202.189 282.772 202.226C283.236 202.262 283.746 202.298 284.174 202.357C284.388 202.387 284.599 202.425 284.783 202.477C284.952 202.524 285.163 202.601 285.327 202.743L284.63 203.547ZM280.428 202.04C280.602 201.745 280.774 201.132 280.774 200.508C280.774 199.863 280.595 199.428 280.315 199.249L280.889 198.352C281.644 198.835 281.839 199.761 281.839 200.508C281.839 201.277 281.636 202.087 281.346 202.58L280.428 202.04ZM281.992 197.98L279.602 197.632L279.755 196.578L282.145 196.927L281.992 197.98ZM319.92 215.764C322.455 210.51 324.155 200.742 319.889 186.194L320.911 185.894C325.233 200.634 323.553 210.684 320.879 216.227L319.92 215.764ZM310.545 209.114C310.147 206.157 308.814 201.505 310.145 195.765L311.183 196.006C309.909 201.498 311.181 205.858 311.601 208.972L310.545 209.114ZM310.212 196.167C308.505 193.423 307.738 192.123 307.253 191.074C306.769 190.027 306.56 189.212 305.98 187.532L306.986 187.184C307.595 188.946 307.765 189.645 308.22 190.627C308.672 191.605 309.401 192.848 311.116 195.604L310.212 196.167Z" fill="#240046"/>
<path d="M412.283 113.563C412.631 100.32 428.594 96.2352 436.532 95.848C419.93 92.0726 378.246 88.4715 344.326 104.27C338.545 106.963 325.256 117.919 336.921 114.87C341.374 127.697 349.234 155.441 345.052 163.805C357.104 146.815 373.125 134.425 383.387 133.456C387.743 121.985 395.294 114.58 412.283 113.563Z" fill="#9D4EDD"/>
<path d="M436.532 95.8486C428.594 96.2359 412.631 100.321 412.283 113.564C395.294 114.58 387.743 121.986 383.387 133.457C373.125 134.425 356.378 147.542 340.696 169.759" stroke="#240046" stroke-width="1.06485" stroke-linecap="round" stroke-linejoin="round"/>
<path d="M344.801 128.089C343.23 118.128 358.811 119.684 366.797 121.707C358.941 107.264 380.151 105.624 391.738 106.61C379.641 101.007 394.161 95.4556 402.933 93.3804L352.068 99.9174L335.178 112.68C339.041 121.967 346.373 138.05 344.801 128.089Z" fill="black" fill-opacity="0.3"/>
<path d="M341.132 158.288C340.319 166.303 326.95 171.501 320.367 173.099L331.258 178.326C338.228 174.028 344.036 166.564 347.376 158.288C350.861 140.572 340.333 121.26 336.63 113.128C348.247 111.386 371.77 125.664 382.08 133.022C373.731 120.897 354.055 111.095 340.333 109.571C354.041 104.343 397.036 110.26 408.617 112.112C391.192 106.521 373.368 100.06 343.165 105.287C376.62 93.206 419.447 93.6707 436.678 95.4131C427.849 89.2564 402.893 88.6852 391.519 89.1693C366.253 91.299 339.099 95.1227 327.918 110.079C340.115 124.6 342.148 148.268 341.132 158.288Z" fill="#5A189A"/>
<path d="M391.517 89.1688C366.251 91.2985 340.332 94.8681 329.151 109.824C329.151 109.824 329.314 111.077 329.95 111.676C334.233 111.313 331.837 107.537 331.837 107.537C350.964 93.5411 394.952 89.8463 415.949 89.8907C406.912 88.9503 397.399 88.9185 391.517 89.1688Z" fill="#9D4EDD"/>
<path d="M430.578 92.7996C378.652 90.244 350.085 99.5759 342.292 104.561C341.518 105.045 342.321 105.258 351.731 102.238C361.14 99.2177 390.695 95.9457 404.296 94.6873C434.692 95.1229 433.192 94.6873 430.578 92.7996Z" fill="black" fill-opacity="0.3"/>
<path d="M320.367 173.099C326.95 171.501 340.319 166.303 341.132 158.288C342.148 148.268 340.115 124.6 327.918 110.079C333.146 110.333 329.384 108.246 330.207 107.393C342.499 94.6496 367.838 91.1653 391.519 89.1693C402.893 88.6852 427.849 89.2564 436.678 95.4131C419.447 93.6707 376.62 93.206 343.165 105.287C373.368 100.06 394.713 107.538 412.138 113.128C400.558 111.277 354.041 104.343 340.333 109.571C354.055 111.095 375.038 121.478 383.387 133.602C373.077 126.245 348.247 111.386 336.63 113.128C340.333 121.26 350.861 140.572 347.376 158.288C344.036 166.564 338.228 174.028 331.258 178.326" stroke="#240046" stroke-width="1.06485" stroke-linecap="round" stroke-linejoin="round"/>
<path d="M326.011 108.586C327.16 110.324 327.201 110.671 327.829 110.884C328.457 111.098 330.166 110.693 331.059 109.895C332.162 108.909 331.017 107.04 331.017 107.04C328.192 105.055 324.275 99.0857 323.971 94.5154C321.588 100.868 324.71 106.619 326.011 108.586Z" fill="#240046"/>
<path d="M327.034 102.533C325.433 100.048 324.14 97.0642 323.971 94.5157C322.634 98.0805 323.03 101.455 323.865 104.079C323.514 101.317 323.548 98.3552 327.034 102.533Z" fill="#5A189A"/>
<defs>
<filter id="filter0_d" x="77.6063" y="69.2758" width="54.404" height="54.4452" filterUnits="userSpaceOnUse" color-interpolation-filters="sRGB">
<feFlood flood-opacity="0" result="BackgroundImageFix"/>
<feColorMatrix in="SourceAlpha" type="matrix" values="0 0 0 0 0 0 0 0 0 0 0 0 0 0 0 0 0 0 127 0"/>
<feOffset/>
<feGaussianBlur stdDeviation="2.1297"/>
<feColorMatrix type="matrix" values="0 0 0 0 1 0 0 0 0 1 0 0 0 0 1 0 0 0 0.4 0"/>
<feBlend mode="normal" in2="BackgroundImageFix" result="effect1_dropShadow"/>
<feBlend mode="normal" in="SourceGraphic" in2="effect1_dropShadow" result="shape"/>
</filter>
<filter id="filter1_d" x="84.2848" y="75.9586" width="41.045" height="41.08" filterUnits="userSpaceOnUse" color-interpolation-filters="sRGB">
<feFlood flood-opacity="0" result="BackgroundImageFix"/>
<feColorMatrix in="SourceAlpha" type="matrix" values="0 0 0 0 0 0 0 0 0 0 0 0 0 0 0 0 0 0 127 0"/>
<feOffset/>
<feGaussianBlur stdDeviation="0.532424"/>
<feColorMatrix type="matrix" values="0 0 0 0 1 0 0 0 0 1 0 0 0 0 1 0 0 0 0.2 0"/>
<feBlend mode="normal" in2="BackgroundImageFix" result="effect1_dropShadow"/>
<feBlend mode="normal" in="SourceGraphic" in2="effect1_dropShadow" result="shape"/>
</filter>
<radialGradient id="paint0_radial" cx="0" cy="0" r="1" gradientUnits="userSpaceOnUse" gradientTransform="translate(608.746 94.5455) rotate(152.136) scale(688.582 522.042)">
<stop stop-color="#3E3E70" stop-opacity="0.46"/>
<stop offset="1" stop-color="#3E3E70" stop-opacity="0"/>
</radialGradient>
</defs>
</svg>
