<svg width="720" height="416" viewBox="0 0 720 416" fill="none" xmlns="http://www.w3.org/2000/svg">
<rect width="720" height="416" fill="#0C0E19"/>
<rect width="720" height="416" fill="url(#paint0_radial)"/>
<path d="M588.056 358.151L610.521 380.144L610.56 416H533L588.056 358.151Z" fill="#232341"/>
<path d="M533 416L588.056 358.151L587.691 361.293L535.531 416H534.266H533Z" fill="#3E3E70"/>
<path d="M588.056 358.151L610.521 380.144L591.22 388.313L587.107 375.745L588.056 371.975L587.107 366.32L588.056 358.151Z" fill="#17172C"/>
<path d="M720 358.013L653.227 303.172L595.182 385.137L589.175 393.62L573.326 416H601.62H720V358.013Z" fill="#232341"/>
<path d="M653.227 303.172V313.735L657.754 318.006L657.075 342.055V358.013L676.315 371.723L720 358.013L653.227 303.172Z" fill="#17172C"/>
<path d="M693.526 278L656.178 339.808V374.196H713.671L693.526 278Z" fill="#232341"/>
<path d="M694.184 281.142L693.526 278L657.165 338.174L657.033 341.466L694.184 281.142Z" fill="#3E3E70"/>
<path d="M653.227 304.429V306.314L591.915 392.891L591.22 390.478L591.473 390.374L653.227 303.172V304.429Z" fill="#3E3E70"/>
<g filter="url(#filter0_d)">
<ellipse rx="22.9426" ry="22.9632" transform="matrix(-1 0 0 1 615.192 96.4984)" fill="white" fill-opacity="0.6"/>
</g>
<g filter="url(#filter1_d)">
<ellipse rx="19.4577" ry="19.4751" transform="matrix(-1 0 0 1 615.193 96.4986)" fill="white" fill-opacity="0.6"/>
</g>
<ellipse rx="15.9727" ry="15.9871" transform="matrix(-1 0 0 1 615.192 96.4983)" fill="white"/>
<path d="M275.556 97.4429C274.86 97.4435 274.164 97.4856 273.473 97.5687C271.596 91.4518 265.958 87.2715 259.566 87.2584C257.974 87.2567 256.394 87.5213 254.89 88.0397C251.167 79.9824 242.345 75.6035 233.684 77.5144C225.022 79.4258 218.857 87.111 218.863 95.9878C218.864 97.522 219.055 99.05 219.43 100.536C211.178 101.797 205.282 109.2 205.895 117.533C206.508 125.866 213.423 132.325 221.77 132.362H275.556C285.19 132.362 293 124.545 293 114.902C293 105.26 285.19 97.4429 275.556 97.4429Z" fill="#232341"/>
<path d="M275.556 97.4429C274.86 97.4435 274.164 97.4856 273.473 97.5687C271.596 91.4518 265.958 87.2715 259.566 87.2584C257.974 87.2567 256.394 87.5213 254.89 88.0397C251.167 79.9824 242.345 75.6035 233.684 77.5144C225.022 79.4258 218.857 87.111 218.863 95.9878C218.864 97.522 219.055 99.05 219.43 100.536C211.178 101.797 205.282 109.2 205.895 117.533C206.508 125.866 213.423 132.325 221.77 132.362H275.556C285.19 132.362 293 124.545 293 114.902C293 105.26 285.19 97.4429 275.556 97.4429Z" fill="#3E3E70"/>
<path d="M275.822 99.1006C275.136 99.1012 274.452 99.1425 273.771 99.224C271.923 93.2225 266.371 89.1211 260.076 89.1082C258.509 89.1065 256.953 89.3662 255.472 89.8748C251.806 81.9694 243.118 77.6731 234.589 79.548C226.059 81.4234 219.988 88.9636 219.995 97.673C219.995 99.1782 220.183 100.677 220.552 102.136C212.426 103.373 206.62 110.636 207.224 118.811C207.827 126.987 214.637 133.325 222.857 133.361H275.822C285.309 133.361 293 125.692 293 116.231C293 106.77 285.309 99.1006 275.822 99.1006Z" fill="#141426"/>
<path d="M275.589 98.7245C274.893 98.725 274.199 98.7656 273.509 98.8455C271.636 92.957 266.009 88.9327 259.628 88.9201C258.04 88.9185 256.463 89.1732 254.962 89.6723C251.246 81.9157 242.44 77.7002 233.795 79.5397C225.15 81.3799 218.996 88.7782 219.003 97.3237C219.003 98.8006 219.194 100.272 219.568 101.702C211.331 102.916 205.447 110.042 206.059 118.064C206.67 126.087 213.572 132.305 221.904 132.34H275.589C285.205 132.34 292.999 124.815 292.999 115.532C292.999 106.249 285.205 98.7245 275.589 98.7245Z" fill="#2B2B4E"/>
<path d="M427.998 70.356C428.587 70.3565 429.176 70.389 429.761 70.4531C431.349 65.7304 436.121 62.5029 441.532 62.4928C442.879 62.4914 444.217 62.6958 445.49 63.096C448.641 56.8751 456.109 53.4942 463.439 54.9696C470.771 56.4454 475.989 62.379 475.984 69.2326C475.983 70.4171 475.822 71.5968 475.505 72.7444C482.489 73.718 487.48 79.4332 486.96 85.8668C486.442 92.3008 480.589 97.288 473.523 97.3166H427.998C419.843 97.3166 413.233 91.2811 413.233 83.8361C413.233 76.3911 419.843 70.356 427.998 70.356Z" fill="#232341"/>
<path d="M427.998 70.356C428.587 70.3565 429.176 70.389 429.761 70.4531C431.349 65.7304 436.121 62.5029 441.532 62.4928C442.879 62.4914 444.217 62.6958 445.49 63.096C448.641 56.8751 456.109 53.4942 463.439 54.9696C470.771 56.4454 475.989 62.379 475.984 69.2326C475.983 70.4171 475.822 71.5968 475.505 72.7444C482.489 73.718 487.48 79.4332 486.96 85.8668C486.442 92.3008 480.589 97.288 473.523 97.3166H427.998C419.843 97.3166 413.233 91.2811 413.233 83.8361C413.233 76.3911 419.843 70.356 427.998 70.356Z" fill="#3E3E70"/>
<path d="M427.772 71.6355C428.352 71.6359 428.932 71.6678 429.508 71.7307C431.072 67.0971 435.772 63.9305 441.1 63.9205C442.427 63.9193 443.743 64.1197 444.997 64.5124C448.1 58.4088 455.454 55.0917 462.673 56.5393C469.893 57.9872 475.031 63.8089 475.026 70.5332C475.025 71.6954 474.866 72.8528 474.554 73.9788C481.432 74.9341 486.346 80.5415 485.835 86.8537C485.325 93.1663 479.561 98.0595 472.603 98.0875H427.772C419.741 98.0875 413.232 92.1658 413.232 84.8613C413.232 77.5567 419.741 71.6355 427.772 71.6355Z" fill="#141426"/>
<path d="M427.968 71.3451C428.557 71.3455 429.144 71.3768 429.728 71.4385C431.314 66.8921 436.077 63.785 441.478 63.7753C442.822 63.774 444.157 63.9707 445.428 64.356C448.573 58.3673 456.027 55.1126 463.344 56.5329C470.661 57.9537 475.87 63.6658 475.864 70.2636C475.864 71.4039 475.703 72.5395 475.386 73.6443C482.358 74.5816 487.339 80.0835 486.82 86.2769C486.303 92.4708 480.461 97.2718 473.409 97.2993H427.968C419.829 97.2993 413.231 91.4891 413.231 84.322C413.231 77.1549 419.829 71.3451 427.968 71.3451Z" fill="#2B2B4E"/>
<path fill-rule="evenodd" clip-rule="evenodd" d="M595.537 27.7694L595.524 27.7695C594.465 27.7695 593.607 26.9106 593.607 25.851V25.8505H593.607C593.606 25.4977 593.32 25.2119 592.968 25.2119C592.621 25.2119 592.338 25.4888 592.329 25.8339L592.329 25.851C592.329 26.9106 591.471 27.7695 590.412 27.7695L590.399 27.7694C590.052 27.777 589.774 28.0603 589.774 28.4088C589.774 28.7618 590.06 29.048 590.412 29.0483V29.0485C590.412 29.0485 590.412 29.0485 590.412 29.0485C591.471 29.0485 592.329 29.9074 592.329 30.967C592.329 30.9739 592.329 30.9809 592.329 30.9878C592.34 31.3313 592.622 31.6065 592.968 31.6065C593.32 31.6065 593.606 31.3202 593.606 30.967L593.606 30.9663H593.607C593.607 29.9071 594.465 29.0486 595.524 29.0485V29.0483C595.876 29.0481 596.162 28.7618 596.162 28.4088C596.162 28.0603 595.884 27.777 595.537 27.7694Z" fill="#E1B554"/>
<path fill-rule="evenodd" clip-rule="evenodd" d="M670.537 27.7694L670.524 27.7695C669.465 27.7695 668.607 26.9106 668.607 25.851V25.8505H668.607C668.606 25.4977 668.32 25.2119 667.968 25.2119C667.621 25.2119 667.338 25.4888 667.329 25.8339L667.329 25.851C667.329 26.9106 666.471 27.7695 665.412 27.7695L665.399 27.7694C665.052 27.777 664.774 28.0603 664.774 28.4088C664.774 28.7618 665.06 29.048 665.412 29.0483V29.0485C665.412 29.0485 665.412 29.0485 665.412 29.0485C666.471 29.0485 667.329 29.9074 667.329 30.967C667.329 30.9739 667.329 30.9809 667.329 30.9878C667.34 31.3313 667.622 31.6065 667.968 31.6065C668.32 31.6065 668.606 31.3202 668.606 30.967L668.606 30.9663H668.607C668.607 29.9071 669.465 29.0486 670.524 29.0485V29.0483C670.876 29.0481 671.162 28.7618 671.162 28.4088C671.162 28.0603 670.884 27.777 670.537 27.7694Z" fill="#E1B554"/>
<path fill-rule="evenodd" clip-rule="evenodd" d="M531.994 29.5716L531.97 29.5718C531.2 29.5718 530.576 28.9471 530.576 28.1766L530.576 28.1531C530.564 27.9067 530.361 27.7104 530.112 27.7104C529.855 27.7104 529.647 27.9185 529.647 28.1751V28.1753H529.646L529.646 28.1766C529.646 28.9471 529.022 29.5718 528.252 29.5718L528.228 29.5716C527.983 29.5842 527.788 29.7872 527.788 30.0356C527.788 30.2922 527.996 30.5002 528.252 30.5003V30.5007C529.022 30.5008 529.646 31.1254 529.646 31.8959H529.647V31.8959C529.647 32.1526 529.855 32.3606 530.112 32.3606C530.361 32.3606 530.565 32.1637 530.576 31.9168L530.576 31.896C530.576 31.1254 531.2 30.5007 531.97 30.5007H531.97V30.5003L531.97 30.5003C532.227 30.5003 532.435 30.2922 532.435 30.0356C532.435 29.7871 532.24 29.5841 531.994 29.5716Z" fill="#E1B554"/>
<path fill-rule="evenodd" clip-rule="evenodd" d="M681.194 75.44H681.194C679.654 75.44 678.406 74.1907 678.406 72.6495V72.6489H678.405C678.405 72.1356 677.989 71.7197 677.476 71.7197C676.975 71.7197 676.567 72.1165 676.547 72.6132L676.548 72.6495C676.548 74.1907 675.299 75.44 673.76 75.44H673.759V75.4403H673.759C673.246 75.4403 672.83 75.8567 672.83 76.3705C672.83 76.8771 673.235 77.2892 673.738 77.3004C673.745 77.3003 673.752 77.3003 673.76 77.3003C675.299 77.3003 676.548 78.5496 676.548 80.0908C676.548 80.1016 676.548 80.1125 676.547 80.1233C676.564 80.6221 676.974 81.0212 677.476 81.0212C677.989 81.0212 678.406 80.6048 678.406 80.0911L678.406 80.0901H678.407C678.407 78.5493 679.655 77.3003 681.195 77.3003L681.216 77.3004C681.719 77.289 682.124 76.877 682.124 76.3705C682.124 75.8567 681.707 75.4403 681.194 75.4403H681.194V75.44Z" fill="#E1B554"/>
<path fill-rule="evenodd" clip-rule="evenodd" d="M610.334 52.1862H610.334C608.794 52.1862 607.546 50.9369 607.546 49.3958V49.3949H607.545C607.545 48.8817 607.129 48.4658 606.616 48.4658C606.118 48.4658 605.711 48.8584 605.688 49.3514C605.688 49.3661 605.688 49.3809 605.688 49.3958C605.688 50.9369 604.44 52.1862 602.9 52.1862H602.899V52.187C602.387 52.1874 601.971 52.6037 601.971 53.1171C601.971 53.6245 602.377 54.0369 602.881 54.0471C602.888 54.047 602.894 54.047 602.9 54.047C604.44 54.047 605.688 55.2964 605.688 56.8375C605.688 56.8514 605.688 56.8652 605.688 56.879C605.71 57.3733 606.117 57.7674 606.616 57.7674C607.13 57.7674 607.546 57.351 607.546 56.8373L607.546 56.8362H607.546C607.547 55.2957 608.795 54.047 610.334 54.047L610.353 54.0471C610.858 54.037 611.264 53.6245 611.264 53.1171C611.264 52.6034 610.848 52.187 610.334 52.187H610.334V52.1862Z" fill="#E1B554"/>
<path fill-rule="evenodd" clip-rule="evenodd" d="M318.503 70.0595V70.0594C318.151 70.0592 317.865 69.773 317.865 69.4199C317.865 69.0669 318.151 68.7807 318.503 68.7805V68.78C319.562 68.7799 320.42 67.9214 320.42 66.8623H320.42V66.862C320.42 66.5088 320.706 66.2225 321.059 66.2225C321.405 66.2225 321.687 66.4976 321.698 66.841C321.698 66.8478 321.698 66.8547 321.698 66.8615C321.698 67.921 322.556 68.78 323.615 68.78C323.615 68.78 323.615 68.78 323.615 68.78V68.7805C323.967 68.7808 324.253 69.067 324.253 69.4199C324.253 69.7729 323.967 70.0591 323.615 70.0594V70.0595H323.615C322.556 70.0595 321.698 70.9184 321.698 71.9779L321.698 71.9949C321.689 72.3399 321.406 72.6167 321.059 72.6167C320.707 72.6167 320.421 72.3309 320.42 71.9781H320.42V71.9779C320.42 70.9184 319.562 70.0595 318.503 70.0595Z" fill="#E1B554"/>
<path fill-rule="evenodd" clip-rule="evenodd" d="M150.927 60.5641V60.5641C150.574 60.5639 150.288 60.2777 150.288 59.9246C150.288 59.5716 150.574 59.2853 150.927 59.2851V59.2846C151.985 59.2846 152.843 58.4262 152.843 57.3672H152.844L152.844 57.3667C152.844 57.0135 153.13 56.7272 153.483 56.7272C153.829 56.7272 154.11 57.0022 154.121 57.3457C154.121 57.3525 154.121 57.3593 154.121 57.3662C154.121 58.4257 154.979 59.2846 156.038 59.2846C156.038 59.2846 156.038 59.2846 156.038 59.2846V59.2851C156.391 59.2854 156.676 59.5716 156.676 59.9246C156.676 60.2776 156.391 60.5638 156.038 60.5641V60.5641H156.038C154.979 60.5641 154.121 61.4231 154.121 62.4826L154.121 62.4997C154.112 62.8447 153.83 63.1216 153.483 63.1216C153.13 63.1216 152.844 62.8358 152.844 62.483H152.843V62.4826C152.843 61.4231 151.985 60.5642 150.927 60.5641Z" fill="#E1B554"/>
<path fill-rule="evenodd" clip-rule="evenodd" d="M414.075 108.888V108.888C413.722 108.888 413.437 108.601 413.437 108.248C413.437 107.895 413.722 107.609 414.075 107.609V107.608C415.133 107.608 415.991 106.75 415.992 105.691H415.992L415.992 105.69C415.992 105.337 416.278 105.05 416.631 105.05C416.977 105.05 417.259 105.325 417.27 105.669C417.27 105.676 417.27 105.683 417.27 105.69C417.27 106.749 418.128 107.608 419.186 107.608C419.186 107.608 419.186 107.608 419.186 107.608V107.609C419.539 107.609 419.825 107.895 419.825 108.248C419.825 108.601 419.539 108.887 419.186 108.888V108.888H419.186C418.128 108.888 417.27 109.747 417.27 110.806L417.27 110.823C417.26 111.168 416.978 111.445 416.631 111.445C416.278 111.445 415.993 111.16 415.992 110.807H415.992V110.806C415.992 109.747 415.134 108.888 414.075 108.888Z" fill="#E1B554"/>
<path fill-rule="evenodd" clip-rule="evenodd" d="M382.035 68.257L382.057 68.2568C382.827 68.2568 383.451 68.8815 383.451 69.6521L383.451 69.6741C383.462 69.9212 383.665 70.1182 383.915 70.1182C384.172 70.1182 384.38 69.9101 384.38 69.6535V69.6533H384.381L384.381 69.6521C384.381 68.8816 385.005 68.2569 385.775 68.2569L385.795 68.257C386.042 68.2464 386.239 68.0426 386.239 67.7928C386.239 67.5363 386.031 67.3283 385.775 67.3281V67.3275C385.005 67.3272 384.381 66.7029 384.381 65.9327H384.38C384.38 65.6761 384.172 65.4681 383.915 65.4681C383.665 65.4681 383.461 65.6657 383.451 65.9133L383.451 65.9322C383.451 66.7027 382.827 67.3274 382.057 67.3274V67.3281L382.056 67.3281C381.8 67.3281 381.592 67.5362 381.592 67.7928C381.592 68.0424 381.789 68.246 382.035 68.257Z" fill="#E1B554"/>
<path fill-rule="evenodd" clip-rule="evenodd" d="M499.608 49.0123H499.608C500.378 49.0123 501.002 49.637 501.002 50.4076L501.002 50.4316C501.014 50.6772 501.217 50.8726 501.466 50.8726C501.722 50.8726 501.93 50.6645 501.93 50.4079V50.4077H501.931V50.4076C501.931 49.637 502.555 49.0124 503.325 49.0123V49.0122C503.582 49.0121 503.79 48.8041 503.79 48.5476C503.79 48.291 503.582 48.083 503.325 48.0829V48.0822C502.555 48.0822 501.931 47.4576 501.931 46.6871H501.931V46.687C501.931 46.4304 501.723 46.2224 501.466 46.2224C501.216 46.2224 501.013 46.4192 501.002 46.6662L501.002 46.687C501.002 47.4575 500.378 48.0822 499.608 48.0822H499.608V48.0829L499.607 48.0829C499.351 48.0829 499.143 48.2909 499.143 48.5476C499.143 48.8042 499.351 49.0122 499.607 49.0122L499.608 49.0122V49.0123Z" fill="#E1B554"/>
<path fill-rule="evenodd" clip-rule="evenodd" d="M565.608 58.0123H565.608C566.378 58.0123 567.002 58.637 567.002 59.4076L567.002 59.4316C567.014 59.6772 567.217 59.8726 567.466 59.8726C567.722 59.8726 567.93 59.6645 567.93 59.4079V59.4077H567.931V59.4076C567.931 58.637 568.555 58.0124 569.325 58.0123V58.0122C569.582 58.0121 569.79 57.8041 569.79 57.5476C569.79 57.291 569.582 57.083 569.325 57.0829V57.0822C568.555 57.0822 567.931 56.4576 567.931 55.6871H567.931V55.687C567.931 55.4304 567.723 55.2224 567.466 55.2224C567.216 55.2224 567.013 55.4192 567.002 55.6662L567.002 55.687C567.002 56.4575 566.378 57.0822 565.608 57.0822H565.608V57.0829L565.607 57.0829C565.351 57.0829 565.143 57.2909 565.143 57.5476C565.143 57.8042 565.351 58.0122 565.607 58.0122L565.608 58.0122V58.0123Z" fill="#E1B554"/>
<path fill-rule="evenodd" clip-rule="evenodd" d="M347.544 51.4559V51.4558L347.544 51.4558C347.191 51.4558 346.905 51.1695 346.905 50.8163C346.905 50.4632 347.191 50.1769 347.544 50.1769L347.544 50.1769V50.1768C348.602 50.1762 349.46 49.3177 349.46 48.2587H349.461V48.2584C349.461 47.9052 349.747 47.6189 350.1 47.6189C350.453 47.6189 350.739 47.9052 350.739 48.2584V48.2587H350.739C350.739 49.318 351.597 50.1766 352.656 50.1768V50.1769C353.008 50.1772 353.294 50.4634 353.294 50.8163C353.294 51.1693 353.008 51.4555 352.656 51.4558V51.4559C351.597 51.4561 350.739 52.3149 350.739 53.3743V53.3746H350.739C350.739 53.7276 350.453 54.0137 350.1 54.0137C349.748 54.0137 349.462 53.7276 349.461 53.3746H349.46V53.3743C349.46 52.3152 348.602 51.4565 347.544 51.4559Z" fill="#E1B554"/>
<path fill-rule="evenodd" clip-rule="evenodd" d="M200.606 40.9508V40.9508L200.605 40.9508C200.252 40.9508 199.966 40.6645 199.966 40.3113C199.966 39.9632 200.244 39.6801 200.59 39.672L200.605 39.6721C201.663 39.6721 202.521 38.8133 202.521 37.7539H202.523L202.523 37.7531C202.523 37.3999 202.809 37.1136 203.162 37.1136C203.515 37.1136 203.801 37.3999 203.801 37.7531L203.801 37.7539H203.801C203.801 38.8133 204.659 39.6721 205.718 39.6721C205.722 39.6721 205.727 39.672 205.732 39.672C206.078 39.6802 206.355 39.9633 206.355 40.3113C206.355 40.6643 206.07 40.9505 205.717 40.9508V40.9508C204.659 40.9511 203.801 41.8099 203.801 42.8693V42.8697H203.801C203.8 43.2227 203.514 43.5088 203.162 43.5088C202.809 43.5088 202.523 43.2227 202.523 42.8697H202.521V42.8693C202.521 41.8101 201.664 40.9514 200.606 40.9508Z" fill="#E1B554"/>
<path fill-rule="evenodd" clip-rule="evenodd" d="M90.2547 49.3479L90.2788 49.3477C91.0486 49.3477 91.6727 49.9723 91.6727 50.7429L91.6725 50.7663C91.684 51.0127 91.8875 51.209 92.1367 51.209C92.3933 51.209 92.6014 51.0009 92.6014 50.7443V50.7442H92.6023L92.6023 50.7429C92.6023 49.9723 93.2264 49.3477 93.9963 49.3477L94.0192 49.3478C94.2648 49.3355 94.4601 49.1324 94.4601 48.8838C94.4601 48.6274 94.2524 48.4195 93.9961 48.4191V48.4184C93.2264 48.4184 92.6024 47.7939 92.6022 47.0235H92.6016C92.6015 46.767 92.3935 46.5591 92.1369 46.5591C91.8873 46.5591 91.6837 46.7559 91.6727 47.0028L91.6729 47.0232C91.6729 47.7938 91.0487 48.4184 90.2789 48.4184H90.2788V48.4191L90.2781 48.4191C90.0215 48.4191 89.8135 48.6272 89.8135 48.8838C89.8135 49.1326 90.009 49.3357 90.2547 49.3479Z" fill="#E1B554"/>
<path fill-rule="evenodd" clip-rule="evenodd" d="M55.7951 111.888L55.8183 111.888C56.5882 111.888 57.2123 112.512 57.2123 113.283L57.2121 113.306C57.2236 113.553 57.427 113.749 57.6762 113.749C57.9329 113.749 58.1409 113.541 58.1409 113.284V113.284H58.1419L58.1419 113.283C58.1419 112.512 58.766 111.888 59.5359 111.888L59.558 111.888C59.8039 111.876 59.9996 111.673 59.9996 111.424C59.9996 111.167 59.792 110.959 59.5356 110.959V110.958C58.7659 110.958 58.1419 110.334 58.1417 109.564H58.1411C58.141 109.307 57.933 109.099 57.6765 109.099C57.4269 109.099 57.2232 109.296 57.2123 109.543L57.2124 109.563C57.2124 110.334 56.5883 110.958 55.8184 110.958H55.8183V110.959L55.8177 110.959C55.5611 110.959 55.353 111.167 55.353 111.424C55.353 111.673 55.549 111.876 55.7951 111.888Z" fill="#E1B554"/>
<path fill-rule="evenodd" clip-rule="evenodd" d="M15.7932 128.903L15.8183 128.903C16.5882 128.903 17.2123 129.528 17.2123 130.298L17.2121 130.322C17.2236 130.568 17.427 130.764 17.6762 130.764C17.9329 130.764 18.1409 130.556 18.1409 130.299V130.299H18.1419L18.1419 130.298C18.1419 129.528 18.766 128.903 19.5359 128.903L19.5598 128.903C19.8049 128.89 19.9996 128.687 19.9996 128.439C19.9996 128.183 19.792 127.975 19.5356 127.974V127.974C18.7659 127.974 18.1419 127.349 18.1417 126.579H18.1411C18.141 126.322 17.933 126.114 17.6765 126.114C17.4269 126.114 17.2232 126.311 17.2123 126.558L17.2124 126.578C17.2124 127.349 16.5883 127.974 15.8184 127.974H15.8183V127.974L15.8177 127.974C15.5611 127.974 15.353 128.182 15.353 128.439C15.353 128.687 15.548 128.89 15.7932 128.903Z" fill="#E1B554"/>
<path fill-rule="evenodd" clip-rule="evenodd" d="M55.7518 32.5464L55.7654 32.5463C56.824 32.5463 57.6821 33.4052 57.6821 34.4648V34.4654H57.6835C57.6837 34.8184 57.9697 35.1045 58.3224 35.1045C58.6752 35.1045 58.9611 34.8184 58.9613 34.4654H58.9615V34.4648C58.9615 33.4052 59.8196 32.5463 60.8782 32.5463L60.8914 32.5464C61.2377 32.5388 61.5161 32.2555 61.5161 31.907C61.5161 31.559 61.2382 31.2758 60.8924 31.2677C60.8877 31.2678 60.8829 31.2678 60.8782 31.2678C59.8197 31.2678 58.9616 30.409 58.9615 29.3496H58.9614L58.9614 29.3488C58.9614 28.9957 58.6754 28.7094 58.3225 28.7094C57.9697 28.7094 57.6836 28.9957 57.6836 29.3488L57.6836 29.3496H57.6821C57.682 30.409 56.8239 31.2678 55.7654 31.2678L55.7508 31.2677C55.4049 31.2758 55.127 31.5589 55.127 31.907C55.127 32.2555 55.4054 32.5389 55.7518 32.5464Z" fill="#E1B554"/>
<path fill-rule="evenodd" clip-rule="evenodd" d="M508.514 87.8773L508.535 87.8772C509.594 87.8772 510.452 88.7361 510.452 89.7957L510.452 89.7965H510.453C510.453 90.1495 510.739 90.4355 511.092 90.4355C511.445 90.4355 511.731 90.1495 511.731 89.7965H511.731V89.7961C511.731 88.7368 512.589 87.8779 513.647 87.8777V87.8777C514 87.8773 514.286 87.5911 514.286 87.2382C514.286 86.8852 514 86.599 513.647 86.5987V86.5987C513.647 86.5987 513.647 86.5987 513.647 86.5987C512.589 86.5987 511.731 85.7398 511.731 84.6802C511.731 84.6733 511.731 84.6663 511.731 84.6594C511.72 84.3158 511.438 84.0407 511.092 84.0407C510.739 84.0407 510.453 84.327 510.453 84.6802L510.453 84.6806H510.452C510.451 85.7396 509.594 86.5981 508.536 86.5987V86.5987L508.535 86.5987C508.183 86.5987 507.896 86.885 507.896 87.2382C507.896 87.5843 508.171 87.8663 508.514 87.8773Z" fill="#E1B554"/>
<path fill-rule="evenodd" clip-rule="evenodd" d="M382.832 22.389H382.833C384.372 22.389 385.621 23.6383 385.621 25.1794V25.1802H385.621C385.622 25.6935 386.037 26.1094 386.55 26.1094C387.049 26.1094 387.455 25.7168 387.479 25.2237C387.478 25.209 387.478 25.1942 387.478 25.1794C387.478 23.6383 388.726 22.389 390.266 22.389H390.267V22.3885H390.267C390.78 22.3885 391.197 21.972 391.197 21.4583C391.197 20.9534 390.795 20.5424 390.293 20.5285C390.284 20.5286 390.275 20.5287 390.266 20.5287C388.726 20.5287 387.478 19.2793 387.478 17.7382C387.478 17.7242 387.478 17.7102 387.479 17.6963C387.457 17.2019 387.049 16.8078 386.55 16.8078C386.037 16.8078 385.621 17.2242 385.621 17.738L385.621 17.739H385.619C385.619 19.2798 384.371 20.5287 382.831 20.5287L382.806 20.5286C382.305 20.5427 381.903 20.9535 381.903 21.4583C381.903 21.972 382.319 22.3885 382.832 22.3885H382.832V22.389Z" fill="#E1B554"/>
<path fill-rule="evenodd" clip-rule="evenodd" d="M265.832 29.389H265.833C267.372 29.389 268.621 30.6383 268.621 32.1794V32.1802H268.621C268.622 32.6935 269.037 33.1094 269.55 33.1094C270.049 33.1094 270.455 32.7168 270.479 32.2237C270.478 32.209 270.478 32.1942 270.478 32.1794C270.478 30.6383 271.726 29.389 273.266 29.389H273.267V29.3885H273.267C273.78 29.3885 274.197 28.972 274.197 28.4583C274.197 27.9534 273.795 27.5424 273.293 27.5285C273.284 27.5286 273.275 27.5287 273.266 27.5287C271.726 27.5287 270.478 26.2793 270.478 24.7382C270.478 24.7242 270.478 24.7102 270.479 24.6963C270.457 24.2019 270.049 23.8078 269.55 23.8078C269.037 23.8078 268.621 24.2242 268.621 24.738L268.621 24.739H268.619C268.619 26.2798 267.371 27.5287 265.831 27.5287L265.806 27.5286C265.305 27.5427 264.903 27.9535 264.903 28.4583C264.903 28.972 265.319 29.3885 265.832 29.3885H265.832V29.389Z" fill="#E1B554"/>
<path fill-rule="evenodd" clip-rule="evenodd" d="M25.2226 93.8232H25.2228C26.7625 93.8232 28.0107 95.0725 28.0107 96.6136V96.6143H28.0112C28.0114 97.1278 28.4274 97.5439 28.9405 97.5439C29.4388 97.5439 29.8456 97.1513 29.8688 96.6582C29.8685 96.6434 29.8684 96.6285 29.8684 96.6136C29.8684 95.0725 31.1166 93.8232 32.6564 93.8232H32.6572V93.8229H32.6573C33.1706 93.8229 33.5867 93.4065 33.5867 92.8928C33.5867 92.3851 33.1804 91.9725 32.6755 91.9628C32.6688 91.9628 32.6621 91.9629 32.6554 91.9629C31.1156 91.9629 29.8674 90.7135 29.8674 89.1724C29.8674 89.1538 29.8676 89.1352 29.868 89.1167C29.8391 88.629 29.4348 88.2425 28.9403 88.2425C28.4271 88.2425 28.011 88.6589 28.011 89.1726V89.1731H28.0093C28.0089 90.7139 26.7608 91.9629 25.2213 91.9629L25.2034 91.9628C24.6989 91.9729 24.293 92.3854 24.293 92.8928C24.293 93.4065 24.709 93.8229 25.2223 93.8229H25.2226V93.8232Z" fill="#E1B554"/>
<path fill-rule="evenodd" clip-rule="evenodd" d="M281.622 59.5952V59.5951H281.622C281.108 59.5951 280.692 59.1786 280.692 58.6649C280.692 58.1562 281.1 57.7429 281.607 57.7349L281.621 57.7349C283.161 57.7349 284.409 56.4859 284.409 54.9451H284.409L284.409 54.9443C284.409 54.4306 284.825 54.0141 285.339 54.0141C285.852 54.0141 286.268 54.4306 286.268 54.9443L286.268 54.9451H286.268C286.269 56.4859 287.517 57.7349 289.056 57.7349C289.061 57.7349 289.066 57.7349 289.071 57.7349C289.577 57.7429 289.985 58.1562 289.985 58.6649C289.985 59.1783 289.569 59.5946 289.057 59.5951V59.5952H289.056C287.517 59.5952 286.268 60.8445 286.268 62.3857V62.3863H286.268C286.268 62.8995 285.852 63.3154 285.339 63.3154C284.826 63.3154 284.41 62.8995 284.41 62.3863H284.409V62.3857C284.409 60.8448 283.161 59.5957 281.622 59.5952Z" fill="#E1B554"/>
<path fill-rule="evenodd" clip-rule="evenodd" d="M461.842 108.531V108.53H461.841C461.328 108.53 460.912 108.114 460.912 107.6C460.912 107.097 461.311 106.687 461.809 106.67L461.84 106.67C463.38 106.67 464.628 105.421 464.628 103.88H464.629C464.629 103.366 465.045 102.95 465.558 102.95C466.065 102.95 466.478 103.356 466.488 103.861C466.488 103.868 466.488 103.874 466.488 103.88C466.488 105.421 467.736 106.67 469.276 106.67C469.286 106.67 469.297 106.67 469.308 106.67C469.806 106.687 470.205 107.097 470.205 107.6C470.205 108.113 469.789 108.53 469.276 108.53V108.531H469.276C467.736 108.531 466.488 109.781 466.488 111.322L466.488 111.344C466.475 111.847 466.064 112.251 465.559 112.251C465.046 112.251 464.63 111.835 464.629 111.321H464.628C464.628 109.781 463.381 108.532 461.842 108.531Z" fill="#E1B554"/>
<path fill-rule="evenodd" clip-rule="evenodd" d="M665.842 148.531V148.53H665.841C665.328 148.53 664.912 148.114 664.912 147.6C664.912 147.097 665.311 146.687 665.809 146.67L665.84 146.67C667.38 146.67 668.628 145.421 668.628 143.88H668.629C668.629 143.366 669.045 142.95 669.558 142.95C670.065 142.95 670.478 143.356 670.488 143.861C670.488 143.868 670.488 143.874 670.488 143.88C670.488 145.421 671.736 146.67 673.276 146.67C673.286 146.67 673.297 146.67 673.308 146.67C673.806 146.687 674.205 147.097 674.205 147.6C674.205 148.113 673.789 148.53 673.276 148.53V148.531H673.276C671.736 148.531 670.488 149.781 670.488 151.322L670.488 151.344C670.475 151.847 670.064 152.251 669.559 152.251C669.046 152.251 668.63 151.835 668.629 151.321H668.628C668.628 149.781 667.381 148.532 665.842 148.531Z" fill="#E1B554"/>
<path fill-rule="evenodd" clip-rule="evenodd" d="M432.454 51.8035V51.8033H432.453C431.94 51.8033 431.524 51.3869 431.524 50.8732C431.524 50.3655 431.93 49.9528 432.435 49.9432L432.453 49.9432C433.992 49.9432 435.24 48.6943 435.241 47.1535H435.241L435.241 47.1525C435.241 46.6388 435.657 46.2224 436.17 46.2224C436.684 46.2224 437.1 46.6388 437.1 47.1525L437.1 47.1535H437.1C437.1 48.6943 438.348 49.9432 439.888 49.9432C439.894 49.9432 439.9 49.9432 439.905 49.9432C440.41 49.9528 440.817 50.3655 440.817 50.8732C440.817 51.3866 440.401 51.8028 439.888 51.8033V51.8035H439.888C438.348 51.8035 437.1 53.0529 437.1 54.594V54.5948H437.1C437.099 55.108 436.683 55.5239 436.17 55.5239C435.658 55.5239 435.242 55.108 435.241 54.5948H435.241V54.594C435.241 53.0532 433.993 51.804 432.454 51.8035Z" fill="#E1B554"/>
<path fill-rule="evenodd" clip-rule="evenodd" d="M113.365 28.6926L113.385 28.6925C114.925 28.6925 116.173 29.9418 116.173 31.483L116.173 31.484H116.174C116.175 31.9972 116.591 32.4131 117.103 32.4131C117.61 32.4131 118.022 32.0075 118.033 31.5031L118.032 31.483C118.032 29.9418 119.281 28.6925 120.82 28.6925L120.842 28.6926C121.345 28.6813 121.75 28.2693 121.75 27.7626C121.75 27.2492 121.334 26.8329 120.821 26.8325V26.8322C120.821 26.8322 120.821 26.8322 120.82 26.8322C119.281 26.8322 118.032 25.5828 118.032 24.0417C118.032 24.0355 118.032 24.0293 118.033 24.023C118.023 23.518 117.61 23.1116 117.103 23.1116C116.59 23.1116 116.174 23.5281 116.174 24.0418L116.174 24.0427H116.173C116.173 25.583 114.925 26.8315 113.387 26.8322V26.8325H113.386C112.873 26.8325 112.457 27.2489 112.457 27.7626C112.457 28.2692 112.862 28.6812 113.365 28.6926Z" fill="#E1B554"/>
<path fill-rule="evenodd" clip-rule="evenodd" d="M80.6371 82.6501V82.6499H80.6368C80.1236 82.6499 79.7075 82.2334 79.7075 81.7197C79.7075 81.2115 80.1148 80.7984 80.6206 80.7897L80.6359 80.7898C82.1753 80.7898 83.4233 79.5409 83.4238 78.0002H83.4246L83.4246 77.9991C83.4246 77.4854 83.8406 77.069 84.3539 77.069C84.8609 77.069 85.2731 77.4753 85.283 77.9804C85.283 77.9867 85.283 77.993 85.283 77.9993C85.283 79.5404 86.5312 80.7898 88.0709 80.7898C88.0763 80.7898 88.0816 80.7897 88.0869 80.7897C88.5928 80.7983 89.0002 81.2114 89.0002 81.7197C89.0002 82.2332 88.5846 82.6495 88.0717 82.6499V82.6501H88.0709C86.5312 82.6501 85.283 83.8994 85.283 85.4405L85.283 85.4606C85.2723 85.965 84.8604 86.3706 84.3539 86.3706C83.841 86.3706 83.4252 85.9547 83.4246 85.4415H83.4238L83.4238 85.4405C83.4238 83.8998 82.1763 82.6507 80.6371 82.6501Z" fill="#E1B554"/>
<path fill-rule="evenodd" clip-rule="evenodd" d="M196.637 88.6501V88.6499H196.637C196.124 88.6499 195.708 88.2334 195.708 87.7197C195.708 87.2115 196.115 86.7984 196.621 86.7897L196.636 86.7898C198.175 86.7898 199.423 85.5409 199.424 84.0002H199.425L199.425 83.9991C199.425 83.4854 199.841 83.069 200.354 83.069C200.861 83.069 201.273 83.4753 201.283 83.9804C201.283 83.9867 201.283 83.993 201.283 83.9993C201.283 85.5404 202.531 86.7898 204.071 86.7898C204.076 86.7898 204.082 86.7897 204.087 86.7897C204.593 86.7983 205 87.2114 205 87.7197C205 88.2332 204.585 88.6495 204.072 88.6499V88.6501H204.071C202.531 88.6501 201.283 89.8994 201.283 91.4405L201.283 91.4606C201.272 91.965 200.86 92.3706 200.354 92.3706C199.841 92.3706 199.425 91.9547 199.425 91.4415H199.424L199.424 91.4405C199.424 89.8998 198.176 88.6507 196.637 88.6501Z" fill="#E1B554"/>
<path fill-rule="evenodd" clip-rule="evenodd" d="M12.6372 163.723V163.723H12.6368C12.1236 163.723 11.7075 163.307 11.7075 162.793C11.7075 162.285 12.1148 161.872 12.6206 161.863L12.6359 161.863C14.1756 161.863 15.4238 160.614 15.4238 159.073V159.072H15.4246V159.072C15.4246 158.559 15.8406 158.142 16.3539 158.142C16.8609 158.142 17.2731 158.549 17.283 159.054C17.283 159.06 17.283 159.066 17.283 159.073C17.283 160.614 18.5312 161.863 20.0709 161.863C20.0763 161.863 20.0816 161.863 20.0869 161.863C20.5928 161.871 21.0002 162.285 21.0002 162.793C21.0002 163.306 20.5846 163.723 20.0718 163.723V163.723L20.0709 163.723C18.5312 163.723 17.283 164.973 17.283 166.514L17.283 166.534C17.2723 167.038 16.8604 167.444 16.3539 167.444C15.8407 167.444 15.4246 167.027 15.4246 166.514H15.4238C15.4238 164.973 14.1763 163.724 12.6372 163.723Z" fill="#E1B554"/>
<path fill-rule="evenodd" clip-rule="evenodd" d="M21.0244 50.7126H21.0245C22.5642 50.7126 23.8124 51.9618 23.8125 53.5029H23.8129L25.6702 53.5029C25.6702 51.9619 26.9184 50.7126 28.4581 50.7126L28.459 50.7126V50.7118C28.9718 50.7114 29.3875 50.2951 29.3875 49.7817C29.3875 49.2742 28.9814 48.8617 28.4768 48.8517C28.4706 48.8518 28.4644 48.8518 28.4581 48.8518C26.9184 48.8518 25.6702 47.6024 25.6702 46.0613C25.6702 46.0474 25.6703 46.0336 25.6705 46.0198C25.6486 45.5255 25.2413 45.1314 24.7421 45.1314C24.2288 45.1314 23.8127 45.5478 23.8127 46.0616V46.0617H23.8125C23.8123 47.6026 22.5642 48.8518 21.0245 48.8518L21.0055 48.8517C20.5008 48.8616 20.0947 49.2742 20.0947 49.7817C20.0947 50.2954 20.5108 50.7118 21.024 50.7118H21.0244V50.7126Z" fill="#E1B554"/>
<defs>
<filter id="filter0_d" x="587.99" y="69.2758" width="54.404" height="54.4452" filterUnits="userSpaceOnUse" color-interpolation-filters="sRGB">
<feFlood flood-opacity="0" result="BackgroundImageFix"/>
<feColorMatrix in="SourceAlpha" type="matrix" values="0 0 0 0 0 0 0 0 0 0 0 0 0 0 0 0 0 0 127 0"/>
<feOffset/>
<feGaussianBlur stdDeviation="2.1297"/>
<feColorMatrix type="matrix" values="0 0 0 0 1 0 0 0 0 1 0 0 0 0 1 0 0 0 0.4 0"/>
<feBlend mode="normal" in2="BackgroundImageFix" result="effect1_dropShadow"/>
<feBlend mode="normal" in="SourceGraphic" in2="effect1_dropShadow" result="shape"/>
</filter>
<filter id="filter1_d" x="594.67" y="75.9586" width="41.045" height="41.08" filterUnits="userSpaceOnUse" color-interpolation-filters="sRGB">
<feFlood flood-opacity="0" result="BackgroundImageFix"/>
<feColorMatrix in="SourceAlpha" type="matrix" values="0 0 0 0 0 0 0 0 0 0 0 0 0 0 0 0 0 0 127 0"/>
<feOffset/>
<feGaussianBlur stdDeviation="0.532424"/>
<feColorMatrix type="matrix" values="0 0 0 0 1 0 0 0 0 1 0 0 0 0 1 0 0 0 0.2 0"/>
<feBlend mode="normal" in2="BackgroundImageFix" result="effect1_dropShadow"/>
<feBlend mode="normal" in="SourceGraphic" in2="effect1_dropShadow" result="shape"/>
</filter>
<radialGradient id="paint0_radial" cx="0" cy="0" r="1" gradientUnits="userSpaceOnUse" gradientTransform="translate(608.746 94.5455) rotate(152.136) scale(688.582 522.042)">
<stop stop-color="#3E3E70" stop-opacity="0.46"/>
<stop offset="1" stop-color="#3E3E70" stop-opacity="0"/>
</radialGradient>
</defs>
</svg>
