<svg width="35" height="30" viewBox="0 0 35 30" fill="none" xmlns="http://www.w3.org/2000/svg">
<path d="M19.7408 3.84848L19.7404 3.84895L18.4481 5.17315L17.7325 5.90653L17.0168 5.17315L15.7245 3.84895L15.7234 3.84777C12.7541 0.795026 7.99517 0.358439 4.84701 3.02579L19.7408 3.84848ZM19.7408 3.84848C22.7173 0.794449 27.4701 0.358772 30.6179 3.02579C34.2897 6.14229 34.4859 11.7464 31.1916 15.1271L31.1914 15.1273M19.7408 3.84848L31.1914 15.1273M31.1914 15.1273L18.4987 28.1603C18.4987 28.1604 18.4986 28.1605 18.4985 28.1605C18.0711 28.5989 17.3872 28.5989 16.9598 28.1605C16.9597 28.1605 16.9597 28.1604 16.9596 28.1603L4.26733 15.1277M31.1914 15.1273L4.26733 15.1277M4.26733 15.1277C0.978925 11.7471 1.17505 6.14252 4.84686 3.02592L4.26733 15.1277Z" fill="#B53B3B" stroke="#B53B3B" stroke-width="2"/>
</svg>
