<svg width="307" height="234" viewBox="0 0 307 234" fill="none" xmlns="http://www.w3.org/2000/svg">
<g filter="url(#filter0_d)">
<path d="M12.4934 151.867L77.2375 130.333L93.8109 99.4022L135.589 100.775M135.589 100.775L150.563 67.8379L192.908 56.3497M135.589 100.775L184.575 102.964L201.337 123.558L228.976 108.185M192.908 56.3497L200.44 47.3354M192.908 56.3497L205.239 62.037L207.66 69.8588L215.767 65.3496M256.615 92.813L228.976 108.185M256.615 92.813L265.621 82.9789M256.615 92.813L272.132 94.6849M282.994 95.9952L272.132 94.6849M228.976 108.185L227.245 85.9869L263.116 68.9315L261.716 52.0985M261.716 52.0985L260.315 35.2655L256.833 33.3421M261.716 52.0985L271.338 45.5407L276.05 49.6752M265.621 82.9789L277.99 80.9251M265.621 82.9789L267.911 74.95M272.132 94.6849L275.255 100.299" stroke="#B6F2FF" stroke-width="2" stroke-linecap="round" stroke-linejoin="round"/>
</g>
<defs>
<filter id="filter0_d" x="0.0585938" y="0.882812" width="306.667" height="232.574" filterUnits="userSpaceOnUse" color-interpolation-filters="sRGB">
<feFlood flood-opacity="0" result="BackgroundImageFix"/>
<feColorMatrix in="SourceAlpha" type="matrix" values="0 0 0 0 0 0 0 0 0 0 0 0 0 0 0 0 0 0 127 0"/>
<feOffset/>
<feGaussianBlur stdDeviation="4"/>
<feColorMatrix type="matrix" values="0 0 0 0 0.713726 0 0 0 0 0.94902 0 0 0 0 1 0 0 0 1 0"/>
<feBlend mode="normal" in2="BackgroundImageFix" result="effect1_dropShadow"/>
<feBlend mode="normal" in="SourceGraphic" in2="effect1_dropShadow" result="shape"/>
</filter>
</defs>
</svg>
