<svg width="92" height="172" viewBox="0 0 92 172" fill="none" xmlns="http://www.w3.org/2000/svg">
<mask id="mask0" mask-type="alpha" maskUnits="userSpaceOnUse" x="0" y="-1" width="92" height="173">
<path d="M76.5559 78.0498C76.5559 78.0498 73.3159 79.9598 72.9559 90.8998C72.5959 101.84 72.9559 114.51 72.9559 114.51C72.9559 114.51 72.9059 118.11 76.2859 114.1C79.6659 110.09 81.5759 102.39 81.5759 102.39C81.5759 102.39 83.0359 93.7798 82.3459 79.2398C82.3359 79.2298 79.8359 75.9998 76.5559 78.0498Z" fill="#B53B3B"/>
<path opacity="0.3" d="M76.5559 78.0498C76.5559 78.0498 73.3159 79.9598 72.9559 90.8998C72.5959 101.84 72.9559 114.51 72.9559 114.51C72.9559 114.51 72.9059 118.11 76.2859 114.1C79.6659 110.09 81.5759 102.39 81.5759 102.39C81.5759 102.39 83.0359 93.7798 82.3459 79.2398C82.3359 79.2298 79.8359 75.9998 76.5559 78.0498Z" fill="#B53B3B"/>
<path d="M75.3859 79.0501L76.156 78.7401L77.326 78.2401L76.906 75.6101L78.336 72.3901C78.336 72.3901 77.166 69.6301 78.226 69.0201C79.286 68.4001 79.926 68.2201 80.336 68.8101C80.746 69.4001 81.3159 70.8301 81.3159 70.8301L86.9259 69.1901L88.3159 71.1201L87.3859 72.2401L88.1359 73.4901L87.0359 74.9001L87.6059 76.5701L86.376 78.1401L86.1359 80.2401C86.1359 80.2401 85.206 81.0401 83.226 80.8601C81.246 80.6801 80.446 82.3501 80.446 82.3501L77.656 84.2001L73.626 85.0501L75.3859 79.0501Z" fill="#B53B3B"/>
<path opacity="0.3" d="M80.1966 79.2598C78.7466 79.3198 78.5266 77.7998 78.5266 76.7498C78.5266 76.0498 78.9266 75.7199 78.9066 75.4499C78.8666 74.9899 78.6266 74.2398 78.6366 73.9298C78.6466 73.7498 78.7266 73.5299 78.9966 73.4199C78.6966 73.4699 77.9466 73.2999 77.9566 73.2299C78.0966 72.2899 79.9566 72.2298 80.2466 72.3998C80.9266 72.7898 80.5666 78.5798 80.1566 81.6898C80.0966 82.1198 79.8666 82.4398 79.8166 82.7498C79.7566 83.1298 76.0266 84.5899 74.3666 84.7699C73.4166 84.8799 74.1066 83.9398 74.1166 83.7198C74.1266 83.5898 79.3866 81.9799 79.4866 81.9199C79.6766 81.7999 79.8366 81.2098 79.8166 81.3298C79.7866 81.5398 80.1966 79.2598 80.1966 79.2598Z" fill="#B53B3B"/>
<path d="M85.166 69.1899C85.166 69.1899 85.456 69.3799 86.136 69.4299" stroke="#B53B3B" stroke-width="0.9621" stroke-linecap="round" stroke-linejoin="round"/>
<path d="M78.2253 72.0601C78.2253 72.0601 76.6553 74.4401 76.9353 75.9801C77.2153 77.5201 77.3153 77.7801 77.3153 77.7801C77.3153 77.7801 77.7353 78.7601 76.1553 78.5101" stroke="#B53B3B" stroke-width="0.9621" stroke-linecap="round" stroke-linejoin="round"/>
<path d="M83.4364 80.6299C82.6064 81.0899 80.6164 81.0199 80.6164 81.0199L80.3164 82.6999C80.3164 82.6999 78.3464 84.5499 74.0664 85.0399" stroke="#B53B3B" stroke-width="0.9621" stroke-linecap="round" stroke-linejoin="round"/>
<path d="M86.9559 69.0999C86.2659 68.7099 85.5059 68.4199 85.5059 68.4199" stroke="#B53B3B" stroke-width="0.9621" stroke-linecap="round" stroke-linejoin="round"/>
<path d="M62.4659 97.9202C62.4659 97.9202 70.0059 103.58 72.5259 112.34C72.5259 112.34 72.4059 105.3 73.3159 88.7102C73.3159 88.7102 72.9459 79.9902 76.9559 77.4702C76.9559 77.4702 75.2359 76.9002 72.7859 76.6702C69.4459 76.3502 64.9759 76.2102 63.7559 74.8102C62.7759 73.4402 63.7359 63.4702 63.7359 63.4702H61.8359L62.4659 97.9202Z" fill="#B53B3B"/>
<path opacity="0.3" d="M61.9053 95.8198C61.9053 95.8198 68.8453 98.0798 72.8553 109.96L72.5253 112.35C72.5253 112.35 67.7153 100.31 62.2553 98.0298L61.9053 95.8198Z" fill="#B53B3B"/>
<path opacity="0.2" d="M63.4854 74.8301C63.5054 76.1401 63.5854 77.0801 63.7554 77.2201C64.3854 77.7201 65.0254 78.7701 68.5254 78.7201C70.1854 78.7001 72.8754 78.9701 75.1754 79.2501C75.8054 79.3301 76.6554 77.3701 76.9554 77.2201L65.5554 76.2001L64.0554 75.4301L63.4854 74.8301Z" fill="#B53B3B"/>
<path d="M76.9659 77.4702C76.9659 77.4702 73.3159 79.9602 72.9559 90.9002C72.5959 101.84 72.9559 114.51 72.9559 114.51C72.9559 114.51 72.9059 118.11 76.2859 114.1C77.3559 112.83 77.6459 112.47 78.4059 110.82" stroke="#B53B3B" stroke-width="0.9621" stroke-miterlimit="10"/>
<path d="M63.7566 63C63.7566 63 63.1266 74.31 63.7566 74.81C64.3866 75.31 65.0266 76.36 68.5266 76.31C70.6466 76.28 74.4365 76.73 76.9565 77.07" stroke="#B53B3B" stroke-width="0.9621" stroke-miterlimit="10"/>
<path d="M77.7061 170.77L79.7761 171L87.0061 24.2002L82.3561 23.9702L77.7061 170.77Z" fill="#B53B3B"/>
<path opacity="0.4" d="M77.7061 170.77L79.7761 171L83.3761 26.7702L84.3461 26.1102L85.0461 24.5502L82.8061 24.4302L82.6861 26.8902L77.7061 170.77Z" fill="#B53B3B"/>
<path d="M85.6861 1L87.2561 14.58L82.9761 14.41L85.6861 1Z" fill="#B53B3B"/>
<path opacity="0.2" d="M85.8064 2.08984L87.0063 14.4299L84.6763 14.3399L85.8064 2.08984Z" fill="#B53B3B"/>
<path d="M83.9761 20.3402H86.356L87.2561 14.5802L82.9761 14.4102L83.9761 20.3402Z" fill="#B53B3B"/>
<path opacity="0.3" d="M83.9761 20.3402L84.5161 17.7102L84.6561 14.5802L82.9761 14.4102L83.9761 20.3402Z" fill="#B53B3B"/>
<path d="M85.686 1L87.256 14.58L91.156 13.55L85.686 1Z" fill="#B53B3B"/>
<path opacity="0.3" d="M86.3662 3.25L87.5362 14.41L91.4762 13.16L86.3662 3.25Z" fill="#B53B3B"/>
<path d="M87.0059 20.3398L87.2559 14.5798L91.1559 13.5498L88.8159 18.9798L87.0059 20.3398Z" fill="#B53B3B"/>
<path d="M85.6863 1L78.9463 13.25L82.9763 14.41L85.6863 1Z" fill="#B53B3B"/>
<path d="M83.3863 20.7L81.5163 19.17L78.9463 13.25L82.9763 14.41L83.3863 20.7Z" fill="#B53B3B"/>
<path opacity="0.3" d="M83.3863 20.11L80.8763 18.58L78.9463 13.25L82.9763 14.41L83.3863 20.11Z" fill="#B53B3B"/>
<path d="M85.6863 1L78.9463 13.25L82.9763 14.41L85.6863 1Z" stroke="#B53B3B" stroke-width="0.9621" stroke-miterlimit="10" stroke-linejoin="bevel"/>
<path d="M86.386 21.5602L87.2561 14.5802L82.9761 14.4102L83.8761 21.4302L86.386 21.5602Z" stroke="#B53B3B" stroke-width="0.9621" stroke-miterlimit="10" stroke-linejoin="bevel"/>
<path d="M85.686 1L87.256 14.58L91.156 13.55" stroke="#B53B3B" stroke-width="0.9621" stroke-miterlimit="10" stroke-linejoin="bevel"/>
<path d="M77.7061 170.77L79.7761 171L87.0061 24.2002L82.3561 23.9702L77.7061 170.77Z" stroke="#B53B3B" stroke-width="0.9621" stroke-miterlimit="10"/>
<path d="M85.6861 1L87.2561 14.58L82.9761 14.41L85.6861 1Z" stroke="#B53B3B" stroke-width="0.9621" stroke-miterlimit="10" stroke-linejoin="bevel"/>
<path d="M85.6863 1L78.9463 13.25L81.1263 18.27L85.2263 22.97L89.0063 18.42L91.1563 13.55L85.6863 1Z" stroke="#B53B3B" stroke-width="0.9621" stroke-miterlimit="10"/>
<path d="M82.3559 23.9699L87.006 24.1999L89.006 18.4199L86.3859 21.5599L85.076 17.1899L83.876 21.4299L81.126 18.2699L82.3559 23.9699Z" fill="#B53B3B"/>
<path opacity="0.4" d="M83.216 21.12L81.126 18.27L82.3559 23.97H85.116L83.216 21.12Z" fill="#B53B3B"/>
<path d="M82.3559 23.9699L87.006 24.1999L89.006 18.4199L86.3859 21.5599L85.076 17.1899L83.876 21.4299L81.126 18.2699L82.3559 23.9699Z" stroke="#B53B3B" stroke-width="0.9621" stroke-miterlimit="10"/>
<path d="M86.1356 68.96L81.3056 71.31L80.4756 69.19L80.2256 71.12L80.9856 71.7L80.7156 72.9L79.4956 73.64L79.8956 77.78L80.8256 78.9L81.7056 80.63L85.5456 80.8L86.4956 77.98L87.5056 75.88L86.6156 74.69L88.1356 73.25L86.9656 72.31L88.1356 70.66L87.5656 69.63L86.1356 68.96Z" fill="#B53B3B"/>
<path opacity="0.2" d="M86.4958 68.9601L88.0158 69.8401L87.5258 71.3301C87.5258 71.3301 86.7758 70.9401 86.5058 70.9401C85.1458 70.9301 82.7958 72.3101 81.1058 71.6401C80.2758 71.3101 85.3158 69.3601 85.8158 69.1201C85.8558 69.1001 85.8758 69.0901 85.9058 69.0801C86.1858 68.9501 86.4958 68.9601 86.4958 68.9601Z" fill="#B53B3B"/>
<path opacity="0.2" d="M86.7856 72.3301L88.0156 73.1601L88.0756 73.9601C88.0756 73.9601 86.7756 74.3201 86.8956 74.0701C87.3256 73.2501 86.7856 72.3301 86.7856 72.3301Z" fill="#B53B3B"/>
<path opacity="0.3" d="M80.3857 73.5601C80.3857 73.5601 81.5957 74.5401 83.2957 73.8801C84.1757 73.5401 86.7157 73.06 87.0157 72.82C87.3157 72.58 85.3657 72.82 85.3657 72.82L80.3857 73.5601Z" fill="#B53B3B"/>
<path opacity="0.3" d="M79.2358 76.0402C79.2358 76.0402 79.3358 76.7502 81.7558 76.5702C85.8758 76.2602 86.2058 75.5502 86.5058 75.3002C86.8058 75.0502 84.1358 75.3502 84.1358 75.3502L79.2358 76.0402Z" fill="#B53B3B"/>
<path opacity="0.3" d="M80.3857 78.6002C80.3857 78.6002 81.0757 79.2402 82.8857 79.0902C87.0057 78.7402 85.3657 78.4802 85.6657 78.2402C85.9657 78.0002 85.0557 77.9102 85.0557 77.9102L80.3857 78.6002Z" fill="#B53B3B"/>
<path opacity="0.2" d="M87.3556 75.2001L87.5156 76.3501L87.3756 77.1401L86.1056 77.6301C86.1056 77.6301 87.2956 76.3201 86.0356 75.1401C85.3456 74.4901 86.2756 75.3101 86.8556 75.2101C86.8956 75.2001 87.0656 75.1601 87.1056 75.1501C87.4456 75.1101 87.3556 75.2001 87.3556 75.2001Z" fill="#B53B3B"/>
<path opacity="0.2" d="M86.8858 79.26L86.4958 80.15L86.0358 80.83L84.7158 80.51C84.7158 80.51 86.2958 79.9 85.6458 78.1C85.3258 77.21 85.8558 78.48 86.3958 78.72C86.4358 78.74 86.5958 78.8 86.6358 78.82C86.9258 78.97 86.8858 79.26 86.8858 79.26Z" fill="#B53B3B"/>
<path d="M85.5155 69.5C85.3555 69.75 81.4955 71.08 81.0055 71.23C80.5155 71.38 80.8155 72.49 80.8155 72.49C80.8155 72.49 80.9855 73.59 82.6455 73.15C84.3055 72.71 86.2955 72.33 86.2955 72.33C86.2955 72.33 87.3155 72.25 87.6455 71.77C87.9755 71.28 88.3555 70.7301 87.9555 69.9601C87.8055 69.6601 87.3955 69.36 86.9455 69.11C86.7055 68.98 86.4655 68.85 86.2455 68.75" stroke="#B53B3B" stroke-width="0.9621" stroke-linecap="round" stroke-linejoin="round"/>
<path d="M81.1757 73.03C81.1757 73.03 79.7357 73.24 79.7257 73.97C79.7057 74.7 79.7757 75.24 80.2057 75.4C80.6357 75.56 84.4457 75.29 84.4457 75.29C84.4457 75.29 85.9557 75.04 86.4957 74.77C87.3657 74.33 87.4757 74.12 87.7657 73.86C87.9957 73.65 88.0057 73.01 87.4757 72.63C86.7357 72.09 86.7357 72.27 86.7357 72.27" stroke="#B53B3B" stroke-width="0.9621" stroke-linecap="round" stroke-linejoin="round"/>
<path d="M83.1557 75.4404L80.7357 75.5904C80.7357 75.5904 79.4357 75.4604 79.4957 76.5704C79.5557 77.6804 79.8257 78.3204 80.6257 78.2304C81.4257 78.1404 85.1658 78.0504 85.1658 78.0504C85.1658 78.0504 86.3657 78.1404 86.9557 77.4704C87.5557 76.8104 87.3357 75.9604 87.3357 75.9604C87.3357 75.9604 87.4157 75.0504 86.1357 74.8804" stroke="#B53B3B" stroke-width="0.9621" stroke-linecap="round" stroke-linejoin="round"/>
<path d="M85.9256 78C85.9256 78 86.6356 78.48 86.4756 79.27C86.3156 80.06 85.6556 80.62 85.6556 80.62H82.7056C82.7056 80.62 81.7256 80.66 81.1956 80.04C80.6656 79.42 80.6456 78.5 81.3556 78.17" stroke="#B53B3B" stroke-width="0.9621" stroke-linecap="round" stroke-linejoin="round"/>
<path opacity="0.4" d="M80.9357 69.96C80.9357 69.96 81.1157 68.97 80.3857 68.46C80.1457 68.3 80.3457 68.39 80.2957 68.41C79.8557 68.66 79.7857 69.94 79.8357 70.31C79.9757 71.52 80.5457 71.55 80.5457 71.55C80.5457 71.55 79.6657 73.03 80.6157 71.81C80.6157 71.81 81.1357 70.66 80.9357 69.96Z" fill="#B53B3B"/>
<path d="M80.9357 69.9602C80.9357 69.9602 80.9857 68.6902 80.1357 68.4302C79.0457 68.0902 78.6857 68.4902 78.2857 68.7302C77.8557 68.9902 77.2457 69.4302 77.5057 70.6102C77.7657 71.8002 78.5457 72.3502 78.5457 72.3502C78.5457 72.3502 79.6757 73.0302 80.6157 71.8102C80.6157 71.8102 81.1357 70.6602 80.9357 69.9602Z" stroke="#B53B3B" stroke-width="0.9621" stroke-linecap="round" stroke-linejoin="round"/>
<path d="M44.7256 169.7C44.7256 169.7 51.6856 153.57 52.2956 92.0498C52.2956 92.0498 59.6656 154.3 61.2956 165.25L53.0156 169.7H44.7256Z" fill="#B53B3B"/>
<path opacity="0.3" d="M44.7256 169.7C44.7256 169.7 51.6856 153.57 52.2956 92.0498C52.2956 92.0498 59.6656 154.3 61.2956 165.25L53.0156 169.7H44.7256Z" fill="#B53B3B"/>
<path d="M10.3052 113.59C10.3052 113.59 11.5752 130.82 1.11523 147.22C1.11523 147.22 2.77523 164.45 21.0052 167.36C39.2352 170.28 44.3352 170.64 44.3352 170.64C44.3352 170.64 55.1252 148.56 51.5852 64.2898C51.5852 64.2898 34.8352 66.4798 21.7752 64.2898C8.70523 62.1098 9.42523 95.1798 9.42523 95.1798L10.3052 113.59Z" fill="#B53B3B"/>
<path d="M44.3359 170.65C44.3359 170.65 47.8059 170.29 53.0159 168.92C58.2259 167.55 61.4459 166.03 61.4459 166.03" stroke="#B53B3B" stroke-width="0.9621" stroke-miterlimit="10"/>
<path d="M51.5859 64.3C51.5859 64.3 53.2759 97.89 54.3859 108.27C55.4959 118.65 61.4359 166.03 61.4359 166.03L72.0759 162.51C72.0759 162.51 72.8059 162.17 72.4159 160.15C70.0559 147.91 60.8059 102.64 61.4559 84.49C62.2159 63.34 62.0159 68.81 62.0159 68.81C62.0159 68.81 62.0159 63.74 61.1059 63C58.5059 60.91 51.5859 64.3 51.5859 64.3Z" fill="#B53B3B"/>
<path d="M52.2354 87.5298C52.2354 87.5298 58.6454 151.45 61.4354 166.03L71.3054 162.81C71.3054 162.81 73.8554 162.72 72.3054 158.07C70.7554 153.42 63.4654 119.24 62.0054 97.6398C62.0054 97.6398 68.8454 101.17 73.3054 115.77" stroke="#B53B3B" stroke-width="0.9621" stroke-miterlimit="10"/>
<path d="M61.4551 63.4702C61.5951 67.1202 62.0151 97.6402 62.0151 97.6402" stroke="#B53B3B" stroke-width="0.9621" stroke-miterlimit="10"/>
<path d="M10.3052 113.59C10.3052 113.59 11.5752 130.82 1.11523 147.22C1.11523 147.22 2.77523 164.45 21.0052 167.36C39.2352 170.28 44.3352 170.64 44.3352 170.64C44.3352 170.64 55.1252 148.56 51.5852 64.29" stroke="#B53B3B" stroke-width="0.9621" stroke-miterlimit="10"/>
<path d="M48.2359 70.4004C45.8859 68.5104 41.7759 69.6504 41.7759 69.6504L41.7459 70.8704C45.3359 69.7904 47.4059 71.2404 47.4059 71.2404L50.2759 103.99L11.2959 110.12L12.3459 110.5L50.3459 104.73L51.3059 104.56L48.2359 70.4004Z" fill="#B53B3B"/>
<path opacity="0.4" d="M48.2359 70.4004C45.8859 68.5104 41.7759 69.6504 41.7759 69.6504L41.7459 70.8704C45.3359 69.7904 47.4059 71.2404 47.4059 71.2404L50.2759 103.99L11.2959 110.12L12.3459 110.5L50.3459 104.73L51.3059 104.56L48.2359 70.4004Z" fill="#B53B3B"/>
<path d="M7.68555 109.49C10.6155 110.35 10.0955 110.17 10.0955 110.17L50.2655 103.74L44.6155 103.36L7.68555 109.49Z" fill="#B53B3B"/>
<path opacity="0.4" d="M7.68555 109.49C10.6155 110.35 10.0955 110.17 10.0955 110.17L50.1855 103.73L44.6155 103.36L7.68555 109.49Z" fill="#B53B3B"/>
<path d="M41.7764 70.98C44.6164 72.81 47.4064 71.25 47.4064 71.25L50.2764 103.74L44.6164 103.36L41.7764 70.98Z" fill="#B53B3B"/>
<path opacity="0.4" d="M47.4052 71.4202C47.3352 72.0002 46.0352 71.2402 46.0352 71.2402L48.9352 103.64L50.2652 103.73L47.4052 71.4202Z" fill="#B53B3B"/>
<path d="M41.7764 70.9802C44.6164 72.8102 47.4064 71.2501 47.4064 71.2501C47.4064 71.2501 44.7064 69.8502 41.7764 70.9802Z" fill="#B53B3B"/>
<path d="M41.7764 70.98C44.6164 72.81 47.4064 71.25 47.4064 71.25" stroke="#B53B3B" stroke-width="0.481" stroke-miterlimit="10"/>
<path d="M41.1154 69.6903C45.2454 68.6103 48.3954 70.4103 48.3954 70.4103L51.3654 104.2C51.3854 104.45 51.2054 104.68 50.9554 104.72L12.3454 110.5L5.85547 109.54" stroke="#B53B3B" stroke-width="0.481" stroke-miterlimit="10"/>
<path d="M41.7756 70.9802C45.0356 69.8702 47.4056 71.2502 47.4056 71.2502L50.2756 103.93L9.80566 110.13" stroke="#B53B3B" stroke-width="0.481" stroke-miterlimit="10"/>
<path d="M41.645 69.5703L44.655 103.81L5.59504 109.66L4.16504 77.6403L41.645 69.5703Z" fill="#B53B3B"/>
<path d="M41.696 70.1203L44.616 103.36C44.636 103.61 44.456 103.84 44.206 103.88L6.12599 109.58C5.84599 109.62 5.58599 109.41 5.57599 109.12L4.18599 78.0404C4.17599 77.8104 4.33599 77.6003 4.56599 77.5503L41.116 69.6903C41.396 69.6303 41.676 69.8303 41.696 70.1203Z" stroke="#B53B3B" stroke-width="0.481" stroke-miterlimit="10"/>
<path opacity="0.4" d="M9.14504 76.5703L9.41504 109.09L5.59504 109.66L4.16504 77.6403L9.14504 76.5703Z" fill="#B53B3B"/>
<path d="M38.9754 73.1303L41.4454 101.24C41.4654 101.45 41.3154 101.65 41.0954 101.68L8.88539 106.5C8.64539 106.54 8.42539 106.36 8.41539 106.11L7.25539 79.8302C7.24539 79.6302 7.38539 79.4603 7.57539 79.4103L38.4854 72.7602C38.7254 72.7102 38.9554 72.8803 38.9754 73.1303Z" stroke="#B53B3B" stroke-width="0.9621" stroke-miterlimit="10"/>
<path d="M5.96567 61.9199C5.96567 61.9199 2.02567 78.0899 1.10567 82.4899C0.185669 86.8899 5.57567 101.73 5.57567 101.73L20.0756 138.42L25.2456 109.89L26.9756 103.75L29.1156 100C29.1156 100 21.8656 95.5599 16.6756 84.4799C15.0456 78.7399 14.5156 80.5699 14.8256 76.7999C15.0456 75.4599 18.7056 68.2399 18.7056 68.2399L20.0856 63.9499L6.11567 62.0199L5.96567 61.9199Z" fill="#B53B3B"/>
<path opacity="0.3" d="M3.0152 92.8599C4.9752 97.8099 7.6852 102.82 7.6852 102.82L21.2052 131.27L19.7452 136.87L6.7952 103.74L2.8252 92.9799L3.0152 92.8599Z" fill="#B53B3B"/>
<path opacity="0.2" d="M27.4458 102.27L25.8758 101.25C16.5958 94.5198 17.9558 91.1498 14.9558 86.0398C11.6158 80.3598 13.0158 76.5598 13.0158 76.5598C14.8958 73.1598 18.7658 67.5098 18.7658 67.5098L15.3258 75.4898L15.1458 79.1798L16.5758 84.1298L21.6458 92.5698L29.2358 99.5898L27.4458 102.27Z" fill="#B53B3B"/>
<path opacity="0.3" d="M5.62551 63.9501C5.62551 63.9501 5.42551 65.0501 9.66551 65.6501C13.9155 66.2501 25.2455 68.4201 28.0755 68.5201C30.9055 68.6201 47.1255 67.9501 47.1255 67.9501L48.7955 67.7601V66.7201C48.7955 66.7201 61.6155 66.0801 63.4855 65.6501V63.3101L48.9955 64.5801L48.6055 65.4101L29.3155 65.9201C29.3155 65.9201 13.0855 62.2001 6.70551 62.1501C6.71551 62.1501 5.77551 61.9501 5.62551 63.9501Z" fill="#B53B3B"/>
<path d="M5.96584 61.9199L1.87584 78.4999C1.87584 78.4999 -0.514158 83.5999 3.13584 94.3599C6.78584 105.12 20.2658 138.99 20.2658 138.99" stroke="#B53B3B" stroke-width="0.9621" stroke-miterlimit="10"/>
<path d="M31.0254 105.85C31.0254 105.85 31.7854 112.06 27.7654 125.45C24.4354 136.57 21.2754 138.85 21.2754 138.85C21.2754 138.85 18.9954 141.04 20.7254 134.29C22.4554 127.55 24.3754 116.06 25.2454 109.32C26.1154 102.58 29.1154 100.11 29.1154 100.11C29.1154 100.11 30.8454 98.0998 31.0254 105.85Z" fill="#B53B3B"/>
<path opacity="0.3" d="M31.0254 105.85C31.0254 105.85 31.7854 112.06 27.7654 125.45C24.4354 136.57 21.2754 138.85 21.2754 138.85C21.2754 138.85 18.9954 141.04 20.7254 134.29C22.4554 127.55 24.3754 116.06 25.2454 109.32C26.1154 102.58 29.1154 100.11 29.1154 100.11C29.1154 100.11 30.8454 98.0998 31.0254 105.85Z" fill="#B53B3B"/>
<path d="M29.2556 100.17C29.2556 100.17 30.0556 100.29 31.5856 99.7698L32.9956 99.0498C32.9956 99.0498 33.7156 98.7698 34.4456 98.7698C35.1656 98.7698 37.3856 98.7698 37.3856 98.7698C37.3856 98.7698 38.6756 98.6198 39.1156 99.4798C39.5556 100.34 38.6756 100.82 38.6756 100.82C38.6756 100.82 38.4356 101.34 37.3856 101.34H35.9156C35.9156 101.34 34.2756 101.22 33.8156 102.17C33.3556 103.12 34.3956 103.85 34.3956 103.85L37.7756 106.15C37.7756 106.15 38.7956 106.64 40.0056 106.66C40.0056 106.66 41.5156 106.64 41.8856 106.53C41.8856 106.53 42.1756 106.61 42.2356 106.27L43.6056 106.07C43.6056 106.07 44.3656 107.15 41.4456 108.35C41.4456 108.35 41.7856 109.68 41.2456 109.76C40.7056 109.83 39.6656 110.42 39.6656 110.42L34.2156 111.3C34.2156 111.3 33.4056 112.1 32.4456 112.05C32.4456 112.05 31.8556 112.55 31.0156 112.54C30.1756 112.53 25.7956 110.05 25.3356 109.01C24.8756 107.96 29.2556 100.17 29.2556 100.17Z" fill="#B53B3B"/>
<path opacity="0.3" d="M34.4958 100.04C34.9758 100.08 35.1158 100.14 36.5158 100.21C37.1458 100.24 38.4258 100.45 39.0558 100.25C39.7658 100.02 38.8458 99.5398 38.8458 99.5398C38.8458 99.5398 37.9458 98.9398 37.5558 98.9998C37.1558 99.0598 32.8458 99.1998 32.8458 99.1998L32.1758 99.6498C32.1758 99.6498 33.7758 99.9801 34.4958 100.04Z" fill="#B53B3B"/>
<path opacity="0.3" d="M26.8251 109.92C27.2151 110.2 27.3151 110.32 28.4851 111.09C29.0151 111.43 30.0551 112.06 30.7051 112.21C31.4351 112.37 34.4951 111.26 34.4951 111.26C34.4951 111.26 31.6551 111.08 30.8851 110.83C29.4451 110.36 25.8851 108.16 25.8851 108.16L25.5851 109.09C25.5751 109.08 26.2351 109.5 26.8251 109.92Z" fill="#B53B3B"/>
<path opacity="0.3" d="M34.2262 110.499C34.7062 110.559 35.6462 110.059 37.0362 110.189C37.6662 110.249 39.1262 110.309 39.7562 110.139C40.4762 109.939 41.5062 109.089 41.5062 109.089C41.5062 109.089 40.1962 108.949 39.3962 109.089C37.8962 109.349 34.9562 109.359 34.9562 109.359L33.0762 110.009C33.0762 109.999 33.5062 110.409 34.2262 110.499Z" fill="#B53B3B"/>
<path opacity="0.3" d="M35.3358 109.16C35.8158 109.22 36.7558 108.72 38.1458 108.85C38.7758 108.91 40.2358 108.97 40.8658 108.8C41.5858 108.6 43.6458 106.66 43.6458 106.66C43.6458 106.66 44.0658 105.69 42.5558 106.22C41.6158 106.55 40.3858 107.95 39.9058 108.03C38.4058 108.29 36.8058 107.92 35.8058 108.15C35.5458 108.21 34.8758 108.67 34.8758 108.67C34.8758 108.67 34.6158 109.07 35.3358 109.16Z" fill="#B53B3B"/>
<path d="M29.2549 100.17C29.2549 100.17 30.0549 100.29 31.5849 99.7698L32.995 99.0498C32.995 99.0498 33.715 98.7698 34.445 98.7698C35.165 98.7698 37.3849 98.7698 37.3849 98.7698C37.3849 98.7698 38.6749 98.6198 39.1149 99.4798C39.5549 100.34 38.7749 100.92 38.7749 100.92C38.7749 100.92 38.1049 101.3 37.3849 101.34H35.9149C35.9149 101.34 34.2749 101.22 33.8149 102.17C33.3549 103.12 34.3949 103.85 34.3949 103.85L37.7749 106.15C37.7749 106.15 38.7949 106.64 40.0049 106.66C40.0049 106.66 41.5149 106.64 41.8849 106.53C41.8849 106.53 42.0649 106.56 42.1349 106.26" stroke="#B53B3B" stroke-width="0.9621" stroke-miterlimit="10" stroke-linecap="round"/>
<path d="M39.755 110.129C39.755 110.129 39.945 110.489 39.485 110.669C39.025 110.849 34.105 111.459 34.105 111.459C34.105 111.459 33.815 111.749 33.225 112.079C33.225 112.079 32.925 112.179 32.405 112.149C32.405 112.149 31.775 112.719 30.895 112.659C30.895 112.659 27.805 111.319 27.075 110.569C26.355 109.809 25.335 109.079 25.335 109.079" stroke="#B53B3B" stroke-width="0.9621" stroke-miterlimit="10" stroke-linecap="round"/>
<path d="M33.0762 110.26C33.0762 110.26 33.6862 111.02 34.5062 110.78C35.3262 110.54 35.5362 110.55 35.5362 110.55C35.5362 110.55 40.3362 110.18 41.1262 109.9C41.9162 109.62 41.2862 108.43 41.2862 108.43" stroke="#B53B3B" stroke-width="0.9621" stroke-miterlimit="10" stroke-linecap="round"/>
<path d="M43.8355 106.05C43.8355 106.21 43.8255 106.54 43.8055 106.66C43.6955 107.56 42.7855 107.69 42.7855 107.69C42.7855 107.69 41.2755 108.39 40.5255 108.83C39.7755 109.27 38.5755 108.97 38.5755 108.97L35.1455 109.08" stroke="#B53B3B" stroke-width="0.9621" stroke-miterlimit="10" stroke-linecap="round"/>
<path d="M30.6662 112.67C30.2362 115.8 29.3962 120.03 27.7762 125.44C24.4462 136.56 21.2862 138.84 21.2862 138.84C21.2862 138.84 19.0062 141.03 20.7362 134.28C22.4662 127.54 24.3862 116.05 25.2562 109.31C26.1262 102.57 29.1262 100.1 29.1262 100.1C29.1262 100.1 29.4162 99.7699 29.7662 99.8999" stroke="#B53B3B" stroke-width="0.9621" stroke-miterlimit="10" stroke-linecap="round"/>
<path d="M20.0761 63.9497C20.0761 63.9497 17.2061 72.0897 15.3161 75.4897C15.3161 75.4897 13.9261 79.2896 17.2561 84.9696C20.2561 90.0796 20.3261 93.1396 29.6061 99.8696" stroke="#B53B3B" stroke-width="0.9621" stroke-miterlimit="10"/>
<path d="M32.4762 35.9103C32.4762 35.9103 22.8462 31.4203 25.8562 27.9303C28.8662 24.4403 39.3062 26.3903 39.3062 26.3903C39.3062 26.3903 49.0862 26.3803 49.7962 30.1903C50.7862 35.4703 46.7062 39.9903 46.7062 39.9903L32.4762 35.9103Z" fill="#B53B3B"/>
<path d="M29.5357 28.3501C29.5357 28.3501 30.6457 30.2801 31.6557 35.1801C31.6557 35.1801 31.9857 38.9901 31.1457 40.4701C31.0357 40.6701 30.6257 41.0501 30.6257 41.0501C30.6257 41.0501 28.6857 41.6301 29.5357 44.2401C30.3857 46.8501 33.6557 47.8701 33.6557 47.8701C33.6557 47.8701 38.0457 49.4301 41.4557 47.1801C42.3057 46.6201 44.3157 50.9901 44.9757 50.2801C46.9657 48.1601 49.4757 41.6101 49.4757 41.6101C49.4757 41.6101 47.2657 38.9501 46.8057 38.0101C46.3457 37.0701 46.7157 37.8401 45.9957 36.2101" fill="#B53B3B"/>
<path d="M29.5357 28.3501C29.5357 28.3501 30.6457 30.2801 31.6557 35.1801C31.6557 35.1801 31.9857 38.9901 31.1457 40.4701C31.0357 40.6701 30.6257 41.0501 30.6257 41.0501C30.6257 41.0501 28.6857 41.6301 29.5357 44.2401C30.3857 46.8501 33.6557 47.8701 33.6557 47.8701C33.6557 47.8701 38.0457 49.4301 41.4557 47.1801C42.3057 46.6201 44.5857 51.3001 45.2457 50.5901C47.2357 48.4701 49.4757 41.6001 49.4757 41.6001C49.4757 41.6001 47.2657 38.9401 46.8057 38.0001C46.3457 37.0601 46.7157 37.8301 45.9957 36.2001" stroke="#B53B3B" stroke-width="0.9621" stroke-linejoin="round"/>
<path d="M48.3666 17.0402C48.3666 17.0402 48.1565 12.3302 45.5766 10.6202C42.9966 8.91014 38.6965 8.58014 35.6465 8.98014C33.6865 9.24014 31.5766 10.6702 30.2966 12.0602C29.1066 13.3602 31.0766 16.1802 31.0766 16.1802C29.1466 18.2202 30.2966 19.9702 30.2966 19.9702C30.2966 19.9702 31.5966 22.2902 29.4766 24.0102C29.4766 24.0102 30.5366 27.2202 30.7366 28.3302C31.0666 30.1302 31.8166 34.4902 33.4466 35.1302C35.7366 36.0202 38.9066 36.1302 40.7966 36.2402C42.1966 36.3202 44.9566 36.6502 46.4066 36.0502C47.8566 35.4602 48.8166 31.5202 48.8166 31.5202C48.8166 31.5202 49.4466 27.2102 49.5966 25.9502C49.7466 24.6902 48.7766 22.2002 48.4766 21.0502C48.2766 20.3002 48.5466 19.2302 48.6066 18.4802C48.6366 18.1202 48.3666 17.0402 48.3666 17.0402Z" fill="#B53B3B"/>
<path d="M44.5252 18.3302C44.5252 18.3302 45.5752 17.4702 46.6052 17.4102C47.6352 17.3602 48.8052 17.8702 48.8052 17.8702C48.8052 17.8702 49.1552 18.1102 49.0652 18.5502C48.9752 19.0002 48.2652 18.7202 48.2652 18.7202C48.2652 18.7202 46.6652 18.3902 45.5152 18.9402C44.3652 19.5002 44.5252 18.3302 44.5252 18.3302Z" fill="#B53B3B"/>
<path d="M48.4258 20.0801L51.1358 18.8501L51.2858 19.1201L48.4258 20.3401V20.0801Z" fill="#B53B3B" stroke="#E1B554" stroke-width="0.481" stroke-miterlimit="10"/>
<path d="M29.5352 24.01C29.5352 24.01 30.5952 27.22 30.7952 28.33C31.1252 30.13 31.8752 34.49 33.5052 35.13C35.7952 36.02 38.9652 36.13 40.8552 36.24C42.2552 36.32 45.0152 36.65 46.4652 36.05C47.9152 35.46 48.8752 31.52 48.8752 31.52C48.8752 31.52 49.5052 27.21 49.6552 25.95L49.2552 26.88C48.7852 27.93 48.2852 28.06 48.2852 28.06C48.2852 28.06 48.1052 27.43 46.8752 26.86C45.6452 26.28 45.9852 25.73 45.9852 25.73L44.4452 25.62L43.3552 25.82C43.2052 26.93 42.5352 27.12 42.5352 27.12C40.1752 27.67 39.4952 29.87 39.4952 29.87C39.4952 29.87 38.2152 30.52 35.0152 28.67C31.8152 26.82 30.8252 22.75 30.8252 22.75L29.5352 24.01Z" fill="#B53B3B"/>
<path d="M41.2959 30.04C41.2959 30.04 43.8859 28.58 44.3159 28.49C44.7459 28.4 45.1559 28.59 45.1559 28.59C45.1559 28.59 45.3959 28.62 45.6959 28.39C45.9959 28.17 46.7459 28.73 46.8759 28.86C47.0259 29.01 47.1159 29.33 47.3059 29.56C47.3059 29.56 46.4459 30.44 45.7759 30.6C45.1059 30.76 42.8959 30.79 42.0059 30.48C41.7959 30.43 41.2959 30.04 41.2959 30.04Z" fill="#B53B3B"/>
<path opacity="0.3" d="M46.9661 29.1899C46.8361 29.0599 45.9561 28.4399 45.6561 28.6699C45.3561 28.8899 45.1161 28.8699 45.1161 28.8699C45.1161 28.8699 44.7061 28.6699 44.2761 28.7699C44.1161 28.7999 43.5861 29.0299 42.9561 29.2599C42.9561 29.2599 43.8061 28.6499 44.4461 28.5499C45.0861 28.4599 45.1561 28.6799 45.1561 28.6799L45.8561 28.4399C45.8561 28.4399 46.5961 28.6199 46.7761 28.9099C46.9661 29.1899 46.9661 29.1899 46.9661 29.1899Z" fill="#B53B3B"/>
<path opacity="0.3" d="M41.4561 30.1602C41.4561 30.1602 41.7561 30.1902 41.9661 30.2302C42.6161 30.3602 45.6061 30.4602 46.2661 30.3002C46.2661 30.3002 46.4261 30.7702 44.2661 30.6502C42.0961 30.5302 42.3261 30.5302 42.3261 30.5302L41.4561 30.1602Z" fill="#B53B3B"/>
<path d="M41.2959 30.04C41.2959 30.04 43.8859 28.58 44.3159 28.49C44.7459 28.4 45.1559 28.59 45.1559 28.59C45.1559 28.59 45.3959 28.62 45.6959 28.39C45.9959 28.17 46.7459 28.73 46.8759 28.86C47.0259 29.01 47.1159 29.33 47.3059 29.56C47.3059 29.56 46.4459 30.44 45.7759 30.6C45.1059 30.76 42.8959 30.79 42.0059 30.48C41.7959 30.43 41.2959 30.04 41.2959 30.04Z" stroke="#B53B3B" stroke-width="0.2405" stroke-miterlimit="10" stroke-linecap="round" stroke-linejoin="round"/>
<path d="M41.4561 30.0803C41.4561 30.0803 43.0061 29.6603 44.2761 29.6603C45.5561 29.6603 45.8461 29.4603 45.8461 29.4603C45.8461 29.4603 46.1961 29.2603 46.5561 29.4303C46.9061 29.6003 47.0761 29.5103 47.0761 29.5103" stroke="#B53B3B" stroke-width="0.2405" stroke-miterlimit="10" stroke-linecap="round"/>
<path d="M48.0853 20.3902C48.0853 20.3902 47.9853 18.7902 46.1453 19.9802L45.4053 20.4402L46.2653 20.9302C46.2653 20.9302 47.3153 21.4502 47.7553 21.0402C47.7553 21.0302 47.9853 20.7102 48.0853 20.3902Z" fill="#B53B3B"/>
<path d="M47.1559 21.0302C47.4707 21.0302 47.7259 20.6854 47.7259 20.2602C47.7259 19.8349 47.4707 19.4902 47.1559 19.4902C46.8411 19.4902 46.5859 19.8349 46.5859 20.2602C46.5859 20.6854 46.8411 21.0302 47.1559 21.0302Z" fill="#B53B3B"/>
<path d="M47.1552 20.6701C47.3154 20.6701 47.4452 20.491 47.4452 20.2701C47.4452 20.0491 47.3154 19.8701 47.1552 19.8701C46.995 19.8701 46.8652 20.0491 46.8652 20.2701C46.8652 20.491 46.995 20.6701 47.1552 20.6701Z" fill="#B53B3B"/>
<path d="M47.9953 20.3902C47.9953 20.3902 47.9853 18.7902 46.1453 19.9802L45.4053 20.4402L46.3153 20.9102C46.3153 20.9102 47.3253 21.4202 47.7253 20.9702C47.8453 20.8202 47.8853 20.7102 47.9953 20.3902Z" stroke="#B53B3B" stroke-width="0.2165" stroke-miterlimit="10"/>
<path d="M47.3461 20.1301C47.4013 20.1301 47.4461 20.0675 47.4461 19.9901C47.4461 19.9128 47.4013 19.8501 47.3461 19.8501C47.2909 19.8501 47.2461 19.9128 47.2461 19.9901C47.2461 20.0675 47.2909 20.1301 47.3461 20.1301Z" fill="#B53B3B"/>
<path d="M26.9463 27.04C26.9463 27.04 27.1163 28.6 27.8863 29.92L28.3063 29.32C28.3063 29.32 29.0363 32.02 30.9963 32.37L30.3663 27.52L26.9463 27.04Z" fill="#B53B3B" stroke="#240046" stroke-width="0.481" stroke-linejoin="round"/>
<path d="M25.9553 22.2501C25.9553 22.2501 24.4553 18.9601 25.3353 15.5701C26.2053 12.1801 27.4953 10.5101 27.4953 10.5101L28.6153 9.8501C28.6153 9.8501 27.7453 9.6101 27.3553 9.8501C26.9753 10.0901 28.5453 6.7801 31.8953 7.3001C31.8953 7.3001 30.9053 6.4301 29.5353 6.7801C29.5353 6.7801 30.7753 4.8901 32.9753 6.2201C32.9753 6.2201 32.1753 5.3101 31.4753 5.1001C31.4753 5.1001 32.6253 4.9301 33.6053 5.8701C33.6053 5.8701 33.5353 4.5401 33.2953 4.5401C33.2953 4.5401 35.0053 4.2301 35.3153 5.4501C35.3153 5.4501 35.3453 4.4701 34.6853 4.0901C34.6853 4.0901 35.3153 3.1101 36.7053 5.5601L36.0053 3.9001C36.0053 3.9001 37.0553 3.5701 37.7553 5.0701C37.7553 5.0701 37.9253 4.4801 37.5153 3.8701C37.5153 3.8701 38.5553 3.4001 39.6053 5.1801C39.6053 5.1801 40.4853 5.8101 41.5353 5.4601C42.5853 5.1101 44.6453 5.1501 46.1753 6.2301C46.1753 6.2301 45.0853 5.9501 44.6053 6.4401C44.6053 6.4401 46.2953 6.9301 47.0053 7.5601C47.7153 8.1901 48.2553 9.3801 48.5453 9.93006C48.8353 10.4901 47.9553 10.2401 47.9553 10.2401C47.9553 10.2401 48.6653 11.3601 46.9553 12.0001L46.8053 11.7701C46.4553 11.2201 46.1753 10.9701 45.6353 10.6101C43.0553 8.9101 38.7553 8.5801 35.6953 8.9801C33.7353 9.2401 31.6253 10.6701 30.3453 12.0601C29.1553 13.3601 31.1253 16.1801 31.1253 16.1801C29.1953 18.2201 30.3453 19.9701 30.3453 19.9701C30.3453 19.9701 31.6453 22.2901 29.5253 24.0101L25.9553 22.2501Z" fill="#B53B3B"/>
<path d="M40.3556 20.6699C40.1056 20.8299 39.6056 21.1099 38.8756 21.1899C38.1556 21.2699 36.2656 20.6699 36.2656 20.6699C36.2656 20.6699 36.9456 19.6899 38.2556 19.3399C39.5656 18.9899 40.3956 20.2699 40.3956 20.2699L40.5556 20.5099C40.5656 20.5099 40.4056 20.6399 40.3556 20.6699Z" fill="#B53B3B"/>
<path d="M38.8859 21.01C39.3719 21.01 39.7659 20.6161 39.7659 20.13C39.7659 19.644 39.3719 19.25 38.8859 19.25C38.3999 19.25 38.0059 19.644 38.0059 20.13C38.0059 20.6161 38.3999 21.01 38.8859 21.01Z" fill="#B53B3B"/>
<path d="M38.8861 20.5602C39.1236 20.5602 39.3161 20.3677 39.3161 20.1302C39.3161 19.8928 39.1236 19.7002 38.8861 19.7002C38.6486 19.7002 38.4561 19.8928 38.4561 20.1302C38.4561 20.3677 38.6486 20.5602 38.8861 20.5602Z" fill="#B53B3B"/>
<path d="M39.1859 19.9802C39.2411 19.9802 39.2859 19.9176 39.2859 19.8402C39.2859 19.7629 39.2411 19.7002 39.1859 19.7002C39.1307 19.7002 39.0859 19.7629 39.0859 19.8402C39.0859 19.9176 39.1307 19.9802 39.1859 19.9802Z" fill="#B53B3B"/>
<path d="M40.3556 20.6699C40.1056 20.8299 39.6056 21.1099 38.8756 21.1899C38.1556 21.2699 36.2656 20.6699 36.2656 20.6699C36.2656 20.6699 36.9456 19.6899 38.2556 19.3399C39.5656 18.9899 40.3956 20.2699 40.3956 20.2699L40.5556 20.5099C40.5656 20.5099 40.4056 20.6399 40.3556 20.6699Z" stroke="#B53B3B" stroke-width="0.2165" stroke-miterlimit="10"/>
<path d="M36.0264 20.0501C36.0264 20.0501 36.6964 18.8901 38.1564 18.8201C39.6164 18.7601 40.0264 19.1301 40.0264 19.1301" stroke="#B53B3B" stroke-width="0.2405" stroke-miterlimit="10" stroke-linecap="round" stroke-linejoin="round"/>
<path d="M35.7852 19.6999C35.7852 19.6999 36.3652 19.2599 36.9952 19.1499" stroke="#B53B3B" stroke-width="0.2405" stroke-miterlimit="10" stroke-linecap="round" stroke-linejoin="round"/>
<path d="M47.0359 19.1899C47.0359 19.1899 46.1259 19.2299 45.5459 19.8299" stroke="#B53B3B" stroke-width="0.2405" stroke-miterlimit="10" stroke-linecap="round" stroke-linejoin="round"/>
<path d="M42.9058 18.0501C41.8958 17.5001 41.1158 16.6601 39.0458 16.7101C36.9758 16.7601 36.9958 16.8401 36.3258 17.0501C35.7358 17.2401 34.9658 17.4301 34.1058 18.1901C33.2458 18.9501 36.4958 18.2201 38.4058 18.1601C39.2658 18.1301 41.0158 18.6401 42.3158 18.8501C43.0658 18.9801 43.1258 18.1701 42.9058 18.0501Z" fill="#B53B3B"/>
<path opacity="0.2" d="M30.3652 12.4703C30.4252 12.0803 31.6652 11.1503 31.6652 11.1503C31.6652 11.1503 32.8752 9.90026 35.7052 9.14026C38.5352 8.38026 39.0952 9.62026 41.8152 9.35026C44.5352 9.07026 46.5052 11.4203 47.1452 12.8203C47.7852 14.2203 48.5952 18.7503 48.3352 19.6103C48.0752 20.4703 49.1552 24.5603 49.1552 24.5603C48.6752 23.4103 47.8752 22.1103 47.5452 21.3503C47.2452 20.6403 47.3552 19.5403 47.3052 18.7903C47.3352 19.1703 47.4252 19.0303 47.0152 17.2903C47.0152 17.2903 45.8952 13.3103 43.1052 11.9903C40.3152 10.6703 36.0052 10.9603 33.0452 11.8003C32.0852 12.0703 31.3552 11.9903 30.5152 12.6903L30.3652 12.4703Z" fill="#B53B3B"/>
<path opacity="0.2" d="M31.1361 6.49992C31.8661 6.38992 32.3561 6.89992 32.7661 6.84992C32.9361 6.82992 33.2761 6.40992 33.2761 6.40992L33.1161 5.81992L31.7861 5.16992L30.4961 6.32992L31.1361 6.49992Z" fill="#B53B3B"/>
<path opacity="0.2" d="M47.2454 10.64C47.2454 10.64 46.7454 8.41992 43.6554 7.40992C43.6554 7.40992 42.9754 7.23992 43.3254 6.79992C43.3254 6.79992 41.7154 7.16992 40.1554 6.96992C39.9154 6.93992 39.7954 6.74992 38.8854 6.53992C38.1754 6.36992 37.2154 6.56992 36.5254 6.42992C36.4954 6.41992 35.0654 6.33992 34.5054 6.14992C33.9454 5.95992 34.0854 5.32992 33.9754 5.23992C33.4054 4.78992 34.3554 4.72992 34.2554 4.65992C34.1154 4.55992 35.5354 5.84992 35.4654 5.66992C35.1254 4.83992 36.8054 4.45992 36.6354 4.18992C36.4554 3.90992 37.7554 5.34992 37.7554 5.34992L38.1354 4.19992L40.0754 5.65992L43.9454 5.59992L44.6054 5.87992L47.1054 8.06992L48.0454 9.86993L47.4754 11.5L47.2454 10.64Z" fill="#B53B3B"/>
<path d="M25.9553 22.2501C25.9553 22.2501 24.4553 18.9601 25.3353 15.5701C26.2053 12.1801 27.4953 10.5101 27.4953 10.5101L28.6153 9.8501C28.6153 9.8501 27.7453 9.6101 27.3553 9.8501C26.9753 10.0901 28.5453 6.7801 31.8953 7.3001C31.8953 7.3001 30.9053 6.4301 29.5353 6.7801C29.5353 6.7801 30.7753 4.8901 32.9753 6.2201C32.9753 6.2201 32.1753 5.3101 31.4753 5.1001C31.4753 5.1001 32.6253 4.9301 33.6053 5.8701C33.6053 5.8701 33.5353 4.5401 33.2953 4.5401C33.2953 4.5401 35.0053 4.2301 35.3153 5.4501C35.3153 5.4501 35.3453 4.4701 34.6853 4.0901C34.6853 4.0901 35.3153 3.1101 36.7053 5.5601L36.0053 3.9001C36.0053 3.9001 37.0553 3.5701 37.7553 5.0701C37.7553 5.0701 37.9253 4.4801 37.5153 3.8701C37.5153 3.8701 38.5553 3.4001 39.6053 5.1801C39.6053 5.1801 40.4853 5.8101 41.5353 5.4601C42.5853 5.1101 44.6453 5.1501 46.1753 6.2301C46.1753 6.2301 45.0853 5.9501 44.6053 6.4401C44.6053 6.4401 46.2953 6.9301 47.0053 7.5601C47.7153 8.1901 48.2553 9.3801 48.5453 9.93006C48.8353 10.4901 47.9553 10.2401 47.9553 10.2401C47.9553 10.2401 48.6653 11.3601 46.9553 12.0001L46.8053 11.7701C46.4553 11.2201 46.1753 10.9701 45.6353 10.6101C43.0553 8.9101 38.7553 8.5801 35.6953 8.9801C33.7353 9.2401 31.6253 10.6701 30.3453 12.0601C29.1553 13.3601 31.1253 16.1801 31.1253 16.1801C29.1953 18.2201 30.3453 19.9701 30.3453 19.9701C30.3453 19.9701 31.6453 22.2901 29.5253 24.0101L25.9553 22.2501Z" stroke="#B53B3B" stroke-width="0.9621" stroke-linejoin="round"/>
<path d="M48.4264 17.0402C48.4264 17.0402 48.2164 12.3302 45.6364 10.6202C43.0564 8.91014 38.7564 8.58014 35.6964 8.98014C33.7364 9.24014 31.6264 10.6702 30.3464 12.0602C29.1564 13.3602 31.1264 16.1802 31.1264 16.1802C29.1964 18.2202 30.3464 19.9702 30.3464 19.9702C30.3464 19.9702 31.6464 22.2902 29.5264 24.0102C29.5264 24.0102 30.5864 27.2202 30.7864 28.3302C31.1164 30.1302 31.8664 34.4902 33.4964 35.1302C35.7864 36.0202 38.9564 36.1302 40.8464 36.2402C42.2464 36.3202 45.0064 36.6502 46.4564 36.0502C47.9064 35.4602 48.8664 31.5202 48.8664 31.5202C48.8664 31.5202 49.4964 27.2102 49.6464 25.9502C49.7964 24.6902 48.8264 22.2002 48.5264 21.0502C48.3264 20.3002 48.5964 19.2302 48.6564 18.4802C48.6964 18.1202 48.4264 17.0402 48.4264 17.0402Z" stroke="#B53B3B" stroke-width="0.9621" stroke-linejoin="round"/>
<path opacity="0.4" d="M30.2459 21.8901C30.2459 21.8901 31.5159 27.0601 31.7159 28.1701C32.0459 29.9701 33.0659 33.4901 34.7059 34.1201C36.9959 35.0101 40.0959 35.5001 41.9859 35.7301C42.8259 35.8301 45.0359 36.2501 46.2759 36.2201C46.2759 36.2201 39.5959 37.1901 33.5859 35.4201C27.5759 33.6601 33.5859 35.4201 33.5859 35.4201C33.5859 35.4201 32.7859 35.7101 32.0959 33.4501C31.4059 31.1901 29.5459 23.3601 29.5459 23.3601C29.5459 23.3601 29.9159 22.9301 29.9859 22.7701C30.1859 22.3901 30.2459 21.8901 30.2459 21.8901Z" fill="#B53B3B"/>
<path opacity="0.2" d="M36.1759 17.9602C36.3559 17.7502 36.5959 17.4902 37.0759 17.3202C37.5659 17.1502 38.1259 16.9602 39.4359 17.0702C40.7559 17.1802 41.4959 17.3902 42.3059 18.2102C43.1159 19.0202 42.8459 20.3902 42.8459 20.3902C42.8459 20.3902 42.6159 21.6002 42.2159 22.2702C41.8159 22.9402 41.6059 23.2402 41.0759 23.5502C40.5459 23.8602 39.9059 23.9502 39.9059 23.9502C39.9059 23.9502 39.1759 24.1602 38.0159 23.8602C36.6259 23.5002 36.1259 22.3302 36.1259 22.3302C36.1259 22.3302 35.5459 21.2802 35.4959 20.3602C35.4459 19.4402 35.4559 19.0102 35.6959 18.6002C35.9359 18.1902 35.9859 18.1602 36.1159 18.0402C36.1259 18.0102 36.1559 17.9702 36.1759 17.9602Z" fill="#B53B3B"/>
<path d="M36.1459 18.0202C36.1459 18.0202 36.5959 17.4902 37.0759 17.3202C37.5659 17.1502 38.1259 16.9602 39.4359 17.0702C40.7559 17.1802 41.4959 17.3902 42.3059 18.2102C43.1159 19.0202 42.8459 20.3902 42.8459 20.3902C42.8459 20.3902 42.6159 21.6002 42.2159 22.2702C41.8159 22.9402 41.6059 23.2402 41.0759 23.5502C40.5459 23.8602 39.9059 23.9502 39.9059 23.9502C39.9059 23.9502 39.1759 24.1602 38.0159 23.8602C36.6259 23.5002 36.1259 22.3302 36.1259 22.3302C36.1259 22.3302 35.5459 21.2802 35.4959 20.3602C35.4459 19.4402 35.4559 19.0102 35.6959 18.6002C35.9359 18.1902 36.1359 18.0502 36.1359 18.0502L36.1459 18.0202Z" stroke="#B53B3B" stroke-width="0.481" stroke-miterlimit="10"/>
<path d="M42.7559 18.9299L43.4959 18.5199C43.4959 18.5199 44.8159 18.3299 45.3359 18.7199C45.3359 18.7199 45.3959 19.2799 45.6359 19.4399" stroke="#B53B3B" stroke-width="0.2405" stroke-miterlimit="10"/>
<path d="M51.1357 18.6699L51.9457 18.7499L51.9957 19.1699H51.4557L51.1357 18.6699Z" fill="#B53B3B" stroke="#E1B554" stroke-width="0.481" stroke-miterlimit="10"/>
<path opacity="0.2" d="M45.636 20.0199C45.636 20.0199 45.536 18.7799 46.216 18.2399C46.896 17.6999 47.466 17.5699 47.466 17.5699C47.466 17.5699 48.386 17.3599 49.146 17.5699C49.916 17.7799 50.426 18.0099 50.806 18.4099C51.016 18.6299 51.076 18.7499 51.196 18.9699C51.356 19.2699 51.436 19.6899 51.446 20.2999C51.456 20.9099 51.376 21.3599 51.376 21.3599C51.376 21.3599 51.246 22.1499 50.846 22.8499C50.446 23.5499 49.846 23.7699 49.846 23.7699C49.846 23.7699 49.226 24.0399 48.536 24.0199C47.846 23.9999 47.156 23.5199 46.836 23.1699C46.546 22.8499 46.196 22.2399 45.986 21.6499C45.786 21.0699 45.636 20.0199 45.636 20.0199Z" fill="#B53B3B"/>
<path opacity="0.2" d="M47.0352 18.37C47.0652 18.24 47.4652 18.07 47.4652 18.07C47.4652 18.07 47.6452 17.99 47.9352 17.93C48.2252 17.87 48.6052 17.93 48.6052 17.93C48.6052 17.93 49.0052 17.99 49.4252 18.12C49.8552 18.25 50.2452 18.47 50.4152 18.6C50.5752 18.72 50.7552 18.9 50.8452 19.06C50.9352 19.22 51.0552 19.51 50.9752 19.45C50.5352 19.14 50.1852 18.96 49.9052 18.83C49.6552 18.72 49.3452 18.53 48.8552 18.43C48.4152 18.32 47.0352 18.37 47.0352 18.37Z" fill="#B53B3B"/>
<path d="M35.2456 18.53L35.8856 18.52C35.9656 18.27 36.2956 17.96 36.2956 17.96H36.0356C35.3656 17.97 35.0356 18.03 34.7156 18C34.4056 17.97 34.1656 18.16 34.1656 18.16L28.0156 21.5L28.1256 21.68L33.8356 18.84C33.8356 18.84 33.9756 18.89 34.1656 18.86C34.3556 18.83 34.5256 18.75 34.5256 18.75C34.5256 18.75 34.6356 18.63 34.8156 18.6C34.9956 18.57 35.2456 18.53 35.2456 18.53Z" fill="#B53B3B" stroke="#E1B554" stroke-width="0.481" stroke-miterlimit="10"/>
<path opacity="0.4" d="M30.3555 21.9401C30.3555 21.9401 28.2155 20.9101 27.5955 20.2701C26.4255 19.0701 25.6555 17.0801 26.5355 13.6901C26.6355 13.3001 26.7355 12.9401 26.8455 12.6001C26.8455 12.6001 24.2155 15.2601 25.8255 21.4001L28.4055 21.6701L29.7355 24.0101L30.3555 21.9401Z" fill="#B53B3B"/>
<path d="M45.636 20.0199C45.636 20.0199 45.536 18.7799 46.216 18.2399C46.896 17.6999 47.466 17.5699 47.466 17.5699C47.466 17.5699 48.386 17.3599 49.146 17.5699C49.916 17.7799 50.426 18.0099 50.806 18.4099C51.016 18.6299 51.076 18.7499 51.196 18.9699C51.356 19.2699 51.436 19.6899 51.446 20.2999C51.456 20.9099 51.376 21.3599 51.376 21.3599C51.376 21.3599 51.246 22.1499 50.846 22.8499C50.446 23.5499 49.846 23.7699 49.846 23.7699C49.846 23.7699 49.226 24.0399 48.536 24.0199C47.846 23.9999 47.156 23.5199 46.836 23.1699C46.546 22.8499 46.196 22.2399 45.986 21.6499C45.786 21.0699 45.636 20.0199 45.636 20.0199Z" stroke="#B53B3B" stroke-width="0.481" stroke-miterlimit="10"/>
<path d="M28.4054 21.9002C28.4054 21.9002 28.0354 21.8202 27.1654 21.6702C26.2954 21.5202 25.8054 22.4802 25.8054 22.4802C25.8054 22.4802 25.0854 23.8902 25.8054 25.0302C26.5254 26.1602 26.6654 27.2602 28.1954 28.0502C29.7354 28.8402 30.6654 27.7402 30.6654 27.7402C30.6654 27.7402 29.0154 22.5602 28.4054 21.9002Z" fill="#B53B3B"/>
<path opacity="0.3" d="M28.4753 21.9202C28.4753 21.9202 28.1053 21.8402 27.2353 21.6902C26.3653 21.5402 25.8753 22.5002 25.8753 22.5002C25.8753 22.5002 25.7253 22.4302 26.4453 23.5702C27.1653 24.7002 27.3053 25.8002 28.8353 26.5902C30.3653 27.3802 30.1053 26.0602 30.1053 26.0602C30.1053 26.0602 29.0853 22.5702 28.4753 21.9202Z" fill="#B53B3B"/>
<path d="M28.4054 21.9002C28.4054 21.9002 28.0354 21.8202 27.1654 21.6702C26.2954 21.5202 25.8054 22.4802 25.8054 22.4802C25.8054 22.4802 25.0854 23.8902 25.8054 25.0302C26.5254 26.1602 26.6654 27.2602 28.1954 28.0502C29.7354 28.8402 30.2854 28.0502 30.2854 28.0502C30.2854 28.0502 29.0154 22.5602 28.4054 21.9002Z" stroke="#B53B3B" stroke-width="0.9621" stroke-linejoin="round"/>
<path d="M44.4763 19.6602C44.4763 19.6602 45.0263 20.0602 45.2863 21.1102C45.5463 22.1602 46.8063 22.9402 46.9863 23.6702C47.1663 24.4002 46.8563 24.7402 46.6963 25.0002C46.5363 25.2602 45.5763 25.7102 45.5763 25.7102C45.5763 25.7102 44.6063 25.1102 43.2463 25.7102C41.8863 26.3102 42.1463 24.4802 42.2763 24.3502" fill="#B53B3B"/>
<path opacity="0.2" d="M44.2461 19.71C44.2461 19.71 44.7061 20.79 44.9661 21.83C45.2261 22.87 46.4861 23.66 46.6661 24.39C46.6961 24.51 46.7161 24.62 46.7161 24.71C46.7461 25.23 46.9961 23.44 46.8661 23.66L45.4661 21.78L44.8661 20.33L44.2461 19.71Z" fill="#B53B3B"/>
<path d="M42.4356 24.5102C42.3056 24.6402 42.4056 25.6702 43.7656 25.0602C45.1256 24.4602 46.0956 25.0602 46.0956 25.0602C46.0956 25.0602 46.4356 24.9002 46.7456 24.7202C46.7456 24.7202 46.7556 25.5902 45.5656 25.6802C44.3756 25.7702 44.4556 25.4702 44.4556 25.4702L42.5656 25.9702C42.5656 25.9702 41.9956 25.5802 42.2256 24.9702C42.4556 24.3602 42.2756 24.4102 42.2756 24.4102L42.4356 24.5102Z" fill="#B53B3B"/>
<path d="M44.4763 19.6602C44.4763 19.6602 45.0263 20.0602 45.2863 21.1102C45.5463 22.1602 46.8063 22.9402 46.9863 23.6702C47.1663 24.4002 46.8563 24.7402 46.6963 25.0002C46.5363 25.2602 45.5763 25.7102 45.5763 25.7102C45.5763 25.7102 44.6063 25.1102 43.2463 25.7102C41.8863 26.3102 42.1463 24.4802 42.2763 24.3502" stroke="#B53B3B" stroke-width="0.481" stroke-linecap="round" stroke-linejoin="round"/>
<path opacity="0.3" d="M31.5859 34.86L31.7359 33.52L33.7459 35.45C33.7459 35.45 40.5559 36.66 45.3959 36.6H45.9959L47.3359 39.37L47.9859 39.76C47.5659 40.78 47.1559 41.55 46.4559 41.83C45.0059 42.42 42.2559 42.1 40.8459 42.02C38.9559 41.91 35.7859 41.79 33.4959 40.91C31.8759 40.27 31.9259 36.66 31.5859 34.86Z" fill="#B53B3B"/>
<path opacity="0.2" d="M38.0352 18.18C38.0652 18.05 38.4652 17.88 38.4652 17.88C38.4652 17.88 38.6452 17.8 38.9352 17.74C39.2252 17.68 39.6052 17.74 39.6052 17.74C39.6052 17.74 40.0052 17.8 40.4252 17.93C40.8552 18.06 41.2452 18.28 41.4152 18.41C41.5752 18.53 41.7552 18.71 41.8452 18.87C41.9352 19.03 42.0552 19.32 41.9752 19.26C41.5352 18.95 41.1852 18.77 40.9052 18.64C40.6552 18.53 40.3452 18.34 39.8552 18.24C39.4152 18.14 38.0352 18.18 38.0352 18.18Z" fill="#B53B3B"/>
<path d="M5.50568 62.12C5.50568 62.12 -0.184322 61.2 2.91568 65.01C2.91568 65.01 6.29568 66.06 5.50568 62.12Z" fill="#B53B3B"/>
<path opacity="0.3" d="M5.50568 62.12C5.50568 62.12 -0.184322 61.2 2.91568 65.01C2.91568 65.01 6.29568 66.06 5.50568 62.12Z" fill="#B53B3B"/>
<path d="M2.13574 62.9198C2.40574 60.3298 17.5557 63.3498 25.1857 65.0298C28.1357 65.6798 31.1657 65.9398 34.1857 65.7898L48.7957 65.0998L48.3357 59.5398L47.4257 58.4498C47.4257 58.4498 30.5557 39.4898 25.4857 30.0098L27.4857 34.0898L27.4157 35.0898L22.3157 39.9998L10.9157 46.7198L8.57574 49.0698L2.13574 62.9198Z" fill="#B53B3B"/>
<path opacity="0.3" d="M8.64512 49.77L5.62512 60.64C7.76512 60.7 18.0451 62.02 25.1851 65.03L6.31512 61.93L2.49512 62.14L8.64512 49.77Z" fill="#B53B3B"/>
<path d="M47.8852 38.5098C47.8852 38.5098 52.0752 44.7698 56.6352 47.5998C56.6352 47.5998 59.0052 48.0598 60.3752 50.2398C61.7452 52.4298 63.4752 56.0698 65.7552 61.5398C65.7552 61.5398 67.7552 63.8198 49.0652 64.3698L48.3452 59.5398L46.3652 57.2298C46.3652 57.2298 46.5252 58.6198 48.8052 53.5598C51.0752 48.5198 47.8852 38.5098 47.8852 38.5098Z" fill="#B53B3B"/>
<path d="M28.7158 34.52C28.7158 34.52 38.1158 37.63 44.5158 50.49C44.5158 50.49 44.7158 41.28 47.4858 39.13C50.2558 36.98 49.6058 47.93 49.6058 47.93C49.6058 47.93 49.4958 54.67 47.3558 56.13C45.2158 57.58 40.0758 49.87 40.0758 49.87L28.7158 34.52Z" fill="#B53B3B"/>
<path opacity="0.3" d="M44.5963 51.4499C44.5963 51.4499 42.6463 41.4399 28.4763 33.8999L26.1963 36.1899C26.1963 36.1899 37.6163 40.1099 45.1563 52.5499" fill="#B53B3B"/>
<path opacity="0.2" d="M46.0059 42.3299C46.0059 42.3299 46.3759 42.8399 47.0359 43.6199C47.2859 43.9099 47.5659 44.2399 47.8859 44.5999C49.3859 46.2799 51.6659 48.5399 54.2159 50.1199C54.2159 50.1199 56.5859 50.5799 57.9559 52.7599C59.2759 54.8799 60.6059 57.8099 62.7759 62.9999L65.5459 61.7599C65.5459 61.7599 61.3859 50.5399 58.7559 48.9099C56.1259 47.2699 53.1259 45.1999 53.1259 45.1999L47.9659 38.8799L46.9359 39.7999L46.0059 42.3299Z" fill="#B53B3B"/>
<path d="M46.1963 57.0401C46.1963 57.0401 51.5963 54.9201 49.0363 40.1001" stroke="#B53B3B" stroke-width="0.9621" stroke-miterlimit="10"/>
<path d="M2.13574 62.9197C2.40574 60.3297 17.5557 63.3497 25.1857 65.0297C28.1357 65.6797 31.1657 65.9397 34.1857 65.7897L48.7957 65.0997L48.3357 59.5397L47.4257 58.4497C47.4257 58.4497 33.3357 42.4297 27.0457 32.4697" stroke="#B53B3B" stroke-width="0.9621" stroke-miterlimit="10"/>
<path d="M47.8857 38.5098C47.8857 38.5098 52.0757 44.7698 56.6357 47.5998C56.6357 47.5998 59.0057 48.0598 60.3757 50.2398C61.7457 52.4298 63.4757 56.0698 65.7557 61.5398C65.7557 61.5398 67.5757 63.8198 48.8957 64.3698" stroke="#B53B3B" stroke-width="0.9621" stroke-miterlimit="10"/>
<path d="M27.7657 33.8901C27.7657 33.8901 26.9257 36.9401 18.1757 42.5901C18.1757 42.5901 10.5157 45.6001 8.9657 49.0601C7.4157 52.5301 2.1357 62.9201 2.1357 62.9201C2.1357 62.9201 0.585695 64.4701 5.1457 65.6501" stroke="#B53B3B" stroke-width="0.9621" stroke-miterlimit="10"/>
<path d="M26.5659 26.9199C26.5659 26.9199 21.7359 29.6499 30.5759 35.1199C39.4159 40.5899 43.3259 47.6099 43.3259 47.6099C43.3259 47.6099 43.9959 48.6699 44.2659 49.6699C44.5359 50.6799 46.8459 57.8399 46.8459 57.8399" stroke="#B53B3B" stroke-width="0.9621" stroke-miterlimit="10"/>
<path d="M47.1861 55.7599C46.4561 53.5299 45.2961 49.9099 45.1561 49.2499C44.9461 48.2799 44.9761 47.6099 44.9761 47.6099C44.9761 44.9599 46.2461 40.4999 48.2561 38.0399C50.2661 35.5799 50.3561 32.4799 49.8061 30.1999C49.6861 29.6899 49.4961 29.2599 49.2661 28.8999" stroke="#B53B3B" stroke-width="0.9621" stroke-miterlimit="10" stroke-linecap="round"/>
</mask>
<g mask="url(#mask0)">
<rect x="-15" y="-11" width="121" height="200" fill="#B53B3B"/>
</g>
</svg>
