<svg width="92" height="172" viewBox="0 0 92 172" fill="none" xmlns="http://www.w3.org/2000/svg">
<g clip-path="url(#clip0)">
<path d="M75.9402 78.1396C75.9402 78.1396 72.7002 80.0496 72.3402 90.9896C71.9802 101.93 72.3402 114.6 72.3402 114.6C72.3402 114.6 72.2902 118.2 75.6702 114.19C79.0502 110.18 80.9602 102.48 80.9602 102.48C80.9602 102.48 82.4202 93.8696 81.7302 79.3296C81.7202 79.3196 79.2202 76.0896 75.9402 78.1396Z" fill="#240046"/>
<path opacity="0.3" d="M75.9402 78.1396C75.9402 78.1396 72.7002 80.0496 72.3402 90.9896C71.9802 101.93 72.3402 114.6 72.3402 114.6C72.3402 114.6 72.2902 118.2 75.6702 114.19C79.0502 110.18 80.9602 102.48 80.9602 102.48C80.9602 102.48 82.4202 93.8696 81.7302 79.3296C81.7202 79.3196 79.2202 76.0896 75.9402 78.1396Z" fill="black"/>
<path d="M74.7702 79.1399L75.5403 78.8299L76.7103 78.3299L76.2903 75.6999L77.7203 72.4799C77.7203 72.4799 76.5503 69.7199 77.6103 69.1099C78.6703 68.4899 79.3103 68.3099 79.7203 68.8999C80.1303 69.4899 80.7002 70.9199 80.7002 70.9199L86.3102 69.2799L87.7002 71.2099L86.7702 72.3299L87.5202 73.5799L86.4202 74.9899L86.9902 76.6599L85.7603 78.2299L85.5202 80.3299C85.5202 80.3299 84.5903 81.1299 82.6103 80.9499C80.6303 80.7699 79.8303 82.4399 79.8303 82.4399L77.0403 84.2899L73.0103 85.1399L74.7702 79.1399Z" fill="#FB8671"/>
<path opacity="0.3" d="M79.5804 79.3496C78.1304 79.4096 77.9104 77.8896 77.9104 76.8396C77.9104 76.1396 78.3104 75.8097 78.2904 75.5397C78.2504 75.0797 78.0104 74.3296 78.0204 74.0196C78.0304 73.8396 78.1104 73.6197 78.3804 73.5097C78.0804 73.5597 77.3304 73.3897 77.3404 73.3197C77.4804 72.3797 79.3404 72.3196 79.6304 72.4896C80.3104 72.8796 79.9504 78.6696 79.5404 81.7796C79.4804 82.2096 79.2504 82.5296 79.2004 82.8396C79.1404 83.2196 75.4104 84.6797 73.7504 84.8597C72.8004 84.9697 73.4904 84.0296 73.5004 83.8096C73.5104 83.6796 78.7704 82.0697 78.8704 82.0097C79.0604 81.8897 79.2204 81.2996 79.2004 81.4196C79.1704 81.6296 79.5804 79.3496 79.5804 79.3496Z" fill="black"/>
<path d="M84.5503 69.2798C84.5503 69.2798 84.8403 69.4698 85.5203 69.5198" stroke="#240046" stroke-width="0.9621" stroke-linecap="round" stroke-linejoin="round"/>
<path d="M77.61 72.1499C77.61 72.1499 76.04 74.5299 76.32 76.0699C76.6 77.6099 76.7 77.8699 76.7 77.8699C76.7 77.8699 77.12 78.8499 75.54 78.5999" stroke="#240046" stroke-width="0.9621" stroke-linecap="round" stroke-linejoin="round"/>
<path d="M82.8202 80.7197C81.9902 81.1797 80.0002 81.1097 80.0002 81.1097L79.7002 82.7897C79.7002 82.7897 77.7302 84.6397 73.4502 85.1297" stroke="#240046" stroke-width="0.9621" stroke-linecap="round" stroke-linejoin="round"/>
<path d="M86.3401 69.1898C85.6501 68.7998 84.8901 68.5098 84.8901 68.5098" stroke="#240046" stroke-width="0.9621" stroke-linecap="round" stroke-linejoin="round"/>
<path d="M61.8502 98.0101C61.8502 98.0101 69.3902 103.67 71.9102 112.43C71.9102 112.43 71.7902 105.39 72.7002 88.8001C72.7002 88.8001 72.3302 80.0801 76.3402 77.5601C76.3402 77.5601 74.6202 76.9901 72.1702 76.7601C68.8302 76.4401 64.3602 76.3001 63.1402 74.9001C62.1602 73.5301 63.1202 63.5601 63.1202 63.5601H61.2202L61.8502 98.0101Z" fill="#5A189A"/>
<path opacity="0.3" d="M61.29 95.9097C61.29 95.9097 68.23 98.1697 72.24 110.05L71.91 112.44C71.91 112.44 67.1 100.4 61.64 98.1197L61.29 95.9097Z" fill="black"/>
<path opacity="0.2" d="M62.8701 74.9199C62.8901 76.2299 62.9701 77.1699 63.1401 77.3099C63.7701 77.8099 64.4101 78.8599 67.9101 78.8099C69.5701 78.7899 72.2601 79.0599 74.5601 79.3399C75.1901 79.4199 76.0401 77.4599 76.3401 77.3099L64.9401 76.2899L63.4401 75.5199L62.8701 74.9199Z" fill="white"/>
<path d="M76.3502 77.5601C76.3502 77.5601 72.7002 80.0501 72.3402 90.9901C71.9802 101.93 72.3402 114.6 72.3402 114.6C72.3402 114.6 72.2902 118.2 75.6702 114.19C76.7402 112.92 77.0302 112.56 77.7902 110.91" stroke="#240046" stroke-width="0.9621" stroke-miterlimit="10"/>
<path d="M63.1404 63.0898C63.1404 63.0898 62.5104 74.3998 63.1404 74.8998C63.7704 75.3998 64.4104 76.4498 67.9104 76.3998C70.0304 76.3698 73.8203 76.8198 76.3403 77.1598" stroke="#240046" stroke-width="0.9621" stroke-miterlimit="10"/>
<path d="M77.0903 170.86L79.1603 171.09L86.3903 24.2901L81.7403 24.0601L77.0903 170.86Z" fill="#E1B554"/>
<path opacity="0.4" d="M77.0903 170.86L79.1603 171.09L82.7603 26.86L83.7303 26.2L84.4303 24.64L82.1903 24.52L82.0703 26.98L77.0903 170.86Z" fill="black"/>
<path d="M85.0704 1.08984L86.6404 14.6698L82.3604 14.4998L85.0704 1.08984Z" fill="#B53B3B"/>
<path opacity="0.2" d="M85.1906 2.17969L86.3905 14.5197L84.0605 14.4297L85.1906 2.17969Z" fill="white"/>
<path d="M83.3604 20.43H85.7403L86.6404 14.67L82.3604 14.5L83.3604 20.43Z" fill="#B53B3B"/>
<path opacity="0.3" d="M83.3604 20.43L83.9004 17.8L84.0404 14.67L82.3604 14.5L83.3604 20.43Z" fill="black"/>
<path d="M85.0703 1.08984L86.6403 14.6698L90.5403 13.6398L85.0703 1.08984Z" fill="#B53B3B"/>
<path opacity="0.3" d="M85.7505 3.33984L86.9205 14.4998L90.8605 13.2498L85.7505 3.33984Z" fill="white"/>
<path d="M86.3901 20.4296L86.6401 14.6696L90.5401 13.6396L88.2001 19.0696L86.3901 20.4296Z" fill="#B53B3B"/>
<path d="M85.0706 1.08984L78.3306 13.3398L82.3606 14.4998L85.0706 1.08984Z" fill="#B53B3B"/>
<path d="M82.7706 20.7898L80.9006 19.2598L78.3306 13.3398L82.3606 14.4998L82.7706 20.7898Z" fill="#B53B3B"/>
<path opacity="0.3" d="M82.7706 20.1998L80.2606 18.6698L78.3306 13.3398L82.3606 14.4998L82.7706 20.1998Z" fill="black"/>
<path d="M85.0706 1.08984L78.3306 13.3398L82.3606 14.4998L85.0706 1.08984Z" stroke="#240046" stroke-width="0.9621" stroke-miterlimit="10" stroke-linejoin="bevel"/>
<path d="M85.7703 21.65L86.6404 14.67L82.3604 14.5L83.2604 21.52L85.7703 21.65Z" stroke="#240046" stroke-width="0.9621" stroke-miterlimit="10" stroke-linejoin="bevel"/>
<path d="M85.0703 1.08984L86.6403 14.6698L90.5403 13.6398" stroke="#240046" stroke-width="0.9621" stroke-miterlimit="10" stroke-linejoin="bevel"/>
<path d="M77.0903 170.86L79.1603 171.09L86.3903 24.2901L81.7403 24.0601L77.0903 170.86Z" stroke="#240046" stroke-width="0.9621" stroke-miterlimit="10"/>
<path d="M85.0704 1.08984L86.6404 14.6698L82.3604 14.4998L85.0704 1.08984Z" stroke="#240046" stroke-width="0.9621" stroke-miterlimit="10" stroke-linejoin="bevel"/>
<path d="M85.0706 1.08984L78.3306 13.3398L80.5106 18.3598L84.6106 23.0598L88.3906 18.5098L90.5406 13.6398L85.0706 1.08984Z" stroke="#240046" stroke-width="0.9621" stroke-miterlimit="10"/>
<path d="M81.7402 24.0598L86.3903 24.2898L88.3903 18.5098L85.7702 21.6498L84.4603 17.2798L83.2603 21.5198L80.5103 18.3598L81.7402 24.0598Z" fill="#5A189A"/>
<path opacity="0.4" d="M82.6003 21.2099L80.5103 18.3599L81.7402 24.0599H84.5003L82.6003 21.2099Z" fill="black"/>
<path d="M81.7402 24.0598L86.3903 24.2898L88.3903 18.5098L85.7702 21.6498L84.4603 17.2798L83.2603 21.5198L80.5103 18.3598L81.7402 24.0598Z" stroke="#240046" stroke-width="0.9621" stroke-miterlimit="10"/>
<path d="M85.5199 69.0498L80.6899 71.3998L79.8599 69.2798L79.6099 71.2098L80.3699 71.7898L80.0999 72.9898L78.8799 73.7298L79.2799 77.8698L80.2099 78.9898L81.0899 80.7198L84.9299 80.8898L85.8799 78.0698L86.8899 75.9698L85.9999 74.7798L87.5199 73.3398L86.3499 72.3998L87.5199 70.7498L86.9499 69.7198L85.5199 69.0498Z" fill="#FB8671"/>
<path opacity="0.2" d="M85.88 69.05L87.4 69.93L86.91 71.42C86.91 71.42 86.16 71.03 85.89 71.03C84.53 71.02 82.18 72.4 80.49 71.73C79.66 71.4 84.7 69.45 85.2 69.21C85.24 69.19 85.26 69.18 85.29 69.17C85.57 69.04 85.88 69.05 85.88 69.05Z" fill="white"/>
<path opacity="0.2" d="M86.1699 72.4199L87.3999 73.2499L87.4599 74.0499C87.4599 74.0499 86.1599 74.4099 86.2799 74.1599C86.7099 73.3399 86.1699 72.4199 86.1699 72.4199Z" fill="white"/>
<path opacity="0.3" d="M79.77 73.6499C79.77 73.6499 80.98 74.6299 82.68 73.9699C83.56 73.6299 86.1 73.1499 86.4 72.9099C86.7 72.6699 84.75 72.9099 84.75 72.9099L79.77 73.6499Z" fill="black"/>
<path opacity="0.3" d="M78.6201 76.13C78.6201 76.13 78.7201 76.84 81.1401 76.66C85.2601 76.35 85.5901 75.64 85.8901 75.39C86.1901 75.14 83.5201 75.44 83.5201 75.44L78.6201 76.13Z" fill="black"/>
<path opacity="0.3" d="M79.77 78.69C79.77 78.69 80.46 79.33 82.27 79.18C86.39 78.83 84.75 78.57 85.05 78.33C85.35 78.09 84.44 78 84.44 78L79.77 78.69Z" fill="black"/>
<path opacity="0.2" d="M86.7398 75.29L86.8998 76.44L86.7598 77.23L85.4898 77.72C85.4898 77.72 86.6798 76.41 85.4198 75.23C84.7298 74.58 85.6598 75.4 86.2398 75.3C86.2798 75.29 86.4498 75.25 86.4898 75.24C86.8298 75.2 86.7398 75.29 86.7398 75.29Z" fill="white"/>
<path opacity="0.2" d="M86.2701 79.3498L85.8801 80.2398L85.4201 80.9198L84.1001 80.5998C84.1001 80.5998 85.6801 79.9898 85.0301 78.1898C84.7101 77.2998 85.2401 78.5698 85.7801 78.8098C85.8201 78.8298 85.9801 78.8898 86.0201 78.9098C86.3101 79.0598 86.2701 79.3498 86.2701 79.3498Z" fill="white"/>
<path d="M84.8998 69.5898C84.7398 69.8398 80.8798 71.1698 80.3898 71.3198C79.8998 71.4698 80.1998 72.5798 80.1998 72.5798C80.1998 72.5798 80.3698 73.6798 82.0298 73.2398C83.6898 72.7998 85.6798 72.4198 85.6798 72.4198C85.6798 72.4198 86.6998 72.3398 87.0298 71.8598C87.3598 71.3698 87.7398 70.8199 87.3398 70.0499C87.1898 69.7499 86.7798 69.4498 86.3298 69.1998C86.0898 69.0698 85.8498 68.9398 85.6298 68.8398" stroke="#240046" stroke-width="0.9621" stroke-linecap="round" stroke-linejoin="round"/>
<path d="M80.56 73.1199C80.56 73.1199 79.12 73.3299 79.11 74.0599C79.09 74.7899 79.16 75.3299 79.59 75.4899C80.02 75.6499 83.83 75.3799 83.83 75.3799C83.83 75.3799 85.34 75.1299 85.88 74.8599C86.75 74.4199 86.86 74.2099 87.15 73.9499C87.38 73.7399 87.39 73.0999 86.86 72.7199C86.12 72.1799 86.12 72.3599 86.12 72.3599" stroke="#240046" stroke-width="0.9621" stroke-linecap="round" stroke-linejoin="round"/>
<path d="M82.5399 75.5302L80.1199 75.6802C80.1199 75.6802 78.8199 75.5502 78.8799 76.6602C78.9399 77.7702 79.2099 78.4102 80.0099 78.3202C80.8099 78.2302 84.55 78.1402 84.55 78.1402C84.55 78.1402 85.7499 78.2302 86.3399 77.5602C86.9399 76.9002 86.7199 76.0502 86.7199 76.0502C86.7199 76.0502 86.7999 75.1402 85.5199 74.9702" stroke="#240046" stroke-width="0.9621" stroke-linecap="round" stroke-linejoin="round"/>
<path d="M85.3098 78.0898C85.3098 78.0898 86.0198 78.5698 85.8598 79.3598C85.6998 80.1498 85.0398 80.7098 85.0398 80.7098H82.0898C82.0898 80.7098 81.1098 80.7498 80.5798 80.1298C80.0498 79.5098 80.0298 78.5898 80.7398 78.2598" stroke="#240046" stroke-width="0.9621" stroke-linecap="round" stroke-linejoin="round"/>
<path opacity="0.4" d="M80.3199 70.0498C80.3199 70.0498 80.4999 69.0598 79.7699 68.5498C79.5299 68.3898 79.7299 68.4798 79.6799 68.4998C79.2399 68.7498 79.1699 70.0298 79.2199 70.3998C79.3599 71.6098 79.9299 71.6398 79.9299 71.6398C79.9299 71.6398 79.0499 73.1198 79.9999 71.8998C79.9999 71.8998 80.5199 70.7498 80.3199 70.0498Z" fill="black"/>
<path d="M80.32 70.05C80.32 70.05 80.37 68.78 79.52 68.52C78.43 68.18 78.07 68.58 77.67 68.82C77.24 69.08 76.63 69.52 76.89 70.7C77.15 71.89 77.93 72.44 77.93 72.44C77.93 72.44 79.06 73.12 80 71.9C80 71.9 80.52 70.75 80.32 70.05Z" stroke="#240046" stroke-width="0.9621" stroke-linecap="round" stroke-linejoin="round"/>
<path d="M44.1099 169.79C44.1099 169.79 51.0699 153.66 51.6799 92.1396C51.6799 92.1396 59.0499 154.39 60.6799 165.34L52.3999 169.79H44.1099V169.79Z" fill="#240046"/>
<path opacity="0.3" d="M44.1099 169.79C44.1099 169.79 51.0699 153.66 51.6799 92.1396C51.6799 92.1396 59.0499 154.39 60.6799 165.34L52.3999 169.79H44.1099V169.79Z" fill="black"/>
<path d="M9.69 113.68C9.69 113.68 10.96 130.91 0.5 147.31C0.5 147.31 2.16 164.54 20.39 167.45C38.62 170.37 43.72 170.73 43.72 170.73C43.72 170.73 54.51 148.65 50.97 64.3796C50.97 64.3796 34.22 66.5696 21.16 64.3796C8.09 62.1996 8.81 95.2696 8.81 95.2696L9.69 113.68Z" fill="#5A189A"/>
<path d="M43.7202 170.74C43.7202 170.74 47.1902 170.38 52.4002 169.01C57.6102 167.64 60.8302 166.12 60.8302 166.12" stroke="#240046" stroke-width="0.9621" stroke-miterlimit="10"/>
<path d="M50.9702 64.3898C50.9702 64.3898 52.6602 97.9798 53.7702 108.36C54.8802 118.74 60.8202 166.12 60.8202 166.12L71.4602 162.6C71.4602 162.6 72.1902 162.26 71.8002 160.24C69.4402 148 60.1902 102.73 60.8402 84.5798C61.6002 63.4298 61.4002 68.8998 61.4002 68.8998C61.4002 68.8998 61.4002 63.8298 60.4902 63.0898C57.8902 60.9998 50.9702 64.3898 50.9702 64.3898Z" fill="#5A189A"/>
<path d="M51.6201 87.6196C51.6201 87.6196 58.0301 151.54 60.8201 166.12L70.6901 162.9C70.6901 162.9 73.2401 162.81 71.6901 158.16C70.1401 153.51 62.8501 119.33 61.3901 97.7296C61.3901 97.7296 68.2301 101.26 72.6901 115.86" stroke="#240046" stroke-width="0.9621" stroke-miterlimit="10"/>
<path d="M60.8398 63.5601C60.9798 67.2101 61.3998 97.7301 61.3998 97.7301" stroke="#240046" stroke-width="0.9621" stroke-miterlimit="10"/>
<path d="M9.69 113.68C9.69 113.68 10.96 130.91 0.5 147.31C0.5 147.31 2.16 164.54 20.39 167.45C38.62 170.37 43.72 170.73 43.72 170.73C43.72 170.73 54.51 148.65 50.97 64.3799" stroke="#240046" stroke-width="0.9621" stroke-miterlimit="10"/>
<path d="M47.6202 70.4902C45.2702 68.6002 41.1602 69.7402 41.1602 69.7402L41.1302 70.9602C44.7202 69.8802 46.7902 71.3302 46.7902 71.3302L49.6602 104.08L10.6802 110.21L11.7302 110.59L49.7302 104.82L50.6902 104.65L47.6202 70.4902Z" fill="#B53B3B"/>
<path opacity="0.4" d="M47.6202 70.4902C45.2702 68.6002 41.1602 69.7402 41.1602 69.7402L41.1302 70.9602C44.7202 69.8802 46.7902 71.3302 46.7902 71.3302L49.6602 104.08L10.6802 110.21L11.7302 110.59L49.7302 104.82L50.6902 104.65L47.6202 70.4902Z" fill="black"/>
<path d="M7.06982 109.58C9.99982 110.44 9.47982 110.26 9.47982 110.26L49.6498 103.83L43.9998 103.45L7.06982 109.58Z" fill="#FFFCE8"/>
<path opacity="0.4" d="M7.06982 109.58C9.99982 110.44 9.47982 110.26 9.47982 110.26L49.5698 103.82L43.9998 103.45L7.06982 109.58Z" fill="black"/>
<path d="M41.1602 71.0698C44.0002 72.8998 46.7902 71.3398 46.7902 71.3398L49.6602 103.83L44.0002 103.45L41.1602 71.0698Z" fill="#FFFCE8"/>
<path opacity="0.4" d="M46.7899 71.5101C46.7199 72.0901 45.4199 71.3301 45.4199 71.3301L48.3199 103.73L49.6499 103.82L46.7899 71.5101Z" fill="black"/>
<path d="M41.1602 71.0701C44.0002 72.9001 46.7902 71.34 46.7902 71.34C46.7902 71.34 44.0902 69.9401 41.1602 71.0701Z" fill="#240046"/>
<path d="M41.1602 71.0698C44.0002 72.8998 46.7902 71.3398 46.7902 71.3398" stroke="#240046" stroke-width="0.481" stroke-miterlimit="10"/>
<path d="M40.5002 69.7801C44.6302 68.7001 47.7802 70.5001 47.7802 70.5001L50.7502 104.29C50.7702 104.54 50.5902 104.77 50.3402 104.81L11.7302 110.59L5.24023 109.63" stroke="#240046" stroke-width="0.481" stroke-miterlimit="10"/>
<path d="M41.1599 71.0701C44.4199 69.9601 46.7899 71.3401 46.7899 71.3401L49.6599 104.02L9.18994 110.22" stroke="#240046" stroke-width="0.481" stroke-miterlimit="10"/>
<path d="M41.0298 69.6602L44.0398 103.9L4.9798 109.75L3.5498 77.7302L41.0298 69.6602Z" fill="#B53B3B"/>
<path d="M41.0798 70.2102L43.9998 103.45C44.0198 103.7 43.8398 103.93 43.5898 103.97L5.50978 109.67C5.22978 109.71 4.96978 109.5 4.95978 109.21L3.56978 78.1302C3.55978 77.9002 3.71978 77.6902 3.94978 77.6402L40.4998 69.7802C40.7798 69.7202 41.0598 69.9202 41.0798 70.2102Z" stroke="#240046" stroke-width="0.481" stroke-miterlimit="10"/>
<path opacity="0.4" d="M8.5298 76.6602L8.7998 109.18L4.9798 109.75L3.5498 77.7302L8.5298 76.6602Z" fill="black"/>
<path d="M38.3602 73.2201L40.8302 101.33C40.8502 101.54 40.7002 101.74 40.4802 101.77L8.27015 106.59C8.03015 106.63 7.81015 106.45 7.80015 106.2L6.64015 79.92C6.63015 79.72 6.77015 79.5501 6.96015 79.5001L37.8702 72.85C38.1102 72.8 38.3402 72.9701 38.3602 73.2201Z" stroke="#E1B554" stroke-width="0.9621" stroke-miterlimit="10"/>
<path d="M5.34995 62.0098C5.34995 62.0098 1.40995 78.1798 0.489946 82.5798C-0.430054 86.9798 4.95995 101.82 4.95995 101.82L19.4599 138.51L24.6299 109.98L26.3599 103.84L28.4999 100.09C28.4999 100.09 21.2499 95.6498 16.0599 84.5698C14.4299 78.8298 13.8999 80.6598 14.2099 76.8898C14.4299 75.5498 18.0899 68.3298 18.0899 68.3298L19.4699 64.0398L5.49995 62.1098L5.34995 62.0098Z" fill="#5A189A"/>
<path opacity="0.3" d="M2.39996 92.9497C4.35996 97.8997 7.06996 102.91 7.06996 102.91L20.59 131.36L19.13 136.96L6.17996 103.83L2.20996 93.0697L2.39996 92.9497Z" fill="black"/>
<path opacity="0.2" d="M26.83 102.36L25.26 101.34C15.98 94.6096 17.34 91.2396 14.34 86.1296C11 80.4496 12.4 76.6496 12.4 76.6496C14.28 73.2496 18.15 67.5996 18.15 67.5996L14.71 75.5796L14.53 79.2696L15.96 84.2196L21.03 92.6596L28.62 99.6796L26.83 102.36Z" fill="white"/>
<path opacity="0.3" d="M5.00979 64.0399C5.00979 64.0399 4.80979 65.1399 9.04979 65.7399C13.2998 66.3399 24.6298 68.5099 27.4598 68.6099C30.2898 68.7099 46.5098 68.0399 46.5098 68.0399L48.1798 67.8499V66.8099C48.1798 66.8099 60.9998 66.1699 62.8698 65.7399V63.3999L48.3798 64.6699L47.9898 65.4999L28.6998 66.0099C28.6998 66.0099 12.4698 62.2899 6.08979 62.2399C6.09979 62.2399 5.15979 62.0399 5.00979 64.0399Z" fill="black"/>
<path d="M5.35012 62.0098L1.26012 78.5898C1.26012 78.5898 -1.12988 83.6898 2.52012 94.4498C6.17012 105.21 19.6501 139.08 19.6501 139.08" stroke="#240046" stroke-width="0.9621" stroke-miterlimit="10"/>
<path d="M30.4097 105.94C30.4097 105.94 31.1697 112.15 27.1497 125.54C23.8197 136.66 20.6597 138.94 20.6597 138.94C20.6597 138.94 18.3797 141.13 20.1097 134.38C21.8397 127.64 23.7597 116.15 24.6297 109.41C25.4997 102.67 28.4997 100.2 28.4997 100.2C28.4997 100.2 30.2297 98.1898 30.4097 105.94Z" fill="#240046"/>
<path opacity="0.3" d="M30.4097 105.94C30.4097 105.94 31.1697 112.15 27.1497 125.54C23.8197 136.66 20.6597 138.94 20.6597 138.94C20.6597 138.94 18.3797 141.13 20.1097 134.38C21.8397 127.64 23.7597 116.15 24.6297 109.41C25.4997 102.67 28.4997 100.2 28.4997 100.2C28.4997 100.2 30.2297 98.1898 30.4097 105.94Z" fill="black"/>
<path d="M28.6399 100.26C28.6399 100.26 29.4399 100.38 30.9699 99.8596L32.3799 99.1396C32.3799 99.1396 33.0999 98.8596 33.8299 98.8596C34.5499 98.8596 36.7699 98.8596 36.7699 98.8596C36.7699 98.8596 38.0599 98.7096 38.4999 99.5696C38.9399 100.43 38.0599 100.91 38.0599 100.91C38.0599 100.91 37.8199 101.43 36.7699 101.43H35.2999C35.2999 101.43 33.6599 101.31 33.1999 102.26C32.7399 103.21 33.7799 103.94 33.7799 103.94L37.1599 106.24C37.1599 106.24 38.1799 106.73 39.3899 106.75C39.3899 106.75 40.8999 106.73 41.2699 106.62C41.2699 106.62 41.5599 106.7 41.6199 106.36L42.9899 106.16C42.9899 106.16 43.7499 107.24 40.8299 108.44C40.8299 108.44 41.1699 109.77 40.6299 109.85C40.0899 109.92 39.0499 110.51 39.0499 110.51L33.5999 111.39C33.5999 111.39 32.7899 112.19 31.8299 112.14C31.8299 112.14 31.2399 112.64 30.3999 112.63C29.5599 112.62 25.1799 110.14 24.7199 109.1C24.2599 108.05 28.6399 100.26 28.6399 100.26Z" fill="#FB8671"/>
<path opacity="0.3" d="M33.8801 100.13C34.3601 100.17 34.5001 100.23 35.9001 100.3C36.5301 100.33 37.8101 100.54 38.4401 100.34C39.1501 100.11 38.2301 99.6297 38.2301 99.6297C38.2301 99.6297 37.3301 99.0297 36.9401 99.0897C36.5401 99.1497 32.2301 99.2897 32.2301 99.2897L31.5601 99.7397C31.5601 99.7397 33.1601 100.07 33.8801 100.13Z" fill="white"/>
<path opacity="0.3" d="M26.2098 110.01C26.5998 110.29 26.6998 110.41 27.8698 111.18C28.3998 111.52 29.4398 112.15 30.0898 112.3C30.8198 112.46 33.8798 111.35 33.8798 111.35C33.8798 111.35 31.0398 111.17 30.2698 110.92C28.8298 110.45 25.2698 108.25 25.2698 108.25L24.9698 109.18C24.9598 109.17 25.6198 109.59 26.2098 110.01Z" fill="black"/>
<path opacity="0.3" d="M33.61 110.589C34.09 110.649 35.03 110.149 36.42 110.279C37.05 110.339 38.51 110.399 39.14 110.229C39.86 110.029 40.89 109.179 40.89 109.179C40.89 109.179 39.58 109.039 38.78 109.179C37.28 109.439 34.34 109.449 34.34 109.449L32.46 110.099C32.46 110.089 32.89 110.499 33.61 110.589Z" fill="black"/>
<path opacity="0.3" d="M34.7201 109.25C35.2001 109.31 36.1401 108.81 37.5301 108.94C38.1601 109 39.6201 109.06 40.2501 108.89C40.9701 108.69 43.0301 106.75 43.0301 106.75C43.0301 106.75 43.4501 105.78 41.9401 106.31C41.0001 106.64 39.7701 108.04 39.2901 108.12C37.7901 108.38 36.1901 108.01 35.1901 108.24C34.9301 108.3 34.2601 108.76 34.2601 108.76C34.2601 108.76 34.0001 109.16 34.7201 109.25Z" fill="black"/>
<path d="M28.6396 100.26C28.6396 100.26 29.4396 100.38 30.9696 99.8596L32.3797 99.1396C32.3797 99.1396 33.0997 98.8596 33.8297 98.8596C34.5497 98.8596 36.7696 98.8596 36.7696 98.8596C36.7696 98.8596 38.0596 98.7096 38.4996 99.5696C38.9396 100.43 38.1596 101.01 38.1596 101.01C38.1596 101.01 37.4896 101.39 36.7696 101.43H35.2996C35.2996 101.43 33.6596 101.31 33.1996 102.26C32.7396 103.21 33.7796 103.94 33.7796 103.94L37.1596 106.24C37.1596 106.24 38.1796 106.73 39.3896 106.75C39.3896 106.75 40.8996 106.73 41.2696 106.62C41.2696 106.62 41.4496 106.65 41.5196 106.35" stroke="#240046" stroke-width="0.9621" stroke-miterlimit="10" stroke-linecap="round"/>
<path d="M39.1397 110.219C39.1397 110.219 39.3297 110.579 38.8697 110.759C38.4097 110.939 33.4897 111.549 33.4897 111.549C33.4897 111.549 33.1997 111.839 32.6097 112.169C32.6097 112.169 32.3097 112.269 31.7897 112.239C31.7897 112.239 31.1597 112.809 30.2797 112.749C30.2797 112.749 27.1897 111.409 26.4597 110.659C25.7397 109.899 24.7197 109.169 24.7197 109.169" stroke="#240046" stroke-width="0.9621" stroke-miterlimit="10" stroke-linecap="round"/>
<path d="M32.46 110.35C32.46 110.35 33.07 111.11 33.89 110.87C34.71 110.63 34.92 110.64 34.92 110.64C34.92 110.64 39.72 110.27 40.51 109.99C41.3 109.71 40.67 108.52 40.67 108.52" stroke="#240046" stroke-width="0.9621" stroke-miterlimit="10" stroke-linecap="round"/>
<path d="M43.2198 106.14C43.2198 106.3 43.2098 106.63 43.1898 106.75C43.0798 107.65 42.1698 107.78 42.1698 107.78C42.1698 107.78 40.6598 108.48 39.9098 108.92C39.1598 109.36 37.9598 109.06 37.9598 109.06L34.5298 109.17" stroke="#240046" stroke-width="0.9621" stroke-miterlimit="10" stroke-linecap="round"/>
<path d="M30.05 112.76C29.62 115.89 28.78 120.12 27.16 125.53C23.83 136.65 20.67 138.93 20.67 138.93C20.67 138.93 18.39 141.12 20.12 134.37C21.85 127.63 23.77 116.14 24.64 109.4C25.51 102.66 28.51 100.19 28.51 100.19C28.51 100.19 28.8 99.8598 29.15 99.9898" stroke="#240046" stroke-width="0.9621" stroke-miterlimit="10" stroke-linecap="round"/>
<path d="M19.4599 64.0396C19.4599 64.0396 16.5899 72.1796 14.6999 75.5796C14.6999 75.5796 13.3099 79.3795 16.6399 85.0595C19.6399 90.1695 19.7099 93.2295 28.9899 99.9595" stroke="#240046" stroke-width="0.9621" stroke-miterlimit="10"/>
<path d="M31.86 36.0001C31.86 36.0001 22.23 31.5101 25.24 28.0201C28.25 24.5301 38.69 26.4801 38.69 26.4801C38.69 26.4801 48.47 26.4701 49.18 30.2801C50.17 35.5601 46.09 40.0801 46.09 40.0801L31.86 36.0001Z" fill="#E1B554"/>
<path d="M28.92 28.4399C28.92 28.4399 30.03 30.3699 31.04 35.2699C31.04 35.2699 31.37 39.0799 30.53 40.5599C30.42 40.7599 30.01 41.1399 30.01 41.1399C30.01 41.1399 28.07 41.7199 28.92 44.3299C29.77 46.9399 33.04 47.9599 33.04 47.9599C33.04 47.9599 37.43 49.5199 40.84 47.2699C41.69 46.7099 43.7 51.0799 44.36 50.3699C46.35 48.2499 48.86 41.6999 48.86 41.6999C48.86 41.6999 46.65 39.0399 46.19 38.0999C45.73 37.1599 46.1 37.9299 45.38 36.2999" fill="#FB8671"/>
<path d="M28.92 28.4399C28.92 28.4399 30.03 30.3699 31.04 35.2699C31.04 35.2699 31.37 39.0799 30.53 40.5599C30.42 40.7599 30.01 41.1399 30.01 41.1399C30.01 41.1399 28.07 41.7199 28.92 44.3299C29.77 46.9399 33.04 47.9599 33.04 47.9599C33.04 47.9599 37.43 49.5199 40.84 47.2699C41.69 46.7099 43.97 51.3899 44.63 50.6799C46.62 48.5599 48.86 41.6899 48.86 41.6899C48.86 41.6899 46.65 39.0299 46.19 38.0899C45.73 37.1499 46.1 37.9199 45.38 36.2899" stroke="#240046" stroke-width="0.9621" stroke-linejoin="round"/>
<path d="M47.7504 17.13C47.7504 17.13 47.5403 12.42 44.9604 10.71C42.3804 8.99999 38.0803 8.66999 35.0303 9.06999C33.0703 9.32999 30.9604 10.76 29.6804 12.15C28.4904 13.45 30.4604 16.27 30.4604 16.27C28.5304 18.31 29.6804 20.06 29.6804 20.06C29.6804 20.06 30.9804 22.38 28.8604 24.1C28.8604 24.1 29.9204 27.31 30.1204 28.42C30.4504 30.22 31.2004 34.58 32.8304 35.22C35.1204 36.11 38.2904 36.22 40.1804 36.33C41.5804 36.41 44.3404 36.74 45.7904 36.14C47.2404 35.55 48.2004 31.61 48.2004 31.61C48.2004 31.61 48.8304 27.3 48.9804 26.04C49.1304 24.78 48.1604 22.29 47.8604 21.14C47.6604 20.39 47.9304 19.32 47.9904 18.57C48.0204 18.21 47.7504 17.13 47.7504 17.13Z" fill="#FB8671"/>
<path d="M43.9099 18.42C43.9099 18.42 44.9599 17.56 45.9899 17.5C47.0199 17.45 48.1899 17.96 48.1899 17.96C48.1899 17.96 48.5399 18.2 48.4499 18.64C48.3599 19.09 47.6499 18.81 47.6499 18.81C47.6499 18.81 46.0499 18.48 44.8999 19.03C43.7499 19.59 43.9099 18.42 43.9099 18.42Z" fill="#240046"/>
<path d="M47.8101 20.1699L50.5201 18.9399L50.6701 19.2099L47.8101 20.4299V20.1699Z" fill="#E1B554" stroke="#E1B554" stroke-width="0.481" stroke-miterlimit="10"/>
<path d="M28.9199 24.0998C28.9199 24.0998 29.9799 27.3098 30.1799 28.4198C30.5099 30.2198 31.2599 34.5798 32.8899 35.2198C35.1799 36.1098 38.3499 36.2198 40.2399 36.3298C41.6399 36.4098 44.3999 36.7398 45.8499 36.1398C47.2999 35.5498 48.2599 31.6098 48.2599 31.6098C48.2599 31.6098 48.8899 27.2998 49.0399 26.0398L48.6399 26.9698C48.1699 28.0198 47.6699 28.1498 47.6699 28.1498C47.6699 28.1498 47.4899 27.5198 46.2599 26.9498C45.0299 26.3698 45.3699 25.8198 45.3699 25.8198L43.8299 25.7098L42.7399 25.9098C42.5899 27.0198 41.9199 27.2098 41.9199 27.2098C39.5599 27.7598 38.8799 29.9598 38.8799 29.9598C38.8799 29.9598 37.5999 30.6098 34.3999 28.7598C31.1999 26.9098 30.2099 22.8398 30.2099 22.8398L28.9199 24.0998Z" fill="#240046"/>
<path d="M40.6802 30.1299C40.6802 30.1299 43.2702 28.6699 43.7002 28.5799C44.1302 28.4899 44.5402 28.6799 44.5402 28.6799C44.5402 28.6799 44.7802 28.7099 45.0802 28.4799C45.3802 28.2599 46.1302 28.8199 46.2602 28.9499C46.4102 29.0999 46.5002 29.4199 46.6902 29.6499C46.6902 29.6499 45.8302 30.5299 45.1602 30.6899C44.4902 30.8499 42.2802 30.8799 41.3902 30.5699C41.1802 30.5199 40.6802 30.1299 40.6802 30.1299Z" fill="#FB7F71"/>
<path opacity="0.3" d="M46.3503 29.2798C46.2203 29.1498 45.3403 28.5298 45.0403 28.7598C44.7403 28.9798 44.5003 28.9598 44.5003 28.9598C44.5003 28.9598 44.0903 28.7598 43.6603 28.8598C43.5003 28.8898 42.9703 29.1198 42.3403 29.3498C42.3403 29.3498 43.1903 28.7398 43.8303 28.6398C44.4703 28.5498 44.5403 28.7698 44.5403 28.7698L45.2403 28.5298C45.2403 28.5298 45.9803 28.7098 46.1603 28.9998C46.3503 29.2798 46.3503 29.2798 46.3503 29.2798Z" fill="white"/>
<path opacity="0.3" d="M40.8403 30.25C40.8403 30.25 41.1403 30.28 41.3503 30.32C42.0003 30.45 44.9903 30.55 45.6503 30.39C45.6503 30.39 45.8103 30.86 43.6503 30.74C41.4803 30.62 41.7103 30.62 41.7103 30.62L40.8403 30.25Z" fill="black"/>
<path d="M40.6802 30.1299C40.6802 30.1299 43.2702 28.6699 43.7002 28.5799C44.1302 28.4899 44.5402 28.6799 44.5402 28.6799C44.5402 28.6799 44.7802 28.7099 45.0802 28.4799C45.3802 28.2599 46.1302 28.8199 46.2602 28.9499C46.4102 29.0999 46.5002 29.4199 46.6902 29.6499C46.6902 29.6499 45.8302 30.5299 45.1602 30.6899C44.4902 30.8499 42.2802 30.8799 41.3902 30.5699C41.1802 30.5199 40.6802 30.1299 40.6802 30.1299Z" stroke="#9E5346" stroke-width="0.2405" stroke-miterlimit="10" stroke-linecap="round" stroke-linejoin="round"/>
<path d="M40.8403 30.1702C40.8403 30.1702 42.3903 29.7502 43.6603 29.7502C44.9403 29.7502 45.2303 29.5502 45.2303 29.5502C45.2303 29.5502 45.5803 29.3502 45.9403 29.5202C46.2903 29.6902 46.4603 29.6002 46.4603 29.6002" stroke="#9E5346" stroke-width="0.2405" stroke-miterlimit="10" stroke-linecap="round"/>
<path d="M47.47 20.48C47.47 20.48 47.37 18.88 45.53 20.07L44.79 20.53L45.65 21.02C45.65 21.02 46.7 21.54 47.14 21.13C47.14 21.12 47.37 20.8 47.47 20.48Z" fill="#FFE9E9"/>
<path d="M46.5402 21.1201C46.855 21.1201 47.1102 20.7753 47.1102 20.3501C47.1102 19.9248 46.855 19.5801 46.5402 19.5801C46.2254 19.5801 45.9702 19.9248 45.9702 20.3501C45.9702 20.7753 46.2254 21.1201 46.5402 21.1201Z" fill="#37444C"/>
<path d="M46.54 20.76C46.7002 20.76 46.83 20.5809 46.83 20.36C46.83 20.139 46.7002 19.96 46.54 19.96C46.3798 19.96 46.25 20.139 46.25 20.36C46.25 20.5809 46.3798 20.76 46.54 20.76Z" fill="black"/>
<path d="M47.38 20.48C47.38 20.48 47.37 18.88 45.53 20.07L44.79 20.53L45.7 21C45.7 21 46.71 21.51 47.11 21.06C47.23 20.91 47.27 20.8 47.38 20.48Z" stroke="#C56858" stroke-width="0.2165" stroke-miterlimit="10"/>
<path d="M46.7299 20.2199C46.7851 20.2199 46.8299 20.1573 46.8299 20.0799C46.8299 20.0026 46.7851 19.9399 46.7299 19.9399C46.6747 19.9399 46.6299 20.0026 46.6299 20.0799C46.6299 20.1573 46.6747 20.2199 46.7299 20.2199Z" fill="#9BB0CF"/>
<path d="M26.3301 27.1299C26.3301 27.1299 26.5001 28.6899 27.2701 30.0099L27.6901 29.4099C27.6901 29.4099 28.4201 32.1099 30.3801 32.4599L29.7501 27.6099L26.3301 27.1299Z" fill="#240046" stroke="#240046" stroke-width="0.481" stroke-linejoin="round"/>
<path d="M25.3401 22.3399C25.3401 22.3399 23.8401 19.0499 24.7201 15.6599C25.5901 12.2699 26.8801 10.5999 26.8801 10.5999L28.0001 9.93994C28.0001 9.93994 27.1301 9.69994 26.7401 9.93994C26.3601 10.1799 27.9301 6.86994 31.2801 7.38994C31.2801 7.38994 30.2901 6.51994 28.9201 6.86994C28.9201 6.86994 30.1601 4.97994 32.3601 6.30994C32.3601 6.30994 31.5601 5.39994 30.8601 5.18994C30.8601 5.18994 32.0101 5.01994 32.9901 5.95994C32.9901 5.95994 32.9201 4.62994 32.6801 4.62994C32.6801 4.62994 34.3901 4.31994 34.7001 5.53994C34.7001 5.53994 34.7301 4.55994 34.0701 4.17994C34.0701 4.17994 34.7001 3.19994 36.0901 5.64994L35.3901 3.98994C35.3901 3.98994 36.4401 3.65994 37.1401 5.15994C37.1401 5.15994 37.3101 4.56994 36.9001 3.95994C36.9001 3.95994 37.9401 3.48994 38.9901 5.26994C38.9901 5.26994 39.8701 5.89994 40.9201 5.54994C41.9701 5.19994 44.0301 5.23994 45.5601 6.31994C45.5601 6.31994 44.4701 6.03994 43.9901 6.52994C43.9901 6.52994 45.6801 7.01994 46.3901 7.64994C47.1001 8.27994 47.6401 9.46994 47.9301 10.0199C48.2201 10.5799 47.3401 10.3299 47.3401 10.3299C47.3401 10.3299 48.0501 11.4499 46.3401 12.0899L46.1901 11.8599C45.8401 11.3099 45.5601 11.0599 45.0201 10.6999C42.4401 8.99994 38.1401 8.66994 35.0801 9.06994C33.1201 9.32994 31.0101 10.7599 29.7301 12.1499C28.5401 13.4499 30.5101 16.2699 30.5101 16.2699C28.5801 18.3099 29.7301 20.0599 29.7301 20.0599C29.7301 20.0599 31.0301 22.3799 28.9101 24.0999L25.3401 22.3399Z" fill="#240046"/>
<path d="M39.7399 20.7598C39.4899 20.9198 38.9899 21.1998 38.2599 21.2798C37.5399 21.3598 35.6499 20.7598 35.6499 20.7598C35.6499 20.7598 36.3299 19.7798 37.6399 19.4298C38.9499 19.0798 39.7799 20.3598 39.7799 20.3598L39.9399 20.5998C39.9499 20.5998 39.7899 20.7298 39.7399 20.7598Z" fill="#FFE9E9"/>
<path d="M38.2701 21.0998C38.7561 21.0998 39.1501 20.7059 39.1501 20.2198C39.1501 19.7338 38.7561 19.3398 38.2701 19.3398C37.7841 19.3398 37.3901 19.7338 37.3901 20.2198C37.3901 20.7059 37.7841 21.0998 38.2701 21.0998Z" fill="#37444C"/>
<path d="M38.2703 20.65C38.5078 20.65 38.7003 20.4575 38.7003 20.22C38.7003 19.9826 38.5078 19.79 38.2703 19.79C38.0328 19.79 37.8403 19.9826 37.8403 20.22C37.8403 20.4575 38.0328 20.65 38.2703 20.65Z" fill="black"/>
<path d="M38.5702 20.07C38.6254 20.07 38.6702 20.0074 38.6702 19.93C38.6702 19.8527 38.6254 19.79 38.5702 19.79C38.515 19.79 38.4702 19.8527 38.4702 19.93C38.4702 20.0074 38.515 20.07 38.5702 20.07Z" fill="#9BB0CF"/>
<path d="M39.7399 20.7598C39.4899 20.9198 38.9899 21.1998 38.2599 21.2798C37.5399 21.3598 35.6499 20.7598 35.6499 20.7598C35.6499 20.7598 36.3299 19.7798 37.6399 19.4298C38.9499 19.0798 39.7799 20.3598 39.7799 20.3598L39.9399 20.5998C39.9499 20.5998 39.7899 20.7298 39.7399 20.7598Z" stroke="#C56858" stroke-width="0.2165" stroke-miterlimit="10"/>
<path d="M35.4102 20.1399C35.4102 20.1399 36.0802 18.9799 37.5402 18.9099C39.0002 18.8499 39.4102 19.2199 39.4102 19.2199" stroke="#C56858" stroke-width="0.2405" stroke-miterlimit="10" stroke-linecap="round" stroke-linejoin="round"/>
<path d="M35.1699 19.7897C35.1699 19.7897 35.7499 19.3497 36.3799 19.2397" stroke="#C56858" stroke-width="0.2405" stroke-miterlimit="10" stroke-linecap="round" stroke-linejoin="round"/>
<path d="M46.4202 19.2798C46.4202 19.2798 45.5102 19.3198 44.9302 19.9198" stroke="#C56858" stroke-width="0.2405" stroke-miterlimit="10" stroke-linecap="round" stroke-linejoin="round"/>
<path d="M42.2901 18.14C41.2801 17.59 40.5001 16.75 38.4301 16.8C36.3601 16.85 36.3801 16.93 35.7101 17.14C35.1201 17.33 34.3501 17.52 33.4901 18.28C32.6301 19.04 35.8801 18.31 37.7901 18.25C38.6501 18.22 40.4001 18.73 41.7001 18.94C42.4501 19.07 42.5101 18.26 42.2901 18.14Z" fill="#240046"/>
<path opacity="0.2" d="M29.75 12.5601C29.81 12.1701 31.05 11.2401 31.05 11.2401C31.05 11.2401 32.26 9.99011 35.09 9.23011C37.92 8.47011 38.48 9.71011 41.2 9.44011C43.92 9.16011 45.89 11.5101 46.53 12.9101C47.17 14.3101 47.98 18.8401 47.72 19.7001C47.46 20.5601 48.54 24.6501 48.54 24.6501C48.06 23.5001 47.26 22.2001 46.93 21.4401C46.63 20.7301 46.74 19.6301 46.69 18.8801C46.72 19.2601 46.81 19.1201 46.4 17.3801C46.4 17.3801 45.28 13.4001 42.49 12.0801C39.7 10.7601 35.39 11.0501 32.43 11.8901C31.47 12.1601 30.74 12.0801 29.9 12.7801L29.75 12.5601Z" fill="white"/>
<path opacity="0.2" d="M30.5199 6.58977C31.2499 6.47977 31.7399 6.98977 32.1499 6.93977C32.3199 6.91977 32.6599 6.49977 32.6599 6.49977L32.4999 5.90977L31.1699 5.25977L29.8799 6.41977L30.5199 6.58977Z" fill="white"/>
<path opacity="0.2" d="M46.6301 10.7298C46.6301 10.7298 46.1301 8.50977 43.0401 7.49977C43.0401 7.49977 42.3601 7.32977 42.7101 6.88977C42.7101 6.88977 41.1001 7.25977 39.5401 7.05977C39.3001 7.02977 39.1801 6.83977 38.2701 6.62977C37.5601 6.45977 36.6001 6.65977 35.9101 6.51977C35.8801 6.50977 34.4501 6.42977 33.8901 6.23977C33.3301 6.04977 33.4701 5.41977 33.3601 5.32977C32.7901 4.87977 33.7401 4.81977 33.6401 4.74977C33.5001 4.64977 34.9201 5.93977 34.8501 5.75977C34.5101 4.92977 36.1901 4.54977 36.0201 4.27977C35.8401 3.99977 37.1401 5.43977 37.1401 5.43977L37.5201 4.28977L39.4601 5.74977L43.3301 5.68977L43.9901 5.96977L46.4901 8.15977L47.4301 9.95977L46.8601 11.5898L46.6301 10.7298Z" fill="white"/>
<path d="M25.3401 22.3399C25.3401 22.3399 23.8401 19.0499 24.7201 15.6599C25.5901 12.2699 26.8801 10.5999 26.8801 10.5999L28.0001 9.93994C28.0001 9.93994 27.1301 9.69994 26.7401 9.93994C26.3601 10.1799 27.9301 6.86994 31.2801 7.38994C31.2801 7.38994 30.2901 6.51994 28.9201 6.86994C28.9201 6.86994 30.1601 4.97994 32.3601 6.30994C32.3601 6.30994 31.5601 5.39994 30.8601 5.18994C30.8601 5.18994 32.0101 5.01994 32.9901 5.95994C32.9901 5.95994 32.9201 4.62994 32.6801 4.62994C32.6801 4.62994 34.3901 4.31994 34.7001 5.53994C34.7001 5.53994 34.7301 4.55994 34.0701 4.17994C34.0701 4.17994 34.7001 3.19994 36.0901 5.64994L35.3901 3.98994C35.3901 3.98994 36.4401 3.65994 37.1401 5.15994C37.1401 5.15994 37.3101 4.56994 36.9001 3.95994C36.9001 3.95994 37.9401 3.48994 38.9901 5.26994C38.9901 5.26994 39.8701 5.89994 40.9201 5.54994C41.9701 5.19994 44.0301 5.23994 45.5601 6.31994C45.5601 6.31994 44.4701 6.03994 43.9901 6.52994C43.9901 6.52994 45.6801 7.01994 46.3901 7.64994C47.1001 8.27994 47.6401 9.46994 47.9301 10.0199C48.2201 10.5799 47.3401 10.3299 47.3401 10.3299C47.3401 10.3299 48.0501 11.4499 46.3401 12.0899L46.1901 11.8599C45.8401 11.3099 45.5601 11.0599 45.0201 10.6999C42.4401 8.99994 38.1401 8.66994 35.0801 9.06994C33.1201 9.32994 31.0101 10.7599 29.7301 12.1499C28.5401 13.4499 30.5101 16.2699 30.5101 16.2699C28.5801 18.3099 29.7301 20.0599 29.7301 20.0599C29.7301 20.0599 31.0301 22.3799 28.9101 24.0999L25.3401 22.3399Z" stroke="#240046" stroke-width="0.9621" stroke-linejoin="round"/>
<path d="M47.8102 17.13C47.8102 17.13 47.6002 12.42 45.0202 10.71C42.4402 8.99999 38.1402 8.66999 35.0802 9.06999C33.1202 9.32999 31.0102 10.76 29.7302 12.15C28.5402 13.45 30.5102 16.27 30.5102 16.27C28.5802 18.31 29.7302 20.06 29.7302 20.06C29.7302 20.06 31.0302 22.38 28.9102 24.1C28.9102 24.1 29.9702 27.31 30.1702 28.42C30.5002 30.22 31.2502 34.58 32.8802 35.22C35.1702 36.11 38.3402 36.22 40.2302 36.33C41.6302 36.41 44.3902 36.74 45.8402 36.14C47.2902 35.55 48.2502 31.61 48.2502 31.61C48.2502 31.61 48.8802 27.3 49.0302 26.04C49.1802 24.78 48.2102 22.29 47.9102 21.14C47.7102 20.39 47.9802 19.32 48.0402 18.57C48.0802 18.21 47.8102 17.13 47.8102 17.13Z" stroke="#240046" stroke-width="0.9621" stroke-linejoin="round"/>
<path opacity="0.4" d="M29.6302 21.98C29.6302 21.98 30.9002 27.15 31.1002 28.26C31.4302 30.06 32.4502 33.58 34.0902 34.21C36.3802 35.1 39.4802 35.59 41.3702 35.82C42.2102 35.92 44.4202 36.34 45.6602 36.31C45.6602 36.31 38.9802 37.28 32.9702 35.51C26.9602 33.75 32.9702 35.51 32.9702 35.51C32.9702 35.51 32.1702 35.8 31.4802 33.54C30.7902 31.28 28.9302 23.45 28.9302 23.45C28.9302 23.45 29.3002 23.02 29.3702 22.86C29.5702 22.48 29.6302 21.98 29.6302 21.98Z" fill="black"/>
<path opacity="0.2" d="M35.5602 18.05C35.7402 17.84 35.9802 17.58 36.4602 17.41C36.9502 17.24 37.5102 17.05 38.8202 17.16C40.1402 17.27 40.8802 17.48 41.6902 18.3C42.5002 19.11 42.2302 20.48 42.2302 20.48C42.2302 20.48 42.0002 21.69 41.6002 22.36C41.2002 23.03 40.9902 23.33 40.4602 23.64C39.9302 23.95 39.2902 24.04 39.2902 24.04C39.2902 24.04 38.5602 24.25 37.4002 23.95C36.0102 23.59 35.5102 22.42 35.5102 22.42C35.5102 22.42 34.9302 21.37 34.8802 20.45C34.8302 19.53 34.8402 19.1 35.0802 18.69C35.3202 18.28 35.3702 18.25 35.5002 18.13C35.5102 18.1 35.5402 18.06 35.5602 18.05Z" fill="white"/>
<path d="M35.5302 18.11C35.5302 18.11 35.9802 17.58 36.4602 17.41C36.9502 17.24 37.5102 17.05 38.8202 17.16C40.1402 17.27 40.8802 17.48 41.6902 18.3C42.5002 19.11 42.2302 20.48 42.2302 20.48C42.2302 20.48 42.0002 21.69 41.6002 22.36C41.2002 23.03 40.9902 23.33 40.4602 23.64C39.9302 23.95 39.2902 24.04 39.2902 24.04C39.2902 24.04 38.5602 24.25 37.4002 23.95C36.0102 23.59 35.5102 22.42 35.5102 22.42C35.5102 22.42 34.9302 21.37 34.8802 20.45C34.8302 19.53 34.8402 19.1 35.0802 18.69C35.3202 18.28 35.5202 18.14 35.5202 18.14L35.5302 18.11Z" stroke="#E1B554" stroke-width="0.481" stroke-miterlimit="10"/>
<path d="M42.1401 19.0198L42.8801 18.6098C42.8801 18.6098 44.2001 18.4198 44.7201 18.8098C44.7201 18.8098 44.7801 19.3698 45.0201 19.5298" stroke="#E1B554" stroke-width="0.2405" stroke-miterlimit="10"/>
<path d="M50.52 18.7598L51.33 18.8398L51.38 19.2598H50.84L50.52 18.7598Z" fill="#E1B554" stroke="#E1B554" stroke-width="0.481" stroke-miterlimit="10"/>
<path opacity="0.2" d="M45.0203 20.1097C45.0203 20.1097 44.9203 18.8697 45.6003 18.3297C46.2803 17.7897 46.8503 17.6597 46.8503 17.6597C46.8503 17.6597 47.7703 17.4497 48.5303 17.6597C49.3003 17.8697 49.8103 18.0997 50.1903 18.4997C50.4003 18.7197 50.4603 18.8397 50.5803 19.0597C50.7403 19.3597 50.8203 19.7797 50.8303 20.3897C50.8403 20.9997 50.7603 21.4497 50.7603 21.4497C50.7603 21.4497 50.6303 22.2397 50.2303 22.9397C49.8303 23.6397 49.2303 23.8597 49.2303 23.8597C49.2303 23.8597 48.6103 24.1297 47.9203 24.1097C47.2303 24.0897 46.5403 23.6097 46.2203 23.2597C45.9303 22.9397 45.5803 22.3297 45.3703 21.7397C45.1703 21.1597 45.0203 20.1097 45.0203 20.1097Z" fill="white"/>
<path opacity="0.2" d="M46.4199 18.4598C46.4499 18.3298 46.8499 18.1598 46.8499 18.1598C46.8499 18.1598 47.0299 18.0798 47.3199 18.0198C47.6099 17.9598 47.9899 18.0198 47.9899 18.0198C47.9899 18.0198 48.3899 18.0798 48.8099 18.2098C49.2399 18.3398 49.6299 18.5598 49.7999 18.6898C49.9599 18.8098 50.1399 18.9898 50.2299 19.1498C50.3199 19.3098 50.4399 19.5998 50.3599 19.5398C49.9199 19.2298 49.5699 19.0498 49.2899 18.9198C49.0399 18.8098 48.7299 18.6198 48.2399 18.5198C47.7999 18.4098 46.4199 18.4598 46.4199 18.4598Z" fill="white"/>
<path d="M34.6299 18.6198L35.2699 18.6098C35.3499 18.3598 35.6799 18.0498 35.6799 18.0498H35.4199C34.7499 18.0598 34.4199 18.1198 34.0999 18.0898C33.7899 18.0598 33.5499 18.2498 33.5499 18.2498L27.3999 21.5898L27.5099 21.7698L33.2199 18.9298C33.2199 18.9298 33.3599 18.9798 33.5499 18.9498C33.7399 18.9198 33.9099 18.8398 33.9099 18.8398C33.9099 18.8398 34.0199 18.7198 34.1999 18.6898C34.3799 18.6598 34.6299 18.6198 34.6299 18.6198Z" fill="#E1B554" stroke="#E1B554" stroke-width="0.481" stroke-miterlimit="10"/>
<path opacity="0.4" d="M29.7402 22.0299C29.7402 22.0299 27.6002 20.9999 26.9802 20.3599C25.8102 19.1599 25.0402 17.1699 25.9202 13.7799C26.0202 13.3899 26.1202 13.0299 26.2302 12.6899C26.2302 12.6899 23.6002 15.3499 25.2102 21.4899L27.7902 21.7599L29.1202 24.0999L29.7402 22.0299Z" fill="black"/>
<path d="M45.0203 20.1097C45.0203 20.1097 44.9203 18.8697 45.6003 18.3297C46.2803 17.7897 46.8503 17.6597 46.8503 17.6597C46.8503 17.6597 47.7703 17.4497 48.5303 17.6597C49.3003 17.8697 49.8103 18.0997 50.1903 18.4997C50.4003 18.7197 50.4603 18.8397 50.5803 19.0597C50.7403 19.3597 50.8203 19.7797 50.8303 20.3897C50.8403 20.9997 50.7603 21.4497 50.7603 21.4497C50.7603 21.4497 50.6303 22.2397 50.2303 22.9397C49.8303 23.6397 49.2303 23.8597 49.2303 23.8597C49.2303 23.8597 48.6103 24.1297 47.9203 24.1097C47.2303 24.0897 46.5403 23.6097 46.2203 23.2597C45.9303 22.9397 45.5803 22.3297 45.3703 21.7397C45.1703 21.1597 45.0203 20.1097 45.0203 20.1097Z" stroke="#E1B554" stroke-width="0.481" stroke-miterlimit="10"/>
<path d="M27.7901 21.9901C27.7901 21.9901 27.4201 21.9101 26.5501 21.7601C25.6801 21.6101 25.1901 22.5701 25.1901 22.5701C25.1901 22.5701 24.4701 23.9801 25.1901 25.1201C25.9101 26.2501 26.0501 27.3501 27.5801 28.1401C29.1201 28.9301 30.0501 27.8301 30.0501 27.8301C30.0501 27.8301 28.4001 22.6501 27.7901 21.9901Z" fill="#FB8671"/>
<path opacity="0.3" d="M27.86 22.0101C27.86 22.0101 27.49 21.9301 26.62 21.7801C25.75 21.6301 25.26 22.5901 25.26 22.5901C25.26 22.5901 25.11 22.5201 25.83 23.6601C26.55 24.7901 26.69 25.8901 28.22 26.6801C29.75 27.4701 29.49 26.1501 29.49 26.1501C29.49 26.1501 28.47 22.6601 27.86 22.0101Z" fill="black"/>
<path d="M27.7901 21.9901C27.7901 21.9901 27.4201 21.9101 26.5501 21.7601C25.6801 21.6101 25.1901 22.5701 25.1901 22.5701C25.1901 22.5701 24.4701 23.9801 25.1901 25.1201C25.9101 26.2501 26.0501 27.3501 27.5801 28.1401C29.1201 28.9301 29.6701 28.1401 29.6701 28.1401C29.6701 28.1401 28.4001 22.6501 27.7901 21.9901Z" stroke="#240046" stroke-width="0.9621" stroke-linejoin="round"/>
<path d="M43.8601 19.75C43.8601 19.75 44.4101 20.15 44.6701 21.2C44.9301 22.25 46.1901 23.03 46.3701 23.76C46.5501 24.49 46.2401 24.83 46.0801 25.09C45.9201 25.35 44.9601 25.8 44.9601 25.8C44.9601 25.8 43.9901 25.2 42.6301 25.8C41.2701 26.4 41.5301 24.57 41.6601 24.44" fill="#FB8671"/>
<path opacity="0.2" d="M43.6299 19.7998C43.6299 19.7998 44.0899 20.8798 44.3499 21.9198C44.6099 22.9598 45.8699 23.7498 46.0499 24.4798C46.0799 24.5998 46.0999 24.7098 46.0999 24.7998C46.1299 25.3198 46.3799 23.5298 46.2499 23.7498L44.8499 21.8698L44.2499 20.4198L43.6299 19.7998Z" fill="white"/>
<path d="M41.8203 24.6C41.6903 24.73 41.7903 25.76 43.1503 25.15C44.5103 24.55 45.4803 25.15 45.4803 25.15C45.4803 25.15 45.8203 24.99 46.1303 24.81C46.1303 24.81 46.1403 25.68 44.9503 25.77C43.7603 25.86 43.8403 25.56 43.8403 25.56L41.9503 26.06C41.9503 26.06 41.3803 25.67 41.6103 25.06C41.8403 24.45 41.6603 24.5 41.6603 24.5L41.8203 24.6Z" fill="#C56858"/>
<path d="M43.8601 19.75C43.8601 19.75 44.4101 20.15 44.6701 21.2C44.9301 22.25 46.1901 23.03 46.3701 23.76C46.5501 24.49 46.2401 24.83 46.0801 25.09C45.9201 25.35 44.9601 25.8 44.9601 25.8C44.9601 25.8 43.9901 25.2 42.6301 25.8C41.2701 26.4 41.5301 24.57 41.6601 24.44" stroke="#C56858" stroke-width="0.481" stroke-linecap="round" stroke-linejoin="round"/>
<path opacity="0.3" d="M30.9702 34.9499L31.1202 33.6099L33.1302 35.5399C33.1302 35.5399 39.9402 36.7499 44.7802 36.6899H45.3802L46.7202 39.4599L47.3702 39.8499C46.9502 40.8699 46.5402 41.6399 45.8402 41.9199C44.3902 42.5099 41.6402 42.1899 40.2302 42.1099C38.3402 41.9999 35.1702 41.8799 32.8802 40.9999C31.2602 40.3599 31.3102 36.7499 30.9702 34.9499Z" fill="black"/>
<path opacity="0.2" d="M37.4199 18.2699C37.4499 18.1399 37.8499 17.9699 37.8499 17.9699C37.8499 17.9699 38.0299 17.8899 38.3199 17.8299C38.6099 17.7699 38.9899 17.8299 38.9899 17.8299C38.9899 17.8299 39.3899 17.8899 39.8099 18.0199C40.2399 18.1499 40.6299 18.3699 40.7999 18.4999C40.9599 18.6199 41.1399 18.7999 41.2299 18.9599C41.3199 19.1199 41.4399 19.4099 41.3599 19.3499C40.9199 19.0399 40.5699 18.8599 40.2899 18.7299C40.0399 18.6199 39.7299 18.4299 39.2399 18.3299C38.7999 18.2299 37.4199 18.2699 37.4199 18.2699Z" fill="white"/>
<path d="M4.88996 62.2099C4.88996 62.2099 -0.800043 61.2899 2.29996 65.0999C2.29996 65.0999 5.67996 66.1499 4.88996 62.2099Z" fill="#240046"/>
<path opacity="0.3" d="M4.88996 62.2099C4.88996 62.2099 -0.800043 61.2899 2.29996 65.0999C2.29996 65.0999 5.67996 66.1499 4.88996 62.2099Z" fill="black"/>
<path d="M1.52002 63.0096C1.79002 60.4196 16.94 63.4396 24.57 65.1196C27.52 65.7696 30.55 66.0296 33.57 65.8796L48.18 65.1896L47.72 59.6296L46.81 58.5396C46.81 58.5396 29.94 39.5796 24.87 30.0996L26.87 34.1796L26.8 35.1796L21.7 40.0896L10.3 46.8096L7.96002 49.1596L1.52002 63.0096Z" fill="#5A189A"/>
<path opacity="0.3" d="M8.02988 49.8599L5.00988 60.7299C7.14988 60.7899 17.4299 62.1099 24.5699 65.1199L5.69988 62.0199L1.87988 62.2299L8.02988 49.8599Z" fill="black"/>
<path d="M47.27 38.5996C47.27 38.5996 51.46 44.8596 56.02 47.6896C56.02 47.6896 58.39 48.1496 59.76 50.3296C61.13 52.5196 62.86 56.1596 65.14 61.6296C65.14 61.6296 67.14 63.9096 48.45 64.4596L47.73 59.6296L45.75 57.3196C45.75 57.3196 45.91 58.7096 48.19 53.6496C50.46 48.6096 47.27 38.5996 47.27 38.5996Z" fill="#5A189A"/>
<path d="M28.1001 34.6099C28.1001 34.6099 37.5001 37.7199 43.9001 50.5799C43.9001 50.5799 44.1001 41.3699 46.8701 39.2199C49.6401 37.0699 48.9901 48.0199 48.9901 48.0199C48.9901 48.0199 48.8801 54.7599 46.7401 56.2199C44.6001 57.6699 39.4601 49.9599 39.4601 49.9599L28.1001 34.6099Z" fill="#9D4EDD"/>
<path opacity="0.3" d="M43.9801 51.5397C43.9801 51.5397 42.0301 41.5297 27.8601 33.9897L25.5801 36.2797C25.5801 36.2797 37.0001 40.1997 44.5401 52.6397" fill="black"/>
<path opacity="0.2" d="M45.3901 42.4197C45.3901 42.4197 45.7601 42.9297 46.4201 43.7097C46.6701 43.9997 46.9501 44.3297 47.2701 44.6897C48.7701 46.3697 51.0501 48.6297 53.6001 50.2097C53.6001 50.2097 55.9701 50.6697 57.3401 52.8497C58.6601 54.9697 59.9901 57.8997 62.1601 63.0897L64.9301 61.8497C64.9301 61.8497 60.7701 50.6297 58.1401 48.9997C55.5101 47.3597 52.5101 45.2897 52.5101 45.2897L47.3501 38.9697L46.3201 39.8897L45.3901 42.4197Z" fill="white"/>
<path d="M45.5801 57.1299C45.5801 57.1299 50.9801 55.0099 48.4201 40.1899" stroke="#240046" stroke-width="0.9621" stroke-miterlimit="10"/>
<path d="M1.52002 63.0096C1.79002 60.4196 16.94 63.4396 24.57 65.1196C27.52 65.7696 30.55 66.0296 33.57 65.8796L48.18 65.1896L47.72 59.6296L46.81 58.5396C46.81 58.5396 32.72 42.5196 26.43 32.5596" stroke="#240046" stroke-width="0.9621" stroke-miterlimit="10"/>
<path d="M47.27 38.5996C47.27 38.5996 51.46 44.8596 56.02 47.6896C56.02 47.6896 58.39 48.1496 59.76 50.3296C61.13 52.5196 62.86 56.1596 65.14 61.6296C65.14 61.6296 66.96 63.9096 48.28 64.4596" stroke="#240046" stroke-width="0.9621" stroke-miterlimit="10"/>
<path d="M27.15 33.98C27.15 33.98 26.31 37.03 17.56 42.68C17.56 42.68 9.89998 45.69 8.34998 49.15C6.79998 52.62 1.51998 63.01 1.51998 63.01C1.51998 63.01 -0.0300245 64.56 4.52998 65.74" stroke="#240046" stroke-width="0.9621" stroke-miterlimit="10"/>
<path d="M25.9502 27.0098C25.9502 27.0098 21.1202 29.7398 29.9602 35.2098C38.8002 40.6798 42.7102 47.6998 42.7102 47.6998C42.7102 47.6998 43.3802 48.7598 43.6502 49.7598C43.9202 50.7698 46.2302 57.9298 46.2302 57.9298" stroke="#240046" stroke-width="0.9621" stroke-miterlimit="10"/>
<path d="M46.5704 55.8497C45.8404 53.6197 44.6804 49.9997 44.5404 49.3397C44.3304 48.3697 44.3604 47.6997 44.3604 47.6997C44.3604 45.0497 45.6304 40.5897 47.6404 38.1297C49.6504 35.6697 49.7404 32.5697 49.1904 30.2897C49.0704 29.7797 48.8804 29.3497 48.6504 28.9897" stroke="#240046" stroke-width="0.9621" stroke-miterlimit="10" stroke-linecap="round"/>
</g>
<defs>
<clipPath id="clip0">
<rect width="91.07" height="171.62" fill="white"/>
</clipPath>
</defs>
</svg>
