<svg width="102" height="193" viewBox="0 0 102 193" fill="none" xmlns="http://www.w3.org/2000/svg">
<path d="M16.8532 87.7171C16.8532 87.7171 20.4819 89.863 20.8862 102.124C21.296 114.385 20.8862 128.581 20.8862 128.581C20.8862 128.581 20.9348 132.614 17.1552 128.123C13.3755 123.626 11.2296 114.994 11.2296 114.994C11.2296 114.994 9.59594 105.337 10.3616 89.0434C10.367 89.0434 13.176 85.4148 16.8532 87.7171Z" fill="#240046"/>
<path opacity="0.3" d="M16.8532 87.7171C16.8532 87.7171 20.4819 89.863 20.8862 102.124C21.296 114.385 20.8862 128.581 20.8862 128.581C20.8862 128.581 20.9348 132.614 17.1552 128.123C13.3755 123.626 11.2296 114.994 11.2296 114.994C11.2296 114.994 9.59594 105.337 10.3616 89.0434C10.367 89.0434 13.176 85.4148 16.8532 87.7171Z" fill="black"/>
<path d="M18.1643 88.8377L17.3016 88.4926L15.9914 87.9318L16.4605 84.988L14.8592 81.3863C14.8592 81.3863 16.1694 78.2968 14.9778 77.6067C13.7862 76.9165 13.0691 76.7116 12.6108 77.3748C12.1525 78.038 11.5109 79.6393 11.5109 79.6393L5.2295 77.7954L3.67129 79.9521L4.71729 81.2029L3.87618 82.6102L5.1055 84.1846L4.46927 86.0609L5.84955 87.824L6.11375 90.1748C6.11375 90.1748 7.15436 91.0698 9.37576 90.8649C11.5972 90.6601 12.4976 92.5364 12.4976 92.5364L15.6248 94.6068L20.1431 95.5612L18.1643 88.8377Z" fill="#FB8671"/>
<path opacity="0.3" d="M12.7673 89.0705C14.3956 89.1352 14.6328 87.4368 14.6328 86.2614C14.6328 85.4796 14.1799 85.1021 14.2069 84.8002C14.25 84.288 14.5196 83.4361 14.5034 83.091C14.4926 82.8915 14.4064 82.6381 14.099 82.5249C14.4333 82.5842 15.2798 82.3901 15.269 82.3092C15.1127 81.2578 13.0315 81.1931 12.7026 81.3818C11.9423 81.824 12.3467 88.3102 12.805 91.7987C12.8697 92.2839 13.1339 92.6452 13.1878 92.9903C13.2525 93.4162 17.4365 95.0553 19.2967 95.2602C20.3642 95.3788 19.5878 94.3274 19.5716 94.0848C19.5609 93.9392 13.6677 92.133 13.5545 92.0629C13.3442 91.9281 13.1555 91.2649 13.1878 91.4051C13.2363 91.6261 12.7673 89.0705 12.7673 89.0705Z" fill="black"/>
<path d="M7.19775 77.791C7.19775 77.791 6.86886 78.0067 6.10863 78.0606" stroke="#240046" stroke-width="0.513713" stroke-linecap="round" stroke-linejoin="round"/>
<path d="M14.9779 80.9995C14.9779 80.9995 16.741 83.6738 16.4283 85.3884C16.1156 87.103 16.0077 87.4103 16.0077 87.4103C16.0077 87.4103 15.5333 88.5156 17.3018 88.2352" stroke="#240046" stroke-width="0.513713" stroke-linecap="round" stroke-linejoin="round"/>
<path d="M9.13898 90.6074C10.0664 91.1304 12.2985 91.0442 12.2985 91.0442L12.6328 92.9313C12.6328 92.9313 14.838 95.0017 19.6421 95.557" stroke="#240046" stroke-width="0.513713" stroke-linecap="round" stroke-linejoin="round"/>
<path d="M5.19642 77.6885C5.96744 77.2463 6.81934 76.9282 6.81934 76.9282" stroke="#240046" stroke-width="0.513713" stroke-linecap="round" stroke-linejoin="round"/>
<path d="M32.6408 109.99C32.6408 109.99 24.1866 116.331 21.3613 126.149C21.3613 126.149 21.4907 118.256 20.477 99.665C20.477 99.665 20.8868 89.8897 16.3955 87.0645C16.3955 87.0645 18.3257 86.4283 21.0701 86.1641C24.8174 85.8082 29.8263 85.6464 31.1958 84.0828C32.2957 82.5462 31.2228 71.3745 31.2228 71.3745H33.3579L32.6408 109.99Z" fill="#5A189A"/>
<path opacity="0.3" d="M33.272 107.629C33.272 107.629 25.4863 110.168 20.995 123.475L21.3616 126.15C21.3616 126.15 26.7534 112.659 32.873 110.098L33.272 107.629Z" fill="black"/>
<path opacity="0.2" d="M31.4976 84.105C31.4706 85.5661 31.3843 86.6337 31.1956 86.7847C30.4947 87.3454 29.7776 88.5208 25.847 88.4723C23.9815 88.4507 20.9729 88.7527 18.3956 89.0708C17.6839 89.157 16.735 86.968 16.4007 86.7901L29.1791 85.6416L30.8559 84.7736L31.4976 84.105Z" fill="white"/>
<path d="M16.3959 87.0649C16.3959 87.0649 20.4828 89.8579 20.8926 102.119C21.3024 114.38 20.8926 128.576 20.8926 128.576C20.8926 128.576 20.9411 132.609 17.1615 128.118C15.9699 126.7 15.6356 126.284 14.7837 124.441" stroke="#240046" stroke-width="0.513713" stroke-miterlimit="10"/>
<path d="M31.1963 70.8521C31.1963 70.8521 31.8972 83.5226 31.1963 84.0834C30.4954 84.6441 29.7783 85.8195 25.8477 85.771C23.4699 85.7386 19.2266 86.2401 16.396 86.6283" stroke="#240046" stroke-width="0.513713" stroke-miterlimit="10"/>
<path d="M15.5596 191.644L13.2357 191.903L5.13193 27.3574L10.3458 27.0986L15.5596 191.644Z" fill="#E1B554"/>
<path opacity="0.4" d="M15.5596 191.644L13.2357 191.903L9.2027 30.242L8.11896 29.4979L7.32638 27.7456L9.84971 27.6162L9.9845 30.3822L15.5596 191.644Z" fill="black"/>
<path d="M6.62072 1.35254L4.86301 16.5734L9.65088 16.3847L6.62072 1.35254Z" fill="#B53B3B"/>
<path opacity="0.2" d="M6.48001 2.57617L5.13207 16.4114L7.74707 16.3089L6.48001 2.57617Z" fill="white"/>
<path d="M8.54018 23.0328H5.86587L4.86301 16.5735L9.65088 16.3848L8.54018 23.0328Z" fill="#B53B3B"/>
<path opacity="0.3" d="M8.54018 23.0328L7.92552 20.0835L7.76916 16.5735L9.65088 16.3848L8.54018 23.0328Z" fill="black"/>
<path d="M6.61963 1.35254L4.86192 16.5734L0.483824 15.4196L6.61963 1.35254Z" fill="#B53B3B"/>
<path opacity="0.3" d="M5.854 3.88135L4.53842 16.3848L0.12258 14.9883L5.854 3.88135Z" fill="white"/>
<path d="M5.13135 23.0321L4.86176 16.5728L0.483668 15.4189L3.10406 21.5008L5.13135 23.0321Z" fill="#B53B3B"/>
<path d="M6.62 1.35254L14.1738 15.0853L9.65016 16.3847L6.62 1.35254Z" fill="#B53B3B"/>
<path d="M9.19725 23.4314L11.2839 21.7168L14.1738 15.085L9.65016 16.3844L9.19725 23.4314Z" fill="#B53B3B"/>
<path opacity="0.3" d="M9.19725 22.779L12.0063 21.0644L14.1738 15.085L9.65016 16.3844L9.19725 22.779Z" fill="black"/>
<path d="M6.62 1.35254L14.1738 15.0853L9.65016 16.3847L6.62 1.35254Z" stroke="#240046" stroke-width="0.513713" stroke-miterlimit="10" stroke-linejoin="bevel"/>
<path d="M5.82814 24.3969L4.86301 16.5735L9.65088 16.3848L8.64801 24.2513L5.82814 24.3969Z" stroke="#240046" stroke-width="0.513713" stroke-miterlimit="10" stroke-linejoin="bevel"/>
<path d="M6.61963 1.35254L4.86192 16.5734L0.483824 15.4196" stroke="#240046" stroke-width="0.513713" stroke-miterlimit="10" stroke-linejoin="bevel"/>
<path d="M15.5596 191.644L13.2357 191.903L5.13193 27.3574L10.3458 27.0986L15.5596 191.644Z" stroke="#240046" stroke-width="0.513713" stroke-miterlimit="10"/>
<path d="M6.62072 1.35254L4.86301 16.5734L9.65088 16.3847L6.62072 1.35254Z" stroke="#240046" stroke-width="0.513713" stroke-miterlimit="10" stroke-linejoin="bevel"/>
<path d="M6.62 1.35254L14.1738 15.0853L11.726 20.7089L7.13221 25.982L2.88891 20.8814L0.484194 15.4196L6.62 1.35254Z" stroke="#240046" stroke-width="0.513713" stroke-miterlimit="10"/>
<path d="M10.3458 27.0984L5.13197 27.3572L2.88901 20.8817L5.82751 24.3971L7.29945 19.5068L8.64739 24.2516L11.7261 20.7092L10.3458 27.0984Z" fill="#5A189A"/>
<path opacity="0.4" d="M9.39145 23.9063L11.7261 20.709L10.3458 27.0982H7.25632L9.39145 23.9063Z" fill="black"/>
<path d="M10.3458 27.0984L5.13197 27.3572L2.88901 20.8817L5.82751 24.3971L7.29945 19.5068L8.64739 24.2516L11.7261 20.7092L10.3458 27.0984Z" stroke="#240046" stroke-width="0.513713" stroke-miterlimit="10"/>
<path d="M6.10868 77.5322L11.522 80.1634L12.4601 77.791L12.7405 79.9477L11.8832 80.6001L12.1906 81.9481L13.5601 82.773L13.1072 87.4153L12.0665 88.6716L11.0799 90.6072L6.77725 90.7959L5.70429 87.6417L4.58281 85.2909L5.57489 83.9538L3.8711 82.3363L5.1759 81.2795L3.8711 79.4301L4.50733 78.2817L6.10868 77.5322Z" fill="#FB8671"/>
<path opacity="0.2" d="M5.70468 77.5324L4.00089 78.5191L4.55085 80.1906C4.55085 80.1906 5.39195 79.7538 5.69928 79.7538C7.22515 79.7484 9.85632 81.2959 11.7488 80.5356C12.6816 80.1636 7.03105 77.9799 6.47031 77.705C6.42717 77.6834 6.4056 77.6726 6.36786 77.6564C6.05514 77.5216 5.70468 77.5324 5.70468 77.5324Z" fill="white"/>
<path opacity="0.2" d="M5.38086 81.3071L4.00596 82.2345L3.93587 83.1241C3.93587 83.1241 5.39704 83.5231 5.25685 83.2535C4.78238 82.3423 5.38086 81.3071 5.38086 81.3071Z" fill="white"/>
<path opacity="0.3" d="M12.563 82.6928C12.563 82.6928 11.1989 83.7927 9.30638 83.0594C8.32508 82.6766 5.47824 82.1375 5.13317 81.8679C4.79349 81.5983 6.98793 81.8679 6.98793 81.8679L12.563 82.6928Z" fill="black"/>
<path opacity="0.3" d="M13.8511 85.4639C13.8511 85.4639 13.7378 86.2565 11.0312 86.057C6.41046 85.712 6.04922 84.9086 5.70415 84.639C5.36447 84.3694 8.36228 84.6929 8.36228 84.6929L13.8511 85.4639Z" fill="black"/>
<path opacity="0.3" d="M12.563 88.3374C12.563 88.3374 11.792 89.0599 9.76468 88.8874C5.14935 88.4938 6.98793 88.208 6.64825 87.933C6.30857 87.6635 7.333 87.5664 7.333 87.5664L12.563 88.3374Z" fill="black"/>
<path opacity="0.2" d="M4.73945 84.5261L4.56152 85.8147L4.71788 86.7044L6.1413 87.2543C6.1413 87.2543 4.80954 85.7824 6.21679 84.4614C6.9878 83.7389 5.94719 84.6555 5.29479 84.5369C5.24627 84.5261 5.05755 84.4776 5.01442 84.4722C4.64778 84.4183 4.73945 84.5261 4.73945 84.5261Z" fill="white"/>
<path opacity="0.2" d="M5.26805 89.0757L5.70479 90.0732L6.217 90.8388L7.69434 90.4776C7.69434 90.4776 5.92585 89.7982 6.64834 87.7817C7.0042 86.7896 6.41111 88.2023 5.81262 88.4772C5.76949 88.4988 5.58617 88.5635 5.54304 88.5851C5.22492 88.7468 5.26805 89.0757 5.26805 89.0757Z" fill="white"/>
<path d="M6.80424 78.1307C6.98217 78.4057 11.3117 79.9046 11.8563 80.0717C12.4009 80.2389 12.072 81.479 12.072 81.479C12.072 81.479 11.8833 82.7083 10.0231 82.2176C8.16296 81.727 5.93078 81.301 5.93078 81.301C5.93078 81.301 4.78773 81.2148 4.4157 80.6702C4.04367 80.1256 3.62311 79.5056 4.07062 78.6375C4.24316 78.3032 4.70146 77.969 5.1975 77.6832C5.4617 77.5322 5.73667 77.3974 5.9793 77.2788" stroke="#240046" stroke-width="0.513713" stroke-linecap="round" stroke-linejoin="round"/>
<path d="M11.6733 82.0944C11.6733 82.0944 13.2855 82.3316 13.3017 83.1458C13.3178 83.96 13.2477 84.5638 12.7679 84.7418C12.288 84.9197 8.01774 84.6177 8.01774 84.6177C8.01774 84.6177 6.31935 84.332 5.72086 84.03C4.74496 83.5394 4.62633 83.3022 4.30283 83.0056C4.04403 82.7684 4.03324 82.0567 4.62094 81.6307C5.45127 81.0322 5.44588 81.2263 5.44588 81.2263" stroke="#240046" stroke-width="0.513713" stroke-linecap="round" stroke-linejoin="round"/>
<path d="M9.45755 84.8007L12.1696 84.9678C12.1696 84.9678 13.6308 84.8169 13.5553 86.0624C13.4798 87.3025 13.1832 88.025 12.2882 87.9279C11.3932 87.8309 7.19302 87.7284 7.19302 87.7284C7.19302 87.7284 5.85048 87.8255 5.1819 87.0814C4.51333 86.3373 4.76135 85.3938 4.76135 85.3938C4.76135 85.3938 4.67508 84.3747 6.10928 84.186" stroke="#240046" stroke-width="0.513713" stroke-linecap="round" stroke-linejoin="round"/>
<path d="M6.35191 87.6641C6.35191 87.6641 5.55931 88.1978 5.73185 89.0929C5.90439 89.9879 6.65384 90.608 6.65384 90.608H9.95359C9.95359 90.608 11.0481 90.6565 11.6412 89.961C12.2397 89.2654 12.2612 88.2356 11.4687 87.869" stroke="#240046" stroke-width="0.513713" stroke-linecap="round" stroke-linejoin="round"/>
<path opacity="0.4" d="M11.9426 78.6489C11.9426 78.6489 11.7431 77.5382 12.5627 76.9667C12.8269 76.7833 12.6112 76.8858 12.6597 76.9127C13.1504 77.1931 13.2259 78.6273 13.1774 79.0425C13.0156 80.3958 12.3794 80.4282 12.3794 80.4282C12.3794 80.4282 13.3607 82.0942 12.3039 80.7193C12.3039 80.7193 11.7162 79.4361 11.9426 78.6489Z" fill="black"/>
<path d="M11.9424 78.6487C11.9424 78.6487 11.8885 77.2307 12.8428 76.9341C14.0667 76.5567 14.4657 77.0042 14.9186 77.2738C15.4039 77.565 16.0886 78.0556 15.7975 79.3874C15.5063 80.7191 14.6275 81.3338 14.6275 81.3338C14.6275 81.3338 13.3658 82.0994 12.3036 80.7245C12.3036 80.7191 11.7159 79.4359 11.9424 78.6487Z" stroke="#240046" stroke-width="0.513713" stroke-linecap="round" stroke-linejoin="round"/>
<path d="M52.5259 190.446C52.5259 190.446 44.724 172.372 44.0447 103.412C44.0447 103.412 35.7899 173.181 33.9567 185.458L43.2413 190.44H52.5259V190.446Z" fill="#240046"/>
<path opacity="0.3" d="M52.5259 190.446C52.5259 190.446 44.724 172.372 44.0447 103.412C44.0447 103.412 35.7899 173.181 33.9567 185.458L43.2413 190.44H52.5259V190.446Z" fill="black"/>
<path d="M91.109 127.55C91.109 127.55 89.6909 146.864 101.413 165.249C101.413 165.249 99.5524 184.557 79.1177 187.825C58.683 191.092 52.9624 191.502 52.9624 191.502C52.9624 191.502 40.8741 166.748 44.837 72.2958C44.837 72.2958 63.6057 74.7491 78.2497 72.2958C92.8936 69.8426 92.0903 106.911 92.0903 106.911L91.109 127.55Z" fill="#5A189A"/>
<path d="M52.9678 191.508C52.9678 191.508 49.0803 191.098 43.2411 189.567C37.4018 188.035 33.7947 186.332 33.7947 186.332" stroke="#240046" stroke-width="0.513713" stroke-miterlimit="10"/>
<path d="M44.8428 72.3018C44.8428 72.3018 42.9503 109.952 41.7048 121.588C40.4539 133.223 33.8005 186.332 33.8005 186.332L21.8739 182.38C21.8739 182.38 21.0598 182.002 21.4965 179.738C24.1439 166.021 34.5068 115.274 33.7735 94.931C32.9216 71.2289 33.1481 77.3593 33.1481 77.3593C33.1481 77.3593 33.1481 71.671 34.1671 70.8515C37.0787 68.5061 44.8428 72.3018 44.8428 72.3018Z" fill="#5A189A"/>
<path d="M44.1089 98.3438C44.1089 98.3438 36.9271 169.989 33.7945 186.332L22.7252 182.725C22.7252 182.725 19.8622 182.622 21.6038 177.414C23.3399 172.205 31.5138 133.892 33.1475 109.683C33.1475 109.683 25.4804 113.64 20.4769 129.999" stroke="#240046" stroke-width="0.513713" stroke-miterlimit="10"/>
<path d="M33.7734 71.3799C33.6117 75.4776 33.148 109.677 33.148 109.677" stroke="#240046" stroke-width="0.513713" stroke-miterlimit="10"/>
<path d="M91.109 127.551C91.109 127.551 89.6909 146.864 101.413 165.25C101.413 165.25 99.5524 184.558 79.1177 187.825C58.683 191.093 52.9624 191.502 52.9624 191.502C52.9624 191.502 40.8741 166.749 44.837 72.2964" stroke="#240046" stroke-width="0.513713" stroke-miterlimit="10"/>
<path d="M48.589 79.1447C51.2201 77.0203 55.8355 78.3036 55.8355 78.3036L55.8678 79.6731C51.8402 78.4653 49.5271 80.0882 49.5271 80.0882L46.3083 116.795L89.9976 123.67L88.8222 124.09L46.2328 117.626L45.1598 117.431L48.589 79.1447Z" fill="#B53B3B"/>
<path opacity="0.4" d="M48.589 79.1447C51.2201 77.0203 55.8355 78.3036 55.8355 78.3036L55.8678 79.6731C51.8402 78.4653 49.5271 80.0882 49.5271 80.0882L46.3083 116.795L89.9976 123.67L88.8222 124.09L46.2328 117.626L45.1598 117.431L48.589 79.1447Z" fill="black"/>
<path d="M94.042 122.958C90.7584 123.918 91.3353 123.718 91.3353 123.718L46.3089 116.509L52.6496 116.089L94.042 122.958Z" fill="#FFFCE8"/>
<path opacity="0.4" d="M94.042 122.958C90.7584 123.918 91.3353 123.718 91.3353 123.718L46.4006 116.504L52.6496 116.089L94.042 122.958Z" fill="black"/>
<path d="M55.8354 79.792C52.6489 81.8462 49.5271 80.0939 49.5271 80.0939L46.3136 116.51L52.6543 116.089L55.8354 79.792Z" fill="#FFFCE8"/>
<path opacity="0.4" d="M49.5278 80.2928C49.6033 80.9452 51.0591 80.0933 51.0591 80.0933L47.8079 116.407L46.3143 116.509L49.5278 80.2928Z" fill="black"/>
<path d="M55.8354 79.7911C52.6489 81.8454 49.5271 80.0931 49.5271 80.0931C49.5271 80.0931 52.5519 78.5241 55.8354 79.7911Z" fill="#240046"/>
<path d="M55.8354 79.792C52.6489 81.8462 49.5271 80.0939 49.5271 80.0939" stroke="#240046" stroke-width="0.256857" stroke-miterlimit="10"/>
<path d="M56.5747 78.3471C51.9432 77.134 48.4116 79.1559 48.4116 79.1559L45.0903 117.027C45.0634 117.313 45.2682 117.567 45.5486 117.61L88.8227 124.091L96.0962 123.018" stroke="#240046" stroke-width="0.256857" stroke-miterlimit="10"/>
<path d="M55.8359 79.792C52.1857 78.5465 49.5275 80.0939 49.5275 80.0939L46.3141 116.72L91.6802 123.67" stroke="#240046" stroke-width="0.256857" stroke-miterlimit="10"/>
<path d="M55.9758 78.2178L52.606 116.591L96.387 123.153L97.9829 87.2543L55.9758 78.2178Z" fill="#B53B3B"/>
<path d="M55.9225 78.8261L52.6551 116.083C52.6281 116.369 52.833 116.622 53.1134 116.665L95.7998 123.06C96.1179 123.109 96.4037 122.871 96.4199 122.548L97.9673 87.7117C97.9781 87.4475 97.8002 87.2157 97.5414 87.1618L56.5749 78.3463C56.2568 78.2762 55.9495 78.5026 55.9225 78.8261Z" stroke="#240046" stroke-width="0.256857" stroke-miterlimit="10"/>
<path opacity="0.4" d="M92.4025 86.0566L92.1059 122.51L96.387 123.152L97.9829 87.2536L92.4025 86.0566Z" fill="black"/>
<path d="M58.9678 82.2017L56.2018 113.711C56.1803 113.954 56.3528 114.169 56.59 114.202L92.6878 119.61C92.9573 119.647 93.2 119.448 93.2107 119.178L94.5209 89.7178C94.5317 89.4967 94.3808 89.2972 94.1597 89.2487L59.5177 81.7919C59.2536 81.738 58.9948 81.9267 58.9678 82.2017Z" stroke="#E1B554" stroke-width="0.513713" stroke-miterlimit="10"/>
<path d="M95.9775 69.6338C95.9775 69.6338 100.393 87.7608 101.429 92.6943C102.464 97.6223 96.4197 114.261 96.4197 114.261L80.1689 155.379L74.3782 123.4L72.4372 116.52L70.0433 112.32C70.0433 112.32 78.1686 107.338 83.9809 94.9211C85.8141 88.4833 86.4072 90.5376 86.0567 86.3158C85.8141 84.8169 81.7056 76.7185 81.7056 76.7185L80.1582 71.9145L95.8104 69.747L95.9775 69.6338Z" fill="#5A189A"/>
<path opacity="0.3" d="M99.2721 104.318C97.083 109.861 94.0421 115.485 94.0421 115.485L78.8913 147.377L80.5304 153.658L95.0503 116.514L99.5039 104.459L99.2721 104.318Z" fill="black"/>
<path opacity="0.2" d="M71.8928 114.87L73.6505 113.733C84.0511 106.184 82.5253 102.415 85.8951 96.6841C89.637 90.3164 88.0734 86.0569 88.0734 86.0569C85.9598 82.245 81.6249 75.9097 81.6249 75.9097L85.4854 84.8546L85.6902 88.99L84.0889 94.5435L78.406 104.001L69.8978 111.867L71.8928 114.87Z" fill="white"/>
<path opacity="0.3" d="M96.3542 71.9146C96.3542 71.9146 96.5807 73.1439 91.8198 73.8179C87.0589 74.4919 74.3559 76.9235 71.191 77.0314C68.026 77.1392 49.8397 76.3952 49.8397 76.3952L47.9688 76.1849V75.0203C47.9688 75.0203 33.5944 74.3032 31.5078 73.8179V71.1975L47.7477 72.6209L48.1898 73.5537L69.7945 74.1198C69.7945 74.1198 87.9809 69.9466 95.1357 69.8927C95.1357 69.8927 96.1871 69.6717 96.3542 71.9146Z" fill="black"/>
<path d="M95.9773 69.6338L100.555 88.2245C100.555 88.2245 103.235 93.9452 99.1477 106.001C95.0607 118.057 79.9477 156.026 79.9477 156.026" stroke="#240046" stroke-width="0.513713" stroke-miterlimit="10"/>
<path d="M67.8808 118.871C67.8808 118.871 67.0343 125.826 71.531 140.837C75.2675 153.303 78.8099 155.853 78.8099 155.853C78.8099 155.853 81.3655 158.306 79.4245 150.747C77.4835 143.188 75.3376 130.318 74.3617 122.753C73.3858 115.188 70.0267 112.433 70.0267 112.433C70.0267 112.433 68.0803 110.19 67.8808 118.871Z" fill="#240046"/>
<path opacity="0.3" d="M67.8808 118.871C67.8808 118.871 67.0343 125.826 71.531 140.837C75.2675 153.303 78.8099 155.853 78.8099 155.853C78.8099 155.853 81.3655 158.306 79.4245 150.747C77.4835 143.188 75.3376 130.318 74.3617 122.753C73.3858 115.188 70.0267 112.433 70.0267 112.433C70.0267 112.433 68.0803 110.19 67.8808 118.871Z" fill="black"/>
<path d="M69.8707 112.509C69.8707 112.509 68.9703 112.644 67.2557 112.056L65.676 111.242C65.676 111.242 64.8618 110.924 64.0531 110.924C63.2443 110.924 60.7641 110.924 60.7641 110.924C60.7641 110.924 59.3191 110.757 58.8231 111.722C58.327 112.687 59.3191 113.226 59.3191 113.226C59.3191 113.226 59.5887 113.814 60.7641 113.814H62.4086C62.4086 113.814 64.2525 113.685 64.7594 114.747C65.2716 115.809 64.107 116.629 64.107 116.629L60.322 119.206C60.322 119.206 59.1789 119.756 57.8256 119.777C57.8256 119.777 56.138 119.761 55.7174 119.632C55.7174 119.632 55.3885 119.729 55.3238 119.341L53.7926 119.114C53.7926 119.114 52.9407 120.327 56.2189 121.675C56.2189 121.675 55.836 123.169 56.4453 123.255C57.0546 123.336 58.2138 123.999 58.2138 123.999L64.3226 124.991C64.3226 124.991 65.2285 125.881 66.3014 125.832C66.3014 125.832 66.9592 126.393 67.9028 126.377C68.8409 126.361 73.7528 123.589 74.2704 122.414C74.7772 121.239 69.8707 112.509 69.8707 112.509Z" fill="#FB8671"/>
<path opacity="0.3" d="M63.9935 112.369C63.4597 112.412 63.2926 112.488 61.7289 112.558C61.0226 112.59 59.5884 112.828 58.8821 112.601C58.0841 112.348 59.1139 111.803 59.1139 111.803C59.1139 111.803 60.1168 111.135 60.5643 111.199C61.0118 111.264 65.8375 111.42 65.8375 111.42L66.5869 111.927C66.5923 111.927 64.8022 112.299 63.9935 112.369Z" fill="white"/>
<path opacity="0.3" d="M72.5884 123.438C72.1463 123.746 72.0438 123.891 70.7282 124.743C70.1351 125.131 68.9651 125.832 68.2426 125.994C67.4231 126.177 63.9939 124.932 63.9939 124.932C63.9939 124.932 67.1697 124.732 68.0431 124.452C69.6607 123.924 73.6506 121.454 73.6506 121.454L73.9902 122.5C73.9848 122.5 73.2516 122.969 72.5884 123.438Z" fill="black"/>
<path opacity="0.3" d="M64.2909 124.091C63.7572 124.155 62.7058 123.6 61.1422 123.74C60.4358 123.8 58.8022 123.875 58.0904 123.681C57.2817 123.46 56.1332 122.506 56.1332 122.506C56.1332 122.506 57.5998 122.349 58.5002 122.506C60.177 122.797 63.4768 122.807 63.4768 122.807L65.585 123.541C65.585 123.535 65.0997 123.988 64.2909 124.091Z" fill="black"/>
<path opacity="0.3" d="M63.055 122.587C62.5212 122.651 61.4698 122.096 59.9062 122.236C59.1999 122.296 57.5662 122.371 56.8545 122.177C56.0458 121.956 53.7327 119.783 53.7327 119.783C53.7327 119.783 53.269 118.694 54.9512 119.292C56.0026 119.664 57.3829 121.228 57.9221 121.32C59.5989 121.611 61.3998 121.201 62.5212 121.46C62.8124 121.525 63.5672 122.037 63.5672 122.037C63.5672 122.037 63.8584 122.484 63.055 122.587Z" fill="black"/>
<path d="M69.8711 112.509C69.8711 112.509 68.9707 112.644 67.2561 112.056L65.6763 111.242C65.6763 111.242 64.8622 110.924 64.0534 110.924C63.2446 110.924 60.7644 110.924 60.7644 110.924C60.7644 110.924 59.3195 110.757 58.8234 111.722C58.3274 112.687 59.2062 113.34 59.2062 113.34C59.2062 113.34 59.9557 113.76 60.7644 113.814H62.4089C62.4089 113.814 64.2529 113.685 64.7597 114.747C65.2719 115.809 64.1073 116.629 64.1073 116.629L60.3223 119.206C60.3223 119.206 59.1793 119.756 57.8259 119.777C57.8259 119.777 56.1383 119.761 55.7178 119.632C55.7178 119.632 55.5129 119.659 55.4374 119.335" stroke="#240046" stroke-width="0.513713" stroke-miterlimit="10" stroke-linecap="round"/>
<path d="M58.0953 123.681C58.0953 123.681 57.885 124.085 58.3972 124.29C58.9095 124.495 64.4252 125.174 64.4252 125.174C64.4252 125.174 64.7487 125.503 65.4119 125.87C65.4119 125.87 65.7462 125.983 66.3339 125.945C66.3339 125.945 67.0348 126.582 68.0323 126.522C68.0323 126.522 71.4992 125.023 72.3079 124.177C73.1167 123.33 74.2651 122.505 74.2651 122.505" stroke="#240046" stroke-width="0.513713" stroke-miterlimit="10" stroke-linecap="round"/>
<path d="M65.585 123.821C65.585 123.821 64.9056 124.673 63.9836 124.398C63.0616 124.123 62.8244 124.134 62.8244 124.134C62.8244 124.134 57.4434 123.714 56.5592 123.412C55.6749 123.11 56.3813 121.756 56.3813 121.756" stroke="#240046" stroke-width="0.513713" stroke-miterlimit="10" stroke-linecap="round"/>
<path d="M53.5232 119.099C53.5286 119.277 53.5394 119.649 53.5556 119.783C53.685 120.786 54.6986 120.943 54.6986 120.943C54.6986 120.943 56.3916 121.73 57.2274 122.215C58.0631 122.7 59.4164 122.377 59.4164 122.377L63.2661 122.506" stroke="#240046" stroke-width="0.513713" stroke-miterlimit="10" stroke-linecap="round"/>
<path d="M68.2906 126.522C68.7704 130.026 69.714 134.776 71.5364 140.837C75.2729 153.302 78.8152 155.853 78.8152 155.853C78.8152 155.853 81.3709 158.306 79.4299 150.747C77.4889 143.188 75.3429 130.317 74.367 122.753C73.3911 115.188 70.0321 112.433 70.0321 112.433C70.0321 112.433 69.7086 112.061 69.315 112.207" stroke="#240046" stroke-width="0.513713" stroke-miterlimit="10" stroke-linecap="round"/>
<path d="M80.1526 71.9146C80.1526 71.9146 83.3768 81.0374 85.485 84.8547C85.485 84.8547 87.0486 89.1088 83.3067 95.4819C79.9423 101.213 79.8668 104.637 69.4608 112.18" stroke="#240046" stroke-width="0.513713" stroke-miterlimit="10"/>
<path d="M66.2587 40.4858C66.2587 40.4858 77.0583 35.4499 73.6777 31.5409C70.2971 27.6319 58.597 29.8209 58.597 29.8209C58.597 29.8209 47.641 29.8155 46.8376 34.0858C45.7269 40.0005 50.2991 45.0742 50.2991 45.0742L66.2587 40.4858Z" fill="#E1B554"/>
<path d="M69.5531 32.0093C69.5531 32.0093 68.313 34.1768 67.1753 39.6602C67.1753 39.6602 66.8033 43.9304 67.7469 45.5965C67.8709 45.8175 68.3292 46.2489 68.3292 46.2489C68.3292 46.2489 70.5074 46.9013 69.5531 49.8236C68.5988 52.7513 64.9432 53.889 64.9432 53.889C64.9432 53.889 60.0259 55.6359 56.2031 53.1179C55.2488 52.4871 52.9951 57.3828 52.2564 56.5902C50.0296 54.2125 47.2097 46.8689 47.2097 46.8689C47.2097 46.8689 49.6899 43.8873 50.2021 42.8305C50.7143 41.7737 50.2992 42.6364 51.1079 40.814" fill="#FB8671"/>
<path d="M69.5531 32.0093C69.5531 32.0093 68.313 34.1768 67.1753 39.6602C67.1753 39.6602 66.8033 43.9304 67.7469 45.5965C67.8709 45.8175 68.3292 46.2489 68.3292 46.2489C68.3292 46.2489 70.5074 46.9013 69.5531 49.8236C68.5988 52.7513 64.9432 53.889 64.9432 53.889C64.9432 53.889 60.0259 55.6359 56.2031 53.1179C55.2488 52.4871 52.6985 57.7333 51.9598 56.9407C49.7331 54.5629 47.2151 46.8689 47.2151 46.8689C47.2151 46.8689 49.6953 43.8873 50.2075 42.8305C50.7197 41.7737 50.3046 42.6364 51.1133 40.814" stroke="#240046" stroke-width="0.513713" stroke-linejoin="round"/>
<path d="M48.4438 19.328C48.4438 19.328 48.6811 14.0495 51.571 12.1354C54.461 10.2214 59.2758 9.84933 62.705 10.3022C64.8994 10.5934 67.2664 12.1947 68.7006 13.7583C70.0324 15.2141 67.8271 18.3791 67.8271 18.3791C69.9892 20.6706 68.7006 22.6224 68.7006 22.6224C68.7006 22.6224 67.2448 25.2266 69.6172 27.1514C69.6172 27.1514 68.431 30.7477 68.2046 31.9878C67.8271 34.0043 66.9968 38.8946 65.169 39.6063C62.5971 40.5984 59.0494 40.7332 56.9304 40.8572C55.356 40.9489 52.2666 41.3155 50.6436 40.647C49.0207 39.9784 47.937 35.5679 47.937 35.5679C47.937 35.5679 47.2307 30.7423 47.0635 29.3243C46.8964 27.9117 47.9747 25.1241 48.3198 23.8301C48.5409 22.989 48.2443 21.792 48.1796 20.9509C48.1419 20.5412 48.4438 19.328 48.4438 19.328Z" fill="#FB8671"/>
<path d="M52.7515 20.7836C52.7515 20.7836 51.5761 19.8131 50.4169 19.7592C49.2576 19.6999 47.9528 20.2714 47.9528 20.2714C47.9528 20.2714 47.5592 20.5356 47.6617 21.037C47.7641 21.5385 48.5567 21.2258 48.5567 21.2258C48.5567 21.2258 50.3468 20.8591 51.6354 21.4738C52.9294 22.0884 52.7515 20.7836 52.7515 20.7836Z" fill="#240046"/>
<path d="M48.3789 22.7416L45.338 21.3613L45.1762 21.6633L48.3789 23.0328V22.7416Z" fill="#E1B554" stroke="#E1B554" stroke-width="0.256857" stroke-miterlimit="10"/>
<path d="M69.5527 27.152C69.5527 27.152 68.3665 30.7483 68.1401 31.9884C67.7627 34.0049 66.9323 38.8952 65.1045 39.6069C62.5327 40.599 58.9849 40.7338 56.866 40.8578C55.2916 40.9494 52.2021 41.3161 50.5792 40.6475C48.9563 39.9789 47.8725 35.5685 47.8725 35.5685C47.8725 35.5685 47.1662 30.7429 46.9991 29.3248L47.4466 30.3654C47.975 31.5408 48.5303 31.6864 48.5303 31.6864C48.5303 31.6864 48.7352 30.9801 50.1155 30.3385C51.4958 29.6915 51.1184 29.066 51.1184 29.066L52.8491 28.9474L54.0677 29.1739C54.2348 30.414 54.9896 30.6296 54.9896 30.6296C57.6316 31.2443 58.3918 33.7083 58.3918 33.7083C58.3918 33.7083 59.8314 34.4416 63.4115 32.3604C66.9917 30.2792 68.1077 25.7231 68.1077 25.7231L69.5527 27.152Z" fill="#240046"/>
<path d="M56.3696 33.9021C56.3696 33.9021 53.4689 32.2684 52.9836 32.1659C52.4984 32.0635 52.0455 32.2846 52.0455 32.2846C52.0455 32.2846 51.7813 32.3115 51.4416 32.0635C51.1019 31.8155 50.2662 32.4463 50.1206 32.5919C49.9588 32.7536 49.8564 33.1203 49.6353 33.3791C49.6353 33.3791 50.6059 34.3712 51.3499 34.5437C52.094 34.7162 54.5742 34.754 55.577 34.4143C55.8035 34.3388 56.3696 33.9021 56.3696 33.9021Z" fill="#FB7F71"/>
<path opacity="0.3" d="M50.018 32.9481C50.1635 32.8026 51.1448 32.1124 51.4845 32.3604C51.8242 32.6084 52.0884 32.5815 52.0884 32.5815C52.0884 32.5815 52.5413 32.3604 53.0265 32.4629C53.2099 32.5006 53.7976 32.754 54.5093 33.0074C54.5093 33.0074 53.5549 32.3227 52.8378 32.2149C52.1207 32.107 52.0453 32.3604 52.0453 32.3604L51.2581 32.0854C51.2581 32.0854 50.4223 32.2849 50.2228 32.6138C50.018 32.9481 50.018 32.9481 50.018 32.9481Z" fill="white"/>
<path opacity="0.3" d="M56.1914 34.0366C56.1914 34.0366 55.8517 34.069 55.6253 34.1175C54.892 34.2631 51.5491 34.3709 50.7997 34.193C50.7997 34.193 50.6163 34.716 53.048 34.5812C55.4743 34.4464 55.2209 34.4464 55.2209 34.4464L56.1914 34.0366Z" fill="black"/>
<path d="M56.3696 33.9021C56.3696 33.9021 53.4689 32.2684 52.9836 32.1659C52.4984 32.0635 52.0455 32.2846 52.0455 32.2846C52.0455 32.2846 51.7813 32.3115 51.4416 32.0635C51.1019 31.8155 50.2662 32.4463 50.1206 32.5919C49.9588 32.7536 49.8564 33.1203 49.6353 33.3791C49.6353 33.3791 50.6059 34.3712 51.3499 34.5437C52.094 34.7162 54.5742 34.754 55.577 34.4143C55.8035 34.3388 56.3696 33.9021 56.3696 33.9021Z" stroke="#9E5346" stroke-width="0.128428" stroke-miterlimit="10" stroke-linecap="round" stroke-linejoin="round"/>
<path d="M56.1914 33.9451C56.1914 33.9451 54.4607 33.4706 53.0318 33.4706C51.5922 33.4706 51.2687 33.2496 51.2687 33.2496C51.2687 33.2496 50.8698 33.0231 50.4762 33.2118C50.0826 33.4005 49.8939 33.3035 49.8939 33.3035" stroke="#9E5346" stroke-width="0.128428" stroke-miterlimit="10" stroke-linecap="round"/>
<path d="M48.7624 23.0869C48.7624 23.0869 48.8703 21.2968 50.9353 22.6232L51.7656 23.1354L50.8005 23.6853C50.8005 23.6853 49.6251 24.273 49.1291 23.8093C49.1291 23.8093 48.8757 23.4481 48.7624 23.0869Z" fill="#FFE9E9"/>
<path d="M49.8032 23.8084C49.4518 23.8084 49.167 23.4198 49.167 22.9403C49.167 22.4609 49.4518 22.0723 49.8032 22.0723C50.1546 22.0723 50.4395 22.4609 50.4395 22.9403C50.4395 23.4198 50.1546 23.8084 49.8032 23.8084Z" fill="#37444C"/>
<path d="M49.802 23.3989C49.6233 23.3989 49.4785 23.1986 49.4785 22.9514C49.4785 22.7043 49.6233 22.5039 49.802 22.5039C49.9807 22.5039 50.1255 22.7043 50.1255 22.9514C50.1255 23.1986 49.9807 23.3989 49.802 23.3989Z" fill="black"/>
<path d="M48.8649 23.0869C48.8649 23.0869 48.8703 21.2968 50.9353 22.6232L51.7656 23.1354L50.7412 23.6584C50.7412 23.6584 49.6089 24.2353 49.1668 23.7231C49.032 23.5667 48.9835 23.4481 48.8649 23.0869Z" stroke="#C56858" stroke-width="0.115585" stroke-miterlimit="10"/>
<path d="M49.5923 22.8C49.5298 22.8 49.4791 22.73 49.4791 22.6437C49.4791 22.5573 49.5298 22.4873 49.5923 22.4873C49.6549 22.4873 49.7056 22.5573 49.7056 22.6437C49.7056 22.73 49.6549 22.8 49.5923 22.8Z" fill="#9BB0CF"/>
<path d="M72.4585 30.5488C72.4585 30.5488 72.2644 32.2958 71.4071 33.7785L70.938 33.1099C70.938 33.1099 70.1185 36.1347 67.924 36.5229L68.625 31.0826L72.4585 30.5488Z" fill="#240046" stroke="#240046" stroke-width="0.256857" stroke-linejoin="round"/>
<path d="M73.5637 25.1782C73.5637 25.1782 75.2406 21.4903 74.2647 17.6945C73.2887 13.8987 71.8384 12.0224 71.8384 12.0224L70.5875 11.2783C70.5875 11.2783 71.5634 11.0033 71.9947 11.2783C72.4261 11.5533 70.663 7.83299 66.9103 8.42069C66.9103 8.42069 68.0156 7.44478 69.5577 7.83299C69.5577 7.83299 68.1612 5.71942 65.6972 7.20755C65.6972 7.20755 66.5976 6.18851 67.3794 5.95666C67.3794 5.95666 66.0908 5.76256 64.9909 6.81934C64.9909 6.81934 65.0717 5.33122 65.3413 5.33122C65.3413 5.33122 63.4219 4.98076 63.0714 6.35026C63.0714 6.35026 63.0337 5.25573 63.7777 4.8244C63.7777 4.8244 63.0714 3.72987 61.5078 6.46888L62.2896 4.60873C62.2896 4.60873 61.1142 4.23669 60.3324 5.91892C60.3324 5.91892 60.1383 5.26113 60.6074 4.57098C60.6074 4.57098 59.4428 4.0372 58.2674 6.03754C58.2674 6.03754 57.2861 6.74385 56.1107 6.35026C54.9353 5.95666 52.6276 5.99979 50.9076 7.21294C50.9076 7.21294 52.1262 6.90022 52.6707 7.45017C52.6707 7.45017 50.7728 8.00013 49.9802 8.70106C49.1877 9.40738 48.5784 10.7337 48.2549 11.3592C47.9368 11.9846 48.9127 11.7096 48.9127 11.7096C48.9127 11.7096 48.1201 12.9659 50.0342 13.6884L50.2067 13.435C50.6003 12.8257 50.913 12.5346 51.5169 12.1356C54.4069 10.2215 59.2217 9.8495 62.6508 10.3024C64.8453 10.5936 67.2123 12.1949 68.6465 13.7585C69.9782 15.2143 67.773 18.3792 67.773 18.3792C69.9351 20.6707 68.6465 22.6225 68.6465 22.6225C68.6465 22.6225 67.1907 25.2267 69.5631 27.1516L73.5637 25.1782Z" fill="#240046"/>
<path d="M57.4209 23.3993C57.7013 23.5772 58.2674 23.8899 59.0762 23.9816C59.885 24.0732 62.0039 23.3993 62.0039 23.3993C62.0039 23.3993 61.2437 22.2994 59.7663 21.9111C58.289 21.5175 57.367 22.9518 57.367 22.9518L57.1891 23.2267C57.1945 23.2213 57.367 23.3615 57.4209 23.3993Z" fill="#FFE9E9"/>
<path d="M59.0758 23.7825C58.5309 23.7825 58.0891 23.3407 58.0891 22.7958C58.0891 22.2508 58.5309 21.8091 59.0758 21.8091C59.6207 21.8091 60.0625 22.2508 60.0625 22.7958C60.0625 23.3407 59.6207 23.7825 59.0758 23.7825Z" fill="#37444C"/>
<path d="M59.0763 23.2752C58.8113 23.2752 58.5964 23.0603 58.5964 22.7953C58.5964 22.5303 58.8113 22.3154 59.0763 22.3154C59.3413 22.3154 59.5562 22.5303 59.5562 22.7953C59.5562 23.0603 59.3413 23.2752 59.0763 23.2752Z" fill="black"/>
<path d="M58.7369 22.6282C58.6743 22.6282 58.6236 22.5581 58.6236 22.4718C58.6236 22.3854 58.6743 22.3154 58.7369 22.3154C58.7994 22.3154 58.8501 22.3854 58.8501 22.4718C58.8501 22.5581 58.7994 22.6282 58.7369 22.6282Z" fill="#9BB0CF"/>
<path d="M57.4209 23.3993C57.7013 23.5772 58.2674 23.8899 59.0762 23.9816C59.885 24.0732 62.0039 23.3993 62.0039 23.3993C62.0039 23.3993 61.2437 22.2994 59.7663 21.9111C58.289 21.5175 57.367 22.9518 57.367 22.9518L57.1891 23.2267C57.1945 23.2213 57.367 23.3615 57.4209 23.3993Z" stroke="#C56858" stroke-width="0.115585" stroke-miterlimit="10"/>
<path d="M62.2734 22.709C62.2734 22.709 61.524 21.4042 59.8795 21.3341C58.2404 21.2641 57.7875 21.6792 57.7875 21.6792" stroke="#C56858" stroke-width="0.128428" stroke-miterlimit="10" stroke-linecap="round" stroke-linejoin="round"/>
<path d="M62.5542 22.3149C62.5542 22.3149 61.9072 21.8242 61.1955 21.7002" stroke="#C56858" stroke-width="0.128428" stroke-miterlimit="10" stroke-linecap="round" stroke-linejoin="round"/>
<path d="M49.9374 21.7446C49.9374 21.7446 50.9619 21.7932 51.6089 22.4617" stroke="#C56858" stroke-width="0.128428" stroke-miterlimit="10" stroke-linecap="round" stroke-linejoin="round"/>
<path d="M54.5692 20.466C55.7015 19.8459 56.575 18.9132 58.8934 18.9671C61.2119 19.021 61.1903 19.1127 61.9397 19.3553C62.5975 19.5656 63.4656 19.7812 64.4307 20.6277C65.3905 21.4742 61.7564 20.6601 59.6051 20.5954C58.6454 20.563 56.6828 21.1292 55.2216 21.3718C54.3859 21.512 54.3212 20.6008 54.5692 20.466Z" fill="#240046"/>
<path opacity="0.2" d="M68.6201 14.206C68.5554 13.7692 67.159 12.7232 67.159 12.7232C67.159 12.7232 65.8002 11.3214 62.6245 10.4695C59.4488 9.6176 58.8233 11.0141 55.7716 10.7013C52.7199 10.3886 50.52 13.0198 49.7975 14.5888C49.0751 16.1578 48.1692 21.2314 48.4604 22.2019C48.7515 23.1724 47.5384 27.7446 47.5384 27.7446C48.0722 26.456 48.978 25.0002 49.3392 24.1483C49.6789 23.345 49.5549 22.1211 49.6142 21.2799C49.5873 21.7113 49.4848 21.5549 49.9377 19.5977C49.9377 19.5977 51.1886 15.1387 54.3266 13.6614C57.4646 12.1841 62.2848 12.5076 65.6061 13.4457C66.6791 13.7531 67.4932 13.656 68.4476 14.4432L68.6201 14.206Z" fill="white"/>
<path opacity="0.2" d="M67.7517 7.52621C66.9375 7.4022 66.3876 7.97911 65.9239 7.9252C65.7352 7.90363 65.347 7.42916 65.347 7.42916L65.5249 6.76597L67.013 6.03809L68.458 7.3321L67.7517 7.52621Z" fill="white"/>
<path opacity="0.2" d="M49.7054 12.1626C49.7054 12.1626 50.2716 9.67703 53.7277 8.54476C53.7277 8.54476 54.4879 8.35066 54.0997 7.8654C54.0997 7.8654 55.9059 8.28596 57.6529 8.05951C57.9278 8.02176 58.0572 7.81688 59.0763 7.57425C59.8796 7.38554 60.9472 7.61199 61.7182 7.45563C61.7452 7.45024 63.3519 7.35319 63.9774 7.13752C64.5974 6.92724 64.4465 6.21553 64.5651 6.12387C65.2013 5.62244 64.1391 5.55235 64.2524 5.47147C64.4087 5.36363 62.8181 6.80323 62.899 6.60374C63.2764 5.67096 61.4001 5.24502 61.5942 4.93769C61.7991 4.61957 60.3433 6.22631 60.3433 6.22631L59.9174 4.93769L57.7391 6.57138L53.3988 6.50668L52.6547 6.8194L49.851 9.27804L48.7942 11.2892L49.4358 13.1116L49.7054 12.1626Z" fill="white"/>
<path d="M73.5637 25.1782C73.5637 25.1782 75.2406 21.4903 74.2647 17.6945C73.2887 13.8987 71.8384 12.0224 71.8384 12.0224L70.5875 11.2783C70.5875 11.2783 71.5634 11.0033 71.9947 11.2783C72.4261 11.5533 70.663 7.83299 66.9103 8.42069C66.9103 8.42069 68.0156 7.44478 69.5577 7.83299C69.5577 7.83299 68.1612 5.71942 65.6972 7.20754C65.6972 7.20754 66.5976 6.18851 67.3794 5.95666C67.3794 5.95666 66.0908 5.76256 64.9909 6.81934C64.9909 6.81934 65.0717 5.33122 65.3413 5.33122C65.3413 5.33122 63.4219 4.98076 63.0714 6.35026C63.0714 6.35026 63.0337 5.25573 63.7777 4.82439C63.7777 4.82439 63.0714 3.72987 61.5078 6.46888L62.2896 4.60873C62.2896 4.60873 61.1142 4.23669 60.3324 5.91892C60.3324 5.91892 60.1383 5.26113 60.6074 4.57098C60.6074 4.57098 59.4428 4.0372 58.2674 6.03754C58.2674 6.03754 57.2861 6.74386 56.1107 6.35026C54.9353 5.95666 52.6276 5.99979 50.9076 7.21294C50.9076 7.21294 52.1262 6.90022 52.6707 7.45017C52.6707 7.45017 50.7728 8.00013 49.9803 8.70106C49.1877 9.40738 48.5784 10.7337 48.2549 11.3592C47.9368 11.9846 48.9127 11.7096 48.9127 11.7096C48.9127 11.7096 48.1201 12.9659 50.0342 13.6884L50.2067 13.435C50.6003 12.8257 50.913 12.5346 51.5169 12.1356C54.4069 10.2215 59.2217 9.8495 62.6508 10.3024C64.8453 10.5936 67.2123 12.1949 68.6465 13.7585C69.9782 15.2143 67.773 18.3792 67.773 18.3792C69.9351 20.6707 68.6465 22.6225 68.6465 22.6225C68.6465 22.6225 67.1907 25.2267 69.5631 27.1516L73.5637 25.1782Z" stroke="#240046" stroke-width="0.513713" stroke-linejoin="round"/>
<path d="M48.3794 19.328C48.3794 19.328 48.6166 14.0495 51.5066 12.1354C54.3965 10.2214 59.2114 9.84933 62.6405 10.3022C64.835 10.5934 67.2019 12.1947 68.6361 13.7583C69.9679 15.2141 67.7627 18.3791 67.7627 18.3791C69.9248 20.6706 68.6361 22.6224 68.6361 22.6224C68.6361 22.6224 67.1804 25.2266 69.5527 27.1514C69.5527 27.1514 68.3665 30.7477 68.1401 31.9878C67.7627 34.0043 66.9323 38.8946 65.1045 39.6063C62.5327 40.5984 58.9849 40.7332 56.866 40.8572C55.2916 40.9489 52.2021 41.3155 50.5792 40.647C48.9563 39.9784 47.8725 35.5679 47.8725 35.5679C47.8725 35.5679 47.1662 30.7423 46.9991 29.3243C46.8319 27.9117 47.9103 25.1241 48.2554 23.8301C48.4764 22.989 48.1799 21.792 48.1152 20.9509C48.0774 20.5411 48.3794 19.328 48.3794 19.328Z" stroke="#240046" stroke-width="0.513713" stroke-linejoin="round"/>
<path opacity="0.4" d="M68.7553 24.769C68.7553 24.769 67.3372 30.5652 67.1054 31.8053C66.728 33.8218 65.5903 37.7739 63.7571 38.4802C61.1853 39.4723 57.7076 40.0331 55.5994 40.2811C54.6613 40.3943 52.181 40.858 50.7954 40.831C50.7954 40.831 58.2791 41.9148 65.0134 39.9414C71.7477 37.968 65.0134 39.9414 65.0134 39.9414C65.0134 39.9414 65.9084 40.2703 66.6848 37.7362C67.4612 35.2021 69.5479 26.4243 69.5479 26.4243C69.5479 26.4243 69.1273 25.9444 69.0518 25.7665C68.8254 25.3352 68.7553 24.769 68.7553 24.769Z" fill="black"/>
<path opacity="0.2" d="M62.1118 20.3639C61.9069 20.1321 61.6427 19.8355 61.0981 19.6522C60.5482 19.4635 59.9227 19.2478 58.4508 19.3665C56.9735 19.4905 56.1431 19.7331 55.2373 20.6389C54.3315 21.5447 54.628 23.0868 54.628 23.0868C54.628 23.0868 54.8922 24.4401 55.3344 25.1895C55.7819 25.939 56.0245 26.2841 56.6068 26.6238C57.1945 26.9688 57.9224 27.0713 57.9224 27.0713C57.9224 27.0713 58.7419 27.3085 60.0467 26.9688C61.6104 26.5644 62.1657 25.2489 62.1657 25.2489C62.1657 25.2489 62.8181 24.0735 62.8774 23.0436C62.9367 22.0138 62.9205 21.5339 62.6563 21.0649C62.3922 20.5958 62.3275 20.5688 62.1873 20.4394C62.1657 20.4232 62.128 20.3801 62.1118 20.3639Z" fill="white"/>
<path d="M62.1441 20.4282C62.1441 20.4282 61.6427 19.8351 61.0981 19.6464C60.5482 19.4577 59.9227 19.242 58.4508 19.3606C56.9735 19.4846 56.1431 19.7272 55.2373 20.6331C54.3315 21.5389 54.628 23.0809 54.628 23.0809C54.628 23.0809 54.8922 24.4342 55.3344 25.1837C55.7819 25.9331 56.0245 26.2782 56.6068 26.6179C57.1945 26.963 57.9224 27.0654 57.9224 27.0654C57.9224 27.0654 58.7419 27.3026 60.0467 26.963C61.6104 26.5586 62.1657 25.243 62.1657 25.243C62.1657 25.243 62.8181 24.0676 62.8774 23.0378C62.9367 22.008 62.9205 21.5281 62.6563 21.059C62.3922 20.5899 62.1657 20.4443 62.1657 20.4443L62.1441 20.4282Z" stroke="#E1B554" stroke-width="0.256857" stroke-miterlimit="10"/>
<path d="M54.7358 21.4581L53.9055 20.9998C53.9055 20.9998 52.4282 20.7895 51.8459 21.2263C51.8459 21.2263 51.7812 21.8517 51.5116 22.0404" stroke="#E1B554" stroke-width="0.128428" stroke-miterlimit="10"/>
<path d="M45.3379 21.1562L44.4375 21.2479L44.3782 21.7224H44.982L45.3379 21.1562Z" fill="#E1B554" stroke="#E1B554" stroke-width="0.256857" stroke-miterlimit="10"/>
<path opacity="0.2" d="M51.5114 22.6766C51.5114 22.6766 51.6192 21.2855 50.8536 20.6762C50.088 20.067 49.4464 19.9268 49.4464 19.9268C49.4464 19.9268 48.4165 19.6949 47.5592 19.9268C46.702 20.1586 46.125 20.4228 45.6991 20.8649C45.4619 21.1076 45.4025 21.2424 45.2678 21.4904C45.0898 21.8247 45.0036 22.2937 44.9874 22.9839C44.9712 23.6686 45.0629 24.1701 45.0629 24.1701C45.0629 24.1701 45.2031 25.0597 45.656 25.8415C46.1089 26.6233 46.7774 26.8713 46.7774 26.8713C46.7774 26.8713 47.4676 27.1733 48.244 27.1463C49.0204 27.1194 49.786 26.591 50.1473 26.1974C50.4762 25.8361 50.8644 25.1514 51.1016 24.4936C51.3389 23.8466 51.5114 22.6766 51.5114 22.6766Z" fill="white"/>
<path opacity="0.2" d="M49.937 20.8221C49.9047 20.6819 49.4625 20.4878 49.4625 20.4878C49.4625 20.4878 49.2577 20.4015 48.9288 20.326C48.6053 20.2505 48.1739 20.3206 48.1739 20.3206C48.1739 20.3206 47.7318 20.3853 47.2519 20.5309C46.7721 20.6765 46.3353 20.9191 46.1358 21.0647C45.9525 21.1941 45.753 21.4044 45.6506 21.5769C45.5427 21.7494 45.4133 22.0837 45.5104 22.019C46.0064 21.674 46.3946 21.4691 46.7127 21.3289C46.9877 21.2049 47.3436 20.9892 47.8881 20.8814C48.3896 20.7735 49.937 20.8221 49.937 20.8221Z" fill="white"/>
<path d="M63.1585 21.0108L62.436 21C62.3443 20.725 61.9723 20.3691 61.9723 20.3691H62.2635C63.0183 20.3853 63.3903 20.4446 63.7408 20.4123C64.0913 20.3799 64.3554 20.5902 64.3554 20.5902L71.2461 24.3321L71.1221 24.5316L64.7221 21.3558C64.7221 21.3558 64.5711 21.4097 64.3554 21.3774C64.1398 21.345 63.9565 21.2588 63.9565 21.2588C63.9565 21.2588 63.8378 21.1294 63.633 21.097C63.4227 21.0593 63.1585 21.0108 63.1585 21.0108Z" fill="#E1B554" stroke="#E1B554" stroke-width="0.256857" stroke-miterlimit="10"/>
<path opacity="0.4" d="M68.636 24.8282C68.636 24.8282 71.0353 23.669 71.7309 22.9519C73.0411 21.6039 73.9038 19.3771 72.9225 15.5813C72.8092 15.15 72.6906 14.7402 72.572 14.3574C72.572 14.3574 75.5159 17.3337 73.715 24.2243L70.8197 24.5262L69.3369 27.1466L68.636 24.8282Z" fill="black"/>
<path d="M51.5114 22.6766C51.5114 22.6766 51.6192 21.2855 50.8536 20.6762C50.088 20.067 49.4464 19.9268 49.4464 19.9268C49.4464 19.9268 48.4165 19.6949 47.5592 19.9268C46.702 20.1586 46.125 20.4228 45.6991 20.8649C45.4619 21.1076 45.4025 21.2424 45.2678 21.4904C45.0898 21.8247 45.0036 22.2937 44.9874 22.9839C44.9712 23.6686 45.0629 24.1701 45.0629 24.1701C45.0629 24.1701 45.2031 25.0597 45.656 25.8415C46.1089 26.6233 46.7774 26.8713 46.7774 26.8713C46.7774 26.8713 47.4676 27.1733 48.244 27.1463C49.0204 27.1194 49.786 26.591 50.1473 26.1974C50.4762 25.8361 50.8644 25.1514 51.1016 24.4936C51.3389 23.8466 51.5114 22.6766 51.5114 22.6766Z" stroke="#E1B554" stroke-width="0.256857" stroke-miterlimit="10"/>
<path d="M70.8193 24.7852C70.8193 24.7852 71.229 24.6935 72.2103 24.5317C73.1916 24.37 73.7362 25.4429 73.7362 25.4429C73.7362 25.4429 74.5396 27.0281 73.7362 28.3006C72.9328 29.573 72.7765 30.8023 71.0565 31.6866C69.3365 32.5708 68.2906 31.3361 68.2906 31.3361C68.2906 31.3361 70.1345 25.5184 70.8193 24.7852Z" fill="#FB8671"/>
<path opacity="0.3" d="M70.7439 24.8013C70.7439 24.8013 71.1537 24.7096 72.135 24.5479C73.1163 24.3861 73.6609 25.4591 73.6609 25.4591C73.6609 25.4591 73.8226 25.3836 73.0246 26.656C72.2267 27.9285 72.0649 29.1578 70.3449 30.042C68.625 30.9209 68.9161 29.4436 68.9161 29.4436C68.9161 29.4436 70.0592 25.5345 70.7439 24.8013Z" fill="black"/>
<path d="M70.8193 24.7852C70.8193 24.7852 71.229 24.6935 72.2103 24.5317C73.1916 24.37 73.7362 25.4429 73.7362 25.4429C73.7362 25.4429 74.5396 27.0281 73.7362 28.3006C72.9328 29.573 72.7765 30.8023 71.0565 31.6866C69.3365 32.5708 68.7165 31.6812 68.7165 31.6812C68.7165 31.6812 70.1345 25.5184 70.8193 24.7852Z" stroke="#240046" stroke-width="0.513713" stroke-linejoin="round"/>
<path d="M52.811 22.2671C52.811 22.2671 52.1964 22.7146 51.9052 23.89C51.6141 25.06 50.2068 25.9389 50.0019 26.7638C49.797 27.5833 50.1475 27.9662 50.3254 28.2573C50.5034 28.5485 51.5871 29.0499 51.5871 29.0499C51.5871 29.0499 52.6708 28.3759 54.1967 29.0499C55.7226 29.7239 55.426 27.675 55.2804 27.524" fill="#FB8671"/>
<path opacity="0.2" d="M53.0645 22.3267C53.0645 22.3267 52.5468 23.5344 52.2503 24.7044C51.9591 25.8744 50.5519 26.7533 50.347 27.5782C50.3147 27.7076 50.2931 27.8316 50.2877 27.9395C50.25 28.5164 49.975 26.516 50.1206 26.7641L51.6896 24.6559L52.3635 23.033L53.0645 22.3267Z" fill="white"/>
<path d="M55.0969 27.7077C55.2425 27.8533 55.1346 29.0017 53.6088 28.3278C52.0829 27.6538 50.9992 28.3278 50.9992 28.3278C50.9992 28.3278 50.6164 28.1498 50.2713 27.9503C50.2713 27.9503 50.2605 28.9262 51.5923 29.0287C52.924 29.1365 52.8432 28.7915 52.8432 28.7915L54.9567 29.3522C54.9567 29.3522 55.5983 28.9101 55.3341 28.2307C55.0753 27.5514 55.2748 27.5999 55.2748 27.5999L55.0969 27.7077Z" fill="#C56858"/>
<path d="M52.811 22.2671C52.811 22.2671 52.1964 22.7146 51.9052 23.89C51.6141 25.06 50.2068 25.9389 50.0019 26.7638C49.797 27.5833 50.1475 27.9662 50.3254 28.2573C50.5034 28.5485 51.5871 29.0499 51.5871 29.0499C51.5871 29.0499 52.6708 28.3759 54.1967 29.0499C55.7226 29.7239 55.426 27.675 55.2804 27.524" stroke="#C56858" stroke-width="0.256857" stroke-linecap="round" stroke-linejoin="round"/>
<path opacity="0.3" d="M67.251 39.3051L67.0784 37.7954L64.8247 39.9521C64.8247 39.9521 57.1954 41.3054 51.7659 41.2407H51.0973L49.593 44.3518L48.8651 44.7885C49.3342 45.9316 49.7979 46.7888 50.5743 47.1123C52.1972 47.7809 55.2867 47.4143 56.8611 47.3226C58.98 47.1986 62.5332 47.0692 65.0997 46.0717C66.9329 45.3654 66.8789 41.3216 67.251 39.3051Z" fill="black"/>
<path opacity="0.2" d="M60.0195 20.6121C59.9872 20.4719 59.5451 20.2778 59.5451 20.2778C59.5451 20.2778 59.3402 20.1915 59.0113 20.1161C58.6878 20.0406 58.2564 20.1107 58.2564 20.1107C58.2564 20.1107 57.8143 20.1754 57.3344 20.3209C56.8546 20.4665 56.4179 20.7092 56.2184 20.8547C56.035 20.9841 55.8355 21.1944 55.7331 21.3669C55.6253 21.5395 55.4959 21.8738 55.5929 21.8091C56.089 21.464 56.4772 21.2591 56.7953 21.1189C57.0703 20.9949 57.4261 20.7792 57.9707 20.6714C58.4775 20.569 60.0195 20.6121 60.0195 20.6121Z" fill="white"/>
<path d="M96.4895 69.8597C96.4895 69.8597 102.863 68.8245 99.3903 73.1001C99.3903 73.1001 95.5999 74.2809 96.4895 69.8597Z" fill="#240046"/>
<path opacity="0.3" d="M96.4895 69.8597C96.4895 69.8597 102.863 68.8245 99.3903 73.1001C99.3903 73.1001 95.5999 74.2809 96.4895 69.8597Z" fill="black"/>
<path d="M100.269 70.7555C99.9612 67.8547 82.9826 71.2354 74.4313 73.1225C71.1208 73.8557 67.7294 74.1415 64.3434 73.9798L47.9633 73.2087L48.4755 66.9759L49.4945 65.752C49.4945 65.752 68.4087 44.5031 74.0809 33.876L71.8379 38.4482L71.9134 39.575L77.6394 45.08L90.4286 52.6015L93.049 55.2327L100.269 70.7555Z" fill="#5A189A"/>
<path opacity="0.3" d="M92.9692 56.0254L96.3552 68.2053C93.9559 68.27 82.4391 69.7528 74.427 73.128L95.5734 69.6557L99.8599 69.893L92.9692 56.0254Z" fill="black"/>
<path d="M48.9832 43.4028C48.9832 43.4028 44.2816 50.4229 39.1756 53.5932C39.1756 53.5932 36.5175 54.1054 34.9862 56.5533C33.455 59.0065 31.514 63.0935 28.9583 69.2185C28.9583 69.2185 26.7207 71.7742 47.6622 72.3834L48.471 66.9701L50.6924 64.3821C50.6924 64.3821 50.5145 65.9349 47.9588 60.2736C45.4085 54.6177 48.9832 43.4028 48.9832 43.4028Z" fill="#5A189A"/>
<path d="M70.4741 38.9331C70.4741 38.9331 59.9441 42.4216 52.7569 56.8283C52.7569 56.8283 52.5358 46.5085 49.4302 44.093C46.3245 41.6775 47.0578 53.9545 47.0578 53.9545C47.0578 53.9545 47.1818 61.5137 49.5757 63.142C51.9751 64.7703 57.7334 56.1274 57.7334 56.1274L70.4741 38.9331Z" fill="#9D4EDD"/>
<path opacity="0.3" d="M52.6651 57.8961C52.6651 57.8961 54.8542 46.6813 70.7383 38.2217L73.2939 40.7882C73.2939 40.7882 60.4993 45.177 52.0397 59.1255" fill="black"/>
<path opacity="0.2" d="M51.0962 47.6779C51.0962 47.6779 50.6756 48.2494 49.937 49.1283C49.662 49.4572 49.3439 49.8292 48.9826 50.2282C47.295 52.1099 44.7501 54.644 41.8871 56.4179C41.8871 56.4179 39.229 56.9301 37.6977 59.378C36.215 61.7557 34.7323 65.0339 32.2952 70.8516L29.1895 69.4606C29.1895 69.4606 33.8534 56.887 36.8027 55.0538C39.752 53.2206 43.1164 50.8968 43.1164 50.8968L48.9018 43.8066L50.0502 44.8365L51.0962 47.6779Z" fill="white"/>
<path d="M50.8809 64.1718C50.8809 64.1718 44.8259 61.7995 47.6943 45.1821" stroke="#240046" stroke-width="0.513713" stroke-miterlimit="10"/>
<path d="M100.269 70.7557C99.9612 67.8549 82.9826 71.2356 74.4313 73.1227C71.1208 73.856 67.7294 74.1417 64.3434 73.98L47.9633 73.2089L48.4755 66.9761L49.4945 65.7522C49.4945 65.7522 65.2923 47.7923 72.3339 36.626" stroke="#240046" stroke-width="0.513713" stroke-miterlimit="10"/>
<path d="M48.9829 43.4028C48.9829 43.4028 44.2813 50.4229 39.1753 53.5932C39.1753 53.5932 36.5172 54.1054 34.9859 56.5533C33.4547 59.0065 31.5137 63.0935 28.958 69.2185C28.958 69.2185 26.9199 71.7742 47.8614 72.3834" stroke="#240046" stroke-width="0.513713" stroke-miterlimit="10"/>
<path d="M71.5367 38.2271C71.5367 38.2271 72.4802 41.64 82.2878 47.9753C82.2878 47.9753 90.8714 51.3452 92.6076 55.2272C94.3437 59.1093 100.269 70.7554 100.269 70.7554C100.269 70.7554 102.005 72.4916 96.8994 73.8179" stroke="#240046" stroke-width="0.513713" stroke-miterlimit="10"/>
<path d="M72.8901 30.4033C72.8901 30.4033 78.3034 33.4658 68.3934 39.5962C58.4834 45.7267 54.0945 53.5932 54.0945 53.5932C54.0945 53.5932 53.345 54.7848 53.0377 55.9117C52.7304 57.0331 50.1424 65.0668 50.1424 65.0668" stroke="#240046" stroke-width="0.513713" stroke-miterlimit="10"/>
<path d="M49.7702 62.732C50.5844 60.2303 51.8892 56.1757 52.051 55.4316C52.2882 54.3425 52.2558 53.593 52.2558 53.593C52.2558 50.633 50.8216 45.624 48.5787 42.8688C46.3303 40.1083 46.2279 36.636 46.8371 34.0803C46.9773 33.5142 47.193 33.0289 47.4464 32.6191" stroke="#240046" stroke-width="0.513713" stroke-miterlimit="10" stroke-linecap="round"/>
</svg>
