<svg width="87" height="86" viewBox="0 0 87 86" fill="none" xmlns="http://www.w3.org/2000/svg">
<circle r="41.8783" transform="matrix(-1 0 0 1 43.389 43)" fill="#0C0E19"/>
<mask id="mask0" mask-type="alpha" maskUnits="userSpaceOnUse" x="1" y="1" width="85" height="84">
<circle r="41.8783" transform="matrix(-1 0 0 1 43.389 43)" fill="#B53B3B"/>
</mask>
<g mask="url(#mask0)">
<path d="M27.8432 78.3655C27.8432 78.3655 30.5531 79.9681 30.8551 89.1246C31.1611 98.2811 30.8551 108.883 30.8551 108.883C30.8551 108.883 30.8913 111.895 28.0687 108.541C25.246 105.183 23.6434 98.7361 23.6434 98.7361C23.6434 98.7361 22.4234 91.5245 22.9951 79.356C22.9992 79.356 25.097 76.6461 27.8432 78.3655Z" fill="#240046"/>
<path opacity="0.3" d="M27.8432 78.3655C27.8432 78.3655 30.5531 79.9681 30.8551 89.1246C31.1611 98.2811 30.8551 108.883 30.8551 108.883C30.8551 108.883 30.8913 111.895 28.0687 108.541C25.246 105.183 23.6434 98.7361 23.6434 98.7361C23.6434 98.7361 22.4234 91.5245 22.9951 79.356C22.9992 79.356 25.097 76.6461 27.8432 78.3655Z" fill="black"/>
<path d="M28.8217 79.2036L28.1774 78.9459L27.1989 78.5271L27.5493 76.3286L26.3534 73.6388C26.3534 73.6388 27.3318 71.3316 26.4419 70.8162C25.5521 70.3008 25.0165 70.1477 24.6743 70.643C24.332 71.1383 23.8528 72.3342 23.8528 72.3342L19.1618 70.9571L17.9981 72.5677L18.7793 73.5019L18.1512 74.5529L19.0692 75.7286L18.5941 77.1299L19.6249 78.4466L19.8222 80.2022C19.8222 80.2022 20.5993 80.8706 22.2583 80.7176C23.9173 80.5646 24.5897 81.9658 24.5897 81.9658L26.9251 83.5121L30.2994 84.2248L28.8217 79.2036Z" fill="#FB8671"/>
<path opacity="0.3" d="M24.7911 79.3762C26.0071 79.4245 26.1843 78.1561 26.1843 77.2783C26.1843 76.6945 25.846 76.4126 25.8662 76.1871C25.8984 75.8046 26.0997 75.1684 26.0876 74.9107C26.0796 74.7617 26.0151 74.5725 25.7856 74.4879C26.0353 74.5322 26.6675 74.3872 26.6594 74.3268C26.5426 73.5417 24.9884 73.4933 24.7427 73.6343C24.175 73.9644 24.477 78.8085 24.8192 81.4137C24.8676 81.7761 25.0649 82.0458 25.1051 82.3036C25.1535 82.6217 28.2781 83.8457 29.6673 83.9988C30.4646 84.0873 29.8847 83.3022 29.8726 83.121C29.8646 83.0122 25.4635 81.6633 25.3789 81.611C25.2219 81.5103 25.081 81.015 25.1051 81.1197C25.1414 81.2848 24.7911 79.3762 24.7911 79.3762Z" fill="black"/>
<path d="M20.6315 70.9525C20.6315 70.9525 20.3859 71.1136 19.8181 71.1539" stroke="#240046" stroke-width="1.61164" stroke-linecap="round" stroke-linejoin="round"/>
<path d="M26.4419 73.3484C26.4419 73.3484 27.7586 75.3456 27.5251 76.6261C27.2915 77.9065 27.211 78.136 27.211 78.136C27.211 78.136 26.8566 78.9615 28.1774 78.7521" stroke="#240046" stroke-width="1.61164" stroke-linecap="round" stroke-linejoin="round"/>
<path d="M22.0811 80.5238C22.7737 80.9144 24.4407 80.85 24.4407 80.85L24.6903 82.2593C24.6903 82.2593 26.3372 83.8055 29.9249 84.2202" stroke="#240046" stroke-width="1.61164" stroke-linecap="round" stroke-linejoin="round"/>
<path d="M19.1376 70.876C19.7134 70.5459 20.3496 70.3083 20.3496 70.3083" stroke="#240046" stroke-width="1.61164" stroke-linecap="round" stroke-linejoin="round"/>
<path d="M39.633 94.9994C39.633 94.9994 33.3193 99.7347 31.2094 107.067C31.2094 107.067 31.306 101.172 30.549 87.2885C30.549 87.2885 30.855 79.9882 27.5009 77.8783C27.5009 77.8783 28.9424 77.4032 30.9919 77.2059C33.7904 76.9401 37.5312 76.8193 38.5539 75.6516C39.3753 74.504 38.574 66.1609 38.574 66.1609H40.1686L39.633 94.9994Z" fill="#5A189A"/>
<path opacity="0.2" d="M38.7795 75.6677C38.7594 76.7589 38.695 77.5562 38.5541 77.6689C38.0306 78.0877 37.4951 78.9655 34.5597 78.9292C33.1664 78.9131 30.9196 79.1386 28.9949 79.3762C28.4634 79.4406 27.7547 77.8058 27.505 77.6729L37.0481 76.8153L38.3004 76.167L38.7795 75.6677Z" fill="white"/>
<path d="M27.501 77.8783C27.501 77.8783 30.5532 79.9641 30.8592 89.1206C31.1653 98.2771 30.8592 108.879 30.8592 108.879C30.8592 108.879 30.8955 111.891 28.0728 108.537C27.1829 107.478 26.9333 107.168 26.2971 105.791" stroke="#240046" stroke-width="1.61164" stroke-miterlimit="10"/>
<path d="M38.554 65.7703C38.554 65.7703 39.0774 75.2328 38.554 75.6516C38.0305 76.0704 37.495 76.9482 34.5596 76.9119C32.7838 76.8878 29.6149 77.2622 27.5009 77.5522" stroke="#240046" stroke-width="1.61164" stroke-miterlimit="10"/>
<path d="M26.8767 155.978L25.1412 156.172L19.0892 33.2876L22.983 33.0944L26.8767 155.978Z" fill="#E1B554"/>
<path opacity="0.4" d="M26.8767 155.978L25.1412 156.172L22.1293 35.4419L21.32 34.8862L20.7281 33.5775L22.6125 33.4809L22.7132 35.5466L26.8767 155.978Z" fill="black"/>
<path d="M20.2007 13.8673L18.888 25.2344L22.4636 25.0935L20.2007 13.8673Z" fill="#B53B3B"/>
<path opacity="0.2" d="M20.0959 14.7814L19.0892 25.1136L21.0421 25.0371L20.0959 14.7814Z" fill="white"/>
<path d="M21.6341 30.0583H19.6369L18.888 25.2344L22.4636 25.0935L21.6341 30.0583Z" fill="#B53B3B"/>
<path opacity="0.3" d="M21.6341 30.0583L21.1751 27.8557L21.0583 25.2344L22.4636 25.0935L21.6341 30.0583Z" fill="black"/>
<path d="M20.2007 13.8673L18.888 25.2344L15.6184 24.3727L20.2007 13.8673Z" fill="#B53B3B"/>
<path opacity="0.3" d="M19.6289 15.7558L18.6464 25.0935L15.3486 24.0506L19.6289 15.7558Z" fill="white"/>
<path d="M19.0892 30.0583L18.8879 25.2344L15.6183 24.3727L17.5752 28.9147L19.0892 30.0583Z" fill="#B53B3B"/>
<path d="M20.2008 13.8673L25.842 24.1231L22.4637 25.0935L20.2008 13.8673Z" fill="#B53B3B"/>
<path d="M22.1255 30.3562L23.6838 29.0758L25.842 24.1231L22.4637 25.0935L22.1255 30.3562Z" fill="#B53B3B"/>
<path opacity="0.3" d="M22.1255 29.869L24.2233 28.5886L25.842 24.1231L22.4637 25.0935L22.1255 29.869Z" fill="black"/>
<path d="M20.2008 13.8673L25.842 24.1231L22.4637 25.0935L20.2008 13.8673Z" stroke="#240046" stroke-miterlimit="10" stroke-linejoin="bevel"/>
<path d="M19.6088 31.077L18.888 25.2344L22.4636 25.0935L21.7147 30.9683L19.6088 31.077Z" stroke="#240046" stroke-miterlimit="10" stroke-linejoin="bevel"/>
<path d="M20.2007 13.8673L18.888 25.2344L15.6184 24.3727" stroke="#240046" stroke-miterlimit="10" stroke-linejoin="bevel"/>
<path d="M26.8767 155.978L25.1412 156.172L19.0892 33.2876L22.983 33.0944L26.8767 155.978Z" stroke="#240046" stroke-miterlimit="10"/>
<path d="M20.2007 13.8673L18.888 25.2344L22.4636 25.0935L20.2007 13.8673Z" stroke="#240046" stroke-miterlimit="10" stroke-linejoin="bevel"/>
<path d="M20.2008 13.8673L25.842 24.1231L24.014 28.3228L20.5833 32.2609L17.4144 28.4517L15.6185 24.3727L20.2008 13.8673Z" stroke="#240046" stroke-miterlimit="10"/>
<path d="M22.983 33.0944L19.0892 33.2877L17.4142 28.4517L19.6087 31.0771L20.7079 27.4249L21.7146 30.9683L24.0138 28.3229L22.983 33.0944Z" fill="#5A189A"/>
<path opacity="0.4" d="M22.2703 30.7106L24.0138 28.3228L22.983 33.0944H20.6757L22.2703 30.7106Z" fill="black"/>
<path d="M22.983 33.0944L19.0892 33.2877L17.4142 28.4517L19.6087 31.0771L20.7079 27.4249L21.7146 30.9683L24.0138 28.3229L22.983 33.0944Z" stroke="#240046" stroke-miterlimit="10"/>
<path d="M19.8182 70.7592L23.8609 72.7242L24.5615 70.9525L24.7709 72.5631L24.1307 73.0504L24.3602 74.057L25.3829 74.6731L25.0447 78.14L24.2676 79.0782L23.5307 80.5237L20.3175 80.6647L19.5162 78.3091L18.6786 76.5535L19.4195 75.5549L18.1471 74.3469L19.1216 73.5577L18.1471 72.1766L18.6223 71.3189L19.8182 70.7592Z" fill="#FB8671"/>
<path opacity="0.2" d="M19.5161 70.7592L18.2437 71.4961L18.6544 72.7443C18.6544 72.7443 19.2826 72.4182 19.5121 72.4182C20.6516 72.4141 22.6166 73.5698 24.03 73.002C24.7266 72.7242 20.5067 71.0934 20.0879 70.8881C20.0557 70.872 20.0396 70.8639 20.0114 70.8518C19.7779 70.7512 19.5161 70.7592 19.5161 70.7592Z" fill="white"/>
<path opacity="0.2" d="M19.2747 73.5778L18.2479 74.2704L18.1955 74.9348C18.1955 74.9348 19.2867 75.2328 19.182 75.0314C18.8277 74.3509 19.2747 73.5778 19.2747 73.5778Z" fill="white"/>
<path opacity="0.3" d="M24.6381 74.6126C24.6381 74.6126 23.6193 75.4341 22.206 74.8865C21.4731 74.6006 19.3471 74.1979 19.0894 73.9966C18.8357 73.7952 20.4745 73.9966 20.4745 73.9966L24.6381 74.6126Z" fill="black"/>
<path opacity="0.3" d="M25.6005 76.6824C25.6005 76.6824 25.5159 77.2743 23.4945 77.1253C20.0437 76.8676 19.774 76.2676 19.5163 76.0663C19.2626 75.865 21.5014 76.1066 21.5014 76.1066L25.6005 76.6824Z" fill="black"/>
<path opacity="0.3" d="M24.6381 78.8285C24.6381 78.8285 24.0623 79.3681 22.5483 79.2392C19.1015 78.9453 20.4746 78.7319 20.2209 78.5265C19.9672 78.3252 20.7323 78.2527 20.7323 78.2527L24.6381 78.8285Z" fill="black"/>
<path opacity="0.2" d="M18.7954 75.9817L18.6625 76.9441L18.7793 77.6085L19.8423 78.0192C19.8423 78.0192 18.8477 76.9199 19.8987 75.9334C20.4745 75.3938 19.6974 76.0784 19.2101 75.9898C19.1739 75.9817 19.033 75.9455 19.0008 75.9415C18.7269 75.9012 18.7954 75.9817 18.7954 75.9817Z" fill="white"/>
<path opacity="0.2" d="M19.1901 79.3802L19.5163 80.1251L19.8988 80.6969L21.0021 80.4271C21.0021 80.4271 19.6814 79.9198 20.2209 78.4138C20.4867 77.6729 20.0437 78.7279 19.5968 78.9332C19.5646 78.9493 19.4277 78.9977 19.3955 79.0138C19.1579 79.1346 19.1901 79.3802 19.1901 79.3802Z" fill="white"/>
<path d="M20.3377 71.2062C20.4706 71.4115 23.7039 72.5309 24.1106 72.6557C24.5173 72.7806 24.2717 73.7067 24.2717 73.7067C24.2717 73.7067 24.1308 74.6248 22.7416 74.2583C21.3524 73.8919 19.6854 73.5738 19.6854 73.5738C19.6854 73.5738 18.8318 73.5094 18.5539 73.1027C18.2761 72.696 17.962 72.233 18.2962 71.5847C18.4251 71.335 18.7673 71.0854 19.1378 70.872C19.3351 70.7592 19.5404 70.6586 19.7216 70.57" stroke="#240046" stroke-width="1.61164" stroke-linecap="round" stroke-linejoin="round"/>
<path d="M23.9737 74.1657C23.9737 74.1657 25.1777 74.3429 25.1897 74.9509C25.2018 75.559 25.1495 76.0099 24.7911 76.1428C24.4327 76.2757 21.2437 76.0502 21.2437 76.0502C21.2437 76.0502 19.9753 75.8368 19.5283 75.6113C18.7995 75.2449 18.7109 75.0677 18.4693 74.8462C18.2761 74.6691 18.268 74.1376 18.7069 73.8195C19.327 73.3725 19.323 73.5175 19.323 73.5175" stroke="#240046" stroke-width="1.61164" stroke-linecap="round" stroke-linejoin="round"/>
<path d="M22.3188 76.1871L24.3442 76.3119C24.3442 76.3119 25.4354 76.1991 25.379 77.1293C25.3226 78.0554 25.1012 78.595 24.4327 78.5225C23.7643 78.45 20.6276 78.3735 20.6276 78.3735C20.6276 78.3735 19.625 78.446 19.1257 77.8903C18.6264 77.3346 18.8116 76.63 18.8116 76.63C18.8116 76.63 18.7472 75.869 19.8182 75.728" stroke="#240046" stroke-width="1.61164" stroke-linecap="round" stroke-linejoin="round"/>
<path d="M19.9995 78.3252C19.9995 78.3252 19.4076 78.7238 19.5364 79.3923C19.6653 80.0607 20.225 80.5237 20.225 80.5237H22.6893C22.6893 80.5237 23.5067 80.56 23.9496 80.0405C24.3965 79.5211 24.4126 78.752 23.8207 78.4782" stroke="#240046" stroke-width="1.61164" stroke-linecap="round" stroke-linejoin="round"/>
<path opacity="0.4" d="M24.1751 71.5927C24.1751 71.5927 24.0261 70.7632 24.6381 70.3364C24.8354 70.1995 24.6744 70.276 24.7106 70.2962C25.077 70.5055 25.1334 71.5766 25.0972 71.8867C24.9764 72.8973 24.5012 72.9215 24.5012 72.9215C24.5012 72.9215 25.2341 74.1657 24.4449 73.1389C24.4449 73.1389 24.006 72.1806 24.1751 71.5927Z" fill="black"/>
<path d="M24.1749 71.5927C24.1749 71.5927 24.1346 70.5337 24.8473 70.3123C25.7614 70.0304 26.0593 70.3646 26.3976 70.5659C26.76 70.7834 27.2713 71.1498 27.0539 72.1444C26.8365 73.1389 26.1801 73.598 26.1801 73.598C26.1801 73.598 25.2379 74.1698 24.4447 73.143C24.4447 73.1389 24.0058 72.1806 24.1749 71.5927Z" stroke="#240046" stroke-width="1.61164" stroke-linecap="round" stroke-linejoin="round"/>
<path d="M83.2977 108.114C83.2977 108.114 82.2387 122.537 90.9926 136.268C90.9926 136.268 89.6034 150.687 74.3425 153.128C59.0817 155.568 54.8094 155.874 54.8094 155.874C54.8094 155.874 45.7818 137.388 48.7413 66.8494C48.7413 66.8494 62.758 68.6815 73.6942 66.8494C84.6305 65.0173 84.0305 92.7003 84.0305 92.7003L83.2977 108.114Z" fill="#5A189A"/>
<path d="M48.7454 66.8534C48.7454 66.8534 47.332 94.9712 46.4019 103.661C45.4677 112.35 40.4989 152.012 40.4989 152.012L31.592 149.061C31.592 149.061 30.984 148.779 31.3101 147.088C33.2872 136.844 41.0263 98.9455 40.4787 83.7531C39.8425 66.0521 40.0116 70.6304 40.0116 70.6304C40.0116 70.6304 40.0116 66.3823 40.7727 65.7703C42.947 64.0187 48.7454 66.8534 48.7454 66.8534Z" fill="#5A189A"/>
<path d="M40.4788 66.1649C40.358 69.2251 40.0117 94.7659 40.0117 94.7659" stroke="#240046" stroke-width="1.61164" stroke-miterlimit="10"/>
<path d="M83.2977 108.114C83.2977 108.114 82.2387 122.537 90.9926 136.268C90.9926 136.268 89.6034 150.687 74.3425 153.128C59.0817 155.568 54.8094 155.874 54.8094 155.874C54.8094 155.874 45.7818 137.388 48.7413 66.8494" stroke="#240046" stroke-width="1.61164" stroke-miterlimit="10"/>
<path d="M51.5439 71.9632C53.5089 70.3767 56.9557 71.3351 56.9557 71.3351L56.9798 72.3578C53.9719 71.4559 52.2445 72.6679 52.2445 72.6679L49.8406 100.081L82.4683 105.215L81.5905 105.529L49.7843 100.701L48.983 100.556L51.5439 71.9632Z" fill="#B53B3B"/>
<path opacity="0.4" d="M51.5439 71.9632C53.5089 70.3767 56.9557 71.3351 56.9557 71.3351L56.9798 72.3578C53.9719 71.4559 52.2445 72.6679 52.2445 72.6679L49.8406 100.081L82.4683 105.215L81.5905 105.529L49.7843 100.701L48.983 100.556L51.5439 71.9632Z" fill="black"/>
<path d="M56.9557 72.4464C54.576 73.9805 52.2446 72.6719 52.2446 72.6719L49.8447 99.8676L54.58 99.5535L56.9557 72.4464Z" fill="#FFFCE8"/>
<path opacity="0.4" d="M52.2445 72.8209C52.3009 73.3081 53.3881 72.6719 53.3881 72.6719L50.96 99.7911L49.8446 99.8676L52.2445 72.8209Z" fill="black"/>
<path d="M56.9557 72.4464C54.576 73.9806 52.2446 72.6719 52.2446 72.6719C52.2446 72.6719 54.5035 71.5002 56.9557 72.4464Z" fill="#240046"/>
<path d="M56.9557 72.4464C54.576 73.9805 52.2446 72.6719 52.2446 72.6719" stroke="#240046" stroke-width="0.805819" stroke-miterlimit="10"/>
<path d="M57.5073 71.3673C54.0484 70.4613 51.411 71.9712 51.411 71.9712L48.9306 100.254C48.9105 100.468 49.0635 100.657 49.2729 100.689L81.5904 105.529L87.0223 104.728" stroke="#240046" stroke-width="0.805819" stroke-miterlimit="10"/>
<path d="M56.9556 72.4464C54.2296 71.5163 52.2445 72.6719 52.2445 72.6719L49.8446 100.025L83.7245 105.215" stroke="#240046" stroke-width="0.805819" stroke-miterlimit="10"/>
<path d="M57.0603 71.2707L54.5437 99.928L87.2398 104.828L88.4316 78.0192L57.0603 71.2707Z" fill="#B53B3B"/>
<path d="M57.02 71.7257L54.5798 99.5495C54.5597 99.7629 54.7127 99.9522 54.9221 99.9844L86.8008 104.76C87.0383 104.796 87.2517 104.619 87.2638 104.377L88.4195 78.3615C88.4275 78.1642 88.2946 77.9911 88.1014 77.9508L57.5072 71.3673C57.2696 71.3149 57.0401 71.4841 57.02 71.7257Z" stroke="#240046" stroke-width="0.805819" stroke-miterlimit="10"/>
<path opacity="0.4" d="M84.2641 77.1253L84.0426 104.349L87.2398 104.828L88.4316 78.0192L84.2641 77.1253Z" fill="black"/>
<path d="M59.2951 74.2463L57.2294 97.7778C57.2133 97.959 57.3421 98.1201 57.5193 98.1443L84.4775 102.183C84.6788 102.211 84.86 102.062 84.8681 101.861L85.8465 79.8594C85.8546 79.6943 85.7418 79.5453 85.5767 79.5091L59.7058 73.9403C59.5085 73.9 59.3152 74.041 59.2951 74.2463Z" stroke="#E1B554" stroke-width="1.61164" stroke-miterlimit="10"/>
<path d="M86.9337 64.8603C86.9337 64.8603 90.2314 78.3977 91.0046 82.0821C91.7777 85.7624 87.2638 98.1885 87.2638 98.1885L75.1276 128.895L70.8031 105.014L69.3535 99.8757L67.5657 96.7389C67.5657 96.7389 73.6338 93.0183 77.9744 83.7451C79.3435 78.9373 79.7864 80.4714 79.5247 77.3186C79.3435 76.1992 76.2752 70.1512 76.2752 70.1512L75.1196 66.5635L86.8088 64.9448L86.9337 64.8603Z" fill="#5A189A"/>
<path opacity="0.2" d="M68.9468 98.6435L70.2595 97.7939C78.0268 92.1567 76.8873 89.3421 79.4039 85.0618C82.1984 80.3064 81.0307 77.1253 81.0307 77.1253C79.4523 74.2785 76.2149 69.5473 76.2149 69.5473L79.0979 76.2274L79.2509 79.3158L78.055 83.4632L73.811 90.5259L67.457 96.4007L68.9468 98.6435Z" fill="white"/>
<path opacity="0.3" d="M87.2155 66.5635C87.2155 66.5635 87.3846 67.4816 83.8291 67.9849C80.2736 68.4882 70.787 70.3042 68.4233 70.3848C66.0597 70.4653 52.478 69.9096 52.478 69.9096L51.0807 69.7526V68.8828C51.0807 68.8828 40.3458 68.3473 38.7875 67.9849V66.028L50.9156 67.091L51.2458 67.7876L67.3804 68.2104C67.3804 68.2104 80.9622 65.0938 86.3055 65.0535C86.3055 65.0535 87.0907 64.8884 87.2155 66.5635Z" fill="black"/>
<path d="M86.9335 64.8603L90.352 78.744C90.352 78.744 92.3533 83.0163 89.3011 92.0198C86.2489 101.023 74.9623 129.379 74.9623 129.379" stroke="#240046" stroke-width="1.61164" stroke-miterlimit="10"/>
<path d="M75.1156 66.5635C75.1156 66.5635 77.5235 73.3765 79.0979 76.2274C79.0979 76.2274 80.2657 79.4044 77.4712 84.1638C74.9586 88.4441 74.9022 91.001 67.1309 96.6342" stroke="#240046" stroke-width="1.61164" stroke-miterlimit="10"/>
<path d="M64.739 43.0924C64.739 43.0924 72.8043 39.3315 70.2797 36.4122C67.755 33.4929 59.0172 35.1277 59.0172 35.1277C59.0172 35.1277 50.8352 35.1237 50.2352 38.3128C49.4057 42.73 52.8203 46.519 52.8203 46.519L64.739 43.0924Z" fill="#E1B554"/>
<path d="M67.1993 36.7626C67.1993 36.7626 66.2732 38.3813 65.4235 42.4763C65.4235 42.4763 65.1457 45.6654 65.8504 46.9096C65.943 47.0747 66.2852 47.3969 66.2852 47.3969C66.2852 47.3969 67.912 47.8841 67.1993 50.0665C66.4866 52.2529 63.7565 53.1026 63.7565 53.1026C63.7565 53.1026 60.0843 54.4072 57.2294 52.5268C56.5167 52.0556 54.8336 55.7118 54.2819 55.1199C52.6189 53.3442 50.513 47.8599 50.513 47.8599C50.513 47.8599 52.3653 45.6332 52.7478 44.844C53.1303 44.0548 52.8203 44.699 53.4243 43.338" fill="#FB8671"/>
<path d="M67.1993 36.7626C67.1993 36.7626 66.2732 38.3813 65.4235 42.4763C65.4235 42.4763 65.1457 45.6654 65.8504 46.9096C65.943 47.0747 66.2852 47.3969 66.2852 47.3969C66.2852 47.3969 67.912 47.8841 67.1993 50.0665C66.4866 52.2529 63.7565 53.1026 63.7565 53.1026C63.7565 53.1026 60.0843 54.4072 57.2294 52.5268C56.5167 52.0556 54.6121 55.9735 54.0605 55.3816C52.3975 53.6059 50.517 47.8599 50.517 47.8599C50.517 47.8599 52.3693 45.6332 52.7518 44.844C53.1343 44.0548 52.8243 44.699 53.4283 43.338" stroke="#240046" stroke-width="1.61164" stroke-linejoin="round"/>
<path d="M51.4351 27.292C51.4351 27.292 51.6122 23.3499 53.7705 21.9205C55.9288 20.4911 59.5245 20.2132 62.0854 20.5515C63.7243 20.7689 65.492 21.9648 66.563 23.1325C67.5576 24.2197 65.9107 26.5833 65.9107 26.5833C67.5254 28.2946 66.563 29.7523 66.563 29.7523C66.563 29.7523 65.4759 31.6971 67.2476 33.1346C67.2476 33.1346 66.3617 35.8204 66.1926 36.7465C65.9107 38.2524 65.2906 41.9046 63.9256 42.4361C62.0049 43.177 59.3554 43.2776 57.7729 43.3702C56.5972 43.4387 54.2899 43.7125 53.0779 43.2132C51.8659 42.7139 51.0566 39.4201 51.0566 39.4201C51.0566 39.4201 50.5291 35.8163 50.4043 34.7573C50.2794 33.7024 51.0847 31.6206 51.3425 30.6542C51.5075 30.0261 51.2861 29.1322 51.2378 28.504C51.2096 28.198 51.4351 27.292 51.4351 27.292Z" fill="#FB8671"/>
<path d="M54.6524 28.3792C54.6524 28.3792 53.7746 27.6544 52.9089 27.6141C52.0431 27.5698 51.0687 27.9966 51.0687 27.9966C51.0687 27.9966 50.7748 28.194 50.8513 28.5684C50.9278 28.9429 51.5197 28.7094 51.5197 28.7094C51.5197 28.7094 52.8565 28.4355 53.8189 28.8946C54.7853 29.3536 54.6524 28.3792 54.6524 28.3792Z" fill="#240046"/>
<path d="M51.3868 29.8408L49.1158 28.81L48.995 29.0355L51.3868 30.0583V29.8408Z" fill="#E1B554" stroke="#E1B554" stroke-width="0.805819" stroke-miterlimit="10"/>
<path d="M67.1993 33.1346C67.1993 33.1346 66.3135 35.8204 66.1444 36.7465C65.8625 38.2524 65.2424 41.9046 63.8774 42.4361C61.9567 43.177 59.3072 43.2776 57.7247 43.3702C56.549 43.4387 54.2417 43.7125 53.0297 43.2132C51.8177 42.7139 51.0083 39.4201 51.0083 39.4201C51.0083 39.4201 50.4809 35.8163 50.356 34.7573L50.6902 35.5345C51.0848 36.4123 51.4996 36.521 51.4996 36.521C51.4996 36.521 51.6526 35.9935 52.6834 35.5143C53.7142 35.0311 53.4324 34.5641 53.4324 34.5641L54.7249 34.4755L55.6349 34.6446C55.7597 35.5707 56.3235 35.7318 56.3235 35.7318C58.2965 36.1908 58.8643 38.031 58.8643 38.031C58.8643 38.031 59.9394 38.5786 62.613 37.0243C65.2867 35.47 66.1202 32.0676 66.1202 32.0676L67.1993 33.1346Z" fill="#240046"/>
<path d="M57.3542 38.1759C57.3542 38.1759 55.1879 36.9559 54.8255 36.8794C54.4631 36.8029 54.1249 36.9679 54.1249 36.9679C54.1249 36.9679 53.9276 36.9881 53.6739 36.8029C53.4203 36.6176 52.7961 37.0887 52.6874 37.1975C52.5666 37.3183 52.4901 37.5921 52.325 37.7853C52.325 37.7853 53.0498 38.5262 53.6055 38.6551C54.1611 38.7839 56.0134 38.8121 56.7623 38.5585C56.9315 38.5021 57.3542 38.1759 57.3542 38.1759Z" fill="#FB7F71"/>
<path opacity="0.3" d="M52.6109 37.4632C52.7196 37.3545 53.4525 36.8391 53.7062 37.0243C53.9598 37.2096 54.1571 37.1894 54.1571 37.1894C54.1571 37.1894 54.4954 37.0243 54.8578 37.1008C54.9947 37.129 55.4336 37.3183 55.9651 37.5075C55.9651 37.5075 55.2524 36.9961 54.7168 36.9156C54.1813 36.8351 54.1249 37.0243 54.1249 37.0243L53.537 36.819C53.537 36.819 52.9129 36.968 52.7639 37.2136C52.6109 37.4632 52.6109 37.4632 52.6109 37.4632Z" fill="white"/>
<path opacity="0.3" d="M57.2213 38.2766C57.2213 38.2766 56.9676 38.3007 56.7985 38.337C56.2509 38.4457 53.7544 38.5262 53.1947 38.3934C53.1947 38.3934 53.0578 38.7839 54.8738 38.6833C56.6858 38.5826 56.4965 38.5826 56.4965 38.5826L57.2213 38.2766Z" fill="black"/>
<path d="M57.3542 38.1759C57.3542 38.1759 55.1879 36.9559 54.8255 36.8794C54.4631 36.8029 54.1249 36.9679 54.1249 36.9679C54.1249 36.9679 53.9276 36.9881 53.6739 36.8029C53.4203 36.6176 52.7961 37.0887 52.6874 37.1975C52.5666 37.3183 52.4901 37.5921 52.325 37.7853C52.325 37.7853 53.0498 38.5262 53.6055 38.6551C54.1611 38.7839 56.0134 38.8121 56.7623 38.5585C56.9315 38.5021 57.3542 38.1759 57.3542 38.1759Z" stroke="#9E5346" stroke-width="0.402909" stroke-miterlimit="10" stroke-linecap="round" stroke-linejoin="round"/>
<path d="M57.2213 38.2081C57.2213 38.2081 55.9288 37.8538 54.8617 37.8538C53.7866 37.8538 53.545 37.6887 53.545 37.6887C53.545 37.6887 53.2471 37.5196 52.9531 37.6605C52.6592 37.8014 52.5182 37.729 52.5182 37.729" stroke="#9E5346" stroke-width="0.402909" stroke-miterlimit="10" stroke-linecap="round"/>
<path d="M51.6727 30.0985C51.6727 30.0985 51.7532 28.7617 53.2954 29.7523L53.9155 30.1348L53.1948 30.5455C53.1948 30.5455 52.317 30.9844 51.9465 30.6381C51.9465 30.6381 51.7573 30.3683 51.6727 30.0985Z" fill="#FFE9E9"/>
<path d="M52.4499 30.6381C52.1875 30.6381 51.9748 30.3478 51.9748 29.9898C51.9748 29.6318 52.1875 29.3415 52.4499 29.3415C52.7123 29.3415 52.925 29.6318 52.925 29.9898C52.925 30.3478 52.7123 30.6381 52.4499 30.6381Z" fill="#37444C"/>
<path d="M52.4497 30.3321C52.3163 30.3321 52.2081 30.1824 52.2081 29.9979C52.2081 29.8133 52.3163 29.6637 52.4497 29.6637C52.5831 29.6637 52.6913 29.8133 52.6913 29.9979C52.6913 30.1824 52.5831 30.3321 52.4497 30.3321Z" fill="black"/>
<path d="M51.7492 30.0985C51.7492 30.0985 51.7532 28.7617 53.2954 29.7523L53.9155 30.1348L53.1505 30.5254C53.1505 30.5254 52.3049 30.9562 51.9747 30.5737C51.874 30.4569 51.8378 30.3683 51.7492 30.0985Z" stroke="#C56858" stroke-width="0.362619" stroke-miterlimit="10"/>
<path d="M52.2929 29.8851C52.2462 29.8851 52.2083 29.8328 52.2083 29.7683C52.2083 29.7039 52.2462 29.6516 52.2929 29.6516C52.3396 29.6516 52.3774 29.7039 52.3774 29.7683C52.3774 29.8328 52.3396 29.8851 52.2929 29.8851Z" fill="#9BB0CF"/>
<path d="M69.3698 35.6714C69.3698 35.6714 69.2248 36.976 68.5846 38.0833L68.2342 37.584C68.2342 37.584 67.6222 39.843 65.9834 40.1329L66.5068 36.07L69.3698 35.6714Z" fill="#240046" stroke="#240046" stroke-width="0.805819" stroke-linejoin="round"/>
<path d="M70.195 31.6609C70.195 31.6609 71.4473 28.9067 70.7185 26.0719C69.9897 23.2372 68.9065 21.8359 68.9065 21.8359L67.9724 21.2803C67.9724 21.2803 68.7012 21.0749 69.0233 21.2803C69.3454 21.4856 68.0287 18.7073 65.2262 19.1462C65.2262 19.1462 66.0517 18.4173 67.2033 18.7073C67.2033 18.7073 66.1604 17.1288 64.3202 18.2402C64.3202 18.2402 64.9927 17.4791 65.5765 17.306C65.5765 17.306 64.6142 17.161 63.7927 17.9503C63.7927 17.9503 63.8531 16.8389 64.0545 16.8389C64.0545 16.8389 62.621 16.5772 62.3593 17.5999C62.3593 17.5999 62.3311 16.7825 62.8868 16.4604C62.8868 16.4604 62.3593 15.643 61.1916 17.6885L61.7754 16.2993C61.7754 16.2993 60.8976 16.0215 60.3137 17.2778C60.3137 17.2778 60.1688 16.7866 60.5191 16.2712C60.5191 16.2712 59.6494 15.8725 58.7716 17.3664C58.7716 17.3664 58.0387 17.8939 57.1609 17.5999C56.2831 17.306 54.5597 17.3382 53.2752 18.2442C53.2752 18.2442 54.1853 18.0107 54.5919 18.4214C54.5919 18.4214 53.1746 18.8321 52.5827 19.3555C51.9907 19.883 51.5357 20.8736 51.2941 21.3407C51.0566 21.8077 51.7854 21.6024 51.7854 21.6024C51.7854 21.6024 51.1935 22.5406 52.6229 23.0802L52.7518 22.8909C53.0457 22.4359 53.2793 22.2185 53.7302 21.9205C55.8885 20.491 59.4843 20.2132 62.0452 20.5514C63.684 20.7689 65.4517 21.9648 66.5228 23.1325C67.5174 24.2197 65.8705 26.5833 65.8705 26.5833C67.4851 28.2946 66.5228 29.7522 66.5228 29.7522C66.5228 29.7522 65.4356 31.6971 67.2073 33.1346L70.195 31.6609Z" fill="#240046"/>
<path d="M58.1394 30.3321C58.3488 30.465 58.7716 30.6985 59.3756 30.767C59.9796 30.8354 61.562 30.3321 61.562 30.3321C61.562 30.3321 60.9943 29.5107 59.891 29.2207C58.7877 28.9268 58.0991 29.9979 58.0991 29.9979L57.9662 30.2032C57.9703 30.1992 58.0991 30.3039 58.1394 30.3321Z" fill="#FFE9E9"/>
<path d="M59.3757 30.618C58.9687 30.618 58.6388 30.2881 58.6388 29.8811C58.6388 29.4741 58.9687 29.1442 59.3757 29.1442C59.7826 29.1442 60.1125 29.4741 60.1125 29.8811C60.1125 30.2881 59.7826 30.618 59.3757 30.618Z" fill="#37444C"/>
<path d="M59.3756 30.2395C59.1777 30.2395 59.0173 30.079 59.0173 29.8811C59.0173 29.6832 59.1777 29.5228 59.3756 29.5228C59.5736 29.5228 59.734 29.6832 59.734 29.8811C59.734 30.079 59.5736 30.2395 59.3756 30.2395Z" fill="black"/>
<path d="M59.1219 29.7563C59.0752 29.7563 59.0373 29.704 59.0373 29.6395C59.0373 29.575 59.0752 29.5228 59.1219 29.5228C59.1686 29.5228 59.2064 29.575 59.2064 29.6395C59.2064 29.704 59.1686 29.7563 59.1219 29.7563Z" fill="#9BB0CF"/>
<path d="M58.1394 30.3321C58.3488 30.465 58.7716 30.6985 59.3756 30.767C59.9796 30.8354 61.562 30.3321 61.562 30.3321C61.562 30.3321 60.9943 29.5107 59.891 29.2207C58.7877 28.9268 58.0991 29.9979 58.0991 29.9979L57.9662 30.2032C57.9703 30.1992 58.0991 30.3039 58.1394 30.3321Z" stroke="#C56858" stroke-width="0.362619" stroke-miterlimit="10"/>
<path d="M61.7634 29.8167C61.7634 29.8167 61.2037 28.8422 59.9756 28.7899C58.7515 28.7375 58.4133 29.0476 58.4133 29.0476" stroke="#C56858" stroke-width="0.402909" stroke-miterlimit="10" stroke-linecap="round" stroke-linejoin="round"/>
<path d="M61.9728 29.5227C61.9728 29.5227 61.4896 29.1563 60.9581 29.0637" stroke="#C56858" stroke-width="0.402909" stroke-miterlimit="10" stroke-linecap="round" stroke-linejoin="round"/>
<path d="M52.5506 29.0959C52.5506 29.0959 53.3156 29.1321 53.7988 29.6314" stroke="#C56858" stroke-width="0.402909" stroke-miterlimit="10" stroke-linecap="round" stroke-linejoin="round"/>
<path d="M56.0094 28.1416C56.855 27.6785 57.5073 26.9819 59.2388 27.0222C60.9702 27.0625 60.9541 27.1309 61.5138 27.3121C62.005 27.4691 62.6533 27.6302 63.3741 28.2624C64.0908 28.8946 61.3769 28.2865 59.7703 28.2382C59.0535 28.2141 57.5878 28.6369 56.4966 28.8181C55.8725 28.9227 55.8242 28.2422 56.0094 28.1416Z" fill="#240046"/>
<path opacity="0.2" d="M66.5028 23.4667C66.4545 23.1406 65.4116 22.3594 65.4116 22.3594C65.4116 22.3594 64.3969 21.3125 62.0252 20.6763C59.6535 20.0401 59.1865 21.083 56.9074 20.8494C54.6283 20.6159 52.9855 22.5809 52.4459 23.7526C51.9063 24.9243 51.2299 28.7134 51.4473 29.4382C51.6648 30.163 50.7588 33.5775 50.7588 33.5775C51.1574 32.6152 51.8339 31.528 52.1037 30.8918C52.3573 30.2918 52.2647 29.3778 52.309 28.7496C52.2889 29.0718 52.2124 28.955 52.5506 27.4933C52.5506 27.4933 53.4848 24.1633 55.8283 23.06C58.1718 21.9567 61.7715 22.1983 64.2519 22.899C65.0532 23.1285 65.6612 23.056 66.374 23.6439L66.5028 23.4667Z" fill="white"/>
<path opacity="0.2" d="M65.8545 18.4777C65.2465 18.3851 64.8357 18.816 64.4895 18.7757C64.3485 18.7596 64.0586 18.4053 64.0586 18.4053L64.1915 17.91L65.3028 17.3664L66.382 18.3328L65.8545 18.4777Z" fill="white"/>
<path opacity="0.2" d="M52.3774 21.9406C52.3774 21.9406 52.8002 20.0844 55.3813 19.2388C55.3813 19.2388 55.949 19.0938 55.6591 18.7314C55.6591 18.7314 57.008 19.0455 58.3126 18.8764C58.518 18.8482 58.6146 18.6952 59.3757 18.514C59.9756 18.373 60.7729 18.5422 61.3487 18.4254C61.3688 18.4214 62.5688 18.3489 63.0358 18.1878C63.4989 18.0308 63.3862 17.4993 63.4747 17.4308C63.9499 17.0563 63.1566 17.004 63.2412 16.9436C63.358 16.8631 62.1701 17.9382 62.2305 17.7892C62.5124 17.0926 61.1111 16.7745 61.2561 16.545C61.4091 16.3074 60.3219 17.5073 60.3219 17.5073L60.0038 16.545L58.3771 17.765L55.1356 17.7167L54.58 17.9503L52.4861 19.7864L51.6969 21.2883L52.1761 22.6493L52.3774 21.9406Z" fill="white"/>
<path d="M70.195 31.6609C70.195 31.6609 71.4473 28.9067 70.7185 26.0719C69.9897 23.2372 68.9065 21.8359 68.9065 21.8359L67.9724 21.2803C67.9724 21.2803 68.7012 21.0749 69.0233 21.2803C69.3454 21.4856 68.0287 18.7073 65.2262 19.1462C65.2262 19.1462 66.0517 18.4173 67.2033 18.7073C67.2033 18.7073 66.1604 17.1288 64.3202 18.2402C64.3202 18.2402 64.9927 17.4791 65.5765 17.306C65.5765 17.306 64.6142 17.161 63.7927 17.9503C63.7927 17.9503 63.8531 16.8389 64.0545 16.8389C64.0545 16.8389 62.621 16.5772 62.3593 17.5999C62.3593 17.5999 62.3311 16.7825 62.8868 16.4604C62.8868 16.4604 62.3593 15.643 61.1916 17.6885L61.7754 16.2993C61.7754 16.2993 60.8976 16.0215 60.3137 17.2778C60.3137 17.2778 60.1688 16.7866 60.5191 16.2712C60.5191 16.2712 59.6494 15.8725 58.7716 17.3664C58.7716 17.3664 58.0387 17.8939 57.1609 17.5999C56.2831 17.306 54.5597 17.3382 53.2752 18.2442C53.2752 18.2442 54.1853 18.0107 54.5919 18.4214C54.5919 18.4214 53.1746 18.8321 52.5827 19.3555C51.9907 19.883 51.5357 20.8736 51.2941 21.3407C51.0566 21.8077 51.7854 21.6024 51.7854 21.6024C51.7854 21.6024 51.1935 22.5406 52.6229 23.0802L52.7518 22.8909C53.0457 22.4359 53.2793 22.2185 53.7302 21.9205C55.8885 20.491 59.4843 20.2132 62.0452 20.5514C63.684 20.7689 65.4517 21.9648 66.5228 23.1325C67.5174 24.2197 65.8705 26.5833 65.8705 26.5833C67.4851 28.2946 66.5228 29.7522 66.5228 29.7522C66.5228 29.7522 65.4356 31.6971 67.2073 33.1346L70.195 31.6609Z" stroke="#240046" stroke-width="1.61164" stroke-linejoin="round"/>
<path d="M51.3868 27.292C51.3868 27.292 51.564 23.3499 53.7223 21.9205C55.8805 20.4911 59.4763 20.2132 62.0372 20.5515C63.6761 20.7689 65.4437 21.9648 66.5148 23.1325C67.5094 24.2197 65.8625 26.5833 65.8625 26.5833C67.4772 28.2946 66.5148 29.7523 66.5148 29.7523C66.5148 29.7523 65.4276 31.6971 67.1993 33.1346C67.1993 33.1346 66.3135 35.8204 66.1444 36.7465C65.8625 38.2524 65.2424 41.9046 63.8774 42.4361C61.9567 43.177 59.3072 43.2776 57.7247 43.3702C56.549 43.4387 54.2417 43.7125 53.0297 43.2132C51.8177 42.7139 51.0083 39.4201 51.0083 39.4201C51.0083 39.4201 50.4809 35.8163 50.356 34.7573C50.2312 33.7024 51.0365 31.6206 51.2942 30.6542C51.4593 30.0261 51.2379 29.1322 51.1895 28.504C51.1614 28.198 51.3868 27.292 51.3868 27.292Z" stroke="#240046" stroke-width="1.61164" stroke-linejoin="round"/>
<path opacity="0.4" d="M66.6034 31.3548C66.6034 31.3548 65.5444 35.6834 65.3713 36.6096C65.0894 38.1155 64.2398 41.067 62.8707 41.5945C60.95 42.3354 58.3529 42.7542 56.7785 42.9394C56.0778 43.0239 54.2256 43.3702 53.1908 43.3501C53.1908 43.3501 58.7797 44.1594 63.8089 42.6857C68.8382 41.212 63.8089 42.6857 63.8089 42.6857C63.8089 42.6857 64.4774 42.9313 65.0572 41.0388C65.637 39.1463 67.1953 32.591 67.1953 32.591C67.1953 32.591 66.8812 32.2326 66.8249 32.0998C66.6557 31.7776 66.6034 31.3548 66.6034 31.3548Z" fill="black"/>
<path opacity="0.2" d="M61.6426 28.0651C61.4896 27.892 61.2923 27.6705 60.8856 27.5336C60.4749 27.3927 60.0078 27.2316 58.9086 27.3202C57.8053 27.4128 57.1852 27.594 56.5087 28.2705C55.8322 28.9469 56.0537 30.0985 56.0537 30.0985C56.0537 30.0985 56.251 31.1092 56.5812 31.6689C56.9154 32.2286 57.0966 32.4863 57.5315 32.74C57.9704 32.9977 58.514 33.0742 58.514 33.0742C58.514 33.0742 59.126 33.2514 60.1005 32.9977C61.2682 32.6957 61.6829 31.7132 61.6829 31.7132C61.6829 31.7132 62.1701 30.8354 62.2144 30.0663C62.2587 29.2973 62.2466 28.9389 62.0493 28.5886C61.852 28.2383 61.8037 28.2181 61.699 28.1215C61.6829 28.1094 61.6547 28.0772 61.6426 28.0651Z" fill="white"/>
<path d="M61.6668 28.1134C61.6668 28.1134 61.2923 27.6705 60.8856 27.5296C60.4749 27.3886 60.0078 27.2276 58.9086 27.3162C57.8053 27.4088 57.1852 27.59 56.5087 28.2664C55.8322 28.9429 56.0537 30.0945 56.0537 30.0945C56.0537 30.0945 56.251 31.1052 56.5812 31.6649C56.9154 32.2246 57.0966 32.4823 57.5315 32.736C57.9704 32.9937 58.514 33.0702 58.514 33.0702C58.514 33.0702 59.126 33.2474 60.1005 32.9937C61.2682 32.6917 61.6829 31.7092 61.6829 31.7092C61.6829 31.7092 62.1701 30.8314 62.2144 30.0623C62.2587 29.2932 62.2466 28.9349 62.0493 28.5845C61.852 28.2342 61.6829 28.1255 61.6829 28.1255L61.6668 28.1134Z" stroke="#E1B554" stroke-width="0.805819" stroke-miterlimit="10"/>
<path d="M56.1342 28.8825L55.5141 28.5402C55.5141 28.5402 54.4108 28.3832 53.9759 28.7094C53.9759 28.7094 53.9276 29.1764 53.7262 29.3174" stroke="#E1B554" stroke-width="0.402909" stroke-miterlimit="10"/>
<path d="M49.1157 28.657L48.4433 28.7255L48.399 29.0798H48.85L49.1157 28.657Z" fill="#E1B554" stroke="#E1B554" stroke-width="0.805819" stroke-miterlimit="10"/>
<path opacity="0.2" d="M53.7262 29.7925C53.7262 29.7925 53.8067 28.7537 53.235 28.2987C52.6632 27.8437 52.184 27.739 52.184 27.739C52.184 27.739 51.4149 27.5658 50.7747 27.739C50.1345 27.9121 49.7036 28.1094 49.3855 28.4396C49.2084 28.6208 49.1641 28.7215 49.0634 28.9067C48.9305 29.1563 48.8661 29.5066 48.854 30.0221C48.8419 30.5334 48.9104 30.9079 48.9104 30.9079C48.9104 30.9079 49.0151 31.5723 49.3533 32.1562C49.6915 32.74 50.1908 32.9252 50.1908 32.9252C50.1908 32.9252 50.7063 33.1507 51.2861 33.1306C51.8659 33.1105 52.4377 32.7159 52.7075 32.4219C52.9531 32.1521 53.243 31.6408 53.4202 31.1495C53.5974 30.6663 53.7262 29.7925 53.7262 29.7925Z" fill="white"/>
<path opacity="0.2" d="M52.5504 28.4073C52.5263 28.3026 52.1961 28.1577 52.1961 28.1577C52.1961 28.1577 52.0431 28.0933 51.7974 28.0369C51.5558 27.9805 51.2337 28.0329 51.2337 28.0329C51.2337 28.0329 50.9035 28.0812 50.5452 28.1899C50.1868 28.2986 49.8606 28.4798 49.7117 28.5885C49.5747 28.6852 49.4258 28.8422 49.3493 28.9711C49.2687 29.0999 49.1721 29.3496 49.2446 29.3012C49.615 29.0435 49.9049 28.8905 50.1425 28.7858C50.3479 28.6932 50.6136 28.5322 51.0203 28.4516C51.3948 28.3711 52.5504 28.4073 52.5504 28.4073Z" fill="white"/>
<path d="M62.4237 28.5483L61.8841 28.5403C61.8157 28.3349 61.5379 28.0692 61.5379 28.0692H61.7553C62.319 28.0812 62.5969 28.1255 62.8586 28.1014C63.1203 28.0772 63.3176 28.2342 63.3176 28.2342L68.4636 31.0287L68.371 31.1777L63.5914 28.806C63.5914 28.806 63.4787 28.8463 63.3176 28.8221C63.1566 28.798 63.0196 28.7335 63.0196 28.7335C63.0196 28.7335 62.9311 28.6369 62.7781 28.6127C62.621 28.5846 62.4237 28.5483 62.4237 28.5483Z" fill="#E1B554" stroke="#E1B554" stroke-width="0.805819" stroke-miterlimit="10"/>
<path opacity="0.4" d="M66.5147 31.3992C66.5147 31.3992 68.3066 30.5334 68.826 29.9979C69.8045 28.9912 70.4487 27.3282 69.7159 24.4935C69.6313 24.1714 69.5427 23.8654 69.4542 23.5795C69.4542 23.5795 71.6527 25.8022 70.3078 30.9482L68.1455 31.1737L67.0382 33.1306L66.5147 31.3992Z" fill="black"/>
<path d="M53.7262 29.7925C53.7262 29.7925 53.8067 28.7537 53.235 28.2987C52.6632 27.8437 52.184 27.739 52.184 27.739C52.184 27.739 51.4149 27.5658 50.7747 27.739C50.1345 27.9121 49.7036 28.1094 49.3855 28.4396C49.2084 28.6208 49.1641 28.7215 49.0634 28.9067C48.9305 29.1563 48.8661 29.5066 48.854 30.0221C48.8419 30.5334 48.9104 30.9079 48.9104 30.9079C48.9104 30.9079 49.0151 31.5723 49.3533 32.1562C49.6915 32.74 50.1908 32.9252 50.1908 32.9252C50.1908 32.9252 50.7063 33.1507 51.2861 33.1306C51.8659 33.1105 52.4377 32.7159 52.7075 32.4219C52.9531 32.1521 53.243 31.6408 53.4202 31.1495C53.5974 30.6663 53.7262 29.7925 53.7262 29.7925Z" stroke="#E1B554" stroke-width="0.805819" stroke-miterlimit="10"/>
<path d="M68.1455 31.3669C68.1455 31.3669 68.4516 31.2985 69.1844 31.1777C69.9172 31.0569 70.3239 31.8582 70.3239 31.8582C70.3239 31.8582 70.9239 33.042 70.3239 33.9923C69.724 34.9426 69.6072 35.8606 68.3227 36.521C67.0382 37.1814 66.2571 36.2593 66.2571 36.2593C66.2571 36.2593 67.6341 31.9146 68.1455 31.3669Z" fill="#FB8671"/>
<path opacity="0.3" d="M68.0891 31.379C68.0891 31.379 68.3952 31.3105 69.128 31.1897C69.8608 31.0689 70.2675 31.8702 70.2675 31.8702C70.2675 31.8702 70.3883 31.8139 69.7924 32.7641C69.1965 33.7144 69.0757 34.6325 67.7912 35.2929C66.5067 35.9492 66.7241 34.8459 66.7241 34.8459C66.7241 34.8459 67.5778 31.9266 68.0891 31.379Z" fill="black"/>
<path d="M68.1455 31.3669C68.1455 31.3669 68.4516 31.2985 69.1844 31.1777C69.9172 31.0569 70.3239 31.8582 70.3239 31.8582C70.3239 31.8582 70.9239 33.042 70.3239 33.9923C69.724 34.9426 69.6072 35.8606 68.3227 36.521C67.0382 37.1814 66.5752 36.517 66.5752 36.517C66.5752 36.517 67.6342 31.9146 68.1455 31.3669Z" stroke="#240046" stroke-width="1.61164" stroke-linejoin="round"/>
<path d="M54.6967 29.4865C54.6967 29.4865 54.2377 29.8207 54.0203 30.6985C53.8028 31.5723 52.7519 32.2286 52.5989 32.8447C52.4459 33.4568 52.7076 33.7426 52.8405 33.9601C52.9734 34.1775 53.7827 34.552 53.7827 34.552C53.7827 34.552 54.592 34.0487 55.7316 34.552C56.8711 35.0553 56.6496 33.5252 56.5409 33.4125" fill="#FB8671"/>
<path opacity="0.2" d="M54.886 29.5308C54.886 29.5308 54.4994 30.4328 54.278 31.3065C54.0605 32.1803 53.0096 32.8367 52.8566 33.4527C52.8324 33.5494 52.8163 33.642 52.8123 33.7225C52.7841 34.1534 52.5787 32.6595 52.6875 32.8447L53.8592 31.2703L54.3625 30.0583L54.886 29.5308Z" fill="white"/>
<path d="M56.404 33.5494C56.5127 33.6581 56.4321 34.5158 55.2926 34.0124C54.1531 33.5091 53.3437 34.0124 53.3437 34.0124C53.3437 34.0124 53.0578 33.8796 52.8001 33.7306C52.8001 33.7306 52.7921 34.4594 53.7867 34.5359C54.7812 34.6164 54.7208 34.3587 54.7208 34.3587L56.2993 34.7775C56.2993 34.7775 56.7784 34.4473 56.5811 33.9399C56.3879 33.4326 56.5368 33.4688 56.5368 33.4688L56.404 33.5494Z" fill="#C56858"/>
<path d="M54.6967 29.4865C54.6967 29.4865 54.2377 29.8207 54.0203 30.6985C53.8028 31.5723 52.7519 32.2286 52.5989 32.8447C52.4459 33.4568 52.7076 33.7426 52.8405 33.9601C52.9734 34.1775 53.7827 34.552 53.7827 34.552C53.7827 34.552 54.592 34.0487 55.7316 34.552C56.8711 35.0553 56.6496 33.5252 56.5409 33.4125" stroke="#C56858" stroke-width="0.805819" stroke-linecap="round" stroke-linejoin="round"/>
<path opacity="0.3" d="M65.48 42.2106L65.3511 41.0831L63.668 42.6938C63.668 42.6938 57.9704 43.7045 53.9156 43.6561H53.4163L52.2928 45.9795L51.7492 46.3056C52.0996 47.1593 52.4458 47.7995 53.0257 48.0411C54.2377 48.5404 56.5449 48.2666 57.7207 48.1981C59.3032 48.1055 61.9567 48.0089 63.8734 47.264C65.2424 46.7365 65.2021 43.7165 65.48 42.2106Z" fill="black"/>
<path opacity="0.2" d="M60.0803 28.2504C60.0562 28.1457 59.726 28.0007 59.726 28.0007C59.726 28.0007 59.573 27.9363 59.3273 27.8799C59.0858 27.8235 58.7636 27.8759 58.7636 27.8759C58.7636 27.8759 58.4334 27.9242 58.0751 28.0329C57.7167 28.1416 57.3905 28.3228 57.2416 28.4316C57.1047 28.5282 56.9557 28.6852 56.8792 28.8141C56.7986 28.9429 56.702 29.1926 56.7745 29.1443C57.1449 28.8866 57.4348 28.7335 57.6724 28.6289C57.8778 28.5362 58.1435 28.3752 58.5502 28.2946C58.9287 28.2181 60.0803 28.2504 60.0803 28.2504Z" fill="white"/>
<path d="M90.1389 65.6979C89.9094 63.5315 77.2296 66.0562 70.8434 67.4655C68.3711 68.0132 65.8383 68.2266 63.3096 68.1058L51.0768 67.53L51.4593 62.8752L52.2203 61.9612C52.2203 61.9612 66.3457 46.0923 70.5817 38.1558L68.9066 41.5704L68.963 42.412L73.2392 46.5231L82.7904 52.1403L84.7473 54.1052L90.1389 65.6979Z" fill="#5A189A"/>
<path opacity="0.3" d="M84.6869 54.6971L87.2156 63.7932C85.4237 63.8416 76.8229 64.9489 70.8394 67.4695L86.6317 64.8764L89.8329 65.0536L84.6869 54.6971Z" fill="black"/>
<path d="M51.8378 45.2708C51.8378 45.2708 48.3266 50.5135 44.5134 52.8811C44.5134 52.8811 42.5283 53.2636 41.3847 55.0917C40.2412 56.9238 38.7916 59.976 36.883 64.5502C36.883 64.5502 35.212 66.4588 50.8513 66.9139L51.4553 62.8711L53.1143 60.9384C53.1143 60.9384 52.9814 62.098 51.0728 57.8701C49.1682 53.6462 51.8378 45.2708 51.8378 45.2708Z" fill="#5A189A"/>
<path d="M67.8879 41.9327C67.8879 41.9327 60.024 44.538 54.6565 55.2971C54.6565 55.2971 54.4914 47.5901 52.1721 45.7862C49.8528 43.9823 50.4004 53.1509 50.4004 53.1509C50.4004 53.1509 50.493 58.7962 52.2808 60.0122C54.0726 61.2283 58.3731 54.7736 58.3731 54.7736L67.8879 41.9327Z" fill="#9D4EDD"/>
<path opacity="0.3" d="M54.5878 56.0944C54.5878 56.0944 56.2226 47.719 68.085 41.4013L69.9937 43.3179C69.9937 43.3179 60.4385 46.5956 54.1208 57.0124" fill="black"/>
<path opacity="0.2" d="M53.4163 48.4639C53.4163 48.4639 53.1022 48.8908 52.5505 49.5471C52.3452 49.7927 52.1076 50.0706 51.8378 50.3685C50.5775 51.7738 48.6769 53.6663 46.5388 54.9911C46.5388 54.9911 44.5537 55.3736 43.4101 57.2017C42.3028 58.9774 41.1955 61.4256 39.3755 65.7703L37.0561 64.7314C37.0561 64.7314 40.5392 55.3414 42.7417 53.9723C44.9443 52.6033 47.4569 50.8678 47.4569 50.8678L51.7774 45.5728L52.6351 46.3419L53.4163 48.4639Z" fill="white"/>
<path d="M53.2551 60.7813C53.2551 60.7813 48.7332 59.0096 50.8754 46.5996" stroke="#240046" stroke-width="1.61164" stroke-miterlimit="10"/>
<path d="M90.1389 65.6978C89.9094 63.5315 77.2296 66.0562 70.8434 67.4655C68.3711 68.0131 65.8383 68.2266 63.3096 68.1058L51.0768 67.5299L51.4593 62.8752L52.2203 61.9611C52.2203 61.9611 64.0183 48.5485 69.2771 40.2094" stroke="#240046" stroke-width="1.61164" stroke-miterlimit="10"/>
<path d="M51.8378 45.2708C51.8378 45.2708 48.3266 50.5135 44.5134 52.8811C44.5134 52.8811 42.5282 53.2636 41.3847 55.0917C40.2411 56.9238 38.7916 59.976 36.8829 64.5502C36.8829 64.5502 35.3609 66.4588 51.0002 66.9139" stroke="#240046" stroke-width="1.61164" stroke-miterlimit="10"/>
<path d="M68.6812 41.4053C68.6812 41.4053 69.3859 43.9541 76.7103 48.6854C76.7103 48.6854 83.1206 51.202 84.4172 54.1012C85.7138 57.0003 90.139 65.6978 90.139 65.6978C90.139 65.6978 91.4356 66.9944 87.6224 67.9849" stroke="#240046" stroke-width="1.61164" stroke-miterlimit="10"/>
<path d="M69.6919 35.5627C69.6919 35.5627 73.7347 37.8498 66.3338 42.4281C58.9328 47.0063 55.6552 52.8811 55.6552 52.8811C55.6552 52.8811 55.0955 53.771 54.866 54.6126C54.6365 55.4501 52.7037 61.4498 52.7037 61.4498" stroke="#240046" stroke-miterlimit="10"/>
<path d="M52.4256 59.7063C53.0336 57.8379 54.008 54.8099 54.1288 54.2542C54.306 53.4409 54.2818 52.8812 54.2818 52.8812C54.2818 50.6706 53.2108 46.9298 51.5357 44.8722C49.8566 42.8106 49.7801 40.2175 50.2351 38.3089C50.3398 37.8861 50.5009 37.5237 50.6901 37.2177" stroke="#240046" stroke-miterlimit="10" stroke-linecap="round"/>
</g>
<path fill-rule="evenodd" clip-rule="evenodd" d="M37.5833 12.3793H37.5832C36.2386 12.3793 35.1485 11.2893 35.1485 9.94469L35.1485 9.9405C35.1462 9.49426 34.7838 9.13323 34.337 9.13323C33.8907 9.13323 33.5286 9.49338 33.5254 9.93887L33.5255 9.94475C33.5255 11.2894 32.4354 12.3794 31.0908 12.3794V12.3795C30.6426 12.3795 30.2793 12.7428 30.2793 13.191C30.2793 13.6371 30.6392 13.9991 31.0845 14.0026C31.0866 14.0026 31.0887 14.0025 31.0908 14.0025C32.4354 14.0025 33.5255 15.0926 33.5255 16.4372C33.5255 16.4396 33.5255 16.442 33.5255 16.4444C33.5294 16.8893 33.8912 17.2487 34.337 17.2487C34.7852 17.2487 35.1485 16.8854 35.1485 16.4372C35.1485 15.0926 36.2386 14.0025 37.5832 14.0025L37.5895 14.0026C38.0347 13.9991 38.3947 13.6371 38.3947 13.191C38.3947 12.7429 38.0314 12.3796 37.5833 12.3795V12.3793Z" fill="#E1B554"/>
<path fill-rule="evenodd" clip-rule="evenodd" d="M43.9404 16.7077H43.9403C43.0439 16.7077 42.3172 15.981 42.3172 15.0846L42.3172 15.0739C42.3115 14.7801 42.0715 14.5436 41.7763 14.5436C41.4775 14.5436 41.2353 14.7858 41.2353 15.0846V15.0847H41.2351C41.235 15.981 40.5084 16.7076 39.6121 16.7077V16.7078C39.3133 16.7078 39.0711 16.95 39.0711 17.2488C39.0711 17.5476 39.3133 17.7898 39.6121 17.7898V17.7899C40.5085 17.7899 41.2351 18.5166 41.2351 19.413L41.2353 19.413C41.2353 19.7118 41.4775 19.954 41.7763 19.954C42.0715 19.954 42.3115 19.7175 42.3172 19.4237L42.3172 19.413C42.3172 18.5166 43.0439 17.7899 43.9403 17.7899H43.9404V17.7898C44.2392 17.7898 44.4813 17.5476 44.4813 17.2488C44.4813 16.95 44.2392 16.7078 43.9404 16.7078V16.7077Z" fill="#E1B554"/>
<path fill-rule="evenodd" clip-rule="evenodd" d="M39.0332 21.7925V21.7926H39.0332C39.2807 21.7926 39.4813 21.9932 39.4813 22.2407C39.4813 22.4882 39.2807 22.6888 39.0332 22.6888H39.0332V22.6889C38.2907 22.6889 37.6889 23.2908 37.6889 24.0333V24.0333H37.6889C37.6889 24.2808 37.4883 24.4814 37.2408 24.4814C36.9933 24.4814 36.7926 24.2808 36.7926 24.0333H36.7924C36.7924 23.2908 36.1906 22.6889 35.4481 22.6889V22.6888C35.2007 22.6888 35.0001 22.4882 35.0001 22.2407C35.0001 21.9932 35.2007 21.7926 35.4481 21.7926V21.7925C36.1905 21.7924 36.7924 21.1906 36.7924 20.4482H36.7926V20.4481C36.7926 20.2006 36.9933 20 37.2408 20C37.4883 20 37.6889 20.2006 37.6889 20.4481V20.4482H37.6889C37.689 21.1906 38.2908 21.7924 39.0332 21.7925Z" fill="#E1B554"/>
<circle r="41" transform="matrix(-1 0 0 1 43.3889 43)" stroke="#2A294C" stroke-width="4"/>
</svg>
