<svg width="230" height="230" viewBox="0 0 230 230" fill="none" xmlns="http://www.w3.org/2000/svg">
<circle cx="115" cy="115" r="112" fill="#0C0E19"/>
<mask id="mask0" mask-type="alpha" maskUnits="userSpaceOnUse" x="3" y="3" width="224" height="224">
<circle cx="115" cy="115" r="112" fill="#B53B3B"/>
</mask>
<g mask="url(#mask0)">
<path d="M156.576 209.582C156.576 209.582 149.328 213.868 148.521 238.357C147.702 262.845 148.521 291.199 148.521 291.199C148.521 291.199 148.424 299.254 155.973 290.284C163.522 281.303 167.808 264.062 167.808 264.062C167.808 264.062 171.07 244.775 169.541 212.231C169.531 212.231 163.92 204.984 156.576 209.582Z" fill="#240046"/>
<path opacity="0.3" d="M156.576 209.582C156.576 209.582 149.328 213.868 148.521 238.357C147.702 262.845 148.521 291.199 148.521 291.199C148.521 291.199 148.424 299.254 155.973 290.284C163.522 281.303 167.808 264.062 167.808 264.062C167.808 264.062 171.07 244.775 169.541 212.231C169.531 212.231 163.92 204.984 156.576 209.582Z" fill="black"/>
<path d="M153.959 211.822L155.682 211.133L158.299 210.013L157.362 204.133L160.56 196.94C160.56 196.94 157.943 190.769 160.323 189.391C162.703 188.012 164.135 187.603 165.051 188.928C165.966 190.252 167.248 193.451 167.248 193.451L179.793 189.768L182.905 194.075L180.816 196.574L182.496 199.384L180.041 202.529L181.312 206.276L178.555 209.798L178.027 214.493C178.027 214.493 175.949 216.281 171.512 215.871C167.075 215.462 165.277 219.21 165.277 219.21L159.031 223.345L150.007 225.251L153.959 211.822Z" fill="#FB8671"/>
<path opacity="0.3" d="M164.738 212.285C161.486 212.415 161.012 209.022 161.012 206.675C161.012 205.113 161.917 204.36 161.863 203.756C161.777 202.733 161.239 201.032 161.271 200.343C161.292 199.944 161.465 199.438 162.079 199.212C161.411 199.33 159.72 198.943 159.742 198.781C160.054 196.681 164.211 196.552 164.868 196.929C166.386 197.812 165.578 210.767 164.663 217.734C164.534 218.704 164.006 219.425 163.898 220.114C163.769 220.965 155.413 224.239 151.697 224.648C149.565 224.885 151.116 222.785 151.148 222.3C151.17 222.01 162.94 218.402 163.166 218.262C163.586 217.993 163.963 216.668 163.898 216.948C163.802 217.39 164.738 212.285 164.738 212.285Z" fill="black"/>
<path d="M175.863 189.757C175.863 189.757 176.52 190.188 178.038 190.295" stroke="#240046" stroke-width="2.21146" stroke-linecap="round" stroke-linejoin="round"/>
<path d="M160.323 196.164C160.323 196.164 156.802 201.506 157.426 204.93C158.051 208.355 158.266 208.969 158.266 208.969C158.266 208.969 159.214 211.176 155.682 210.616" stroke="#240046" stroke-width="2.21146" stroke-linecap="round" stroke-linejoin="round"/>
<path d="M171.986 215.354C170.134 216.399 165.675 216.227 165.675 216.227L165.008 219.996C165.008 219.996 160.603 224.131 151.008 225.24" stroke="#240046" stroke-width="2.21146" stroke-linecap="round" stroke-linejoin="round"/>
<path d="M179.858 189.552C178.318 188.669 176.616 188.034 176.616 188.034" stroke="#240046" stroke-width="2.21146" stroke-linecap="round" stroke-linejoin="round"/>
<path d="M125.044 254.068C125.044 254.068 141.93 266.733 147.573 286.343C147.573 286.343 147.314 270.577 149.339 233.446C149.339 233.446 148.521 213.922 157.491 208.279C157.491 208.279 153.636 207.009 148.154 206.481C140.67 205.77 130.666 205.447 127.93 202.324C125.734 199.255 127.877 176.942 127.877 176.942H123.612L125.044 254.068Z" fill="#5A189A"/>
<path opacity="0.2" d="M127.327 202.367C127.381 205.286 127.554 207.418 127.931 207.719C129.33 208.839 130.763 211.187 138.613 211.09C142.339 211.047 148.348 211.65 153.496 212.285C154.917 212.458 156.813 208.085 157.48 207.73L131.958 205.436L128.609 203.703L127.327 202.367Z" fill="white"/>
<path d="M157.491 208.279C157.491 208.279 149.328 213.858 148.51 238.346C147.691 262.834 148.51 291.189 148.51 291.189C148.51 291.189 148.413 299.244 155.962 290.273C158.342 287.441 159.009 286.612 160.711 282.929" stroke="#240046" stroke-width="2.21146" stroke-miterlimit="10"/>
<path d="M127.93 175.897C127.93 175.897 126.531 201.204 127.93 202.324C129.33 203.444 130.763 205.792 138.613 205.695C143.362 205.63 151.837 206.632 157.491 207.407" stroke="#240046" stroke-width="2.21146" stroke-miterlimit="10"/>
<path d="M159.16 417.152L163.802 417.669L179.987 89.0252L169.574 88.5083L159.16 417.152Z" fill="#E1B554"/>
<path opacity="0.4" d="M159.16 417.152L163.802 417.669L171.857 94.7865L174.021 93.3004L175.604 89.8005L170.564 89.5421L170.295 95.0665L159.16 417.152Z" fill="black"/>
<path d="M177.015 37.0872L180.526 67.4876L170.963 67.1107L177.015 37.0872Z" fill="#B53B3B"/>
<path opacity="0.2" d="M177.295 39.5317L179.987 67.1645L174.764 66.9599L177.295 39.5317Z" fill="white"/>
<path d="M173.181 80.3886H178.522L180.526 67.4876L170.963 67.1107L173.181 80.3886Z" fill="#B53B3B"/>
<path opacity="0.3" d="M173.181 80.3886L174.409 74.4981L174.721 67.4876L170.963 67.1107L173.181 80.3886Z" fill="black"/>
<path d="M177.015 37.0872L180.526 67.4876L189.27 65.1831L177.015 37.0872Z" fill="#B53B3B"/>
<path opacity="0.3" d="M178.544 42.1376L181.172 67.1106L189.991 64.3214L178.544 42.1376Z" fill="white"/>
<path d="M179.987 80.3886L180.526 67.4875L189.27 65.183L184.036 77.3302L179.987 80.3886Z" fill="#B53B3B"/>
<path d="M177.015 37.0872L161.928 64.5154L170.963 67.1107L177.015 37.0872Z" fill="#B53B3B"/>
<path d="M171.867 81.1855L167.7 77.761L161.928 64.5153L170.963 67.1106L171.867 81.1855Z" fill="#B53B3B"/>
<path opacity="0.3" d="M171.867 79.8825L166.257 76.458L161.928 64.5153L170.963 67.1106L171.867 79.8825Z" fill="black"/>
<path d="M177.015 37.0872L161.928 64.5154L170.963 67.1107L177.015 37.0872Z" stroke="#240046" stroke-width="2.21146" stroke-miterlimit="10" stroke-linejoin="bevel"/>
<path d="M178.598 83.1132L180.526 67.4876L170.963 67.1107L172.966 82.8224L178.598 83.1132Z" stroke="#240046" stroke-width="2.21146" stroke-miterlimit="10" stroke-linejoin="bevel"/>
<path d="M177.015 37.0872L180.526 67.4876L189.27 65.1831" stroke="#240046" stroke-width="2.21146" stroke-miterlimit="10" stroke-linejoin="bevel"/>
<path d="M159.16 417.152L163.802 417.669L179.987 89.0252L169.574 88.5083L159.16 417.152Z" stroke="#240046" stroke-width="2.21146" stroke-miterlimit="10"/>
<path d="M177.015 37.0872L180.526 67.4876L170.963 67.1107L177.015 37.0872Z" stroke="#240046" stroke-width="2.21146" stroke-miterlimit="10" stroke-linejoin="bevel"/>
<path d="M177.015 37.0872L161.928 64.5154L166.817 75.7473L175.992 86.2792L184.467 76.0919L189.27 65.1831L177.015 37.0872Z" stroke="#240046" stroke-width="2.21146" stroke-miterlimit="10"/>
<path d="M169.574 88.5083L179.987 89.0253L184.467 76.0919L178.598 83.1132L175.658 73.3458L172.966 82.8224L166.817 75.7473L169.574 88.5083Z" fill="#5A189A"/>
<path opacity="0.4" d="M171.48 82.1332L166.817 75.7473L169.574 88.5083H175.744L171.48 82.1332Z" fill="black"/>
<path d="M169.574 88.5083L179.987 89.0253L184.467 76.0919L178.598 83.1132L175.658 73.3458L172.966 82.8224L166.817 75.7473L169.574 88.5083Z" stroke="#240046" stroke-width="2.21146" stroke-miterlimit="10"/>
<path d="M178.038 189.24L167.226 194.495L165.352 189.757L164.792 194.064L166.504 195.367L165.891 198.059L163.155 199.707L164.06 208.979L166.138 211.488L168.109 215.354L176.703 215.731L178.846 209.431L181.085 204.736L179.104 202.065L182.507 198.835L179.901 196.724L182.507 193.03L181.236 190.737L178.038 189.24Z" fill="#FB8671"/>
<path opacity="0.2" d="M178.846 189.24L182.249 191.21L181.15 194.549C181.15 194.549 179.47 193.677 178.856 193.677C175.809 193.666 170.554 196.756 166.774 195.238C164.911 194.495 176.196 190.134 177.316 189.584C177.403 189.541 177.446 189.52 177.521 189.487C178.146 189.218 178.846 189.24 178.846 189.24Z" fill="white"/>
<path opacity="0.2" d="M179.492 196.778L182.238 198.63L182.378 200.407C182.378 200.407 179.459 201.204 179.739 200.666C180.687 198.846 179.492 196.778 179.492 196.778Z" fill="white"/>
<path opacity="0.3" d="M165.148 199.546C165.148 199.546 167.872 201.742 171.652 200.278C173.612 199.513 179.298 198.436 179.987 197.898C180.665 197.359 176.282 197.898 176.282 197.898L165.148 199.546Z" fill="black"/>
<path opacity="0.3" d="M162.574 205.081C162.574 205.081 162.8 206.664 168.206 206.265C177.435 205.576 178.156 203.972 178.846 203.433C179.524 202.895 173.536 203.541 173.536 203.541L162.574 205.081Z" fill="black"/>
<path opacity="0.3" d="M165.148 210.82C165.148 210.82 166.687 212.263 170.737 211.919C179.955 211.133 176.282 210.562 176.961 210.013C177.639 209.474 175.593 209.281 175.593 209.281L165.148 210.82Z" fill="black"/>
<path opacity="0.2" d="M180.773 203.207L181.129 205.781L180.816 207.558L177.973 208.656C177.973 208.656 180.633 205.716 177.822 203.078C176.283 201.635 178.361 203.465 179.664 203.228C179.761 203.207 180.138 203.11 180.224 203.099C180.956 202.992 180.773 203.207 180.773 203.207Z" fill="white"/>
<path opacity="0.2" d="M179.718 212.296L178.846 214.288L177.822 215.817L174.872 215.096C174.872 215.096 178.404 213.739 176.961 209.711C176.25 207.73 177.435 210.551 178.63 211.101C178.716 211.144 179.082 211.273 179.169 211.316C179.804 211.639 179.718 212.296 179.718 212.296Z" fill="white"/>
<path d="M176.649 190.435C176.293 190.984 167.646 193.978 166.558 194.312C165.471 194.646 166.128 197.123 166.128 197.123C166.128 197.123 166.504 199.578 170.22 198.598C173.935 197.618 178.393 196.767 178.393 196.767C178.393 196.767 180.676 196.595 181.419 195.507C182.162 194.42 183.002 193.181 182.108 191.447C181.764 190.78 180.849 190.112 179.858 189.541C179.33 189.24 178.781 188.971 178.296 188.734" stroke="#240046" stroke-width="2.21146" stroke-linecap="round" stroke-linejoin="round"/>
<path d="M166.924 198.35C166.924 198.35 163.705 198.824 163.672 200.45C163.64 202.076 163.78 203.282 164.738 203.638C165.697 203.993 174.226 203.39 174.226 203.39C174.226 203.39 177.618 202.819 178.813 202.216C180.762 201.236 180.999 200.762 181.645 200.17C182.162 199.696 182.184 198.275 181.01 197.424C179.352 196.229 179.362 196.616 179.362 196.616" stroke="#240046" stroke-width="2.21146" stroke-linecap="round" stroke-linejoin="round"/>
<path d="M171.35 203.756L165.934 204.09C165.934 204.09 163.015 203.788 163.166 206.276C163.317 208.753 163.909 210.196 165.697 210.002C167.484 209.808 175.873 209.604 175.873 209.604C175.873 209.604 178.555 209.797 179.89 208.311C181.225 206.825 180.73 204.941 180.73 204.941C180.73 204.941 180.902 202.905 178.038 202.528" stroke="#240046" stroke-width="2.21146" stroke-linecap="round" stroke-linejoin="round"/>
<path d="M177.553 209.474C177.553 209.474 179.136 210.541 178.792 212.328C178.447 214.116 176.95 215.354 176.95 215.354H170.36C170.36 215.354 168.174 215.451 166.989 214.062C165.794 212.673 165.751 210.616 167.334 209.884" stroke="#240046" stroke-width="2.21146" stroke-linecap="round" stroke-linejoin="round"/>
<path opacity="0.4" d="M166.386 191.469C166.386 191.469 166.784 189.251 165.148 188.109C164.62 187.743 165.051 187.948 164.954 188.001C163.974 188.561 163.823 191.426 163.92 192.255C164.243 194.958 165.514 195.023 165.514 195.023C165.514 195.023 163.554 198.35 165.664 195.604C165.664 195.604 166.838 193.041 166.386 191.469Z" fill="black"/>
<path d="M166.386 191.469C166.386 191.469 166.494 188.637 164.588 188.045C162.143 187.291 161.346 188.185 160.442 188.723C159.472 189.304 158.105 190.284 158.686 192.944C159.268 195.604 161.023 196.832 161.023 196.832C161.023 196.832 163.543 198.361 165.664 195.615C165.664 195.604 166.838 193.041 166.386 191.469Z" stroke="#240046" stroke-width="2.21146" stroke-linecap="round" stroke-linejoin="round"/>
<path d="M8.26718 289.142C8.26718 289.142 11.0994 327.716 -12.3121 364.438C-12.3121 364.438 -8.59682 403.001 32.2171 409.527C73.031 416.053 84.4567 416.872 84.4567 416.872C84.4567 416.872 108.6 367.432 100.685 178.783C100.685 178.783 63.199 183.683 33.9509 178.783C4.7027 173.884 6.30725 247.919 6.30725 247.919L8.26718 289.142Z" fill="#5A189A"/>
<path d="M100.675 178.794C100.675 178.794 104.454 253.993 106.942 277.232C109.44 300.471 122.729 406.544 122.729 406.544L146.55 398.651C146.55 398.651 148.176 397.897 147.304 393.374C142.016 365.978 121.318 264.622 122.783 223.991C124.484 176.651 124.032 188.895 124.032 188.895C124.032 188.895 124.032 177.534 121.997 175.897C116.182 171.213 100.675 178.794 100.675 178.794Z" fill="#5A189A"/>
<path d="M122.783 176.953C123.106 185.137 124.032 253.444 124.032 253.444" stroke="#240046" stroke-width="2.21146" stroke-miterlimit="10"/>
<path d="M8.26718 289.142C8.26718 289.142 11.0994 327.716 -12.3121 364.438C-12.3121 364.438 -8.59682 403.001 32.2171 409.527C73.031 416.053 84.4567 416.872 84.4567 416.872C84.4567 416.872 108.6 367.432 100.685 178.783" stroke="#240046" stroke-width="2.21146" stroke-miterlimit="10"/>
<path d="M93.1902 192.46C87.935 188.217 78.7169 190.78 78.7169 190.78L78.6523 193.515C86.6966 191.103 91.3164 194.344 91.3164 194.344L97.7454 267.659L10.4855 281.389L12.8331 282.229L97.8962 269.317L100.039 268.929L93.1902 192.46Z" fill="#B53B3B"/>
<path opacity="0.4" d="M93.1902 192.46C87.935 188.217 78.7169 190.78 78.7169 190.78L78.6523 193.515C86.6966 191.103 91.3164 194.344 91.3164 194.344L97.7454 267.659L10.4855 281.389L12.8331 282.229L97.8962 269.317L100.039 268.929L93.1902 192.46Z" fill="black"/>
<path d="M78.7169 193.752C85.0812 197.855 91.3164 194.355 91.3164 194.355L97.7346 267.088L85.0705 266.248L78.7169 193.752Z" fill="#FFFCE8"/>
<path opacity="0.4" d="M91.3164 194.753C91.1656 196.057 88.2581 194.355 88.2581 194.355L94.7517 266.883L97.7346 267.088L91.3164 194.753Z" fill="black"/>
<path d="M78.7169 193.752C85.0812 197.855 91.3164 194.355 91.3164 194.355C91.3164 194.355 85.2751 191.221 78.7169 193.752Z" fill="#240046"/>
<path d="M78.7169 193.752C85.0812 197.855 91.3164 194.355 91.3164 194.355" stroke="#240046" stroke-width="1.10573" stroke-miterlimit="10"/>
<path d="M77.2416 190.866C86.492 188.443 93.5456 192.481 93.5456 192.481L100.179 268.122C100.233 268.692 99.8238 269.198 99.2638 269.285L12.8331 282.229L-1.69403 280.086" stroke="#240046" stroke-width="1.10573" stroke-miterlimit="10"/>
<path d="M78.7168 193.752C86.0074 191.264 91.3164 194.355 91.3164 194.355L97.7346 267.508L7.12561 281.389" stroke="#240046" stroke-width="1.10573" stroke-miterlimit="10"/>
<path d="M78.4369 190.608L85.1674 267.249L-2.27556 280.355L-5.46313 208.656L78.4369 190.608Z" fill="#B53B3B"/>
<path d="M78.5446 191.824L85.0705 266.237C85.1243 266.808 84.7151 267.314 84.1551 267.4L-1.10176 280.172C-1.73712 280.269 -2.30787 279.795 -2.34018 279.149L-5.43083 209.572C-5.45237 209.044 -5.097 208.581 -4.5801 208.473L77.2415 190.866C77.8769 190.726 78.4907 191.178 78.5446 191.824Z" stroke="#240046" stroke-width="1.10573" stroke-miterlimit="10"/>
<path opacity="0.4" d="M5.68261 206.265L6.2749 279.074L-2.27556 280.355L-5.46313 208.656L5.68261 206.265Z" fill="black"/>
<path d="M72.4602 198.566L77.9846 261.499C78.0277 261.983 77.6831 262.414 77.2093 262.479L5.11189 273.28C4.57345 273.355 4.08885 272.957 4.06731 272.418L1.45049 213.578C1.42895 213.136 1.73047 212.738 2.172 212.641L71.3618 197.747C71.8895 197.64 72.4064 198.017 72.4602 198.566Z" stroke="#E1B554" stroke-width="2.21146" stroke-miterlimit="10"/>
<path d="M-1.45707 173.464C-1.45707 173.464 -10.2767 209.668 -12.3444 219.522C-14.412 229.365 -2.34011 262.597 -2.34011 262.597L30.1172 344.72L41.6829 280.85L45.5597 267.109L50.341 258.72C50.341 258.72 34.1124 248.77 22.5036 223.969C18.8422 211.111 17.6576 215.214 18.3576 206.782C18.8422 203.789 27.048 187.614 27.048 187.614L30.1387 178.019L-1.12324 173.69L-1.45707 173.464Z" fill="#5A189A"/>
<path opacity="0.2" d="M46.6473 263.814L43.1367 261.542C22.3636 246.466 25.4111 238.938 18.6806 227.491C11.207 214.773 14.33 206.265 14.33 206.265C18.5514 198.652 27.2095 185.999 27.2095 185.999L19.499 203.864L19.0898 212.124L22.2882 223.216L33.6385 242.104L50.6318 257.816L46.6473 263.814Z" fill="white"/>
<path opacity="0.3" d="M-2.21094 178.019C-2.21094 178.019 -2.66323 180.474 6.84565 181.82C16.3545 183.166 41.7259 188.023 48.0472 188.238C54.3685 188.454 90.6918 186.968 90.6918 186.968L94.4286 186.548V184.222C94.4286 184.222 123.138 182.789 127.306 181.82V176.587L94.8701 179.43L93.9871 181.293L50.8364 182.423C50.8364 182.423 14.5131 174.088 0.222815 173.98C0.222815 173.98 -1.87711 173.539 -2.21094 178.019Z" fill="black"/>
<path d="M-1.45711 173.464L-10.5999 210.595C-10.5999 210.595 -15.952 222.02 -7.78918 246.099C0.373595 270.179 30.5587 346.013 30.5587 346.013" stroke="#240046" stroke-width="2.21146" stroke-miterlimit="10"/>
<path d="M30.1495 178.019C30.1495 178.019 23.7097 196.24 19.4991 203.864C19.4991 203.864 16.3761 212.361 23.8497 225.089C30.5694 236.537 30.7202 243.375 51.5041 258.44" stroke="#240046" stroke-width="2.21146" stroke-miterlimit="10"/>
<path d="M57.9007 115.247C57.9007 115.247 36.3308 105.189 43.0828 97.3816C49.8349 89.5742 73.2033 93.9464 73.2033 93.9464C73.2033 93.9464 95.0855 93.9356 96.6901 102.465C98.9085 114.278 89.7765 124.411 89.7765 124.411L57.9007 115.247Z" fill="#E1B554"/>
<path d="M51.3209 98.3186C51.3209 98.3186 53.7978 102.648 56.07 113.6C56.07 113.6 56.8131 122.129 54.9285 125.456C54.6808 125.898 53.7655 126.759 53.7655 126.759C53.7655 126.759 49.4149 128.062 51.3209 133.899C53.227 139.746 60.5283 142.019 60.5283 142.019C60.5283 142.019 70.3495 145.508 77.9846 140.479C79.8907 139.219 84.3921 148.997 85.8674 147.414C90.3149 142.665 95.947 127.998 95.947 127.998C95.947 127.998 90.9934 122.042 89.9703 119.932C88.9473 117.821 89.7765 119.544 88.1611 115.904" fill="#FB8671"/>
<path d="M51.3209 98.3186C51.3209 98.3186 53.7978 102.648 56.07 113.6C56.07 113.6 56.8131 122.129 54.9285 125.456C54.6808 125.898 53.7655 126.759 53.7655 126.759C53.7655 126.759 49.4149 128.062 51.3209 133.899C53.227 139.746 60.5283 142.019 60.5283 142.019C60.5283 142.019 70.3495 145.508 77.9846 140.479C79.8907 139.219 84.9843 149.697 86.4597 148.114C90.9072 143.365 95.9363 127.998 95.9363 127.998C95.9363 127.998 90.9826 122.042 89.9595 119.932C88.9365 117.821 89.7657 119.544 88.1504 115.904" stroke="#240046" stroke-width="2.21146" stroke-linejoin="round"/>
<path d="M93.481 72.9903C93.481 72.9903 93.0072 62.4476 87.2351 58.6246C81.463 54.8017 71.8464 54.0587 64.9974 54.9632C60.6145 55.5448 55.887 58.7431 53.0225 61.8661C50.3626 64.7737 54.767 71.095 54.767 71.095C50.4487 75.6717 53.0225 79.57 53.0225 79.57C53.0225 79.57 55.9301 84.7714 51.1918 88.6159C51.1918 88.6159 53.5609 95.7987 54.0132 98.2755C54.767 102.303 56.4254 112.07 60.0761 113.492C65.2128 115.473 72.2987 115.743 76.5308 115.99C79.6754 116.173 85.8459 116.906 89.0873 115.57C92.3287 114.235 94.4933 105.426 94.4933 105.426C94.4933 105.426 95.904 95.7879 96.2378 92.9557C96.5717 90.1343 94.4179 84.5668 93.7287 81.9823C93.2872 80.3023 93.8795 77.9116 94.0087 76.2317C94.0841 75.4133 93.481 72.9903 93.481 72.9903Z" fill="#FB8671"/>
<path d="M84.8766 75.8978C84.8766 75.8978 87.2242 73.9594 89.5395 73.8518C91.8548 73.7333 94.4609 74.8748 94.4609 74.8748C94.4609 74.8748 95.247 75.4025 95.0424 76.404C94.8378 77.4055 93.2548 76.7809 93.2548 76.7809C93.2548 76.7809 89.6795 76.0486 87.1058 77.2763C84.5213 78.5039 84.8766 75.8978 84.8766 75.8978Z" fill="#240046"/>
<path d="M93.6102 79.807L99.6838 77.0502L100.007 77.6532L93.6102 80.3885V79.807Z" fill="#E1B554" stroke="#E1B554" stroke-width="1.10573" stroke-miterlimit="10"/>
<path d="M51.321 88.6158C51.321 88.6158 53.6901 95.7986 54.1424 98.2755C54.8962 102.303 56.5546 112.07 60.2053 113.492C65.342 115.473 72.4279 115.743 76.6601 115.99C79.8046 116.173 85.9751 116.906 89.2165 115.57C92.4579 114.235 94.6225 105.426 94.6225 105.426C94.6225 105.426 96.0332 95.7879 96.367 92.9557L95.4732 95.0341C94.4179 97.3817 93.3087 97.6724 93.3087 97.6724C93.3087 97.6724 92.8995 96.2617 90.1426 94.9802C87.3858 93.688 88.1396 92.4388 88.1396 92.4388L84.6828 92.2019L82.2491 92.6541C81.9153 95.131 80.4076 95.5617 80.4076 95.5617C75.1309 96.7894 73.6125 101.711 73.6125 101.711C73.6125 101.711 70.7372 103.175 63.5867 99.0185C56.4362 94.8618 54.207 85.7621 54.207 85.7621L51.321 88.6158Z" fill="#240046"/>
<path d="M77.6508 102.099C77.6508 102.099 83.4445 98.8355 84.4136 98.6309C85.3828 98.4263 86.2874 98.8679 86.2874 98.8679C86.2874 98.8679 86.8151 98.9217 87.4935 98.4263C88.172 97.931 89.8411 99.1909 90.1319 99.4817C90.455 99.8047 90.6596 100.537 91.1011 101.054C91.1011 101.054 89.1627 103.035 87.6766 103.38C86.1905 103.725 81.2368 103.8 79.2338 103.122C78.7815 102.971 77.6508 102.099 77.6508 102.099Z" fill="#FB7F71"/>
<path opacity="0.3" d="M90.3365 100.192C90.0458 99.9017 88.0858 98.5233 87.4074 99.0186C86.729 99.514 86.2013 99.4602 86.2013 99.4602C86.2013 99.4602 85.2967 99.0186 84.3275 99.2232C83.9614 99.2986 82.7876 99.8048 81.3661 100.311C81.3661 100.311 83.2722 98.9433 84.7044 98.7279C86.1367 98.5125 86.2874 99.0186 86.2874 99.0186L87.8597 98.4694C87.8597 98.4694 89.5289 98.8679 89.9273 99.5248C90.3365 100.192 90.3365 100.192 90.3365 100.192Z" fill="white"/>
<path opacity="0.3" d="M78.0062 102.368C78.0062 102.368 78.6846 102.432 79.1369 102.529C80.6014 102.82 87.2781 103.035 88.775 102.68C88.775 102.68 89.1411 103.725 84.2844 103.455C79.4384 103.186 79.9446 103.186 79.9446 103.186L78.0062 102.368Z" fill="black"/>
<path d="M77.6508 102.099C77.6508 102.099 83.4445 98.8355 84.4136 98.6309C85.3828 98.4263 86.2874 98.8679 86.2874 98.8679C86.2874 98.8679 86.8151 98.9217 87.4935 98.4263C88.172 97.931 89.8411 99.1909 90.1319 99.4817C90.455 99.8047 90.6596 100.537 91.1011 101.054C91.1011 101.054 89.1627 103.035 87.6766 103.38C86.1905 103.725 81.2368 103.8 79.2338 103.122C78.7815 102.971 77.6508 102.099 77.6508 102.099Z" stroke="#9E5346" stroke-width="0.552864" stroke-miterlimit="10" stroke-linecap="round" stroke-linejoin="round"/>
<path d="M78.0062 102.185C78.0062 102.185 81.463 101.237 84.3167 101.237C87.192 101.237 87.8381 100.795 87.8381 100.795C87.8381 100.795 88.635 100.343 89.4211 100.72C90.2073 101.097 90.5842 100.903 90.5842 100.903" stroke="#9E5346" stroke-width="0.552864" stroke-miterlimit="10" stroke-linecap="round"/>
<path d="M92.8456 80.4962C92.8456 80.4962 92.6302 76.9209 88.5058 79.5701L86.8474 80.5931L88.775 81.6915C88.775 81.6915 91.1226 82.8653 92.1133 81.9392C92.1133 81.9392 92.6194 81.2177 92.8456 80.4962Z" fill="#FFE9E9"/>
<path d="M90.7672 81.9391C91.469 81.9391 92.0379 81.1629 92.0379 80.2053C92.0379 79.2478 91.469 78.4716 90.7672 78.4716C90.0654 78.4716 89.4965 79.2478 89.4965 80.2053C89.4965 81.1629 90.0654 81.9391 90.7672 81.9391Z" fill="#37444C"/>
<path d="M90.7672 81.1208C91.1241 81.1208 91.4134 80.7206 91.4134 80.2269C91.4134 79.7333 91.1241 79.3331 90.7672 79.3331C90.4104 79.3331 90.1211 79.7333 90.1211 80.2269C90.1211 80.7206 90.4104 81.1208 90.7672 81.1208Z" fill="black"/>
<path d="M92.641 80.4962C92.641 80.4962 92.6302 76.9209 88.5058 79.5701L86.8474 80.5931L88.8934 81.6377C88.8934 81.6377 91.1549 82.7899 92.0379 81.7669C92.3072 81.4546 92.4041 81.2177 92.641 80.4962Z" stroke="#C56858" stroke-width="0.497578" stroke-miterlimit="10"/>
<path d="M91.1873 79.9254C91.3122 79.9254 91.4134 79.7856 91.4134 79.6131C91.4134 79.4406 91.3122 79.3008 91.1873 79.3008C91.0624 79.3008 90.9611 79.4406 90.9611 79.6131C90.9611 79.7856 91.0624 79.9254 91.1873 79.9254Z" fill="#9BB0CF"/>
<path d="M45.5165 95.4003C45.5165 95.4003 45.9042 98.8894 47.6165 101.851L48.5534 100.515C48.5534 100.515 50.1902 106.557 54.5731 107.332L53.1732 96.4664L45.5165 95.4003Z" fill="#240046" stroke="#240046" stroke-width="1.10573" stroke-linejoin="round"/>
<path d="M43.309 84.6744C43.309 84.6744 39.9598 77.3086 41.909 69.7273C43.8582 62.146 46.755 58.3985 46.755 58.3985L49.2534 56.9124C49.2534 56.9124 47.3042 56.3632 46.4427 56.9124C45.5812 57.4616 49.1026 50.0311 56.5977 51.2049C56.5977 51.2049 54.3901 49.2557 51.3102 50.0311C51.3102 50.0311 54.0993 45.8097 59.0207 48.7819C59.0207 48.7819 57.2223 46.7466 55.6608 46.2835C55.6608 46.2835 58.2346 45.8958 60.4314 48.0065C60.4314 48.0065 60.2699 45.0343 59.7314 45.0343C59.7314 45.0343 63.5651 44.3344 64.2651 47.0697C64.2651 47.0697 64.3405 44.8836 62.8544 44.0221C62.8544 44.0221 64.2651 41.836 67.3881 47.3066L65.8266 43.5913C65.8266 43.5913 68.1742 42.8483 69.7357 46.2081C69.7357 46.2081 70.1234 44.8943 69.1865 43.5159C69.1865 43.5159 71.5126 42.4498 73.8602 46.4451C73.8602 46.4451 75.8201 47.8558 78.1677 47.0697C80.5153 46.2835 85.1244 46.3697 88.5596 48.7927C88.5596 48.7927 86.1259 48.1681 85.0382 49.2665C85.0382 49.2665 88.8288 50.3649 90.4119 51.7649C91.9949 53.1756 93.2118 55.8247 93.8579 57.0739C94.4933 58.3231 92.5441 57.7739 92.5441 57.7739C92.5441 57.7739 94.1271 60.283 90.3042 61.726L89.9596 61.2199C89.1734 60.003 88.5489 59.4215 87.3427 58.6246C81.5706 54.8017 71.9541 54.0586 65.1051 54.9632C60.7222 55.5447 55.9946 58.7431 53.1301 61.866C50.4702 64.7736 54.8747 71.0949 54.8747 71.0949C50.5564 75.6717 53.1301 79.57 53.1301 79.57C53.1301 79.57 56.0377 84.7714 51.2994 88.6158L43.309 84.6744Z" fill="#240046"/>
<path d="M75.5509 81.1207C74.9909 81.4761 73.8602 82.1007 72.2449 82.2838C70.6296 82.4668 66.3974 81.1207 66.3974 81.1207C66.3974 81.1207 67.9158 78.9239 70.8665 78.1485C73.8171 77.3624 75.6586 80.2269 75.6586 80.2269L76.014 80.7761C76.0032 80.7654 75.6586 81.0453 75.5509 81.1207Z" fill="#FFE9E9"/>
<path d="M72.2448 81.8853C73.3332 81.8853 74.2155 81.003 74.2155 79.9146C74.2155 78.8262 73.3332 77.9439 72.2448 77.9439C71.1564 77.9439 70.2741 78.8262 70.2741 79.9146C70.2741 81.003 71.1564 81.8853 72.2448 81.8853Z" fill="#37444C"/>
<path d="M72.2448 80.8731C72.7741 80.8731 73.2032 80.444 73.2032 79.9147C73.2032 79.3853 72.7741 78.9562 72.2448 78.9562C71.7155 78.9562 71.2864 79.3853 71.2864 79.9147C71.2864 80.444 71.7155 80.8731 72.2448 80.8731Z" fill="black"/>
<path d="M72.9233 79.5808C73.0482 79.5808 73.1494 79.441 73.1494 79.2685C73.1494 79.0961 73.0482 78.9562 72.9233 78.9562C72.7984 78.9562 72.6971 79.0961 72.6971 79.2685C72.6971 79.441 72.7984 79.5808 72.9233 79.5808Z" fill="#9BB0CF"/>
<path d="M75.5509 81.1207C74.9909 81.4761 73.8602 82.1007 72.2449 82.2838C70.6296 82.4668 66.3974 81.1207 66.3974 81.1207C66.3974 81.1207 67.9158 78.9239 70.8665 78.1485C73.8171 77.3624 75.6586 80.2269 75.6586 80.2269L76.014 80.7761C76.0032 80.7654 75.6586 81.0453 75.5509 81.1207Z" stroke="#C56858" stroke-width="0.497578" stroke-miterlimit="10"/>
<path d="M65.8589 79.7423C65.8589 79.7423 67.3557 77.1363 70.6402 76.9963C73.914 76.8563 74.8186 77.6855 74.8186 77.6855" stroke="#C56858" stroke-width="0.552864" stroke-miterlimit="10" stroke-linecap="round" stroke-linejoin="round"/>
<path d="M65.299 78.9562C65.299 78.9562 66.5912 77.9763 68.0127 77.7286" stroke="#C56858" stroke-width="0.552864" stroke-miterlimit="10" stroke-linecap="round" stroke-linejoin="round"/>
<path d="M90.498 77.8147C90.498 77.8147 88.4519 77.9116 87.1597 79.247" stroke="#C56858" stroke-width="0.552864" stroke-miterlimit="10" stroke-linecap="round" stroke-linejoin="round"/>
<path d="M81.2476 75.2624C78.9861 74.024 77.2416 72.161 72.611 72.2687C67.9804 72.3764 68.0235 72.5594 66.5266 73.044C65.2128 73.464 63.479 73.8948 61.5514 75.5855C59.6345 77.2762 66.8927 75.6501 71.1895 75.5209C73.1064 75.4563 77.0262 76.587 79.9446 77.0716C81.6137 77.3516 81.743 75.5316 81.2476 75.2624Z" fill="#240046"/>
<path opacity="0.2" d="M53.184 62.7599C53.3132 61.8876 56.1023 59.7984 56.1023 59.7984C56.1023 59.7984 58.8161 56.9985 65.1589 55.2971C71.5018 53.5956 72.7509 56.3847 78.8461 55.7601C84.9413 55.1355 89.335 60.3907 90.778 63.5245C92.221 66.6582 94.0302 76.7917 93.4486 78.7301C92.8671 80.6684 95.2901 89.8004 95.2901 89.8004C94.224 87.2267 92.4148 84.3191 91.6933 82.6176C91.0149 81.0131 91.2626 78.5685 91.1441 76.8886C91.198 77.7501 91.4026 77.4378 90.498 73.5287C90.498 73.5287 87.9996 64.6229 81.7322 61.6722C75.4647 58.7216 65.8374 59.3677 59.2037 61.2415C57.0607 61.8553 55.4346 61.6614 53.5286 63.2337L53.184 62.7599Z" fill="white"/>
<path opacity="0.2" d="M54.9178 49.4173C56.5439 49.1696 57.6423 50.3219 58.5684 50.2142C58.9453 50.1711 59.7207 49.2234 59.7207 49.2234L59.3653 47.8989L56.3931 46.4451L53.5071 49.0296L54.9178 49.4173Z" fill="white"/>
<path opacity="0.2" d="M90.9611 58.6784C90.9611 58.6784 89.8303 53.714 82.9275 51.4525C82.9275 51.4525 81.4091 51.0649 82.1845 50.0957C82.1845 50.0957 78.5769 50.9356 75.0878 50.4833C74.5386 50.408 74.2801 49.9987 72.2448 49.5141C70.6403 49.1372 68.508 49.5895 66.9681 49.2772C66.9142 49.2665 63.7051 49.0726 62.4559 48.6419C61.2175 48.2219 61.5191 46.8004 61.2821 46.6173C60.0114 45.6158 62.1329 45.4758 61.9067 45.3143C61.5944 45.0989 64.7712 47.9742 64.6097 47.5758C63.8559 45.7127 67.6034 44.862 67.2158 44.2482C66.8066 43.6128 69.7141 46.8219 69.7141 46.8219L70.5649 44.2482L74.9155 47.5111L83.5844 47.3819L85.0705 48.0065L90.6703 52.9171L92.781 56.9339L91.4995 60.5737L90.9611 58.6784Z" fill="white"/>
<path d="M43.309 84.6744C43.309 84.6744 39.9598 77.3086 41.909 69.7273C43.8582 62.146 46.755 58.3985 46.755 58.3985L49.2534 56.9124C49.2534 56.9124 47.3042 56.3632 46.4427 56.9124C45.5812 57.4616 49.1026 50.0311 56.5977 51.2049C56.5977 51.2049 54.3901 49.2557 51.3102 50.0311C51.3102 50.0311 54.0993 45.8097 59.0207 48.7819C59.0207 48.7819 57.2223 46.7466 55.6608 46.2835C55.6608 46.2835 58.2346 45.8958 60.4314 48.0065C60.4314 48.0065 60.2699 45.0343 59.7314 45.0343C59.7314 45.0343 63.5651 44.3344 64.2651 47.0697C64.2651 47.0697 64.3405 44.8836 62.8544 44.0221C62.8544 44.0221 64.2651 41.836 67.3881 47.3066L65.8266 43.5913C65.8266 43.5913 68.1742 42.8483 69.7357 46.2081C69.7357 46.2081 70.1234 44.8943 69.1865 43.5159C69.1865 43.5159 71.5126 42.4498 73.8602 46.4451C73.8602 46.4451 75.8201 47.8558 78.1677 47.0697C80.5153 46.2835 85.1244 46.3697 88.5596 48.7927C88.5596 48.7927 86.1259 48.1681 85.0382 49.2665C85.0382 49.2665 88.8288 50.3649 90.4119 51.7649C91.9949 53.1756 93.2118 55.8247 93.8579 57.0739C94.4933 58.3231 92.5441 57.7739 92.5441 57.7739C92.5441 57.7739 94.1271 60.283 90.3042 61.726L89.9596 61.2199C89.1734 60.003 88.5489 59.4215 87.3427 58.6246C81.5706 54.8017 71.9541 54.0586 65.1051 54.9632C60.7222 55.5447 55.9946 58.7431 53.1301 61.866C50.4702 64.7736 54.8747 71.0949 54.8747 71.0949C50.5564 75.6717 53.1301 79.57 53.1301 79.57C53.1301 79.57 56.0377 84.7714 51.2994 88.6158L43.309 84.6744Z" stroke="#240046" stroke-width="2.21146" stroke-linejoin="round"/>
<path d="M93.6102 72.9903C93.6102 72.9903 93.1364 62.4476 87.3643 58.6246C81.5922 54.8017 71.9756 54.0587 65.1266 54.9632C60.7437 55.5448 56.0162 58.7431 53.1517 61.8661C50.4918 64.7737 54.8962 71.095 54.8962 71.095C50.5779 75.6717 53.1517 79.57 53.1517 79.57C53.1517 79.57 56.0593 84.7714 51.321 88.6159C51.321 88.6159 53.6901 95.7987 54.1424 98.2755C54.8962 102.303 56.5546 112.07 60.2053 113.492C65.342 115.473 72.4279 115.743 76.6601 115.99C79.8046 116.173 85.9751 116.906 89.2165 115.57C92.4579 114.235 94.6225 105.426 94.6225 105.426C94.6225 105.426 96.0332 95.7879 96.367 92.9557C96.7009 90.1343 94.5471 84.5668 93.8579 81.9823C93.4164 80.3023 94.0087 77.9116 94.1379 76.2317C94.2133 75.4133 93.6102 72.9903 93.6102 72.9903Z" stroke="#240046" stroke-width="2.21146" stroke-linejoin="round"/>
<path opacity="0.4" d="M52.9147 83.856C52.9147 83.856 55.747 95.4325 56.21 97.9094C56.9638 101.937 59.2361 109.83 62.8975 111.241C68.0342 113.223 74.9801 114.343 79.1907 114.838C81.0645 115.064 86.0182 115.99 88.7858 115.936C88.7858 115.936 73.8386 118.101 60.3883 114.16C46.938 110.218 60.3883 114.16 60.3883 114.16C60.3883 114.16 58.6007 114.816 57.05 109.755C55.4993 104.694 51.3317 87.1621 51.3317 87.1621C51.3317 87.1621 52.1717 86.2036 52.3225 85.8483C52.7747 84.9867 52.9147 83.856 52.9147 83.856Z" fill="black"/>
<path opacity="0.2" d="M66.1819 75.0579C66.5911 74.5948 67.1188 74.0026 68.2065 73.6364C69.3049 73.2595 70.5541 72.8288 73.494 73.0657C76.4446 73.3133 78.103 73.7979 79.9122 75.6071C81.7214 77.4163 81.1291 80.4962 81.1291 80.4962C81.1291 80.4962 80.6014 83.1991 79.7184 84.696C78.8245 86.1929 78.3399 86.8821 77.1769 87.5605C76.0031 88.2497 74.5493 88.4543 74.5493 88.4543C74.5493 88.4543 72.9125 88.9282 70.3064 88.2497C67.1834 87.4421 66.0742 84.8145 66.0742 84.8145C66.0742 84.8145 64.7712 82.4669 64.6528 80.41C64.5343 78.3532 64.5666 77.3947 65.0943 76.4579C65.622 75.521 65.7512 75.4671 66.0312 75.2087C66.0742 75.1764 66.1496 75.0902 66.1819 75.0579Z" fill="white"/>
<path d="M66.1173 75.1872C66.1173 75.1872 67.1188 74.0026 68.2065 73.6257C69.3049 73.2488 70.5541 72.818 73.494 73.0549C76.4446 73.3026 78.103 73.7872 79.9122 75.5964C81.7214 77.4055 81.1291 80.4854 81.1291 80.4854C81.1291 80.4854 80.6014 83.1884 79.7184 84.6853C78.8245 86.1821 78.3399 86.8713 77.1769 87.5498C76.0031 88.239 74.5493 88.4436 74.5493 88.4436C74.5493 88.4436 72.9125 88.9174 70.3064 88.239C67.1834 87.4313 66.0742 84.8037 66.0742 84.8037C66.0742 84.8037 64.7712 82.4561 64.6528 80.3993C64.5343 78.3424 64.5666 77.384 65.0943 76.4471C65.622 75.5102 66.0742 75.2195 66.0742 75.2195L66.1173 75.1872Z" stroke="#E1B554" stroke-width="1.10573" stroke-miterlimit="10"/>
<path d="M80.9138 77.244L82.5722 76.3286C82.5722 76.3286 85.5228 75.9086 86.6859 76.7809C86.6859 76.7809 86.8151 78.0301 87.3535 78.407" stroke="#E1B554" stroke-width="0.552864" stroke-miterlimit="10"/>
<path d="M99.6838 76.6409L101.482 76.824L101.601 77.7717H100.395L99.6838 76.6409Z" fill="#E1B554" stroke="#E1B554" stroke-width="1.10573" stroke-miterlimit="10"/>
<path opacity="0.2" d="M87.3535 79.6778C87.3535 79.6778 87.1381 76.8994 88.6673 75.6825C90.1965 74.4657 91.4779 74.1857 91.4779 74.1857C91.4779 74.1857 93.5348 73.7226 95.247 74.1857C96.9593 74.6487 98.1116 75.1764 98.9623 76.0594C99.4361 76.544 99.5546 76.8133 99.8238 77.3086C100.179 77.9763 100.351 78.9132 100.384 80.2916C100.416 81.6592 100.233 82.6607 100.233 82.6607C100.233 82.6607 99.953 84.4376 99.0484 85.9991C98.1439 87.5606 96.8085 88.0559 96.8085 88.0559C96.8085 88.0559 95.4301 88.659 93.8794 88.6051C92.3287 88.5513 90.7995 87.4959 90.078 86.7098C89.4211 85.9883 88.6457 84.6207 88.1719 83.3069C87.6981 82.0146 87.3535 79.6778 87.3535 79.6778Z" fill="white"/>
<path opacity="0.2" d="M90.498 75.9732C90.5626 75.6932 91.4456 75.3055 91.4456 75.3055C91.4456 75.3055 91.8549 75.1332 92.5118 74.9825C93.1579 74.8317 94.0194 74.9717 94.0194 74.9717C94.0194 74.9717 94.9024 75.1009 95.8609 75.3917C96.8193 75.6824 97.6916 76.167 98.09 76.4578C98.4562 76.7162 98.8546 77.1362 99.0592 77.4808C99.2746 77.8254 99.533 78.4931 99.3392 78.3639C98.3485 77.6747 97.5731 77.2654 96.9378 76.9855C96.3885 76.7378 95.6778 76.307 94.5901 76.0916C93.5886 75.8763 90.498 75.9732 90.498 75.9732Z" fill="white"/>
<path d="M64.0928 76.3502L65.5359 76.3287C65.7189 75.7795 66.462 75.0687 66.462 75.0687H65.8805C64.3728 75.101 63.6298 75.2195 62.9298 75.1549C62.2298 75.0903 61.7022 75.5102 61.7022 75.5102L47.9396 82.9838L48.1873 83.3823L60.9699 77.0394C60.9699 77.0394 61.2714 77.1471 61.7022 77.0825C62.1329 77.0179 62.499 76.8456 62.499 76.8456C62.499 76.8456 62.736 76.5871 63.1452 76.5225C63.5652 76.4471 64.0928 76.3502 64.0928 76.3502Z" fill="#E1B554" stroke="#E1B554" stroke-width="1.10573" stroke-miterlimit="10"/>
<path opacity="0.4" d="M53.1517 83.9745C53.1517 83.9745 48.3596 81.6592 46.9704 80.227C44.3536 77.5348 42.6306 73.0873 44.5905 65.506C44.8166 64.6445 45.0536 63.826 45.2905 63.0615C45.2905 63.0615 39.4107 69.0059 43.0075 82.7684L48.7903 83.3715L51.7518 88.6051L53.1517 83.9745Z" fill="black"/>
<path d="M87.3535 79.6778C87.3535 79.6778 87.1381 76.8994 88.6673 75.6825C90.1965 74.4657 91.4779 74.1857 91.4779 74.1857C91.4779 74.1857 93.5348 73.7226 95.247 74.1857C96.9593 74.6487 98.1116 75.1764 98.9623 76.0594C99.4361 76.544 99.5546 76.8133 99.8238 77.3086C100.179 77.9763 100.351 78.9132 100.384 80.2916C100.416 81.6592 100.233 82.6607 100.233 82.6607C100.233 82.6607 99.953 84.4376 99.0484 85.9991C98.1439 87.5606 96.8085 88.0559 96.8085 88.0559C96.8085 88.0559 95.4301 88.659 93.8794 88.6051C92.3287 88.5513 90.7995 87.4959 90.078 86.7098C89.4211 85.9883 88.6457 84.6207 88.1719 83.3069C87.6981 82.0146 87.3535 79.6778 87.3535 79.6778Z" stroke="#E1B554" stroke-width="1.10573" stroke-miterlimit="10"/>
<path d="M48.7903 83.8884C48.7903 83.8884 47.9719 83.7053 46.0119 83.3822C44.052 83.0592 42.9644 85.2022 42.9644 85.2022C42.9644 85.2022 41.3598 88.3682 42.9644 90.9097C44.5689 93.4511 44.8812 95.9064 48.3165 97.6725C51.7517 99.4386 53.8409 96.9725 53.8409 96.9725C53.8409 96.9725 50.1579 85.3529 48.7903 83.8884Z" fill="#FB8671"/>
<path opacity="0.3" d="M48.9411 83.9206C48.9411 83.9206 48.1227 83.7375 46.1627 83.4145C44.2028 83.0914 43.1151 85.2344 43.1151 85.2344C43.1151 85.2344 42.7921 85.0836 44.3859 87.6251C45.9797 90.1665 46.3027 92.6218 49.738 94.3879C53.1732 96.1432 52.5917 93.1926 52.5917 93.1926C52.5917 93.1926 50.3087 85.3852 48.9411 83.9206Z" fill="black"/>
<path d="M48.7903 83.8884C48.7903 83.8884 47.9719 83.7053 46.0119 83.3822C44.052 83.0592 42.9644 85.2022 42.9644 85.2022C42.9644 85.2022 41.3598 88.3682 42.9644 90.9097C44.5689 93.4511 44.8812 95.9064 48.3165 97.6725C51.7517 99.4386 52.9901 97.6617 52.9901 97.6617C52.9901 97.6617 50.1579 85.3529 48.7903 83.8884Z" stroke="#240046" stroke-width="2.21146" stroke-linejoin="round"/>
<path d="M84.7582 78.8594C84.7582 78.8594 85.9859 79.7532 86.5674 82.1008C87.1489 84.4376 89.9596 86.193 90.3688 87.8406C90.778 89.4775 90.078 90.242 89.7227 90.8236C89.3673 91.4051 87.2028 92.4066 87.2028 92.4066C87.2028 92.4066 85.0382 91.0605 81.9906 92.4066C78.9431 93.7527 79.5353 89.6605 79.8261 89.359" fill="#FB8671"/>
<path opacity="0.2" d="M84.2521 78.9778C84.2521 78.9778 85.2859 81.3901 85.8782 83.7269C86.4597 86.0637 89.2704 87.8191 89.6796 89.4667C89.7442 89.7251 89.7873 89.9728 89.798 90.1882C89.8734 91.3405 90.4226 87.3452 90.1319 87.8406L86.9981 83.63L85.652 80.3886L84.2521 78.9778Z" fill="white"/>
<path d="M80.1922 89.7251C79.9015 90.0158 80.1168 92.3096 83.1644 90.9635C86.212 89.6174 88.3765 90.9635 88.3765 90.9635C88.3765 90.9635 89.1411 90.6081 89.8303 90.2097C89.8303 90.2097 89.8519 92.1588 87.192 92.3634C84.5321 92.5788 84.6936 91.8896 84.6936 91.8896L80.4722 93.0096C80.4722 93.0096 79.1907 92.1265 79.7184 90.7696C80.2353 89.4128 79.8368 89.5097 79.8368 89.5097L80.1922 89.7251Z" fill="#C56858"/>
<path d="M84.7582 78.8594C84.7582 78.8594 85.9859 79.7532 86.5674 82.1008C87.1489 84.4376 89.9596 86.193 90.3688 87.8406C90.778 89.4775 90.078 90.242 89.7227 90.8236C89.3673 91.4051 87.2028 92.4066 87.2028 92.4066C87.2028 92.4066 85.0382 91.0605 81.9906 92.4066C78.9431 93.7527 79.5353 89.6605 79.8261 89.359" stroke="#C56858" stroke-width="1.10573" stroke-linecap="round" stroke-linejoin="round"/>
<path opacity="0.3" d="M55.9193 112.889L56.2639 109.874L60.7652 114.181C60.7652 114.181 76.0031 116.884 86.8474 116.755H88.1827L91.1872 122.968L92.641 123.841C91.7041 126.124 90.778 127.836 89.2273 128.482C85.9858 129.817 79.8153 129.085 76.6708 128.902C72.4387 128.654 65.342 128.396 60.216 126.404C56.5546 124.993 56.6623 116.916 55.9193 112.889Z" fill="black"/>
<path opacity="0.2" d="M70.3602 75.5533C70.4248 75.2733 71.3079 74.8857 71.3079 74.8857C71.3079 74.8857 71.7171 74.7134 72.374 74.5626C73.0201 74.4118 73.8816 74.5518 73.8816 74.5518C73.8816 74.5518 74.7647 74.681 75.7231 74.9718C76.6815 75.2626 77.5538 75.7472 77.9523 76.0379C78.3184 76.2964 78.7168 76.7164 78.9215 77.061C79.1368 77.4056 79.3953 78.0732 79.2014 77.944C78.2107 77.2548 77.4354 76.8456 76.8 76.5656C76.2508 76.3179 75.54 75.8872 74.4524 75.6718C73.4401 75.4672 70.3602 75.5533 70.3602 75.5533Z" fill="white"/>
<path d="M-10.0291 175.704C-9.41523 169.91 24.4958 176.662 41.5752 180.431C48.1873 181.896 54.9609 182.466 61.7237 182.143L94.4395 180.603L93.4164 168.155L91.3811 165.71C91.3811 165.71 53.604 123.27 42.2752 102.045L46.755 111.177L46.6043 113.427L35.1678 124.422L9.62408 139.445L4.39042 144.7L-10.0291 175.704Z" fill="#5A189A"/>
<path opacity="0.3" d="M4.55194 146.283L-2.21089 170.61C2.58125 170.739 25.5835 173.701 41.586 180.442L-0.649405 173.507L-9.21063 173.981L4.55194 146.283Z" fill="black"/>
<path d="M92.4041 121.073C92.4041 121.073 101.795 135.094 111.993 141.426C111.993 141.426 117.302 142.449 120.36 147.338C123.418 152.238 127.295 160.401 132.4 172.634C132.4 172.634 136.869 177.739 95.0424 178.956L93.4271 168.144L88.9904 162.975C88.9904 162.975 89.3457 166.076 94.4502 154.769C99.5438 143.472 92.4041 121.073 92.4041 121.073Z" fill="#5A189A"/>
<path d="M49.4795 112.146C49.4795 112.146 70.511 119.113 84.8659 147.888C84.8659 147.888 85.3074 127.276 91.5103 122.452C97.7131 117.627 96.2486 142.148 96.2486 142.148C96.2486 142.148 96.0009 157.246 91.2195 160.498C86.4274 163.75 74.9263 146.488 74.9263 146.488L49.4795 112.146Z" fill="#9D4EDD"/>
<path opacity="0.3" d="M85.049 150.02C85.049 150.02 80.6768 127.621 48.9518 110.724L43.8474 115.85C43.8474 115.85 69.4019 124.616 86.2982 152.475" fill="black"/>
<path opacity="0.2" d="M88.1827 129.613C88.1827 129.613 89.0227 130.754 90.498 132.51C91.0473 133.167 91.6826 133.91 92.4041 134.707C95.7748 138.465 100.858 143.526 106.576 147.069C106.576 147.069 111.885 148.092 114.943 152.981C117.905 157.73 120.866 164.278 125.734 175.897L131.937 173.119C131.937 173.119 122.621 148.006 116.731 144.345C110.84 140.683 104.121 136.042 104.121 136.042L92.5657 121.881L90.2719 123.938L88.1827 129.613Z" fill="white"/>
<path d="M88.6135 162.555C88.6135 162.555 100.707 157.817 94.9779 124.627" stroke="#240046" stroke-width="2.21146" stroke-miterlimit="10"/>
<path d="M-10.0291 175.704C-9.41523 169.91 24.4958 176.662 41.5752 180.431C48.1873 181.896 54.9609 182.466 61.7237 182.143L94.4395 180.603L93.4164 168.155L91.3811 165.71C91.3811 165.71 59.8284 129.839 45.7643 107.537" stroke="#240046" stroke-width="2.21146" stroke-miterlimit="10"/>
<path d="M92.4041 121.073C92.4041 121.073 101.795 135.094 111.993 141.426C111.993 141.426 117.302 142.449 120.36 147.338C123.418 152.238 127.295 160.401 132.4 172.634C132.4 172.634 136.47 177.739 94.644 178.956" stroke="#240046" stroke-width="2.21146" stroke-miterlimit="10"/>
<path d="M47.3581 110.735C47.3581 110.735 45.4735 117.552 25.885 130.205C25.885 130.205 8.741 136.936 5.27343 144.689C1.80587 152.443 -10.0291 175.704 -10.0291 175.704C-10.0291 175.704 -13.4967 179.171 -3.29856 181.82" stroke="#240046" stroke-width="2.21146" stroke-miterlimit="10"/>
<path d="M44.6551 95.1096C44.6551 95.1096 33.8432 101.226 53.6363 113.47C73.4294 125.715 82.1953 141.426 82.1953 141.426C82.1953 141.426 83.6921 143.806 84.306 146.057C84.9198 148.297 90.0888 164.342 90.0888 164.342" stroke="#240046" stroke-width="2.21146" stroke-miterlimit="10"/>
<path d="M90.8318 159.68C89.2057 154.683 86.5997 146.585 86.2766 145.099C85.8028 142.923 85.8674 141.426 85.8674 141.426C85.8674 135.514 88.7319 125.51 93.2118 120.007C97.7024 114.494 97.907 107.558 96.6901 102.454C96.4101 101.323 95.9794 100.354 95.4732 99.5356" stroke="#240046" stroke-width="2.21146" stroke-miterlimit="10" stroke-linecap="round"/>
</g>
<path fill-rule="evenodd" clip-rule="evenodd" d="M131.328 56.2593L131.341 56.2593C132.54 56.2593 133.511 55.2876 133.511 54.0889L133.511 54.0841C133.514 53.6866 133.837 53.3652 134.235 53.3652C134.634 53.3652 134.958 53.6891 134.958 54.0887V54.0887H134.958V54.0889C134.958 55.2876 135.93 56.2593 137.129 56.2593L137.142 56.2593C137.535 56.2661 137.852 56.5874 137.852 56.9826C137.852 57.3803 137.531 57.703 137.134 57.7061C137.132 57.7061 137.131 57.7061 137.129 57.7061C135.93 57.7061 134.958 58.6778 134.958 59.8765C134.958 59.8784 134.958 59.8803 134.958 59.8822C134.955 60.2791 134.632 60.6 134.235 60.6C133.835 60.6 133.511 60.2761 133.511 59.8765V59.8765H133.511C133.511 58.6779 132.54 57.7062 131.341 57.7062V57.7061H131.341C130.941 57.7061 130.617 57.3822 130.617 56.9826C130.617 56.5873 130.934 56.2661 131.328 56.2593Z" fill="#E1B554"/>
<path fill-rule="evenodd" clip-rule="evenodd" d="M130.527 33.1076V33.1079H130.527C129.328 33.1079 128.357 34.0796 128.357 35.2783C128.357 36.4708 129.318 37.4387 130.508 37.4487L130.527 37.4487C134.123 37.4487 137.038 40.3639 137.038 43.96V43.96H137.038C137.038 45.1586 138.01 46.1303 139.209 46.1303C140.403 46.1303 141.372 45.1654 141.379 43.9725C141.379 43.9683 141.379 43.9641 141.379 43.96C141.379 40.3639 144.294 37.4487 147.89 37.4487C147.897 37.4487 147.903 37.4487 147.909 37.4487C149.099 37.4387 150.061 36.4708 150.061 35.2783C150.061 34.0797 149.089 33.1079 147.891 33.1079V33.1077H147.89C144.294 33.1077 141.379 30.1925 141.379 26.5964L141.379 26.5839C141.372 25.391 140.403 24.4261 139.209 24.4261C138.01 24.4261 137.038 25.3978 137.038 26.5965V26.5965H137.038C137.038 30.1925 134.123 33.1075 130.527 33.1076Z" fill="#E1B554"/>
<path fill-rule="evenodd" clip-rule="evenodd" d="M113.525 44.6833H113.525C115.923 44.6833 117.866 42.7399 117.866 40.3425L117.866 40.326C117.875 39.5345 118.519 38.8956 119.313 38.8956C120.112 38.8956 120.76 39.5435 120.76 40.3426V40.3428H120.76C120.76 42.7401 122.704 44.6834 125.101 44.6834V44.6835C125.9 44.6835 126.548 45.3314 126.548 46.1305C126.548 46.9296 125.9 47.5774 125.101 47.5774V47.5776C122.703 47.5776 120.76 49.5211 120.76 51.9185H120.76C120.76 52.7176 120.112 53.3653 119.313 53.3653C118.519 53.3653 117.875 52.7265 117.866 51.935L117.866 51.9185C117.866 49.5211 115.923 47.5776 113.525 47.5776H113.525V47.5774C112.726 47.5774 112.078 46.9296 112.078 46.1305C112.078 45.3314 112.726 44.6835 113.525 44.6835H113.525V44.6833Z" fill="#E1B554"/>
<circle cx="115" cy="115" r="113" stroke="#2A294C" stroke-width="4"/>
</svg>
