<svg width="160" height="160" viewBox="0 0 160 160" fill="none" xmlns="http://www.w3.org/2000/svg">
<circle cx="80" cy="80" r="77.913" fill="#0C0E19"/>
<mask id="mask0" mask-type="alpha" maskUnits="userSpaceOnUse" x="2" y="2" width="156" height="156">
<circle cx="80" cy="80" r="77.913" fill="#B53B3B"/>
</mask>
<g mask="url(#mask0)">
<path d="M108.922 145.796C108.922 145.796 103.88 148.778 103.319 165.813C102.749 182.849 103.319 202.573 103.319 202.573C103.319 202.573 103.251 208.177 108.503 201.937C113.754 195.689 116.736 183.695 116.736 183.695C116.736 183.695 119.006 170.278 117.942 147.639C117.934 147.639 114.031 142.597 108.922 145.796Z" fill="#240046"/>
<path opacity="0.3" d="M108.922 145.796C108.922 145.796 103.88 148.778 103.319 165.813C102.749 182.849 103.319 202.573 103.319 202.573C103.319 202.573 103.251 208.177 108.503 201.937C113.754 195.689 116.736 183.695 116.736 183.695C116.736 183.695 119.006 170.278 117.942 147.639C117.934 147.639 114.031 142.597 108.922 145.796Z" fill="black"/>
<path d="M107.102 147.354L108.3 146.875L110.121 146.096L109.469 142.006L111.694 137.001C111.694 137.001 109.874 132.709 111.529 131.75C113.185 130.791 114.181 130.506 114.818 131.428C115.455 132.349 116.346 134.574 116.346 134.574L125.074 132.012L127.239 135.009L125.785 136.747L126.954 138.702L125.246 140.889L126.13 143.496L124.212 145.946L123.845 149.212C123.845 149.212 122.399 150.456 119.313 150.171C116.226 149.887 114.975 152.494 114.975 152.494L110.63 155.37L104.353 156.696L107.102 147.354Z" fill="#FB8671"/>
<path opacity="0.3" d="M114.601 147.677C112.338 147.767 112.009 145.407 112.009 143.774C112.009 142.687 112.638 142.163 112.601 141.744C112.541 141.032 112.166 139.848 112.188 139.369C112.203 139.092 112.323 138.739 112.75 138.582C112.286 138.665 111.11 138.395 111.125 138.283C111.342 136.822 114.234 136.732 114.691 136.994C115.747 137.608 115.185 146.62 114.548 151.467C114.458 152.142 114.091 152.643 114.016 153.123C113.926 153.715 108.113 155.992 105.529 156.277C104.045 156.442 105.124 154.981 105.147 154.644C105.162 154.441 113.35 151.932 113.507 151.834C113.799 151.647 114.061 150.726 114.016 150.92C113.949 151.228 114.601 147.677 114.601 147.677Z" fill="black"/>
<path d="M122.339 132.005C122.339 132.005 122.796 132.304 123.853 132.379" stroke="#240046" stroke-width="1.53841" stroke-linecap="round" stroke-linejoin="round"/>
<path d="M111.529 136.462C111.529 136.462 109.08 140.178 109.514 142.56C109.949 144.942 110.098 145.369 110.098 145.369C110.098 145.369 110.758 146.905 108.3 146.516" stroke="#240046" stroke-width="1.53841" stroke-linecap="round" stroke-linejoin="round"/>
<path d="M119.642 149.812C118.354 150.538 115.252 150.419 115.252 150.419L114.788 153.04C114.788 153.04 111.724 155.917 105.049 156.689" stroke="#240046" stroke-width="1.53841" stroke-linecap="round" stroke-linejoin="round"/>
<path d="M125.119 131.862C124.047 131.248 122.864 130.806 122.864 130.806" stroke="#240046" stroke-width="1.53841" stroke-linecap="round" stroke-linejoin="round"/>
<path d="M86.9874 176.743C86.9874 176.743 98.7339 185.553 102.659 199.195C102.659 199.195 102.48 188.227 103.888 162.397C103.888 162.397 103.319 148.815 109.559 144.89C109.559 144.89 106.877 144.006 103.064 143.639C97.8574 143.144 90.8979 142.92 88.9951 140.747C87.4669 138.612 88.9577 123.09 88.9577 123.09H85.9911L86.9874 176.743Z" fill="#5A189A"/>
<path opacity="0.2" d="M88.5757 140.777C88.6131 142.807 88.733 144.291 88.9952 144.5C89.9691 145.279 90.9654 146.913 96.4266 146.845C99.0186 146.815 103.199 147.235 106.78 147.677C107.769 147.797 109.087 144.755 109.552 144.508L91.797 142.912L89.4672 141.706L88.5757 140.777Z" fill="white"/>
<path d="M109.559 144.89C109.559 144.89 103.88 148.77 103.311 165.806C102.742 182.841 103.311 202.566 103.311 202.566C103.311 202.566 103.244 208.169 108.495 201.929C110.151 199.959 110.615 199.382 111.799 196.82" stroke="#240046" stroke-width="1.53841" stroke-miterlimit="10"/>
<path d="M88.9951 122.363C88.9951 122.363 88.0212 139.968 88.9951 140.747C89.969 141.526 90.9653 143.159 96.4265 143.092C99.7302 143.047 105.626 143.744 109.559 144.283" stroke="#240046" stroke-width="1.53841" stroke-miterlimit="10"/>
<path d="M110.72 290.192L113.949 290.552L125.209 61.9305L117.964 61.5709L110.72 290.192Z" fill="#E1B554"/>
<path opacity="0.4" d="M110.72 290.192L113.949 290.552L119.553 65.9383L121.058 64.9045L122.16 62.4698L118.654 62.29L118.466 66.1331L110.72 290.192Z" fill="black"/>
<path d="M123.141 25.7996L125.583 46.9478L118.931 46.6856L123.141 25.7996Z" fill="#B53B3B"/>
<path opacity="0.2" d="M123.336 27.5002L125.209 46.723L121.575 46.5807L123.336 27.5002Z" fill="white"/>
<path d="M120.474 55.9224H124.19L125.583 46.9477L118.931 46.6855L120.474 55.9224Z" fill="#B53B3B"/>
<path opacity="0.3" d="M120.474 55.9224L121.328 51.8246L121.545 46.9477L118.931 46.6855L120.474 55.9224Z" fill="black"/>
<path d="M123.141 25.7996L125.583 46.9478L131.666 45.3446L123.141 25.7996Z" fill="#B53B3B"/>
<path opacity="0.3" d="M124.205 29.313L126.032 46.6855L132.168 44.7452L124.205 29.313Z" fill="white"/>
<path d="M125.208 55.9224L125.583 46.9477L131.666 45.3446L128.025 53.7948L125.208 55.9224Z" fill="#B53B3B"/>
<path d="M123.141 25.7996L112.645 44.8801L118.931 46.6856L123.141 25.7996Z" fill="#B53B3B"/>
<path d="M119.56 56.4767L116.661 54.0945L112.645 44.8801L118.931 46.6855L119.56 56.4767Z" fill="#B53B3B"/>
<path opacity="0.3" d="M119.56 55.5703L115.657 53.188L112.645 44.8801L118.931 46.6855L119.56 55.5703Z" fill="black"/>
<path d="M123.141 25.7996L112.645 44.8801L118.931 46.6856L123.141 25.7996Z" stroke="#240046" stroke-width="1.53841" stroke-miterlimit="10" stroke-linejoin="bevel"/>
<path d="M124.242 57.8177L125.583 46.9477L118.931 46.6855L120.324 57.6154L124.242 57.8177Z" stroke="#240046" stroke-width="1.53841" stroke-miterlimit="10" stroke-linejoin="bevel"/>
<path d="M123.141 25.7996L125.583 46.9478L131.666 45.3446" stroke="#240046" stroke-width="1.53841" stroke-miterlimit="10" stroke-linejoin="bevel"/>
<path d="M110.72 290.192L113.949 290.552L125.209 61.9305L117.964 61.5709L110.72 290.192Z" stroke="#240046" stroke-width="1.53841" stroke-miterlimit="10"/>
<path d="M123.141 25.7996L125.583 46.9478L118.931 46.6856L123.141 25.7996Z" stroke="#240046" stroke-width="1.53841" stroke-miterlimit="10" stroke-linejoin="bevel"/>
<path d="M123.141 25.7996L112.645 44.8801L116.046 52.6936L122.429 60.0202L128.325 52.9334L131.666 45.3446L123.141 25.7996Z" stroke="#240046" stroke-width="1.53841" stroke-miterlimit="10"/>
<path d="M117.964 61.5709L125.208 61.9305L128.325 52.9334L124.242 57.8178L122.197 51.0231L120.324 57.6155L116.046 52.6937L117.964 61.5709Z" fill="#5A189A"/>
<path opacity="0.4" d="M119.29 57.136L116.046 52.6937L117.964 61.5709H122.257L119.29 57.136Z" fill="black"/>
<path d="M117.964 61.5709L125.208 61.9305L128.325 52.9334L124.242 57.8178L122.197 51.0231L120.324 57.6155L116.046 52.6937L117.964 61.5709Z" stroke="#240046" stroke-width="1.53841" stroke-miterlimit="10"/>
<path d="M123.852 131.645L116.331 135.301L115.028 132.005L114.638 135.001L115.829 135.908L115.402 137.78L113.499 138.927L114.129 145.377L115.575 147.122L116.945 149.812L122.924 150.074L124.414 145.691L125.973 142.425L124.594 140.567L126.961 138.32L125.148 136.852L126.961 134.282L126.077 132.686L123.852 131.645Z" fill="#FB8671"/>
<path opacity="0.2" d="M124.414 131.645L126.782 133.016L126.017 135.338C126.017 135.338 124.849 134.731 124.422 134.731C122.302 134.724 118.646 136.874 116.016 135.818C114.72 135.301 122.571 132.267 123.35 131.885C123.41 131.855 123.44 131.84 123.493 131.817C123.927 131.63 124.414 131.645 124.414 131.645Z" fill="white"/>
<path opacity="0.2" d="M124.864 136.889L126.774 138.178L126.871 139.414C126.871 139.414 124.841 139.968 125.036 139.593C125.695 138.327 124.864 136.889 124.864 136.889Z" fill="white"/>
<path opacity="0.3" d="M114.885 138.814C114.885 138.814 116.781 140.342 119.41 139.324C120.773 138.792 124.729 138.043 125.208 137.668C125.68 137.293 122.631 137.668 122.631 137.668L114.885 138.814Z" fill="black"/>
<path opacity="0.3" d="M113.095 142.665C113.095 142.665 113.252 143.766 117.013 143.489C123.433 143.009 123.935 141.893 124.414 141.519C124.886 141.144 120.721 141.594 120.721 141.594L113.095 142.665Z" fill="black"/>
<path opacity="0.3" d="M114.885 146.658C114.885 146.658 115.957 147.662 118.773 147.422C125.186 146.875 122.631 146.478 123.103 146.096C123.575 145.721 122.152 145.586 122.152 145.586L114.885 146.658Z" fill="black"/>
<path opacity="0.2" d="M125.755 141.361L126.002 143.152L125.785 144.388L123.807 145.152C123.807 145.152 125.658 143.107 123.702 141.271C122.631 140.268 124.077 141.541 124.984 141.376C125.051 141.361 125.313 141.294 125.373 141.286C125.882 141.211 125.755 141.361 125.755 141.361Z" fill="white"/>
<path opacity="0.2" d="M125.021 147.684L124.414 149.07L123.703 150.134L121.65 149.632C121.65 149.632 124.107 148.688 123.103 145.886C122.609 144.508 123.433 146.47 124.264 146.853C124.324 146.882 124.579 146.972 124.639 147.002C125.081 147.227 125.021 147.684 125.021 147.684Z" fill="white"/>
<path d="M122.886 132.477C122.639 132.859 116.623 134.941 115.867 135.173C115.11 135.406 115.567 137.129 115.567 137.129C115.567 137.129 115.829 138.837 118.414 138.155C120.998 137.473 124.1 136.882 124.1 136.882C124.1 136.882 125.688 136.762 126.205 136.005C126.722 135.248 127.306 134.387 126.684 133.181C126.444 132.716 125.808 132.252 125.118 131.855C124.751 131.645 124.369 131.458 124.032 131.293" stroke="#240046" stroke-width="1.53841" stroke-linecap="round" stroke-linejoin="round"/>
<path d="M116.121 137.983C116.121 137.983 113.881 138.312 113.859 139.444C113.836 140.575 113.934 141.414 114.6 141.661C115.267 141.908 121.2 141.489 121.2 141.489C121.2 141.489 123.56 141.092 124.392 140.672C125.748 139.99 125.912 139.661 126.362 139.249C126.721 138.919 126.736 137.93 125.92 137.339C124.766 136.507 124.774 136.777 124.774 136.777" stroke="#240046" stroke-width="1.53841" stroke-linecap="round" stroke-linejoin="round"/>
<path d="M119.2 141.743L115.432 141.976C115.432 141.976 113.402 141.766 113.507 143.496C113.612 145.219 114.024 146.223 115.267 146.088C116.511 145.954 122.347 145.811 122.347 145.811C122.347 145.811 124.212 145.946 125.141 144.912C126.07 143.878 125.725 142.567 125.725 142.567C125.725 142.567 125.845 141.152 123.852 140.889" stroke="#240046" stroke-width="1.53841" stroke-linecap="round" stroke-linejoin="round"/>
<path d="M123.515 145.721C123.515 145.721 124.616 146.463 124.377 147.707C124.137 148.95 123.096 149.812 123.096 149.812H118.511C118.511 149.812 116.99 149.879 116.166 148.913C115.335 147.946 115.305 146.515 116.406 146.006" stroke="#240046" stroke-width="1.53841" stroke-linecap="round" stroke-linejoin="round"/>
<path opacity="0.4" d="M115.747 133.196C115.747 133.196 116.024 131.653 114.885 130.858C114.518 130.604 114.818 130.746 114.75 130.784C114.069 131.173 113.964 133.166 114.031 133.743C114.256 135.623 115.14 135.668 115.14 135.668C115.14 135.668 113.776 137.983 115.245 136.072C115.245 136.072 116.061 134.289 115.747 133.196Z" fill="black"/>
<path d="M115.747 133.196C115.747 133.196 115.822 131.226 114.496 130.814C112.795 130.289 112.241 130.911 111.612 131.285C110.937 131.69 109.986 132.372 110.39 134.222C110.795 136.072 112.016 136.926 112.016 136.926C112.016 136.926 113.769 137.99 115.245 136.08C115.245 136.072 116.061 134.29 115.747 133.196Z" stroke="#240046" stroke-width="1.53841" stroke-linecap="round" stroke-linejoin="round"/>
<path d="M5.75106 201.143C5.75106 201.143 7.72129 227.977 -8.56494 253.522C-8.56494 253.522 -5.98042 280.349 22.4119 284.889C50.8041 289.428 58.7525 289.998 58.7525 289.998C58.7525 289.998 75.5481 255.605 70.042 124.371C70.042 124.371 43.9645 127.78 23.618 124.371C3.27142 120.962 4.38763 172.466 4.38763 172.466L5.75106 201.143Z" fill="#5A189A"/>
<path d="M70.0344 124.379C70.0344 124.379 72.6639 176.691 74.3944 192.857C76.1324 209.023 85.3767 282.813 85.3767 282.813L101.948 277.322C101.948 277.322 103.079 276.798 102.472 273.651C98.7938 254.593 84.3954 184.085 85.4142 155.82C86.5978 122.888 86.2832 131.405 86.2832 131.405C86.2832 131.405 86.2832 123.502 84.8673 122.363C80.822 119.105 70.0344 124.379 70.0344 124.379Z" fill="#5A189A"/>
<path d="M85.4143 123.097C85.639 128.791 86.2833 176.309 86.2833 176.309" stroke="#240046" stroke-width="1.53841" stroke-miterlimit="10"/>
<path d="M5.75106 201.143C5.75106 201.143 7.72129 227.977 -8.56494 253.522C-8.56494 253.522 -5.98042 280.349 22.4119 284.888C50.8041 289.428 58.7525 289.998 58.7525 289.998C58.7525 289.998 75.5481 255.605 70.042 124.371" stroke="#240046" stroke-width="1.53841" stroke-miterlimit="10"/>
<path d="M64.828 133.885C61.1722 130.933 54.7596 132.716 54.7596 132.716L54.7147 134.619C60.3107 132.941 63.5245 135.196 63.5245 135.196L67.9969 186.197L7.29431 195.749L8.92743 196.333L68.1017 187.351L69.5925 187.081L64.828 133.885Z" fill="#B53B3B"/>
<path opacity="0.4" d="M64.828 133.885C61.1722 130.933 54.7596 132.716 54.7596 132.716L54.7147 134.619C60.3107 132.941 63.5245 135.196 63.5245 135.196L67.9969 186.197L7.29431 195.749L8.92743 196.333L68.1017 187.351L69.5925 187.081L64.828 133.885Z" fill="black"/>
<path d="M54.7595 134.784C59.1869 137.638 63.5244 135.203 63.5244 135.203L67.9893 185.8L59.1794 185.216L54.7595 134.784Z" fill="#FFFCE8"/>
<path opacity="0.4" d="M63.5245 135.481C63.4196 136.387 61.397 135.204 61.397 135.204L65.9143 185.658L67.9894 185.8L63.5245 135.481Z" fill="black"/>
<path d="M54.7595 134.784C59.1869 137.638 63.5244 135.204 63.5244 135.204C63.5244 135.204 59.3218 133.024 54.7595 134.784Z" fill="#240046"/>
<path d="M54.7595 134.784C59.1869 137.638 63.5244 135.203 63.5244 135.203" stroke="#240046" stroke-width="0.769203" stroke-miterlimit="10"/>
<path d="M53.7334 132.776C60.1685 131.091 65.0753 133.9 65.0753 133.9L69.69 186.519C69.7274 186.916 69.4428 187.268 69.0532 187.328L8.92751 196.333L-1.17834 194.842" stroke="#240046" stroke-width="0.769203" stroke-miterlimit="10"/>
<path d="M54.7595 134.784C59.8312 133.053 63.5244 135.204 63.5244 135.204L67.9893 186.092L4.95691 195.749" stroke="#240046" stroke-width="0.769203" stroke-miterlimit="10"/>
<path d="M54.5648 132.597L59.2469 185.913L-1.58297 195.03L-3.80042 145.152L54.5648 132.597Z" fill="#B53B3B"/>
<path d="M54.6396 133.443L59.1794 185.208C59.2169 185.605 58.9322 185.958 58.5426 186.018L-0.766512 194.902C-1.2085 194.97 -1.60554 194.64 -1.62802 194.191L-3.77804 145.789C-3.79302 145.422 -3.54581 145.1 -3.18622 145.025L53.7332 132.776C54.1752 132.679 54.6022 132.994 54.6396 133.443Z" stroke="#240046" stroke-width="0.769203" stroke-miterlimit="10"/>
<path opacity="0.4" d="M3.95315 143.489L4.36518 194.138L-1.58297 195.03L-3.80042 145.152L3.95315 143.489Z" fill="black"/>
<path d="M50.4071 138.133L54.2502 181.912C54.2802 182.249 54.0404 182.549 53.7108 182.594L3.55612 190.108C3.18155 190.16 2.84444 189.883 2.82946 189.508L1.00905 148.576C0.994072 148.269 1.20383 147.991 1.51098 147.924L49.643 137.563C50.0101 137.488 50.3697 137.751 50.4071 138.133Z" stroke="#E1B554" stroke-width="1.53841" stroke-miterlimit="10"/>
<path d="M-1.01369 120.67C-1.01369 120.67 -7.14912 145.856 -8.58746 152.711C-10.0258 159.558 -1.62798 182.676 -1.62798 182.676L20.951 239.805L28.9967 195.374L31.6936 185.815L35.0198 179.979C35.0198 179.979 23.7303 173.057 15.6546 155.805C13.1075 146.86 12.2835 149.714 12.7704 143.849C13.1075 141.766 18.816 130.514 18.816 130.514L20.966 123.839L-0.781455 120.828L-1.01369 120.67Z" fill="#5A189A"/>
<path opacity="0.2" d="M32.4502 183.523L30.008 181.942C15.5571 171.454 17.6772 166.218 12.9951 158.254C7.79609 149.407 9.96858 143.489 9.96858 143.489C12.9052 138.193 18.9283 129.39 18.9283 129.39L13.5644 141.818L13.2798 147.564L15.5047 155.28L23.4006 168.42L35.222 179.35L32.4502 183.523Z" fill="white"/>
<path opacity="0.3" d="M-1.53815 123.839C-1.53815 123.839 -1.85279 125.547 4.76209 126.484C11.377 127.42 29.0266 130.799 33.4241 130.948C37.8215 131.098 63.0899 130.064 63.0899 130.064L65.6894 129.772V128.154C65.6894 128.154 85.6613 127.158 88.5605 126.484V122.843L65.9965 124.82L65.3822 126.116L35.3643 126.903C35.3643 126.903 10.0959 121.105 0.154896 121.03C0.154896 121.03 -1.30592 120.723 -1.53815 123.839Z" fill="black"/>
<path d="M-1.01364 120.67L-7.37381 146.501C-7.37381 146.501 -11.097 154.449 -5.41856 171.2C0.259892 187.95 21.2582 240.704 21.2582 240.704" stroke="#240046" stroke-width="1.53841" stroke-miterlimit="10"/>
<path d="M20.9735 123.839C20.9735 123.839 16.4937 136.515 13.5645 141.818C13.5645 141.818 11.392 147.729 16.591 156.584C21.2657 164.547 21.3705 169.304 35.8289 179.785" stroke="#240046" stroke-width="1.53841" stroke-miterlimit="10"/>
<path d="M40.2787 80.1719C40.2787 80.1719 25.2735 73.1749 29.9706 67.7437C34.6676 62.3125 50.9239 65.354 50.9239 65.354C50.9239 65.354 66.1464 65.3465 67.2626 71.2796C68.8058 79.4977 62.4531 86.547 62.4531 86.547L40.2787 80.1719Z" fill="#E1B554"/>
<path d="M35.7015 68.3955C35.7015 68.3955 37.4245 71.407 39.0052 79.0257C39.0052 79.0257 39.5221 84.9589 38.2111 87.2737C38.0388 87.5809 37.402 88.1802 37.402 88.1802C37.402 88.1802 34.3755 89.0867 35.7015 93.147C37.0274 97.2148 42.1066 98.7955 42.1066 98.7955C42.1066 98.7955 48.9387 101.223 54.2501 97.7242C55.5761 96.8477 58.7075 103.65 59.7338 102.549C62.8277 99.2449 66.7457 89.0417 66.7457 89.0417C66.7457 89.0417 63.2997 84.899 62.588 83.4307C61.8763 81.9624 62.4531 83.161 61.3294 80.6289" fill="#FB8671"/>
<path d="M35.7015 68.3955C35.7015 68.3955 37.4245 71.407 39.0052 79.0257C39.0052 79.0257 39.5221 84.9589 38.2111 87.2737C38.0388 87.5809 37.402 88.1802 37.402 88.1802C37.402 88.1802 34.3755 89.0866 35.7015 93.147C37.0274 97.2148 42.1066 98.7955 42.1066 98.7955C42.1066 98.7955 48.9387 101.223 54.2501 97.7242C55.5761 96.8477 59.1195 104.137 60.1458 103.036C63.2397 99.7319 66.7382 89.0417 66.7382 89.0417C66.7382 89.0417 63.2922 84.899 62.5805 83.4307C61.8688 81.9624 62.4457 83.161 61.3219 80.6289" stroke="#240046" stroke-width="1.53841" stroke-linejoin="round"/>
<path d="M65.0302 50.7758C65.0302 50.7758 64.7005 43.4418 60.6852 40.7823C56.6698 38.1229 49.98 37.606 45.2155 38.2353C42.1665 38.6398 38.8778 40.8647 36.8851 43.0372C35.0347 45.0599 38.0987 49.4573 38.0987 49.4573C35.0947 52.6412 36.8851 55.353 36.8851 55.353C36.8851 55.353 38.9078 58.9714 35.6116 61.6458C35.6116 61.6458 37.2597 66.6425 37.5743 68.3655C38.0987 71.1673 39.2524 77.962 41.7919 78.9508C45.3653 80.3292 50.2946 80.5165 53.2388 80.6888C55.4262 80.8162 59.7188 81.3256 61.9737 80.3967C64.2286 79.4677 65.7344 73.3398 65.7344 73.3398C65.7344 73.3398 66.7157 66.635 66.948 64.6648C67.1802 62.7021 65.6819 58.829 65.2025 57.0311C64.8953 55.8624 65.3073 54.1994 65.3972 53.0307C65.4497 52.4614 65.0302 50.7758 65.0302 50.7758Z" fill="#FB8671"/>
<path d="M59.0446 52.7984C59.0446 52.7984 60.6777 51.45 62.2883 51.3751C63.899 51.2927 65.7119 52.0868 65.7119 52.0868C65.7119 52.0868 66.2588 52.4538 66.1164 53.1505C65.9741 53.8472 64.8729 53.4127 64.8729 53.4127C64.8729 53.4127 62.3857 52.9033 60.5953 53.7573C58.7974 54.6114 59.0446 52.7984 59.0446 52.7984Z" fill="#240046"/>
<path d="M65.1201 55.5178L69.3452 53.6001L69.57 54.0196L65.1201 55.9224V55.5178Z" fill="#E1B554" stroke="#E1B554" stroke-width="0.769203" stroke-miterlimit="10"/>
<path d="M35.7015 61.6458C35.7015 61.6458 37.3496 66.6425 37.6643 68.3655C38.1887 71.1673 39.3423 77.962 41.8819 78.9508C45.4553 80.3292 50.3846 80.5165 53.3287 80.6888C55.5162 80.8162 59.8088 81.3256 62.0637 80.3967C64.3186 79.4677 65.8243 73.3398 65.8243 73.3398C65.8243 73.3398 66.8057 66.635 67.0379 64.6648L66.4161 66.1106C65.682 67.7438 64.9104 67.946 64.9104 67.946C64.9104 67.946 64.6257 66.9647 62.7079 66.0732C60.7901 65.1742 61.3145 64.3052 61.3145 64.3052L58.9098 64.1404L57.2167 64.455C56.9845 66.1781 55.9357 66.4777 55.9357 66.4777C52.2649 67.3317 51.2087 70.7553 51.2087 70.7553C51.2087 70.7553 49.2085 71.7741 44.2342 68.8824C39.2599 65.9908 37.7092 59.6606 37.7092 59.6606L35.7015 61.6458Z" fill="#240046"/>
<path d="M54.0179 71.025C54.0179 71.025 58.0483 68.7551 58.7225 68.6128C59.3967 68.4704 60.026 68.7776 60.026 68.7776C60.026 68.7776 60.3931 68.815 60.8651 68.4704C61.337 68.1258 62.4982 69.0023 62.7004 69.2046C62.9252 69.4293 63.0675 69.9387 63.3747 70.2983C63.3747 70.2983 62.0262 71.6767 60.9924 71.9165C59.9586 72.1562 56.5126 72.2086 55.1192 71.7367C54.8045 71.6318 54.0179 71.025 54.0179 71.025Z" fill="#FB7F71"/>
<path opacity="0.3" d="M62.8427 69.699C62.6405 69.4968 61.277 68.5379 60.8051 68.8825C60.3331 69.2271 59.966 69.1896 59.966 69.1896C59.966 69.1896 59.3368 68.8825 58.6625 69.0248C58.4078 69.0772 57.5913 69.4293 56.6024 69.7814C56.6024 69.7814 57.9284 68.83 58.9247 68.6802C59.9211 68.5304 60.026 68.8825 60.026 68.8825L61.1197 68.5004C61.1197 68.5004 62.2809 68.7776 62.5581 69.2346C62.8427 69.699 62.8427 69.699 62.8427 69.699Z" fill="white"/>
<path opacity="0.3" d="M54.2651 71.2123C54.2651 71.2123 54.7371 71.2572 55.0517 71.3246C56.0706 71.5269 60.7152 71.6767 61.7565 71.4295C61.7565 71.4295 62.0112 72.1562 58.6326 71.9689C55.2615 71.7816 55.6136 71.7816 55.6136 71.7816L54.2651 71.2123Z" fill="black"/>
<path d="M54.0179 71.025C54.0179 71.025 58.0483 68.7551 58.7225 68.6128C59.3967 68.4704 60.026 68.7776 60.026 68.7776C60.026 68.7776 60.3931 68.815 60.8651 68.4704C61.337 68.1258 62.4982 69.0023 62.7004 69.2046C62.9252 69.4293 63.0675 69.9387 63.3747 70.2983C63.3747 70.2983 62.0262 71.6767 60.9924 71.9165C59.9586 72.1562 56.5126 72.2086 55.1192 71.7367C54.8045 71.6318 54.0179 71.025 54.0179 71.025Z" stroke="#9E5346" stroke-width="0.384601" stroke-miterlimit="10" stroke-linecap="round" stroke-linejoin="round"/>
<path d="M54.2651 71.0849C54.2651 71.0849 56.6699 70.4257 58.6551 70.4257C60.6553 70.4257 61.1048 70.1185 61.1048 70.1185C61.1048 70.1185 61.6591 69.8039 62.206 70.0661C62.7529 70.3283 63.0151 70.1934 63.0151 70.1934" stroke="#9E5346" stroke-width="0.384601" stroke-miterlimit="10" stroke-linecap="round"/>
<path d="M64.5882 55.9973C64.5882 55.9973 64.4384 53.5102 61.5692 55.353L60.4155 56.0647L61.7565 56.8288C61.7565 56.8288 63.3896 57.6454 64.0788 57.0011C64.0788 57.0011 64.4309 56.4992 64.5882 55.9973Z" fill="#FFE9E9"/>
<path d="M63.1423 57.0011C63.6305 57.0011 64.0263 56.4611 64.0263 55.795C64.0263 55.1288 63.6305 54.5889 63.1423 54.5889C62.6541 54.5889 62.2583 55.1288 62.2583 55.795C62.2583 56.4611 62.6541 57.0011 63.1423 57.0011Z" fill="#37444C"/>
<path d="M63.1424 56.4318C63.3906 56.4318 63.5918 56.1534 63.5918 55.81C63.5918 55.4666 63.3906 55.1882 63.1424 55.1882C62.8941 55.1882 62.6929 55.4666 62.6929 55.81C62.6929 56.1534 62.8941 56.4318 63.1424 56.4318Z" fill="black"/>
<path d="M64.4459 55.9973C64.4459 55.9973 64.4384 53.5102 61.5692 55.353L60.4155 56.0647L61.8389 56.7914C61.8389 56.7914 63.4121 57.593 64.0264 56.8813C64.2136 56.664 64.2811 56.4992 64.4459 55.9973Z" stroke="#C56858" stroke-width="0.346141" stroke-miterlimit="10"/>
<path d="M63.4345 55.6002C63.5214 55.6002 63.5919 55.503 63.5919 55.383C63.5919 55.263 63.5214 55.1657 63.4345 55.1657C63.3477 55.1657 63.2772 55.263 63.2772 55.383C63.2772 55.503 63.3477 55.6002 63.4345 55.6002Z" fill="#9BB0CF"/>
<path d="M31.6636 66.3654C31.6636 66.3654 31.9333 68.7926 33.1244 70.8527L33.7761 69.9238C33.7761 69.9238 34.9148 74.1265 37.9638 74.6658L36.9899 67.107L31.6636 66.3654Z" fill="#240046" stroke="#240046" stroke-width="0.769203" stroke-linejoin="round"/>
<path d="M30.1279 58.9039C30.1279 58.9039 27.798 53.7798 29.154 48.5059C30.5099 43.232 32.5251 40.625 32.5251 40.625L34.2631 39.5912C34.2631 39.5912 32.9072 39.2091 32.3079 39.5912C31.7085 39.9732 34.1582 34.8042 39.3722 35.6208C39.3722 35.6208 37.8365 34.2648 35.6939 34.8042C35.6939 34.8042 37.6342 31.8676 41.0578 33.9352C41.0578 33.9352 39.8067 32.5193 38.7205 32.1972C38.7205 32.1972 40.5109 31.9275 42.0391 33.3958C42.0391 33.3958 41.9268 31.3282 41.5522 31.3282C41.5522 31.3282 44.2191 30.8413 44.7061 32.7441C44.7061 32.7441 44.7585 31.2233 43.7247 30.624C43.7247 30.624 44.7061 29.1033 46.8786 32.9089L45.7923 30.3244C45.7923 30.3244 47.4254 29.8075 48.5117 32.1448C48.5117 32.1448 48.7814 31.2308 48.1296 30.2719C48.1296 30.2719 49.7478 29.5303 51.3809 32.3096C51.3809 32.3096 52.7443 33.2909 54.3774 32.7441C56.0105 32.1972 59.2168 32.2571 61.6066 33.9427C61.6066 33.9427 59.9135 33.5082 59.1569 34.2723C59.1569 34.2723 61.7939 35.0364 62.8951 36.0103C63.9963 36.9917 64.8429 38.8346 65.2923 39.7035C65.7343 40.5725 64.3784 40.1905 64.3784 40.1905C64.3784 40.1905 65.4796 41.936 62.8202 42.9398L62.5805 42.5877C62.0336 41.7412 61.5991 41.3367 60.7601 40.7823C56.7447 38.1229 50.0549 37.606 45.2904 38.2352C42.2414 38.6398 38.9527 40.8647 36.96 43.0372C35.1096 45.0599 38.1736 49.4573 38.1736 49.4573C35.1696 52.6411 36.96 55.353 36.96 55.353C36.96 55.353 38.9827 58.9713 35.6865 61.6458L30.1279 58.9039Z" fill="#240046"/>
<path d="M52.5571 56.4318C52.1676 56.679 51.381 57.1135 50.2573 57.2409C49.1336 57.3682 46.1895 56.4318 46.1895 56.4318C46.1895 56.4318 47.2457 54.9036 49.2984 54.3642C51.351 53.8173 52.632 55.81 52.632 55.81L52.8792 56.1921C52.8718 56.1846 52.632 56.3794 52.5571 56.4318Z" fill="#FFE9E9"/>
<path d="M50.2572 56.9637C51.0143 56.9637 51.6281 56.3499 51.6281 55.5928C51.6281 54.8356 51.0143 54.2218 50.2572 54.2218C49.5 54.2218 48.8862 54.8356 48.8862 55.5928C48.8862 56.3499 49.5 56.9637 50.2572 56.9637Z" fill="#37444C"/>
<path d="M50.2572 56.2595C50.6254 56.2595 50.9239 55.961 50.9239 55.5928C50.9239 55.2245 50.6254 54.926 50.2572 54.926C49.889 54.926 49.5905 55.2245 49.5905 55.5928C49.5905 55.961 49.889 56.2595 50.2572 56.2595Z" fill="black"/>
<path d="M50.7291 55.3605C50.816 55.3605 50.8864 55.2633 50.8864 55.1433C50.8864 55.0233 50.816 54.926 50.7291 54.926C50.6422 54.926 50.5718 55.0233 50.5718 55.1433C50.5718 55.2633 50.6422 55.3605 50.7291 55.3605Z" fill="#9BB0CF"/>
<path d="M52.5571 56.4318C52.1676 56.679 51.381 57.1135 50.2573 57.2409C49.1336 57.3682 46.1895 56.4318 46.1895 56.4318C46.1895 56.4318 47.2457 54.9036 49.2984 54.3642C51.351 53.8173 52.632 55.81 52.632 55.81L52.8792 56.1921C52.8718 56.1846 52.632 56.3794 52.5571 56.4318Z" stroke="#C56858" stroke-width="0.346141" stroke-miterlimit="10"/>
<path d="M45.8148 55.4729C45.8148 55.4729 46.8561 53.66 49.141 53.5626C51.4184 53.4652 52.0476 54.042 52.0476 54.042" stroke="#C56858" stroke-width="0.384601" stroke-miterlimit="10" stroke-linecap="round" stroke-linejoin="round"/>
<path d="M45.4253 54.926C45.4253 54.926 46.3243 54.2443 47.3131 54.072" stroke="#C56858" stroke-width="0.384601" stroke-miterlimit="10" stroke-linecap="round" stroke-linejoin="round"/>
<path d="M62.955 54.1319C62.955 54.1319 61.5317 54.1993 60.6327 55.1283" stroke="#C56858" stroke-width="0.384601" stroke-miterlimit="10" stroke-linecap="round" stroke-linejoin="round"/>
<path d="M56.5201 52.3564C54.9469 51.4949 53.7333 50.1989 50.512 50.2738C47.2907 50.3487 47.3207 50.4761 46.2794 50.8132C45.3654 51.1054 44.1593 51.405 42.8184 52.5812C41.4849 53.7573 46.5341 52.6261 49.5231 52.5362C50.8566 52.4913 53.5834 53.2779 55.6136 53.615C56.7748 53.8098 56.8647 52.5437 56.5201 52.3564Z" fill="#240046"/>
<path opacity="0.2" d="M36.9976 43.659C37.0875 43.0522 39.0277 41.5989 39.0277 41.5989C39.0277 41.5989 40.9155 39.6511 45.328 38.4675C49.7404 37.2838 50.6094 39.2241 54.8495 38.7896C59.0896 38.3551 62.1461 42.0109 63.1499 44.1909C64.1538 46.3709 65.4123 53.4202 65.0078 54.7687C64.6032 56.1171 66.2888 62.4698 66.2888 62.4698C65.5472 60.6794 64.2886 58.6567 63.7867 57.4731C63.3147 56.3569 63.487 54.6563 63.4046 53.4877C63.4421 54.087 63.5844 53.8697 62.9551 51.1504C62.9551 51.1504 61.2171 44.955 56.8572 42.9024C52.4972 40.8497 45.7999 41.2992 41.1852 42.6027C39.6945 43.0297 38.5633 42.8949 37.2373 43.9886L36.9976 43.659Z" fill="white"/>
<path opacity="0.2" d="M38.2035 34.3772C39.3347 34.2049 40.0989 35.0065 40.7431 34.9316C41.0053 34.9016 41.5447 34.2424 41.5447 34.2424L41.2975 33.3209L39.2299 32.3096L37.2222 34.1075L38.2035 34.3772Z" fill="white"/>
<path opacity="0.2" d="M63.2772 40.8198C63.2772 40.8198 62.4906 37.3662 57.6887 35.7931C57.6887 35.7931 56.6324 35.5234 57.1717 34.8491C57.1717 34.8491 54.6621 35.4335 52.2349 35.1188C51.8529 35.0664 51.6731 34.7817 50.2572 34.4446C49.141 34.1824 47.6577 34.497 46.5864 34.2798C46.549 34.2723 44.3166 34.1375 43.4476 33.8378C42.5861 33.5456 42.7958 32.5568 42.631 32.4294C41.747 31.7327 43.2228 31.6353 43.0655 31.523C42.8483 31.3731 45.0582 33.3733 44.9458 33.0962C44.4214 31.8002 47.0284 31.2083 46.7587 30.7813C46.4741 30.3393 48.4967 32.5718 48.4967 32.5718L49.0886 30.7813L52.1151 33.0512L58.1456 32.9613L59.1794 33.3958L63.0749 36.8119L64.5433 39.6062L63.6518 42.1382L63.2772 40.8198Z" fill="white"/>
<path d="M30.1279 58.9039C30.1279 58.9039 27.798 53.7798 29.154 48.5059C30.5099 43.232 32.5251 40.625 32.5251 40.625L34.2631 39.5912C34.2631 39.5912 32.9072 39.2091 32.3079 39.5912C31.7085 39.9732 34.1582 34.8042 39.3722 35.6208C39.3722 35.6208 37.8365 34.2648 35.6939 34.8042C35.6939 34.8042 37.6342 31.8676 41.0578 33.9352C41.0578 33.9352 39.8067 32.5193 38.7205 32.1972C38.7205 32.1972 40.5109 31.9275 42.0391 33.3958C42.0391 33.3958 41.9268 31.3282 41.5522 31.3282C41.5522 31.3282 44.2191 30.8413 44.7061 32.7441C44.7061 32.7441 44.7585 31.2233 43.7247 30.624C43.7247 30.624 44.7061 29.1033 46.8786 32.9089L45.7923 30.3244C45.7923 30.3244 47.4254 29.8075 48.5117 32.1448C48.5117 32.1448 48.7814 31.2308 48.1296 30.2719C48.1296 30.2719 49.7478 29.5303 51.3809 32.3096C51.3809 32.3096 52.7443 33.2909 54.3774 32.7441C56.0105 32.1972 59.2168 32.2571 61.6066 33.9427C61.6066 33.9427 59.9135 33.5082 59.1569 34.2723C59.1569 34.2723 61.7939 35.0364 62.8951 36.0103C63.9963 36.9917 64.8429 38.8346 65.2923 39.7035C65.7343 40.5725 64.3784 40.1905 64.3784 40.1905C64.3784 40.1905 65.4796 41.936 62.8202 42.9398L62.5805 42.5877C62.0336 41.7412 61.5991 41.3367 60.7601 40.7823C56.7447 38.1229 50.0549 37.606 45.2904 38.2352C42.2414 38.6398 38.9527 40.8647 36.96 43.0372C35.1096 45.0599 38.1736 49.4573 38.1736 49.4573C35.1696 52.6411 36.96 55.353 36.96 55.353C36.96 55.353 38.9827 58.9713 35.6865 61.6458L30.1279 58.9039Z" stroke="#240046" stroke-width="1.53841" stroke-linejoin="round"/>
<path d="M65.1201 50.7758C65.1201 50.7758 64.7905 43.4418 60.7751 40.7823C56.7598 38.1229 50.07 37.606 45.3055 38.2353C42.2565 38.6398 38.9678 40.8647 36.9751 43.0372C35.1247 45.0599 38.1887 49.4573 38.1887 49.4573C35.1846 52.6412 36.9751 55.353 36.9751 55.353C36.9751 55.353 38.9977 58.9714 35.7015 61.6458C35.7015 61.6458 37.3496 66.6425 37.6643 68.3655C38.1887 71.1673 39.3423 77.962 41.8819 78.9508C45.4553 80.3292 50.3846 80.5165 53.3287 80.6888C55.5162 80.8162 59.8088 81.3256 62.0637 80.3967C64.3186 79.4677 65.8243 73.3398 65.8243 73.3398C65.8243 73.3398 66.8057 66.635 67.0379 64.6648C67.2702 62.7021 65.7719 58.829 65.2924 57.0311C64.9853 55.8624 65.3973 54.1994 65.4872 53.0307C65.5397 52.4614 65.1201 50.7758 65.1201 50.7758Z" stroke="#240046" stroke-width="1.53841" stroke-linejoin="round"/>
<path opacity="0.4" d="M36.8102 58.3346C36.8102 58.3346 38.7804 66.3878 39.1026 68.1108C39.627 70.9126 41.2076 76.4037 43.7547 77.3851C47.3281 78.7635 52.16 79.5426 55.0891 79.8872C56.3926 80.0445 59.8387 80.6888 61.764 80.6513C61.764 80.6513 51.3659 82.1571 42.0092 79.4153C32.6525 76.6734 42.0092 79.4153 42.0092 79.4153C42.0092 79.4153 40.7657 79.8722 39.6869 76.3513C38.6081 72.8304 35.709 60.6344 35.709 60.6344C35.709 60.6344 36.2933 59.9677 36.3982 59.7205C36.7128 59.1212 36.8102 58.3346 36.8102 58.3346Z" fill="black"/>
<path opacity="0.2" d="M46.0396 52.2142C46.3242 51.892 46.6913 51.48 47.4479 51.2253C48.2121 50.9631 49.0811 50.6634 51.1262 50.8282C53.1788 51.0006 54.3325 51.3377 55.5911 52.5962C56.8496 53.8548 56.4376 55.9973 56.4376 55.9973C56.4376 55.9973 56.0705 57.8776 55.4562 58.9189C54.8344 59.9602 54.4973 60.4397 53.6883 60.9116C52.8717 61.3911 51.8604 61.5334 51.8604 61.5334C51.8604 61.5334 50.7217 61.863 48.9088 61.3911C46.7363 60.8292 45.9647 59.0013 45.9647 59.0013C45.9647 59.0013 45.0582 57.3682 44.9758 55.9374C44.8934 54.5065 44.9159 53.8398 45.2829 53.188C45.65 52.5363 45.7399 52.4988 45.9347 52.319C45.9647 52.2966 46.0171 52.2366 46.0396 52.2142Z" fill="white"/>
<path d="M45.9946 52.3041C45.9946 52.3041 46.6913 51.48 47.4479 51.2178C48.2121 50.9556 49.0811 50.656 51.1262 50.8208C53.1788 50.9931 54.3325 51.3302 55.5911 52.5887C56.8496 53.8473 56.4376 55.9898 56.4376 55.9898C56.4376 55.9898 56.0705 57.8701 55.4562 58.9114C54.8344 59.9527 54.4973 60.4322 53.6883 60.9042C52.8717 61.3836 51.8604 61.5259 51.8604 61.5259C51.8604 61.5259 50.7217 61.8556 48.9088 61.3836C46.7363 60.8217 45.9647 58.9939 45.9647 58.9939C45.9647 58.9939 45.0582 57.3607 44.9758 55.9299C44.8934 54.499 44.9159 53.8323 45.2829 53.1806C45.65 52.5288 45.9647 52.3265 45.9647 52.3265L45.9946 52.3041Z" stroke="#E1B554" stroke-width="0.769203" stroke-miterlimit="10"/>
<path d="M56.2877 53.7349L57.4414 53.0981C57.4414 53.0981 59.494 52.8059 60.3031 53.4127C60.3031 53.4127 60.393 54.2817 60.7676 54.5439" stroke="#E1B554" stroke-width="0.384601" stroke-miterlimit="10"/>
<path d="M69.3452 53.3154L70.5963 53.4427L70.6787 54.102H69.8396L69.3452 53.3154Z" fill="#E1B554" stroke="#E1B554" stroke-width="0.769203" stroke-miterlimit="10"/>
<path opacity="0.2" d="M60.7675 55.428C60.7675 55.428 60.6177 53.4952 61.6814 52.6487C62.7452 51.8022 63.6367 51.6074 63.6367 51.6074C63.6367 51.6074 65.0675 51.2853 66.2587 51.6074C67.4498 51.9295 68.2514 52.2966 68.8432 52.9109C69.1728 53.248 69.2552 53.4353 69.4425 53.7799C69.6897 54.2443 69.8096 54.8961 69.832 55.855C69.8545 56.8064 69.7272 57.5031 69.7272 57.5031C69.7272 57.5031 69.5324 58.7392 68.9031 59.8254C68.2738 60.9117 67.3449 61.2563 67.3449 61.2563C67.3449 61.2563 66.386 61.6758 65.3073 61.6383C64.2285 61.6009 63.1647 60.8667 62.6628 60.3198C62.2058 59.8179 61.6665 58.8665 61.3368 57.9526C61.0072 57.0536 60.7675 55.428 60.7675 55.428Z" fill="white"/>
<path opacity="0.2" d="M62.9551 52.8508C63 52.6561 63.6143 52.3864 63.6143 52.3864C63.6143 52.3864 63.899 52.2665 64.356 52.1616C64.8054 52.0568 65.4048 52.1542 65.4048 52.1542C65.4048 52.1542 66.019 52.2441 66.6858 52.4463C67.3525 52.6486 67.9593 52.9857 68.2365 53.188C68.4912 53.3678 68.7684 53.6599 68.9107 53.8996C69.0605 54.1394 69.2403 54.6038 69.1055 54.5139C68.4163 54.0345 67.8769 53.7498 67.4349 53.555C67.0529 53.3827 66.5584 53.0831 65.8018 52.9333C65.1051 52.7834 62.9551 52.8508 62.9551 52.8508Z" fill="white"/>
<path d="M44.5862 53.1132L45.59 53.0982C45.7174 52.7161 46.2343 52.2217 46.2343 52.2217H45.8297C44.7809 52.2442 44.264 52.3266 43.7771 52.2816C43.2902 52.2367 42.9231 52.5288 42.9231 52.5288L33.3491 57.7279L33.5214 58.005L42.4137 53.5926C42.4137 53.5926 42.6234 53.6675 42.9231 53.6226C43.2227 53.5776 43.4774 53.4578 43.4774 53.4578C43.4774 53.4578 43.6423 53.278 43.9269 53.233C44.2191 53.1806 44.5862 53.1132 44.5862 53.1132Z" fill="#E1B554" stroke="#E1B554" stroke-width="0.769203" stroke-miterlimit="10"/>
<path opacity="0.4" d="M36.9751 58.417C36.9751 58.417 33.6414 56.8064 32.6751 55.81C30.8547 53.9372 29.656 50.8433 31.0195 45.5693C31.1768 44.97 31.3416 44.4007 31.5064 43.8688C31.5064 43.8688 27.4161 48.004 29.9182 57.578L33.9411 57.9975L36.0012 61.6383L36.9751 58.417Z" fill="black"/>
<path d="M60.7675 55.428C60.7675 55.428 60.6177 53.4952 61.6814 52.6487C62.7452 51.8022 63.6367 51.6074 63.6367 51.6074C63.6367 51.6074 65.0675 51.2853 66.2587 51.6074C67.4498 51.9295 68.2514 52.2966 68.8432 52.9109C69.1728 53.248 69.2552 53.4353 69.4425 53.7799C69.6897 54.2443 69.8096 54.8961 69.832 55.855C69.8545 56.8064 69.7272 57.5031 69.7272 57.5031C69.7272 57.5031 69.5324 58.7392 68.9031 59.8254C68.2738 60.9117 67.3449 61.2563 67.3449 61.2563C67.3449 61.2563 66.386 61.6758 65.3073 61.6383C64.2285 61.6009 63.1647 60.8667 62.6628 60.3198C62.2058 59.8179 61.6665 58.8665 61.3368 57.9526C61.0072 57.0536 60.7675 55.428 60.7675 55.428Z" stroke="#E1B554" stroke-width="0.769203" stroke-miterlimit="10"/>
<path d="M33.941 58.3571C33.941 58.3571 33.3717 58.2298 32.0082 58.005C30.6448 57.7803 29.8882 59.2711 29.8882 59.2711C29.8882 59.2711 28.772 61.4735 29.8882 63.2415C31.0044 65.0095 31.2216 66.7175 33.6114 67.9461C36.0011 69.1747 37.4545 67.4591 37.4545 67.4591C37.4545 67.4591 34.8924 59.3759 33.941 58.3571Z" fill="#FB8671"/>
<path opacity="0.3" d="M34.0459 58.3795C34.0459 58.3795 33.4766 58.2522 32.1131 58.0274C30.7497 57.8027 29.9931 59.2935 29.9931 59.2935C29.9931 59.2935 29.7683 59.1886 30.877 60.9565C31.9858 62.7245 32.2105 64.4325 34.6003 65.6611C36.99 66.8822 36.5855 64.8296 36.5855 64.8296C36.5855 64.8296 34.9973 59.3983 34.0459 58.3795Z" fill="black"/>
<path d="M33.941 58.3571C33.941 58.3571 33.3717 58.2298 32.0082 58.005C30.6448 57.7803 29.8882 59.2711 29.8882 59.2711C29.8882 59.2711 28.772 61.4735 29.8882 63.2415C31.0044 65.0095 31.2216 66.7175 33.6114 67.9461C36.0011 69.1747 36.8626 67.9386 36.8626 67.9386C36.8626 67.9386 34.8924 59.3759 33.941 58.3571Z" stroke="#240046" stroke-width="1.53841" stroke-linejoin="round"/>
<path d="M58.9621 54.8586C58.9621 54.8586 59.8162 55.4804 60.2207 57.1135C60.6252 58.7392 62.5805 59.9603 62.8651 61.1064C63.1498 62.2451 62.6629 62.777 62.4157 63.1816C62.1684 63.5861 60.6627 64.2828 60.6627 64.2828C60.6627 64.2828 59.1569 63.3464 57.0369 64.2828C54.9168 65.2192 55.3288 62.3725 55.5311 62.1627" fill="#FB8671"/>
<path opacity="0.2" d="M58.61 54.9411C58.61 54.9411 59.3292 56.6191 59.7412 58.2447C60.1457 59.8704 62.101 61.0915 62.3856 62.2376C62.4306 62.4174 62.4605 62.5897 62.468 62.7396C62.5205 63.5411 62.9025 60.7618 62.7003 61.1064L60.5203 58.1773L59.5839 55.9224L58.61 54.9411Z" fill="white"/>
<path d="M55.786 62.4174C55.5837 62.6197 55.7335 64.2154 57.8536 63.2789C59.9736 62.3425 61.4794 63.2789 61.4794 63.2789C61.4794 63.2789 62.0113 63.0317 62.4907 62.7545C62.4907 62.7545 62.5057 64.1105 60.6553 64.2528C58.805 64.4026 58.9173 63.9232 58.9173 63.9232L55.9807 64.7023C55.9807 64.7023 55.0893 64.088 55.4563 63.1441C55.8159 62.2002 55.5387 62.2676 55.5387 62.2676L55.786 62.4174Z" fill="#C56858"/>
<path d="M58.9621 54.8586C58.9621 54.8586 59.8162 55.4804 60.2207 57.1135C60.6252 58.7392 62.5805 59.9603 62.8651 61.1064C63.1498 62.2451 62.6629 62.777 62.4157 63.1816C62.1684 63.5861 60.6627 64.2828 60.6627 64.2828C60.6627 64.2828 59.1569 63.3464 57.0369 64.2828C54.9168 65.2192 55.3288 62.3725 55.5311 62.1627" stroke="#C56858" stroke-width="0.769203" stroke-linecap="round" stroke-linejoin="round"/>
<path opacity="0.3" d="M38.9003 78.5313L39.14 76.4337L42.2714 79.4303C42.2714 79.4303 52.8717 81.3106 60.4155 81.2207H61.3444L63.4345 85.5432L64.4458 86.15C63.7941 87.7382 63.1498 88.9293 62.0711 89.3788C59.8162 90.3077 55.5236 89.7983 53.3361 89.671C50.392 89.4987 45.4552 89.3189 41.8893 87.933C39.3423 86.9516 39.4172 81.3331 38.9003 78.5313Z" fill="black"/>
<path opacity="0.2" d="M48.9463 52.5588C48.9912 52.364 49.6055 52.0943 49.6055 52.0943C49.6055 52.0943 49.8902 51.9745 50.3472 51.8696C50.7967 51.7647 51.396 51.8621 51.396 51.8621C51.396 51.8621 52.0103 51.952 52.677 52.1543C53.3437 52.3565 53.9505 52.6937 54.2277 52.8959C54.4824 53.0757 54.7596 53.3679 54.9019 53.6076C55.0518 53.8473 55.2315 54.3118 55.0967 54.2219C54.4075 53.7424 53.8681 53.4578 53.4261 53.263C53.0441 53.0907 52.5496 52.791 51.793 52.6412C51.0888 52.4989 48.9463 52.5588 48.9463 52.5588Z" fill="white"/>
<path d="M-6.97681 122.229C-6.5498 118.198 17.0405 122.895 28.9218 125.517C33.5215 126.536 38.2336 126.933 42.9382 126.708L65.6969 125.637L64.9853 116.977L63.5694 115.277C63.5694 115.277 37.2897 85.7531 29.4088 70.9876L32.5252 77.3403L32.4203 78.906L24.4645 86.5547L6.69494 97.0051L3.05413 100.661L-6.97681 122.229Z" fill="#5A189A"/>
<path opacity="0.3" d="M3.1665 101.762L-1.53808 118.685C1.79558 118.775 17.7971 120.835 28.9293 125.525L-0.451835 120.7L-6.40747 121.03L3.1665 101.762Z" fill="black"/>
<path d="M64.2811 84.2248C64.2811 84.2248 70.8136 93.9786 77.9079 98.3835C77.9079 98.3835 81.6012 99.0952 83.7287 102.496C85.8563 105.905 88.5532 111.583 92.1041 120.093C92.1041 120.093 95.213 123.644 66.1165 124.491L64.9928 116.97L61.9064 113.374C61.9064 113.374 62.1536 115.531 65.7045 107.665C69.2479 99.8068 64.2811 84.2248 64.2811 84.2248Z" fill="#5A189A"/>
<path d="M34.4204 78.0144C34.4204 78.0144 49.051 82.8613 59.037 102.878C59.037 102.878 59.3442 88.5398 63.6592 85.1836C67.9742 81.8275 66.9554 98.8853 66.9554 98.8853C66.9554 98.8853 66.7831 109.388 63.4569 111.651C60.1233 113.913 52.1225 101.904 52.1225 101.904L34.4204 78.0144Z" fill="#9D4EDD"/>
<path opacity="0.3" d="M59.1644 104.362C59.1644 104.362 56.1229 88.7796 34.0533 77.0256L30.5024 80.5915C30.5024 80.5915 48.2795 86.6895 60.0334 106.07" fill="black"/>
<path opacity="0.2" d="M61.3444 90.1655C61.3444 90.1655 61.9287 90.9595 62.955 92.1806C63.3371 92.6376 63.7791 93.1545 64.281 93.7089C66.6258 96.3234 70.1617 99.8443 74.1396 102.309C74.1396 102.309 77.8329 103.021 79.9604 106.422C82.0205 109.725 84.0807 114.28 87.4668 122.363L91.7818 120.431C91.7818 120.431 85.3018 102.961 81.204 100.414C77.1062 97.8666 72.4316 94.6378 72.4316 94.6378L64.3933 84.7867L62.7977 86.2175L61.3444 90.1655Z" fill="white"/>
<path d="M61.644 113.082C61.644 113.082 70.0569 109.785 66.0714 86.697" stroke="#240046" stroke-width="1.53841" stroke-miterlimit="10"/>
<path d="M-6.97681 122.229C-6.5498 118.198 17.0405 122.895 28.9218 125.517C33.5215 126.536 38.2336 126.933 42.9382 126.708L65.6969 125.637L64.9853 116.977L63.5694 115.277C63.5694 115.277 41.6197 90.3228 31.836 74.8082" stroke="#240046" stroke-width="1.53841" stroke-miterlimit="10"/>
<path d="M64.281 84.2248C64.281 84.2248 70.8135 93.9786 77.9078 98.3835C77.9078 98.3835 81.601 99.0952 83.7286 102.496C85.8561 105.905 88.553 111.583 92.1039 120.093C92.1039 120.093 94.9357 123.644 65.8392 124.491" stroke="#240046" stroke-width="1.53841" stroke-miterlimit="10"/>
<path d="M32.9446 77.0331C32.9446 77.0331 31.6337 81.7751 18.0069 90.5775C18.0069 90.5775 6.08061 95.2596 3.66839 100.653C1.25617 106.047 -6.97684 122.229 -6.97684 122.229C-6.97684 122.229 -9.38906 124.641 -2.29474 126.484" stroke="#240046" stroke-width="1.53841" stroke-miterlimit="10"/>
<path d="M31.0644 66.1631C31.0644 66.1631 23.5431 70.4182 37.3122 78.9359C51.0813 87.4536 57.1793 98.3835 57.1793 98.3835C57.1793 98.3835 58.2206 100.039 58.6476 101.605C59.0746 103.163 62.6705 114.325 62.6705 114.325" stroke="#240046" stroke-width="1.53841" stroke-miterlimit="10"/>
<path d="M63.1874 111.081C62.0562 107.605 60.2433 101.972 60.0186 100.938C59.6889 99.4248 59.7339 98.3835 59.7339 98.3835C59.7339 94.2708 61.7266 87.3113 64.843 83.4832C67.9669 79.6476 68.1092 74.8232 67.2627 71.2723C67.0679 70.4857 66.7683 69.8115 66.4162 69.2421" stroke="#240046" stroke-width="1.53841" stroke-miterlimit="10" stroke-linecap="round"/>
</g>
<path fill-rule="evenodd" clip-rule="evenodd" d="M91.3569 39.1369L91.3676 39.1369C92.2015 39.1369 92.8775 38.461 92.8775 37.6271L92.8775 37.6216C92.8803 37.3461 93.1045 37.1236 93.3807 37.1236C93.6587 37.1236 93.884 37.3489 93.884 37.6269V37.6269H93.884V37.627C93.884 38.4609 94.56 39.1369 95.3939 39.1369L95.4036 39.1369C95.6771 39.142 95.8972 39.3653 95.8972 39.6401C95.8972 39.918 95.6719 40.1434 95.3939 40.1434V40.1434C95.3939 40.1434 95.3939 40.1434 95.3939 40.1434C94.56 40.1434 93.884 40.8194 93.884 41.6532H93.884V41.6533C93.884 41.9312 93.6587 42.1565 93.3807 42.1565C93.1028 42.1565 92.8774 41.9312 92.8774 41.6533V41.6532H92.8774C92.8773 40.8194 92.2014 40.1435 91.3676 40.1435V40.1434H91.3675C91.0896 40.1434 90.8643 39.918 90.8643 39.6401C90.8643 39.3657 91.0838 39.1426 91.3569 39.1369Z" fill="#E1B554"/>
<path fill-rule="evenodd" clip-rule="evenodd" d="M90.8014 23.0313H90.8014C93.303 23.0313 95.3309 21.0035 95.331 18.5019H95.331C95.331 17.6681 96.007 16.9921 96.8409 16.9921C97.6709 16.9921 98.3445 17.6618 98.3507 18.4904L98.3507 18.5019C98.3507 21.0035 100.379 23.0315 102.88 23.0315H102.88V23.0316H102.88C103.714 23.0316 104.39 23.7076 104.39 24.5415C104.39 25.3712 103.721 26.0447 102.893 26.0513C102.889 26.0513 102.884 26.0513 102.88 26.0513C100.379 26.0513 98.3507 28.0792 98.3507 30.5809C98.3507 31.4147 97.6747 32.0906 96.8409 32.0906C96.0101 32.0906 95.3361 31.4197 95.331 30.5901L95.3311 30.5809C95.3311 28.0792 93.3031 26.0513 90.8015 26.0513L90.7891 26.0513C89.9609 26.0447 89.2915 25.3713 89.2915 24.5415C89.2915 23.7076 89.9675 23.0316 90.8014 23.0316H90.8014V23.0313Z" fill="#E1B554"/>
<path fill-rule="evenodd" clip-rule="evenodd" d="M78.974 31.0841H78.9741C80.6418 31.0841 81.9938 29.7321 81.9938 28.0643L81.9938 28.048C82.0025 27.4996 82.4498 27.0578 83.0002 27.0578C83.5561 27.0578 84.0068 27.5085 84.0068 28.0644V28.0646H84.007C84.0071 29.7322 85.359 31.084 87.0266 31.0841V31.0842C87.5825 31.0842 88.0332 31.5349 88.0332 32.0908C88.0332 32.6467 87.5825 33.0973 87.0266 33.0974V33.0975C85.3589 33.0975 84.007 34.4495 84.007 36.1172H84.0068C84.0068 36.6731 83.5561 37.1237 83.0002 37.1237C82.4498 37.1237 82.0025 36.6819 81.9938 36.1336L81.9938 36.1172C81.9938 34.4494 80.6418 33.0975 78.9741 33.0975H78.974V33.0974H78.974C78.4181 33.0974 77.9674 32.6467 77.9674 32.0908C77.9674 31.5349 78.4181 31.0842 78.974 31.0842H78.974V31.0841Z" fill="#E1B554"/>
<circle cx="80" cy="80" r="78" stroke="#2A294C" stroke-width="4"/>
</svg>
