<svg width="180" height="180" viewBox="0 0 180 180" fill="none" xmlns="http://www.w3.org/2000/svg">
<circle cx="90" cy="90" r="87.6522" fill="#0C0E19"/>
<mask id="mask0" mask-type="alpha" maskUnits="userSpaceOnUse" x="2" y="2" width="176" height="176">
<circle cx="90" cy="90" r="87.6522" fill="#B53B3B"/>
</mask>
<g mask="url(#mask0)">
<path d="M122.537 164.021C122.537 164.021 116.865 167.375 116.233 186.54C115.593 205.705 116.233 227.895 116.233 227.895C116.233 227.895 116.158 234.199 122.065 227.179C127.973 220.15 131.328 206.657 131.328 206.657C131.328 206.657 133.881 191.563 132.684 166.094C132.676 166.094 128.285 160.422 122.537 164.021Z" fill="#240046"/>
<path opacity="0.3" d="M122.537 164.021C122.537 164.021 116.865 167.375 116.233 186.54C115.593 205.705 116.233 227.895 116.233 227.895C116.233 227.895 116.158 234.199 122.065 227.179C127.973 220.15 131.328 206.657 131.328 206.657C131.328 206.657 133.881 191.563 132.684 166.094C132.676 166.094 128.285 160.422 122.537 164.021Z" fill="black"/>
<path d="M120.49 165.774L121.838 165.234L123.886 164.358L123.153 159.756L125.656 154.127C125.656 154.127 123.608 149.297 125.47 148.219C127.333 147.14 128.454 146.82 129.17 147.856C129.887 148.893 130.89 151.396 130.89 151.396L140.708 148.514L143.143 151.885L141.509 153.84L142.823 156.04L140.902 158.501L141.896 161.433L139.739 164.189L139.326 167.864C139.326 167.864 137.699 169.263 134.227 168.943C130.755 168.622 129.347 171.555 129.347 171.555L124.459 174.792L117.397 176.283L120.49 165.774Z" fill="#FB8671"/>
<path opacity="0.3" d="M128.926 166.136C126.381 166.237 126.01 163.583 126.01 161.745C126.01 160.523 126.718 159.933 126.676 159.461C126.608 158.661 126.187 157.329 126.212 156.79C126.229 156.478 126.364 156.082 126.844 155.905C126.322 155.998 124.998 155.694 125.015 155.568C125.26 153.924 128.513 153.823 129.027 154.118C130.215 154.809 129.583 164.948 128.867 170.401C128.766 171.159 128.353 171.724 128.268 172.263C128.167 172.929 121.627 175.491 118.72 175.811C117.051 175.997 118.265 174.353 118.29 173.974C118.307 173.747 127.518 170.923 127.695 170.814C128.024 170.603 128.319 169.566 128.268 169.786C128.193 170.131 128.926 166.136 128.926 166.136Z" fill="black"/>
<path d="M137.632 148.505C137.632 148.505 138.146 148.842 139.334 148.927" stroke="#240046" stroke-width="1.73071" stroke-linecap="round" stroke-linejoin="round"/>
<path d="M125.47 153.52C125.47 153.52 122.714 157.7 123.203 160.38C123.692 163.06 123.861 163.541 123.861 163.541C123.861 163.541 124.602 165.268 121.838 164.83" stroke="#240046" stroke-width="1.73071" stroke-linecap="round" stroke-linejoin="round"/>
<path d="M134.598 168.538C133.148 169.356 129.659 169.221 129.659 169.221L129.136 172.171C129.136 172.171 125.689 175.407 118.18 176.275" stroke="#240046" stroke-width="1.73071" stroke-linecap="round" stroke-linejoin="round"/>
<path d="M140.758 148.345C139.553 147.654 138.222 147.157 138.222 147.157" stroke="#240046" stroke-width="1.73071" stroke-linecap="round" stroke-linejoin="round"/>
<path d="M97.8609 198.836C97.8609 198.836 111.076 208.747 115.492 224.094C115.492 224.094 115.29 211.756 116.874 182.697C116.874 182.697 116.233 167.417 123.254 163.001C123.254 163.001 120.237 162.007 115.947 161.594C110.09 161.037 102.26 160.785 100.12 158.341C98.4003 155.939 100.077 138.476 100.077 138.476H96.74L97.8609 198.836Z" fill="#5A189A"/>
<path opacity="0.2" d="M99.6476 158.374C99.6897 160.658 99.8246 162.327 100.12 162.563C101.215 163.439 102.336 165.277 108.48 165.201C111.396 165.167 116.099 165.639 120.127 166.136C121.24 166.271 122.723 162.849 123.245 162.571L103.272 160.776L100.65 159.419L99.6476 158.374Z" fill="white"/>
<path d="M123.254 163.001C123.254 163.001 116.865 167.367 116.225 186.532C115.584 205.696 116.225 227.887 116.225 227.887C116.225 227.887 116.149 234.191 122.057 227.17C123.92 224.954 124.442 224.305 125.774 221.423" stroke="#240046" stroke-width="1.73071" stroke-miterlimit="10"/>
<path d="M100.12 137.659C100.12 137.659 99.0239 157.464 100.12 158.341C101.215 159.217 102.336 161.054 108.48 160.978C112.197 160.928 118.829 161.712 123.254 162.318" stroke="#240046" stroke-width="1.73071" stroke-miterlimit="10"/>
<path d="M124.56 326.466L128.193 326.871L140.86 69.6718L132.71 69.2673L124.56 326.466Z" fill="#E1B554"/>
<path opacity="0.4" d="M124.56 326.467L128.193 326.871L134.497 74.1807L136.191 73.0177L137.429 70.2786L133.485 70.0764L133.275 74.3998L124.56 326.467Z" fill="black"/>
<path d="M138.533 29.0246L141.281 52.8163L133.797 52.5213L138.533 29.0246Z" fill="#B53B3B"/>
<path opacity="0.2" d="M138.753 30.9378L140.86 52.5635L136.772 52.4033L138.753 30.9378Z" fill="white"/>
<path d="M135.533 62.9128H139.713L141.281 52.8163L133.797 52.5213L135.533 62.9128Z" fill="#B53B3B"/>
<path opacity="0.3" d="M135.533 62.9128L136.494 58.3028L136.738 52.8163L133.797 52.5213L135.533 62.9128Z" fill="black"/>
<path d="M138.533 29.0246L141.281 52.8163L148.124 51.0127L138.533 29.0246Z" fill="#B53B3B"/>
<path opacity="0.3" d="M139.73 32.9772L141.786 52.5212L148.689 50.3384L139.73 32.9772Z" fill="white"/>
<path d="M140.859 62.9127L141.281 52.8162L148.124 51.0127L144.028 60.5192L140.859 62.9127Z" fill="#B53B3B"/>
<path d="M138.533 29.0246L126.726 50.4902L133.797 52.5213L138.533 29.0246Z" fill="#B53B3B"/>
<path d="M134.505 63.5364L131.243 60.8563L126.726 50.4901L133.797 52.5212L134.505 63.5364Z" fill="#B53B3B"/>
<path opacity="0.3" d="M134.505 62.5166L130.114 59.8366L126.726 50.4901L133.797 52.5212L134.505 62.5166Z" fill="black"/>
<path d="M138.533 29.0246L126.726 50.4902L133.797 52.5213L138.533 29.0246Z" stroke="#240046" stroke-width="1.73071" stroke-miterlimit="10" stroke-linejoin="bevel"/>
<path d="M139.772 65.045L141.281 52.8163L133.797 52.5213L135.365 64.8174L139.772 65.045Z" stroke="#240046" stroke-width="1.73071" stroke-miterlimit="10" stroke-linejoin="bevel"/>
<path d="M138.533 29.0246L141.281 52.8163L148.124 51.0127" stroke="#240046" stroke-width="1.73071" stroke-miterlimit="10" stroke-linejoin="bevel"/>
<path d="M124.56 326.466L128.193 326.871L140.86 69.6718L132.71 69.2673L124.56 326.466Z" stroke="#240046" stroke-width="1.73071" stroke-miterlimit="10"/>
<path d="M138.533 29.0246L141.281 52.8163L133.797 52.5213L138.533 29.0246Z" stroke="#240046" stroke-width="1.73071" stroke-miterlimit="10" stroke-linejoin="bevel"/>
<path d="M138.533 29.0246L126.726 50.4902L130.552 59.2804L137.733 67.5228L144.365 59.5501L148.124 51.0127L138.533 29.0246Z" stroke="#240046" stroke-width="1.73071" stroke-miterlimit="10"/>
<path d="M132.71 69.2674L140.859 69.6719L144.365 59.5501L139.772 65.045L137.471 57.401L135.365 64.8175L130.552 59.2804L132.71 69.2674Z" fill="#5A189A"/>
<path opacity="0.4" d="M134.201 64.2781L130.552 59.2804L132.71 69.2673H137.539L134.201 64.2781Z" fill="black"/>
<path d="M132.71 69.2674L140.859 69.6719L144.365 59.5501L139.772 65.045L137.471 57.401L135.365 64.8175L130.552 59.2804L132.71 69.2674Z" stroke="#240046" stroke-width="1.73071" stroke-miterlimit="10"/>
<path d="M139.334 148.101L130.872 152.213L129.406 148.505L128.968 151.876L130.308 152.896L129.827 155.003L127.687 156.292L128.395 163.549L130.021 165.512L131.564 168.538L138.289 168.833L139.966 163.903L141.719 160.228L140.168 158.138L142.832 155.61L140.792 153.958L142.832 151.067L141.837 149.272L139.334 148.101Z" fill="#FB8671"/>
<path opacity="0.2" d="M139.966 148.101L142.629 149.643L141.77 152.256C141.77 152.256 140.455 151.573 139.974 151.573C137.589 151.564 133.477 153.983 130.518 152.795C129.06 152.213 137.893 148.8 138.769 148.37C138.837 148.337 138.87 148.32 138.929 148.294C139.418 148.084 139.966 148.101 139.966 148.101Z" fill="white"/>
<path opacity="0.2" d="M140.472 154L142.621 155.45L142.73 156.84C142.73 156.84 140.446 157.464 140.666 157.043C141.407 155.618 140.472 154 140.472 154Z" fill="white"/>
<path opacity="0.3" d="M129.246 156.166C129.246 156.166 131.378 157.885 134.336 156.739C135.87 156.141 140.32 155.298 140.859 154.877C141.39 154.455 137.96 154.877 137.96 154.877L129.246 156.166Z" fill="black"/>
<path opacity="0.3" d="M127.232 160.498C127.232 160.498 127.409 161.737 131.639 161.425C138.862 160.886 139.427 159.63 139.966 159.209C140.497 158.787 135.811 159.293 135.811 159.293L127.232 160.498Z" fill="black"/>
<path opacity="0.3" d="M129.246 164.99C129.246 164.99 130.451 166.119 133.62 165.85C140.834 165.234 137.96 164.788 138.491 164.358C139.022 163.936 137.421 163.785 137.421 163.785L129.246 164.99Z" fill="black"/>
<path opacity="0.2" d="M141.475 159.031L141.753 161.046L141.508 162.436L139.283 163.296C139.283 163.296 141.365 160.995 139.165 158.93C137.96 157.801 139.587 159.234 140.606 159.048C140.682 159.031 140.977 158.956 141.045 158.947C141.618 158.863 141.475 159.031 141.475 159.031Z" fill="white"/>
<path opacity="0.2" d="M140.649 166.145L139.966 167.704L139.165 168.9L136.856 168.336C136.856 168.336 139.62 167.274 138.491 164.122C137.935 162.571 138.862 164.779 139.797 165.209C139.865 165.243 140.151 165.344 140.219 165.378C140.716 165.63 140.649 166.145 140.649 166.145Z" fill="white"/>
<path d="M138.247 149.036C137.969 149.466 131.201 151.809 130.35 152.07C129.499 152.331 130.013 154.27 130.013 154.27C130.013 154.27 130.308 156.191 133.215 155.424C136.123 154.658 139.612 153.992 139.612 153.992C139.612 153.992 141.399 153.857 141.98 153.006C142.562 152.154 143.219 151.185 142.52 149.828C142.25 149.306 141.534 148.783 140.758 148.337C140.345 148.101 139.915 147.89 139.536 147.705" stroke="#240046" stroke-width="1.73071" stroke-linecap="round" stroke-linejoin="round"/>
<path d="M130.636 155.231C130.636 155.231 128.117 155.601 128.091 156.874C128.066 158.147 128.176 159.091 128.926 159.369C129.676 159.647 136.35 159.175 136.35 159.175C136.35 159.175 139.005 158.728 139.941 158.256C141.466 157.489 141.652 157.118 142.157 156.655C142.562 156.284 142.579 155.172 141.66 154.506C140.362 153.57 140.371 153.874 140.371 153.874" stroke="#240046" stroke-width="1.73071" stroke-linecap="round" stroke-linejoin="round"/>
<path d="M134.1 159.461L129.861 159.723C129.861 159.723 127.577 159.487 127.695 161.433C127.813 163.372 128.277 164.501 129.676 164.349C131.075 164.198 137.64 164.038 137.64 164.038C137.64 164.038 139.739 164.189 140.784 163.026C141.829 161.863 141.441 160.388 141.441 160.388C141.441 160.388 141.576 158.795 139.334 158.501" stroke="#240046" stroke-width="1.73071" stroke-linecap="round" stroke-linejoin="round"/>
<path d="M138.955 163.936C138.955 163.936 140.194 164.771 139.924 166.17C139.654 167.569 138.483 168.538 138.483 168.538H133.325C133.325 168.538 131.614 168.614 130.687 167.527C129.751 166.44 129.718 164.83 130.957 164.257" stroke="#240046" stroke-width="1.73071" stroke-linecap="round" stroke-linejoin="round"/>
<path opacity="0.4" d="M130.215 149.845C130.215 149.845 130.527 148.109 129.246 147.216C128.833 146.929 129.17 147.089 129.094 147.131C128.327 147.57 128.209 149.812 128.285 150.46C128.538 152.576 129.532 152.626 129.532 152.626C129.532 152.626 127.999 155.231 129.65 153.082C129.65 153.082 130.569 151.076 130.215 149.845Z" fill="black"/>
<path d="M130.215 149.845C130.215 149.845 130.299 147.629 128.808 147.165C126.895 146.575 126.271 147.275 125.563 147.696C124.804 148.151 123.734 148.918 124.189 151C124.644 153.082 126.018 154.042 126.018 154.042C126.018 154.042 127.99 155.239 129.65 153.09C129.65 153.082 130.569 151.076 130.215 149.845Z" stroke="#240046" stroke-width="1.73071" stroke-linecap="round" stroke-linejoin="round"/>
<path d="M6.46988 226.285C6.46988 226.285 8.68639 256.474 -9.63562 285.212C-9.63562 285.212 -6.72803 315.392 25.2133 320.5C57.1546 325.607 66.0965 326.247 66.0965 326.247C66.0965 326.247 84.9916 287.555 78.7972 139.917C78.7972 139.917 49.46 143.752 26.5702 139.917C3.68029 136.083 4.93602 194.024 4.93602 194.024L6.46988 226.285Z" fill="#5A189A"/>
<path d="M78.7887 139.926C78.7887 139.926 81.7468 198.777 83.6937 216.964C85.6489 235.151 96.0488 318.165 96.0488 318.165L114.691 311.988C114.691 311.988 115.964 311.398 115.281 307.858C111.143 286.418 94.9448 207.095 96.0909 175.297C97.4225 138.249 97.0686 147.831 97.0686 147.831C97.0686 147.831 97.0686 138.94 95.4757 137.659C90.9247 133.993 78.7887 139.926 78.7887 139.926Z" fill="#5A189A"/>
<path d="M96.0911 138.485C96.3439 144.89 97.0687 198.347 97.0687 198.347" stroke="#240046" stroke-width="1.73071" stroke-miterlimit="10"/>
<path d="M6.46988 226.285C6.46988 226.285 8.68639 256.474 -9.63562 285.212C-9.63562 285.212 -6.72803 315.392 25.2133 320.5C57.1546 325.607 66.0965 326.247 66.0965 326.247C66.0965 326.247 84.9916 287.555 78.7972 139.917" stroke="#240046" stroke-width="1.73071" stroke-miterlimit="10"/>
<path d="M72.9315 150.621C68.8187 147.3 61.6045 149.306 61.6045 149.306L61.5539 151.447C67.8495 149.559 71.465 152.096 71.465 152.096L76.4964 209.472L8.20605 220.217L10.0433 220.875L76.6144 210.77L78.2915 210.466L72.9315 150.621Z" fill="#B53B3B"/>
<path opacity="0.4" d="M72.9315 150.621C68.8187 147.3 61.6045 149.306 61.6045 149.306L61.5539 151.447C67.8495 149.559 71.465 152.096 71.465 152.096L76.4964 209.472L8.20605 220.217L10.0433 220.875L76.6144 210.77L78.2915 210.466L72.9315 150.621Z" fill="black"/>
<path d="M61.6045 151.632C66.5853 154.843 71.465 152.104 71.465 152.104L76.488 209.025L66.5769 208.368L61.6045 151.632Z" fill="#FFFCE8"/>
<path opacity="0.4" d="M71.465 152.416C71.347 153.436 69.0715 152.104 69.0715 152.104L74.1535 208.865L76.488 209.025L71.465 152.416Z" fill="black"/>
<path d="M61.6045 151.632C66.5853 154.843 71.465 152.104 71.465 152.104C71.465 152.104 66.737 149.652 61.6045 151.632Z" fill="#240046"/>
<path d="M61.6045 151.632C66.5853 154.843 71.465 152.104 71.465 152.104" stroke="#240046" stroke-width="0.865353" stroke-miterlimit="10"/>
<path d="M60.45 149.373C67.6895 147.477 73.2097 150.637 73.2097 150.637L78.4012 209.834C78.4433 210.281 78.1231 210.677 77.6848 210.744L10.0434 220.875L-1.32568 219.198" stroke="#240046" stroke-width="0.865353" stroke-miterlimit="10"/>
<path d="M61.6045 151.632C67.3101 149.685 71.465 152.104 71.465 152.104L76.4879 209.354L5.57654 220.217" stroke="#240046" stroke-width="0.865353" stroke-miterlimit="10"/>
<path d="M61.3854 149.171L66.6527 209.152L-1.78089 219.408L-4.27551 163.296L61.3854 149.171Z" fill="#B53B3B"/>
<path d="M61.4696 150.123L66.5769 208.36C66.619 208.806 66.2988 209.202 65.8605 209.27L-0.86228 219.265C-1.35952 219.341 -1.80619 218.97 -1.83148 218.464L-4.25025 164.012C-4.26711 163.6 -3.98899 163.237 -3.58446 163.153L60.4499 149.373C60.9471 149.264 61.4275 149.618 61.4696 150.123Z" stroke="#240046" stroke-width="0.865353" stroke-miterlimit="10"/>
<path opacity="0.4" d="M4.44725 161.425L4.91078 218.405L-1.78089 219.408L-4.27551 163.296L4.44725 161.425Z" fill="black"/>
<path d="M56.708 155.399L61.0314 204.651C61.0651 205.031 60.7954 205.368 60.4246 205.418L4.00057 213.871C3.57918 213.93 3.19993 213.618 3.18308 213.197L1.13513 167.148C1.11827 166.802 1.35425 166.49 1.69979 166.414L55.8483 154.759C56.2613 154.675 56.6658 154.969 56.708 155.399Z" stroke="#E1B554" stroke-width="1.73071" stroke-miterlimit="10"/>
<path d="M-1.14037 135.754C-1.14037 135.754 -8.04273 164.088 -9.66086 171.8C-11.279 179.503 -1.83145 205.511 -1.83145 205.511L23.5699 269.781L32.6213 219.796L35.6553 209.042L39.3973 202.477C39.3973 202.477 26.6966 194.69 17.6115 175.28C14.746 165.218 13.819 168.429 14.3668 161.83C14.746 159.487 21.168 146.828 21.168 146.828L23.5868 139.319L-0.879107 135.931L-1.14037 135.754Z" fill="#5A189A"/>
<path opacity="0.2" d="M36.5065 206.463L33.759 204.685C17.5018 192.886 19.8869 186.995 14.6195 178.036C8.77063 168.083 11.2147 161.425 11.2147 161.425C14.5184 155.467 21.2943 145.564 21.2943 145.564L15.26 159.546L14.9398 166.01L17.4428 174.69L26.3257 189.473L39.6248 201.769L36.5065 206.463Z" fill="white"/>
<path opacity="0.3" d="M-1.73036 139.319C-1.73036 139.319 -2.08433 141.241 5.35741 142.294C12.7991 143.348 32.655 147.148 37.6021 147.317C42.5492 147.486 70.9762 146.323 70.9762 146.323L73.9006 145.994V144.173C73.9006 144.173 96.3691 143.053 99.6306 142.294V138.198L74.2461 140.423L73.5551 141.881L39.7849 142.766C39.7849 142.766 11.358 136.243 0.174319 136.159C0.174319 136.159 -1.4691 135.813 -1.73036 139.319Z" fill="black"/>
<path d="M-1.14035 135.754L-8.29554 164.813C-8.29554 164.813 -12.4841 173.755 -6.09588 192.6C0.292379 211.444 23.9155 270.793 23.9155 270.793" stroke="#240046" stroke-width="1.73071" stroke-miterlimit="10"/>
<path d="M23.5952 139.319C23.5952 139.319 18.5554 153.579 15.2601 159.546C15.2601 159.546 12.816 166.195 18.6649 176.157C23.9239 185.116 24.0419 190.467 40.3075 202.258" stroke="#240046" stroke-width="1.73071" stroke-miterlimit="10"/>
<path d="M45.3136 90.1934C45.3136 90.1934 28.4327 82.3218 33.7169 76.2117C39.0012 70.1015 57.2895 73.5232 57.2895 73.5232C57.2895 73.5232 74.4147 73.5148 75.6705 80.1896C77.4066 89.4349 70.2598 97.3654 70.2598 97.3654L45.3136 90.1934Z" fill="#E1B554"/>
<path d="M40.1641 76.9449C40.1641 76.9449 42.1025 80.3329 43.8808 88.904C43.8808 88.904 44.4623 95.5788 42.9874 98.183C42.7936 98.5285 42.0772 99.2027 42.0772 99.2027C42.0772 99.2027 38.6724 100.222 40.1641 104.79C41.6558 109.367 47.3699 111.145 47.3699 111.145C47.3699 111.145 55.056 113.876 61.0313 109.94C62.523 108.954 66.0459 116.606 67.2005 115.367C70.6811 111.651 75.0889 100.172 75.0889 100.172C75.0889 100.172 71.2121 95.5114 70.4115 93.8595C69.6108 92.2077 70.2598 93.5561 68.9956 90.7075" fill="#FB8671"/>
<path d="M40.1641 76.9449C40.1641 76.9449 42.1025 80.3329 43.8808 88.904C43.8808 88.904 44.4623 95.5788 42.9874 98.183C42.7936 98.5285 42.0772 99.2027 42.0772 99.2027C42.0772 99.2027 38.6724 100.222 40.1641 104.79C41.6558 109.367 47.3699 111.145 47.3699 111.145C47.3699 111.145 55.056 113.876 61.0313 109.94C62.5231 108.954 66.5094 117.154 67.664 115.915C71.1447 112.198 75.0805 100.172 75.0805 100.172C75.0805 100.172 71.2037 95.5114 70.403 93.8595C69.6024 92.2077 70.2513 93.5561 68.9872 90.7075" stroke="#240046" stroke-width="1.73071" stroke-linejoin="round"/>
<path d="M73.1589 57.1228C73.1589 57.1228 72.7881 48.872 68.2708 45.8801C63.7535 42.8883 56.2275 42.3068 50.8674 43.0147C47.4373 43.4698 43.7375 45.9729 41.4957 48.4169C39.414 50.6924 42.861 55.6395 42.861 55.6395C39.4815 59.2213 41.4957 62.2722 41.4957 62.2722C41.4957 62.2722 43.7712 66.3428 40.063 69.3515C40.063 69.3515 41.9171 74.9729 42.2711 76.9113C42.861 80.0632 44.1589 87.7072 47.0159 88.8197C51.036 90.3704 56.5814 90.5811 59.8936 90.775C62.3545 90.9182 67.1836 91.4913 69.7204 90.4463C72.2571 89.4012 73.9511 82.5073 73.9511 82.5073C73.9511 82.5073 75.0552 74.9644 75.3164 72.7479C75.5777 70.5398 73.8921 66.1827 73.3527 64.16C73.0072 62.8453 73.4707 60.9743 73.5719 59.6596C73.6309 59.0191 73.1589 57.1228 73.1589 57.1228Z" fill="#FB8671"/>
<path d="M66.4252 59.3983C66.4252 59.3983 68.2624 57.8813 70.0744 57.797C71.8864 57.7043 73.9259 58.5976 73.9259 58.5976C73.9259 58.5976 74.5411 59.0106 74.381 59.7944C74.2209 60.5782 72.982 60.0894 72.982 60.0894C72.982 60.0894 70.184 59.5163 68.1697 60.477C66.1471 61.4378 66.4252 59.3983 66.4252 59.3983Z" fill="#240046"/>
<path d="M73.2601 62.4576L78.0134 60.3001L78.2662 60.772L73.2601 62.9127V62.4576Z" fill="#E1B554" stroke="#E1B554" stroke-width="0.865353" stroke-miterlimit="10"/>
<path d="M40.1642 69.3515C40.1642 69.3515 42.0183 74.9729 42.3723 76.9113C42.9622 80.0632 44.2601 87.7072 47.1171 88.8197C51.1372 90.3704 56.6826 90.5811 59.9948 90.775C62.4557 90.9182 67.2848 91.4913 69.8216 90.4463C72.3583 89.4012 74.0523 82.5073 74.0523 82.5073C74.0523 82.5073 75.1564 74.9644 75.4176 72.7479L74.7181 74.3745C73.8922 76.2117 73.0241 76.4393 73.0241 76.4393C73.0241 76.4393 72.7039 75.3353 70.5464 74.3324C68.3888 73.321 68.9788 72.3434 68.9788 72.3434L66.2735 72.158L64.3688 72.5119C64.1075 74.4503 62.9276 74.7875 62.9276 74.7875C58.798 75.7482 57.6097 79.5997 57.6097 79.5997C57.6097 79.5997 55.3595 80.7459 49.7634 77.4928C44.1674 74.2396 42.4228 67.1182 42.4228 67.1182L40.1642 69.3515Z" fill="#240046"/>
<path d="M60.7701 79.9031C60.7701 79.9031 65.3043 77.3495 66.0628 77.1894C66.8213 77.0293 67.5292 77.3748 67.5292 77.3748C67.5292 77.3748 67.9422 77.4169 68.4731 77.0293C69.0041 76.6416 70.3104 77.6276 70.5379 77.8552C70.7908 78.108 70.9509 78.6811 71.2964 79.0856C71.2964 79.0856 69.7794 80.6364 68.6164 80.906C67.4534 81.1757 63.5766 81.2347 62.009 80.7038C61.6551 80.5858 60.7701 79.9031 60.7701 79.9031Z" fill="#FB7F71"/>
<path opacity="0.3" d="M70.6981 78.4114C70.4705 78.1839 68.9367 77.1051 68.4057 77.4928C67.8748 77.8805 67.4618 77.8383 67.4618 77.8383C67.4618 77.8383 66.7539 77.4928 65.9954 77.6529C65.7088 77.7119 64.7902 78.108 63.6777 78.5041C63.6777 78.5041 65.1695 77.4338 66.2904 77.2653C67.4112 77.0967 67.5292 77.4928 67.5292 77.4928L68.7597 77.063C68.7597 77.063 70.066 77.3748 70.3778 77.8889C70.6981 78.4114 70.6981 78.4114 70.6981 78.4114Z" fill="white"/>
<path opacity="0.3" d="M61.0482 80.1138C61.0482 80.1138 61.5792 80.1644 61.9331 80.2402C63.0793 80.4678 68.3045 80.6363 69.476 80.3582C69.476 80.3582 69.7626 81.1757 65.9616 80.965C62.1691 80.7543 62.5652 80.7543 62.5652 80.7543L61.0482 80.1138Z" fill="black"/>
<path d="M60.7701 79.9031C60.7701 79.9031 65.3043 77.3495 66.0628 77.1894C66.8213 77.0293 67.5292 77.3748 67.5292 77.3748C67.5292 77.3748 67.9422 77.4169 68.4731 77.0293C69.0041 76.6416 70.3104 77.6276 70.5379 77.8552C70.7908 78.108 70.9509 78.6811 71.2964 79.0856C71.2964 79.0856 69.7794 80.6364 68.6164 80.906C67.4534 81.1757 63.5766 81.2347 62.009 80.7038C61.6551 80.5858 60.7701 79.9031 60.7701 79.9031Z" stroke="#9E5346" stroke-width="0.432677" stroke-miterlimit="10" stroke-linecap="round" stroke-linejoin="round"/>
<path d="M61.0482 79.9705C61.0482 79.9705 63.7535 79.2289 65.9869 79.2289C68.2371 79.2289 68.7428 78.8833 68.7428 78.8833C68.7428 78.8833 69.3664 78.5294 69.9817 78.8243C70.5969 79.1193 70.8919 78.9676 70.8919 78.9676" stroke="#9E5346" stroke-width="0.432677" stroke-miterlimit="10" stroke-linecap="round"/>
<path d="M72.6617 62.997C72.6617 62.997 72.4931 60.1989 69.2653 62.2722L67.9674 63.0728L69.476 63.9324C69.476 63.9324 71.3132 64.8511 72.0886 64.1263C72.0886 64.1263 72.4847 63.5616 72.6617 62.997Z" fill="#FFE9E9"/>
<path d="M71.0351 64.1262C71.5844 64.1262 72.0296 63.5187 72.0296 62.7693C72.0296 62.02 71.5844 61.4125 71.0351 61.4125C70.4859 61.4125 70.0406 62.02 70.0406 62.7693C70.0406 63.5187 70.4859 64.1262 71.0351 64.1262Z" fill="#37444C"/>
<path d="M71.0352 63.4858C71.3145 63.4858 71.5409 63.1726 71.5409 62.7863C71.5409 62.3999 71.3145 62.0868 71.0352 62.0868C70.7559 62.0868 70.5295 62.3999 70.5295 62.7863C70.5295 63.1726 70.7559 63.4858 71.0352 63.4858Z" fill="black"/>
<path d="M72.5016 62.997C72.5016 62.997 72.4931 60.1989 69.2653 62.2722L67.9674 63.0728L69.5687 63.8903C69.5687 63.8903 71.3385 64.7921 72.0296 63.9914C72.2403 63.747 72.3161 63.5616 72.5016 62.997Z" stroke="#C56858" stroke-width="0.389409" stroke-miterlimit="10"/>
<path d="M71.3639 62.5503C71.4616 62.5503 71.5409 62.4409 71.5409 62.3059C71.5409 62.1709 71.4616 62.0615 71.3639 62.0615C71.2661 62.0615 71.1869 62.1709 71.1869 62.3059C71.1869 62.4409 71.2661 62.5503 71.3639 62.5503Z" fill="#9BB0CF"/>
<path d="M35.6216 74.6611C35.6216 74.6611 35.925 77.3917 37.265 79.7093L37.9982 78.6643C37.9982 78.6643 39.2792 83.3923 42.7094 83.9991L41.6137 75.4954L35.6216 74.6611Z" fill="#240046" stroke="#240046" stroke-width="0.865353" stroke-linejoin="round"/>
<path d="M33.8939 66.2669C33.8939 66.2669 31.2729 60.5023 32.7983 54.5692C34.3237 48.636 36.5908 45.7031 36.5908 45.7031L38.546 44.5401C38.546 44.5401 37.0206 44.1103 36.3464 44.5401C35.6722 44.9699 38.4281 39.1547 44.2938 40.0734C44.2938 40.0734 42.5661 38.5479 40.1558 39.1547C40.1558 39.1547 42.3385 35.851 46.19 38.1771C46.19 38.1771 44.7826 36.5843 43.5606 36.2219C43.5606 36.2219 45.5748 35.9185 47.2941 37.5703C47.2941 37.5703 47.1677 35.2442 46.7463 35.2442C46.7463 35.2442 49.7466 34.6964 50.2944 36.8371C50.2944 36.8371 50.3534 35.1263 49.1903 34.452C49.1903 34.452 50.2944 32.7412 52.7384 37.0225L51.5164 34.1149C51.5164 34.1149 53.3537 33.5334 54.5757 36.1629C54.5757 36.1629 54.8791 35.1347 54.1459 34.0559C54.1459 34.0559 55.9663 33.2216 57.8035 36.3483C57.8035 36.3483 59.3374 37.4523 61.1747 36.8371C63.0119 36.2219 66.619 36.2893 69.3075 38.1855C69.3075 38.1855 67.4028 37.6967 66.5516 38.5564C66.5516 38.5564 69.5182 39.416 70.757 40.5116C71.9959 41.6157 72.9483 43.6889 73.4539 44.6665C73.9512 45.6441 72.4258 45.2143 72.4258 45.2143C72.4258 45.2143 73.6646 47.178 70.6728 48.3073L70.4031 47.9112C69.7879 46.9589 69.299 46.5038 68.3551 45.8801C63.8378 42.8882 56.3118 42.3067 50.9517 43.0147C47.5216 43.4698 43.8218 45.9728 41.58 48.4169C39.4984 50.6924 42.9453 55.6395 42.9453 55.6395C39.5658 59.2213 41.58 62.2722 41.58 62.2722C41.58 62.2722 43.8556 66.3428 40.1473 69.3515L33.8939 66.2669Z" fill="#240046"/>
<path d="M59.1268 63.4858C58.6885 63.7639 57.8036 64.2527 56.5394 64.396C55.2753 64.5393 51.9631 63.4858 51.9631 63.4858C51.9631 63.4858 53.1514 61.7665 55.4607 61.1597C57.7699 60.5445 59.211 62.7863 59.211 62.7863L59.4891 63.2161C59.4807 63.2077 59.211 63.4268 59.1268 63.4858Z" fill="#FFE9E9"/>
<path d="M56.5394 64.0841C57.3911 64.0841 58.0816 63.3936 58.0816 62.5419C58.0816 61.6901 57.3911 60.9996 56.5394 60.9996C55.6876 60.9996 54.9971 61.6901 54.9971 62.5419C54.9971 63.3936 55.6876 64.0841 56.5394 64.0841Z" fill="#37444C"/>
<path d="M56.5394 63.292C56.9536 63.292 57.2895 62.9561 57.2895 62.5419C57.2895 62.1276 56.9536 61.7918 56.5394 61.7918C56.1251 61.7918 55.7893 62.1276 55.7893 62.5419C55.7893 62.9561 56.1251 63.292 56.5394 63.292Z" fill="black"/>
<path d="M57.0703 62.2806C57.168 62.2806 57.2473 62.1712 57.2473 62.0362C57.2473 61.9012 57.168 61.7918 57.0703 61.7918C56.9725 61.7918 56.8933 61.9012 56.8933 62.0362C56.8933 62.1712 56.9725 62.2806 57.0703 62.2806Z" fill="#9BB0CF"/>
<path d="M59.1268 63.4858C58.6885 63.7639 57.8036 64.2527 56.5394 64.396C55.2753 64.5393 51.9631 63.4858 51.9631 63.4858C51.9631 63.4858 53.1514 61.7665 55.4607 61.1597C57.7699 60.5445 59.211 62.7863 59.211 62.7863L59.4891 63.2161C59.4807 63.2077 59.211 63.4268 59.1268 63.4858Z" stroke="#C56858" stroke-width="0.389409" stroke-miterlimit="10"/>
<path d="M51.5416 62.407C51.5416 62.407 52.7131 60.3675 55.2836 60.2579C57.8456 60.1484 58.5535 60.7973 58.5535 60.7973" stroke="#C56858" stroke-width="0.432677" stroke-miterlimit="10" stroke-linecap="round" stroke-linejoin="round"/>
<path d="M51.1034 61.7918C51.1034 61.7918 52.1147 61.0249 53.2272 60.831" stroke="#C56858" stroke-width="0.432677" stroke-miterlimit="10" stroke-linecap="round" stroke-linejoin="round"/>
<path d="M70.8244 60.8984C70.8244 60.8984 69.2231 60.9743 68.2118 62.0193" stroke="#C56858" stroke-width="0.432677" stroke-miterlimit="10" stroke-linecap="round" stroke-linejoin="round"/>
<path d="M63.5851 58.901C61.8152 57.9318 60.4499 56.4738 56.826 56.5581C53.202 56.6424 53.2358 56.7856 52.0643 57.1649C51.0361 57.4936 49.6792 57.8307 48.1707 59.1538C46.6705 60.477 52.3508 59.2044 55.7135 59.1033C57.2137 59.0527 60.2814 59.9376 62.5653 60.3169C63.8716 60.536 63.9728 59.1117 63.5851 58.901Z" fill="#240046"/>
<path opacity="0.2" d="M41.6222 49.1164C41.7233 48.4337 43.9061 46.7987 43.9061 46.7987C43.9061 46.7987 46.0299 44.6075 50.9939 43.2759C55.9579 41.9443 56.9355 44.1271 61.7056 43.6383C66.4757 43.1495 69.9143 47.2623 71.0436 49.7148C72.1729 52.1672 73.5888 60.0978 73.1337 61.6148C72.6786 63.1318 74.5748 70.2786 74.5748 70.2786C73.7405 68.2643 72.3246 65.9888 71.76 64.6572C71.229 63.4015 71.4228 61.4884 71.3301 60.1736C71.3723 60.8479 71.5324 60.6035 70.8245 57.5442C70.8245 57.5442 68.8692 50.5744 63.9643 48.2652C59.0593 45.956 51.5248 46.4616 46.3333 47.9281C44.6562 48.4085 43.3836 48.2568 41.8919 49.4872L41.6222 49.1164Z" fill="white"/>
<path opacity="0.2" d="M42.979 38.6744C44.2516 38.4805 45.1113 39.3823 45.8361 39.298C46.131 39.2643 46.7378 38.5227 46.7378 38.5227L46.4597 37.486L44.1336 36.3483L41.875 38.371L42.979 38.6744Z" fill="white"/>
<path opacity="0.2" d="M71.1868 45.9222C71.1868 45.9222 70.3019 42.037 64.8997 40.2672C64.8997 40.2672 63.7114 39.9638 64.3182 39.2053C64.3182 39.2053 61.4949 39.8627 58.7643 39.5087C58.3345 39.4497 58.1322 39.1294 56.5393 38.7502C55.2836 38.4552 53.6149 38.8092 52.4097 38.5648C52.3676 38.5564 49.8561 38.4047 48.8785 38.0675C47.9093 37.7389 48.1453 36.6264 47.9599 36.4831C46.9654 35.6993 48.6256 35.5898 48.4487 35.4634C48.2043 35.2948 50.6905 37.545 50.564 37.2332C49.9741 35.7752 52.907 35.1094 52.6036 34.629C52.2833 34.1318 54.5588 36.6433 54.5588 36.6433L55.2246 34.629L58.6294 37.1826L65.4138 37.0815L66.5768 37.5703L70.9593 41.4134L72.6111 44.5569L71.6082 47.4055L71.1868 45.9222Z" fill="white"/>
<path d="M33.8939 66.2669C33.8939 66.2669 31.2729 60.5023 32.7983 54.5692C34.3237 48.636 36.5908 45.7031 36.5908 45.7031L38.546 44.5401C38.546 44.5401 37.0206 44.1103 36.3464 44.5401C35.6722 44.9699 38.4281 39.1547 44.2938 40.0734C44.2938 40.0734 42.5661 38.5479 40.1558 39.1547C40.1558 39.1547 42.3385 35.851 46.19 38.1771C46.19 38.1771 44.7826 36.5843 43.5606 36.2219C43.5606 36.2219 45.5748 35.9185 47.2941 37.5703C47.2941 37.5703 47.1677 35.2442 46.7463 35.2442C46.7463 35.2442 49.7466 34.6964 50.2944 36.8371C50.2944 36.8371 50.3534 35.1263 49.1903 34.452C49.1903 34.452 50.2944 32.7412 52.7384 37.0225L51.5164 34.1149C51.5164 34.1149 53.3537 33.5334 54.5757 36.1629C54.5757 36.1629 54.8791 35.1347 54.1459 34.0559C54.1459 34.0559 55.9663 33.2216 57.8035 36.3483C57.8035 36.3483 59.3374 37.4523 61.1747 36.8371C63.0119 36.2219 66.619 36.2893 69.3075 38.1855C69.3075 38.1855 67.4028 37.6967 66.5516 38.5564C66.5516 38.5564 69.5182 39.416 70.757 40.5116C71.9959 41.6157 72.9483 43.6889 73.4539 44.6665C73.9512 45.6441 72.4258 45.2143 72.4258 45.2143C72.4258 45.2143 73.6646 47.178 70.6728 48.3073L70.4031 47.9112C69.7879 46.9589 69.299 46.5038 68.3551 45.8801C63.8378 42.8882 56.3118 42.3067 50.9517 43.0147C47.5216 43.4698 43.8218 45.9728 41.58 48.4169C39.4984 50.6924 42.9453 55.6395 42.9453 55.6395C39.5658 59.2213 41.58 62.2722 41.58 62.2722C41.58 62.2722 43.8556 66.3428 40.1473 69.3515L33.8939 66.2669Z" stroke="#240046" stroke-width="1.73071" stroke-linejoin="round"/>
<path d="M73.2601 57.1228C73.2601 57.1228 72.8893 48.872 68.372 45.8801C63.8547 42.8883 56.3287 42.3068 50.9686 43.0147C47.5385 43.4698 43.8387 45.9729 41.5969 48.4169C39.5152 50.6924 42.9622 55.6395 42.9622 55.6395C39.5827 59.2213 41.5969 62.2722 41.5969 62.2722C41.5969 62.2722 43.8724 66.3428 40.1642 69.3515C40.1642 69.3515 42.0183 74.9729 42.3723 76.9113C42.9622 80.0632 44.2601 87.7072 47.1171 88.8197C51.1372 90.3704 56.6827 90.5811 59.9948 90.775C62.4557 90.9182 67.2848 91.4913 69.8216 90.4463C72.3583 89.4012 74.0523 82.5073 74.0523 82.5073C74.0523 82.5073 75.1564 74.9644 75.4176 72.7479C75.6789 70.5398 73.9933 66.1827 73.4539 64.16C73.1084 62.8453 73.5719 60.9743 73.6731 59.6596C73.7321 59.0191 73.2601 57.1228 73.2601 57.1228Z" stroke="#240046" stroke-width="1.73071" stroke-linejoin="round"/>
<path opacity="0.4" d="M41.4115 65.6264C41.4115 65.6264 43.628 74.6863 43.9904 76.6247C44.5803 79.7767 46.3586 85.9542 49.2241 87.0583C53.2441 88.609 58.68 89.4855 61.9753 89.8731C63.4417 90.0501 67.3185 90.7749 69.4845 90.7328C69.4845 90.7328 57.7867 92.4268 47.2604 89.3422C36.7341 86.2576 47.2604 89.3422 47.2604 89.3422C47.2604 89.3422 45.8614 89.8563 44.6478 85.8952C43.4342 81.9342 40.1726 68.2137 40.1726 68.2137C40.1726 68.2137 40.83 67.4637 40.948 67.1855C41.3019 66.5113 41.4115 65.6264 41.4115 65.6264Z" fill="black"/>
<path opacity="0.2" d="M51.7945 58.7409C52.1148 58.3785 52.5277 57.915 53.379 57.6285C54.2386 57.3335 55.2162 56.9964 57.517 57.1818C59.8262 57.3756 61.1241 57.7549 62.54 59.1707C63.9558 60.5866 63.4923 62.997 63.4923 62.997C63.4923 62.997 63.0793 65.1123 62.3883 66.2838C61.6887 67.4553 61.3095 67.9946 60.3993 68.5256C59.4807 69.065 58.3429 69.2251 58.3429 69.2251C58.3429 69.2251 57.0619 69.5959 55.0224 69.065C52.5783 68.4329 51.7103 66.3765 51.7103 66.3765C51.7103 66.3765 50.6905 64.5392 50.5978 62.9295C50.5051 61.3198 50.5304 60.5698 50.9433 59.8365C51.3563 59.1033 51.4574 59.0612 51.6765 58.8589C51.7103 58.8336 51.7692 58.7662 51.7945 58.7409Z" fill="white"/>
<path d="M51.744 58.8421C51.744 58.8421 52.5277 57.915 53.379 57.62C54.2386 57.3251 55.2162 56.988 57.517 57.1734C59.8262 57.3672 61.1241 57.7465 62.54 59.1623C63.9558 60.5782 63.4923 62.9885 63.4923 62.9885C63.4923 62.9885 63.0793 65.1039 62.3883 66.2754C61.6887 67.4468 61.3095 67.9862 60.3993 68.5172C59.4807 69.0565 58.3429 69.2167 58.3429 69.2167C58.3429 69.2167 57.0619 69.5875 55.0224 69.0565C52.5783 68.4245 51.7103 66.3681 51.7103 66.3681C51.7103 66.3681 50.6905 64.5308 50.5978 62.9211C50.5051 61.3114 50.5304 60.5613 50.9433 59.8281C51.3563 59.0949 51.7103 58.8673 51.7103 58.8673L51.744 58.8421Z" stroke="#E1B554" stroke-width="0.865353" stroke-miterlimit="10"/>
<path d="M63.3237 60.4517L64.6216 59.7354C64.6216 59.7354 66.9308 59.4067 67.841 60.0893C67.841 60.0893 67.9422 61.067 68.3635 61.3619" stroke="#E1B554" stroke-width="0.432677" stroke-miterlimit="10"/>
<path d="M78.0133 59.9798L79.4207 60.1231L79.5135 60.8647H78.5695L78.0133 59.9798Z" fill="#E1B554" stroke="#E1B554" stroke-width="0.865353" stroke-miterlimit="10"/>
<path opacity="0.2" d="M68.3635 62.3565C68.3635 62.3565 68.1949 60.1821 69.3917 59.2298C70.5884 58.2774 71.5913 58.0583 71.5913 58.0583C71.5913 58.0583 73.201 57.6959 74.5411 58.0583C75.8811 58.4207 76.7828 58.8337 77.4486 59.5247C77.8195 59.904 77.9122 60.1147 78.1229 60.5024C78.401 61.0249 78.5358 61.7581 78.5611 62.8369C78.5864 63.9072 78.4431 64.691 78.4431 64.691C78.4431 64.691 78.224 66.0816 77.5161 67.3036C76.8081 68.5256 75.7631 68.9133 75.7631 68.9133C75.7631 68.9133 74.6843 69.3853 73.4707 69.3431C72.2571 69.301 71.0604 68.4751 70.4957 67.8598C69.9816 67.2952 69.3748 66.2248 69.004 65.1966C68.6332 64.1853 68.3635 62.3565 68.3635 62.3565Z" fill="white"/>
<path opacity="0.2" d="M70.8245 59.4572C70.875 59.2381 71.5661 58.9347 71.5661 58.9347C71.5661 58.9347 71.8864 58.7999 72.4005 58.6819C72.9061 58.5639 73.5803 58.6735 73.5803 58.6735C73.5803 58.6735 74.2714 58.7746 75.0215 59.0021C75.7716 59.2297 76.4542 59.6089 76.7661 59.8365C77.0526 60.0388 77.3644 60.3674 77.5246 60.6371C77.6931 60.9068 77.8954 61.4293 77.7437 61.3282C76.9683 60.7888 76.3615 60.4686 75.8643 60.2495C75.4345 60.0556 74.8782 59.7185 74.027 59.5499C73.2432 59.3814 70.8245 59.4572 70.8245 59.4572Z" fill="white"/>
<path d="M50.1595 59.7523L51.2888 59.7355C51.4321 59.3057 52.0136 58.7494 52.0136 58.7494H51.5585C50.3786 58.7747 49.7971 58.8674 49.2493 58.8168C48.7015 58.7663 48.2885 59.095 48.2885 59.095L37.5178 64.9438L37.7117 65.2557L47.7154 60.2917C47.7154 60.2917 47.9514 60.376 48.2885 60.3254C48.6256 60.2749 48.9122 60.14 48.9122 60.14C48.9122 60.14 49.0976 59.9377 49.4179 59.8872C49.7465 59.8282 50.1595 59.7523 50.1595 59.7523Z" fill="#E1B554" stroke="#E1B554" stroke-width="0.865353" stroke-miterlimit="10"/>
<path opacity="0.4" d="M41.5969 65.7191C41.5969 65.7191 37.8466 63.9072 36.7594 62.7863C34.7114 60.6793 33.363 57.1987 34.8968 51.2655C35.0738 50.5913 35.2592 49.9508 35.4447 49.3524C35.4447 49.3524 30.8431 54.0045 33.658 64.7752L38.1837 65.2472L40.5013 69.3431L41.5969 65.7191Z" fill="black"/>
<path d="M68.3635 62.3565C68.3635 62.3565 68.1949 60.1821 69.3917 59.2298C70.5884 58.2774 71.5913 58.0583 71.5913 58.0583C71.5913 58.0583 73.201 57.6959 74.5411 58.0583C75.8811 58.4207 76.7828 58.8337 77.4486 59.5247C77.8195 59.904 77.9122 60.1147 78.1229 60.5024C78.401 61.0249 78.5358 61.7581 78.5611 62.8369C78.5864 63.9072 78.4431 64.691 78.4431 64.691C78.4431 64.691 78.224 66.0816 77.5161 67.3036C76.8081 68.5256 75.7631 68.9133 75.7631 68.9133C75.7631 68.9133 74.6843 69.3853 73.4707 69.3431C72.2571 69.301 71.0604 68.4751 70.4957 67.8598C69.9816 67.2952 69.3748 66.2248 69.004 65.1966C68.6332 64.1853 68.3635 62.3565 68.3635 62.3565Z" stroke="#E1B554" stroke-width="0.865353" stroke-miterlimit="10"/>
<path d="M38.1837 65.6518C38.1837 65.6518 37.5432 65.5085 36.0093 65.2557C34.4755 65.0028 33.6243 66.68 33.6243 66.68C33.6243 66.68 32.3685 69.1577 33.6243 71.1467C34.88 73.1356 35.1244 75.0572 37.8129 76.4393C40.5013 77.8215 42.1363 75.8915 42.1363 75.8915C42.1363 75.8915 39.254 66.798 38.1837 65.6518Z" fill="#FB8671"/>
<path opacity="0.3" d="M38.3017 65.677C38.3017 65.677 37.6612 65.5337 36.1273 65.2808C34.5934 65.028 33.7422 66.7051 33.7422 66.7051C33.7422 66.7051 33.4894 66.5872 34.7367 68.5761C35.984 70.5651 36.2369 72.4866 38.9253 73.8688C41.6138 75.2425 41.1587 72.9333 41.1587 72.9333C41.1587 72.9333 39.372 66.8231 38.3017 65.677Z" fill="black"/>
<path d="M38.1837 65.6518C38.1837 65.6518 37.5432 65.5085 36.0093 65.2557C34.4755 65.0028 33.6243 66.68 33.6243 66.68C33.6243 66.68 32.3685 69.1577 33.6243 71.1467C34.88 73.1356 35.1244 75.0572 37.8129 76.4393C40.5013 77.8215 41.4705 76.4309 41.4705 76.4309C41.4705 76.4309 39.254 66.798 38.1837 65.6518Z" stroke="#240046" stroke-width="1.73071" stroke-linejoin="round"/>
<path d="M66.3325 61.716C66.3325 61.716 67.2932 62.4155 67.7483 64.2527C68.2034 66.0816 70.4031 67.4553 70.7233 68.7447C71.0436 70.0258 70.4958 70.6241 70.2177 71.0792C69.9395 71.5343 68.2456 72.3181 68.2456 72.3181C68.2456 72.3181 66.5516 71.2647 64.1665 72.3181C61.7814 73.3716 62.245 70.169 62.4725 69.9331" fill="#FB8671"/>
<path opacity="0.2" d="M65.9363 61.8087C65.9363 61.8087 66.7453 63.6965 67.2089 65.5254C67.664 67.3542 69.8636 68.7279 70.1839 70.0174C70.2345 70.2196 70.2682 70.4135 70.2766 70.582C70.3356 71.4838 70.7654 68.3571 70.5379 68.7448L68.0854 65.4495L67.0319 62.9128L65.9363 61.8087Z" fill="white"/>
<path d="M62.7591 70.2196C62.5316 70.4472 62.7001 72.2423 65.0852 71.1888C67.4703 70.1353 69.1643 71.1888 69.1643 71.1888C69.1643 71.1888 69.7626 70.9107 70.302 70.5989C70.302 70.5989 70.3189 72.1243 68.2372 72.2844C66.1555 72.453 66.282 71.9136 66.282 71.9136L62.9783 72.7901C62.9783 72.7901 61.9754 72.099 62.3883 71.0371C62.7928 69.9752 62.481 70.0511 62.481 70.0511L62.7591 70.2196Z" fill="#C56858"/>
<path d="M66.3325 61.716C66.3325 61.716 67.2932 62.4155 67.7483 64.2527C68.2034 66.0816 70.4031 67.4553 70.7233 68.7447C71.0436 70.0258 70.4958 70.6241 70.2177 71.0792C69.9395 71.5343 68.2456 72.3181 68.2456 72.3181C68.2456 72.3181 66.5516 71.2647 64.1665 72.3181C61.7814 73.3716 62.245 70.169 62.4725 69.9331" stroke="#C56858" stroke-width="0.865353" stroke-linecap="round" stroke-linejoin="round"/>
<path opacity="0.3" d="M43.7628 88.3477L44.0325 85.9879L47.5553 89.3591C47.5553 89.3591 59.4806 91.4744 67.9674 91.3733H69.0125L71.3638 96.2361L72.5016 96.9188C71.7683 98.7055 71.0436 100.045 69.83 100.551C67.2932 101.596 62.4641 101.023 60.0032 100.88C56.691 100.686 51.1371 100.484 47.1255 98.9246C44.2601 97.8206 44.3443 91.4997 43.7628 88.3477Z" fill="black"/>
<path opacity="0.2" d="M55.0646 59.1287C55.1151 58.9095 55.8062 58.6061 55.8062 58.6061C55.8062 58.6061 56.1265 58.4713 56.6406 58.3533C57.1462 58.2353 57.8205 58.3449 57.8205 58.3449C57.8205 58.3449 58.5115 58.446 59.2616 58.6736C60.0117 58.9011 60.6943 59.2804 61.0062 59.5079C61.2927 59.7102 61.6045 60.0389 61.7647 60.3085C61.9332 60.5782 62.1355 61.1008 61.9838 60.9996C61.2084 60.4602 60.6016 60.14 60.1044 59.9209C59.6746 59.727 59.1183 59.3899 58.2671 59.2214C57.4749 59.0612 55.0646 59.1287 55.0646 59.1287Z" fill="white"/>
<path d="M-7.84888 137.507C-7.36849 132.973 19.1706 138.257 32.5371 141.207C37.7117 142.353 43.0128 142.8 48.3055 142.547L73.9091 141.342L73.1084 131.599L71.5156 129.686C71.5156 129.686 41.9509 96.4723 33.0849 79.8611L36.5908 87.0079L36.4729 88.7693L27.5225 97.3741L7.53184 109.131L3.43593 113.244L-7.84888 137.507Z" fill="#5A189A"/>
<path opacity="0.3" d="M3.56234 114.482L-1.73031 133.521C2.02005 133.622 20.0218 135.94 32.5455 141.215L-0.508284 135.788L-7.20837 136.159L3.56234 114.482Z" fill="black"/>
<path d="M72.3163 94.7529C72.3163 94.7529 79.6653 105.726 87.6464 110.681C87.6464 110.681 91.8013 111.482 94.1948 115.308C96.5883 119.143 99.6223 125.531 103.617 135.105C103.617 135.105 107.115 139.1 74.3811 140.052L73.1169 131.591L69.6447 127.545C69.6447 127.545 69.9228 129.973 73.9175 121.123C77.9039 112.283 72.3163 94.7529 72.3163 94.7529Z" fill="#5A189A"/>
<path d="M38.723 87.7662C38.723 87.7662 55.1825 93.219 66.4167 115.738C66.4167 115.738 66.7623 99.6073 71.6167 95.8316C76.4711 92.056 75.3249 111.246 75.3249 111.246C75.3249 111.246 75.1311 123.062 71.3891 125.607C67.6388 128.152 58.6379 114.642 58.6379 114.642L38.723 87.7662Z" fill="#9D4EDD"/>
<path opacity="0.3" d="M66.56 117.407C66.56 117.407 63.1383 99.877 38.3101 86.6538L34.3153 90.6655C34.3153 90.6655 54.3144 97.5257 67.5376 119.328" fill="black"/>
<path opacity="0.2" d="M69.0125 101.436C69.0125 101.436 69.6698 102.33 70.8244 103.703C71.2542 104.217 71.7515 104.799 72.3161 105.423C74.954 108.364 78.932 112.325 83.4071 115.098C83.4071 115.098 87.562 115.898 89.9555 119.724C92.2731 123.441 94.5908 128.565 98.4001 137.659L103.255 135.484C103.255 135.484 95.9645 115.831 91.3545 112.965C86.7445 110.1 81.4856 106.468 81.4856 106.468L72.4426 95.385L70.6474 96.9947L69.0125 101.436Z" fill="white"/>
<path d="M69.3496 127.217C69.3496 127.217 78.814 123.509 74.3304 97.5341" stroke="#240046" stroke-width="1.73071" stroke-miterlimit="10"/>
<path d="M-7.84888 137.507C-7.36849 132.973 19.1706 138.257 32.5371 141.207C37.7117 142.353 43.0128 142.8 48.3055 142.547L73.9091 141.342L73.1084 131.599L71.5156 129.686C71.5156 129.686 46.8222 101.613 35.8155 84.1592" stroke="#240046" stroke-width="1.73071" stroke-miterlimit="10"/>
<path d="M72.3162 94.7529C72.3162 94.7529 79.6652 105.726 87.6463 110.681C87.6463 110.681 91.8012 111.482 94.1947 115.308C96.5882 119.143 99.6222 125.531 103.617 135.105C103.617 135.105 106.803 139.1 74.0691 140.052" stroke="#240046" stroke-width="1.73071" stroke-miterlimit="10"/>
<path d="M37.0627 86.6623C37.0627 86.6623 35.5879 91.9971 20.2577 101.9C20.2577 101.9 6.84069 107.167 4.12694 113.235C1.41319 119.303 -7.84895 137.507 -7.84895 137.507C-7.84895 137.507 -10.5627 140.221 -2.58158 142.294" stroke="#240046" stroke-width="1.73071" stroke-miterlimit="10"/>
<path d="M34.9474 74.4335C34.9474 74.4335 26.4859 79.2205 41.9762 88.8029C57.4664 98.3853 64.3266 110.681 64.3266 110.681C64.3266 110.681 65.4981 112.544 65.9785 114.305C66.4589 116.058 70.5042 128.616 70.5042 128.616" stroke="#240046" stroke-width="1.73071" stroke-miterlimit="10"/>
<path d="M71.0858 124.967C69.8132 121.056 67.7737 114.718 67.5208 113.555C67.15 111.853 67.2006 110.681 67.2006 110.681C67.2006 106.055 69.4424 98.2252 72.9483 93.9186C76.4627 89.6036 76.6228 84.1761 75.6705 80.1813C75.4514 79.2964 75.1143 78.5379 74.7182 77.8974" stroke="#240046" stroke-width="1.73071" stroke-miterlimit="10" stroke-linecap="round"/>
</g>
<path fill-rule="evenodd" clip-rule="evenodd" d="M102.777 44.029L102.789 44.029C103.727 44.029 104.487 43.2686 104.487 42.3304L104.487 42.3208C104.492 42.0125 104.744 41.764 105.053 41.764C105.366 41.764 105.619 42.0175 105.619 42.3302V42.3303H105.62V42.3305C105.62 43.2686 106.38 44.0291 107.318 44.0291L107.33 44.029C107.637 44.0353 107.884 44.2864 107.884 44.5951C107.884 44.9067 107.633 45.1595 107.321 45.1613C107.32 45.1613 107.319 45.1613 107.318 45.1613C106.38 45.1613 105.62 45.9218 105.62 46.8599C105.62 46.8599 105.62 46.8599 105.62 46.8599H105.619V46.8599C105.619 47.1726 105.366 47.4261 105.053 47.4261C104.741 47.4261 104.487 47.1726 104.487 46.8599V46.8599H104.487C104.487 45.9218 103.727 45.1614 102.789 45.1614V45.1613H102.788C102.476 45.1613 102.222 44.9078 102.222 44.5951C102.222 44.2862 102.47 44.0351 102.777 44.029Z" fill="#E1B554"/>
<path fill-rule="evenodd" clip-rule="evenodd" d="M102.152 25.9103V25.9105H102.152C101.213 25.9105 100.453 26.671 100.453 27.6091C100.453 28.5427 101.206 29.3003 102.138 29.3077L102.152 29.3077C104.966 29.3077 107.247 31.5891 107.247 34.4035L107.247 34.4035C107.248 35.3415 108.008 36.102 108.946 36.102C109.878 36.102 110.634 35.3517 110.645 34.4223C110.645 34.416 110.645 34.4097 110.645 34.4035C110.645 31.5891 112.926 29.3077 115.74 29.3077C115.745 29.3077 115.75 29.3077 115.754 29.3077C116.686 29.3003 117.439 28.5427 117.439 27.6091C117.439 26.671 116.679 25.9105 115.74 25.9105V25.9104H115.74C112.926 25.9104 110.645 23.6289 110.645 20.8146L110.645 20.7957C110.634 19.8663 109.878 19.1161 108.946 19.1161C108.008 19.1161 107.247 19.8765 107.247 20.8147V20.8147H107.247C107.247 23.6289 104.966 25.9102 102.152 25.9103Z" fill="#E1B554"/>
<path fill-rule="evenodd" clip-rule="evenodd" d="M88.8458 34.9696L88.8458 34.9697H88.8458C88.2204 34.9697 87.7134 35.4767 87.7134 36.1021C87.7134 36.7275 88.2204 37.2345 88.8458 37.2345H88.8458L88.8458 37.2346C90.722 37.2346 92.243 38.7556 92.243 40.6318L92.243 40.6462C92.2507 41.265 92.7547 41.7642 93.3753 41.7642C94.0007 41.7642 94.5077 41.2572 94.5077 40.6319H94.5079C94.5079 38.7557 96.0288 37.2347 97.905 37.2347V37.2345C98.5304 37.2345 99.0374 36.7275 99.0374 36.1021C99.0374 35.4767 98.5304 34.9697 97.905 34.9697V34.9696C96.0289 34.9696 94.508 33.4487 94.5079 31.5727H94.5077V31.5725C94.5077 30.9471 94.0007 30.4401 93.3753 30.4401C92.7547 30.4401 92.2507 30.9393 92.243 31.558L92.243 31.5724C92.243 33.4486 90.722 34.9696 88.8458 34.9696Z" fill="#E1B554"/>
<circle cx="90" cy="90" r="88" stroke="#2A294C" stroke-width="4"/>
</svg>
