<svg width="86" height="86" viewBox="0 0 86 86" fill="none" xmlns="http://www.w3.org/2000/svg">
<circle cx="43" cy="43" r="41.8783" fill="#0C0E19"/>
<mask id="mask0" mask-type="alpha" maskUnits="userSpaceOnUse" x="1" y="1" width="84" height="84">
<circle cx="43" cy="43" r="41.8783" fill="#B53B3B"/>
</mask>
<g mask="url(#mask0)">
<path d="M58.5456 78.3655C58.5456 78.3655 55.8357 79.9681 55.5337 89.1246C55.2277 98.2811 55.5337 108.883 55.5337 108.883C55.5337 108.883 55.4975 111.895 58.3201 108.541C61.1428 105.183 62.7454 98.7361 62.7454 98.7361C62.7454 98.7361 63.9654 91.5245 63.3937 79.356C63.3896 79.356 61.2918 76.6461 58.5456 78.3655Z" fill="#240046"/>
<path opacity="0.3" d="M58.5456 78.3655C58.5456 78.3655 55.8357 79.9681 55.5337 89.1246C55.2277 98.2811 55.5337 108.883 55.5337 108.883C55.5337 108.883 55.4975 111.895 58.3201 108.541C61.1428 105.183 62.7454 98.7361 62.7454 98.7361C62.7454 98.7361 63.9654 91.5245 63.3937 79.356C63.3896 79.356 61.2918 76.6461 58.5456 78.3655Z" fill="black"/>
<path d="M57.5674 79.2036L58.2116 78.9459L59.1901 78.5271L58.8398 76.3286L60.0357 73.6388C60.0357 73.6388 59.0572 71.3316 59.9471 70.8162C60.837 70.3008 61.3725 70.1477 61.7148 70.643C62.057 71.1383 62.5362 72.3342 62.5362 72.3342L67.2272 70.9571L68.3909 72.5677L67.6097 73.5019L68.2379 74.5529L67.3198 75.7286L67.795 77.1299L66.7641 78.4466L66.5668 80.2022C66.5668 80.2022 65.7897 80.8706 64.1307 80.7176C62.4718 80.5646 61.7993 81.9658 61.7993 81.9658L59.4639 83.5121L56.0896 84.2248L57.5674 79.2036Z" fill="#FB8671"/>
<path opacity="0.3" d="M61.5979 79.3762C60.3818 79.4245 60.2046 78.1561 60.2046 77.2783C60.2046 76.6945 60.5429 76.4126 60.5228 76.1871C60.4905 75.8046 60.2892 75.1684 60.3013 74.9107C60.3093 74.7617 60.3738 74.5725 60.6033 74.4879C60.3536 74.5322 59.7215 74.3872 59.7295 74.3268C59.8463 73.5417 61.4006 73.4933 61.6462 73.6343C62.2139 73.9644 61.9119 78.8085 61.5697 81.4137C61.5213 81.7761 61.324 82.0458 61.2838 82.3036C61.2355 82.6217 58.1108 83.8457 56.7216 83.9988C55.9244 84.0873 56.5042 83.3022 56.5163 83.121C56.5243 83.0122 60.9254 81.6633 61.01 81.611C61.167 81.5103 61.3079 81.015 61.2838 81.1197C61.2475 81.2848 61.5979 79.3762 61.5979 79.3762Z" fill="black"/>
<path d="M65.7573 70.9525C65.7573 70.9525 66.0029 71.1136 66.5707 71.1539" stroke="#240046" stroke-width="1.26128" stroke-linecap="round" stroke-linejoin="round"/>
<path d="M59.9469 73.3484C59.9469 73.3484 58.6302 75.3456 58.8637 76.6261C59.0973 77.9065 59.1778 78.136 59.1778 78.136C59.1778 78.136 59.5322 78.9615 58.2114 78.7521" stroke="#240046" stroke-width="1.26128" stroke-linecap="round" stroke-linejoin="round"/>
<path d="M64.3078 80.5238C63.6152 80.9144 61.9482 80.85 61.9482 80.85L61.6986 82.2593C61.6986 82.2593 60.0517 83.8055 56.464 84.2202" stroke="#240046" stroke-width="1.26128" stroke-linecap="round" stroke-linejoin="round"/>
<path d="M67.2513 70.876C66.6755 70.5459 66.0393 70.3083 66.0393 70.3083" stroke="#240046" stroke-width="1.26128" stroke-linecap="round" stroke-linejoin="round"/>
<path d="M46.7559 94.9994C46.7559 94.9994 53.0696 99.7347 55.1795 107.067C55.1795 107.067 55.0829 101.172 55.8399 87.2885C55.8399 87.2885 55.5339 79.9882 58.8881 77.8783C58.8881 77.8783 57.4465 77.4032 55.397 77.2059C52.5985 76.9401 48.8578 76.8193 47.835 75.6516C47.0136 74.504 47.8149 66.1609 47.8149 66.1609H46.2203L46.7559 94.9994Z" fill="#5A189A"/>
<path opacity="0.2" d="M47.6094 75.6677C47.6295 76.7589 47.6939 77.5562 47.8349 77.6689C48.3583 78.0877 48.8939 78.9655 51.8293 78.9292C53.2225 78.9131 55.4693 79.1386 57.394 79.3762C57.9255 79.4406 58.6342 77.8058 58.8839 77.6729L49.3408 76.8153L48.0885 76.167L47.6094 75.6677Z" fill="white"/>
<path d="M58.8879 77.8783C58.8879 77.8783 55.8357 79.9641 55.5297 89.1206C55.2237 98.2771 55.5297 108.879 55.5297 108.879C55.5297 108.879 55.4934 111.891 58.3161 108.537C59.206 107.478 59.4556 107.168 60.0918 105.791" stroke="#240046" stroke-width="1.26128" stroke-miterlimit="10"/>
<path d="M47.8348 65.7703C47.8348 65.7703 47.3114 75.2328 47.8348 75.6516C48.3583 76.0704 48.8938 76.9482 51.8292 76.9119C53.605 76.8878 56.7739 77.2622 58.8879 77.5522" stroke="#240046" stroke-width="1.26128" stroke-miterlimit="10"/>
<path d="M59.5121 155.978L61.2476 156.172L67.2996 33.2876L63.4058 33.0944L59.5121 155.978Z" fill="#E1B554"/>
<path opacity="0.4" d="M59.5121 155.978L61.2476 156.172L64.2595 35.4419L65.0688 34.8862L65.6607 33.5775L63.7763 33.4809L63.6756 35.5466L59.5121 155.978Z" fill="black"/>
<path d="M66.1882 13.8673L67.5009 25.2344L63.9253 25.0935L66.1882 13.8673Z" fill="#B53B3B"/>
<path opacity="0.2" d="M66.2929 14.7814L67.2996 25.1136L65.3467 25.0371L66.2929 14.7814Z" fill="white"/>
<path d="M64.7548 30.0583H66.752L67.5009 25.2344L63.9253 25.0935L64.7548 30.0583Z" fill="#B53B3B"/>
<path opacity="0.3" d="M64.7548 30.0583L65.2138 27.8557L65.3306 25.2344L63.9253 25.0935L64.7548 30.0583Z" fill="black"/>
<path d="M66.1881 13.8673L67.5008 25.2344L70.7704 24.3727L66.1881 13.8673Z" fill="#B53B3B"/>
<path opacity="0.3" d="M66.7599 15.7558L67.7424 25.0935L71.0402 24.0506L66.7599 15.7558Z" fill="white"/>
<path d="M67.2996 30.0583L67.5009 25.2344L70.7705 24.3727L68.8136 28.9147L67.2996 30.0583Z" fill="#B53B3B"/>
<path d="M66.1882 13.8673L60.5469 24.1231L63.9252 25.0935L66.1882 13.8673Z" fill="#B53B3B"/>
<path d="M64.2634 30.3562L62.7051 29.0758L60.5469 24.1231L63.9252 25.0935L64.2634 30.3562Z" fill="#B53B3B"/>
<path opacity="0.3" d="M64.2634 29.869L62.1656 28.5886L60.5469 24.1231L63.9252 25.0935L64.2634 29.869Z" fill="black"/>
<path d="M66.1882 13.8673L60.5469 24.1231L63.9252 25.0935L66.1882 13.8673Z" stroke="#240046" stroke-miterlimit="10" stroke-linejoin="bevel"/>
<path d="M66.7802 31.077L67.5009 25.2344L63.9253 25.0935L64.6742 30.9683L66.7802 31.077Z" stroke="#240046" stroke-miterlimit="10" stroke-linejoin="bevel"/>
<path d="M66.1881 13.8673L67.5008 25.2344L70.7704 24.3727" stroke="#240046" stroke-miterlimit="10" stroke-linejoin="bevel"/>
<path d="M59.5121 155.978L61.2476 156.172L67.2996 33.2876L63.4058 33.0944L59.5121 155.978Z" stroke="#240046" stroke-miterlimit="10"/>
<path d="M66.1882 13.8673L67.5009 25.2344L63.9253 25.0935L66.1882 13.8673Z" stroke="#240046" stroke-miterlimit="10" stroke-linejoin="bevel"/>
<path d="M66.1882 13.8673L60.5469 24.1231L62.375 28.3228L65.8056 32.2609L68.9746 28.4517L70.7704 24.3727L66.1882 13.8673Z" stroke="#240046" stroke-miterlimit="10"/>
<path d="M63.4058 33.0944L67.2995 33.2877L68.9746 28.4517L66.7801 31.0771L65.6808 27.4249L64.6742 30.9683L62.375 28.3229L63.4058 33.0944Z" fill="#5A189A"/>
<path opacity="0.4" d="M64.1185 30.7106L62.375 28.3228L63.4058 33.0944H65.7131L64.1185 30.7106Z" fill="black"/>
<path d="M63.4058 33.0944L67.2995 33.2877L68.9746 28.4517L66.7801 31.0771L65.6808 27.4249L64.6742 30.9683L62.375 28.3229L63.4058 33.0944Z" stroke="#240046" stroke-miterlimit="10"/>
<path d="M66.5706 70.7592L62.5279 72.7242L61.8273 70.9525L61.6179 72.5631L62.2581 73.0504L62.0286 74.057L61.0059 74.6731L61.3441 78.14L62.1212 79.0782L62.8581 80.5237L66.0713 80.6647L66.8726 78.3091L67.7102 76.5535L66.9693 75.5549L68.2417 74.3469L67.2672 73.5577L68.2417 72.1766L67.7665 71.3189L66.5706 70.7592Z" fill="#FB8671"/>
<path opacity="0.2" d="M66.8727 70.7592L68.1451 71.4961L67.7344 72.7443C67.7344 72.7443 67.1062 72.4182 66.8767 72.4182C65.7372 72.4141 63.7722 73.5698 62.3588 73.002C61.6622 72.7242 65.8821 71.0934 66.3009 70.8881C66.3331 70.872 66.3492 70.8639 66.3774 70.8518C66.6109 70.7512 66.8727 70.7592 66.8727 70.7592Z" fill="white"/>
<path opacity="0.2" d="M67.1141 73.5778L68.1409 74.2704L68.1933 74.9348C68.1933 74.9348 67.1021 75.2328 67.2067 75.0314C67.5611 74.3509 67.1141 73.5778 67.1141 73.5778Z" fill="white"/>
<path opacity="0.3" d="M61.7509 74.6126C61.7509 74.6126 62.7696 75.4341 64.1829 74.8865C64.9158 74.6006 67.0418 74.1979 67.2995 73.9966C67.5532 73.7952 65.9144 73.9966 65.9144 73.9966L61.7509 74.6126Z" fill="black"/>
<path opacity="0.3" d="M60.7885 76.6824C60.7885 76.6824 60.873 77.2743 62.8944 77.1253C66.3452 76.8676 66.615 76.2676 66.8727 76.0663C67.1263 75.865 64.8875 76.1066 64.8875 76.1066L60.7885 76.6824Z" fill="black"/>
<path opacity="0.3" d="M61.7509 78.8285C61.7509 78.8285 62.3267 79.3681 63.8407 79.2392C67.2874 78.9453 65.9144 78.7319 66.168 78.5265C66.4217 78.3252 65.6567 78.2527 65.6567 78.2527L61.7509 78.8285Z" fill="black"/>
<path opacity="0.2" d="M67.5934 75.9817L67.7263 76.9441L67.6095 77.6085L66.5465 78.0192C66.5465 78.0192 67.541 76.9199 66.4901 75.9334C65.9143 75.3938 66.6914 76.0784 67.1787 75.9898C67.2149 75.9817 67.3558 75.9455 67.388 75.9415C67.6619 75.9012 67.5934 75.9817 67.5934 75.9817Z" fill="white"/>
<path opacity="0.2" d="M67.1987 79.3802L66.8725 80.1251L66.49 80.6969L65.3867 80.4271C65.3867 80.4271 66.7074 79.9198 66.1679 78.4138C65.9021 77.6729 66.345 78.7279 66.792 78.9332C66.8242 78.9493 66.9611 78.9977 66.9933 79.0138C67.2309 79.1346 67.1987 79.3802 67.1987 79.3802Z" fill="white"/>
<path d="M66.0512 71.2062C65.9183 71.4115 62.685 72.5309 62.2783 72.6557C61.8716 72.7806 62.1172 73.7067 62.1172 73.7067C62.1172 73.7067 62.2581 74.6248 63.6473 74.2583C65.0365 73.8919 66.7035 73.5738 66.7035 73.5738C66.7035 73.5738 67.5572 73.5094 67.835 73.1027C68.1128 72.696 68.4269 72.233 68.0927 71.5847C67.9639 71.335 67.6216 71.0854 67.2511 70.872C67.0538 70.7592 66.8485 70.6586 66.6673 70.57" stroke="#240046" stroke-width="1.26128" stroke-linecap="round" stroke-linejoin="round"/>
<path d="M62.4152 74.1657C62.4152 74.1657 61.2113 74.3429 61.1992 74.9509C61.1871 75.559 61.2394 76.0099 61.5978 76.1428C61.9562 76.2757 65.1452 76.0502 65.1452 76.0502C65.1452 76.0502 66.4136 75.8368 66.8606 75.6113C67.5894 75.2449 67.678 75.0677 67.9196 74.8462C68.1129 74.6691 68.1209 74.1376 67.682 73.8195C67.0619 73.3725 67.0659 73.5175 67.0659 73.5175" stroke="#240046" stroke-width="1.26128" stroke-linecap="round" stroke-linejoin="round"/>
<path d="M64.0701 76.1871L62.0448 76.3119C62.0448 76.3119 60.9536 76.1991 61.0099 77.1293C61.0663 78.0554 61.2878 78.595 61.9562 78.5225C62.6246 78.45 65.7613 78.3735 65.7613 78.3735C65.7613 78.3735 66.7639 78.446 67.2632 77.8903C67.7625 77.3346 67.5773 76.63 67.5773 76.63C67.5773 76.63 67.6417 75.869 66.5707 75.728" stroke="#240046" stroke-width="1.26128" stroke-linecap="round" stroke-linejoin="round"/>
<path d="M66.3894 78.3252C66.3894 78.3252 66.9814 78.7238 66.8525 79.3923C66.7237 80.0607 66.1639 80.5237 66.1639 80.5237H63.6997C63.6997 80.5237 62.8823 80.56 62.4393 80.0405C61.9924 79.5211 61.9763 78.752 62.5682 78.4782" stroke="#240046" stroke-width="1.26128" stroke-linecap="round" stroke-linejoin="round"/>
<path opacity="0.4" d="M62.2138 71.5927C62.2138 71.5927 62.3628 70.7632 61.7508 70.3364C61.5535 70.1995 61.7145 70.276 61.6783 70.2962C61.3119 70.5055 61.2555 71.5766 61.2917 71.8867C61.4125 72.8973 61.8877 72.9215 61.8877 72.9215C61.8877 72.9215 61.1548 74.1657 61.9441 73.1389C61.9441 73.1389 62.383 72.1806 62.2138 71.5927Z" fill="black"/>
<path d="M62.2139 71.5927C62.2139 71.5927 62.2542 70.5337 61.5415 70.3123C60.6274 70.0304 60.3295 70.3646 59.9912 70.5659C59.6288 70.7834 59.1174 71.1498 59.3349 72.1444C59.5523 73.1389 60.2087 73.598 60.2087 73.598C60.2087 73.598 61.1509 74.1698 61.9441 73.143C61.9441 73.1389 62.383 72.1806 62.2139 71.5927Z" stroke="#240046" stroke-width="1.26128" stroke-linecap="round" stroke-linejoin="round"/>
<path d="M3.09121 108.114C3.09121 108.114 4.15021 122.537 -4.60364 136.268C-4.60364 136.268 -3.21446 150.687 12.0464 153.128C27.3072 155.568 31.5795 155.874 31.5795 155.874C31.5795 155.874 40.6071 137.388 37.6476 66.8494C37.6476 66.8494 23.631 68.6815 12.6947 66.8494C1.75841 65.0173 2.35837 92.7003 2.35837 92.7003L3.09121 108.114Z" fill="#5A189A"/>
<path d="M37.6434 66.8534C37.6434 66.8534 39.0568 94.9712 39.9869 103.661C40.9211 112.35 45.8899 152.012 45.8899 152.012L54.7968 149.061C54.7968 149.061 55.4048 148.779 55.0787 147.088C53.1016 136.844 45.3624 98.9455 45.9101 83.7531C46.5463 66.0521 46.3771 70.6304 46.3771 70.6304C46.3771 70.6304 46.3771 66.3823 45.6161 65.7703C43.4418 64.0187 37.6434 66.8534 37.6434 66.8534Z" fill="#5A189A"/>
<path d="M45.9102 66.1649C46.031 69.2251 46.3772 94.7659 46.3772 94.7659" stroke="#240046" stroke-width="1.26128" stroke-miterlimit="10"/>
<path d="M3.09121 108.114C3.09121 108.114 4.15021 122.537 -4.60364 136.268C-4.60364 136.268 -3.21446 150.687 12.0464 153.128C27.3072 155.568 31.5795 155.874 31.5795 155.874C31.5795 155.874 40.6071 137.388 37.6476 66.8494" stroke="#240046" stroke-width="1.26128" stroke-miterlimit="10"/>
<path d="M34.8451 71.9632C32.8801 70.3767 29.4334 71.3351 29.4334 71.3351L29.4092 72.3578C32.4171 71.4559 34.1445 72.6679 34.1445 72.6679L36.5484 100.081L3.92078 105.215L4.79858 105.529L36.6048 100.701L37.4061 100.556L34.8451 71.9632Z" fill="#B53B3B"/>
<path opacity="0.4" d="M34.8451 71.9632C32.8801 70.3767 29.4334 71.3351 29.4334 71.3351L29.4092 72.3578C32.4171 71.4559 34.1445 72.6679 34.1445 72.6679L36.5484 100.081L3.92078 105.215L4.79858 105.529L36.6048 100.701L37.4061 100.556L34.8451 71.9632Z" fill="black"/>
<path d="M29.4332 72.4464C31.813 73.9805 34.1444 72.6719 34.1444 72.6719L36.5442 99.8676L31.8089 99.5535L29.4332 72.4464Z" fill="#FFFCE8"/>
<path opacity="0.4" d="M34.1444 72.8209C34.088 73.3081 33.0009 72.6719 33.0009 72.6719L35.4289 99.7911L36.5443 99.8676L34.1444 72.8209Z" fill="black"/>
<path d="M29.4332 72.4464C31.813 73.9806 34.1444 72.6719 34.1444 72.6719C34.1444 72.6719 31.8854 71.5002 29.4332 72.4464Z" fill="#240046"/>
<path d="M29.4332 72.4464C31.813 73.9805 34.1444 72.6719 34.1444 72.6719" stroke="#240046" stroke-width="0.630641" stroke-miterlimit="10"/>
<path d="M28.8817 71.3673C32.3406 70.4613 34.978 71.9712 34.978 71.9712L37.4584 100.254C37.4786 100.468 37.3255 100.657 37.1162 100.689L4.7986 105.529L-0.633301 104.728" stroke="#240046" stroke-width="0.630641" stroke-miterlimit="10"/>
<path d="M29.4333 72.4464C32.1593 71.5163 34.1445 72.6719 34.1445 72.6719L36.5443 100.025L2.66443 105.215" stroke="#240046" stroke-width="0.630641" stroke-miterlimit="10"/>
<path d="M29.3287 71.2707L31.8453 99.928L-0.850726 104.828L-2.0426 78.0192L29.3287 71.2707Z" fill="#B53B3B"/>
<path d="M29.3687 71.7257L31.8088 99.5495C31.829 99.7629 31.676 99.9522 31.4666 99.9844L-0.412084 104.76C-0.649654 104.796 -0.863064 104.619 -0.875144 104.377L-2.03078 78.3615C-2.03883 78.1642 -1.90596 77.9911 -1.71268 77.9508L28.8815 71.3673C29.1191 71.3149 29.3486 71.4841 29.3687 71.7257Z" stroke="#240046" stroke-width="0.630641" stroke-miterlimit="10"/>
<path opacity="0.4" d="M2.12494 77.1253L2.3464 104.349L-0.850726 104.828L-2.0426 78.0192L2.12494 77.1253Z" fill="black"/>
<path d="M27.0937 74.2463L29.1594 97.7778C29.1755 97.959 29.0466 98.1201 28.8695 98.1443L1.91132 102.183C1.70999 102.211 1.52879 102.062 1.52074 101.861L0.542275 79.8594C0.534222 79.6943 0.646967 79.5453 0.812058 79.5091L26.683 73.9403C26.8803 73.9 27.0736 74.041 27.0937 74.2463Z" stroke="#E1B554" stroke-width="1.26128" stroke-miterlimit="10"/>
<path d="M-0.54486 64.8603C-0.54486 64.8603 -3.84265 78.3977 -4.61576 82.0821C-5.38887 85.7624 -0.875042 98.1885 -0.875042 98.1885L11.2612 128.895L15.5857 105.014L17.0353 99.8757L18.8231 96.7389C18.8231 96.7389 12.755 93.0183 8.41435 83.7451C7.0453 78.9373 6.60237 80.4714 6.8641 77.3186C7.0453 76.1992 10.1136 70.1512 10.1136 70.1512L11.2692 66.5635L-0.420035 64.9448L-0.54486 64.8603Z" fill="#5A189A"/>
<path opacity="0.2" d="M17.442 98.6435L16.1293 97.7939C8.36196 92.1567 9.50149 89.3421 6.98486 85.0618C4.19039 80.3064 5.35811 77.1253 5.35811 77.1253C6.93654 74.2785 10.1739 69.5473 10.1739 69.5473L7.29088 76.2274L7.13787 79.3158L8.33377 83.4632L12.5778 90.5259L18.9318 96.4007L17.442 98.6435Z" fill="white"/>
<path opacity="0.3" d="M-0.826727 66.5635C-0.826727 66.5635 -0.995844 67.4816 2.55965 67.9849C6.11515 68.4882 15.6018 70.3042 17.9655 70.3848C20.3291 70.4653 33.9108 69.9096 33.9108 69.9096L35.3081 69.7526V68.8828C35.3081 68.8828 46.043 68.3473 47.6013 67.9849V66.028L35.4731 67.091L35.143 67.7876L19.0083 68.2104C19.0083 68.2104 5.4266 65.0938 0.0832868 65.0535C0.0832868 65.0535 -0.701902 64.8884 -0.826727 66.5635Z" fill="black"/>
<path d="M-0.544539 64.8603L-3.96313 78.744C-3.96313 78.744 -5.96435 83.0163 -2.91218 92.0198C0.139985 101.023 11.4266 129.379 11.4266 129.379" stroke="#240046" stroke-width="1.26128" stroke-miterlimit="10"/>
<path d="M11.2733 66.5635C11.2733 66.5635 8.86538 73.3765 7.29097 76.2274C7.29097 76.2274 6.12326 79.4044 8.91772 84.1638C11.4303 88.4441 11.4867 91.001 19.2581 96.6342" stroke="#240046" stroke-width="1.26128" stroke-miterlimit="10"/>
<path d="M21.6499 43.0924C21.6499 43.0924 13.5846 39.3315 16.1093 36.4122C18.6339 33.4929 27.3717 35.1277 27.3717 35.1277C27.3717 35.1277 35.5538 35.1237 36.1537 38.3128C36.9832 42.73 33.5686 46.519 33.5686 46.519L21.6499 43.0924Z" fill="#E1B554"/>
<path d="M19.1895 36.7626C19.1895 36.7626 20.1156 38.3813 20.9652 42.4763C20.9652 42.4763 21.2431 45.6654 20.5384 46.9096C20.4458 47.0747 20.1036 47.3969 20.1036 47.3969C20.1036 47.3969 18.4768 47.8841 19.1895 50.0665C19.9022 52.2529 22.6323 53.1026 22.6323 53.1026C22.6323 53.1026 26.3045 54.4072 29.1594 52.5268C29.8721 52.0556 31.5552 55.7118 32.1069 55.1199C33.7699 53.3442 35.8758 47.8599 35.8758 47.8599C35.8758 47.8599 34.0235 45.6332 33.641 44.844C33.2585 44.0548 33.5685 44.699 32.9645 43.338" fill="#FB8671"/>
<path d="M19.1895 36.7626C19.1895 36.7626 20.1156 38.3813 20.9652 42.4763C20.9652 42.4763 21.2431 45.6654 20.5384 46.9096C20.4458 47.0747 20.1036 47.3969 20.1036 47.3969C20.1036 47.3969 18.4768 47.8841 19.1895 50.0665C19.9022 52.2529 22.6323 53.1026 22.6323 53.1026C22.6323 53.1026 26.3045 54.4072 29.1594 52.5268C29.8721 52.0556 31.7767 55.9735 32.3283 55.3816C33.9913 53.6059 35.8718 47.8599 35.8718 47.8599C35.8718 47.8599 34.0195 45.6332 33.637 44.844C33.2545 44.0548 33.5645 44.699 32.9605 43.338" stroke="#240046" stroke-width="1.26128" stroke-linejoin="round"/>
<path d="M34.9536 27.292C34.9536 27.292 34.7764 23.3499 32.6182 21.9205C30.4599 20.4911 26.8641 20.2132 24.3032 20.5515C22.6644 20.7689 20.8967 21.9648 19.8256 23.1325C18.8311 24.2197 20.4779 26.5833 20.4779 26.5833C18.8633 28.2946 19.8256 29.7523 19.8256 29.7523C19.8256 29.7523 20.9128 31.6971 19.1411 33.1346C19.1411 33.1346 20.027 35.8204 20.1961 36.7465C20.4779 38.2524 21.098 41.9046 22.4631 42.4361C24.3838 43.177 27.0333 43.2776 28.6157 43.3702C29.7915 43.4387 32.0987 43.7125 33.3108 43.2132C34.5228 42.7139 35.3321 39.4201 35.3321 39.4201C35.3321 39.4201 35.8596 35.8163 35.9844 34.7573C36.1092 33.7024 35.3039 31.6206 35.0462 30.6542C34.8811 30.0261 35.1026 29.1322 35.1509 28.504C35.1791 28.198 34.9536 27.292 34.9536 27.292Z" fill="#FB8671"/>
<path d="M31.7364 28.3792C31.7364 28.3792 32.6142 27.6544 33.4799 27.6141C34.3456 27.5698 35.3201 27.9966 35.3201 27.9966C35.3201 27.9966 35.614 28.194 35.5375 28.5684C35.461 28.9429 34.8691 28.7094 34.8691 28.7094C34.8691 28.7094 33.5323 28.4355 32.5699 28.8946C31.6035 29.3536 31.7364 28.3792 31.7364 28.3792Z" fill="#240046"/>
<path d="M35.0021 29.8408L37.2731 28.81L37.3939 29.0355L35.0021 30.0583V29.8408Z" fill="#E1B554" stroke="#E1B554" stroke-width="0.630641" stroke-miterlimit="10"/>
<path d="M19.1896 33.1346C19.1896 33.1346 20.0754 35.8204 20.2445 36.7465C20.5264 38.2524 21.1465 41.9046 22.5115 42.4361C24.4322 43.177 27.0817 43.2776 28.6642 43.3702C29.84 43.4387 32.1472 43.7125 33.3592 43.2132C34.5712 42.7139 35.3806 39.4201 35.3806 39.4201C35.3806 39.4201 35.9081 35.8163 36.0329 34.7573L35.6987 35.5345C35.3041 36.4123 34.8893 36.521 34.8893 36.521C34.8893 36.521 34.7363 35.9935 33.7055 35.5143C32.6747 35.0311 32.9566 34.5641 32.9566 34.5641L31.664 34.4755L30.754 34.6446C30.6292 35.5707 30.0654 35.7318 30.0654 35.7318C28.0924 36.1908 27.5247 38.031 27.5247 38.031C27.5247 38.031 26.4496 38.5786 23.7759 37.0243C21.1022 35.47 20.2687 32.0676 20.2687 32.0676L19.1896 33.1346Z" fill="#240046"/>
<path d="M29.0345 38.1759C29.0345 38.1759 31.2009 36.9559 31.5633 36.8794C31.9257 36.8029 32.2639 36.9679 32.2639 36.9679C32.2639 36.9679 32.4612 36.9881 32.7149 36.8029C32.9685 36.6176 33.5927 37.0887 33.7014 37.1975C33.8222 37.3183 33.8987 37.5921 34.0638 37.7853C34.0638 37.7853 33.339 38.5262 32.7833 38.6551C32.2276 38.7839 30.3754 38.8121 29.6265 38.5585C29.4573 38.5021 29.0345 38.1759 29.0345 38.1759Z" fill="#FB7F71"/>
<path opacity="0.3" d="M33.778 37.4632C33.6693 37.3545 32.9364 36.8391 32.6828 37.0243C32.4291 37.2096 32.2318 37.1894 32.2318 37.1894C32.2318 37.1894 31.8935 37.0243 31.5311 37.1008C31.3942 37.129 30.9553 37.3183 30.4238 37.5075C30.4238 37.5075 31.1365 36.9961 31.6721 36.9156C32.2076 36.8351 32.264 37.0243 32.264 37.0243L32.8519 36.819C32.8519 36.819 33.476 36.968 33.625 37.2136C33.778 37.4632 33.778 37.4632 33.778 37.4632Z" fill="white"/>
<path opacity="0.3" d="M29.1676 38.2766C29.1676 38.2766 29.4213 38.3007 29.5904 38.337C30.138 38.4457 32.6345 38.5262 33.1942 38.3934C33.1942 38.3934 33.3311 38.7839 31.5151 38.6833C29.7031 38.5826 29.8924 38.5826 29.8924 38.5826L29.1676 38.2766Z" fill="black"/>
<path d="M29.0345 38.1759C29.0345 38.1759 31.2009 36.9559 31.5633 36.8794C31.9257 36.8029 32.2639 36.9679 32.2639 36.9679C32.2639 36.9679 32.4612 36.9881 32.7149 36.8029C32.9685 36.6176 33.5927 37.0887 33.7014 37.1975C33.8222 37.3183 33.8987 37.5921 34.0638 37.7853C34.0638 37.7853 33.339 38.5262 32.7833 38.6551C32.2276 38.7839 30.3754 38.8121 29.6265 38.5585C29.4573 38.5021 29.0345 38.1759 29.0345 38.1759Z" stroke="#9E5346" stroke-width="0.31532" stroke-miterlimit="10" stroke-linecap="round" stroke-linejoin="round"/>
<path d="M29.1676 38.2081C29.1676 38.2081 30.4601 37.8538 31.5272 37.8538C32.6023 37.8538 32.8439 37.6887 32.8439 37.6887C32.8439 37.6887 33.1419 37.5196 33.4358 37.6605C33.7298 37.8014 33.8707 37.729 33.8707 37.729" stroke="#9E5346" stroke-width="0.31532" stroke-miterlimit="10" stroke-linecap="round"/>
<path d="M34.7162 30.0985C34.7162 30.0985 34.6357 28.7617 33.0935 29.7523L32.4734 30.1348L33.1942 30.5455C33.1942 30.5455 34.072 30.9844 34.4424 30.6381C34.4424 30.6381 34.6317 30.3683 34.7162 30.0985Z" fill="#FFE9E9"/>
<path d="M33.939 30.6381C34.2014 30.6381 34.4141 30.3478 34.4141 29.9898C34.4141 29.6318 34.2014 29.3415 33.939 29.3415C33.6766 29.3415 33.4639 29.6318 33.4639 29.9898C33.4639 30.3478 33.6766 30.6381 33.939 30.6381Z" fill="#37444C"/>
<path d="M33.9391 30.3321C34.0725 30.3321 34.1807 30.1824 34.1807 29.9979C34.1807 29.8133 34.0725 29.6637 33.9391 29.6637C33.8057 29.6637 33.6975 29.8133 33.6975 29.9979C33.6975 30.1824 33.8057 30.3321 33.9391 30.3321Z" fill="black"/>
<path d="M34.6397 30.0985C34.6397 30.0985 34.6357 28.7617 33.0935 29.7523L32.4734 30.1348L33.2384 30.5254C33.2384 30.5254 34.084 30.9562 34.4142 30.5737C34.5149 30.4569 34.5511 30.3683 34.6397 30.0985Z" stroke="#C56858" stroke-width="0.283788" stroke-miterlimit="10"/>
<path d="M34.096 29.8851C34.1427 29.8851 34.1806 29.8328 34.1806 29.7683C34.1806 29.7039 34.1427 29.6516 34.096 29.6516C34.0493 29.6516 34.0115 29.7039 34.0115 29.7683C34.0115 29.8328 34.0493 29.8851 34.096 29.8851Z" fill="#9BB0CF"/>
<path d="M17.0192 35.6714C17.0192 35.6714 17.1641 36.976 17.8044 38.0833L18.1547 37.584C18.1547 37.584 18.7667 39.843 20.4055 40.1329L19.8821 36.07L17.0192 35.6714Z" fill="#240046" stroke="#240046" stroke-width="0.630641" stroke-linejoin="round"/>
<path d="M16.1939 31.6609C16.1939 31.6609 14.9416 28.9067 15.6704 26.0719C16.3992 23.2372 17.4824 21.8359 17.4824 21.8359L18.4166 21.2803C18.4166 21.2803 17.6877 21.0749 17.3656 21.2803C17.0435 21.4856 18.3602 18.7073 21.1627 19.1462C21.1627 19.1462 20.3372 18.4173 19.1856 18.7073C19.1856 18.7073 20.2285 17.1288 22.0687 18.2402C22.0687 18.2402 21.3962 17.4791 20.8124 17.306C20.8124 17.306 21.7747 17.161 22.5962 17.9503C22.5962 17.9503 22.5358 16.8389 22.3344 16.8389C22.3344 16.8389 23.7679 16.5772 24.0296 17.5999C24.0296 17.5999 24.0578 16.7825 23.5022 16.4604C23.5022 16.4604 24.0296 15.643 25.1974 17.6885L24.6135 16.2993C24.6135 16.2993 25.4913 16.0215 26.0752 17.2778C26.0752 17.2778 26.2201 16.7866 25.8698 16.2712C25.8698 16.2712 26.7396 15.8725 27.6174 17.3664C27.6174 17.3664 28.3502 17.8939 29.228 17.5999C30.1058 17.306 31.8292 17.3382 33.1137 18.2442C33.1137 18.2442 32.2037 18.0107 31.797 18.4214C31.797 18.4214 33.2143 18.8321 33.8063 19.3555C34.3982 19.883 34.8532 20.8736 35.0948 21.3407C35.3323 21.8077 34.6035 21.6024 34.6035 21.6024C34.6035 21.6024 35.1954 22.5406 33.766 23.0802L33.6371 22.8909C33.3432 22.4359 33.1097 22.2185 32.6587 21.9205C30.5004 20.491 26.9046 20.2132 24.3437 20.5514C22.7049 20.7689 20.9372 21.9648 19.8661 23.1325C18.8716 24.2197 20.5184 26.5833 20.5184 26.5833C18.9038 28.2946 19.8661 29.7522 19.8661 29.7522C19.8661 29.7522 20.9533 31.6971 19.1816 33.1346L16.1939 31.6609Z" fill="#240046"/>
<path d="M28.2494 30.3321C28.04 30.465 27.6172 30.6985 27.0132 30.767C26.4092 30.8354 24.8268 30.3321 24.8268 30.3321C24.8268 30.3321 25.3945 29.5107 26.4978 29.2207C27.6011 28.9268 28.2897 29.9979 28.2897 29.9979L28.4225 30.2032C28.4185 30.1992 28.2897 30.3039 28.2494 30.3321Z" fill="#FFE9E9"/>
<path d="M27.0132 30.618C27.4202 30.618 27.7501 30.2881 27.7501 29.8811C27.7501 29.4741 27.4202 29.1442 27.0132 29.1442C26.6063 29.1442 26.2764 29.4741 26.2764 29.8811C26.2764 30.2881 26.6063 30.618 27.0132 30.618Z" fill="#37444C"/>
<path d="M27.0133 30.2395C27.2112 30.2395 27.3716 30.079 27.3716 29.8811C27.3716 29.6832 27.2112 29.5228 27.0133 29.5228C26.8154 29.5228 26.6549 29.6832 26.6549 29.8811C26.6549 30.079 26.8154 30.2395 27.0133 30.2395Z" fill="black"/>
<path d="M27.2669 29.7563C27.3136 29.7563 27.3515 29.704 27.3515 29.6395C27.3515 29.575 27.3136 29.5228 27.2669 29.5228C27.2202 29.5228 27.1824 29.575 27.1824 29.6395C27.1824 29.704 27.2202 29.7563 27.2669 29.7563Z" fill="#9BB0CF"/>
<path d="M28.2494 30.3321C28.04 30.465 27.6172 30.6985 27.0132 30.767C26.4092 30.8354 24.8268 30.3321 24.8268 30.3321C24.8268 30.3321 25.3945 29.5107 26.4978 29.2207C27.6011 28.9268 28.2897 29.9979 28.2897 29.9979L28.4225 30.2032C28.4185 30.1992 28.2897 30.3039 28.2494 30.3321Z" stroke="#C56858" stroke-width="0.283788" stroke-miterlimit="10"/>
<path d="M24.6255 29.8167C24.6255 29.8167 25.1852 28.8422 26.4133 28.7899C27.6374 28.7375 27.9756 29.0476 27.9756 29.0476" stroke="#C56858" stroke-width="0.31532" stroke-miterlimit="10" stroke-linecap="round" stroke-linejoin="round"/>
<path d="M24.416 29.5227C24.416 29.5227 24.8992 29.1563 25.4307 29.0637" stroke="#C56858" stroke-width="0.31532" stroke-miterlimit="10" stroke-linecap="round" stroke-linejoin="round"/>
<path d="M33.8383 29.0959C33.8383 29.0959 33.0733 29.1321 32.5901 29.6314" stroke="#C56858" stroke-width="0.31532" stroke-miterlimit="10" stroke-linecap="round" stroke-linejoin="round"/>
<path d="M30.3795 28.1416C29.5339 27.6785 28.8816 26.9819 27.1502 27.0222C25.4187 27.0625 25.4348 27.1309 24.8751 27.3121C24.3839 27.4691 23.7356 27.6302 23.0148 28.2624C22.2981 28.8946 25.012 28.2865 26.6186 28.2382C27.3354 28.2141 28.8011 28.6369 29.8923 28.8181C30.5164 28.9227 30.5647 28.2422 30.3795 28.1416Z" fill="#240046"/>
<path opacity="0.2" d="M19.8861 23.4667C19.9344 23.1406 20.9773 22.3594 20.9773 22.3594C20.9773 22.3594 21.992 21.3125 24.3637 20.6763C26.7354 20.0401 27.2025 21.083 29.4815 20.8494C31.7606 20.6159 33.4034 22.5809 33.943 23.7526C34.4826 24.9243 35.159 28.7134 34.9416 29.4382C34.7242 30.163 35.6302 33.5775 35.6302 33.5775C35.2315 32.6152 34.555 31.528 34.2853 30.8918C34.0316 30.2918 34.1242 29.3778 34.0799 28.7496C34.1 29.0718 34.1765 28.955 33.8383 27.4933C33.8383 27.4933 32.9041 24.1633 30.5607 23.06C28.2172 21.9567 24.6174 22.1983 22.137 22.899C21.3357 23.1285 20.7277 23.056 20.015 23.6439L19.8861 23.4667Z" fill="white"/>
<path opacity="0.2" d="M20.5344 18.4777C21.1425 18.3851 21.5532 18.816 21.8995 18.7757C22.0404 18.7596 22.3303 18.4053 22.3303 18.4053L22.1974 17.91L21.0861 17.3664L20.007 18.3328L20.5344 18.4777Z" fill="white"/>
<path opacity="0.2" d="M34.0114 21.9406C34.0114 21.9406 33.5886 20.0844 31.0075 19.2388C31.0075 19.2388 30.4398 19.0938 30.7297 18.7314C30.7297 18.7314 29.3808 19.0455 28.0762 18.8764C27.8708 18.8482 27.7742 18.6952 27.0131 18.514C26.4132 18.373 25.6159 18.5422 25.0401 18.4254C25.02 18.4214 23.82 18.3489 23.3529 18.1878C22.8899 18.0308 23.0026 17.4993 22.914 17.4308C22.4389 17.0563 23.2321 17.004 23.1476 16.9436C23.0308 16.8631 24.2187 17.9382 24.1583 17.7892C23.8764 17.0926 25.2777 16.7745 25.1327 16.545C24.9797 16.3074 26.0669 17.5073 26.0669 17.5073L26.385 16.545L28.0117 17.765L31.2532 17.7167L31.8088 17.9503L33.9027 19.7864L34.6919 21.2883L34.2127 22.6493L34.0114 21.9406Z" fill="white"/>
<path d="M16.1939 31.6609C16.1939 31.6609 14.9416 28.9067 15.6704 26.0719C16.3992 23.2372 17.4824 21.8359 17.4824 21.8359L18.4166 21.2803C18.4166 21.2803 17.6877 21.0749 17.3656 21.2803C17.0435 21.4856 18.3602 18.7073 21.1627 19.1462C21.1627 19.1462 20.3372 18.4173 19.1856 18.7073C19.1856 18.7073 20.2285 17.1288 22.0687 18.2402C22.0687 18.2402 21.3962 17.4791 20.8124 17.306C20.8124 17.306 21.7747 17.161 22.5962 17.9503C22.5962 17.9503 22.5358 16.8389 22.3344 16.8389C22.3344 16.8389 23.7679 16.5772 24.0296 17.5999C24.0296 17.5999 24.0578 16.7825 23.5022 16.4604C23.5022 16.4604 24.0296 15.643 25.1974 17.6885L24.6135 16.2993C24.6135 16.2993 25.4913 16.0215 26.0752 17.2778C26.0752 17.2778 26.2201 16.7866 25.8698 16.2712C25.8698 16.2712 26.7396 15.8725 27.6174 17.3664C27.6174 17.3664 28.3502 17.8939 29.228 17.5999C30.1058 17.306 31.8292 17.3382 33.1137 18.2442C33.1137 18.2442 32.2037 18.0107 31.797 18.4214C31.797 18.4214 33.2143 18.8321 33.8063 19.3555C34.3982 19.883 34.8532 20.8736 35.0948 21.3407C35.3323 21.8077 34.6035 21.6024 34.6035 21.6024C34.6035 21.6024 35.1954 22.5406 33.766 23.0802L33.6371 22.8909C33.3432 22.4359 33.1097 22.2185 32.6587 21.9205C30.5004 20.491 26.9046 20.2132 24.3437 20.5514C22.7049 20.7689 20.9372 21.9648 19.8661 23.1325C18.8716 24.2197 20.5184 26.5833 20.5184 26.5833C18.9038 28.2946 19.8661 29.7522 19.8661 29.7522C19.8661 29.7522 20.9533 31.6971 19.1816 33.1346L16.1939 31.6609Z" stroke="#240046" stroke-width="1.26128" stroke-linejoin="round"/>
<path d="M35.0021 27.292C35.0021 27.292 34.8249 23.3499 32.6666 21.9205C30.5084 20.4911 26.9126 20.2132 24.3517 20.5515C22.7129 20.7689 20.9452 21.9648 19.8741 23.1325C18.8795 24.2197 20.5264 26.5833 20.5264 26.5833C18.9117 28.2946 19.8741 29.7523 19.8741 29.7523C19.8741 29.7523 20.9613 31.6971 19.1896 33.1346C19.1896 33.1346 20.0754 35.8204 20.2445 36.7465C20.5264 38.2524 21.1465 41.9046 22.5115 42.4361C24.4322 43.177 27.0817 43.2776 28.6642 43.3702C29.84 43.4387 32.1472 43.7125 33.3592 43.2132C34.5712 42.7139 35.3806 39.4201 35.3806 39.4201C35.3806 39.4201 35.9081 35.8163 36.0329 34.7573C36.1577 33.7024 35.3524 31.6206 35.0947 30.6542C34.9296 30.0261 35.1511 29.1322 35.1994 28.504C35.2276 28.198 35.0021 27.292 35.0021 27.292Z" stroke="#240046" stroke-width="1.26128" stroke-linejoin="round"/>
<path opacity="0.4" d="M19.7855 31.3548C19.7855 31.3548 20.8445 35.6834 21.0177 36.6096C21.2995 38.1155 22.1491 41.067 23.5182 41.5945C25.4389 42.3354 28.036 42.7542 29.6104 42.9394C30.3111 43.0239 32.1633 43.3702 33.1982 43.3501C33.1982 43.3501 27.6092 44.1594 22.58 42.6857C17.5507 41.212 22.58 42.6857 22.58 42.6857C22.58 42.6857 21.9116 42.9313 21.3317 41.0388C20.7519 39.1463 19.1936 32.591 19.1936 32.591C19.1936 32.591 19.5077 32.2326 19.5641 32.0998C19.7332 31.7776 19.7855 31.3548 19.7855 31.3548Z" fill="black"/>
<path opacity="0.2" d="M24.7463 28.0651C24.8993 27.892 25.0966 27.6705 25.5033 27.5336C25.914 27.3927 26.3811 27.2316 27.4803 27.3202C28.5836 27.4128 29.2037 27.594 29.8802 28.2705C30.5567 28.9469 30.3352 30.0985 30.3352 30.0985C30.3352 30.0985 30.1379 31.1092 29.8077 31.6689C29.4735 32.2286 29.2923 32.4863 28.8574 32.74C28.4185 32.9977 27.8749 33.0742 27.8749 33.0742C27.8749 33.0742 27.2629 33.2514 26.2885 32.9977C25.1207 32.6957 24.706 31.7132 24.706 31.7132C24.706 31.7132 24.2188 30.8354 24.1745 30.0663C24.1302 29.2973 24.1423 28.9389 24.3396 28.5886C24.5369 28.2383 24.5852 28.2181 24.6899 28.1215C24.706 28.1094 24.7342 28.0772 24.7463 28.0651Z" fill="white"/>
<path d="M24.7221 28.1134C24.7221 28.1134 25.0966 27.6705 25.5033 27.5296C25.914 27.3886 26.3811 27.2276 27.4803 27.3162C28.5836 27.4088 29.2037 27.59 29.8802 28.2664C30.5567 28.9429 30.3352 30.0945 30.3352 30.0945C30.3352 30.0945 30.1379 31.1052 29.8077 31.6649C29.4735 32.2246 29.2923 32.4823 28.8574 32.736C28.4185 32.9937 27.8749 33.0702 27.8749 33.0702C27.8749 33.0702 27.2629 33.2474 26.2885 32.9937C25.1207 32.6917 24.706 31.7092 24.706 31.7092C24.706 31.7092 24.2188 30.8314 24.1745 30.0623C24.1302 29.2932 24.1423 28.9349 24.3396 28.5845C24.5369 28.2342 24.706 28.1255 24.706 28.1255L24.7221 28.1134Z" stroke="#E1B554" stroke-width="0.630641" stroke-miterlimit="10"/>
<path d="M30.2546 28.8825L30.8747 28.5402C30.8747 28.5402 31.978 28.3832 32.4129 28.7094C32.4129 28.7094 32.4612 29.1764 32.6626 29.3174" stroke="#E1B554" stroke-width="0.31532" stroke-miterlimit="10"/>
<path d="M37.2731 28.657L37.9455 28.7255L37.9898 29.0798H37.5388L37.2731 28.657Z" fill="#E1B554" stroke="#E1B554" stroke-width="0.630641" stroke-miterlimit="10"/>
<path opacity="0.2" d="M32.6627 29.7925C32.6627 29.7925 32.5822 28.7537 33.154 28.2987C33.7257 27.8437 34.2049 27.739 34.2049 27.739C34.2049 27.739 34.974 27.5658 35.6142 27.739C36.2544 27.9121 36.6853 28.1094 37.0034 28.4396C37.1806 28.6208 37.2249 28.7215 37.3255 28.9067C37.4584 29.1563 37.5228 29.5066 37.5349 30.0221C37.547 30.5334 37.4785 30.9079 37.4785 30.9079C37.4785 30.9079 37.3738 31.5723 37.0356 32.1562C36.6974 32.74 36.1981 32.9252 36.1981 32.9252C36.1981 32.9252 35.6827 33.1507 35.1028 33.1306C34.523 33.1105 33.9512 32.7159 33.6814 32.4219C33.4358 32.1521 33.1459 31.6408 32.9687 31.1495C32.7916 30.6663 32.6627 29.7925 32.6627 29.7925Z" fill="white"/>
<path opacity="0.2" d="M33.8384 28.4073C33.8625 28.3026 34.1927 28.1577 34.1927 28.1577C34.1927 28.1577 34.3457 28.0933 34.5914 28.0369C34.833 27.9805 35.1551 28.0329 35.1551 28.0329C35.1551 28.0329 35.4853 28.0812 35.8436 28.1899C36.202 28.2986 36.5282 28.4798 36.6771 28.5885C36.814 28.6852 36.963 28.8422 37.0395 28.9711C37.1201 29.0999 37.2167 29.3496 37.1442 29.3012C36.7738 29.0435 36.4839 28.8905 36.2463 28.7858C36.0409 28.6932 35.7752 28.5322 35.3685 28.4516C34.994 28.3711 33.8384 28.4073 33.8384 28.4073Z" fill="white"/>
<path d="M23.9651 28.5483L24.5047 28.5403C24.5731 28.3349 24.8509 28.0692 24.8509 28.0692H24.6335C24.0698 28.0812 23.7919 28.1255 23.5302 28.1014C23.2685 28.0772 23.0712 28.2342 23.0712 28.2342L17.9252 31.0287L18.0178 31.1777L22.7974 28.806C22.7974 28.806 22.9101 28.8463 23.0712 28.8221C23.2322 28.798 23.3691 28.7335 23.3691 28.7335C23.3691 28.7335 23.4577 28.6369 23.6107 28.6127C23.7678 28.5846 23.9651 28.5483 23.9651 28.5483Z" fill="#E1B554" stroke="#E1B554" stroke-width="0.630641" stroke-miterlimit="10"/>
<path opacity="0.4" d="M19.8742 31.3992C19.8742 31.3992 18.0823 30.5334 17.5629 29.9979C16.5844 28.9912 15.9402 27.3282 16.673 24.4935C16.7576 24.1714 16.8462 23.8654 16.9348 23.5795C16.9348 23.5795 14.7362 25.8022 16.0811 30.9482L18.2434 31.1737L19.3507 33.1306L19.8742 31.3992Z" fill="black"/>
<path d="M32.6627 29.7925C32.6627 29.7925 32.5822 28.7537 33.154 28.2987C33.7257 27.8437 34.2049 27.739 34.2049 27.739C34.2049 27.739 34.974 27.5658 35.6142 27.739C36.2544 27.9121 36.6853 28.1094 37.0034 28.4396C37.1806 28.6208 37.2249 28.7215 37.3255 28.9067C37.4584 29.1563 37.5228 29.5066 37.5349 30.0221C37.547 30.5334 37.4785 30.9079 37.4785 30.9079C37.4785 30.9079 37.3738 31.5723 37.0356 32.1562C36.6974 32.74 36.1981 32.9252 36.1981 32.9252C36.1981 32.9252 35.6827 33.1507 35.1028 33.1306C34.523 33.1105 33.9512 32.7159 33.6814 32.4219C33.4358 32.1521 33.1459 31.6408 32.9687 31.1495C32.7916 30.6663 32.6627 29.7925 32.6627 29.7925Z" stroke="#E1B554" stroke-width="0.630641" stroke-miterlimit="10"/>
<path d="M18.2434 31.3669C18.2434 31.3669 17.9374 31.2985 17.2045 31.1777C16.4717 31.0569 16.065 31.8582 16.065 31.8582C16.065 31.8582 15.465 33.042 16.065 33.9923C16.665 34.9426 16.7817 35.8606 18.0662 36.521C19.3507 37.1814 20.1319 36.2593 20.1319 36.2593C20.1319 36.2593 18.7548 31.9146 18.2434 31.3669Z" fill="#FB8671"/>
<path opacity="0.3" d="M18.2998 31.379C18.2998 31.379 17.9938 31.3105 17.2609 31.1897C16.5281 31.0689 16.1214 31.8702 16.1214 31.8702C16.1214 31.8702 16.0006 31.8139 16.5965 32.7641C17.1925 33.7144 17.3133 34.6325 18.5977 35.2929C19.8822 35.9492 19.6648 34.8459 19.6648 34.8459C19.6648 34.8459 18.8112 31.9266 18.2998 31.379Z" fill="black"/>
<path d="M18.2434 31.3669C18.2434 31.3669 17.9374 31.2985 17.2045 31.1777C16.4717 31.0569 16.065 31.8582 16.065 31.8582C16.065 31.8582 15.465 33.042 16.065 33.9923C16.665 34.9426 16.7817 35.8606 18.0662 36.521C19.3507 37.1814 19.8138 36.517 19.8138 36.517C19.8138 36.517 18.7548 31.9146 18.2434 31.3669Z" stroke="#240046" stroke-width="1.26128" stroke-linejoin="round"/>
<path d="M31.6922 29.4865C31.6922 29.4865 32.1512 29.8207 32.3686 30.6985C32.5861 31.5723 33.637 32.2286 33.79 32.8447C33.943 33.4568 33.6813 33.7426 33.5484 33.9601C33.4156 34.1775 32.6062 34.552 32.6062 34.552C32.6062 34.552 31.7969 34.0487 30.6573 34.552C29.5178 35.0553 29.7393 33.5252 29.848 33.4125" fill="#FB8671"/>
<path opacity="0.2" d="M31.5029 29.5308C31.5029 29.5308 31.8895 30.4328 32.1109 31.3065C32.3284 32.1803 33.3793 32.8367 33.5323 33.4527C33.5565 33.5494 33.5726 33.642 33.5766 33.7225C33.6048 34.1534 33.8102 32.6595 33.7015 32.8447L32.5297 31.2703L32.0264 30.0583L31.5029 29.5308Z" fill="white"/>
<path d="M29.985 33.5494C29.8762 33.6581 29.9568 34.5158 31.0963 34.0124C32.2358 33.5091 33.0452 34.0124 33.0452 34.0124C33.0452 34.0124 33.3311 33.8796 33.5888 33.7306C33.5888 33.7306 33.5968 34.4594 32.6023 34.5359C31.6077 34.6164 31.6681 34.3587 31.6681 34.3587L30.0896 34.7775C30.0896 34.7775 29.6105 34.4473 29.8078 33.9399C30.0011 33.4326 29.8521 33.4688 29.8521 33.4688L29.985 33.5494Z" fill="#C56858"/>
<path d="M31.6922 29.4865C31.6922 29.4865 32.1512 29.8207 32.3686 30.6985C32.5861 31.5723 33.637 32.2286 33.79 32.8447C33.943 33.4568 33.6813 33.7426 33.5484 33.9601C33.4156 34.1775 32.6062 34.552 32.6062 34.552C32.6062 34.552 31.7969 34.0487 30.6573 34.552C29.5178 35.0553 29.7393 33.5252 29.848 33.4125" stroke="#C56858" stroke-width="0.630641" stroke-linecap="round" stroke-linejoin="round"/>
<path opacity="0.3" d="M20.9089 42.2106L21.0378 41.0831L22.7209 42.6938C22.7209 42.6938 28.4186 43.7045 32.4734 43.6561H32.9727L34.0961 45.9795L34.6397 46.3056C34.2894 47.1593 33.9431 47.7995 33.3632 48.0411C32.1512 48.5404 29.844 48.2666 28.6682 48.1981C27.0858 48.1055 24.4322 48.0089 22.5156 47.264C21.1465 46.7365 21.1868 43.7165 20.9089 42.2106Z" fill="black"/>
<path opacity="0.2" d="M26.3087 28.2504C26.3329 28.1457 26.6631 28.0007 26.6631 28.0007C26.6631 28.0007 26.8161 27.9363 27.0617 27.8799C27.3033 27.8235 27.6254 27.8759 27.6254 27.8759C27.6254 27.8759 27.9556 27.9242 28.314 28.0329C28.6723 28.1416 28.9985 28.3228 29.1475 28.4316C29.2844 28.5282 29.4334 28.6852 29.5099 28.8141C29.5904 28.9429 29.687 29.1926 29.6146 29.1443C29.2441 28.8866 28.9542 28.7335 28.7166 28.6289C28.5113 28.5362 28.2455 28.3752 27.8388 28.2946C27.4603 28.2181 26.3087 28.2504 26.3087 28.2504Z" fill="white"/>
<path d="M-3.75012 65.6979C-3.52061 63.5315 9.15919 66.0562 15.5454 67.4655C18.0177 68.0132 20.5505 68.2266 23.0792 68.1058L35.312 67.53L34.9295 62.8752L34.1685 61.9612C34.1685 61.9612 20.0431 46.0923 15.8071 38.1558L17.4822 41.5704L17.4258 42.412L13.1496 46.5231L3.59844 52.1403L1.64151 54.1052L-3.75012 65.6979Z" fill="#5A189A"/>
<path opacity="0.3" d="M1.70204 54.6971L-0.826674 63.7932C0.965167 63.8416 9.56601 64.9489 15.5495 67.4695L-0.242815 64.8764L-3.44397 65.0536L1.70204 54.6971Z" fill="black"/>
<path d="M34.5511 45.2708C34.5511 45.2708 38.0623 50.5135 41.8755 52.8811C41.8755 52.8811 43.8606 53.2636 45.0042 55.0917C46.1477 56.9238 47.5973 59.976 49.5059 64.5502C49.5059 64.5502 51.177 66.4588 35.5376 66.9139L34.9336 62.8711L33.2747 60.9384C33.2747 60.9384 33.4075 62.098 35.3161 57.8701C37.2207 53.6462 34.5511 45.2708 34.5511 45.2708Z" fill="#5A189A"/>
<path d="M18.501 41.9327C18.501 41.9327 26.3649 44.538 31.7324 55.2971C31.7324 55.2971 31.8975 47.5901 34.2168 45.7862C36.5362 43.9823 35.9885 53.1509 35.9885 53.1509C35.9885 53.1509 35.8959 58.7962 34.1081 60.0122C32.3163 61.2283 28.0159 54.7736 28.0159 54.7736L18.501 41.9327Z" fill="#9D4EDD"/>
<path opacity="0.3" d="M31.8008 56.0944C31.8008 56.0944 30.166 47.719 18.3036 41.4013L16.395 43.3179C16.395 43.3179 25.9502 46.5956 32.2679 57.0124" fill="black"/>
<path opacity="0.2" d="M32.9725 48.4639C32.9725 48.4639 33.2866 48.8908 33.8383 49.5471C34.0436 49.7927 34.2812 50.0706 34.551 50.3685C35.8113 51.7738 37.7119 53.6663 39.85 54.9911C39.85 54.9911 41.8351 55.3736 42.9787 57.2017C44.086 58.9774 45.1933 61.4256 47.0133 65.7703L49.3326 64.7314C49.3326 64.7314 45.8496 55.3414 43.6471 53.9723C41.4445 52.6033 38.9319 50.8678 38.9319 50.8678L34.6114 45.5728L33.7537 46.3419L32.9725 48.4639Z" fill="white"/>
<path d="M33.1337 60.7813C33.1337 60.7813 37.6556 59.0096 35.5134 46.5996" stroke="#240046" stroke-width="1.26128" stroke-miterlimit="10"/>
<path d="M-3.75012 65.6978C-3.52061 63.5315 9.15919 66.0562 15.5454 67.4655C18.0177 68.0131 20.5505 68.2266 23.0792 68.1058L35.312 67.5299L34.9295 62.8752L34.1685 61.9611C34.1685 61.9611 22.3705 48.5485 17.1117 40.2094" stroke="#240046" stroke-width="1.26128" stroke-miterlimit="10"/>
<path d="M34.551 45.2708C34.551 45.2708 38.0622 50.5135 41.8754 52.8811C41.8754 52.8811 43.8605 53.2636 45.0041 55.0917C46.1477 56.9238 47.5972 59.976 49.5059 64.5502C49.5059 64.5502 51.0279 66.4588 35.3886 66.9139" stroke="#240046" stroke-width="1.26128" stroke-miterlimit="10"/>
<path d="M17.7077 41.4053C17.7077 41.4053 17.0031 43.9541 9.67866 48.6854C9.67866 48.6854 3.26829 51.202 1.97172 54.1012C0.675156 57.0003 -3.75009 65.6978 -3.75009 65.6978C-3.75009 65.6978 -5.04666 66.9944 -1.23346 67.9849" stroke="#240046" stroke-width="1.26128" stroke-miterlimit="10"/>
<path d="M16.697 35.5627C16.697 35.5627 12.6543 37.8498 20.0552 42.4281C27.4561 47.0063 30.7337 52.8811 30.7337 52.8811C30.7337 52.8811 31.2934 53.771 31.5229 54.6126C31.7525 55.4501 33.6852 61.4498 33.6852 61.4498" stroke="#240046" stroke-miterlimit="10"/>
<path d="M33.9633 59.7063C33.3553 57.8379 32.3809 54.8099 32.2601 54.2542C32.0829 53.4409 32.1071 52.8812 32.1071 52.8812C32.1071 50.6706 33.1781 46.9298 34.8532 44.8722C36.5323 42.8106 36.6088 40.2175 36.1538 38.3089C36.0491 37.8861 35.8881 37.5237 35.6988 37.2177" stroke="#240046" stroke-miterlimit="10" stroke-linecap="round"/>
</g>
<path fill-rule="evenodd" clip-rule="evenodd" d="M48.8058 12.3793V12.3795H48.8057C48.3575 12.3795 47.9941 12.7428 47.9941 13.191C47.9941 13.6369 48.3537 13.9988 48.7988 14.0026L48.8057 14.0025C50.1503 14.0025 51.2403 15.0926 51.2403 16.4372V16.4372H51.2405C51.2405 16.8854 51.6039 17.2487 52.0521 17.2487C52.4954 17.2487 52.8558 16.8932 52.8635 16.4517C52.8635 16.4468 52.8634 16.442 52.8634 16.4372C52.8634 15.0926 53.9535 14.0025 55.2981 14.0025C55.3004 14.0025 55.3028 14.0025 55.3051 14.0026C55.7501 13.9988 56.1098 13.6369 56.1098 13.191C56.1098 12.7428 55.7464 12.3795 55.2982 12.3795V12.3794C53.9536 12.3794 52.8636 11.2894 52.8636 9.94478H52.8636C52.8636 9.49657 52.5003 9.13323 52.0521 9.13323C51.6039 9.13323 51.2405 9.49657 51.2405 9.94478H51.2403C51.2403 11.2893 50.1503 12.3793 48.8058 12.3793Z" fill="#E1B554"/>
<path fill-rule="evenodd" clip-rule="evenodd" d="M42.4485 16.7076H42.4486C43.345 16.7076 44.0717 15.981 44.0717 15.0845L44.0717 15.0746C44.077 14.7804 44.3172 14.5436 44.6126 14.5436C44.9114 14.5436 45.1537 14.7858 45.1537 15.0846V15.0847H45.1538C45.1539 15.981 45.8805 16.7076 46.7768 16.7077V16.7078C47.0756 16.7078 47.3178 16.95 47.3178 17.2488C47.3178 17.5476 47.0756 17.7898 46.7768 17.7898V17.7899C45.8804 17.7899 45.1538 18.5166 45.1538 19.413L45.1537 19.413C45.1536 19.7118 44.9114 19.954 44.6126 19.954C44.3172 19.954 44.077 19.7171 44.0717 19.4229L44.0717 19.413C44.0717 18.5166 43.345 17.7899 42.4486 17.7899H42.4485V17.7898H42.4485C42.1497 17.7898 41.9075 17.5476 41.9075 17.2488C41.9075 16.95 42.1497 16.7078 42.4485 16.7078H42.4485V16.7076Z" fill="#E1B554"/>
<path fill-rule="evenodd" clip-rule="evenodd" d="M48.4001 21.5999V21.6H48.4C48.1791 21.6 48 21.7791 48 22C48 22.2209 48.1791 22.4 48.4 22.4H48.4001V22.4C49.0628 22.4 49.6 22.9373 49.6 23.6L49.6 23.6043C49.6023 23.8232 49.7805 24 50 24C50.2209 24 50.4 23.8209 50.4 23.6H50.4001C50.4001 22.9373 50.9373 22.4001 51.6 22.4V22.4C51.8209 22.4 52 22.2209 52 22C52 21.7791 51.8209 21.6 51.6 21.6V21.5999C50.9374 21.5999 50.4001 21.0627 50.4001 20.4001H50.4V20.4C50.4 20.1791 50.2209 20 50 20C49.7805 20 49.6023 20.1768 49.6 20.3957L49.6 20.3999C49.6 21.0626 49.0628 21.5999 48.4001 21.5999Z" fill="#E1B554"/>
<circle cx="43" cy="43" r="41" stroke="#2A294C" stroke-width="4"/>
</svg>
