<svg width="180" height="180" viewBox="0 0 180 180" fill="none" xmlns="http://www.w3.org/2000/svg">
<circle r="87.6522" transform="matrix(-1 0 0 1 90 90)" fill="#0C0E19"/>
<mask id="mask0" mask-type="alpha" maskUnits="userSpaceOnUse" x="2" y="2" width="176" height="176">
<circle r="87.6522" transform="matrix(-1 0 0 1 90 90)" fill="#B53B3B"/>
</mask>
<g mask="url(#mask0)">
<path d="M57.4625 164.021C57.4625 164.021 63.1344 167.375 63.7665 186.54C64.407 205.705 63.7665 227.895 63.7665 227.895C63.7665 227.895 63.8423 234.199 57.9344 227.179C52.0266 220.15 48.6723 206.657 48.6723 206.657C48.6723 206.657 46.1187 191.563 47.3154 166.094C47.3239 166.094 51.7147 160.422 57.4625 164.021Z" fill="#240046"/>
<path opacity="0.3" d="M57.4625 164.021C57.4625 164.021 63.1344 167.375 63.7665 186.54C64.407 205.705 63.7665 227.895 63.7665 227.895C63.7665 227.895 63.8423 234.199 57.9344 227.179C52.0266 220.15 48.6723 206.657 48.6723 206.657C48.6723 206.657 46.1187 191.563 47.3154 166.094C47.3239 166.094 51.7147 160.422 57.4625 164.021Z" fill="black"/>
<path d="M59.5105 165.774L58.1621 165.234L56.1141 164.358L56.8473 159.756L54.3443 154.127C54.3443 154.127 56.3922 149.297 54.5297 148.219C52.6672 147.14 51.5463 146.82 50.8299 147.856C50.1135 148.893 49.1106 151.396 49.1106 151.396L39.2923 148.514L36.8566 151.885L38.4916 153.84L37.1769 156.04L39.0984 158.501L38.1039 161.433L40.2614 164.189L40.6744 167.864C40.6744 167.864 42.301 169.263 45.7732 168.943C49.2455 168.622 50.6529 171.555 50.6529 171.555L55.541 174.792L62.6035 176.283L59.5105 165.774Z" fill="#FB8671"/>
<path opacity="0.3" d="M51.0743 166.136C53.6195 166.237 53.9903 163.583 53.9903 161.745C53.9903 160.523 53.2824 159.933 53.3245 159.461C53.3919 158.661 53.8133 157.329 53.788 156.79C53.7712 156.478 53.6363 156.082 53.156 155.905C53.6785 155.998 55.0016 155.694 54.9848 155.568C54.7404 153.924 51.4873 153.823 50.9732 154.118C49.7848 154.809 50.4169 164.948 51.1333 170.401C51.2344 171.159 51.6474 171.724 51.7317 172.263C51.8328 172.929 58.3728 175.491 61.2803 175.811C62.949 175.997 61.7354 174.353 61.7101 173.974C61.6933 173.747 52.4817 170.923 52.3047 170.814C51.9761 170.603 51.6811 169.566 51.7317 169.786C51.8075 170.131 51.0743 166.136 51.0743 166.136Z" fill="black"/>
<path d="M42.3683 148.505C42.3683 148.505 41.8542 148.842 40.6659 148.927" stroke="#240046" stroke-width="2.21146" stroke-linecap="round" stroke-linejoin="round"/>
<path d="M54.5297 153.52C54.5297 153.52 57.2856 157.7 56.7968 160.38C56.308 163.06 56.1394 163.541 56.1394 163.541C56.1394 163.541 55.3978 165.268 58.1621 164.83" stroke="#240046" stroke-width="2.21146" stroke-linecap="round" stroke-linejoin="round"/>
<path d="M45.4024 168.538C46.852 169.356 50.3411 169.221 50.3411 169.221L50.8636 172.171C50.8636 172.171 54.3105 175.407 61.8197 176.275" stroke="#240046" stroke-width="2.21146" stroke-linecap="round" stroke-linejoin="round"/>
<path d="M39.2417 148.345C40.4469 147.654 41.7784 147.157 41.7784 147.157" stroke="#240046" stroke-width="2.21146" stroke-linecap="round" stroke-linejoin="round"/>
<path d="M82.1391 198.836C82.1391 198.836 68.9243 208.747 64.5082 224.094C64.5082 224.094 64.7105 211.756 63.126 182.697C63.126 182.697 63.7665 167.417 56.7462 163.001C56.7462 163.001 59.7633 162.007 64.0531 161.594C69.9104 161.037 77.7398 160.785 79.8805 158.341C81.5997 155.939 79.9226 138.476 79.9226 138.476H83.26L82.1391 198.836Z" fill="#5A189A"/>
<path opacity="0.2" d="M80.3524 158.374C80.3103 160.658 80.1754 162.327 79.8805 162.563C78.7849 163.439 77.664 165.277 71.5201 165.201C68.6041 165.167 63.9014 165.639 59.8729 166.136C58.7604 166.271 57.2771 162.849 56.7546 162.571L76.7285 160.776L79.3495 159.419L80.3524 158.374Z" fill="white"/>
<path d="M56.7461 163.001C56.7461 163.001 63.1344 167.367 63.7749 186.532C64.4154 205.696 63.7749 227.887 63.7749 227.887C63.7749 227.887 63.8508 234.191 57.9429 227.17C56.0803 224.954 55.5578 224.305 54.2262 221.423" stroke="#240046" stroke-width="2.21146" stroke-miterlimit="10"/>
<path d="M79.8805 137.659C79.8805 137.659 80.9761 157.464 79.8805 158.341C78.7849 159.217 77.664 161.054 71.5201 160.978C67.8035 160.928 61.1708 161.712 56.7462 162.318" stroke="#240046" stroke-width="2.21146" stroke-miterlimit="10"/>
<path d="M55.4398 326.466L51.8074 326.871L39.1405 69.6718L47.2902 69.2673L55.4398 326.466Z" fill="#E1B554"/>
<path opacity="0.4" d="M55.4398 326.467L51.8074 326.871L45.5035 74.1807L43.8095 73.0177L42.5706 70.2786L46.5148 70.0764L46.7255 74.3998L55.4398 326.467Z" fill="black"/>
<path d="M41.4666 29.0246L38.7191 52.8163L46.203 52.5213L41.4666 29.0246Z" fill="#B53B3B"/>
<path opacity="0.2" d="M41.2474 30.9378L39.1404 52.5635L43.2279 52.4033L41.2474 30.9378Z" fill="white"/>
<path d="M44.4669 62.9128H40.2867L38.7191 52.8163L46.203 52.5213L44.4669 62.9128Z" fill="#B53B3B"/>
<path opacity="0.3" d="M44.4669 62.9128L43.5061 58.3028L43.2617 52.8163L46.203 52.5213L44.4669 62.9128Z" fill="black"/>
<path d="M41.4666 29.0246L38.7191 52.8163L31.8757 51.0127L41.4666 29.0246Z" fill="#B53B3B"/>
<path opacity="0.3" d="M40.2698 32.9772L38.2134 52.5212L31.311 50.3384L40.2698 32.9772Z" fill="white"/>
<path d="M39.1405 62.9127L38.7191 52.8162L31.8758 51.0127L35.9717 60.5192L39.1405 62.9127Z" fill="#B53B3B"/>
<path d="M41.4666 29.0246L53.2739 50.4902L46.203 52.5213L41.4666 29.0246Z" fill="#B53B3B"/>
<path d="M45.4951 63.5364L48.7566 60.8563L53.2739 50.4901L46.203 52.5212L45.4951 63.5364Z" fill="#B53B3B"/>
<path opacity="0.3" d="M45.4951 62.5166L49.886 59.8366L53.2739 50.4901L46.203 52.5212L45.4951 62.5166Z" fill="black"/>
<path d="M41.4666 29.0246L53.2739 50.4902L46.203 52.5213L41.4666 29.0246Z" stroke="#240046" stroke-width="2.21146" stroke-miterlimit="10" stroke-linejoin="bevel"/>
<path d="M40.2277 65.045L38.7191 52.8163L46.203 52.5213L44.6354 64.8174L40.2277 65.045Z" stroke="#240046" stroke-width="2.21146" stroke-miterlimit="10" stroke-linejoin="bevel"/>
<path d="M41.4666 29.0246L38.7191 52.8163L31.8757 51.0127" stroke="#240046" stroke-width="2.21146" stroke-miterlimit="10" stroke-linejoin="bevel"/>
<path d="M55.4398 326.466L51.8074 326.871L39.1405 69.6718L47.2902 69.2673L55.4398 326.466Z" stroke="#240046" stroke-width="2.21146" stroke-miterlimit="10"/>
<path d="M41.4666 29.0246L38.7191 52.8163L46.203 52.5213L41.4666 29.0246Z" stroke="#240046" stroke-width="2.21146" stroke-miterlimit="10" stroke-linejoin="bevel"/>
<path d="M41.4666 29.0246L53.2739 50.4902L49.4477 59.2804L42.2672 67.5228L35.6346 59.5501L31.8758 51.0127L41.4666 29.0246Z" stroke="#240046" stroke-width="2.21146" stroke-miterlimit="10"/>
<path d="M47.2901 69.2674L39.1404 69.6719L35.6345 59.5501L40.2276 65.045L42.5284 57.401L44.6354 64.8175L49.4476 59.2804L47.2901 69.2674Z" fill="#5A189A"/>
<path opacity="0.4" d="M45.7984 64.2781L49.4476 59.2804L47.2901 69.2673H42.461L45.7984 64.2781Z" fill="black"/>
<path d="M47.2901 69.2674L39.1404 69.6719L35.6345 59.5501L40.2276 65.045L42.5284 57.401L44.6354 64.8175L49.4476 59.2804L47.2901 69.2674Z" stroke="#240046" stroke-width="2.21146" stroke-miterlimit="10"/>
<path d="M40.666 148.101L49.1275 152.213L50.594 148.505L51.0322 151.876L49.6922 152.896L50.1726 155.003L52.3132 156.292L51.6053 163.549L49.9787 165.512L48.4364 168.538L41.7111 168.833L40.034 163.903L38.281 160.228L39.8317 158.138L37.1685 155.61L39.208 153.958L37.1685 151.067L38.163 149.272L40.666 148.101Z" fill="#FB8671"/>
<path opacity="0.2" d="M40.0339 148.101L37.3707 149.643L38.2303 152.256C38.2303 152.256 39.5451 151.573 40.0255 151.573C42.4105 151.564 46.5233 153.983 49.4814 152.795C50.9394 152.213 42.1071 148.8 41.2306 148.37C41.1632 148.337 41.1295 148.32 41.0705 148.294C40.5817 148.084 40.0339 148.101 40.0339 148.101Z" fill="white"/>
<path opacity="0.2" d="M39.5283 154L37.3792 155.45L37.2697 156.84C37.2697 156.84 39.5536 157.464 39.3345 157.043C38.5928 155.618 39.5283 154 39.5283 154Z" fill="white"/>
<path opacity="0.3" d="M50.7542 156.166C50.7542 156.166 48.6219 157.885 45.6638 156.739C44.1299 156.141 39.68 155.298 39.1407 154.877C38.6097 154.455 42.0398 154.877 42.0398 154.877L50.7542 156.166Z" fill="black"/>
<path opacity="0.3" d="M52.7683 160.498C52.7683 160.498 52.5913 161.737 48.3606 161.425C41.138 160.886 40.5733 159.63 40.0339 159.209C39.503 158.787 44.1888 159.293 44.1888 159.293L52.7683 160.498Z" fill="black"/>
<path opacity="0.3" d="M50.7542 164.99C50.7542 164.99 49.549 166.119 46.3801 165.85C39.166 165.234 42.0398 164.788 41.5089 164.358C40.9779 163.936 42.5792 163.785 42.5792 163.785L50.7542 164.99Z" fill="black"/>
<path opacity="0.2" d="M38.5253 159.031L38.2472 161.046L38.4916 162.436L40.7166 163.296C40.7166 163.296 38.6349 160.995 40.8346 158.93C42.0397 157.801 40.4132 159.234 39.3934 159.048C39.3176 159.031 39.0226 158.956 38.9552 158.947C38.3821 158.863 38.5253 159.031 38.5253 159.031Z" fill="white"/>
<path opacity="0.2" d="M39.3513 166.145L40.034 167.704L40.8346 168.9L43.1438 168.336C43.1438 168.336 40.3795 167.274 41.5088 164.122C42.0651 162.571 41.138 164.779 40.2025 165.209C40.1351 165.243 39.8485 165.344 39.7811 165.378C39.2839 165.63 39.3513 166.145 39.3513 166.145Z" fill="white"/>
<path d="M41.7532 149.036C42.0313 149.466 48.7988 151.809 49.65 152.07C50.5012 152.331 49.9871 154.27 49.9871 154.27C49.9871 154.27 49.6922 156.191 46.7846 155.424C43.877 154.658 40.3879 153.992 40.3879 153.992C40.3879 153.992 38.6012 153.857 38.0197 153.006C37.4382 152.154 36.7808 151.185 37.4803 149.828C37.75 149.306 38.4663 148.783 39.2417 148.337C39.6547 148.101 40.0845 147.89 40.4637 147.705" stroke="#240046" stroke-width="2.21146" stroke-linecap="round" stroke-linejoin="round"/>
<path d="M49.3634 155.231C49.3634 155.231 51.8834 155.601 51.9086 156.874C51.9339 158.147 51.8244 159.091 51.0743 159.369C50.3242 159.647 43.6494 159.175 43.6494 159.175C43.6494 159.175 40.9947 158.728 40.0592 158.256C38.5337 157.489 38.3483 157.118 37.8427 156.655C37.4381 156.284 37.4213 155.172 38.3399 154.506C39.6378 153.57 39.6294 153.874 39.6294 153.874" stroke="#240046" stroke-width="2.21146" stroke-linecap="round" stroke-linejoin="round"/>
<path d="M45.8997 159.461L50.1388 159.723C50.1388 159.723 52.4228 159.487 52.3048 161.433C52.1868 163.372 51.7233 164.501 50.3242 164.349C48.9252 164.198 42.36 164.038 42.36 164.038C42.36 164.038 40.2615 164.189 39.2164 163.026C38.1714 161.863 38.5591 160.388 38.5591 160.388C38.5591 160.388 38.4242 158.795 40.666 158.501" stroke="#240046" stroke-width="2.21146" stroke-linecap="round" stroke-linejoin="round"/>
<path d="M41.0454 163.936C41.0454 163.936 39.8065 164.771 40.0762 166.17C40.3459 167.569 41.5173 168.538 41.5173 168.538H46.6751C46.6751 168.538 48.386 168.614 49.313 167.527C50.2485 166.44 50.2822 164.83 49.0433 164.257" stroke="#240046" stroke-width="2.21146" stroke-linecap="round" stroke-linejoin="round"/>
<path opacity="0.4" d="M49.785 149.845C49.785 149.845 49.4731 148.109 50.7542 147.216C51.1671 146.929 50.83 147.089 50.9059 147.131C51.6728 147.57 51.7908 149.812 51.7149 150.46C51.4621 152.576 50.4676 152.626 50.4676 152.626C50.4676 152.626 52.0015 155.231 50.3496 153.082C50.3496 153.082 49.431 151.076 49.785 149.845Z" fill="black"/>
<path d="M49.7849 149.845C49.7849 149.845 49.7006 147.629 51.1923 147.165C53.1054 146.575 53.7291 147.275 54.437 147.696C55.1955 148.151 56.2658 148.918 55.8107 151C55.3556 153.082 53.9819 154.042 53.9819 154.042C53.9819 154.042 52.0098 155.239 50.3495 153.09C50.3495 153.082 49.4309 151.076 49.7849 149.845Z" stroke="#240046" stroke-width="2.21146" stroke-linecap="round" stroke-linejoin="round"/>
<path d="M173.53 226.285C173.53 226.285 171.314 256.474 189.636 285.212C189.636 285.212 186.728 315.392 154.787 320.5C122.845 325.607 113.903 326.247 113.903 326.247C113.903 326.247 95.0084 287.555 101.203 139.917C101.203 139.917 130.54 143.752 153.43 139.917C176.32 136.083 175.064 194.024 175.064 194.024L173.53 226.285Z" fill="#5A189A"/>
<path d="M101.211 139.926C101.211 139.926 98.253 198.777 96.3062 216.964C94.351 235.151 83.9511 318.165 83.9511 318.165L65.3088 311.988C65.3088 311.988 64.0362 311.398 64.7189 307.858C68.8569 286.418 85.0551 207.095 83.9089 175.297C82.5773 138.249 82.9313 147.831 82.9313 147.831C82.9313 147.831 82.9313 138.94 84.5242 137.659C89.0752 133.993 101.211 139.926 101.211 139.926Z" fill="#5A189A"/>
<path d="M83.909 138.485C83.6562 144.89 82.9314 198.347 82.9314 198.347" stroke="#240046" stroke-width="2.21146" stroke-miterlimit="10"/>
<path d="M173.53 226.285C173.53 226.285 171.314 256.474 189.636 285.212C189.636 285.212 186.728 315.392 154.787 320.5C122.845 325.607 113.903 326.247 113.903 326.247C113.903 326.247 95.0084 287.555 101.203 139.917" stroke="#240046" stroke-width="2.21146" stroke-miterlimit="10"/>
<path d="M107.069 150.621C111.181 147.3 118.395 149.306 118.395 149.306L118.446 151.447C112.15 149.559 108.535 152.096 108.535 152.096L103.504 209.472L171.794 220.217L169.957 220.875L103.386 210.77L101.708 210.466L107.069 150.621Z" fill="#B53B3B"/>
<path opacity="0.4" d="M107.069 150.621C111.181 147.3 118.395 149.306 118.395 149.306L118.446 151.447C112.15 149.559 108.535 152.096 108.535 152.096L103.504 209.472L171.794 220.217L169.957 220.875L103.386 210.77L101.708 210.466L107.069 150.621Z" fill="black"/>
<path d="M118.396 151.632C113.415 154.843 108.535 152.104 108.535 152.104L103.512 209.025L113.423 208.368L118.396 151.632Z" fill="#FFFCE8"/>
<path opacity="0.4" d="M108.535 152.416C108.653 153.436 110.928 152.104 110.928 152.104L105.847 208.865L103.512 209.025L108.535 152.416Z" fill="black"/>
<path d="M118.396 151.632C113.415 154.843 108.535 152.104 108.535 152.104C108.535 152.104 113.263 149.652 118.396 151.632Z" fill="#240046"/>
<path d="M118.396 151.632C113.415 154.843 108.535 152.104 108.535 152.104" stroke="#240046" stroke-width="1.10573" stroke-miterlimit="10"/>
<path d="M119.55 149.373C112.311 147.477 106.79 150.637 106.79 150.637L101.599 209.834C101.557 210.281 101.877 210.677 102.315 210.744L169.957 220.875L181.326 219.198" stroke="#240046" stroke-width="1.10573" stroke-miterlimit="10"/>
<path d="M118.396 151.632C112.69 149.685 108.535 152.104 108.535 152.104L103.512 209.354L174.423 220.217" stroke="#240046" stroke-width="1.10573" stroke-miterlimit="10"/>
<path d="M118.615 149.171L113.347 209.152L181.781 219.408L184.276 163.296L118.615 149.171Z" fill="#B53B3B"/>
<path d="M118.53 150.123L113.423 208.36C113.381 208.806 113.701 209.202 114.139 209.27L180.862 219.265C181.359 219.341 181.806 218.97 181.831 218.464L184.25 164.012C184.267 163.6 183.989 163.237 183.584 163.153L119.55 149.373C119.053 149.264 118.572 149.618 118.53 150.123Z" stroke="#240046" stroke-width="1.10573" stroke-miterlimit="10"/>
<path opacity="0.4" d="M175.553 161.425L175.089 218.405L181.781 219.408L184.276 163.296L175.553 161.425Z" fill="black"/>
<path d="M123.292 155.399L118.969 204.651C118.935 205.031 119.205 205.368 119.575 205.418L175.999 213.871C176.421 213.93 176.8 213.618 176.817 213.197L178.865 167.148C178.882 166.802 178.646 166.49 178.3 166.414L124.152 154.759C123.739 154.675 123.334 154.969 123.292 155.399Z" stroke="#E1B554" stroke-width="2.21146" stroke-miterlimit="10"/>
<path d="M181.14 135.754C181.14 135.754 188.043 164.088 189.661 171.8C191.279 179.503 181.831 205.511 181.831 205.511L156.43 269.781L147.379 219.796L144.345 209.042L140.603 202.477C140.603 202.477 153.303 194.69 162.388 175.28C165.254 165.218 166.181 168.429 165.633 161.83C165.254 159.487 158.832 146.828 158.832 146.828L156.413 139.319L180.879 135.931L181.14 135.754Z" fill="#5A189A"/>
<path opacity="0.2" d="M143.493 206.463L146.241 204.685C162.498 192.886 160.113 186.995 165.38 178.036C171.229 168.083 168.785 161.425 168.785 161.425C165.481 155.467 158.706 145.564 158.706 145.564L164.74 159.546L165.06 166.01L162.557 174.69L153.674 189.473L140.375 201.769L143.493 206.463Z" fill="white"/>
<path opacity="0.3" d="M181.73 139.319C181.73 139.319 182.084 141.241 174.643 142.294C167.201 143.348 147.345 147.148 142.398 147.317C137.451 147.486 109.024 146.323 109.024 146.323L106.099 145.994V144.173C106.099 144.173 83.6309 143.053 80.3693 142.294V138.198L105.754 140.423L106.445 141.881L140.215 142.766C140.215 142.766 168.642 136.243 179.826 136.159C179.826 136.159 181.469 135.813 181.73 139.319Z" fill="black"/>
<path d="M181.14 135.754L188.296 164.813C188.296 164.813 192.484 173.755 186.096 192.6C179.708 211.444 156.085 270.793 156.085 270.793" stroke="#240046" stroke-width="2.21146" stroke-miterlimit="10"/>
<path d="M156.405 139.319C156.405 139.319 161.445 153.579 164.74 159.546C164.74 159.546 167.184 166.195 161.335 176.157C156.076 185.116 155.958 190.467 139.692 202.258" stroke="#240046" stroke-width="2.21146" stroke-miterlimit="10"/>
<path d="M134.686 90.1934C134.686 90.1934 151.567 82.3218 146.283 76.2117C140.999 70.1015 122.71 73.5232 122.71 73.5232C122.71 73.5232 105.585 73.5148 104.329 80.1896C102.593 89.4349 109.74 97.3654 109.74 97.3654L134.686 90.1934Z" fill="#E1B554"/>
<path d="M139.836 76.9449C139.836 76.9449 137.897 80.3329 136.119 88.904C136.119 88.904 135.538 95.5788 137.012 98.183C137.206 98.5285 137.923 99.2027 137.923 99.2027C137.923 99.2027 141.328 100.222 139.836 104.79C138.344 109.367 132.63 111.145 132.63 111.145C132.63 111.145 124.944 113.876 118.969 109.94C117.477 108.954 113.954 116.606 112.799 115.367C109.319 111.651 104.911 100.172 104.911 100.172C104.911 100.172 108.788 95.5114 109.588 93.8595C110.389 92.2077 109.74 93.5561 111.004 90.7075" fill="#FB8671"/>
<path d="M139.836 76.9449C139.836 76.9449 137.897 80.3329 136.119 88.904C136.119 88.904 135.538 95.5788 137.012 98.183C137.206 98.5285 137.923 99.2027 137.923 99.2027C137.923 99.2027 141.328 100.222 139.836 104.79C138.344 109.367 132.63 111.145 132.63 111.145C132.63 111.145 124.944 113.876 118.969 109.94C117.477 108.954 113.491 117.154 112.336 115.915C108.855 112.198 104.919 100.172 104.919 100.172C104.919 100.172 108.796 95.5114 109.597 93.8595C110.398 92.2077 109.749 93.5561 111.013 90.7075" stroke="#240046" stroke-width="2.21146" stroke-linejoin="round"/>
<path d="M106.841 57.1228C106.841 57.1228 107.212 48.872 111.729 45.8801C116.246 42.8883 123.772 42.3068 129.132 43.0147C132.563 43.4698 136.262 45.9729 138.504 48.4169C140.586 50.6924 137.139 55.6395 137.139 55.6395C140.518 59.2213 138.504 62.2722 138.504 62.2722C138.504 62.2722 136.229 66.3428 139.937 69.3515C139.937 69.3515 138.083 74.9729 137.729 76.9113C137.139 80.0632 135.841 87.7072 132.984 88.8197C128.964 90.3704 123.418 90.5811 120.106 90.775C117.645 90.9182 112.816 91.4913 110.28 90.4463C107.743 89.4012 106.049 82.5073 106.049 82.5073C106.049 82.5073 104.945 74.9644 104.683 72.7479C104.422 70.5398 106.108 66.1827 106.647 64.16C106.993 62.8453 106.529 60.9743 106.428 59.6596C106.369 59.0191 106.841 57.1228 106.841 57.1228Z" fill="#FB8671"/>
<path d="M113.575 59.3983C113.575 59.3983 111.738 57.8813 109.926 57.797C108.114 57.7043 106.074 58.5976 106.074 58.5976C106.074 58.5976 105.459 59.0106 105.619 59.7944C105.779 60.5782 107.018 60.0894 107.018 60.0894C107.018 60.0894 109.816 59.5163 111.83 60.477C113.853 61.4378 113.575 59.3983 113.575 59.3983Z" fill="#240046"/>
<path d="M106.74 62.4576L101.987 60.3001L101.734 60.772L106.74 62.9127V62.4576Z" fill="#E1B554" stroke="#E1B554" stroke-width="1.10573" stroke-miterlimit="10"/>
<path d="M139.836 69.3515C139.836 69.3515 137.982 74.9729 137.628 76.9113C137.038 80.0632 135.74 87.7072 132.883 88.8197C128.863 90.3704 123.317 90.5811 120.005 90.775C117.544 90.9182 112.715 91.4913 110.178 90.4463C107.642 89.4012 105.948 82.5073 105.948 82.5073C105.948 82.5073 104.844 74.9644 104.582 72.7479L105.282 74.3745C106.108 76.2117 106.976 76.4393 106.976 76.4393C106.976 76.4393 107.296 75.3353 109.454 74.3324C111.611 73.321 111.021 72.3434 111.021 72.3434L113.726 72.158L115.631 72.5119C115.892 74.4503 117.072 74.7875 117.072 74.7875C121.202 75.7482 122.39 79.5997 122.39 79.5997C122.39 79.5997 124.64 80.7459 130.237 77.4928C135.833 74.2396 137.577 67.1182 137.577 67.1182L139.836 69.3515Z" fill="#240046"/>
<path d="M119.23 79.9031C119.23 79.9031 114.696 77.3495 113.937 77.1894C113.179 77.0293 112.471 77.3748 112.471 77.3748C112.471 77.3748 112.058 77.4169 111.527 77.0293C110.996 76.6416 109.69 77.6276 109.462 77.8552C109.209 78.108 109.049 78.6811 108.703 79.0856C108.703 79.0856 110.22 80.6364 111.384 80.906C112.547 81.1757 116.423 81.2347 117.991 80.7038C118.345 80.5858 119.23 79.9031 119.23 79.9031Z" fill="#FB7F71"/>
<path opacity="0.3" d="M109.302 78.4114C109.529 78.1839 111.063 77.1051 111.594 77.4928C112.125 77.8805 112.538 77.8383 112.538 77.8383C112.538 77.8383 113.246 77.4928 114.005 77.6529C114.291 77.7119 115.21 78.108 116.322 78.5041C116.322 78.5041 114.83 77.4338 113.71 77.2653C112.589 77.0967 112.471 77.4928 112.471 77.4928L111.24 77.063C111.24 77.063 109.934 77.3748 109.622 77.8889C109.302 78.4114 109.302 78.4114 109.302 78.4114Z" fill="white"/>
<path opacity="0.3" d="M118.952 80.1138C118.952 80.1138 118.421 80.1644 118.067 80.2402C116.921 80.4678 111.695 80.6363 110.524 80.3582C110.524 80.3582 110.237 81.1757 114.038 80.965C117.831 80.7543 117.435 80.7543 117.435 80.7543L118.952 80.1138Z" fill="black"/>
<path d="M119.23 79.9031C119.23 79.9031 114.696 77.3495 113.937 77.1894C113.179 77.0293 112.471 77.3748 112.471 77.3748C112.471 77.3748 112.058 77.4169 111.527 77.0293C110.996 76.6416 109.69 77.6276 109.462 77.8552C109.209 78.108 109.049 78.6811 108.703 79.0856C108.703 79.0856 110.22 80.6364 111.384 80.906C112.547 81.1757 116.423 81.2347 117.991 80.7038C118.345 80.5858 119.23 79.9031 119.23 79.9031Z" stroke="#9E5346" stroke-width="0.552864" stroke-miterlimit="10" stroke-linecap="round" stroke-linejoin="round"/>
<path d="M118.952 79.9705C118.952 79.9705 116.246 79.2289 114.013 79.2289C111.763 79.2289 111.257 78.8833 111.257 78.8833C111.257 78.8833 110.633 78.5294 110.018 78.8243C109.403 79.1193 109.108 78.9676 109.108 78.9676" stroke="#9E5346" stroke-width="0.552864" stroke-miterlimit="10" stroke-linecap="round"/>
<path d="M107.338 62.997C107.338 62.997 107.507 60.1989 110.735 62.2722L112.033 63.0728L110.524 63.9324C110.524 63.9324 108.687 64.8511 107.911 64.1263C107.911 64.1263 107.515 63.5616 107.338 62.997Z" fill="#FFE9E9"/>
<path d="M108.965 64.1262C108.416 64.1262 107.97 63.5187 107.97 62.7693C107.97 62.02 108.416 61.4125 108.965 61.4125C109.514 61.4125 109.959 62.02 109.959 62.7693C109.959 63.5187 109.514 64.1262 108.965 64.1262Z" fill="#37444C"/>
<path d="M108.965 63.4858C108.686 63.4858 108.459 63.1726 108.459 62.7863C108.459 62.3999 108.686 62.0868 108.965 62.0868C109.244 62.0868 109.47 62.3999 109.47 62.7863C109.47 63.1726 109.244 63.4858 108.965 63.4858Z" fill="black"/>
<path d="M107.498 62.997C107.498 62.997 107.507 60.1989 110.735 62.2722L112.033 63.0728L110.431 63.8903C110.431 63.8903 108.661 64.7921 107.97 63.9914C107.76 63.747 107.684 63.5616 107.498 62.997Z" stroke="#C56858" stroke-width="0.497578" stroke-miterlimit="10"/>
<path d="M108.636 62.5503C108.538 62.5503 108.459 62.4409 108.459 62.3059C108.459 62.1709 108.538 62.0615 108.636 62.0615C108.734 62.0615 108.813 62.1709 108.813 62.3059C108.813 62.4409 108.734 62.5503 108.636 62.5503Z" fill="#9BB0CF"/>
<path d="M144.378 74.6611C144.378 74.6611 144.075 77.3917 142.735 79.7093L142.002 78.6643C142.002 78.6643 140.721 83.3923 137.291 83.9991L138.386 75.4954L144.378 74.6611Z" fill="#240046" stroke="#240046" stroke-width="1.10573" stroke-linejoin="round"/>
<path d="M146.106 66.2669C146.106 66.2669 148.727 60.5023 147.202 54.5692C145.676 48.636 143.409 45.7031 143.409 45.7031L141.454 44.5401C141.454 44.5401 142.979 44.1103 143.654 44.5401C144.328 44.9699 141.572 39.1547 135.706 40.0734C135.706 40.0734 137.434 38.5479 139.844 39.1547C139.844 39.1547 137.661 35.851 133.81 38.1771C133.81 38.1771 135.217 36.5843 136.439 36.2219C136.439 36.2219 134.425 35.9185 132.706 37.5703C132.706 37.5703 132.832 35.2442 133.254 35.2442C133.254 35.2442 130.253 34.6964 129.706 36.8371C129.706 36.8371 129.647 35.1263 130.81 34.452C130.81 34.452 129.706 32.7412 127.261 37.0225L128.484 34.1149C128.484 34.1149 126.646 33.5334 125.424 36.1629C125.424 36.1629 125.121 35.1347 125.854 34.0559C125.854 34.0559 124.034 33.2216 122.196 36.3483C122.196 36.3483 120.663 37.4523 118.825 36.8371C116.988 36.2219 113.381 36.2893 110.692 38.1855C110.692 38.1855 112.597 37.6967 113.448 38.5564C113.448 38.5564 110.482 39.416 109.243 40.5116C108.004 41.6157 107.052 43.6889 106.546 44.6665C106.049 45.6441 107.574 45.2143 107.574 45.2143C107.574 45.2143 106.335 47.178 109.327 48.3073L109.597 47.9112C110.212 46.9589 110.701 46.5038 111.645 45.8801C116.162 42.8882 123.688 42.3067 129.048 43.0147C132.478 43.4698 136.178 45.9728 138.42 48.4169C140.502 50.6924 137.055 55.6395 137.055 55.6395C140.434 59.2213 138.42 62.2722 138.42 62.2722C138.42 62.2722 136.144 66.3428 139.853 69.3515L146.106 66.2669Z" fill="#240046"/>
<path d="M120.873 63.4858C121.311 63.7639 122.196 64.2527 123.461 64.396C124.725 64.5393 128.037 63.4858 128.037 63.4858C128.037 63.4858 126.848 61.7665 124.539 61.1597C122.23 60.5445 120.789 62.7863 120.789 62.7863L120.511 63.2161C120.519 63.2077 120.789 63.4268 120.873 63.4858Z" fill="#FFE9E9"/>
<path d="M123.461 64.0841C122.609 64.0841 121.918 63.3936 121.918 62.5419C121.918 61.6901 122.609 60.9996 123.461 60.9996C124.312 60.9996 125.003 61.6901 125.003 62.5419C125.003 63.3936 124.312 64.0841 123.461 64.0841Z" fill="#37444C"/>
<path d="M123.461 63.292C123.046 63.292 122.71 62.9561 122.71 62.5419C122.71 62.1276 123.046 61.7918 123.461 61.7918C123.875 61.7918 124.211 62.1276 124.211 62.5419C124.211 62.9561 123.875 63.292 123.461 63.292Z" fill="black"/>
<path d="M122.93 62.2806C122.832 62.2806 122.753 62.1712 122.753 62.0362C122.753 61.9012 122.832 61.7918 122.93 61.7918C123.027 61.7918 123.107 61.9012 123.107 62.0362C123.107 62.1712 123.027 62.2806 122.93 62.2806Z" fill="#9BB0CF"/>
<path d="M120.873 63.4858C121.311 63.7639 122.196 64.2527 123.461 64.396C124.725 64.5393 128.037 63.4858 128.037 63.4858C128.037 63.4858 126.848 61.7665 124.539 61.1597C122.23 60.5445 120.789 62.7863 120.789 62.7863L120.511 63.2161C120.519 63.2077 120.789 63.4268 120.873 63.4858Z" stroke="#C56858" stroke-width="0.497578" stroke-miterlimit="10"/>
<path d="M128.458 62.407C128.458 62.407 127.287 60.3675 124.716 60.2579C122.154 60.1484 121.446 60.7973 121.446 60.7973" stroke="#C56858" stroke-width="0.552864" stroke-miterlimit="10" stroke-linecap="round" stroke-linejoin="round"/>
<path d="M128.896 61.7918C128.896 61.7918 127.885 61.0249 126.773 60.831" stroke="#C56858" stroke-width="0.552864" stroke-miterlimit="10" stroke-linecap="round" stroke-linejoin="round"/>
<path d="M109.175 60.8984C109.175 60.8984 110.777 60.9743 111.788 62.0193" stroke="#C56858" stroke-width="0.552864" stroke-miterlimit="10" stroke-linecap="round" stroke-linejoin="round"/>
<path d="M116.415 58.901C118.185 57.9318 119.55 56.4738 123.174 56.5581C126.798 56.6424 126.764 56.7856 127.936 57.1649C128.964 57.4936 130.321 57.8307 131.829 59.1538C133.329 60.477 127.649 59.2044 124.286 59.1033C122.786 59.0527 119.719 59.9376 117.435 60.3169C116.128 60.536 116.027 59.1117 116.415 58.901Z" fill="#240046"/>
<path opacity="0.2" d="M138.378 49.1164C138.277 48.4337 136.094 46.7987 136.094 46.7987C136.094 46.7987 133.97 44.6075 129.006 43.2759C124.042 41.9443 123.064 44.1271 118.294 43.6383C113.524 43.1495 110.086 47.2623 108.956 49.7148C107.827 52.1672 106.411 60.0978 106.866 61.6148C107.321 63.1318 105.425 70.2786 105.425 70.2786C106.259 68.2643 107.675 65.9888 108.24 64.6572C108.771 63.4015 108.577 61.4884 108.67 60.1736C108.628 60.8479 108.468 60.6035 109.175 57.5442C109.175 57.5442 111.131 50.5744 116.036 48.2652C120.941 45.956 128.475 46.4616 133.667 47.9281C135.344 48.4085 136.616 48.2568 138.108 49.4872L138.378 49.1164Z" fill="white"/>
<path opacity="0.2" d="M137.021 38.6744C135.748 38.4805 134.889 39.3823 134.164 39.298C133.869 39.2643 133.262 38.5227 133.262 38.5227L133.54 37.486L135.866 36.3483L138.125 38.371L137.021 38.6744Z" fill="white"/>
<path opacity="0.2" d="M108.813 45.9222C108.813 45.9222 109.698 42.037 115.1 40.2672C115.1 40.2672 116.289 39.9638 115.682 39.2053C115.682 39.2053 118.505 39.8627 121.236 39.5087C121.665 39.4497 121.868 39.1294 123.461 38.7502C124.716 38.4552 126.385 38.8092 127.59 38.5648C127.632 38.5564 130.144 38.4047 131.121 38.0675C132.091 37.7389 131.855 36.6264 132.04 36.4831C133.035 35.6993 131.374 35.5898 131.551 35.4634C131.796 35.2948 129.309 37.545 129.436 37.2332C130.026 35.7752 127.093 35.1094 127.396 34.629C127.717 34.1318 125.441 36.6433 125.441 36.6433L124.775 34.629L121.371 37.1826L114.586 37.0815L113.423 37.5703L109.041 41.4134L107.389 44.5569L108.392 47.4055L108.813 45.9222Z" fill="white"/>
<path d="M146.106 66.2669C146.106 66.2669 148.727 60.5023 147.202 54.5692C145.676 48.636 143.409 45.7031 143.409 45.7031L141.454 44.5401C141.454 44.5401 142.979 44.1103 143.654 44.5401C144.328 44.9699 141.572 39.1547 135.706 40.0734C135.706 40.0734 137.434 38.5479 139.844 39.1547C139.844 39.1547 137.661 35.851 133.81 38.1771C133.81 38.1771 135.217 36.5843 136.439 36.2219C136.439 36.2219 134.425 35.9185 132.706 37.5703C132.706 37.5703 132.832 35.2442 133.254 35.2442C133.254 35.2442 130.253 34.6964 129.706 36.8371C129.706 36.8371 129.647 35.1263 130.81 34.452C130.81 34.452 129.706 32.7412 127.261 37.0225L128.484 34.1149C128.484 34.1149 126.646 33.5334 125.424 36.1629C125.424 36.1629 125.121 35.1347 125.854 34.0559C125.854 34.0559 124.034 33.2216 122.196 36.3483C122.196 36.3483 120.663 37.4523 118.825 36.8371C116.988 36.2219 113.381 36.2893 110.692 38.1855C110.692 38.1855 112.597 37.6967 113.448 38.5564C113.448 38.5564 110.482 39.416 109.243 40.5116C108.004 41.6157 107.052 43.6889 106.546 44.6665C106.049 45.6441 107.574 45.2143 107.574 45.2143C107.574 45.2143 106.335 47.178 109.327 48.3073L109.597 47.9112C110.212 46.9589 110.701 46.5038 111.645 45.8801C116.162 42.8882 123.688 42.3067 129.048 43.0147C132.478 43.4698 136.178 45.9728 138.42 48.4169C140.502 50.6924 137.055 55.6395 137.055 55.6395C140.434 59.2213 138.42 62.2722 138.42 62.2722C138.42 62.2722 136.144 66.3428 139.853 69.3515L146.106 66.2669Z" stroke="#240046" stroke-width="2.21146" stroke-linejoin="round"/>
<path d="M106.74 57.1228C106.74 57.1228 107.111 48.872 111.628 45.8801C116.145 42.8883 123.671 42.3068 129.031 43.0147C132.461 43.4698 136.161 45.9729 138.403 48.4169C140.485 50.6924 137.038 55.6395 137.038 55.6395C140.417 59.2213 138.403 62.2722 138.403 62.2722C138.403 62.2722 136.128 66.3428 139.836 69.3515C139.836 69.3515 137.982 74.9729 137.628 76.9113C137.038 80.0632 135.74 87.7072 132.883 88.8197C128.863 90.3704 123.317 90.5811 120.005 90.775C117.544 90.9182 112.715 91.4913 110.178 90.4463C107.642 89.4012 105.948 82.5073 105.948 82.5073C105.948 82.5073 104.844 74.9644 104.582 72.7479C104.321 70.5398 106.007 66.1827 106.546 64.16C106.892 62.8453 106.428 60.9743 106.327 59.6596C106.268 59.0191 106.74 57.1228 106.74 57.1228Z" stroke="#240046" stroke-width="2.21146" stroke-linejoin="round"/>
<path opacity="0.4" d="M138.588 65.6264C138.588 65.6264 136.372 74.6863 136.01 76.6247C135.42 79.7767 133.641 85.9542 130.776 87.0583C126.756 88.609 121.32 89.4855 118.025 89.8731C116.558 90.0501 112.681 90.7749 110.515 90.7328C110.515 90.7328 122.213 92.4268 132.74 89.3422C143.266 86.2576 132.74 89.3422 132.74 89.3422C132.74 89.3422 134.139 89.8563 135.352 85.8952C136.566 81.9342 139.827 68.2137 139.827 68.2137C139.827 68.2137 139.17 67.4637 139.052 67.1855C138.698 66.5113 138.588 65.6264 138.588 65.6264Z" fill="black"/>
<path opacity="0.2" d="M128.205 58.7409C127.885 58.3785 127.472 57.915 126.621 57.6285C125.761 57.3335 124.784 56.9964 122.483 57.1818C120.174 57.3756 118.876 57.7549 117.46 59.1707C116.044 60.5866 116.508 62.997 116.508 62.997C116.508 62.997 116.921 65.1123 117.612 66.2838C118.311 67.4553 118.691 67.9946 119.601 68.5256C120.519 69.065 121.657 69.2251 121.657 69.2251C121.657 69.2251 122.938 69.5959 124.978 69.065C127.422 68.4329 128.29 66.3765 128.29 66.3765C128.29 66.3765 129.31 64.5392 129.402 62.9295C129.495 61.3198 129.47 60.5698 129.057 59.8365C128.644 59.1033 128.543 59.0612 128.323 58.8589C128.29 58.8336 128.231 58.7662 128.205 58.7409Z" fill="white"/>
<path d="M128.256 58.8421C128.256 58.8421 127.472 57.915 126.621 57.62C125.761 57.3251 124.784 56.988 122.483 57.1734C120.174 57.3672 118.876 57.7465 117.46 59.1623C116.044 60.5782 116.508 62.9885 116.508 62.9885C116.508 62.9885 116.921 65.1039 117.612 66.2754C118.311 67.4468 118.691 67.9862 119.601 68.5172C120.519 69.0565 121.657 69.2167 121.657 69.2167C121.657 69.2167 122.938 69.5875 124.978 69.0565C127.422 68.4245 128.29 66.3681 128.29 66.3681C128.29 66.3681 129.31 64.5308 129.402 62.9211C129.495 61.3114 129.47 60.5613 129.057 59.8281C128.644 59.0949 128.29 58.8673 128.29 58.8673L128.256 58.8421Z" stroke="#E1B554" stroke-width="1.10573" stroke-miterlimit="10"/>
<path d="M116.676 60.4517L115.378 59.7354C115.378 59.7354 113.069 59.4067 112.159 60.0893C112.159 60.0893 112.058 61.067 111.636 61.3619" stroke="#E1B554" stroke-width="0.552864" stroke-miterlimit="10"/>
<path d="M101.987 59.9798L100.579 60.1231L100.486 60.8647H101.43L101.987 59.9798Z" fill="#E1B554" stroke="#E1B554" stroke-width="1.10573" stroke-miterlimit="10"/>
<path opacity="0.2" d="M111.636 62.3565C111.636 62.3565 111.805 60.1821 110.608 59.2298C109.411 58.2774 108.409 58.0583 108.409 58.0583C108.409 58.0583 106.799 57.6959 105.459 58.0583C104.119 58.4207 103.217 58.8337 102.551 59.5247C102.18 59.904 102.088 60.1147 101.877 60.5024C101.599 61.0249 101.464 61.7581 101.439 62.8369C101.413 63.9072 101.557 64.691 101.557 64.691C101.557 64.691 101.776 66.0816 102.484 67.3036C103.192 68.5256 104.237 68.9133 104.237 68.9133C104.237 68.9133 105.316 69.3853 106.529 69.3431C107.743 69.301 108.939 68.4751 109.504 67.8598C110.018 67.2952 110.625 66.2248 110.996 65.1966C111.367 64.1853 111.636 62.3565 111.636 62.3565Z" fill="white"/>
<path opacity="0.2" d="M109.175 59.4572C109.125 59.2381 108.434 58.9347 108.434 58.9347C108.434 58.9347 108.114 58.7999 107.599 58.6819C107.094 58.5639 106.42 58.6735 106.42 58.6735C106.42 58.6735 105.729 58.7746 104.978 59.0021C104.228 59.2297 103.546 59.6089 103.234 59.8365C102.947 60.0388 102.636 60.3674 102.475 60.6371C102.307 60.9068 102.105 61.4293 102.256 61.3282C103.032 60.7888 103.638 60.4686 104.136 60.2495C104.565 60.0556 105.122 59.7185 105.973 59.5499C106.757 59.3814 109.175 59.4572 109.175 59.4572Z" fill="white"/>
<path d="M129.84 59.7523L128.711 59.7355C128.568 59.3057 127.986 58.7494 127.986 58.7494H128.441C129.621 58.7747 130.203 58.8674 130.751 58.8168C131.298 58.7663 131.711 59.095 131.711 59.095L142.482 64.9438L142.288 65.2557L132.284 60.2917C132.284 60.2917 132.048 60.376 131.711 60.3254C131.374 60.2749 131.088 60.14 131.088 60.14C131.088 60.14 130.902 59.9377 130.582 59.8872C130.253 59.8282 129.84 59.7523 129.84 59.7523Z" fill="#E1B554" stroke="#E1B554" stroke-width="1.10573" stroke-miterlimit="10"/>
<path opacity="0.4" d="M138.403 65.7191C138.403 65.7191 142.153 63.9072 143.241 62.7863C145.289 60.6793 146.637 57.1987 145.103 51.2655C144.926 50.5913 144.741 49.9508 144.555 49.3524C144.555 49.3524 149.157 54.0045 146.342 64.7752L141.816 65.2472L139.499 69.3431L138.403 65.7191Z" fill="black"/>
<path d="M111.636 62.3565C111.636 62.3565 111.805 60.1821 110.608 59.2298C109.411 58.2774 108.409 58.0583 108.409 58.0583C108.409 58.0583 106.799 57.6959 105.459 58.0583C104.119 58.4207 103.217 58.8337 102.551 59.5247C102.18 59.904 102.088 60.1147 101.877 60.5024C101.599 61.0249 101.464 61.7581 101.439 62.8369C101.413 63.9072 101.557 64.691 101.557 64.691C101.557 64.691 101.776 66.0816 102.484 67.3036C103.192 68.5256 104.237 68.9133 104.237 68.9133C104.237 68.9133 105.316 69.3853 106.529 69.3431C107.743 69.301 108.939 68.4751 109.504 67.8598C110.018 67.2952 110.625 66.2248 110.996 65.1966C111.367 64.1853 111.636 62.3565 111.636 62.3565Z" stroke="#E1B554" stroke-width="1.10573" stroke-miterlimit="10"/>
<path d="M141.816 65.6518C141.816 65.6518 142.457 65.5085 143.991 65.2557C145.525 65.0028 146.376 66.68 146.376 66.68C146.376 66.68 147.631 69.1577 146.376 71.1467C145.12 73.1356 144.876 75.0572 142.187 76.4393C139.499 77.8215 137.864 75.8915 137.864 75.8915C137.864 75.8915 140.746 66.798 141.816 65.6518Z" fill="#FB8671"/>
<path opacity="0.3" d="M141.698 65.677C141.698 65.677 142.339 65.5337 143.873 65.2808C145.407 65.028 146.258 66.7051 146.258 66.7051C146.258 66.7051 146.511 66.5872 145.263 68.5761C144.016 70.5651 143.763 72.4866 141.075 73.8688C138.386 75.2425 138.841 72.9333 138.841 72.9333C138.841 72.9333 140.628 66.8231 141.698 65.677Z" fill="black"/>
<path d="M141.816 65.6518C141.816 65.6518 142.457 65.5085 143.991 65.2557C145.525 65.0028 146.376 66.68 146.376 66.68C146.376 66.68 147.631 69.1577 146.376 71.1467C145.12 73.1356 144.876 75.0572 142.187 76.4393C139.499 77.8215 138.529 76.4309 138.529 76.4309C138.529 76.4309 140.746 66.798 141.816 65.6518Z" stroke="#240046" stroke-width="2.21146" stroke-linejoin="round"/>
<path d="M113.667 61.716C113.667 61.716 112.707 62.4155 112.252 64.2527C111.797 66.0816 109.597 67.4553 109.277 68.7447C108.956 70.0258 109.504 70.6241 109.782 71.0792C110.06 71.5343 111.754 72.3181 111.754 72.3181C111.754 72.3181 113.448 71.2647 115.833 72.3181C118.218 73.3716 117.755 70.169 117.527 69.9331" fill="#FB8671"/>
<path opacity="0.2" d="M114.064 61.8087C114.064 61.8087 113.255 63.6965 112.791 65.5254C112.336 67.3542 110.136 68.7279 109.816 70.0174C109.765 70.2196 109.732 70.4135 109.723 70.582C109.664 71.4838 109.234 68.3571 109.462 68.7448L111.915 65.4495L112.968 62.9128L114.064 61.8087Z" fill="white"/>
<path d="M117.241 70.2196C117.468 70.4472 117.3 72.2423 114.915 71.1888C112.53 70.1353 110.836 71.1888 110.836 71.1888C110.836 71.1888 110.237 70.9107 109.698 70.5989C109.698 70.5989 109.681 72.1243 111.763 72.2844C113.844 72.453 113.718 71.9136 113.718 71.9136L117.022 72.7901C117.022 72.7901 118.025 72.099 117.612 71.0371C117.207 69.9752 117.519 70.0511 117.519 70.0511L117.241 70.2196Z" fill="#C56858"/>
<path d="M113.667 61.716C113.667 61.716 112.707 62.4155 112.252 64.2527C111.797 66.0816 109.597 67.4553 109.277 68.7447C108.956 70.0258 109.504 70.6241 109.782 71.0792C110.06 71.5343 111.754 72.3181 111.754 72.3181C111.754 72.3181 113.448 71.2647 115.833 72.3181C118.218 73.3716 117.755 70.169 117.527 69.9331" stroke="#C56858" stroke-width="1.10573" stroke-linecap="round" stroke-linejoin="round"/>
<path opacity="0.3" d="M136.237 88.3477L135.967 85.9879L132.445 89.3591C132.445 89.3591 120.519 91.4744 112.033 91.3733H110.987L108.636 96.2361L107.498 96.9188C108.232 98.7055 108.956 100.045 110.17 100.551C112.707 101.596 117.536 101.023 119.997 100.88C123.309 100.686 128.863 100.484 132.874 98.9246C135.74 97.8206 135.656 91.4997 136.237 88.3477Z" fill="black"/>
<path opacity="0.2" d="M124.935 59.1287C124.885 58.9095 124.194 58.6061 124.194 58.6061C124.194 58.6061 123.874 58.4713 123.359 58.3533C122.854 58.2353 122.18 58.3449 122.18 58.3449C122.18 58.3449 121.489 58.446 120.738 58.6736C119.988 58.9011 119.306 59.2804 118.994 59.5079C118.707 59.7102 118.396 60.0389 118.235 60.3085C118.067 60.5782 117.865 61.1008 118.016 60.9996C118.792 60.4602 119.398 60.14 119.896 59.9209C120.325 59.727 120.882 59.3899 121.733 59.2214C122.525 59.0612 124.935 59.1287 124.935 59.1287Z" fill="white"/>
<path d="M187.849 137.507C187.368 132.973 160.829 138.257 147.463 141.207C142.288 142.353 136.987 142.8 131.694 142.547L106.091 141.342L106.891 131.599L108.484 129.686C108.484 129.686 138.049 96.4723 146.915 79.8611L143.409 87.0079L143.527 88.7693L152.477 97.3741L172.468 109.131L176.564 113.244L187.849 137.507Z" fill="#5A189A"/>
<path opacity="0.3" d="M176.438 114.482L181.73 133.521C177.98 133.622 159.978 135.94 147.454 141.215L180.508 135.788L187.208 136.159L176.438 114.482Z" fill="black"/>
<path d="M107.684 94.7529C107.684 94.7529 100.335 105.726 92.3536 110.681C92.3536 110.681 88.1987 111.482 85.8052 115.308C83.4117 119.143 80.3777 125.531 76.3829 135.105C76.3829 135.105 72.8854 139.1 105.619 140.052L106.883 131.591L110.355 127.545C110.355 127.545 110.077 129.973 106.082 121.123C102.096 112.283 107.684 94.7529 107.684 94.7529Z" fill="#5A189A"/>
<path d="M141.277 87.7662C141.277 87.7662 124.817 93.219 113.583 115.738C113.583 115.738 113.238 99.6073 108.383 95.8316C103.529 92.056 104.675 111.246 104.675 111.246C104.675 111.246 104.869 123.062 108.611 125.607C112.361 128.152 121.362 114.642 121.362 114.642L141.277 87.7662Z" fill="#9D4EDD"/>
<path opacity="0.3" d="M113.44 117.407C113.44 117.407 116.862 99.877 141.69 86.6538L145.685 90.6655C145.685 90.6655 125.685 97.5257 112.462 119.328" fill="black"/>
<path opacity="0.2" d="M110.987 101.436C110.987 101.436 110.33 102.33 109.175 103.703C108.746 104.217 108.248 104.799 107.684 105.423C105.046 108.364 101.068 112.325 96.5928 115.098C96.5928 115.098 92.4379 115.898 90.0444 119.724C87.7267 123.441 85.4091 128.565 81.5997 137.659L76.7453 135.484C76.7453 135.484 84.0354 115.831 88.6454 112.965C93.2554 110.1 98.5143 106.468 98.5143 106.468L107.557 95.385L109.352 96.9947L110.987 101.436Z" fill="white"/>
<path d="M110.65 127.217C110.65 127.217 101.186 123.509 105.669 97.5341" stroke="#240046" stroke-width="2.21146" stroke-miterlimit="10"/>
<path d="M187.849 137.507C187.368 132.973 160.829 138.257 147.463 141.207C142.288 142.353 136.987 142.8 131.694 142.547L106.091 141.342L106.891 131.599L108.484 129.686C108.484 129.686 133.178 101.613 144.184 84.1592" stroke="#240046" stroke-width="2.21146" stroke-miterlimit="10"/>
<path d="M107.684 94.7529C107.684 94.7529 100.335 105.726 92.3536 110.681C92.3536 110.681 88.1987 111.482 85.8052 115.308C83.4117 119.143 80.3777 125.531 76.3829 135.105C76.3829 135.105 73.1972 139.1 105.931 140.052" stroke="#240046" stroke-width="2.21146" stroke-miterlimit="10"/>
<path d="M142.937 86.6623C142.937 86.6623 144.412 91.9971 159.742 101.9C159.742 101.9 173.159 107.167 175.873 113.235C178.587 119.303 187.849 137.507 187.849 137.507C187.849 137.507 190.563 140.221 182.581 142.294" stroke="#240046" stroke-width="2.21146" stroke-miterlimit="10"/>
<path d="M145.053 74.4335C145.053 74.4335 153.514 79.2205 138.024 88.8029C122.534 98.3853 115.673 110.681 115.673 110.681C115.673 110.681 114.502 112.544 114.021 114.305C113.541 116.058 109.496 128.616 109.496 128.616" stroke="#240046" stroke-width="2.21146" stroke-miterlimit="10"/>
<path d="M108.914 124.967C110.187 121.056 112.226 114.718 112.479 113.555C112.85 111.853 112.799 110.681 112.799 110.681C112.799 106.055 110.558 98.2252 107.052 93.9186C103.537 89.6036 103.377 84.1761 104.33 80.1813C104.549 79.2964 104.886 78.5379 105.282 77.8974" stroke="#240046" stroke-width="2.21146" stroke-miterlimit="10" stroke-linecap="round"/>
</g>
<path fill-rule="evenodd" clip-rule="evenodd" d="M77.2239 44.0289L77.2115 44.029C76.2733 44.029 75.5129 43.2685 75.5129 42.3304L75.5129 42.3241C75.5096 42.0142 75.2574 41.7639 74.9467 41.7639C74.634 41.7639 74.3805 42.0174 74.3805 42.3301V42.3302H74.3804V42.3303C74.3804 43.2684 73.6199 44.0289 72.6818 44.0289L72.6713 44.0289C72.3635 44.0346 72.1157 44.2859 72.1157 44.595C72.1157 44.9077 72.3692 45.1612 72.6818 45.1612V45.1613C72.6819 45.1613 72.6819 45.1613 72.6819 45.1613C73.62 45.1613 74.3804 45.9217 74.3805 46.8598H74.3805V46.8598C74.3805 47.1725 74.634 47.426 74.9467 47.426C75.2594 47.426 75.5129 47.1725 75.5129 46.8598V46.8598H75.513C75.513 45.9218 76.2734 45.1614 77.2114 45.1613V45.1612H77.2115C77.5242 45.1612 77.7777 44.9077 77.7777 44.595C77.7777 44.2864 77.5309 44.0355 77.2239 44.0289Z" fill="#E1B554"/>
<path fill-rule="evenodd" clip-rule="evenodd" d="M77.8484 25.9103V25.9105H77.8485C78.7866 25.9105 79.5471 26.671 79.5471 27.6091C79.5471 28.5427 78.794 29.3003 77.8622 29.3077L77.8485 29.3077C75.0341 29.3077 72.7527 31.5891 72.7527 34.4035L72.7526 34.4035C72.7526 35.3415 71.9921 36.102 71.054 36.102C70.1188 36.102 69.3601 35.3461 69.3554 34.412C69.3555 34.4092 69.3555 34.4063 69.3555 34.4035C69.3555 31.5891 67.074 29.3077 64.2597 29.3077C64.2551 29.3077 64.2505 29.3077 64.2459 29.3077C63.3141 29.3003 62.5611 28.5427 62.5611 27.6091C62.5611 26.671 63.3215 25.9106 64.2596 25.9105V25.9104H64.2597C67.074 25.9104 69.3555 23.6289 69.3555 20.8146L69.3554 20.806C69.3601 19.8719 70.1188 19.1161 71.054 19.1161C71.9921 19.1161 72.7526 19.8765 72.7526 20.8147V20.8147H72.7527C72.7528 23.6289 75.0342 25.9102 77.8484 25.9103Z" fill="#E1B554"/>
<path fill-rule="evenodd" clip-rule="evenodd" d="M91.1542 34.9696V34.9697H91.1542C91.7796 34.9697 92.2866 35.4767 92.2866 36.1021C92.2866 36.7275 91.7796 37.2345 91.1542 37.2345H91.1542V37.2346C89.2779 37.2347 87.757 38.7556 87.757 40.6318L87.757 40.6419C87.7515 41.2627 87.2467 41.7642 86.6246 41.7642C85.9992 41.7642 85.4923 41.2572 85.4922 40.6319H85.4922C85.4922 38.7556 83.9712 37.2347 82.095 37.2347C82.095 37.2347 82.095 37.2347 82.095 37.2347V37.2345C81.4696 37.2345 80.9626 36.7275 80.9626 36.1021C80.9626 35.4767 81.4696 34.9697 82.095 34.9697V34.9696H82.095C83.9711 34.9696 85.492 33.4488 85.4922 31.5727H85.4922V31.5725C85.4922 30.9471 85.9992 30.4401 86.6246 30.4401C87.2467 30.4401 87.7516 30.9416 87.757 31.5624L87.757 31.5724C87.757 33.4486 89.2779 34.9696 91.1542 34.9696Z" fill="#E1B554"/>
<circle r="88" transform="matrix(-1 0 0 1 90 90)" stroke="#2A294C" stroke-width="4"/>
</svg>
