<svg width="18" height="14" viewBox="0 0 18 14" fill="none" xmlns="http://www.w3.org/2000/svg">
<path d="M7.62743 13.9864L5.95934 13.5023C5.78432 13.4531 5.68588 13.2699 5.7351 13.0949L9.4678 0.236892C9.51703 0.0618788 9.70024 -0.0365661 9.87526 0.0126563L11.5434 0.496677C11.7184 0.5459 11.8168 0.729116 11.7676 0.90413L8.03488 13.7621C7.98293 13.9371 7.80244 14.0383 7.62743 13.9864ZM4.51001 10.9182L5.69955 9.64932C5.82534 9.51532 5.81714 9.30203 5.67767 9.17897L3.20014 6.99951L5.67767 4.82005C5.81714 4.69699 5.82808 4.4837 5.69955 4.3497L4.51001 3.08086C4.38695 2.9496 4.17912 2.94139 4.04513 3.06718L0.104598 6.75887C-0.0348659 6.88739 -0.0348659 7.10889 0.104598 7.23742L4.04513 10.9318C4.17912 11.0576 4.38695 11.0522 4.51001 10.9182ZM13.4576 10.9346L17.3981 7.24015C17.5376 7.11163 17.5376 6.89013 17.3981 6.7616L13.4576 3.06445C13.3263 2.94139 13.1185 2.94686 12.9927 3.07812L11.8031 4.34697C11.6773 4.48096 11.6855 4.69426 11.825 4.81731L14.3025 6.99951L11.825 9.17897C11.6855 9.30203 11.6746 9.51532 11.8031 9.64932L12.9927 10.9182C13.1157 11.0522 13.3236 11.0576 13.4576 10.9346Z" fill="#FFFCE8"/>
<path d="M7.62764 13.9864L5.95955 13.5023C5.78453 13.4531 5.68609 13.2699 5.73531 13.0949L9.46802 0.236892C9.51724 0.0618788 9.70046 -0.0365661 9.87547 0.0126563L11.5436 0.496677C11.7186 0.5459 11.817 0.729116 11.7678 0.90413L8.0351 13.7621C7.98314 13.9371 7.80266 14.0383 7.62764 13.9864Z" fill="#E1B554"/>
</svg>
