<svg width="32" height="32" viewBox="0 0 32 32" fill="none" xmlns="http://www.w3.org/2000/svg">
<circle cx="16" cy="16" r="15.7217" fill="#0C0E19" stroke="#2A294C" stroke-width="0.556522"/>
<mask id="mask0" mask-type="alpha" maskUnits="userSpaceOnUse" x="0" y="0" width="32" height="32">
<circle cx="16" cy="16" r="16" fill="#B53B3B"/>
</mask>
<g mask="url(#mask0)">
<path d="M12.8022 21.7523C12.8022 21.7523 7.5911 19.3223 9.22233 17.4361C10.8536 15.5499 16.4991 16.6062 16.4991 16.6062C16.4991 16.6062 21.7857 16.6036 22.1733 18.6641C22.7093 21.5181 20.5031 23.9663 20.5031 23.9663L12.8022 21.7523Z" fill="#E1B554"/>
<path d="M11.2126 17.6626C11.2126 17.6626 11.811 18.7085 12.36 21.3543C12.36 21.3543 12.5395 23.4148 12.0842 24.2188C12.0244 24.3254 11.8032 24.5336 11.8032 24.5336C11.8032 24.5336 10.7521 24.8484 11.2126 26.2585C11.6731 27.6711 13.437 28.2201 13.437 28.2201C13.437 28.2201 15.8098 29.063 17.6543 27.8481C18.1148 27.5437 19.2023 29.906 19.5587 29.5235C20.6332 28.3762 21.9939 24.8327 21.9939 24.8327C21.9939 24.8327 20.7971 23.394 20.55 22.8841C20.3028 22.3742 20.5031 22.7905 20.1129 21.9111" fill="#FB8671"/>
<path d="M11.2126 17.6626C11.2126 17.6626 11.811 18.7085 12.36 21.3543C12.36 21.3543 12.5395 23.4148 12.0842 24.2188C12.0244 24.3254 11.8032 24.5336 11.8032 24.5336C11.8032 24.5336 10.7521 24.8484 11.2126 26.2585C11.6731 27.6711 13.437 28.2201 13.437 28.2201C13.437 28.2201 15.8098 29.063 17.6543 27.8481C18.1148 27.5437 19.3454 30.0751 19.7018 29.6926C20.7763 28.5453 21.9913 24.8327 21.9913 24.8327C21.9913 24.8327 20.7945 23.394 20.5474 22.8841C20.3002 22.3742 20.5005 22.7904 20.1103 21.9111" stroke="#240046" stroke-width="0.307681" stroke-linejoin="round"/>
<path d="M21.3981 11.5436C21.3981 11.5436 21.2836 8.99663 19.8891 8.07304C18.4946 7.14946 16.1714 6.96995 14.5167 7.18848C13.4578 7.32897 12.3157 8.10166 11.6237 8.85614C10.9811 9.55859 12.0451 11.0858 12.0451 11.0858C11.0019 12.1915 11.6237 13.1333 11.6237 13.1333C11.6237 13.1333 12.3261 14.3899 11.1814 15.3186C11.1814 15.3186 11.7538 17.0539 11.863 17.6523C12.0451 18.6253 12.4458 20.985 13.3278 21.3285C14.5687 21.8072 16.2806 21.8722 17.3031 21.932C18.0628 21.9763 19.5535 22.1532 20.3366 21.8306C21.1197 21.508 21.6426 19.3798 21.6426 19.3798C21.6426 19.3798 21.9834 17.0513 22.0641 16.3671C22.1448 15.6855 21.6244 14.3404 21.4579 13.716C21.3512 13.3102 21.4943 12.7326 21.5256 12.3267C21.5438 12.129 21.3981 11.5436 21.3981 11.5436Z" fill="#FB8671"/>
<path d="M19.3192 12.246C19.3192 12.246 19.8863 11.7777 20.4457 11.7517C21.005 11.7231 21.6346 11.9989 21.6346 11.9989C21.6346 11.9989 21.8246 12.1264 21.7751 12.3683C21.7257 12.6103 21.3433 12.4594 21.3433 12.4594C21.3433 12.4594 20.4795 12.2825 19.8577 12.579C19.2333 12.8756 19.3192 12.246 19.3192 12.246Z" fill="#240046"/>
<path d="M21.4292 13.1904L22.8965 12.5244L22.9746 12.6701L21.4292 13.3309V13.1904Z" fill="#E1B554" stroke="#E1B554" stroke-width="0.153841" stroke-miterlimit="10"/>
<path d="M11.2125 15.3185C11.2125 15.3185 11.7849 17.0538 11.8942 17.6521C12.0763 18.6252 12.4769 20.9849 13.3589 21.3283C14.5999 21.807 16.3118 21.872 17.3342 21.9319C18.0939 21.9761 19.5846 22.153 20.3677 21.8304C21.1508 21.5078 21.6738 19.3796 21.6738 19.3796C21.6738 19.3796 22.0146 17.0512 22.0952 16.3669L21.8793 16.869C21.6243 17.4362 21.3564 17.5065 21.3564 17.5065C21.3564 17.5065 21.2575 17.1656 20.5915 16.856C19.9255 16.5438 20.1076 16.2421 20.1076 16.2421L19.2724 16.1848L18.6845 16.2941C18.6038 16.8925 18.2396 16.9965 18.2396 16.9965C16.9648 17.2931 16.5979 18.4821 16.5979 18.4821C16.5979 18.4821 15.9033 18.8359 14.1758 17.8317C12.4483 16.8274 11.9098 14.629 11.9098 14.629L11.2125 15.3185Z" fill="#240046"/>
<path d="M17.5735 18.5756C17.5735 18.5756 18.9732 17.7873 19.2073 17.7379C19.4415 17.6885 19.66 17.7951 19.66 17.7951C19.66 17.7951 19.7875 17.8081 19.9514 17.6885C20.1153 17.5688 20.5186 17.8732 20.5888 17.9434C20.6668 18.0215 20.7163 18.1984 20.8229 18.3233C20.8229 18.3233 20.3546 18.802 19.9956 18.8852C19.6366 18.9685 18.4398 18.9867 17.9559 18.8228C17.8467 18.7864 17.5735 18.5756 17.5735 18.5756Z" fill="#FB7F71"/>
<path opacity="0.3" d="M20.6382 18.1152C20.568 18.045 20.0945 17.712 19.9306 17.8317C19.7667 17.9513 19.6392 17.9383 19.6392 17.9383C19.6392 17.9383 19.4207 17.8317 19.1865 17.8811C19.0981 17.8993 18.8145 18.0216 18.4711 18.1439C18.4711 18.1439 18.9316 17.8134 19.2776 17.7614C19.6236 17.7094 19.66 17.8317 19.66 17.8317L20.0399 17.699C20.0399 17.699 20.4431 17.7952 20.5394 17.9539C20.6382 18.1152 20.6382 18.1152 20.6382 18.1152Z" fill="white"/>
<path opacity="0.3" d="M17.6594 18.6409C17.6594 18.6409 17.8233 18.6565 17.9326 18.6799C18.2864 18.7501 19.8994 18.8022 20.2611 18.7163C20.2611 18.7163 20.3495 18.9687 19.1762 18.9036C18.0054 18.8386 18.1277 18.8386 18.1277 18.8386L17.6594 18.6409Z" fill="black"/>
<path d="M17.5735 18.5756C17.5735 18.5756 18.9732 17.7873 19.2073 17.7379C19.4415 17.6885 19.66 17.7951 19.66 17.7951C19.66 17.7951 19.7875 17.8081 19.9514 17.6885C20.1153 17.5688 20.5186 17.8732 20.5888 17.9434C20.6668 18.0215 20.7163 18.1984 20.8229 18.3233C20.8229 18.3233 20.3546 18.802 19.9956 18.8852C19.6366 18.9685 18.4398 18.9867 17.9559 18.8228C17.8467 18.7864 17.5735 18.5756 17.5735 18.5756Z" stroke="#9E5346" stroke-width="0.0769203" stroke-miterlimit="10" stroke-linecap="round" stroke-linejoin="round"/>
<path d="M17.6594 18.5966C17.6594 18.5966 18.4946 18.3677 19.184 18.3677C19.8786 18.3677 20.0347 18.261 20.0347 18.261C20.0347 18.261 20.2273 18.1517 20.4172 18.2428C20.6071 18.3338 20.6982 18.287 20.6982 18.287" stroke="#9E5346" stroke-width="0.0769203" stroke-miterlimit="10" stroke-linecap="round"/>
<path d="M21.2445 13.3568C21.2445 13.3568 21.1925 12.4931 20.1961 13.1331L19.7954 13.3803L20.2611 13.6456C20.2611 13.6456 20.8283 13.9292 21.0676 13.7055C21.0676 13.7055 21.1899 13.5312 21.2445 13.3568Z" fill="#FFE9E9"/>
<path d="M20.7423 13.7054C20.9118 13.7054 21.0493 13.5179 21.0493 13.2865C21.0493 13.0552 20.9118 12.8677 20.7423 12.8677C20.5727 12.8677 20.4353 13.0552 20.4353 13.2865C20.4353 13.5179 20.5727 13.7054 20.7423 13.7054Z" fill="#37444C"/>
<path d="M20.7424 13.5078C20.8286 13.5078 20.8985 13.4111 20.8985 13.2919C20.8985 13.1726 20.8286 13.0759 20.7424 13.0759C20.6562 13.0759 20.5863 13.1726 20.5863 13.2919C20.5863 13.4111 20.6562 13.5078 20.7424 13.5078Z" fill="black"/>
<path d="M21.1951 13.3568C21.1951 13.3568 21.1925 12.4931 20.1961 13.1331L19.7954 13.3803L20.2897 13.6326C20.2897 13.6326 20.8361 13.911 21.0494 13.6638C21.1144 13.5884 21.1379 13.5312 21.1951 13.3568Z" stroke="#C56858" stroke-width="0.0692282" stroke-miterlimit="10"/>
<path d="M20.8437 13.219C20.8739 13.219 20.8983 13.1852 20.8983 13.1436C20.8983 13.1019 20.8739 13.0681 20.8437 13.0681C20.8135 13.0681 20.7891 13.1019 20.7891 13.1436C20.7891 13.1852 20.8135 13.219 20.8437 13.219Z" fill="#9BB0CF"/>
<path d="M9.81018 16.9576C9.81018 16.9576 9.90384 17.8006 10.3175 18.516L10.5438 18.1934C10.5438 18.1934 10.9393 19.653 11.9982 19.8403L11.66 17.2152L9.81018 16.9576Z" fill="#240046" stroke="#240046" stroke-width="0.153841" stroke-linejoin="round"/>
<path d="M9.27697 14.3663C9.27697 14.3663 8.46786 12.5868 8.93876 10.7552C9.40965 8.92364 10.1095 8.01827 10.1095 8.01827L10.7131 7.65924C10.7131 7.65924 10.2422 7.52656 10.0341 7.65924C9.82592 7.79193 10.6767 5.99679 12.4874 6.28037C12.4874 6.28037 11.9541 5.80947 11.21 5.99679C11.21 5.99679 11.8838 4.97694 13.0728 5.695C13.0728 5.695 12.6383 5.20328 12.2611 5.09141C12.2611 5.09141 12.8829 4.99775 13.4136 5.50768C13.4136 5.50768 13.3746 4.78962 13.2445 4.78962C13.2445 4.78962 14.1707 4.62052 14.3398 5.28133C14.3398 5.28133 14.358 4.7532 13.999 4.54507C13.999 4.54507 14.3398 4.01693 15.0943 5.33857L14.717 4.441C14.717 4.441 15.2842 4.26149 15.6614 5.0732C15.6614 5.0732 15.7551 4.7558 15.5287 4.42279C15.5287 4.42279 16.0907 4.16523 16.6579 5.13044C16.6579 5.13044 17.1314 5.47125 17.6985 5.28133C18.2657 5.09141 19.3792 5.11223 20.2091 5.6976C20.2091 5.6976 19.6211 5.5467 19.3584 5.81207C19.3584 5.81207 20.2741 6.07744 20.6566 6.41565C21.039 6.75647 21.333 7.39648 21.4891 7.69827C21.6426 8.00006 21.1717 7.86737 21.1717 7.86737C21.1717 7.86737 21.5542 8.47356 20.6306 8.82218L20.5473 8.6999C20.3574 8.40592 20.2065 8.26543 19.9151 8.07291C18.5206 7.14932 16.1974 6.96981 14.5427 7.18834C13.4838 7.32883 12.3417 8.10152 11.6497 8.856C11.0071 9.55845 12.0711 11.0856 12.0711 11.0856C11.0279 12.1913 11.6497 13.1331 11.6497 13.1331C11.6497 13.1331 12.3521 14.3897 11.2074 15.3185L9.27697 14.3663Z" fill="#240046"/>
<path d="M17.0663 13.5076C16.931 13.5935 16.6578 13.7444 16.2676 13.7886C15.8773 13.8328 14.8549 13.5076 14.8549 13.5076C14.8549 13.5076 15.2217 12.9769 15.9345 12.7896C16.6474 12.5997 17.0923 13.2917 17.0923 13.2917L17.1781 13.4244C17.1755 13.4218 17.0923 13.4894 17.0663 13.5076Z" fill="#FFE9E9"/>
<path d="M16.2676 13.6926C16.5306 13.6926 16.7437 13.4794 16.7437 13.2165C16.7437 12.9535 16.5306 12.7404 16.2676 12.7404C16.0047 12.7404 15.7915 12.9535 15.7915 13.2165C15.7915 13.4794 16.0047 13.6926 16.2676 13.6926Z" fill="#37444C"/>
<path d="M16.2674 13.4478C16.3953 13.4478 16.499 13.3442 16.499 13.2163C16.499 13.0884 16.3953 12.9847 16.2674 12.9847C16.1396 12.9847 16.0359 13.0884 16.0359 13.2163C16.0359 13.3442 16.1396 13.4478 16.2674 13.4478Z" fill="black"/>
<path d="M16.4315 13.1356C16.4616 13.1356 16.4861 13.1019 16.4861 13.0602C16.4861 13.0185 16.4616 12.9847 16.4315 12.9847C16.4013 12.9847 16.3768 13.0185 16.3768 13.0602C16.3768 13.1019 16.4013 13.1356 16.4315 13.1356Z" fill="#9BB0CF"/>
<path d="M17.0663 13.5076C16.931 13.5935 16.6578 13.7444 16.2676 13.7886C15.8773 13.8328 14.8549 13.5076 14.8549 13.5076C14.8549 13.5076 15.2217 12.9769 15.9345 12.7896C16.6474 12.5997 17.0923 13.2917 17.0923 13.2917L17.1781 13.4244C17.1755 13.4218 17.0923 13.4894 17.0663 13.5076Z" stroke="#C56858" stroke-width="0.0692282" stroke-miterlimit="10"/>
<path d="M14.725 13.1747C14.725 13.1747 15.0866 12.5451 15.8801 12.5113C16.671 12.4775 16.8895 12.6778 16.8895 12.6778" stroke="#C56858" stroke-width="0.0769203" stroke-miterlimit="10" stroke-linecap="round" stroke-linejoin="round"/>
<path d="M14.5895 12.9848C14.5895 12.9848 14.9017 12.7481 15.2451 12.6882" stroke="#C56858" stroke-width="0.0769203" stroke-miterlimit="10" stroke-linecap="round" stroke-linejoin="round"/>
<path d="M20.6774 12.7091C20.6774 12.7091 20.183 12.7325 19.8708 13.0551" stroke="#C56858" stroke-width="0.0769203" stroke-miterlimit="10" stroke-linecap="round" stroke-linejoin="round"/>
<path d="M18.4426 12.0925C17.8963 11.7933 17.4748 11.3432 16.3561 11.3692C15.2374 11.3953 15.2478 11.4395 14.8862 11.5566C14.5688 11.658 14.1499 11.7621 13.6842 12.1706C13.2211 12.579 14.9746 12.1862 16.0127 12.1549C16.4758 12.1393 17.4228 12.4125 18.1278 12.5296C18.5311 12.5972 18.5623 12.1575 18.4426 12.0925Z" fill="#240046"/>
<path opacity="0.2" d="M11.6626 9.07187C11.6938 8.86114 12.3676 8.35642 12.3676 8.35642C12.3676 8.35642 13.0233 7.67999 14.5556 7.26893C16.088 6.85787 16.3898 7.53169 17.8623 7.3808C19.3349 7.2299 20.3963 8.49951 20.745 9.25659C21.0936 10.0137 21.5307 12.4618 21.3902 12.9301C21.2497 13.3984 21.8351 15.6046 21.8351 15.6046C21.5775 14.9828 21.1404 14.2804 20.9661 13.8693C20.8022 13.4817 20.862 12.8911 20.8334 12.4852C20.8464 12.6934 20.8959 12.6179 20.6773 11.6735C20.6773 11.6735 20.0737 9.52196 18.5596 8.8091C17.0454 8.09625 14.7195 8.25235 13.1169 8.70504C12.5992 8.85333 12.2063 8.8065 11.7459 9.18634L11.6626 9.07187Z" fill="white"/>
<path opacity="0.2" d="M12.0814 5.84855C12.4743 5.78871 12.7396 6.06709 12.9634 6.04107C13.0544 6.03066 13.2418 5.80172 13.2418 5.80172L13.1559 5.48172L12.4378 5.13049L11.7406 5.75489L12.0814 5.84855Z" fill="white"/>
<path opacity="0.2" d="M20.7893 8.08604C20.7893 8.08604 20.5161 6.88668 18.8485 6.34033C18.8485 6.34033 18.4816 6.24667 18.669 6.01252C18.669 6.01252 17.7974 6.21545 16.9545 6.10618C16.8218 6.08797 16.7594 5.98911 16.2676 5.87204C15.88 5.78098 15.3649 5.89025 14.9928 5.8148C14.9798 5.8122 14.2045 5.76537 13.9027 5.6613C13.6036 5.55984 13.6764 5.21642 13.6192 5.17219C13.3122 4.93024 13.8247 4.89642 13.7701 4.85739C13.6946 4.80536 14.4621 5.5 14.4231 5.40374C14.241 4.95365 15.1463 4.74812 15.0527 4.59983C14.9538 4.44633 15.6563 5.22162 15.6563 5.22162L15.8618 4.59983L16.9129 5.38813L19.0072 5.35691L19.3662 5.5078L20.7191 6.69416L21.229 7.66457L20.9194 8.54393L20.7893 8.08604Z" fill="white"/>
<path d="M9.27697 14.3663C9.27697 14.3663 8.46786 12.5868 8.93876 10.7552C9.40965 8.92364 10.1095 8.01827 10.1095 8.01827L10.7131 7.65924C10.7131 7.65924 10.2422 7.52656 10.0341 7.65924C9.82592 7.79193 10.6767 5.99679 12.4874 6.28037C12.4874 6.28037 11.9541 5.80947 11.21 5.99679C11.21 5.99679 11.8838 4.97694 13.0728 5.695C13.0728 5.695 12.6383 5.20328 12.2611 5.09141C12.2611 5.09141 12.8829 4.99775 13.4136 5.50768C13.4136 5.50768 13.3746 4.78962 13.2445 4.78962C13.2445 4.78962 14.1707 4.62052 14.3398 5.28133C14.3398 5.28133 14.358 4.7532 13.999 4.54507C13.999 4.54507 14.3398 4.01693 15.0943 5.33857L14.717 4.441C14.717 4.441 15.2842 4.26149 15.6614 5.0732C15.6614 5.0732 15.7551 4.7558 15.5287 4.42279C15.5287 4.42279 16.0907 4.16523 16.6579 5.13044C16.6579 5.13044 17.1314 5.47125 17.6985 5.28133C18.2657 5.09141 19.3792 5.11223 20.2091 5.6976C20.2091 5.6976 19.6211 5.5467 19.3584 5.81207C19.3584 5.81207 20.2741 6.07744 20.6566 6.41565C21.039 6.75647 21.333 7.39648 21.4891 7.69827C21.6426 8.00006 21.1717 7.86737 21.1717 7.86737C21.1717 7.86737 21.5542 8.47356 20.6306 8.82218L20.5473 8.6999C20.3574 8.40592 20.2065 8.26543 19.9151 8.07291C18.5206 7.14932 16.1974 6.96981 14.5427 7.18834C13.4838 7.32883 12.3417 8.10152 11.6497 8.856C11.0071 9.55845 12.0711 11.0856 12.0711 11.0856C11.0279 12.1913 11.6497 13.1331 11.6497 13.1331C11.6497 13.1331 12.3521 14.3897 11.2074 15.3185L9.27697 14.3663Z" stroke="#240046" stroke-width="0.307681" stroke-linejoin="round"/>
<path d="M21.4292 11.5436C21.4292 11.5436 21.3147 8.99663 19.9202 8.07304C18.5258 7.14946 16.2025 6.96995 14.5478 7.18848C13.489 7.32897 12.3468 8.10166 11.6548 8.85614C11.0122 9.55859 12.0763 11.0858 12.0763 11.0858C11.033 12.1915 11.6548 13.1333 11.6548 13.1333C11.6548 13.1333 12.3573 14.3899 11.2125 15.3186C11.2125 15.3186 11.7849 17.0539 11.8942 17.6523C12.0763 18.6253 12.4769 20.985 13.3589 21.3285C14.5999 21.8072 16.3118 21.8722 17.3342 21.932C18.0939 21.9763 19.5846 22.1532 20.3677 21.8306C21.1508 21.508 21.6738 19.3798 21.6738 19.3798C21.6738 19.3798 22.0146 17.0513 22.0952 16.3671C22.1759 15.6855 21.6555 14.3404 21.489 13.716C21.3824 13.3102 21.5255 12.7326 21.5567 12.3267C21.5749 12.129 21.4292 11.5436 21.4292 11.5436Z" stroke="#240046" stroke-width="0.307681" stroke-linejoin="round"/>
<path opacity="0.4" d="M11.5977 14.1686C11.5977 14.1686 12.2819 16.9654 12.3938 17.5637C12.5759 18.5368 13.1248 20.4438 14.0094 20.7846C15.2504 21.2633 16.9284 21.5339 17.9457 21.6535C18.3984 21.7082 19.5951 21.9319 20.2638 21.9189C20.2638 21.9189 16.6527 22.4418 13.4032 21.4896C10.1537 20.5374 13.4032 21.4896 13.4032 21.4896C13.4032 21.4896 12.9713 21.6483 12.5967 20.4255C12.222 19.2028 11.2152 14.9673 11.2152 14.9673C11.2152 14.9673 11.4181 14.7357 11.4546 14.6499C11.5638 14.4418 11.5977 14.1686 11.5977 14.1686Z" fill="black"/>
<path opacity="0.2" d="M14.8029 12.0429C14.9018 11.931 15.0293 11.7879 15.292 11.6994C15.5574 11.6084 15.8592 11.5043 16.5694 11.5615C17.2823 11.6214 17.6829 11.7385 18.12 12.1755C18.5571 12.6126 18.414 13.3567 18.414 13.3567C18.414 13.3567 18.2865 14.0097 18.0732 14.3713C17.8573 14.733 17.7402 14.8995 17.4592 15.0634C17.1756 15.2299 16.8244 15.2793 16.8244 15.2793C16.8244 15.2793 16.4289 15.3938 15.7993 15.2299C15.0449 15.0348 14.7769 14.3999 14.7769 14.3999C14.7769 14.3999 14.4621 13.8328 14.4335 13.3359C14.4049 12.839 14.4127 12.6074 14.5401 12.3811C14.6676 12.1547 14.6988 12.1417 14.7665 12.0793C14.7769 12.0715 14.7951 12.0507 14.8029 12.0429Z" fill="white"/>
<path d="M14.7873 12.0742C14.7873 12.0742 15.0293 11.7881 15.292 11.697C15.5574 11.6059 15.8592 11.5019 16.5694 11.5591C17.2823 11.6189 17.6829 11.736 18.12 12.1731C18.5571 12.6102 18.414 13.3542 18.414 13.3542C18.414 13.3542 18.2865 14.0073 18.0732 14.3689C17.8573 14.7305 17.7402 14.897 17.4592 15.0609C17.1756 15.2274 16.8244 15.2769 16.8244 15.2769C16.8244 15.2769 16.4289 15.3913 15.7993 15.2274C15.0449 15.0323 14.7769 14.3975 14.7769 14.3975C14.7769 14.3975 14.4621 13.8303 14.4335 13.3334C14.4049 12.8365 14.4127 12.605 14.5401 12.3786C14.6676 12.1523 14.7769 12.082 14.7769 12.082L14.7873 12.0742Z" stroke="#E1B554" stroke-width="0.153841" stroke-miterlimit="10"/>
<path d="M18.3619 12.5711L18.7626 12.35C18.7626 12.35 19.4754 12.2485 19.7564 12.4592C19.7564 12.4592 19.7876 12.761 19.9177 12.8521" stroke="#E1B554" stroke-width="0.0769203" stroke-miterlimit="10"/>
<path d="M22.8965 12.4255L23.331 12.4698L23.3596 12.6987H23.0682L22.8965 12.4255Z" fill="#E1B554" stroke="#E1B554" stroke-width="0.153841" stroke-miterlimit="10"/>
<path opacity="0.2" d="M19.9176 13.1593C19.9176 13.1593 19.8655 12.4881 20.235 12.1941C20.6044 11.9001 20.914 11.8324 20.914 11.8324C20.914 11.8324 21.4109 11.7206 21.8246 11.8324C22.2382 11.9443 22.5166 12.0718 22.7221 12.2851C22.8366 12.4022 22.8652 12.4672 22.9303 12.5869C23.0161 12.7482 23.0577 12.9746 23.0655 13.3076C23.0734 13.638 23.0291 13.8799 23.0291 13.8799C23.0291 13.8799 22.9615 14.3092 22.7429 14.6864C22.5244 15.0637 22.2018 15.1834 22.2018 15.1834C22.2018 15.1834 21.8688 15.3291 21.4942 15.316C21.1195 15.303 20.7501 15.0481 20.5758 14.8582C20.4171 14.6838 20.2297 14.3534 20.1153 14.036C20.0008 13.7238 19.9176 13.1593 19.9176 13.1593Z" fill="white"/>
<path opacity="0.2" d="M20.6772 12.2642C20.6929 12.1965 20.9062 12.1029 20.9062 12.1029C20.9062 12.1029 21.0051 12.0612 21.1638 12.0248C21.3199 11.9884 21.528 12.0222 21.528 12.0222C21.528 12.0222 21.7413 12.0534 21.9729 12.1237C22.2044 12.1939 22.4151 12.311 22.5114 12.3813C22.5999 12.4437 22.6961 12.5452 22.7456 12.6284C22.7976 12.7117 22.86 12.873 22.8132 12.8417C22.5738 12.6752 22.3865 12.5764 22.233 12.5087C22.1003 12.4489 21.9286 12.3448 21.6659 12.2928C21.4239 12.2408 20.6772 12.2642 20.6772 12.2642Z" fill="white"/>
<path d="M14.2981 12.3553L14.6467 12.35C14.691 12.2174 14.8705 12.0457 14.8705 12.0457H14.73C14.3657 12.0535 14.1862 12.0821 14.0171 12.0665C13.848 12.0509 13.7205 12.1523 13.7205 12.1523L10.3956 13.9579L10.4555 14.0541L13.5436 12.5218C13.5436 12.5218 13.6165 12.5478 13.7205 12.5322C13.8246 12.5166 13.9131 12.4749 13.9131 12.4749C13.9131 12.4749 13.9703 12.4125 14.0692 12.3969C14.1706 12.3787 14.2981 12.3553 14.2981 12.3553Z" fill="#E1B554" stroke="#E1B554" stroke-width="0.153841" stroke-miterlimit="10"/>
<path opacity="0.4" d="M11.6547 14.1972C11.6547 14.1972 10.497 13.6378 10.1613 13.2918C9.52915 12.6414 9.11288 11.5669 9.58638 9.73535C9.64102 9.52722 9.69825 9.32949 9.75549 9.14478C9.75549 9.14478 8.33499 10.5809 9.20394 13.9058L10.601 14.0515L11.3165 15.3159L11.6547 14.1972Z" fill="black"/>
<path d="M19.9176 13.1593C19.9176 13.1593 19.8655 12.4881 20.235 12.1941C20.6044 11.9001 20.914 11.8324 20.914 11.8324C20.914 11.8324 21.4109 11.7206 21.8246 11.8324C22.2382 11.9443 22.5166 12.0718 22.7221 12.2851C22.8366 12.4022 22.8652 12.4672 22.9303 12.5869C23.0161 12.7482 23.0577 12.9746 23.0655 13.3076C23.0734 13.638 23.0291 13.8799 23.0291 13.8799C23.0291 13.8799 22.9615 14.3092 22.7429 14.6864C22.5244 15.0637 22.2018 15.1834 22.2018 15.1834C22.2018 15.1834 21.8688 15.3291 21.4942 15.316C21.1195 15.303 20.7501 15.0481 20.5758 14.8582C20.4171 14.6838 20.2297 14.3534 20.1153 14.036C20.0008 13.7238 19.9176 13.1593 19.9176 13.1593Z" stroke="#E1B554" stroke-width="0.153841" stroke-miterlimit="10"/>
<path d="M10.6013 14.1763C10.6013 14.1763 10.4035 14.1321 9.93004 14.054C9.45654 13.976 9.19377 14.4937 9.19377 14.4937C9.19377 14.4937 8.80613 15.2586 9.19377 15.8726C9.58142 16.4866 9.65687 17.0798 10.4868 17.5064C11.3167 17.9331 11.8214 17.3373 11.8214 17.3373C11.8214 17.3373 10.9317 14.5301 10.6013 14.1763Z" fill="#FB8671"/>
<path opacity="0.3" d="M10.6375 14.1841C10.6375 14.1841 10.4398 14.1399 9.96627 14.0618C9.49277 13.9838 9.23001 14.5015 9.23001 14.5015C9.23001 14.5015 9.15196 14.4651 9.537 15.0791C9.92204 15.6931 10.0001 16.2863 10.83 16.7129C11.6599 17.137 11.5195 16.4241 11.5195 16.4241C11.5195 16.4241 10.9679 14.5379 10.6375 14.1841Z" fill="black"/>
<path d="M10.6013 14.1763C10.6013 14.1763 10.4035 14.1321 9.93004 14.054C9.45654 13.976 9.19377 14.4937 9.19377 14.4937C9.19377 14.4937 8.80613 15.2586 9.19377 15.8726C9.58142 16.4866 9.65687 17.0798 10.4868 17.5064C11.3167 17.9331 11.6159 17.5038 11.6159 17.5038C11.6159 17.5038 10.9317 14.5301 10.6013 14.1763Z" stroke="#240046" stroke-width="0.307681" stroke-linejoin="round"/>
<path d="M19.2907 12.9614C19.2907 12.9614 19.5873 13.1774 19.7278 13.7445C19.8683 14.3091 20.5473 14.7331 20.6462 15.1312C20.7451 15.5267 20.576 15.7114 20.4901 15.8519C20.4043 15.9923 19.8813 16.2343 19.8813 16.2343C19.8813 16.2343 19.3584 15.9091 18.6221 16.2343C17.8859 16.5595 18.0289 15.5709 18.0992 15.498" fill="#FB8671"/>
<path opacity="0.2" d="M19.1685 12.9901C19.1685 12.9901 19.4182 13.5729 19.5613 14.1374C19.7018 14.702 20.3808 15.1261 20.4797 15.5241C20.4953 15.5866 20.5057 15.6464 20.5083 15.6984C20.5265 15.9768 20.6592 15.0116 20.589 15.1313L19.8319 14.114L19.5067 13.3309L19.1685 12.9901Z" fill="white"/>
<path d="M18.1876 15.5865C18.1174 15.6567 18.1694 16.2109 18.9057 15.8856C19.6419 15.5604 20.1649 15.8856 20.1649 15.8856C20.1649 15.8856 20.3496 15.7998 20.5161 15.7035C20.5161 15.7035 20.5213 16.1744 19.8787 16.2239C19.2361 16.2759 19.2751 16.1094 19.2751 16.1094L18.2553 16.38C18.2553 16.38 17.9457 16.1666 18.0731 15.8388C18.198 15.511 18.1018 15.5344 18.1018 15.5344L18.1876 15.5865Z" fill="#C56858"/>
<path d="M19.2907 12.9614C19.2907 12.9614 19.5873 13.1774 19.7278 13.7445C19.8683 14.3091 20.5473 14.7331 20.6462 15.1312C20.7451 15.5267 20.576 15.7114 20.4901 15.8519C20.4043 15.9923 19.8813 16.2343 19.8813 16.2343C19.8813 16.2343 19.3584 15.9091 18.6221 16.2343C17.8859 16.5595 18.0289 15.5709 18.0992 15.498" stroke="#C56858" stroke-width="0.153841" stroke-linecap="round" stroke-linejoin="round"/>
<path opacity="0.3" d="M12.3234 21.1827L12.4066 20.4542L13.4941 21.4949C13.4941 21.4949 17.1754 22.1479 19.7953 22.1167H20.1179L20.8438 23.6178L21.195 23.8286C20.9686 24.3801 20.7449 24.7938 20.3703 24.9499C19.5872 25.2725 18.0964 25.0956 17.3367 25.0513C16.3143 24.9915 14.5998 24.9291 13.3614 24.4478C12.4769 24.1069 12.5029 22.1557 12.3234 21.1827Z" fill="black"/>
<path opacity="0.2" d="M15.8123 12.1627C15.8279 12.0951 16.0412 12.0014 16.0412 12.0014C16.0412 12.0014 16.1401 11.9598 16.2988 11.9234C16.4549 11.887 16.663 11.9208 16.663 11.9208C16.663 11.9208 16.8763 11.952 17.1079 12.0222C17.3394 12.0925 17.5502 12.2096 17.6464 12.2798C17.7349 12.3423 17.8311 12.4437 17.8806 12.527C17.9326 12.6102 17.995 12.7715 17.9482 12.7403C17.7089 12.5738 17.5215 12.4749 17.368 12.4073C17.2354 12.3475 17.0636 12.2434 16.8009 12.1914C16.5563 12.1419 15.8123 12.1627 15.8123 12.1627Z" fill="white"/>
<path d="M-3.60913 36.3582C-3.46084 34.9585 4.73176 36.5897 8.85798 37.5003C10.4554 37.8541 12.0918 37.992 13.7257 37.9139L21.6295 37.5419L21.3823 34.5344L20.8906 33.9438C20.8906 33.9438 11.764 23.6907 9.02708 18.5629L10.1094 20.7691L10.0729 21.3128L7.31 23.9691L1.13888 27.5984L-0.125521 28.868L-3.60913 36.3582Z" fill="#5A189A"/>
<path opacity="0.3" d="M-0.0864676 29.2502L-1.7203 35.1274C-0.56257 35.1586 4.99456 35.874 8.86061 37.5027L-1.34306 35.8272L-3.41138 35.9417L-0.0864676 29.2502Z" fill="black"/>
<path d="M21.1376 23.1599C21.1376 23.1599 23.4062 26.5473 25.87 28.077C25.87 28.077 27.1526 28.3242 27.8915 29.5053C28.6303 30.6891 29.5669 32.6611 30.8001 35.6166C30.8001 35.6166 31.8798 36.8498 21.775 37.1438L21.3847 34.5317L20.3129 33.2829C20.3129 33.2829 20.3987 34.0322 21.6319 31.3005C22.8625 28.5713 21.1376 23.1599 21.1376 23.1599Z" fill="#5A189A"/>
<path d="M10.7675 21.0031C10.7675 21.0031 15.8485 22.6863 19.3165 29.6379C19.3165 29.6379 19.4231 24.6584 20.9217 23.4928C22.4202 22.3273 22.0664 28.2512 22.0664 28.2512C22.0664 28.2512 22.0066 31.8988 20.8515 32.6845C19.6937 33.4702 16.9152 29.2997 16.9152 29.2997L10.7675 21.0031Z" fill="#9D4EDD"/>
<path opacity="0.3" d="M19.3608 30.153C19.3608 30.153 18.3045 24.7415 10.64 20.6595L9.40686 21.8979C9.40686 21.8979 15.5806 24.0157 19.6626 30.7461" fill="black"/>
<path opacity="0.2" d="M20.1179 25.2232C20.1179 25.2232 20.3208 25.499 20.6773 25.9231C20.81 26.0818 20.9635 26.2613 21.1378 26.4538C21.9521 27.3618 23.1801 28.5845 24.5615 29.4405C24.5615 29.4405 25.8442 29.6876 26.583 30.8688C27.2985 32.0161 28.0139 33.5979 29.1899 36.4051L30.6884 35.7339C30.6884 35.7339 28.438 29.6668 27.0149 28.7823C25.5918 27.8977 23.9684 26.7764 23.9684 26.7764L21.1768 23.3552L20.6226 23.8521L20.1179 25.2232Z" fill="white"/>
<path d="M20.2219 33.1814C20.2219 33.1814 23.1436 32.0367 21.7595 24.0184" stroke="#240046" stroke-width="0.307681" stroke-miterlimit="10"/>
<path d="M-3.60913 36.3581C-3.46084 34.9584 4.73176 36.5896 8.85798 37.5002C10.4554 37.854 12.0918 37.9919 13.7257 37.9139L21.6295 37.5418L21.3823 34.5343L20.8906 33.9438C20.8906 33.9438 13.2678 25.2777 9.87002 19.8896" stroke="#240046" stroke-width="0.307681" stroke-miterlimit="10"/>
<path d="M21.1377 23.1599C21.1377 23.1599 23.4063 26.5473 25.8701 28.077C25.8701 28.077 27.1527 28.3242 27.8916 29.5053C28.6304 30.6891 29.567 32.6611 30.8002 35.6166C30.8002 35.6166 31.7836 36.8498 21.6788 37.1438" stroke="#240046" stroke-width="0.307681" stroke-miterlimit="10"/>
<path d="M10.255 20.6624C10.255 20.6624 9.7997 22.3092 5.0673 25.3661C5.0673 25.3661 0.925474 26.9922 0.0877429 28.8654C-0.749989 30.7385 -3.6092 36.3581 -3.6092 36.3581C-3.6092 36.3581 -4.44693 37.1958 -1.98317 37.8358" stroke="#240046" stroke-width="0.307681" stroke-miterlimit="10"/>
<path d="M9.60203 16.8872C9.60203 16.8872 6.98998 18.3649 11.7718 21.323C16.5536 24.2811 18.6714 28.0769 18.6714 28.0769C18.6714 28.0769 19.033 28.6519 19.1813 29.1956C19.3296 29.7368 20.5784 33.6132 20.5784 33.6132" stroke="#240046" stroke-width="0.307681" stroke-miterlimit="10"/>
<path d="M20.7578 32.4868C20.365 31.2796 19.7354 29.3232 19.6573 28.9641C19.5428 28.4386 19.5585 28.077 19.5585 28.077C19.5585 26.6487 20.2505 24.2317 21.3328 22.9023C22.4177 21.5702 22.4671 19.8948 22.1731 18.6616C22.1055 18.3884 22.0014 18.1543 21.8791 17.9565" stroke="#240046" stroke-width="0.307681" stroke-miterlimit="10" stroke-linecap="round"/>
<circle cx="16" cy="16" r="15.25" stroke="#2A294C" stroke-width="1.5"/>
</g>
</svg>
