<svg width="185" height="32" viewBox="0 0 185 32" fill="none" xmlns="http://www.w3.org/2000/svg">
<path d="M22.356 20.3363C22.356 26.6841 17.065 28.4283 11.3249 28.4283C7.10023 28.4283 3.46429 25.6408 1.83893 21.6383C-0.140751 17.5954 0.00216675 14.4315 0.00216675 11.654C1.12399 13.7708 2.11932 14.0795 2.47676 13.9693C1.89936 13.5558 0.843531 11.8028 1.23947 8.09838C1.6354 4.39394 5.15005 1.07495 6.22238 0C7.45968 5.95357 8.99321 7.51956 13.0351 9.58678C16.2685 11.2405 17.7368 14.0795 18.0667 15.2923C19.2546 14.6308 19.0328 12.5911 18.7734 11.654C20.9682 13.7613 22.356 16.8696 22.356 20.3363Z" fill="#673AB7"/>
<path d="M14.7504 9.07533C15.3389 9.44449 16.206 10.3822 16.6374 10.8144C16.6248 10.502 16.3123 8.42829 15.6162 7.67424C14.8127 6.80397 13.9767 6.84438 12.396 5.63229C11.9839 5.31621 10.6898 4.76023 10.3974 3.53487C10.2686 5.00322 10.6299 5.89971 10.901 6.25839C11.946 7.64079 13.0238 7.99229 14.7504 9.07533Z" fill="#673AB7"/>
<path d="M4.95462 13.7283C4.97014 13.8631 4.989 14.0124 5.00877 14.1523C5.00877 14.1523 5.13378 14.1882 5.31354 14.2484C5.49421 14.2992 5.74515 14.3616 5.98665 14.423C6.2239 14.4793 6.47575 14.5322 6.65824 14.5641L6.96241 14.6174C6.96241 14.6174 6.50677 14.6542 6.03836 14.6755C5.80416 14.6861 5.57087 14.6873 5.39932 14.6898C5.22351 14.687 5.10428 14.6898 5.10428 14.6898L5.16603 14.986C5.18945 15.0882 5.21379 15.181 5.24238 15.2789C5.5429 16.4025 6.11505 17.7189 6.93965 18.9836C6.93965 18.9836 7.10085 18.9897 7.34783 18.9945C7.47124 18.997 7.61866 18.997 7.76608 18.997L7.76636 18.997C7.91903 18.9927 8.08112 18.9894 8.24322 18.986L8.24328 18.986C8.56843 18.9699 8.87898 18.9571 9.11927 18.9328C9.35438 18.9127 9.51316 18.8948 9.51316 18.8948C9.51316 18.8948 9.3851 18.9395 9.18314 19.0103C8.98118 19.0812 8.71474 19.1792 8.44495 19.2625C7.90962 19.4344 7.35727 19.5855 7.35727 19.5855C8.39083 21.0513 9.75197 22.3774 11.1526 23.3933L11.4611 23.5992C11.5508 23.6555 11.6448 23.7169 11.7293 23.7774C11.7737 23.8103 11.8191 23.8337 11.8635 23.8665C11.9036 23.8942 11.9395 23.9167 11.9797 23.9444C12.5323 23.7409 13.2079 23.497 13.7493 23.3114C14.0209 23.2092 14.2563 23.1368 14.4239 23.0769C14.5915 23.017 14.6946 22.9841 14.6946 22.9841C14.6946 22.9841 14.545 23.0553 14.3247 23.1673C14.1045 23.2792 13.8095 23.4267 13.5187 23.5794C12.9329 23.8796 12.3608 24.1859 12.3608 24.1859C12.5624 24.3149 12.765 24.4344 12.9633 24.5488C13.1616 24.6631 13.3505 24.7766 13.5403 24.8806C13.9199 25.0886 14.2834 25.2666 14.611 25.422C14.948 25.5783 15.2604 25.6942 15.5429 25.7739C15.8203 25.8578 16.0783 25.8971 16.2979 25.8898C16.8761 25.8648 17.3633 25.8454 17.7709 25.8134C17.9768 25.8 18.1596 25.7796 18.3278 25.7626L18.3279 25.7626C18.4961 25.7456 18.6402 25.731 18.7707 25.7103C19.2866 25.6412 19.5125 25.5679 19.5125 25.5679L19.8684 25.136C19.8684 25.136 19.8952 24.9578 19.8994 24.6679C19.9037 24.5256 19.897 24.3489 19.8921 24.1533C19.883 23.9525 19.8705 23.7372 19.8358 23.5054C19.8054 23.2788 19.758 23.0315 19.6968 22.7782C19.6357 22.5248 19.5514 22.2644 19.4474 22.0117C19.3443 21.7495 19.2162 21.4992 19.0642 21.2513C18.9902 21.1299 18.9069 21.0077 18.8132 20.8939C18.7195 20.7801 18.6259 20.6664 18.5218 20.5611C18.44 20.4723 18.3488 20.3826 18.2533 20.2877C18.2533 20.2877 18.2463 20.9009 18.2256 21.508C18.2195 21.8167 18.2092 22.1203 18.1967 22.3475C18.1842 22.5747 18.1791 22.7265 18.1791 22.7265C18.1791 22.7265 18.1502 22.5333 18.0969 22.2474C18.0437 21.9615 17.9661 21.5828 17.8937 21.1999C17.8162 20.8212 17.7395 20.4331 17.6769 20.1463C17.6142 19.8595 17.5707 19.6697 17.5707 19.6697C17.3599 19.4875 17.1406 19.2949 16.8982 19.0954C16.6549 18.9053 16.403 18.7049 16.1375 18.4984C16.0043 18.3998 15.8719 18.2918 15.7345 18.1881C15.6234 18.106 15.5133 18.0144 15.3981 17.9271C15.3451 17.884 15.2828 17.8399 15.2299 17.7967C15.1769 17.7535 15.1198 17.7051 15.0668 17.6619C14.961 17.5755 14.8457 17.4882 14.7356 17.3967C14.7356 17.3967 14.6328 17.8198 14.5479 18.2541C14.5081 18.4692 14.4631 18.6885 14.433 18.8521C14.408 19.0115 14.3877 19.1237 14.3877 19.1237C14.3877 19.1237 14.3861 19.0903 14.3822 19.0328C14.3782 18.9753 14.3718 18.8938 14.3673 18.7934C14.353 18.5969 14.3399 18.3387 14.3362 18.0814C14.3292 17.957 14.3274 17.8283 14.3298 17.7048C14.3365 17.5865 14.3381 17.4724 14.3377 17.3772C14.3423 17.1826 14.3447 17.0591 14.3447 17.0591C14.2304 16.9624 14.1212 16.8614 14.0068 16.7647C13.9539 16.7215 13.8967 16.6731 13.8395 16.6247C13.7823 16.5764 13.7346 16.5289 13.6774 16.4806L13.1594 16.0307C13.1159 15.9884 13.0672 15.9504 13.0237 15.9082C12.9751 15.8701 12.9316 15.8279 12.8881 15.7856L12.8881 15.7856C12.8054 15.7062 12.7132 15.6259 12.6253 15.5508C12.5426 15.4714 12.4598 15.392 12.3762 15.322C12.2925 15.2521 12.2089 15.1821 12.1347 15.1131C11.9811 14.9793 11.8266 14.8549 11.69 14.7417C11.5482 14.6328 11.4099 14.5385 11.2894 14.4555C11.1997 14.3992 11.0972 14.3274 10.9852 14.2548C10.8742 14.1726 10.7589 14.0853 10.6351 13.9877C10.6351 13.9877 10.5865 14.0972 10.5126 14.2709C10.4438 14.4403 10.3447 14.6782 10.2601 14.9127C10.1704 15.1514 10.0807 15.3902 10.0247 15.5751C9.96449 15.7549 9.9286 15.8799 9.9286 15.8799C9.9286 15.8799 9.93225 15.8422 9.93347 15.7804C9.93985 15.7144 9.93864 15.6287 9.95384 15.5207C9.96905 15.4127 9.98091 15.2902 9.99368 15.1582L9.99368 15.1581C10.0107 15.0313 10.0244 14.8899 10.0475 14.7493C10.0886 14.4725 10.1287 14.2052 10.1771 14.0005C10.2245 13.8052 10.2519 13.6699 10.2519 13.6699C9.76463 13.2468 9.22412 12.6853 8.75449 12.0308C8.6917 11.944 8.63314 11.8624 8.57459 11.7808L8.57412 11.7801C8.51542 11.6983 8.46189 11.6122 8.40836 11.5262L8.40835 11.5262L8.32592 11.3945L8.24866 11.2585C8.19604 11.163 8.14251 11.0769 8.09415 10.9866C7.90069 10.6252 7.72793 10.2469 7.59713 9.87731C7.32287 9.29842 6.52506 7.94896 6.5066 7.58466L6.0173 8.40153C5.97137 8.48275 5.92544 8.56396 5.87435 8.64943C5.82325 8.7349 5.78584 8.82645 5.739 8.91709C5.69216 9.00773 5.64441 9.1078 5.60182 9.20361C5.55924 9.29942 5.52092 9.40041 5.47743 9.50565C5.43393 9.61089 5.39987 9.71704 5.36063 9.82745C5.33083 9.93877 5.29159 10.0492 5.25661 10.1648C5.22163 10.2803 5.19609 10.3968 5.16537 10.5176C5.15472 10.5784 5.13465 10.6383 5.12401 10.6992C5.10819 10.7643 5.09754 10.8251 5.0869 10.8859C5.06044 11.0119 5.03915 11.1335 5.01695 11.2646C4.99475 11.3957 4.97771 11.5225 4.96494 11.6546L4.94578 11.8526C4.94365 11.9237 4.93727 11.9897 4.93088 12.0557L4.93088 12.0557C4.92754 12.1887 4.91902 12.3258 4.91051 12.463L4.91325 12.8773C4.91538 12.9536 4.91842 13.0205 4.91629 13.0917C4.91416 13.1629 4.92146 13.235 4.92451 13.3019C4.92968 13.4452 4.94002 13.5842 4.95462 13.7283Z" fill="white"/>
<path d="M22.2032 28.0637C22.2184 28.1033 22.2303 28.1282 22.2303 28.1282C22.0368 27.9144 21.8288 27.7039 21.6198 27.5029C21.5106 27.4019 21.4066 27.2967 21.3068 27.1966C21.2028 27.0913 21.0979 26.9955 20.9981 26.8955L20.2684 26.2644L19.6615 25.7488C19.2509 25.4188 18.8549 25.0854 18.4613 24.7761C16.8836 23.5242 15.4026 22.453 14.0324 21.5162C13.6932 21.2835 13.3593 21.0466 13.0295 20.8148L13.029 20.8144C12.8695 20.6944 12.71 20.5744 12.5547 20.4595C12.5146 20.4319 12.4796 20.3999 12.4395 20.3722C12.4045 20.3403 12.3643 20.3126 12.3294 20.2807C12.2594 20.2168 12.1843 20.1572 12.1091 20.0976C11.5227 19.6173 10.9938 19.1331 10.5266 18.6501C10.0594 18.1671 9.64358 17.6938 9.27493 17.2251C9.09274 16.9934 8.92514 16.7582 8.76089 16.5377C8.67664 16.4249 8.60181 16.3129 8.52699 16.201C8.45642 16.0943 8.37643 15.9866 8.31103 15.8756C7.75775 15.0035 7.36781 14.2139 7.08614 13.5348C6.80022 12.8504 6.62684 12.2816 6.50852 11.8324L6.50851 11.8323C6.48175 11.7156 6.45833 11.6134 6.42974 11.5154C6.40115 11.4175 6.38624 11.3256 6.37042 11.2432C6.33453 11.0732 6.30442 10.9418 6.29134 10.8311C6.25575 10.6087 6.24175 10.5074 6.24175 10.5074C6.37072 10.8959 6.56418 11.5522 6.88964 12.3689C6.93283 12.4635 6.97511 12.5675 7.02165 12.6767C7.0402 12.7309 7.06819 12.7859 7.08674 12.8401C7.11473 12.8951 7.13328 12.9492 7.16126 13.0043C7.21723 13.1144 7.26803 13.2288 7.31882 13.3431C7.37905 13.4584 7.43411 13.5779 7.49433 13.6932C7.54939 13.8128 7.61904 13.9289 7.68352 14.0494C7.74801 14.1698 7.81249 14.2903 7.8864 14.4116C7.96032 14.533 8.03332 14.6638 8.10723 14.7852C8.19057 14.9074 8.26873 15.0339 8.3469 15.1605L8.34691 15.1605C8.6742 15.6633 9.04345 16.1749 9.45134 16.6807C9.86866 17.1874 10.3152 17.6874 10.8012 18.1723C11.2873 18.6571 11.8086 19.1215 12.3558 19.5647C12.8978 20.0121 13.4779 20.4108 14.0579 20.8096L14.0579 20.8096C15.2429 21.5952 16.3823 22.4098 17.4208 23.186C18.4583 23.9716 19.3896 24.7232 20.1637 25.3786L21.5213 26.6035C21.5213 26.6035 21.5687 26.7032 21.6408 26.8435C21.7077 26.9879 21.7993 27.1729 21.8899 27.3672C21.9815 27.5521 22.0669 27.7508 22.1296 27.8901C22.1609 27.9597 22.1837 28.019 22.2032 28.0637Z" fill="#673AB7"/>
<path d="M32.2775 21.9893V20.9293H33.1175C33.4108 20.9293 33.6508 20.856 33.8375 20.7093C34.0375 20.5627 34.1375 20.2027 34.1375 19.6293V9.98934C34.1375 9.45601 34.0375 9.12267 33.8375 8.98934C33.6375 8.84267 33.3975 8.76934 33.1175 8.76934H32.2775V7.70934H38.8775C41.0908 7.70934 42.8242 8.28934 44.0775 9.44934C45.3308 10.6093 45.9575 12.3227 45.9575 14.5893C45.9575 16.0427 45.6908 17.3293 45.1575 18.4493C44.6242 19.556 43.8308 20.4227 42.7775 21.0493C41.7375 21.676 40.4375 21.9893 38.8775 21.9893H32.2775ZM38.4175 20.7493C39.7908 20.7493 40.8242 20.2027 41.5175 19.1093C42.2242 18.0027 42.5775 16.496 42.5775 14.5893C42.5775 12.6827 42.2242 11.2627 41.5175 10.3293C40.8242 9.39601 39.7975 8.92934 38.4375 8.92934H37.2975V20.7493H38.4175ZM47.4495 21.9893V20.9293H47.5095C47.9629 20.9293 48.3295 20.8493 48.6095 20.6893C48.9029 20.516 49.0495 20.116 49.0495 19.4893V13.6893C49.0495 13.1027 48.9162 12.7293 48.6495 12.5693C48.3962 12.4093 48.0495 12.3293 47.6095 12.3293H47.5495V11.2693H51.5895L51.9895 12.8293H52.0895C52.3562 12.2293 52.6895 11.7827 53.0895 11.4893C53.4895 11.1827 54.0962 11.0293 54.9095 11.0293C56.4429 11.0293 57.2095 11.5693 57.2095 12.6493C57.2095 13.2627 56.9829 13.7427 56.5295 14.0893C56.0895 14.4227 55.4695 14.5893 54.6695 14.5893C54.6695 14.0427 54.6029 13.6293 54.4695 13.3493C54.3362 13.0693 54.0762 12.9293 53.6895 12.9293C53.3429 12.9293 53.0629 13.0493 52.8495 13.2893C52.6362 13.5293 52.4762 13.8293 52.3695 14.1893C52.2629 14.536 52.1895 14.8893 52.1495 15.2493C52.1095 15.6093 52.0895 15.9027 52.0895 16.1293V19.5893C52.0895 20.176 52.2229 20.5493 52.4895 20.7093C52.7562 20.856 53.0895 20.9293 53.4895 20.9293H54.1295V21.9893H47.4495ZM61.1677 22.1893C60.2877 22.1893 59.541 21.9227 58.9277 21.3893C58.3277 20.856 58.0277 20.036 58.0277 18.9293C58.0277 17.8493 58.401 17.0493 59.1477 16.5293C59.8943 16.0093 61.0143 15.7227 62.5077 15.6693L64.1477 15.6093V14.5093C64.1477 13.8427 64.0743 13.296 63.9277 12.8693C63.7943 12.4427 63.4543 12.2293 62.9077 12.2293C62.401 12.2293 62.0477 12.436 61.8477 12.8493C61.661 13.2493 61.5677 13.7627 61.5677 14.3893C60.6743 14.3893 60.001 14.2893 59.5477 14.0893C59.0943 13.8893 58.8677 13.5427 58.8677 13.0493C58.8677 12.556 59.0543 12.1627 59.4277 11.8693C59.801 11.576 60.301 11.3627 60.9277 11.2293C61.5543 11.0827 62.241 11.0093 62.9877 11.0093C64.3877 11.0093 65.4343 11.2627 66.1277 11.7693C66.8343 12.276 67.1877 13.156 67.1877 14.4093V19.5093C67.1877 20.056 67.2743 20.4293 67.4477 20.6293C67.621 20.8293 67.9343 20.9293 68.3877 20.9293H68.4677V21.9893H64.7477L64.3277 20.6093H64.1477C63.8543 20.9693 63.5743 21.2693 63.3077 21.5093C63.0543 21.736 62.761 21.9027 62.4277 22.0093C62.0943 22.1293 61.6743 22.1893 61.1677 22.1893ZM62.2677 20.7293C62.841 20.7293 63.2943 20.496 63.6277 20.0293C63.9743 19.5627 64.1477 18.9427 64.1477 18.1693V16.6693L63.2477 16.7293C62.4477 16.7693 61.8943 16.9827 61.5877 17.3693C61.281 17.7427 61.1277 18.2893 61.1277 19.0093C61.1277 20.156 61.5077 20.7293 62.2677 20.7293ZM73.8203 26.7893C70.7003 26.7893 69.1403 25.8627 69.1403 24.0093C69.1403 23.3027 69.3736 22.756 69.8403 22.3693C70.307 21.9827 70.9736 21.756 71.8403 21.6893C71.4803 21.5427 71.147 21.3293 70.8403 21.0493C70.5336 20.756 70.3803 20.376 70.3803 19.9093C70.3803 19.4693 70.547 19.0827 70.8803 18.7493C71.2136 18.416 71.6403 18.1027 72.1603 17.8093C71.5736 17.596 71.087 17.2293 70.7003 16.7093C70.3136 16.1893 70.1203 15.5227 70.1203 14.7093C70.1203 13.536 70.4603 12.6293 71.1403 11.9893C71.8203 11.336 72.8736 11.0093 74.3003 11.0093C74.767 11.0093 75.207 11.0693 75.6203 11.1893C76.0336 11.3093 76.387 11.456 76.6803 11.6293C77.027 11.2427 77.3603 10.9627 77.6803 10.7893C78.0003 10.6027 78.3603 10.5093 78.7603 10.5093C79.2403 10.5093 79.6003 10.6227 79.8403 10.8493C80.0803 11.076 80.2003 11.3427 80.2003 11.6493C80.2003 11.9427 80.1003 12.2093 79.9003 12.4493C79.7003 12.676 79.327 12.7893 78.7803 12.7893C78.7803 12.5227 78.7003 12.316 78.5403 12.1693C78.3803 12.0227 78.207 11.9493 78.0203 11.9493C77.7536 11.9493 77.5336 12.0227 77.3603 12.1693C77.627 12.4627 77.8536 12.836 78.0403 13.2893C78.2403 13.7427 78.3403 14.216 78.3403 14.7093C78.3403 15.7227 78.0136 16.5627 77.3603 17.2293C76.707 17.8827 75.687 18.2093 74.3003 18.2093C74.1536 18.2093 73.9536 18.2027 73.7003 18.1893C73.447 18.176 73.2603 18.1627 73.1403 18.1493C72.9536 18.2293 72.787 18.3627 72.6403 18.5493C72.4936 18.7227 72.4203 18.9293 72.4203 19.1693C72.4203 19.3827 72.507 19.5427 72.6803 19.6493C72.8536 19.756 73.0803 19.8093 73.3603 19.8093H75.7803C77.1136 19.8093 78.087 20.0827 78.7003 20.6293C79.3136 21.1627 79.6203 21.9093 79.6203 22.8693C79.6203 24.096 79.147 25.056 78.2003 25.7493C77.2536 26.4427 75.7936 26.7893 73.8203 26.7893ZM74.2403 17.0293C74.7736 17.0293 75.1336 16.8227 75.3203 16.4093C75.507 15.9827 75.6003 15.4093 75.6003 14.6893C75.6003 13.9427 75.5003 13.3427 75.3003 12.8893C75.1136 12.436 74.7536 12.2093 74.2203 12.2093C73.7003 12.2093 73.3403 12.4427 73.1403 12.9093C72.9403 13.376 72.8403 13.976 72.8403 14.7093C72.8403 15.4027 72.9403 15.9627 73.1403 16.3893C73.3536 16.816 73.7203 17.0293 74.2403 17.0293ZM73.8603 25.5893C75.0336 25.5893 75.887 25.416 76.4203 25.0693C76.9536 24.736 77.2203 24.2427 77.2203 23.5893C77.2203 23.1627 77.087 22.8627 76.8203 22.6893C76.5536 22.5293 76.147 22.4493 75.6003 22.4493H73.2803C73.0136 22.4493 72.7403 22.4827 72.4603 22.5493C72.1936 22.6293 71.967 22.776 71.7803 22.9893C71.5936 23.2027 71.5003 23.5293 71.5003 23.9693C71.5003 25.0493 72.287 25.5893 73.8603 25.5893ZM86.3917 22.1893C84.7917 22.1893 83.5317 21.7293 82.6117 20.8093C81.6917 19.876 81.2317 18.4693 81.2317 16.5893C81.2317 14.7093 81.6717 13.3093 82.5517 12.3893C83.4317 11.4693 84.7317 11.0093 86.4517 11.0093C88.0517 11.0093 89.3117 11.4693 90.2317 12.3893C91.1517 13.3093 91.6117 14.7093 91.6117 16.5893C91.6117 18.4693 91.1651 19.876 90.2717 20.8093C89.3917 21.7293 88.0984 22.1893 86.3917 22.1893ZM86.4317 20.9293C87.2051 20.9293 87.7451 20.5627 88.0517 19.8293C88.3584 19.0827 88.5117 18.0027 88.5117 16.5893C88.5117 15.1627 88.3517 14.0893 88.0317 13.3693C87.7251 12.6493 87.1851 12.2893 86.4117 12.2893C85.6384 12.2893 85.0984 12.6493 84.7917 13.3693C84.4851 14.0893 84.3317 15.1627 84.3317 16.5893C84.3317 18.0027 84.4851 19.0827 84.7917 19.8293C85.1117 20.5627 85.6584 20.9293 86.4317 20.9293ZM92.9573 21.9893V20.9293H92.9973C93.4507 20.9293 93.824 20.8493 94.1173 20.6893C94.4107 20.5293 94.5573 20.1493 94.5573 19.5493V13.6293C94.5573 13.0693 94.424 12.716 94.1573 12.5693C93.904 12.4093 93.5573 12.3293 93.1173 12.3293H93.0573V11.2693H97.2573L97.5173 12.6893H97.6173C97.884 12.1827 98.1707 11.816 98.4773 11.5893C98.7973 11.3493 99.1373 11.196 99.4973 11.1293C99.8707 11.0493 100.264 11.0093 100.677 11.0093C101.704 11.0093 102.511 11.316 103.097 11.9293C103.684 12.5427 103.977 13.5227 103.977 14.8693V19.5093C103.977 20.1227 104.084 20.516 104.297 20.6893C104.524 20.8493 104.864 20.9293 105.317 20.9293H105.377V21.9893H100.937V15.4093C100.937 14.5427 100.817 13.876 100.577 13.4093C100.337 12.9427 99.924 12.7093 99.3373 12.7093C98.8973 12.7093 98.5507 12.856 98.2973 13.1493C98.044 13.4293 97.864 13.8093 97.7573 14.2893C97.6507 14.756 97.5973 15.2627 97.5973 15.8093V19.6293C97.5973 20.1893 97.724 20.5493 97.9773 20.7093C98.244 20.856 98.5973 20.9293 99.0373 20.9293H99.0973V21.9893H92.9573ZM106.797 12.7893C107.384 12.576 107.824 12.3627 108.117 12.1493C108.411 11.9227 108.557 11.616 108.557 11.2293C108.557 11.0427 108.484 10.9027 108.337 10.8093C108.191 10.7027 108.017 10.596 107.817 10.4893C107.631 10.3693 107.464 10.2093 107.317 10.0093C107.171 9.79601 107.097 9.48934 107.097 9.08934C107.097 8.63601 107.231 8.29601 107.497 8.06934C107.777 7.82934 108.124 7.70934 108.537 7.70934C109.097 7.70934 109.544 7.90934 109.877 8.30934C110.211 8.69601 110.377 9.22934 110.377 9.90934C110.377 10.7627 110.104 11.5427 109.557 12.2493C109.024 12.956 108.104 13.4827 106.797 13.8293V12.7893ZM115.127 22.1893C113.673 22.1893 112.64 21.9693 112.027 21.5293C111.413 21.076 111.107 20.516 111.107 19.8493C111.107 19.4093 111.213 19.0827 111.427 18.8693C111.64 18.656 111.893 18.516 112.187 18.4493C112.48 18.3693 112.74 18.3293 112.967 18.3293C112.967 19.156 113.16 19.8093 113.547 20.2893C113.947 20.7693 114.473 21.0093 115.127 21.0093C115.82 21.0093 116.32 20.876 116.627 20.6093C116.947 20.3427 117.107 20.0227 117.107 19.6493C117.107 19.2093 116.933 18.8493 116.587 18.5693C116.24 18.2893 115.593 17.9827 114.647 17.6493C113.567 17.276 112.74 16.836 112.167 16.3293C111.593 15.8093 111.307 15.1027 111.307 14.2093C111.307 13.1427 111.7 12.3493 112.487 11.8293C113.273 11.296 114.313 11.0293 115.607 11.0293C116.447 11.0293 117.12 11.1227 117.627 11.3093C118.147 11.4827 118.52 11.716 118.747 12.0093C118.987 12.2893 119.107 12.5827 119.107 12.8893C119.107 13.3427 118.947 13.6893 118.627 13.9293C118.32 14.156 117.8 14.2693 117.067 14.2693C117.067 13.6027 116.92 13.0893 116.627 12.7293C116.333 12.356 115.893 12.1693 115.307 12.1693C114.88 12.1693 114.5 12.276 114.167 12.4893C113.847 12.6893 113.687 12.996 113.687 13.4093C113.687 13.6893 113.76 13.936 113.907 14.1493C114.067 14.3627 114.347 14.5693 114.747 14.7693C115.147 14.9693 115.707 15.196 116.427 15.4493C117.32 15.756 118.047 16.1627 118.607 16.6693C119.18 17.1627 119.467 17.8293 119.467 18.6693C119.467 19.776 119.087 20.6427 118.327 21.2693C117.58 21.8827 116.513 22.1893 115.127 22.1893ZM137.007 26.7893C136.207 26.7893 135.434 26.6293 134.687 26.3093C133.941 25.9893 133.314 25.4827 132.807 24.7893C132.301 24.096 132.001 23.1893 131.907 22.0693C130.107 21.7893 128.767 21.0027 127.887 19.7093C127.007 18.416 126.567 16.7827 126.567 14.8093C126.567 13.3293 126.814 12.0427 127.307 10.9493C127.814 9.85601 128.567 9.00934 129.567 8.40934C130.581 7.79601 131.847 7.48934 133.367 7.48934C134.807 7.48934 136.027 7.79601 137.027 8.40934C138.041 9.00934 138.807 9.86268 139.327 10.9693C139.847 12.0627 140.107 13.3493 140.107 14.8293C140.107 16.696 139.687 18.2627 138.847 19.5293C138.021 20.7827 136.821 21.6027 135.247 21.9893C135.327 22.9627 135.507 23.7093 135.787 24.2293C136.081 24.7627 136.434 25.1293 136.847 25.3293C137.261 25.5293 137.687 25.6293 138.127 25.6293H138.447V26.7893H137.007ZM133.347 20.8893C134.601 20.8893 135.481 20.356 135.987 19.2893C136.494 18.2227 136.747 16.736 136.747 14.8293C136.747 12.9227 136.494 11.4427 135.987 10.3893C135.481 9.32267 134.607 8.78934 133.367 8.78934C132.114 8.78934 131.227 9.32267 130.707 10.3893C130.187 11.4427 129.927 12.9227 129.927 14.8293C129.927 16.736 130.187 18.2227 130.707 19.2893C131.227 20.356 132.107 20.8893 133.347 20.8893ZM146.37 22.1893C145.33 22.1893 144.53 21.8693 143.97 21.2293C143.41 20.576 143.13 19.576 143.13 18.2293V13.7493C143.13 13.1627 143.023 12.7827 142.81 12.6093C142.596 12.4227 142.25 12.3293 141.77 12.3293H141.73V11.2693H146.17V17.6693C146.17 18.5227 146.276 19.2093 146.49 19.7293C146.703 20.236 147.103 20.4893 147.69 20.4893C148.33 20.4893 148.79 20.216 149.07 19.6693C149.363 19.1227 149.51 18.3827 149.51 17.4493V13.6093C149.51 13.0227 149.363 12.6627 149.07 12.5293C148.79 12.396 148.456 12.3293 148.07 12.3293H148.01V11.2693H152.55V19.6693C152.55 20.2427 152.676 20.596 152.93 20.7293C153.183 20.8627 153.503 20.9293 153.89 20.9293H154.05V21.9893H150.07L149.63 20.5693H149.53C149.13 21.2627 148.656 21.7093 148.11 21.9093C147.576 22.096 146.996 22.1893 146.37 22.1893ZM157.97 9.46934C157.49 9.46934 157.083 9.35601 156.75 9.12934C156.43 8.88934 156.27 8.52267 156.27 8.02934C156.27 7.52267 156.43 7.15601 156.75 6.92934C157.083 6.70267 157.49 6.58934 157.97 6.58934C158.436 6.58934 158.836 6.70267 159.17 6.92934C159.516 7.15601 159.69 7.52267 159.69 8.02934C159.69 8.52267 159.516 8.88934 159.17 9.12934C158.836 9.35601 158.436 9.46934 157.97 9.46934ZM154.89 21.9893V20.9293H155.13C155.33 20.9293 155.536 20.9027 155.75 20.8493C155.976 20.7827 156.163 20.656 156.31 20.4693C156.47 20.2827 156.55 20.0027 156.55 19.6293V13.5493C156.55 13.1893 156.47 12.9227 156.31 12.7493C156.15 12.576 155.956 12.4627 155.73 12.4093C155.516 12.356 155.316 12.3293 155.13 12.3293H154.89V11.2693H159.59V19.6293C159.59 20.0027 159.663 20.2827 159.81 20.4693C159.97 20.656 160.163 20.7827 160.39 20.8493C160.616 20.9027 160.823 20.9293 161.01 20.9293H161.25V21.9893H154.89ZM161.921 21.9893V20.9293H162.161C162.361 20.9293 162.567 20.9027 162.781 20.8493C163.007 20.7827 163.194 20.656 163.341 20.4693C163.501 20.2827 163.581 20.0027 163.581 19.6293V9.06934C163.581 8.70934 163.501 8.44267 163.341 8.26934C163.181 8.09601 162.987 7.98267 162.761 7.92934C162.547 7.87601 162.347 7.84934 162.161 7.84934H161.921V6.78934H166.621V19.6293C166.621 20.0027 166.694 20.2827 166.841 20.4693C167.001 20.656 167.194 20.7827 167.421 20.8493C167.647 20.9027 167.854 20.9293 168.041 20.9293H168.281V21.9893H161.921ZM168.952 21.9893V20.9293H169.192C169.392 20.9293 169.599 20.9027 169.812 20.8493C170.039 20.7827 170.225 20.656 170.372 20.4693C170.532 20.2827 170.612 20.0027 170.612 19.6293V9.06934C170.612 8.70934 170.532 8.44267 170.372 8.26934C170.212 8.09601 170.019 7.98267 169.792 7.92934C169.579 7.87601 169.379 7.84934 169.192 7.84934H168.952V6.78934H173.652V19.6293C173.652 20.0027 173.725 20.2827 173.872 20.4693C174.032 20.656 174.225 20.7827 174.452 20.8493C174.679 20.9027 174.885 20.9293 175.072 20.9293H175.312V21.9893H168.952Z" fill="#FFFCE8"/>
</svg>
