<svg width="213" height="24" viewBox="0 0 213 24" fill="none" xmlns="http://www.w3.org/2000/svg">
<path d="M27.4848 6.1744L26.064 5.9248V4.7344H31.9008V5.9248L30.288 6.1744V10.9936H36.1248V6.1744L34.6464 5.9248V4.7344H40.4064V5.9248L38.9472 6.1744V17.656L40.4064 17.848V19H34.6272V17.848L36.1248 17.656V12.4528H30.288V17.656L31.9008 17.848V19H26.0256V17.848L27.4848 17.656V6.1744ZM44.3801 6.5776C43.9193 6.5776 43.5545 6.4432 43.2857 6.1744C43.0169 5.9056 42.8825 5.56 42.8825 5.1376C42.8825 4.6512 43.0361 4.248 43.3433 3.928C43.6505 3.608 44.0601 3.448 44.5721 3.448C45.0841 3.448 45.4745 3.5888 45.7433 3.8704C46.0121 4.1392 46.1465 4.4784 46.1465 4.888C46.1465 5.4 45.9929 5.8096 45.6857 6.1168C45.3785 6.424 44.9497 6.5776 44.3993 6.5776H44.3801ZM43.3625 10.1488L41.9993 9.784V8.4976L45.5129 8.0752H45.5513L46.0889 8.4592V17.6944L47.3753 17.848V19H42.0185V17.848L43.3625 17.6752V10.1488ZM51.9771 19.1728C51.1707 19.1728 50.5755 18.9872 50.1915 18.616C49.8075 18.2448 49.6155 17.656 49.6155 16.8496V9.8032H48.3675V8.8048C48.4699 8.7664 48.6555 8.7024 48.9243 8.6128C49.1931 8.5104 49.3979 8.4272 49.5387 8.3632C49.7563 8.1968 49.9419 7.9088 50.0955 7.4992C50.2107 7.2304 50.4219 6.5648 50.7291 5.5024H52.2651L52.3419 8.3248H55.2795V9.8032H52.3611V15.1984C52.3611 15.9152 52.3803 16.4208 52.4187 16.7152C52.4571 17.0096 52.5403 17.2016 52.6683 17.2912C52.7963 17.368 53.0203 17.4064 53.3403 17.4064C53.6603 17.4064 53.9931 17.3744 54.3387 17.3104C54.6843 17.2336 54.9723 17.144 55.2027 17.0416L55.5675 18.1168C55.2091 18.3856 54.6843 18.6288 53.9931 18.8464C53.3019 19.064 52.6299 19.1728 51.9771 19.1728ZM67.2066 13.3168C67.2066 14.392 66.9826 15.3776 66.5346 16.2736C66.0994 17.1696 65.453 17.8864 64.5954 18.424C63.7506 18.9488 62.7394 19.2112 61.5618 19.2112C61.3058 19.2112 61.037 19.1856 60.7554 19.1344C60.4866 19.096 60.269 19.0448 60.1026 18.9808L60.1602 20.5744V22.3216L61.9458 22.552V23.6464H56.2434V22.552L57.4914 22.3216V10.1488L56.2434 9.8032V8.4784L59.4114 8.0752H59.4498L59.9298 8.4592V9.5344C60.2498 9.1376 60.685 8.792 61.2354 8.4976C61.7858 8.2032 62.3874 8.056 63.0402 8.056C64.2562 8.056 65.2546 8.4912 66.0354 9.3616C66.8162 10.2192 67.2066 11.5376 67.2066 13.3168ZM62.0418 9.6496C61.6578 9.6496 61.293 9.7328 60.9474 9.8992C60.6018 10.0656 60.3394 10.2512 60.1602 10.456V17.5792C60.2498 17.7072 60.429 17.816 60.6978 17.9056C60.9794 17.9952 61.2866 18.04 61.6194 18.04C62.4514 18.04 63.1106 17.6816 63.597 16.9648C64.0962 16.2352 64.3458 15.096 64.3458 13.5472C64.3458 12.2416 64.1346 11.2688 63.7122 10.6288C63.2898 9.976 62.733 9.6496 62.0418 9.6496ZM68.7765 13.6816C68.7765 12.4784 69.0133 11.4544 69.4869 10.6096C69.9733 9.7648 70.6197 9.1312 71.4261 8.7088C72.2325 8.2736 73.1093 8.056 74.0565 8.056C75.6693 8.056 76.9109 8.5552 77.7813 9.5536C78.6645 10.5392 79.1061 11.8832 79.1061 13.5856C79.1061 14.8016 78.8629 15.8384 78.3765 16.696C77.9029 17.5408 77.2629 18.1744 76.4565 18.5968C75.6629 19.0064 74.7861 19.2112 73.8261 19.2112C72.2261 19.2112 70.9845 18.7184 70.1013 17.7328C69.2181 16.7344 68.7765 15.384 68.7765 13.6816ZM73.9797 17.9632C75.4261 17.9632 76.1493 16.568 76.1493 13.7776C76.1493 12.3184 75.9765 11.2112 75.6309 10.456C75.2853 9.688 74.7221 9.304 73.9413 9.304C72.4565 9.304 71.7141 10.6992 71.7141 13.4896C71.7141 14.9488 71.8933 16.0624 72.2517 16.8304C72.6229 17.5856 73.1989 17.9632 73.9797 17.9632ZM83.1363 6.5776C82.6755 6.5776 82.3107 6.4432 82.0419 6.1744C81.7731 5.9056 81.6387 5.56 81.6387 5.1376C81.6387 4.6512 81.7923 4.248 82.0995 3.928C82.4067 3.608 82.8163 3.448 83.3283 3.448C83.8403 3.448 84.2307 3.5888 84.4995 3.8704C84.7683 4.1392 84.9027 4.4784 84.9027 4.888C84.9027 5.4 84.7491 5.8096 84.4419 6.1168C84.1347 6.424 83.7059 6.5776 83.1555 6.5776H83.1363ZM82.1187 10.1488L80.7555 9.784V8.4976L84.2691 8.0752H84.3075L84.8451 8.4592V17.6944L86.1315 17.848V19H80.7747V17.848L82.1187 17.6752V10.1488ZM88.583 10.1488L87.3542 9.8032V8.4784L90.5414 8.0752H90.599L91.079 8.4592V9.208L91.0598 9.6688C91.5078 9.2464 92.0902 8.8816 92.807 8.5744C93.5238 8.2672 94.247 8.1136 94.9766 8.1136C95.7574 8.1136 96.3654 8.2608 96.8006 8.5552C97.2486 8.8368 97.5686 9.2848 97.7606 9.8992C97.9526 10.5136 98.0486 11.3456 98.0486 12.3952V17.6944L99.2198 17.848V19H94.2662V17.848L95.303 17.6944V12.3952C95.303 11.7296 95.2582 11.2112 95.1686 10.84C95.079 10.456 94.9126 10.1808 94.6694 10.0144C94.439 9.8352 94.1062 9.7456 93.671 9.7456C92.9414 9.7456 92.1606 10.0592 91.3286 10.6864V17.6752L92.4806 17.848V19H87.4694V17.848L88.583 17.6752V10.1488ZM103.802 19.1728C102.996 19.1728 102.401 18.9872 102.017 18.616C101.633 18.2448 101.441 17.656 101.441 16.8496V9.8032H100.193V8.8048C100.295 8.7664 100.481 8.7024 100.749 8.6128C101.018 8.5104 101.223 8.4272 101.364 8.3632C101.581 8.1968 101.767 7.9088 101.921 7.4992C102.036 7.2304 102.247 6.5648 102.554 5.5024H104.09L104.167 8.3248H107.105V9.8032H104.186V15.1984C104.186 15.9152 104.205 16.4208 104.244 16.7152C104.282 17.0096 104.365 17.2016 104.493 17.2912C104.621 17.368 104.845 17.4064 105.165 17.4064C105.485 17.4064 105.818 17.3744 106.164 17.3104C106.509 17.2336 106.797 17.144 107.028 17.0416L107.393 18.1168C107.034 18.3856 106.509 18.6288 105.818 18.8464C105.127 19.064 104.455 19.1728 103.802 19.1728ZM119.383 19.2112C117.207 19.2112 115.543 18.5648 114.391 17.272C113.239 15.9664 112.663 14.1872 112.663 11.9344C112.663 10.4496 112.964 9.1568 113.565 8.056C114.18 6.9424 115.018 6.0848 116.081 5.4832C117.143 4.8816 118.346 4.5808 119.69 4.5808C120.253 4.5808 120.797 4.6192 121.322 4.696C121.847 4.76 122.468 4.8496 123.185 4.9648C123.722 5.0544 124.017 5.0992 124.068 5.0992L123.857 9.0544H122.09L121.495 6.3088C121.354 6.168 121.111 6.0528 120.765 5.9632C120.42 5.8736 119.978 5.8288 119.441 5.8288C118.353 5.8288 117.476 6.3344 116.81 7.3456C116.157 8.344 115.831 9.7968 115.831 11.704C115.831 13.5472 116.145 15.0512 116.772 16.216C117.399 17.3808 118.314 17.9632 119.517 17.9632C120.093 17.9632 120.535 17.912 120.842 17.8096C121.162 17.6944 121.431 17.5344 121.649 17.3296L122.493 15.352L124.106 15.5056L123.722 18.4816C123.453 18.5072 123.185 18.5584 122.916 18.6352C122.66 18.6992 122.5 18.7376 122.436 18.7504C121.924 18.8912 121.444 19 120.996 19.0768C120.561 19.1664 120.023 19.2112 119.383 19.2112ZM125.397 16.0048C125.397 14.84 125.979 13.9632 127.144 13.3744C128.321 12.7856 129.838 12.4848 131.694 12.472V12.0304C131.694 11.5056 131.637 11.096 131.521 10.8016C131.419 10.5072 131.221 10.2896 130.926 10.1488C130.645 9.9952 130.229 9.9184 129.678 9.9184C129.051 9.9184 128.488 10.0016 127.989 10.168C127.489 10.3216 126.971 10.5264 126.433 10.7824L125.838 9.5536C126.03 9.3872 126.35 9.1888 126.798 8.9584C127.259 8.728 127.803 8.5296 128.43 8.3632C129.057 8.184 129.704 8.0944 130.369 8.0944C131.355 8.0944 132.123 8.2224 132.673 8.4784C133.237 8.7344 133.64 9.144 133.883 9.7072C134.126 10.2704 134.248 11.0256 134.248 11.9728V17.848H135.285V18.9232C135.029 18.9872 134.664 19.0512 134.19 19.1152C133.717 19.1792 133.301 19.2112 132.942 19.2112C132.507 19.2112 132.213 19.1472 132.059 19.0192C131.918 18.8912 131.848 18.6288 131.848 18.232V17.7136C131.502 18.0976 131.054 18.4432 130.504 18.7504C129.953 19.0576 129.333 19.2112 128.641 19.2112C128.053 19.2112 127.509 19.0896 127.009 18.8464C126.523 18.5904 126.133 18.2256 125.838 17.752C125.544 17.2656 125.397 16.6832 125.397 16.0048ZM129.87 17.6176C130.139 17.6176 130.446 17.5408 130.792 17.3872C131.137 17.2208 131.438 17.0224 131.694 16.792V13.6432C130.542 13.6432 129.678 13.8416 129.102 14.2384C128.539 14.6224 128.257 15.1216 128.257 15.736C128.257 16.3504 128.398 16.8176 128.68 17.1376C128.974 17.4576 129.371 17.6176 129.87 17.6176ZM137.596 4.9648L136.176 4.7152V3.6784L139.728 3.256H139.766L140.284 3.6208V17.6944L141.686 17.848V19H136.252V17.848L137.596 17.6752V4.9648ZM142.758 13.72C142.758 12.6192 142.976 11.64 143.411 10.7824C143.859 9.9248 144.493 9.2592 145.312 8.7856C146.144 8.2992 147.11 8.056 148.211 8.056C148.723 8.056 149.165 8.0944 149.536 8.1712C149.907 8.248 150.323 8.3504 150.784 8.4784L151.341 8.632L151.225 11.9152H149.555L149.075 9.8032C148.998 9.4704 148.621 9.304 147.942 9.304C147.225 9.304 146.662 9.6176 146.253 10.2448C145.856 10.872 145.651 11.8512 145.638 13.1824C145.638 14.5904 145.881 15.672 146.368 16.4272C146.854 17.1696 147.501 17.5408 148.307 17.5408C149.28 17.5408 150.176 17.2784 150.995 16.7536L151.437 17.752C151.104 18.1104 150.592 18.4432 149.901 18.7504C149.222 19.0576 148.486 19.2112 147.693 19.2112C146.054 19.2112 144.819 18.7056 143.987 17.6944C143.168 16.6832 142.758 15.3584 142.758 13.72ZM161.623 19.192C161.201 19.192 160.894 19.1024 160.702 18.9232C160.51 18.744 160.414 18.4752 160.414 18.1168V17.5984C160.068 18.0208 159.582 18.3984 158.954 18.7312C158.327 19.0512 157.7 19.2112 157.073 19.2112C155.844 19.2112 154.967 18.8976 154.442 18.2704C153.918 17.6304 153.655 16.5808 153.655 15.1216V9.7072L152.695 9.4384V8.344L155.959 8.0944H155.978L156.362 8.3632V15.1216C156.362 16.056 156.478 16.7088 156.708 17.08C156.938 17.4512 157.367 17.6368 157.994 17.6368C158.75 17.6368 159.454 17.3424 160.106 16.7536V9.7072L158.82 9.4192V8.344L162.295 8.0944H162.334L162.794 8.3632V17.8096H163.87L163.85 18.904C163.799 18.9168 163.562 18.968 163.14 19.0576C162.718 19.1472 162.212 19.192 161.623 19.192ZM166.34 4.9648L164.919 4.7152V3.6784L168.471 3.256H168.51L169.028 3.6208V17.6944L170.43 17.848V19H164.996V17.848L166.34 17.6752V4.9648ZM171.54 16.0048C171.54 14.84 172.123 13.9632 173.288 13.3744C174.465 12.7856 175.982 12.4848 177.838 12.472V12.0304C177.838 11.5056 177.78 11.096 177.665 10.8016C177.563 10.5072 177.364 10.2896 177.07 10.1488C176.788 9.9952 176.372 9.9184 175.822 9.9184C175.195 9.9184 174.632 10.0016 174.132 10.168C173.633 10.3216 173.115 10.5264 172.577 10.7824L171.982 9.5536C172.174 9.3872 172.494 9.1888 172.942 8.9584C173.403 8.728 173.947 8.5296 174.574 8.3632C175.201 8.184 175.848 8.0944 176.513 8.0944C177.499 8.0944 178.267 8.2224 178.817 8.4784C179.38 8.7344 179.784 9.144 180.027 9.7072C180.27 10.2704 180.392 11.0256 180.392 11.9728V17.848H181.428V18.9232C181.172 18.9872 180.808 19.0512 180.334 19.1152C179.86 19.1792 179.444 19.2112 179.086 19.2112C178.651 19.2112 178.356 19.1472 178.203 19.0192C178.062 18.8912 177.992 18.6288 177.992 18.232V17.7136C177.646 18.0976 177.198 18.4432 176.648 18.7504C176.097 19.0576 175.476 19.2112 174.785 19.2112C174.196 19.2112 173.652 19.0896 173.153 18.8464C172.667 18.5904 172.276 18.2256 171.982 17.752C171.688 17.2656 171.54 16.6832 171.54 16.0048ZM176.014 17.6176C176.283 17.6176 176.59 17.5408 176.936 17.3872C177.281 17.2208 177.582 17.0224 177.838 16.792V13.6432C176.686 13.6432 175.822 13.8416 175.246 14.2384C174.683 14.6224 174.401 15.1216 174.401 15.736C174.401 16.3504 174.542 16.8176 174.824 17.1376C175.118 17.4576 175.515 17.6176 176.014 17.6176ZM185.852 19.1728C185.046 19.1728 184.451 18.9872 184.067 18.616C183.683 18.2448 183.491 17.656 183.491 16.8496V9.8032H182.243V8.8048C182.345 8.7664 182.531 8.7024 182.799 8.6128C183.068 8.5104 183.273 8.4272 183.414 8.3632C183.631 8.1968 183.817 7.9088 183.971 7.4992C184.086 7.2304 184.297 6.5648 184.604 5.5024H186.14L186.217 8.3248H189.155V9.8032H186.236V15.1984C186.236 15.9152 186.255 16.4208 186.294 16.7152C186.332 17.0096 186.415 17.2016 186.543 17.2912C186.671 17.368 186.895 17.4064 187.215 17.4064C187.535 17.4064 187.868 17.3744 188.214 17.3104C188.559 17.2336 188.847 17.144 189.078 17.0416L189.443 18.1168C189.084 18.3856 188.559 18.6288 187.868 18.8464C187.177 19.064 186.505 19.1728 185.852 19.1728ZM190.464 13.6816C190.464 12.4784 190.701 11.4544 191.174 10.6096C191.661 9.7648 192.307 9.1312 193.114 8.7088C193.92 8.2736 194.797 8.056 195.744 8.056C197.357 8.056 198.598 8.5552 199.469 9.5536C200.352 10.5392 200.794 11.8832 200.794 13.5856C200.794 14.8016 200.55 15.8384 200.064 16.696C199.59 17.5408 198.95 18.1744 198.144 18.5968C197.35 19.0064 196.474 19.2112 195.514 19.2112C193.914 19.2112 192.672 18.7184 191.789 17.7328C190.906 16.7344 190.464 15.384 190.464 13.6816ZM195.667 17.9632C197.114 17.9632 197.837 16.568 197.837 13.7776C197.837 12.3184 197.664 11.2112 197.318 10.456C196.973 9.688 196.41 9.304 195.629 9.304C194.144 9.304 193.402 10.6992 193.402 13.4896C193.402 14.9488 193.581 16.0624 193.939 16.8304C194.31 17.5856 194.886 17.9632 195.667 17.9632ZM202.539 17.8672L203.806 17.7136V10.1488L202.577 9.8032V8.4784L205.553 8.0752H205.611L206.091 8.4592V8.8816L206.033 10.4368H206.091C206.181 10.1808 206.392 9.8672 206.725 9.496C207.057 9.112 207.473 8.7792 207.973 8.4976C208.485 8.2032 209.035 8.056 209.624 8.056C209.905 8.056 210.149 8.0944 210.353 8.1712V11.0512C209.969 10.7824 209.502 10.648 208.952 10.648C208.017 10.648 207.205 10.8976 206.513 11.3968V17.6944L208.741 17.8672V19H202.539V17.8672Z" fill="#FFFCE8"/>
<path d="M2.4001 15.6C2.39951 15.2926 2.42359 14.9856 2.4721 14.682C4.7911 13.7648 7.40935 13.9046 9.2596 14.832C10.6313 15.5179 12.1895 15.5974 13.1971 15.603V15.7241C13.1686 17.0093 12.6818 18.2421 11.8246 19.2C11.8204 19.2005 11.8161 19.2005 11.8118 19.2H3.77635C2.88908 18.211 2.3989 16.9287 2.4001 15.6Z" fill="#E74C3C"/>
<path fill-rule="evenodd" clip-rule="evenodd" d="M12 4.79999H3.60003C3.26866 4.79999 3.00003 4.53136 3.00003 4.19999V2.99999C3.00003 2.66862 3.26866 2.39999 3.60003 2.39999H12C12.3314 2.39999 12.6 2.66862 12.6 2.99999V4.19999C12.6 4.53136 12.3314 4.79999 12 4.79999ZM11.4 5.99999V8.73936C13.9197 10.0942 15.6642 12.777 15.6 15.7751C15.5602 17.6423 14.849 19.4326 13.5968 20.8181C13.1393 21.3192 12.4911 21.6033 11.8125 21.6H3.78529C3.11854 21.6 2.47279 21.3326 2.02279 20.8387C0.718787 19.4059 -0.00265525 17.5374 3.80313e-05 15.6C3.80313e-05 12.5955 1.71041 10.0069 4.20004 8.70449V5.99999H6.60004V10.1576C6.52222 10.1983 6.42579 10.245 6.31461 10.2989C5.15701 10.8597 2.40004 12.1954 2.40004 15.6C2.39884 16.9287 2.88902 18.2109 3.77629 19.2H11.8118C11.816 19.2005 11.8203 19.2005 11.8245 19.2C12.6829 18.2424 13.1708 17.0094 13.2 15.7237C13.2728 12.3406 10.4387 10.9049 9.26694 10.3113C9.16415 10.2592 9.07416 10.2136 9.00004 10.1737V5.99999H11.4Z" fill="#FFFCE8"/>
</svg>
